<svg class="img-fluid" id="outputsvg" xmlns="http://www.w3.org/2000/svg" style="transform: matrix(1.3, 0, 0, 1.3, 0, 0); transform-origin: 50% 50% 0px; cursor: move; max-height: none; transition: none;" width="450" height="450" viewBox="0 0 4500 4500"><g id="l4vArSl9wY8R2A9tZRbk7wi" fill="rgb(0,0,0)" style="transform: none;"><g style="transform: none;"><path id="pOeTQ2WoG" d="M2521 3531 c-45 -87 -136 -123 -263 -103 -53 8 -79 18 -109 41 -24 20 -49 31 -68 31 -31 0 -31 0 -31 -55 0 -64 20 -119 48 -134 12 -6 46 -11 77 -11 l56 0 -77 -90 c-75 -88 -77 -90 -100 -75 -13 8 -39 15 -59 15 -30 0 -35 -3 -35 -23 0 -53 -48 -89 -130 -97 l-55 -5 -3 -37 c-2 -28 1 -38 11 -38 8 0 17 -9 20 -21 4 -15 2 -19 -10 -15 -8 3 -31 6 -51 6 -33 0 -42 7 -83 58 -106 130 -417 421 -546 510 -18 13 -46 22 -67 22 -35 0 -36 -1 -36 -35 0 -56 79 -196 235 -420 42 -60 66 -101 53 -89 -54 48 -254 218 -394 337 -146 122 -154 127 -198 127 l-46 0 0 -72 c1 -40 7 -90 14 -110 23 -63 105 -169 228 -290 76 -76 112 -118 100 -118 -29 0 -42 -21 -42 -67 0 -49 32 -91 116 -153 45 -34 50 -42 46 -69 -2 -17 -1 -42 2 -56 4 -14 66 -87 139 -163 84 -86 146 -159 166 -197 93 -167 330 -393 494 -470 58 -27 118 -102 229 -287 191 -318 322 -410 605 -425 169 -9 265 15 347 87 29 26 49 33 124 44 116 18 204 59 288 138 59 56 65 64 62 97 -3 40 15 37 -158 31 -172 -6 -316 66 -384 191 -27 49 -28 55 -20 123 5 39 9 143 8 231 0 138 -4 174 -26 262 -70 272 -229 512 -468 708 -61 50 -69 61 -84 116 l-17 60 87 95 c98 107 131 135 189 158 72 30 85 50 85 130 0 106 -5 116 -51 116 -33 0 -39 -3 -39 -21 0 -21 -50 -79 -69 -79 -6 0 -11 15 -11 34 0 18 -3 48 -6 65 -6 27 -10 31 -40 31 -29 0 -36 -5 -53 -39z m-151 -340 c-54 -62 -60 -67 -60 -53 0 12 102 124 107 118 3 -3 -18 -32 -47 -65z m-600 -699 c82 -27 201 -84 239 -114 17 -13 38 -18 67 -17 45 3 52 -1 126 -69 31 -29 42 -34 73 -30 33 4 40 0 77 -41 22 -25 54 -69 71 -98 29 -48 35 -52 68 -53 34 0 38 -3 53 -45 15 -37 22 -45 43 -45 25 0 25 -2 21 -54 -5 -66 -40 -123 -100 -166 -83 -61 -184 -64 -346 -11 -161 53 -164 59 -26 54 151 -5 169 2 169 70 0 38 3 47 18 47 13 0 17 9 17 43 0 74 -52 136 -245 294 -83 67 -217 150 -347 214 -125 61 -118 68 22 21z"></path></g></g><g id="l5YjvzpkyuSTRMPjqcdN6pp" fill="rgb(255,255,255)" style="transform: none;"><g style="transform: none;"><path id="paUrNcmRv" d="M0 2250 l0 -2250 2250 0 2250 0 0 2250 0 2250 -2250 0 -2250 0 0 -2250z m2583 1175 l-10 -43 59 20 c59 20 98 55 98 89 0 11 4 19 9 19 12 0 21 -36 21 -86 0 -49 -20 -70 -102 -108 -45 -21 -80 -52 -160 -137 -57 -61 -105 -115 -107 -121 -2 -5 7 -45 19 -89 22 -76 25 -81 90 -134 105 -86 234 -226 298 -323 161 -245 232 -547 188 -794 -19 -107 -14 -150 27 -221 49 -82 142 -145 247 -165 99 -19 154 -23 218 -14 34 5 65 6 67 1 3 -4 -24 -34 -60 -67 -83 -79 -171 -120 -287 -138 -75 -11 -95 -18 -124 -44 -78 -68 -179 -96 -314 -86 -259 18 -393 117 -578 424 -111 185 -171 260 -229 287 -164 77 -402 304 -493 470 -21 37 -80 107 -155 185 -215 221 -208 237 40 101 409 -223 868 -502 919 -560 19 -20 19 -23 2 -39 -28 -28 -198 -22 -303 12 -92 30 -173 65 -220 97 -18 11 -33 16 -33 11 0 -18 171 -140 262 -187 48 -24 127 -57 175 -72 75 -24 105 -28 203 -28 107 0 118 2 161 27 54 32 95 77 117 128 19 44 19 151 1 210 l-14 45 -3 -42 c-2 -24 -7 -43 -11 -43 -4 0 -22 33 -40 73 -28 65 -101 169 -88 126 3 -9 9 -38 12 -65 l7 -49 -42 65 c-43 65 -175 210 -192 210 -5 0 -7 -9 -4 -20 20 -68 20 -67 -20 -29 -73 68 -234 174 -234 154 0 -3 17 -24 38 -47 27 -31 30 -38 12 -25 -45 31 -173 94 -235 115 -76 26 -175 51 -379 97 -147 33 -204 39 -143 16 61 -23 380 -168 467 -211 227 -114 493 -327 541 -433 7 -15 9 -30 6 -33 -3 -4 -66 32 -139 78 -241 154 -452 276 -753 438 -244 131 -329 186 -385 246 -61 66 -51 91 38 96 l52 3 -107 95 c-119 106 -231 230 -281 314 -25 40 -35 71 -39 115 -5 54 -4 61 12 61 17 0 112 -77 394 -320 200 -171 504 -420 514 -420 5 0 -16 26 -46 58 -108 112 -251 299 -380 497 -77 118 -152 254 -144 262 24 23 451 -363 589 -534 l50 -61 62 0 c33 0 80 -5 104 -10 45 -10 54 -4 23 15 -10 6 -23 25 -29 41 -9 27 -8 29 11 25 22 -4 22 -4 3 11 -11 9 -28 16 -39 16 -10 0 -15 5 -12 10 3 6 26 10 51 10 74 0 134 44 134 97 0 28 1 28 42 3 18 -11 41 -20 50 -20 18 0 198 205 198 226 0 17 -24 24 -81 24 -28 0 -59 5 -71 11 -23 12 -48 67 -48 104 l0 26 38 -30 c42 -34 110 -51 207 -51 119 0 187 35 231 120 l18 35 9 -39 c6 -25 6 -54 0 -81z"></path><path id="pfOypDDJI" d="M2412 3303 c-28 -13 -210 -207 -235 -250 -10 -16 20 -86 33 -78 17 11 50 83 50 111 0 21 3 25 18 19 47 -21 63 -12 144 83 45 53 78 101 76 110 -4 23 -46 26 -86 5z"></path></g></g></svg>
