G04 #@! TF.GenerationSoftware,KiCad,Pcbnew,8.0.2*
G04 #@! TF.CreationDate,2025-03-06T10:36:11-07:00*
G04 #@! TF.ProjectId,kicad,6b696361-642e-46b6-9963-61645f706362,4*
G04 #@! TF.SameCoordinates,Original*
G04 #@! TF.FileFunction,Soldermask,Top*
G04 #@! TF.FilePolarity,Negative*
%FSLAX46Y46*%
G04 Gerber Fmt 4.6, Leading zero omitted, Abs format (unit mm)*
G04 Created by KiCad (PCBNEW 8.0.2) date 2025-03-06 10:36:11*
%MOMM*%
%LPD*%
G01*
G04 APERTURE LIST*
G04 Aperture macros list*
%AMRoundRect*
0 Rectangle with rounded corners*
0 $1 Rounding radius*
0 $2 $3 $4 $5 $6 $7 $8 $9 X,Y pos of 4 corners*
0 Add a 4 corners polygon primitive as box body*
4,1,4,$2,$3,$4,$5,$6,$7,$8,$9,$2,$3,0*
0 Add four circle primitives for the rounded corners*
1,1,$1+$1,$2,$3*
1,1,$1+$1,$4,$5*
1,1,$1+$1,$6,$7*
1,1,$1+$1,$8,$9*
0 Add four rect primitives between the rounded corners*
20,1,$1+$1,$2,$3,$4,$5,0*
20,1,$1+$1,$4,$5,$6,$7,0*
20,1,$1+$1,$6,$7,$8,$9,0*
20,1,$1+$1,$8,$9,$2,$3,0*%
G04 Aperture macros list end*
%ADD10C,0.010000*%
%ADD11RoundRect,0.135000X0.135000X0.185000X-0.135000X0.185000X-0.135000X-0.185000X0.135000X-0.185000X0*%
%ADD12R,1.000000X1.550000*%
%ADD13R,0.990600X2.692400*%
%ADD14C,1.000000*%
%ADD15RoundRect,0.140000X-0.170000X0.140000X-0.170000X-0.140000X0.170000X-0.140000X0.170000X0.140000X0*%
%ADD16RoundRect,0.218750X0.256250X-0.218750X0.256250X0.218750X-0.256250X0.218750X-0.256250X-0.218750X0*%
%ADD17RoundRect,0.135000X0.185000X-0.135000X0.185000X0.135000X-0.185000X0.135000X-0.185000X-0.135000X0*%
%ADD18RoundRect,0.150000X-0.200000X0.150000X-0.200000X-0.150000X0.200000X-0.150000X0.200000X0.150000X0*%
%ADD19RoundRect,0.104167X-0.295833X0.145833X-0.295833X-0.145833X0.295833X-0.145833X0.295833X0.145833X0*%
%ADD20O,0.800000X0.500000*%
%ADD21C,0.650000*%
%ADD22O,2.304000X1.204000*%
%ADD23O,2.004000X1.204000*%
%ADD24RoundRect,0.250000X-0.625000X0.350000X-0.625000X-0.350000X0.625000X-0.350000X0.625000X0.350000X0*%
%ADD25O,1.750000X1.200000*%
%ADD26RoundRect,0.062500X0.400000X0.062500X-0.400000X0.062500X-0.400000X-0.062500X0.400000X-0.062500X0*%
%ADD27RoundRect,0.062500X0.062500X0.400000X-0.062500X0.400000X-0.062500X-0.400000X0.062500X-0.400000X0*%
%ADD28R,6.400000X6.400000*%
%ADD29RoundRect,0.140000X0.170000X-0.140000X0.170000X0.140000X-0.170000X0.140000X-0.170000X-0.140000X0*%
%ADD30RoundRect,0.250000X-0.250000X-0.475000X0.250000X-0.475000X0.250000X0.475000X-0.250000X0.475000X0*%
%ADD31RoundRect,0.140000X-0.140000X-0.170000X0.140000X-0.170000X0.140000X0.170000X-0.140000X0.170000X0*%
%ADD32RoundRect,0.225000X0.375000X-0.225000X0.375000X0.225000X-0.375000X0.225000X-0.375000X-0.225000X0*%
%ADD33RoundRect,0.135000X-0.185000X0.135000X-0.185000X-0.135000X0.185000X-0.135000X0.185000X0.135000X0*%
%ADD34RoundRect,0.225000X0.225000X0.375000X-0.225000X0.375000X-0.225000X-0.375000X0.225000X-0.375000X0*%
%ADD35RoundRect,0.140000X0.140000X0.170000X-0.140000X0.170000X-0.140000X-0.170000X0.140000X-0.170000X0*%
%ADD36RoundRect,0.147500X-0.147500X-0.172500X0.147500X-0.172500X0.147500X0.172500X-0.147500X0.172500X0*%
%ADD37RoundRect,0.100000X0.100000X-0.155000X0.100000X0.155000X-0.100000X0.155000X-0.100000X-0.155000X0*%
%ADD38RoundRect,0.135000X-0.135000X-0.185000X0.135000X-0.185000X0.135000X0.185000X-0.135000X0.185000X0*%
%ADD39R,0.950000X0.350000*%
%ADD40R,0.350000X0.950000*%
%ADD41RoundRect,0.150000X-0.512500X-0.150000X0.512500X-0.150000X0.512500X0.150000X-0.512500X0.150000X0*%
%ADD42RoundRect,0.250000X0.250000X0.475000X-0.250000X0.475000X-0.250000X-0.475000X0.250000X-0.475000X0*%
%ADD43RoundRect,0.112500X0.237500X-0.112500X0.237500X0.112500X-0.237500X0.112500X-0.237500X-0.112500X0*%
%ADD44R,0.304800X0.254000*%
%ADD45R,0.812800X0.990600*%
%ADD46C,1.397000*%
%ADD47R,1.498600X0.711200*%
%ADD48R,0.203200X0.762000*%
%ADD49R,1.600200X0.990600*%
%ADD50RoundRect,0.150000X0.200000X-0.150000X0.200000X0.150000X-0.200000X0.150000X-0.200000X-0.150000X0*%
%ADD51R,0.330200X0.812800*%
%ADD52R,0.406400X0.812800*%
%ADD53RoundRect,0.102000X0.375000X-0.425000X0.375000X0.425000X-0.375000X0.425000X-0.375000X-0.425000X0*%
G04 APERTURE END LIST*
D10*
X133130000Y-113222500D02*
X131880000Y-113222500D01*
X131880000Y-112522500D01*
X133130000Y-112522500D01*
X133130000Y-113222500D01*
G36*
X133130000Y-113222500D02*
G01*
X131880000Y-113222500D01*
X131880000Y-112522500D01*
X133130000Y-112522500D01*
X133130000Y-113222500D01*
G37*
X133130000Y-114022500D02*
X131880000Y-114022500D01*
X131880000Y-113322500D01*
X133130000Y-113322500D01*
X133130000Y-114022500D01*
G36*
X133130000Y-114022500D02*
G01*
X131880000Y-114022500D01*
X131880000Y-113322500D01*
X133130000Y-113322500D01*
X133130000Y-114022500D01*
G37*
X133130000Y-114522500D02*
X131880000Y-114522500D01*
X131880000Y-114122500D01*
X133130000Y-114122500D01*
X133130000Y-114522500D01*
G36*
X133130000Y-114522500D02*
G01*
X131880000Y-114522500D01*
X131880000Y-114122500D01*
X133130000Y-114122500D01*
X133130000Y-114522500D01*
G37*
X133130000Y-115022500D02*
X131880000Y-115022500D01*
X131880000Y-114622500D01*
X133130000Y-114622500D01*
X133130000Y-115022500D01*
G36*
X133130000Y-115022500D02*
G01*
X131880000Y-115022500D01*
X131880000Y-114622500D01*
X133130000Y-114622500D01*
X133130000Y-115022500D01*
G37*
X133130000Y-115522500D02*
X131880000Y-115522500D01*
X131880000Y-115122500D01*
X133130000Y-115122500D01*
X133130000Y-115522500D01*
G36*
X133130000Y-115522500D02*
G01*
X131880000Y-115522500D01*
X131880000Y-115122500D01*
X133130000Y-115122500D01*
X133130000Y-115522500D01*
G37*
X133130000Y-116022500D02*
X131880000Y-116022500D01*
X131880000Y-115622500D01*
X133130000Y-115622500D01*
X133130000Y-116022500D01*
G36*
X133130000Y-116022500D02*
G01*
X131880000Y-116022500D01*
X131880000Y-115622500D01*
X133130000Y-115622500D01*
X133130000Y-116022500D01*
G37*
X133130000Y-116522500D02*
X131880000Y-116522500D01*
X131880000Y-116122500D01*
X133130000Y-116122500D01*
X133130000Y-116522500D01*
G36*
X133130000Y-116522500D02*
G01*
X131880000Y-116522500D01*
X131880000Y-116122500D01*
X133130000Y-116122500D01*
X133130000Y-116522500D01*
G37*
X133130000Y-117022500D02*
X131880000Y-117022500D01*
X131880000Y-116622500D01*
X133130000Y-116622500D01*
X133130000Y-117022500D01*
G36*
X133130000Y-117022500D02*
G01*
X131880000Y-117022500D01*
X131880000Y-116622500D01*
X133130000Y-116622500D01*
X133130000Y-117022500D01*
G37*
X133130000Y-117522500D02*
X131880000Y-117522500D01*
X131880000Y-117122500D01*
X133130000Y-117122500D01*
X133130000Y-117522500D01*
G36*
X133130000Y-117522500D02*
G01*
X131880000Y-117522500D01*
X131880000Y-117122500D01*
X133130000Y-117122500D01*
X133130000Y-117522500D01*
G37*
X133130000Y-118022500D02*
X131880000Y-118022500D01*
X131880000Y-117622500D01*
X133130000Y-117622500D01*
X133130000Y-118022500D01*
G36*
X133130000Y-118022500D02*
G01*
X131880000Y-118022500D01*
X131880000Y-117622500D01*
X133130000Y-117622500D01*
X133130000Y-118022500D01*
G37*
X133130000Y-118822500D02*
X131880000Y-118822500D01*
X131880000Y-118122500D01*
X133130000Y-118122500D01*
X133130000Y-118822500D01*
G36*
X133130000Y-118822500D02*
G01*
X131880000Y-118822500D01*
X131880000Y-118122500D01*
X133130000Y-118122500D01*
X133130000Y-118822500D01*
G37*
X133130000Y-119622500D02*
X131880000Y-119622500D01*
X131880000Y-118922500D01*
X133130000Y-118922500D01*
X133130000Y-119622500D01*
G36*
X133130000Y-119622500D02*
G01*
X131880000Y-119622500D01*
X131880000Y-118922500D01*
X133130000Y-118922500D01*
X133130000Y-119622500D01*
G37*
D11*
X147710000Y-103000000D03*
X146690000Y-103000000D03*
D12*
X157539000Y-129628500D03*
X157539000Y-124378500D03*
X155839000Y-129628500D03*
X155839000Y-124378500D03*
D13*
X149707800Y-119400000D03*
X151892200Y-119400000D03*
D14*
X152500000Y-101500000D03*
D15*
X152300000Y-116000000D03*
X152300000Y-116960000D03*
D16*
X131300000Y-129912000D03*
X131300000Y-128337000D03*
D17*
X150500000Y-105770000D03*
X150500000Y-104750000D03*
D18*
X134600000Y-113650000D03*
X134600000Y-112250000D03*
D19*
X134000000Y-101600000D03*
D20*
X134000000Y-102616000D03*
D21*
X131430000Y-113182500D03*
X131430000Y-118962500D03*
D22*
X131930000Y-111752500D03*
D23*
X127750000Y-111752500D03*
D22*
X131930000Y-120392500D03*
D23*
X127750000Y-120392500D03*
D11*
X149820000Y-103000000D03*
X148800000Y-103000000D03*
D14*
X145000000Y-101500000D03*
D24*
X156500000Y-108000000D03*
D25*
X156500000Y-110000000D03*
D26*
X145937500Y-114400000D03*
X145937500Y-114000000D03*
X145937500Y-113600000D03*
X145937500Y-113200000D03*
X145937500Y-112800000D03*
X145937500Y-112400000D03*
X145937500Y-112000000D03*
X145937500Y-111600000D03*
X145937500Y-111200000D03*
X145937500Y-110800000D03*
X145937500Y-110400000D03*
X145937500Y-110000000D03*
X145937500Y-109600000D03*
X145937500Y-109200000D03*
X145937500Y-108800000D03*
X145937500Y-108400000D03*
X145937500Y-108000000D03*
D27*
X145250000Y-107312500D03*
X144850000Y-107312500D03*
X144450000Y-107312500D03*
X144050000Y-107312500D03*
X143650000Y-107312500D03*
X143250000Y-107312500D03*
X142850000Y-107312500D03*
X142450000Y-107312500D03*
X142050000Y-107312500D03*
X141650000Y-107312500D03*
X141250000Y-107312500D03*
X140850000Y-107312500D03*
X140450000Y-107312500D03*
X140050000Y-107312500D03*
X139650000Y-107312500D03*
X139250000Y-107312500D03*
X138850000Y-107312500D03*
D26*
X138162500Y-108000000D03*
X138162500Y-108400000D03*
X138162500Y-108800000D03*
X138162500Y-109200000D03*
X138162500Y-109600000D03*
X138162500Y-110000000D03*
X138162500Y-110400000D03*
X138162500Y-110800000D03*
X138162500Y-111200000D03*
X138162500Y-111600000D03*
X138162500Y-112000000D03*
X138162500Y-112400000D03*
X138162500Y-112800000D03*
X138162500Y-113200000D03*
X138162500Y-113600000D03*
X138162500Y-114000000D03*
X138162500Y-114400000D03*
D27*
X138850000Y-115087500D03*
X139250000Y-115087500D03*
X139650000Y-115087500D03*
X140050000Y-115087500D03*
X140450000Y-115087500D03*
X140850000Y-115087500D03*
X141250000Y-115087500D03*
X141650000Y-115087500D03*
X142050000Y-115087500D03*
X142450000Y-115087500D03*
X142850000Y-115087500D03*
X143250000Y-115087500D03*
X143650000Y-115087500D03*
X144050000Y-115087500D03*
X144450000Y-115087500D03*
X144850000Y-115087500D03*
X145250000Y-115087500D03*
D28*
X142050000Y-111200000D03*
D29*
X153150000Y-103880000D03*
X153150000Y-102920000D03*
D18*
X136400000Y-115700000D03*
X136400000Y-114300000D03*
D16*
X150438000Y-129912000D03*
X150438000Y-128337000D03*
D30*
X155300000Y-122000000D03*
X157200000Y-122000000D03*
D31*
X147400000Y-114500000D03*
X148360000Y-114500000D03*
D32*
X141600000Y-120450000D03*
X141600000Y-117150000D03*
D33*
X144500000Y-119090000D03*
X144500000Y-120110000D03*
X133800000Y-119690000D03*
X133800000Y-120710000D03*
D34*
X139650000Y-117730000D03*
X136350000Y-117730000D03*
D15*
X135880000Y-119520000D03*
X135880000Y-120480000D03*
D35*
X138280000Y-100600000D03*
X137320000Y-100600000D03*
D36*
X139315000Y-101400000D03*
X140285000Y-101400000D03*
D33*
X152460000Y-121960000D03*
X152460000Y-122980000D03*
D15*
X137900000Y-119520000D03*
X137900000Y-120480000D03*
D29*
X140950000Y-106060000D03*
X140950000Y-105100000D03*
D14*
X147500000Y-101500000D03*
D37*
X149100000Y-104155000D03*
X148100000Y-104155000D03*
X148600000Y-105445000D03*
D38*
X133990000Y-114750000D03*
X135010000Y-114750000D03*
D35*
X155730000Y-102000000D03*
X154770000Y-102000000D03*
D33*
X152250000Y-126990000D03*
X152250000Y-128010000D03*
D14*
X150000000Y-101500000D03*
D15*
X136880000Y-119520000D03*
X136880000Y-120480000D03*
D33*
X133000000Y-125980000D03*
X133000000Y-127000000D03*
D11*
X151260000Y-127000000D03*
X150240000Y-127000000D03*
D33*
X130600000Y-100640000D03*
X130600000Y-101660000D03*
D17*
X151750000Y-105760000D03*
X151750000Y-104740000D03*
D39*
X138650000Y-104650000D03*
X138650000Y-104000000D03*
X138650000Y-103350000D03*
D40*
X137900000Y-102600000D03*
X137250000Y-102600000D03*
X136600000Y-102600000D03*
D39*
X135850000Y-103350000D03*
X135850000Y-104000000D03*
X135850000Y-104650000D03*
D40*
X136600000Y-105400000D03*
X137250000Y-105400000D03*
X137900000Y-105400000D03*
D31*
X147620000Y-107300000D03*
X148580000Y-107300000D03*
D17*
X131250000Y-124760000D03*
X131250000Y-123740000D03*
D29*
X149000000Y-110480000D03*
X149000000Y-109520000D03*
D38*
X153240000Y-126250000D03*
X154260000Y-126250000D03*
D41*
X154612500Y-103550000D03*
X154612500Y-104500000D03*
X154612500Y-105450000D03*
X156887500Y-105450000D03*
X156887500Y-103550000D03*
D33*
X142950000Y-104740000D03*
X142950000Y-105760000D03*
D14*
X151400000Y-103200000D03*
D33*
X132600000Y-100640000D03*
X132600000Y-101660000D03*
D34*
X150950000Y-116300000D03*
X147650000Y-116300000D03*
D12*
X157539000Y-100407000D03*
X157539000Y-95157000D03*
X155839000Y-100407000D03*
X155839000Y-95157000D03*
D42*
X145550000Y-117500000D03*
X143650000Y-117500000D03*
D31*
X147620000Y-108250000D03*
X148580000Y-108250000D03*
D43*
X147900000Y-120550000D03*
X147900000Y-119250000D03*
X145900000Y-119900000D03*
D11*
X157760000Y-102000000D03*
X156740000Y-102000000D03*
D29*
X150400000Y-122990000D03*
X150400000Y-122030000D03*
X134750000Y-120730000D03*
X134750000Y-119770000D03*
D12*
X127401000Y-95150000D03*
X127401000Y-100400000D03*
X129101000Y-95150000D03*
X129101000Y-100400000D03*
D44*
X140200000Y-102626002D03*
X140200000Y-103213001D03*
X140200000Y-103800000D03*
X140708000Y-103800000D03*
X140708000Y-103213001D03*
X140708000Y-102626002D03*
D17*
X151500000Y-112510000D03*
X151500000Y-111490000D03*
D14*
X153950000Y-124500000D03*
D45*
X157850000Y-119722480D03*
X157850000Y-112422520D03*
X155650000Y-112422520D03*
X155650000Y-119722480D03*
D46*
X156750000Y-117566020D03*
X156750000Y-114568820D03*
D47*
X155040400Y-118315320D03*
X155040400Y-115330820D03*
X155040400Y-113832220D03*
D29*
X150250000Y-110500000D03*
X150250000Y-109540000D03*
D48*
X151699900Y-109981200D03*
X152099950Y-109981200D03*
X152500000Y-109981200D03*
X152900050Y-109981200D03*
X153300100Y-109981200D03*
X153300100Y-107619000D03*
X152900050Y-107619000D03*
X152500000Y-107619000D03*
X152099950Y-107619000D03*
X151699900Y-107619000D03*
D49*
X152500000Y-108800100D03*
D12*
X127399000Y-124371500D03*
X127399000Y-129621500D03*
X129099000Y-124371500D03*
X129099000Y-129621500D03*
D14*
X150900000Y-125100000D03*
D31*
X148020000Y-112000000D03*
X148980000Y-112000000D03*
D38*
X127240000Y-102000000D03*
X128260000Y-102000000D03*
D31*
X133040000Y-99400000D03*
X134000000Y-99400000D03*
D35*
X136850000Y-110600000D03*
X135890000Y-110600000D03*
D50*
X134600000Y-117200000D03*
X134600000Y-118600000D03*
D33*
X131250000Y-125990000D03*
X131250000Y-127010000D03*
D15*
X154200000Y-111600000D03*
X154200000Y-112560000D03*
X150500000Y-111520000D03*
X150500000Y-112480000D03*
D29*
X154200000Y-120430000D03*
X154200000Y-119470000D03*
D33*
X131600000Y-100640000D03*
X131600000Y-101660000D03*
D15*
X134300000Y-122180000D03*
X134300000Y-123140000D03*
D33*
X143500000Y-119100000D03*
X143500000Y-120120000D03*
D51*
X148219999Y-122156000D03*
X147719998Y-122156000D03*
X147219999Y-122156000D03*
X146719997Y-122156000D03*
X146219998Y-122156000D03*
X145719999Y-122156000D03*
X145219998Y-122156000D03*
X144719999Y-122156000D03*
X144219997Y-122156000D03*
X143719998Y-122156000D03*
X143219999Y-122156000D03*
X142719998Y-122156000D03*
X142219998Y-122156000D03*
X141719997Y-122156000D03*
X141219998Y-122156000D03*
X140719999Y-122156000D03*
X140219997Y-122156000D03*
X139719998Y-122156000D03*
X139219997Y-122156000D03*
X138719998Y-122156000D03*
X138219999Y-122156000D03*
X137719997Y-122156000D03*
X137219998Y-122156000D03*
X136719999Y-122156000D03*
D52*
X135720001Y-124656000D03*
X149219999Y-124656000D03*
D16*
X134500000Y-129912000D03*
X134500000Y-128337000D03*
X153638000Y-129912000D03*
X153638000Y-128337000D03*
D17*
X151460000Y-123000000D03*
X151460000Y-121980000D03*
D53*
X136725000Y-108475000D03*
X136725000Y-107125000D03*
X135675000Y-107125000D03*
X135675000Y-108475000D03*
D15*
X138900000Y-119520000D03*
X138900000Y-120480000D03*
X150250000Y-107520000D03*
X150250000Y-108480000D03*
D14*
X142450000Y-101500000D03*
D15*
X139900000Y-119520000D03*
X139900000Y-120480000D03*
D17*
X153000000Y-105760000D03*
X153000000Y-104740000D03*
M02*
