G04 #@! TF.GenerationSoftware,KiCad,Pcbnew,8.0.2*
G04 #@! TF.CreationDate,2024-10-06T19:59:24-06:00*
G04 #@! TF.ProjectId,kicad,6b696361-642e-46b6-9963-61645f706362,rev?*
G04 #@! TF.SameCoordinates,Original*
G04 #@! TF.FileFunction,Copper,L1,Top*
G04 #@! TF.FilePolarity,Positive*
%FSLAX46Y46*%
G04 Gerber Fmt 4.6, Leading zero omitted, Abs format (unit mm)*
G04 Created by KiCad (PCBNEW 8.0.2) date 2024-10-06 19:59:24*
%MOMM*%
%LPD*%
G01*
G04 APERTURE LIST*
G04 Aperture macros list*
%AMRoundRect*
0 Rectangle with rounded corners*
0 $1 Rounding radius*
0 $2 $3 $4 $5 $6 $7 $8 $9 X,Y pos of 4 corners*
0 Add a 4 corners polygon primitive as box body*
4,1,4,$2,$3,$4,$5,$6,$7,$8,$9,$2,$3,0*
0 Add four circle primitives for the rounded corners*
1,1,$1+$1,$2,$3*
1,1,$1+$1,$4,$5*
1,1,$1+$1,$6,$7*
1,1,$1+$1,$8,$9*
0 Add four rect primitives between the rounded corners*
20,1,$1+$1,$2,$3,$4,$5,0*
20,1,$1+$1,$4,$5,$6,$7,0*
20,1,$1+$1,$6,$7,$8,$9,0*
20,1,$1+$1,$8,$9,$2,$3,0*%
%AMFreePoly0*
4,1,6,1.000000,0.000000,0.500000,-0.750000,-0.500000,-0.750000,-0.500000,0.750000,0.500000,0.750000,1.000000,0.000000,1.000000,0.000000,$1*%
%AMFreePoly1*
4,1,6,0.500000,-0.750000,-0.650000,-0.750000,-0.150000,0.000000,-0.650000,0.750000,0.500000,0.750000,0.500000,-0.750000,0.500000,-0.750000,$1*%
%AMFreePoly2*
4,1,7,0.700000,0.000000,1.200000,-0.750000,-1.200000,-0.750000,-0.700000,0.000000,-1.200000,0.750000,1.200000,0.750000,0.700000,0.000000,0.700000,0.000000,$1*%
%AMFreePoly3*
4,1,165,-0.066464,0.578536,-0.065000,0.575000,-0.065000,0.507308,-0.064050,0.499707,-0.063050,0.492707,-0.063039,0.492620,-0.062077,0.484926,-0.060170,0.477297,-0.058247,0.470567,-0.055358,0.462862,-0.052404,0.455970,-0.049515,0.449229,-0.045659,0.442481,-0.041877,0.435862,-0.037159,0.430201,-0.036840,0.429774,-0.033116,0.424188,-0.027464,0.418536,-0.027159,0.418201,-0.022449,0.412550,
-0.016799,0.407841,-0.016464,0.407536,-0.010812,0.401884,-0.005226,0.398160,-0.004799,0.397841,0.000862,0.393122,0.007481,0.389341,0.014229,0.385485,0.020970,0.382596,0.027862,0.379642,0.035567,0.376752,0.042297,0.374830,0.049926,0.372922,0.057620,0.371961,0.057707,0.371950,0.064700,0.370951,0.072308,0.370000,0.137692,0.370000,0.145300,0.370951,0.152293,0.371950,
0.152380,0.371961,0.160074,0.372922,0.167703,0.374830,0.174432,0.376752,0.182137,0.379642,0.189030,0.382596,0.195771,0.385485,0.202519,0.389341,0.209137,0.393122,0.214799,0.397841,0.215226,0.398160,0.220812,0.401884,0.226464,0.407536,0.226799,0.407841,0.232449,0.412550,0.237159,0.418201,0.237464,0.418536,0.243116,0.424188,0.246840,0.429774,0.247159,0.430201,
0.251877,0.435862,0.255659,0.442481,0.259515,0.449229,0.262404,0.455970,0.265358,0.462862,0.268247,0.470567,0.270170,0.477297,0.272077,0.484926,0.273039,0.492620,0.273050,0.492707,0.274050,0.499707,0.275000,0.507308,0.275000,0.575000,0.276464,0.578536,0.280000,0.580000,1.220000,0.580000,1.223536,0.578536,1.225000,0.575000,1.225000,-0.575000,1.223536,-0.578536,
1.220000,-0.580000,0.280000,-0.580000,0.276464,-0.578536,0.275000,-0.575000,0.275000,-0.507308,0.274050,-0.499707,0.273050,-0.492707,0.273039,-0.492620,0.272077,-0.484926,0.270170,-0.477297,0.268247,-0.470567,0.265358,-0.462862,0.262404,-0.455970,0.259515,-0.449229,0.255659,-0.442481,0.251877,-0.435862,0.247159,-0.430201,0.246840,-0.429774,0.243116,-0.424188,0.237464,-0.418536,
0.237159,-0.418201,0.232449,-0.412550,0.226799,-0.407841,0.226464,-0.407536,0.220812,-0.401884,0.215226,-0.398160,0.214799,-0.397841,0.209137,-0.393122,0.202519,-0.389341,0.195771,-0.385485,0.189030,-0.382596,0.182137,-0.379642,0.174432,-0.376752,0.167703,-0.374830,0.160074,-0.372922,0.152380,-0.371961,0.152293,-0.371950,0.145300,-0.370951,0.137692,-0.370000,0.072308,-0.370000,
0.064700,-0.370951,0.057707,-0.371950,0.057620,-0.371961,0.049926,-0.372922,0.042297,-0.374830,0.035567,-0.376752,0.027862,-0.379642,0.020970,-0.382596,0.014229,-0.385485,0.007481,-0.389341,0.000862,-0.393122,-0.004799,-0.397841,-0.005226,-0.398160,-0.010812,-0.401884,-0.016464,-0.407536,-0.016799,-0.407841,-0.022449,-0.412550,-0.027159,-0.418201,-0.027464,-0.418536,-0.033116,-0.424188,
-0.036840,-0.429774,-0.037159,-0.430201,-0.041877,-0.435862,-0.045659,-0.442481,-0.049515,-0.449229,-0.052404,-0.455970,-0.055358,-0.462862,-0.058247,-0.470567,-0.060170,-0.477297,-0.062077,-0.484926,-0.063039,-0.492620,-0.063050,-0.492707,-0.064050,-0.499707,-0.065000,-0.507308,-0.065000,-0.575000,-0.066464,-0.578536,-0.070000,-0.580000,-1.220000,-0.580000,-1.223536,-0.578536,-1.225000,-0.575000,
-1.225000,0.575000,-1.223536,0.578536,-1.220000,0.580000,-0.070000,0.580000,-0.066464,0.578536,-0.066464,0.578536,$1*%
G04 Aperture macros list end*
G04 #@! TA.AperFunction,SMDPad,CuDef*
%ADD10R,1.000000X1.800000*%
G04 #@! TD*
G04 #@! TA.AperFunction,SMDPad,CuDef*
%ADD11R,0.990600X2.692400*%
G04 #@! TD*
G04 #@! TA.AperFunction,SMDPad,CuDef*
%ADD12RoundRect,0.237500X0.237500X-0.287500X0.237500X0.287500X-0.237500X0.287500X-0.237500X-0.287500X0*%
G04 #@! TD*
G04 #@! TA.AperFunction,SMDPad,CuDef*
%ADD13RoundRect,0.237500X0.237500X-0.250000X0.237500X0.250000X-0.237500X0.250000X-0.237500X-0.250000X0*%
G04 #@! TD*
G04 #@! TA.AperFunction,SMDPad,CuDef*
%ADD14C,1.500000*%
G04 #@! TD*
G04 #@! TA.AperFunction,SMDPad,CuDef*
%ADD15RoundRect,0.150000X0.200000X-0.150000X0.200000X0.150000X-0.200000X0.150000X-0.200000X-0.150000X0*%
G04 #@! TD*
G04 #@! TA.AperFunction,SMDPad,CuDef*
%ADD16RoundRect,0.237500X-0.237500X0.250000X-0.237500X-0.250000X0.237500X-0.250000X0.237500X0.250000X0*%
G04 #@! TD*
G04 #@! TA.AperFunction,SMDPad,CuDef*
%ADD17R,0.600000X1.150000*%
G04 #@! TD*
G04 #@! TA.AperFunction,SMDPad,CuDef*
%ADD18R,0.300000X1.150000*%
G04 #@! TD*
G04 #@! TA.AperFunction,ComponentPad*
%ADD19O,1.000000X2.100000*%
G04 #@! TD*
G04 #@! TA.AperFunction,ComponentPad*
%ADD20O,1.000000X1.800000*%
G04 #@! TD*
G04 #@! TA.AperFunction,SMDPad,CuDef*
%ADD21RoundRect,0.237500X-0.237500X0.300000X-0.237500X-0.300000X0.237500X-0.300000X0.237500X0.300000X0*%
G04 #@! TD*
G04 #@! TA.AperFunction,ComponentPad*
%ADD22RoundRect,0.250000X0.350000X0.625000X-0.350000X0.625000X-0.350000X-0.625000X0.350000X-0.625000X0*%
G04 #@! TD*
G04 #@! TA.AperFunction,ComponentPad*
%ADD23O,1.200000X1.750000*%
G04 #@! TD*
G04 #@! TA.AperFunction,SMDPad,CuDef*
%ADD24RoundRect,0.237500X0.250000X0.237500X-0.250000X0.237500X-0.250000X-0.237500X0.250000X-0.237500X0*%
G04 #@! TD*
G04 #@! TA.AperFunction,SMDPad,CuDef*
%ADD25FreePoly0,270.000000*%
G04 #@! TD*
G04 #@! TA.AperFunction,SMDPad,CuDef*
%ADD26FreePoly1,270.000000*%
G04 #@! TD*
G04 #@! TA.AperFunction,SMDPad,CuDef*
%ADD27RoundRect,0.250000X-0.475000X0.337500X-0.475000X-0.337500X0.475000X-0.337500X0.475000X0.337500X0*%
G04 #@! TD*
G04 #@! TA.AperFunction,SMDPad,CuDef*
%ADD28RoundRect,0.225000X0.375000X-0.225000X0.375000X0.225000X-0.375000X0.225000X-0.375000X-0.225000X0*%
G04 #@! TD*
G04 #@! TA.AperFunction,SMDPad,CuDef*
%ADD29RoundRect,0.225000X-0.375000X0.225000X-0.375000X-0.225000X0.375000X-0.225000X0.375000X0.225000X0*%
G04 #@! TD*
G04 #@! TA.AperFunction,ComponentPad*
%ADD30RoundRect,0.250000X-0.600000X-0.725000X0.600000X-0.725000X0.600000X0.725000X-0.600000X0.725000X0*%
G04 #@! TD*
G04 #@! TA.AperFunction,ComponentPad*
%ADD31O,1.700000X1.950000*%
G04 #@! TD*
G04 #@! TA.AperFunction,SMDPad,CuDef*
%ADD32RoundRect,0.250000X0.337500X0.475000X-0.337500X0.475000X-0.337500X-0.475000X0.337500X-0.475000X0*%
G04 #@! TD*
G04 #@! TA.AperFunction,SMDPad,CuDef*
%ADD33FreePoly0,0.000000*%
G04 #@! TD*
G04 #@! TA.AperFunction,SMDPad,CuDef*
%ADD34FreePoly2,0.000000*%
G04 #@! TD*
G04 #@! TA.AperFunction,SMDPad,CuDef*
%ADD35FreePoly0,180.000000*%
G04 #@! TD*
G04 #@! TA.AperFunction,SMDPad,CuDef*
%ADD36RoundRect,0.237500X-0.300000X-0.237500X0.300000X-0.237500X0.300000X0.237500X-0.300000X0.237500X0*%
G04 #@! TD*
G04 #@! TA.AperFunction,ComponentPad*
%ADD37RoundRect,0.250000X0.725000X-0.600000X0.725000X0.600000X-0.725000X0.600000X-0.725000X-0.600000X0*%
G04 #@! TD*
G04 #@! TA.AperFunction,ComponentPad*
%ADD38O,1.950000X1.700000*%
G04 #@! TD*
G04 #@! TA.AperFunction,ComponentPad*
%ADD39RoundRect,0.250000X-0.600000X-0.750000X0.600000X-0.750000X0.600000X0.750000X-0.600000X0.750000X0*%
G04 #@! TD*
G04 #@! TA.AperFunction,ComponentPad*
%ADD40O,1.700000X2.000000*%
G04 #@! TD*
G04 #@! TA.AperFunction,SMDPad,CuDef*
%ADD41RoundRect,0.237500X-0.250000X-0.237500X0.250000X-0.237500X0.250000X0.237500X-0.250000X0.237500X0*%
G04 #@! TD*
G04 #@! TA.AperFunction,SMDPad,CuDef*
%ADD42R,0.350000X0.950000*%
G04 #@! TD*
G04 #@! TA.AperFunction,SMDPad,CuDef*
%ADD43R,0.950000X0.350000*%
G04 #@! TD*
G04 #@! TA.AperFunction,SMDPad,CuDef*
%ADD44FreePoly1,180.000000*%
G04 #@! TD*
G04 #@! TA.AperFunction,ComponentPad*
%ADD45RoundRect,0.250000X0.600000X0.725000X-0.600000X0.725000X-0.600000X-0.725000X0.600000X-0.725000X0*%
G04 #@! TD*
G04 #@! TA.AperFunction,SMDPad,CuDef*
%ADD46FreePoly3,0.000000*%
G04 #@! TD*
G04 #@! TA.AperFunction,ComponentPad*
%ADD47RoundRect,0.250000X-0.725000X0.600000X-0.725000X-0.600000X0.725000X-0.600000X0.725000X0.600000X0*%
G04 #@! TD*
G04 #@! TA.AperFunction,SMDPad,CuDef*
%ADD48RoundRect,0.250000X-0.337500X-0.475000X0.337500X-0.475000X0.337500X0.475000X-0.337500X0.475000X0*%
G04 #@! TD*
G04 #@! TA.AperFunction,SMDPad,CuDef*
%ADD49RoundRect,0.250000X0.475000X-0.337500X0.475000X0.337500X-0.475000X0.337500X-0.475000X-0.337500X0*%
G04 #@! TD*
G04 #@! TA.AperFunction,SMDPad,CuDef*
%ADD50RoundRect,0.112500X-0.112500X-0.637500X0.112500X-0.637500X0.112500X0.637500X-0.112500X0.637500X0*%
G04 #@! TD*
G04 #@! TA.AperFunction,SMDPad,CuDef*
%ADD51C,0.230000*%
G04 #@! TD*
G04 #@! TA.AperFunction,SMDPad,CuDef*
%ADD52RoundRect,0.150000X-0.825000X-0.150000X0.825000X-0.150000X0.825000X0.150000X-0.825000X0.150000X0*%
G04 #@! TD*
G04 #@! TA.AperFunction,SMDPad,CuDef*
%ADD53RoundRect,0.150000X0.512500X0.150000X-0.512500X0.150000X-0.512500X-0.150000X0.512500X-0.150000X0*%
G04 #@! TD*
G04 #@! TA.AperFunction,SMDPad,CuDef*
%ADD54R,0.838200X0.355600*%
G04 #@! TD*
G04 #@! TA.AperFunction,SMDPad,CuDef*
%ADD55R,0.838200X0.406400*%
G04 #@! TD*
G04 #@! TA.AperFunction,ViaPad*
%ADD56C,0.600000*%
G04 #@! TD*
G04 #@! TA.AperFunction,Conductor*
%ADD57C,0.200000*%
G04 #@! TD*
G04 #@! TA.AperFunction,Conductor*
%ADD58C,0.150000*%
G04 #@! TD*
G04 #@! TA.AperFunction,Conductor*
%ADD59C,0.100000*%
G04 #@! TD*
G04 APERTURE END LIST*
D10*
X184800000Y-142500000D03*
X184800000Y-137500000D03*
X186500000Y-142500000D03*
X186500000Y-137500000D03*
D11*
X112592200Y-80000000D03*
X110407800Y-80000000D03*
D12*
X171500000Y-59375000D03*
X171500000Y-57625000D03*
X115000000Y-62000000D03*
X115000000Y-60250000D03*
D13*
X138000000Y-57412500D03*
X138000000Y-55587500D03*
D14*
X191500000Y-64000000D03*
X151400000Y-70000000D03*
D15*
X189250000Y-55800000D03*
X189250000Y-57200000D03*
D16*
X131815000Y-55837500D03*
X131815000Y-57662500D03*
D17*
X189200000Y-54255000D03*
X188400000Y-54255000D03*
D18*
X187250000Y-54255000D03*
X186250000Y-54255000D03*
X185750000Y-54255000D03*
X184750000Y-54255000D03*
D17*
X183600000Y-54255000D03*
X182800000Y-54255000D03*
X182800000Y-54255000D03*
X183600000Y-54255000D03*
D18*
X184250000Y-54255000D03*
X185250000Y-54255000D03*
X186750000Y-54255000D03*
X187750000Y-54255000D03*
D17*
X188400000Y-54255000D03*
X189200000Y-54255000D03*
D19*
X190320000Y-53680000D03*
D20*
X190320000Y-49500000D03*
D19*
X181680000Y-53680000D03*
D20*
X181680000Y-49500000D03*
D16*
X119040000Y-56087500D03*
X119040000Y-57912500D03*
D21*
X153000000Y-62500000D03*
X153000000Y-64225000D03*
D22*
X156000000Y-54500000D03*
D23*
X154000000Y-54500000D03*
D14*
X121500000Y-85500000D03*
D24*
X102912500Y-127000000D03*
X101087500Y-127000000D03*
D25*
X125500000Y-127050000D03*
D26*
X125500000Y-128500000D03*
D15*
X174000000Y-55000000D03*
X174000000Y-56400000D03*
D12*
X123000000Y-62000000D03*
X123000000Y-60250000D03*
D27*
X107000000Y-78962500D03*
X107000000Y-81037500D03*
D28*
X113000000Y-99075000D03*
X113000000Y-95775000D03*
D16*
X94500000Y-68500000D03*
X94500000Y-70325000D03*
X184000000Y-57000000D03*
X184000000Y-58825000D03*
D29*
X119000000Y-95775000D03*
X119000000Y-99075000D03*
D30*
X116500000Y-51000000D03*
D31*
X119000000Y-51000000D03*
X121500000Y-51000000D03*
D32*
X107075000Y-113000000D03*
X105000000Y-113000000D03*
D24*
X133000000Y-78000000D03*
X131175000Y-78000000D03*
D32*
X107075000Y-106980000D03*
X105000000Y-106980000D03*
D33*
X127700000Y-70500000D03*
D34*
X129700000Y-70500000D03*
D35*
X131700000Y-70500000D03*
D14*
X146000000Y-126000000D03*
D10*
X187000000Y-95500000D03*
X187000000Y-90500000D03*
X188700000Y-95500000D03*
X188700000Y-90500000D03*
D36*
X143525000Y-62645000D03*
X145250000Y-62645000D03*
D16*
X187510000Y-57175000D03*
X187510000Y-59000000D03*
D14*
X107500000Y-55000000D03*
D13*
X145500000Y-57412500D03*
X145500000Y-55587500D03*
D12*
X95000000Y-62000000D03*
X95000000Y-60250000D03*
D32*
X107075000Y-109990000D03*
X105000000Y-109990000D03*
D37*
X97000000Y-89500000D03*
D38*
X97000000Y-87000000D03*
X97000000Y-84500000D03*
X97000000Y-82000000D03*
X97000000Y-79500000D03*
X97000000Y-77000000D03*
D39*
X97000000Y-51000000D03*
D40*
X99500000Y-51000000D03*
D14*
X107500000Y-49950000D03*
X161500000Y-70000000D03*
X191500000Y-59000000D03*
X156450000Y-70000000D03*
D41*
X122087500Y-133500000D03*
X123912500Y-133500000D03*
D30*
X138000000Y-50500000D03*
D31*
X140500000Y-50500000D03*
X143000000Y-50500000D03*
X145500000Y-50500000D03*
D42*
X130950000Y-137550000D03*
X131600000Y-137550000D03*
X132250000Y-137550000D03*
D43*
X133000000Y-136800000D03*
X133000000Y-136150000D03*
X133000000Y-135500000D03*
D42*
X132250000Y-134750000D03*
X131600000Y-134750000D03*
X130950000Y-134750000D03*
D43*
X130200000Y-135500000D03*
X130200000Y-136150000D03*
X130200000Y-136800000D03*
D13*
X173500000Y-133500000D03*
X173500000Y-131675000D03*
D41*
X168087500Y-59500000D03*
X169912500Y-59500000D03*
D21*
X161500000Y-63137500D03*
X161500000Y-64862500D03*
D39*
X173500000Y-50000000D03*
D40*
X176000000Y-50000000D03*
D13*
X181500000Y-143000000D03*
X181500000Y-141175000D03*
D16*
X99500000Y-68587500D03*
X99500000Y-70412500D03*
D21*
X158000000Y-61775000D03*
X158000000Y-63500000D03*
D14*
X121500000Y-75400000D03*
D35*
X131500000Y-64000000D03*
D44*
X130050000Y-64000000D03*
D14*
X143000000Y-126000000D03*
D45*
X142500000Y-143000000D03*
D31*
X140000000Y-143000000D03*
X137500000Y-143000000D03*
X135000000Y-143000000D03*
X132500000Y-143000000D03*
X130000000Y-143000000D03*
D33*
X127675000Y-75500000D03*
D34*
X129675000Y-75500000D03*
D35*
X131675000Y-75500000D03*
D41*
X122087500Y-140000000D03*
X123912500Y-140000000D03*
D28*
X115925000Y-104075000D03*
X115925000Y-100775000D03*
D46*
X145290000Y-132000000D03*
D25*
X109500000Y-127000000D03*
D26*
X109500000Y-128450000D03*
D10*
X184800000Y-133000000D03*
X184800000Y-128000000D03*
X186500000Y-133000000D03*
X186500000Y-128000000D03*
D27*
X116000000Y-95925000D03*
X116000000Y-98000000D03*
D47*
X189500000Y-110500000D03*
D38*
X189500000Y-113000000D03*
X189500000Y-115500000D03*
X189500000Y-118000000D03*
D16*
X123040000Y-56087500D03*
X123040000Y-57912500D03*
D13*
X181500000Y-133500000D03*
X181500000Y-131675000D03*
D48*
X98962500Y-97000000D03*
X101037500Y-97000000D03*
D49*
X119000000Y-103500000D03*
X119000000Y-101425000D03*
D14*
X121500000Y-80450000D03*
D10*
X170200000Y-137500000D03*
X170200000Y-142500000D03*
X168500000Y-137500000D03*
X168500000Y-142500000D03*
D50*
X106850000Y-89830000D03*
X108150000Y-89830000D03*
X107500000Y-87170000D03*
D16*
X95040000Y-56337500D03*
X95040000Y-58162500D03*
D27*
X161000000Y-58462500D03*
X161000000Y-60537500D03*
D35*
X169500000Y-57000000D03*
D44*
X168050000Y-57000000D03*
D41*
X143475000Y-60135000D03*
X145300000Y-60135000D03*
D51*
X154300000Y-58400001D03*
X154699999Y-58400001D03*
X155100001Y-58400001D03*
X155500000Y-58400001D03*
X154300000Y-58800000D03*
X154699999Y-58800000D03*
X155100001Y-58800000D03*
X155500000Y-58800000D03*
X154300000Y-59200002D03*
X154699999Y-59200002D03*
X155100001Y-59200002D03*
X155500000Y-59200002D03*
X154300000Y-59600001D03*
X154699999Y-59600001D03*
X155100001Y-59600001D03*
X155500000Y-59600001D03*
X154300000Y-60000000D03*
X154699999Y-60000000D03*
X155100001Y-60000000D03*
X155500000Y-60000000D03*
D25*
X161500000Y-124050000D03*
D26*
X161500000Y-125500000D03*
D13*
X140500000Y-57412500D03*
X140500000Y-55587500D03*
D10*
X170200000Y-128000000D03*
X170200000Y-133000000D03*
X168500000Y-128000000D03*
X168500000Y-133000000D03*
D27*
X156000000Y-61962500D03*
X156000000Y-64037500D03*
D13*
X173500000Y-143000000D03*
X173500000Y-141175000D03*
D36*
X130637500Y-133000000D03*
X132362500Y-133000000D03*
D52*
X99525000Y-130095000D03*
X99525000Y-131365000D03*
X99525000Y-132635000D03*
X99525000Y-133905000D03*
X104475000Y-133905000D03*
X104475000Y-132635000D03*
X104475000Y-131365000D03*
X104475000Y-130095000D03*
D46*
X145290000Y-134500000D03*
D15*
X176000000Y-55000000D03*
X176000000Y-56400000D03*
D14*
X121500000Y-70350000D03*
D16*
X115040000Y-56087500D03*
X115040000Y-57912500D03*
D45*
X109500000Y-143000000D03*
D31*
X107000000Y-143000000D03*
X104500000Y-143000000D03*
X102000000Y-143000000D03*
X99500000Y-143000000D03*
X97000000Y-143000000D03*
D10*
X187000000Y-87000000D03*
X187000000Y-82000000D03*
X188700000Y-87000000D03*
X188700000Y-82000000D03*
D41*
X122087500Y-136500000D03*
X123912500Y-136500000D03*
D27*
X160000000Y-49462500D03*
X160000000Y-51537500D03*
D41*
X126175000Y-78000000D03*
X128000000Y-78000000D03*
D53*
X140775000Y-62450000D03*
X140775000Y-60550000D03*
X138500000Y-61500000D03*
D12*
X131775000Y-61500000D03*
X131775000Y-59750000D03*
D54*
X97590014Y-101999998D03*
X97590014Y-102499999D03*
X97590014Y-102999998D03*
X97590014Y-103500000D03*
X97590014Y-103999999D03*
X97590014Y-104499998D03*
X97590014Y-104999999D03*
X97590014Y-105499998D03*
X97590014Y-106000000D03*
X97590014Y-106499999D03*
X97590014Y-106999998D03*
X97590014Y-107499999D03*
X97590014Y-107999999D03*
X97590014Y-108500000D03*
X97590014Y-108999999D03*
X97590014Y-109499998D03*
X97590014Y-110000000D03*
X97590014Y-110499999D03*
X97590014Y-111000000D03*
X97590014Y-111499999D03*
X97590014Y-111999998D03*
X97590014Y-112500000D03*
X97590014Y-112999999D03*
X97590014Y-113499998D03*
D55*
X95090014Y-101000000D03*
X95090014Y-114499998D03*
D12*
X119000000Y-62000000D03*
X119000000Y-60250000D03*
D13*
X113000000Y-90412500D03*
X113000000Y-88587500D03*
D25*
X106000000Y-69775000D03*
D26*
X106000000Y-71225000D03*
D32*
X107075000Y-103970000D03*
X105000000Y-103970000D03*
D10*
X187150000Y-104000000D03*
X187150000Y-99000000D03*
X188850000Y-104000000D03*
X188850000Y-99000000D03*
D21*
X107000000Y-130275000D03*
X107000000Y-132000000D03*
D49*
X113000000Y-103462500D03*
X113000000Y-101387500D03*
D16*
X158500000Y-57587500D03*
X158500000Y-59412500D03*
D56*
X187500000Y-60000000D03*
X108000000Y-107000000D03*
X99000000Y-98500000D03*
X185056947Y-58045804D03*
X129000000Y-78000000D03*
X174000000Y-57500000D03*
X146500000Y-62500000D03*
X161000000Y-61500000D03*
X120000000Y-62000000D03*
X108000000Y-113000000D03*
X108000000Y-81000000D03*
X156500000Y-57000000D03*
X112000000Y-90500000D03*
X124000000Y-62000000D03*
X96000000Y-62000000D03*
X190500000Y-57000000D03*
X113000000Y-104500000D03*
X176000000Y-57500000D03*
X183500000Y-137500000D03*
X99500000Y-110899999D03*
X99500000Y-52500000D03*
X154500000Y-63500000D03*
X154000000Y-64462500D03*
X159500000Y-60000000D03*
X133500000Y-133000000D03*
X116000000Y-62000000D03*
X119500000Y-104500000D03*
X137000000Y-61500000D03*
X171500000Y-137500000D03*
X108000000Y-132000000D03*
X108000000Y-104000000D03*
X134000000Y-134500000D03*
X126500000Y-70500000D03*
X160000000Y-53000000D03*
X117375000Y-104000000D03*
X162000000Y-66000000D03*
X171500000Y-128000000D03*
X99310735Y-108810735D03*
X133000000Y-61500000D03*
X99500000Y-135000000D03*
X183500000Y-128000000D03*
X183000000Y-55500000D03*
X108000000Y-110000000D03*
X159000000Y-63500000D03*
X190500000Y-55500000D03*
X144925000Y-59000000D03*
X130000000Y-78000000D03*
X134500000Y-135500000D03*
X171500000Y-60500000D03*
X154000000Y-57500000D03*
X156000000Y-56000000D03*
X153000000Y-58225000D03*
X151966119Y-65612500D03*
X157000000Y-60175001D03*
X154525001Y-56500000D03*
X150000000Y-60550000D03*
X150380913Y-64694087D03*
X150380913Y-62500000D03*
X138862500Y-58000000D03*
X142425000Y-57500000D03*
X144075000Y-57500000D03*
X105000000Y-98100000D03*
X105000000Y-96900000D03*
X105000000Y-92000000D03*
X108309264Y-91190733D03*
X101700000Y-92000000D03*
X107210735Y-91789263D03*
X111559265Y-94440735D03*
X101637500Y-100000000D03*
X110710736Y-95289264D03*
X104100000Y-97500000D03*
X114500000Y-82500000D03*
X100437500Y-101500000D03*
X104500000Y-95500000D03*
X111893595Y-83901395D03*
X131175734Y-136524263D03*
X132000000Y-136500000D03*
X152262097Y-60262097D03*
X155274999Y-60588171D03*
D57*
X187510000Y-59000000D02*
X187510000Y-59990000D01*
X98962500Y-97000000D02*
X98962500Y-98462500D01*
X107075000Y-106980000D02*
X107980000Y-106980000D01*
X132362500Y-133000000D02*
X133500000Y-133000000D01*
X182800000Y-54255000D02*
X182800000Y-55300000D01*
X155037500Y-64037500D02*
X154500000Y-63500000D01*
X161500000Y-65500000D02*
X162000000Y-66000000D01*
X184277751Y-58825000D02*
X185056947Y-58045804D01*
X189250000Y-57200000D02*
X190300000Y-57200000D01*
X107970000Y-103970000D02*
X108000000Y-104000000D01*
X103500000Y-55000000D02*
X99500000Y-51000000D01*
X107075000Y-113000000D02*
X108000000Y-113000000D01*
X187510000Y-59990000D02*
X187500000Y-60000000D01*
X133750000Y-134750000D02*
X134000000Y-134500000D01*
X170200000Y-137500000D02*
X171500000Y-137500000D01*
X97590014Y-111000000D02*
X99399999Y-111000000D01*
X184000000Y-58825000D02*
X184277751Y-58825000D01*
X133000000Y-135500000D02*
X134500000Y-135500000D01*
X131775000Y-61500000D02*
X133000000Y-61500000D01*
X131175000Y-78000000D02*
X130000000Y-78000000D01*
X107962500Y-81037500D02*
X108000000Y-81000000D01*
D58*
X155500000Y-58400001D02*
X156500000Y-57400001D01*
D57*
X161500000Y-64862500D02*
X161500000Y-65500000D01*
X119000000Y-104000000D02*
X119500000Y-104500000D01*
X98121470Y-110000000D02*
X99310735Y-108810735D01*
X153000000Y-64225000D02*
X153762500Y-64225000D01*
X145300000Y-59375000D02*
X144925000Y-59000000D01*
X99399999Y-111000000D02*
X99500000Y-110899999D01*
X127700000Y-70500000D02*
X126500000Y-70500000D01*
X138500000Y-61500000D02*
X137000000Y-61500000D01*
X174000000Y-56400000D02*
X174000000Y-57500000D01*
X160000000Y-51537500D02*
X160000000Y-53000000D01*
X113000000Y-103462500D02*
X113000000Y-104500000D01*
X107075000Y-109990000D02*
X107990000Y-109990000D01*
X158912500Y-59412500D02*
X159500000Y-60000000D01*
X182800000Y-55300000D02*
X183000000Y-55500000D01*
X176000000Y-56400000D02*
X176000000Y-57500000D01*
X171500000Y-59375000D02*
X171500000Y-60500000D01*
X145300000Y-60135000D02*
X145300000Y-59375000D01*
X107500000Y-55000000D02*
X103500000Y-55000000D01*
X107980000Y-106980000D02*
X108000000Y-107000000D01*
X158500000Y-59412500D02*
X158912500Y-59412500D01*
X158000000Y-63500000D02*
X159000000Y-63500000D01*
X117300000Y-104075000D02*
X117375000Y-104000000D01*
X97590014Y-110000000D02*
X98121470Y-110000000D01*
X146355000Y-62645000D02*
X146500000Y-62500000D01*
X170200000Y-128000000D02*
X171500000Y-128000000D01*
X132250000Y-134750000D02*
X133750000Y-134750000D01*
X107000000Y-132000000D02*
X108000000Y-132000000D01*
X99500000Y-51000000D02*
X99500000Y-52500000D01*
X113000000Y-90412500D02*
X112087500Y-90412500D01*
X184800000Y-128000000D02*
X183500000Y-128000000D01*
X107990000Y-109990000D02*
X108000000Y-110000000D01*
X190300000Y-57200000D02*
X190500000Y-57000000D01*
X189255000Y-54255000D02*
X190500000Y-55500000D01*
D59*
X155100001Y-59200002D02*
X155500000Y-59200002D01*
D57*
X123000000Y-62000000D02*
X124000000Y-62000000D01*
D58*
X155500000Y-59200002D02*
X158287502Y-59200002D01*
X158287502Y-59200002D02*
X158500000Y-59412500D01*
D57*
X119000000Y-62000000D02*
X120000000Y-62000000D01*
X119000000Y-103500000D02*
X119000000Y-104000000D01*
X99525000Y-134975000D02*
X99500000Y-135000000D01*
X189200000Y-54255000D02*
X189255000Y-54255000D01*
X107075000Y-103970000D02*
X107970000Y-103970000D01*
X95000000Y-62000000D02*
X96000000Y-62000000D01*
X112087500Y-90412500D02*
X112000000Y-90500000D01*
X153762500Y-64225000D02*
X154000000Y-64462500D01*
X161000000Y-60537500D02*
X161000000Y-61500000D01*
X98962500Y-98462500D02*
X99000000Y-98500000D01*
X99525000Y-133905000D02*
X99525000Y-134975000D01*
X128000000Y-78000000D02*
X129000000Y-78000000D01*
X184800000Y-137500000D02*
X183500000Y-137500000D01*
X107000000Y-81037500D02*
X107962500Y-81037500D01*
X115000000Y-62000000D02*
X116000000Y-62000000D01*
D58*
X156500000Y-57400001D02*
X156500000Y-57000000D01*
D57*
X115925000Y-104075000D02*
X117300000Y-104075000D01*
X145250000Y-62645000D02*
X146355000Y-62645000D01*
X156000000Y-64037500D02*
X155037500Y-64037500D01*
D58*
X158537500Y-56000000D02*
X161000000Y-58462500D01*
D57*
X166587500Y-58462500D02*
X161000000Y-58462500D01*
X168050000Y-57000000D02*
X166587500Y-58462500D01*
D58*
X154300000Y-57800000D02*
X154000000Y-57500000D01*
X154300000Y-58400001D02*
X154300000Y-57800000D01*
X156000000Y-56000000D02*
X158537500Y-56000000D01*
D57*
X156000000Y-54500000D02*
X154825000Y-55675000D01*
X156450000Y-70000000D02*
X152062500Y-65612500D01*
X136775000Y-49225000D02*
X131815000Y-54185000D01*
X154825000Y-55675000D02*
X152426346Y-55675000D01*
X155400000Y-57600000D02*
X155100001Y-57899999D01*
X155676472Y-54500000D02*
X156000000Y-54500000D01*
X152426346Y-55675000D02*
X145976346Y-49225000D01*
X155400000Y-55100000D02*
X155400000Y-57600000D01*
X152062500Y-65612500D02*
X151966119Y-65612500D01*
X156000000Y-54500000D02*
X155400000Y-55100000D01*
X145976346Y-49225000D02*
X136775000Y-49225000D01*
X156000000Y-54500000D02*
X156000000Y-53462500D01*
X153000000Y-57176472D02*
X155676472Y-54500000D01*
X156000000Y-53462500D02*
X160000000Y-49462500D01*
X153000000Y-58225000D02*
X153000000Y-57176472D01*
X155100001Y-57899999D02*
X155100001Y-58400001D01*
X131815000Y-54185000D02*
X131815000Y-55837500D01*
D58*
X156000000Y-61962500D02*
X156000000Y-60500000D01*
X157000000Y-60175001D02*
X156000000Y-61175001D01*
X156000000Y-61962500D02*
X157812500Y-61962500D01*
X154699999Y-56674998D02*
X154525001Y-56500000D01*
X156000000Y-60500000D02*
X155500000Y-60000000D01*
X156000000Y-61175001D02*
X156000000Y-61962500D01*
X154699999Y-58400001D02*
X154699999Y-56674998D01*
X157812500Y-61962500D02*
X158000000Y-61775000D01*
D57*
X148637500Y-60550000D02*
X145500000Y-57412500D01*
X151400000Y-70000000D02*
X150380913Y-68980913D01*
D58*
X153000000Y-62500000D02*
X150380913Y-62500000D01*
X138587500Y-58000000D02*
X138000000Y-57412500D01*
X145412500Y-57500000D02*
X145500000Y-57412500D01*
X144075000Y-57500000D02*
X145412500Y-57500000D01*
D59*
X154300000Y-59600001D02*
X154300000Y-60000000D01*
D57*
X150380913Y-68980913D02*
X150380913Y-64694087D01*
X150000000Y-60550000D02*
X148637500Y-60550000D01*
D58*
X142337500Y-57412500D02*
X142425000Y-57500000D01*
X138862500Y-58000000D02*
X138587500Y-58000000D01*
X154300000Y-61200000D02*
X153000000Y-62500000D01*
X140500000Y-57412500D02*
X142337500Y-57412500D01*
X154300000Y-60000000D02*
X154300000Y-61200000D01*
X159600000Y-65037500D02*
X151537500Y-65037500D01*
X150500000Y-64000000D02*
X131500000Y-64000000D01*
X157468635Y-59600001D02*
X155500000Y-59600001D01*
D57*
X160725000Y-69225000D02*
X160725000Y-63912500D01*
X161500000Y-70000000D02*
X160725000Y-69225000D01*
D58*
X161500000Y-63137500D02*
X161006134Y-63137500D01*
X161006134Y-63137500D02*
X157468635Y-59600001D01*
X161500000Y-63137500D02*
X159600000Y-65037500D01*
X151537500Y-65037500D02*
X150500000Y-64000000D01*
D57*
X160725000Y-63912500D02*
X161500000Y-63137500D01*
X103900000Y-82062500D02*
X107000000Y-78962500D01*
X105000000Y-96900000D02*
X104900000Y-96900000D01*
X97772943Y-109499998D02*
X105000000Y-102272941D01*
X105000000Y-102272941D02*
X105000000Y-98100000D01*
X109370300Y-78962500D02*
X110407800Y-80000000D01*
X97590014Y-109499998D02*
X97772943Y-109499998D01*
X131700000Y-70500000D02*
X131700000Y-69745000D01*
X94500000Y-68500000D02*
X99412500Y-68500000D01*
X131700000Y-69745000D02*
X131255000Y-69300000D01*
X106755000Y-71225000D02*
X106000000Y-71225000D01*
X103900000Y-95900000D02*
X103900000Y-82062500D01*
X131255000Y-69300000D02*
X108680000Y-69300000D01*
X107000000Y-72225000D02*
X106000000Y-71225000D01*
X99500000Y-68587500D02*
X102137500Y-71225000D01*
X99412500Y-68500000D02*
X99500000Y-68587500D01*
X107000000Y-78962500D02*
X107000000Y-72225000D01*
X108680000Y-69300000D02*
X106755000Y-71225000D01*
X107000000Y-78962500D02*
X109370300Y-78962500D01*
X104900000Y-96900000D02*
X103900000Y-95900000D01*
X102137500Y-71225000D02*
X106000000Y-71225000D01*
X113137500Y-101525000D02*
X113000000Y-101387500D01*
X108000000Y-108500000D02*
X104892756Y-108500000D01*
X101392758Y-111999998D02*
X97590014Y-111999998D01*
X109500000Y-107000000D02*
X108000000Y-108500000D01*
X121500000Y-80450000D02*
X121500000Y-83166722D01*
X119900000Y-84766722D02*
X119900000Y-96223696D01*
X104892756Y-108500000D02*
X101392758Y-111999998D01*
X116825000Y-101223696D02*
X116523696Y-101525000D01*
X116523696Y-101525000D02*
X113137500Y-101525000D01*
X121500000Y-83166722D02*
X119900000Y-84766722D01*
X109500000Y-104887500D02*
X109500000Y-107000000D01*
X116825000Y-99298696D02*
X116825000Y-101223696D01*
X119900000Y-96223696D02*
X116825000Y-99298696D01*
X113000000Y-99075000D02*
X113000000Y-101387500D01*
X113000000Y-101387500D02*
X109500000Y-104887500D01*
X106850000Y-89830000D02*
X106850000Y-90579999D01*
X106850000Y-89793520D02*
X112592200Y-84051320D01*
X112592200Y-84051320D02*
X112592200Y-80000000D01*
X106850000Y-90579999D02*
X112045001Y-95775000D01*
X115850000Y-95775000D02*
X116000000Y-95925000D01*
X106850000Y-89830000D02*
X106850000Y-89793520D01*
X113000000Y-95775000D02*
X115850000Y-95775000D01*
X112045001Y-95775000D02*
X113000000Y-95775000D01*
X116000000Y-98000000D02*
X116075000Y-98000000D01*
X115925000Y-98075000D02*
X116000000Y-98000000D01*
X116075000Y-98000000D02*
X118300000Y-95775000D01*
X115925000Y-100775000D02*
X115925000Y-98075000D01*
X118300000Y-95775000D02*
X119000000Y-95775000D01*
X107000000Y-117500000D02*
X117975000Y-106525000D01*
X97590014Y-112999999D02*
X96970914Y-112999999D01*
X119000000Y-101425000D02*
X119000000Y-99075000D01*
X96970914Y-112999999D02*
X96870914Y-113099999D01*
X121500000Y-96575000D02*
X119000000Y-99075000D01*
X100393116Y-117500000D02*
X107000000Y-117500000D01*
X117975000Y-102450000D02*
X119000000Y-101425000D01*
X96870914Y-113977798D02*
X100393116Y-117500000D01*
X117975000Y-106525000D02*
X117975000Y-102450000D01*
X96870914Y-113099999D02*
X96870914Y-113977798D01*
X121500000Y-85500000D02*
X121500000Y-96575000D01*
X105000000Y-103970000D02*
X98470001Y-110499999D01*
X98470001Y-110499999D02*
X97590014Y-110499999D01*
X100480001Y-111499999D02*
X97590014Y-111499999D01*
X105000000Y-106980000D02*
X100480001Y-111499999D01*
X102490000Y-112500000D02*
X97590014Y-112500000D01*
X105000000Y-109990000D02*
X102490000Y-112500000D01*
X105000000Y-113000000D02*
X104500002Y-113499998D01*
X104500002Y-113499998D02*
X97590014Y-113499998D01*
X101037500Y-97000000D02*
X101037500Y-102118040D01*
X99155541Y-103999999D02*
X97590014Y-103999999D01*
X101037500Y-102118040D02*
X99155541Y-103999999D01*
X147225000Y-125740075D02*
X146034925Y-124550000D01*
X122087500Y-131912500D02*
X125500000Y-128500000D01*
X130637500Y-133000000D02*
X130637500Y-134437500D01*
X130637500Y-134437500D02*
X130950000Y-134750000D01*
X122087500Y-140000000D02*
X122087500Y-131912500D01*
X130000000Y-133000000D02*
X125500000Y-128500000D01*
X145229938Y-136800000D02*
X147225000Y-134804938D01*
X130637500Y-131862500D02*
X130637500Y-133000000D01*
X130637500Y-133000000D02*
X130000000Y-133000000D01*
X133000000Y-136800000D02*
X145229938Y-136800000D01*
X146034925Y-124550000D02*
X137950000Y-124550000D01*
X122087500Y-140000000D02*
X122087500Y-136500000D01*
X147225000Y-134804938D02*
X147225000Y-125740075D01*
X122087500Y-140000000D02*
X122087500Y-133500000D01*
X137950000Y-124550000D02*
X130637500Y-131862500D01*
D58*
X104362500Y-128450000D02*
X109500000Y-128450000D01*
D57*
X108825000Y-128450000D02*
X107000000Y-130275000D01*
X109500000Y-128450000D02*
X106120000Y-128450000D01*
X106120000Y-128450000D02*
X104475000Y-130095000D01*
D58*
X102912500Y-127000000D02*
X104362500Y-128450000D01*
D57*
X109500000Y-128450000D02*
X108825000Y-128450000D01*
X169912500Y-59500000D02*
X169912500Y-59212500D01*
X169912500Y-59212500D02*
X171500000Y-57625000D01*
X115040000Y-57912500D02*
X115040000Y-60210000D01*
X115040000Y-60210000D02*
X115000000Y-60250000D01*
X131775000Y-59750000D02*
X131775000Y-57702500D01*
X131775000Y-57702500D02*
X131815000Y-57662500D01*
X119040000Y-57912500D02*
X119040000Y-60210000D01*
X119040000Y-60210000D02*
X119000000Y-60250000D01*
X95040000Y-60210000D02*
X95000000Y-60250000D01*
X95040000Y-58162500D02*
X95040000Y-60210000D01*
X123040000Y-60210000D02*
X123000000Y-60250000D01*
X123040000Y-57912500D02*
X123040000Y-60210000D01*
X188400000Y-53780000D02*
X187700000Y-53080000D01*
X183600000Y-53780000D02*
X183600000Y-54255000D01*
X187700000Y-53080000D02*
X184500000Y-53080000D01*
X169500000Y-50934314D02*
X172134314Y-48300000D01*
X184500000Y-53080000D02*
X184300000Y-53080000D01*
X176865686Y-48300000D02*
X180565686Y-52000000D01*
X188400000Y-54950000D02*
X189250000Y-55800000D01*
X184300000Y-53080000D02*
X183600000Y-53780000D01*
X168087500Y-59500000D02*
X169500000Y-58087500D01*
X180565686Y-52000000D02*
X183420000Y-52000000D01*
X169500000Y-57000000D02*
X169500000Y-50934314D01*
X188400000Y-54255000D02*
X188400000Y-54950000D01*
X183420000Y-52000000D02*
X184500000Y-53080000D01*
X172134314Y-48300000D02*
X176865686Y-48300000D01*
X169500000Y-58087500D02*
X169500000Y-57000000D01*
X188400000Y-54255000D02*
X188400000Y-53780000D01*
X185400000Y-55030000D02*
X186100000Y-55030000D01*
X185656947Y-55473053D02*
X185656947Y-58422275D01*
X185656947Y-58422275D02*
X184466722Y-59612500D01*
X176500000Y-55000000D02*
X176000000Y-55000000D01*
X176000000Y-55000000D02*
X176000000Y-50000000D01*
X186250000Y-54880000D02*
X186250000Y-54255000D01*
X181112500Y-59612500D02*
X176500000Y-55000000D01*
X185250000Y-54880000D02*
X185400000Y-55030000D01*
X186100000Y-55030000D02*
X186250000Y-54880000D01*
X185250000Y-54255000D02*
X185250000Y-54880000D01*
X184466722Y-59612500D02*
X181112500Y-59612500D01*
X186250000Y-54880000D02*
X185656947Y-55473053D01*
X186500000Y-56000000D02*
X186500000Y-58565686D01*
X186750000Y-54255000D02*
X186750000Y-55750000D01*
X185750000Y-53630000D02*
X185900000Y-53480000D01*
X174600000Y-55600000D02*
X174000000Y-55000000D01*
X174000000Y-55000000D02*
X174000000Y-50500000D01*
X186500000Y-58565686D02*
X185053186Y-60012500D01*
X176390552Y-55600000D02*
X174600000Y-55600000D01*
X186750000Y-55750000D02*
X186500000Y-56000000D01*
X174000000Y-50500000D02*
X173500000Y-50000000D01*
X186600000Y-53480000D02*
X186750000Y-53630000D01*
X180803052Y-60012500D02*
X176390552Y-55600000D01*
X185900000Y-53480000D02*
X186600000Y-53480000D01*
X185750000Y-54255000D02*
X185750000Y-53630000D01*
X185053186Y-60012500D02*
X180803052Y-60012500D01*
X186750000Y-53630000D02*
X186750000Y-54255000D01*
X93600000Y-106000000D02*
X93600000Y-90000000D01*
X93600000Y-90000000D02*
X96600000Y-87000000D01*
X96600000Y-87000000D02*
X97000000Y-87000000D01*
X97590014Y-108500000D02*
X96100000Y-108500000D01*
X96100000Y-108500000D02*
X93600000Y-106000000D01*
X97590014Y-106000000D02*
X98286912Y-106000000D01*
X102300000Y-101986912D02*
X102300000Y-82300000D01*
X98286912Y-106000000D02*
X102300000Y-101986912D01*
X102300000Y-82300000D02*
X97000000Y-77000000D01*
X98850000Y-75850000D02*
X96150000Y-75850000D01*
X99500000Y-75200000D02*
X98850000Y-75850000D01*
X96150000Y-75850000D02*
X95725000Y-76275000D01*
X98352599Y-106499999D02*
X103500000Y-101352598D01*
X103500000Y-80500000D02*
X98850000Y-75850000D01*
X99500000Y-70412500D02*
X99500000Y-75200000D01*
X95725000Y-76275000D02*
X95725000Y-78225000D01*
X95725000Y-78225000D02*
X97000000Y-79500000D01*
X103500000Y-101352598D02*
X103500000Y-80500000D01*
X97590014Y-106499999D02*
X98352599Y-106499999D01*
X113000000Y-88587500D02*
X109392500Y-88587500D01*
X105000000Y-92000000D02*
X106999998Y-92000000D01*
X109392500Y-88587500D02*
X108150000Y-89830000D01*
X97590014Y-102499999D02*
X98286913Y-102499999D01*
X106999998Y-92000000D02*
X107210735Y-91789263D01*
X113387500Y-78462500D02*
X121500000Y-70350000D01*
X113000000Y-88587500D02*
X113387500Y-88200000D01*
X100150000Y-93550000D02*
X101700000Y-92000000D01*
X98286913Y-102499999D02*
X100150000Y-100636912D01*
X108309264Y-91190733D02*
X108309264Y-89989264D01*
X100150000Y-100636912D02*
X100150000Y-93550000D01*
X108309264Y-89989264D02*
X108150000Y-89830000D01*
X113387500Y-88200000D02*
X113387500Y-78462500D01*
X101900000Y-84900000D02*
X99000000Y-82000000D01*
X97024485Y-106999998D02*
X96500000Y-106475513D01*
X96500000Y-106475513D02*
X96500000Y-94500000D01*
X99000000Y-82000000D02*
X97000000Y-82000000D01*
X96500000Y-94500000D02*
X101900000Y-89100000D01*
X97590014Y-106999998D02*
X97024485Y-106999998D01*
X101900000Y-89100000D02*
X101900000Y-84900000D01*
X94000000Y-91000000D02*
X95500000Y-89500000D01*
X94000000Y-105106885D02*
X94000000Y-91000000D01*
X96893114Y-107999999D02*
X94000000Y-105106885D01*
X97590014Y-107999999D02*
X96893114Y-107999999D01*
X95500000Y-89500000D02*
X97000000Y-89500000D01*
X101637500Y-102083726D02*
X101637500Y-100000000D01*
X113787500Y-81627575D02*
X123860075Y-71555000D01*
X111559265Y-94440735D02*
X113787500Y-92212500D01*
X123860075Y-71555000D02*
X128645000Y-71555000D01*
X97590014Y-105499998D02*
X98221228Y-105499998D01*
X104100000Y-97500000D02*
X108500000Y-97500000D01*
X113787500Y-92212500D02*
X113787500Y-81627575D01*
X108500000Y-97500000D02*
X110710736Y-95289264D01*
X98221228Y-105499998D02*
X101637500Y-102083726D01*
X128645000Y-71555000D02*
X129700000Y-70500000D01*
X94500000Y-70325000D02*
X94500000Y-82000000D01*
X101500000Y-88000000D02*
X101500000Y-85500000D01*
X96000000Y-106541199D02*
X96000000Y-93500000D01*
X101500000Y-85500000D02*
X100500000Y-84500000D01*
X96958800Y-107499999D02*
X96000000Y-106541199D01*
X100500000Y-84500000D02*
X97000000Y-84500000D01*
X94500000Y-82000000D02*
X97000000Y-84500000D01*
X97590014Y-107499999D02*
X96958800Y-107499999D01*
X96000000Y-93500000D02*
X101500000Y-88000000D01*
X115040000Y-56087500D02*
X115040000Y-52460000D01*
X115040000Y-52460000D02*
X116500000Y-51000000D01*
X123040000Y-56087500D02*
X123040000Y-52540000D01*
X123040000Y-52540000D02*
X121500000Y-51000000D01*
X119040000Y-56087500D02*
X119040000Y-51040000D01*
X119040000Y-51040000D02*
X119000000Y-51000000D01*
X110768605Y-83901395D02*
X107500000Y-87170000D01*
X97612213Y-102977799D02*
X98959701Y-102977799D01*
X104400000Y-90270000D02*
X107500000Y-87170000D01*
X128620000Y-74445000D02*
X122455000Y-74445000D01*
X114500000Y-82400000D02*
X114500000Y-82500000D01*
X104500000Y-95000000D02*
X104400000Y-94900000D01*
X129675000Y-75500000D02*
X128620000Y-74445000D01*
X104400000Y-94900000D02*
X104400000Y-90270000D01*
X104500000Y-95500000D02*
X104500000Y-95000000D01*
X98959701Y-102977799D02*
X100437500Y-101500000D01*
X111893595Y-83901395D02*
X110768605Y-83901395D01*
X122455000Y-74445000D02*
X121500000Y-75400000D01*
X97590014Y-102999998D02*
X97612213Y-102977799D01*
X121500000Y-75400000D02*
X114500000Y-82400000D01*
X132500000Y-143000000D02*
X132500000Y-142500000D01*
X132500000Y-142500000D02*
X131600000Y-141600000D01*
X131600000Y-141600000D02*
X131600000Y-137550000D01*
X132250000Y-137550000D02*
X132250000Y-140250000D01*
X132250000Y-140250000D02*
X135000000Y-143000000D01*
X130950000Y-137550000D02*
X130950000Y-142050000D01*
X130950000Y-142050000D02*
X130000000Y-143000000D01*
X130200000Y-136150000D02*
X124262500Y-136150000D01*
X130801471Y-136150000D02*
X131175734Y-136524263D01*
X124262500Y-136150000D02*
X123912500Y-136500000D01*
X130200000Y-136150000D02*
X130801471Y-136150000D01*
X123912500Y-140000000D02*
X128187500Y-144275000D01*
X127112500Y-136800000D02*
X123912500Y-140000000D01*
X141225000Y-144275000D02*
X142500000Y-143000000D01*
X130200000Y-136800000D02*
X127112500Y-136800000D01*
X128187500Y-144275000D02*
X141225000Y-144275000D01*
X123912500Y-133500000D02*
X128200000Y-133500000D01*
X130225000Y-135525000D02*
X131025000Y-135525000D01*
X131025000Y-135525000D02*
X132000000Y-136500000D01*
X128200000Y-133500000D02*
X130200000Y-135500000D01*
X130200000Y-135500000D02*
X130225000Y-135525000D01*
X104475000Y-132635000D02*
X105449999Y-132635000D01*
X105449999Y-132635000D02*
X109500000Y-136685001D01*
X109500000Y-136685001D02*
X109500000Y-143000000D01*
X104475000Y-133905000D02*
X107000000Y-136430000D01*
X107000000Y-136430000D02*
X107000000Y-143000000D01*
X98000000Y-141500000D02*
X99500000Y-143000000D01*
X104475000Y-131365000D02*
X103500001Y-131365000D01*
X98509448Y-130765000D02*
X98000000Y-131274448D01*
X103500001Y-131365000D02*
X102900001Y-130765000D01*
X102900001Y-130765000D02*
X98509448Y-130765000D01*
X98000000Y-131274448D02*
X98000000Y-141500000D01*
X98550001Y-130095000D02*
X97000000Y-131645001D01*
X99525000Y-130095000D02*
X98550001Y-130095000D01*
X97000000Y-131645001D02*
X97000000Y-143000000D01*
X101087500Y-127000000D02*
X101087500Y-128532500D01*
X101087500Y-128532500D02*
X99525000Y-130095000D01*
X103000000Y-141500000D02*
X104500000Y-143000000D01*
X103000000Y-133865001D02*
X103000000Y-141500000D01*
X99525000Y-131365000D02*
X100499999Y-131365000D01*
X100499999Y-131365000D02*
X103000000Y-133865001D01*
X99525000Y-132635000D02*
X100499999Y-132635000D01*
X102000000Y-134135001D02*
X102000000Y-143000000D01*
X100499999Y-132635000D02*
X102000000Y-134135001D01*
X124500000Y-102000000D02*
X124500000Y-83500000D01*
X125500000Y-127050000D02*
X109550000Y-127050000D01*
X106750000Y-49200000D02*
X98800000Y-49200000D01*
X107500000Y-49950000D02*
X106750000Y-49200000D01*
X109550000Y-127050000D02*
X109500000Y-127000000D01*
X131754222Y-80500000D02*
X134000000Y-78254222D01*
X134000000Y-68705000D02*
X130050000Y-64755000D01*
X95040000Y-56337500D02*
X106000000Y-67297500D01*
X95040000Y-56337500D02*
X95040000Y-52960000D01*
X109500000Y-117000000D02*
X124500000Y-102000000D01*
X130050000Y-64755000D02*
X130050000Y-64000000D01*
X106000000Y-69775000D02*
X111775000Y-64000000D01*
X109500000Y-127000000D02*
X109500000Y-117000000D01*
X127500000Y-80500000D02*
X131754222Y-80500000D01*
X161500000Y-124050000D02*
X160995000Y-123545000D01*
X160995000Y-123545000D02*
X129005000Y-123545000D01*
X134000000Y-78254222D02*
X134000000Y-68705000D01*
X124500000Y-83500000D02*
X127500000Y-80500000D01*
X129005000Y-123545000D02*
X125500000Y-127050000D01*
X95040000Y-52960000D02*
X97000000Y-51000000D01*
X111775000Y-64000000D02*
X130050000Y-64000000D01*
X106000000Y-67297500D02*
X106000000Y-69775000D01*
X98800000Y-49200000D02*
X97000000Y-51000000D01*
X183000000Y-113000000D02*
X189500000Y-113000000D01*
X168500000Y-128300000D02*
X168500000Y-128000000D01*
X168500000Y-127500000D02*
X183000000Y-113000000D01*
X171875000Y-131675000D02*
X168500000Y-128300000D01*
X168500000Y-128000000D02*
X168500000Y-127500000D01*
X173500000Y-131675000D02*
X171875000Y-131675000D01*
X181500000Y-131675000D02*
X183225000Y-131675000D01*
X183225000Y-131675000D02*
X186500000Y-128400000D01*
X186500000Y-128000000D02*
X186500000Y-118500000D01*
X186500000Y-128400000D02*
X186500000Y-128000000D01*
X186500000Y-118500000D02*
X189500000Y-115500000D01*
X168500000Y-137800000D02*
X168500000Y-137500000D01*
X167700000Y-120800000D02*
X178000000Y-110500000D01*
X171875000Y-141175000D02*
X168500000Y-137800000D01*
X167700000Y-136700000D02*
X167700000Y-120800000D01*
X168500000Y-137500000D02*
X167700000Y-136700000D01*
X178000000Y-110500000D02*
X189500000Y-110500000D01*
X173500000Y-141175000D02*
X171875000Y-141175000D01*
X189500000Y-134500000D02*
X189500000Y-118000000D01*
X183225000Y-141175000D02*
X186500000Y-137900000D01*
X181500000Y-141175000D02*
X183225000Y-141175000D01*
X186500000Y-137900000D02*
X186500000Y-137500000D01*
X186500000Y-137500000D02*
X189500000Y-134500000D01*
X143000000Y-129710000D02*
X143000000Y-126000000D01*
X141140000Y-136150000D02*
X133000000Y-136150000D01*
X145290000Y-132000000D02*
X141140000Y-136150000D01*
X145290000Y-132000000D02*
X143000000Y-129710000D01*
X146825000Y-132965000D02*
X145290000Y-134500000D01*
X131600000Y-134750000D02*
X131525000Y-134675000D01*
X146000000Y-126000000D02*
X146825000Y-126825000D01*
X144950000Y-124950000D02*
X146000000Y-126000000D01*
X131525000Y-132475000D02*
X139050000Y-124950000D01*
X139050000Y-124950000D02*
X144950000Y-124950000D01*
X146825000Y-126825000D02*
X146825000Y-132965000D01*
X131525000Y-134675000D02*
X131525000Y-132475000D01*
X181500000Y-143000000D02*
X179500000Y-143000000D01*
X161500000Y-142000000D02*
X165000000Y-145500000D01*
X179500000Y-143000000D02*
X173500000Y-143000000D01*
X171000000Y-145500000D02*
X173500000Y-143000000D01*
X173500000Y-133500000D02*
X181500000Y-133500000D01*
X179500000Y-143000000D02*
X173500000Y-137000000D01*
X173500000Y-137000000D02*
X173500000Y-133500000D01*
X161500000Y-125500000D02*
X161500000Y-142000000D01*
X165000000Y-145500000D02*
X171000000Y-145500000D01*
X133000000Y-76825000D02*
X131675000Y-75500000D01*
X133000000Y-78000000D02*
X133000000Y-76825000D01*
X126175000Y-78000000D02*
X126175000Y-77000000D01*
X126175000Y-77000000D02*
X127675000Y-75500000D01*
X184000000Y-57000000D02*
X184250000Y-56750000D01*
X183460051Y-57000000D02*
X184000000Y-57000000D01*
X180400000Y-53939949D02*
X183460051Y-57000000D01*
X180400000Y-52400000D02*
X180400000Y-53939949D01*
X176700000Y-48700000D02*
X180400000Y-52400000D01*
X189500000Y-64000000D02*
X186000000Y-60500000D01*
X172350000Y-49015256D02*
X172665256Y-48700000D01*
X172665256Y-48700000D02*
X176700000Y-48700000D01*
X191500000Y-64000000D02*
X189500000Y-64000000D01*
X186000000Y-60500000D02*
X176151471Y-60500000D01*
X184250000Y-56750000D02*
X184250000Y-54255000D01*
X172350000Y-56698529D02*
X172350000Y-49015256D01*
X176151471Y-60500000D02*
X172350000Y-56698529D01*
X191500000Y-59000000D02*
X189335000Y-59000000D01*
X187510000Y-57175000D02*
X187250000Y-56915000D01*
X187250000Y-56915000D02*
X187250000Y-54255000D01*
X189335000Y-59000000D02*
X187510000Y-57175000D01*
D58*
X155100001Y-60413173D02*
X155274999Y-60588171D01*
X143000000Y-58500000D02*
X143000000Y-57261827D01*
X141325673Y-55587500D02*
X140500000Y-55587500D01*
X152262097Y-60262097D02*
X151399194Y-61125000D01*
X139837500Y-60162500D02*
X140500000Y-59500000D01*
X151399194Y-61125000D02*
X140082304Y-61125000D01*
D57*
X140500000Y-55587500D02*
X140500000Y-50500000D01*
D58*
X155100001Y-60000000D02*
X155100001Y-60413173D01*
X143000000Y-57261827D02*
X141325673Y-55587500D01*
X139837500Y-60880196D02*
X139837500Y-60162500D01*
X142000000Y-59500000D02*
X143000000Y-58500000D01*
X140500000Y-59500000D02*
X142000000Y-59500000D01*
X140082304Y-61125000D02*
X139837500Y-60880196D01*
D57*
X138000000Y-55587500D02*
X138000000Y-50500000D01*
D58*
X139437500Y-57025000D02*
X138000000Y-55587500D01*
X154699999Y-60000000D02*
X154699999Y-62068867D01*
X139437500Y-62380196D02*
X139437500Y-57025000D01*
X154699999Y-62068867D02*
X153373866Y-63395000D01*
X153373866Y-63395000D02*
X140452304Y-63395000D01*
X140452304Y-63395000D02*
X139437500Y-62380196D01*
X154300000Y-58800000D02*
X148712500Y-58800000D01*
X148712500Y-58800000D02*
X145500000Y-55587500D01*
D57*
X145500000Y-55587500D02*
X145500000Y-50500000D01*
D58*
X158500000Y-57587500D02*
X157287500Y-58800000D01*
X157287500Y-58800000D02*
X155500000Y-58800000D01*
X154300000Y-59200002D02*
X154137366Y-59200002D01*
X151837368Y-61500000D02*
X144670000Y-61500000D01*
X144670000Y-61500000D02*
X143525000Y-62645000D01*
X154137366Y-59200002D02*
X151837368Y-61500000D01*
D57*
X143330000Y-62450000D02*
X143525000Y-62645000D01*
X140775000Y-62450000D02*
X143330000Y-62450000D01*
X143475000Y-50975000D02*
X143000000Y-50500000D01*
X143475000Y-60135000D02*
X143475000Y-50975000D01*
X140775000Y-60550000D02*
X143060000Y-60550000D01*
X143060000Y-60550000D02*
X143475000Y-60135000D01*
M02*
