G04 #@! TF.GenerationSoftware,KiCad,Pcbnew,8.0.2*
G04 #@! TF.CreationDate,2025-03-06T10:36:10-07:00*
G04 #@! TF.ProjectId,kicad,6b696361-642e-46b6-9963-61645f706362,4*
G04 #@! TF.SameCoordinates,Original*
G04 #@! TF.FileFunction,Copper,L3,Inr*
G04 #@! TF.FilePolarity,Positive*
%FSLAX46Y46*%
G04 Gerber Fmt 4.6, Leading zero omitted, Abs format (unit mm)*
G04 Created by KiCad (PCBNEW 8.0.2) date 2025-03-06 10:36:10*
%MOMM*%
%LPD*%
G01*
G04 APERTURE LIST*
G04 Aperture macros list*
%AMRoundRect*
0 Rectangle with rounded corners*
0 $1 Rounding radius*
0 $2 $3 $4 $5 $6 $7 $8 $9 X,Y pos of 4 corners*
0 Add a 4 corners polygon primitive as box body*
4,1,4,$2,$3,$4,$5,$6,$7,$8,$9,$2,$3,0*
0 Add four circle primitives for the rounded corners*
1,1,$1+$1,$2,$3*
1,1,$1+$1,$4,$5*
1,1,$1+$1,$6,$7*
1,1,$1+$1,$8,$9*
0 Add four rect primitives between the rounded corners*
20,1,$1+$1,$2,$3,$4,$5,0*
20,1,$1+$1,$4,$5,$6,$7,0*
20,1,$1+$1,$6,$7,$8,$9,0*
20,1,$1+$1,$8,$9,$2,$3,0*%
G04 Aperture macros list end*
G04 #@! TA.AperFunction,ComponentPad*
%ADD10RoundRect,0.104167X-0.295833X0.145833X-0.295833X-0.145833X0.295833X-0.145833X0.295833X0.145833X0*%
G04 #@! TD*
G04 #@! TA.AperFunction,ComponentPad*
%ADD11O,0.800000X0.500000*%
G04 #@! TD*
G04 #@! TA.AperFunction,ComponentPad*
%ADD12O,2.100000X1.000000*%
G04 #@! TD*
G04 #@! TA.AperFunction,ComponentPad*
%ADD13O,1.800000X1.000000*%
G04 #@! TD*
G04 #@! TA.AperFunction,ComponentPad*
%ADD14RoundRect,0.250000X-0.625000X0.350000X-0.625000X-0.350000X0.625000X-0.350000X0.625000X0.350000X0*%
G04 #@! TD*
G04 #@! TA.AperFunction,ComponentPad*
%ADD15O,1.750000X1.200000*%
G04 #@! TD*
G04 #@! TA.AperFunction,ComponentPad*
%ADD16R,0.900000X0.500000*%
G04 #@! TD*
G04 #@! TA.AperFunction,ComponentPad*
%ADD17C,1.397000*%
G04 #@! TD*
G04 #@! TA.AperFunction,ViaPad*
%ADD18C,0.250000*%
G04 #@! TD*
G04 #@! TA.AperFunction,ViaPad*
%ADD19C,0.450000*%
G04 #@! TD*
G04 APERTURE END LIST*
D10*
X134000000Y-101600000D03*
D11*
X134000000Y-102616000D03*
D12*
X131930000Y-111752500D03*
D13*
X127750000Y-111752500D03*
D12*
X131930000Y-120392500D03*
D13*
X127750000Y-120392500D03*
D14*
X156500000Y-108000000D03*
D15*
X156500000Y-110000000D03*
D16*
X136150000Y-99625000D03*
D17*
X156750000Y-117566020D03*
X156750000Y-114568820D03*
D18*
X151485000Y-109000000D03*
D19*
X157300000Y-128400000D03*
X127800000Y-99100000D03*
X157600000Y-96500000D03*
X156700000Y-120800000D03*
D18*
X139200000Y-122900000D03*
X150100000Y-116200000D03*
D19*
X135300000Y-112900000D03*
X136100000Y-102100000D03*
X132000000Y-121300000D03*
X134000000Y-98600000D03*
X142100000Y-111200000D03*
X137500000Y-101575000D03*
X134600000Y-121400000D03*
D18*
X137900000Y-118900000D03*
X135200000Y-110000000D03*
X151200000Y-113950003D03*
D19*
X135200000Y-118000000D03*
D18*
X150656059Y-104256059D03*
D19*
X157600000Y-99200000D03*
D18*
X137500000Y-107000000D03*
X154100000Y-109900000D03*
X153615284Y-103421423D03*
X140300000Y-121400000D03*
X152500000Y-104200000D03*
D19*
X152700000Y-129800000D03*
X141100000Y-101700000D03*
D18*
X150000000Y-109000000D03*
D19*
X132300000Y-129800000D03*
X134500000Y-123900000D03*
D18*
X151100000Y-108800000D03*
X144700000Y-122800000D03*
D19*
X143500000Y-102200000D03*
D18*
X136000000Y-108000000D03*
X146600000Y-103500000D03*
X156917745Y-104717745D03*
X138900000Y-118900000D03*
D19*
X156800000Y-120100000D03*
X157300000Y-123200000D03*
D18*
X147958015Y-111400000D03*
X151300000Y-123600000D03*
X152300000Y-123600000D03*
X151200000Y-109400000D03*
X139900000Y-118900000D03*
X150300000Y-123600000D03*
D19*
X133500000Y-129800000D03*
X133700000Y-121400000D03*
D18*
X139650000Y-106500000D03*
X154000000Y-113200000D03*
D19*
X127800000Y-128100000D03*
D18*
X136900000Y-118900000D03*
D19*
X152950000Y-116900000D03*
D18*
X154100000Y-102000000D03*
X148500000Y-104500000D03*
D19*
X135600000Y-102838559D03*
X127700000Y-96400000D03*
X135500000Y-115200000D03*
X127600000Y-123000000D03*
X151500000Y-129700000D03*
D18*
X133300000Y-119100000D03*
X152100000Y-104200000D03*
D19*
X135900000Y-113500000D03*
X153850000Y-118700000D03*
X133392894Y-113150000D03*
D18*
X136300000Y-118900000D03*
X150685000Y-113100000D03*
X153600000Y-110937200D03*
X150050000Y-106305000D03*
D19*
X129531931Y-105018069D03*
X133650000Y-111350000D03*
X133150000Y-110000000D03*
D18*
X145600000Y-104800000D03*
X149300000Y-123100000D03*
X147700000Y-117900000D03*
X147400000Y-106600000D03*
X145200000Y-118500000D03*
X147221113Y-106242227D03*
X143300000Y-120900000D03*
X147200000Y-105800000D03*
X148800000Y-123100000D03*
X145300000Y-105800000D03*
X142719998Y-121500000D03*
X147200000Y-105399997D03*
X146558016Y-108818801D03*
X139000000Y-102750000D03*
X133800002Y-104235686D03*
X137150000Y-104500000D03*
X147333462Y-110187702D03*
X146708383Y-109189465D03*
X134457154Y-104892840D03*
X136736382Y-104677265D03*
X137343233Y-111756767D03*
X137400000Y-110400000D03*
X137399175Y-111229326D03*
X147908015Y-107775000D03*
X152900000Y-119300000D03*
X157745000Y-102700000D03*
X151500000Y-112100000D03*
X137375001Y-110825454D03*
D19*
X138586081Y-102387821D03*
X127600000Y-102800000D03*
X156800000Y-112100000D03*
X152950000Y-116000000D03*
X152400000Y-126200000D03*
X132200000Y-99300000D03*
X130400000Y-125800000D03*
D18*
X146700000Y-110700000D03*
X155300000Y-120800000D03*
X141584579Y-106164480D03*
D19*
X130400000Y-125100000D03*
X154100000Y-121200000D03*
D18*
X154500000Y-112000000D03*
X147908015Y-112707670D03*
X142900000Y-119600000D03*
X143600000Y-104600000D03*
X144100000Y-119600000D03*
D19*
X133300000Y-100600000D03*
D18*
X152407843Y-102792157D03*
X140800000Y-122800000D03*
X138800000Y-106400000D03*
X140049999Y-115761971D03*
X146900000Y-114600000D03*
D19*
X133600000Y-122300000D03*
D18*
X141200000Y-122900000D03*
D19*
X153500000Y-101500000D03*
D18*
X150500000Y-102800000D03*
D19*
X134406067Y-108477989D03*
X134556931Y-110043069D03*
D18*
X142350000Y-100400000D03*
X135800000Y-100500000D03*
X130781196Y-105418804D03*
X145916431Y-103435687D03*
D19*
X133800000Y-109850000D03*
X136535485Y-111314515D03*
D18*
X154050000Y-107450000D03*
X146558015Y-111600000D03*
X147908015Y-109288114D03*
X151100000Y-108000000D03*
X151570721Y-106879279D03*
X146681714Y-101368513D03*
X137800000Y-115400000D03*
X153709889Y-110552588D03*
X152400000Y-111300000D03*
X147900000Y-113400000D03*
X150221881Y-113732822D03*
X150685000Y-110915002D03*
X153600000Y-109250000D03*
X151485000Y-110650000D03*
X148800000Y-101600000D03*
X140300000Y-116500000D03*
X146100000Y-115800000D03*
X152200000Y-114600000D03*
X148200000Y-102000000D03*
X153500000Y-111800000D03*
X132832843Y-123817157D03*
X130450000Y-112450000D03*
X135900000Y-109300000D03*
X133017157Y-125132843D03*
X136450000Y-109600000D03*
X129650000Y-119000000D03*
X146985086Y-128649500D03*
X131232843Y-121567157D03*
X147826059Y-129076059D03*
X129650001Y-111770710D03*
X144200000Y-115850000D03*
X150279657Y-114429657D03*
X152313173Y-113913173D03*
X147408015Y-113750000D03*
X149900000Y-106900000D03*
X149900000Y-110958710D03*
G04 #@! TA.AperFunction,Conductor*
G36*
X134943039Y-94050185D02*
G01*
X134988794Y-94102989D01*
X135000000Y-94154500D01*
X135000000Y-99300000D01*
X135075500Y-99300000D01*
X135142539Y-99319685D01*
X135188294Y-99372489D01*
X135199500Y-99424000D01*
X135199500Y-99922870D01*
X135199501Y-99922876D01*
X135205908Y-99982483D01*
X135250566Y-100102217D01*
X135255550Y-100171909D01*
X135244185Y-100203168D01*
X135242079Y-100207180D01*
X135199749Y-100318797D01*
X135188215Y-100349209D01*
X135169906Y-100500000D01*
X135188215Y-100650791D01*
X135242079Y-100792819D01*
X135328368Y-100917830D01*
X135442066Y-101018557D01*
X135576566Y-101089148D01*
X135650308Y-101107324D01*
X135724050Y-101125500D01*
X135724051Y-101125500D01*
X135875950Y-101125500D01*
X135925110Y-101113382D01*
X136023434Y-101089148D01*
X136157934Y-101018557D01*
X136271632Y-100917830D01*
X136357921Y-100792819D01*
X136411785Y-100650791D01*
X136430094Y-100500000D01*
X136430094Y-100499999D01*
X136430094Y-100499499D01*
X136430198Y-100499144D01*
X136430998Y-100492554D01*
X136432094Y-100492687D01*
X136449779Y-100432460D01*
X136487240Y-100400000D01*
X141719906Y-100400000D01*
X141738215Y-100550791D01*
X141792079Y-100692819D01*
X141878368Y-100817830D01*
X141992066Y-100918557D01*
X142126566Y-100989148D01*
X142187602Y-101004192D01*
X142274050Y-101025500D01*
X142274051Y-101025500D01*
X142425950Y-101025500D01*
X142512398Y-101004192D01*
X142573434Y-100989148D01*
X142707934Y-100918557D01*
X142821632Y-100817830D01*
X142907921Y-100692819D01*
X142961785Y-100550791D01*
X142980094Y-100400000D01*
X142961785Y-100249209D01*
X142907921Y-100107181D01*
X142821632Y-99982170D01*
X142707934Y-99881443D01*
X142573434Y-99810852D01*
X142573433Y-99810851D01*
X142573432Y-99810851D01*
X142425950Y-99774500D01*
X142425949Y-99774500D01*
X142274051Y-99774500D01*
X142274050Y-99774500D01*
X142126567Y-99810851D01*
X141992067Y-99881442D01*
X141878367Y-99982171D01*
X141792080Y-100107179D01*
X141792079Y-100107180D01*
X141788230Y-100117331D01*
X141738215Y-100249209D01*
X141719906Y-100400000D01*
X136487240Y-100400000D01*
X136502583Y-100386705D01*
X136554094Y-100375499D01*
X136647871Y-100375499D01*
X136647872Y-100375499D01*
X136707483Y-100369091D01*
X136842331Y-100318796D01*
X136957546Y-100232546D01*
X137043796Y-100117331D01*
X137094091Y-99982483D01*
X137100500Y-99922873D01*
X137100499Y-99423999D01*
X137120183Y-99356961D01*
X137172987Y-99311206D01*
X137224499Y-99300000D01*
X150600000Y-99300000D01*
X150600000Y-94154500D01*
X150619685Y-94087461D01*
X150672489Y-94041706D01*
X150724000Y-94030500D01*
X157965500Y-94030500D01*
X158032539Y-94050185D01*
X158078294Y-94102989D01*
X158089500Y-94154500D01*
X158089500Y-95728045D01*
X158069815Y-95795084D01*
X158017011Y-95840839D01*
X157947853Y-95850783D01*
X157923725Y-95843434D01*
X157923349Y-95844511D01*
X157762455Y-95788212D01*
X157600004Y-95769909D01*
X157599996Y-95769909D01*
X157437544Y-95788212D01*
X157283225Y-95842210D01*
X157144795Y-95929192D01*
X157029192Y-96044795D01*
X156942210Y-96183225D01*
X156888212Y-96337544D01*
X156869909Y-96499996D01*
X156869909Y-96500003D01*
X156888212Y-96662455D01*
X156942210Y-96816774D01*
X157029192Y-96955204D01*
X157144796Y-97070808D01*
X157283225Y-97157789D01*
X157437539Y-97211786D01*
X157437542Y-97211786D01*
X157437544Y-97211787D01*
X157599996Y-97230091D01*
X157600000Y-97230091D01*
X157600004Y-97230091D01*
X157762455Y-97211787D01*
X157762456Y-97211786D01*
X157762461Y-97211786D01*
X157884461Y-97169095D01*
X157923349Y-97155489D01*
X157924286Y-97158169D01*
X157980593Y-97148876D01*
X158044738Y-97176574D01*
X158083726Y-97234555D01*
X158089500Y-97271954D01*
X158089500Y-98428045D01*
X158069815Y-98495084D01*
X158017011Y-98540839D01*
X157947853Y-98550783D01*
X157923725Y-98543434D01*
X157923349Y-98544511D01*
X157762455Y-98488212D01*
X157600004Y-98469909D01*
X157599996Y-98469909D01*
X157437544Y-98488212D01*
X157283225Y-98542210D01*
X157144795Y-98629192D01*
X157029192Y-98744795D01*
X156942210Y-98883225D01*
X156888212Y-99037544D01*
X156869909Y-99199996D01*
X156869909Y-99200003D01*
X156888212Y-99362455D01*
X156942210Y-99516774D01*
X157029192Y-99655204D01*
X157144796Y-99770808D01*
X157283225Y-99857789D01*
X157437539Y-99911786D01*
X157437542Y-99911786D01*
X157437544Y-99911787D01*
X157599996Y-99930091D01*
X157600000Y-99930091D01*
X157600004Y-99930091D01*
X157762455Y-99911787D01*
X157762456Y-99911786D01*
X157762461Y-99911786D01*
X157884461Y-99869095D01*
X157923349Y-99855489D01*
X157924286Y-99858169D01*
X157980593Y-99848876D01*
X158044738Y-99876574D01*
X158083726Y-99934555D01*
X158089500Y-99971954D01*
X158089500Y-107406277D01*
X158069815Y-107473316D01*
X158017011Y-107519071D01*
X157947853Y-107529015D01*
X157884297Y-107499990D01*
X157847794Y-107445282D01*
X157838697Y-107417830D01*
X157809814Y-107330666D01*
X157717712Y-107181344D01*
X157593656Y-107057288D01*
X157444334Y-106965186D01*
X157277797Y-106910001D01*
X157277795Y-106910000D01*
X157175010Y-106899500D01*
X155824998Y-106899500D01*
X155824981Y-106899501D01*
X155722203Y-106910000D01*
X155722200Y-106910001D01*
X155555668Y-106965185D01*
X155555663Y-106965187D01*
X155406342Y-107057289D01*
X155282289Y-107181342D01*
X155190187Y-107330663D01*
X155190185Y-107330668D01*
X155175661Y-107374500D01*
X155135001Y-107497203D01*
X155135001Y-107497204D01*
X155135000Y-107497204D01*
X155124500Y-107599983D01*
X155124500Y-108400001D01*
X155124501Y-108400019D01*
X155135000Y-108502796D01*
X155135001Y-108502799D01*
X155185339Y-108654706D01*
X155190186Y-108669334D01*
X155282288Y-108818656D01*
X155406344Y-108942712D01*
X155449924Y-108969592D01*
X155470543Y-108982310D01*
X155517268Y-109034258D01*
X155528489Y-109103221D01*
X155500646Y-109167303D01*
X155493128Y-109175530D01*
X155385585Y-109283073D01*
X155283768Y-109423211D01*
X155205128Y-109577552D01*
X155151597Y-109742302D01*
X155131492Y-109869245D01*
X155124500Y-109913389D01*
X155124500Y-110086611D01*
X155129560Y-110118557D01*
X155136512Y-110162455D01*
X155151598Y-110257701D01*
X155205127Y-110422445D01*
X155283768Y-110576788D01*
X155385586Y-110716928D01*
X155508072Y-110839414D01*
X155648212Y-110941232D01*
X155802555Y-111019873D01*
X155967299Y-111073402D01*
X156138389Y-111100500D01*
X156138390Y-111100500D01*
X156861610Y-111100500D01*
X156861611Y-111100500D01*
X157032701Y-111073402D01*
X157197445Y-111019873D01*
X157351788Y-110941232D01*
X157491928Y-110839414D01*
X157614414Y-110716928D01*
X157716232Y-110576788D01*
X157794873Y-110422445D01*
X157847570Y-110260261D01*
X157887007Y-110202587D01*
X157951365Y-110175389D01*
X158020212Y-110187304D01*
X158071687Y-110234548D01*
X158089500Y-110298581D01*
X158089500Y-114041763D01*
X158069815Y-114108802D01*
X158017011Y-114154557D01*
X157947853Y-114164501D01*
X157884297Y-114135476D01*
X157854500Y-114097035D01*
X157783876Y-113955204D01*
X157773778Y-113934924D01*
X157685353Y-113817830D01*
X157639866Y-113757595D01*
X157475655Y-113607898D01*
X157475653Y-113607896D01*
X157286733Y-113490922D01*
X157286727Y-113490919D01*
X157155296Y-113440003D01*
X157079528Y-113410650D01*
X156861104Y-113369820D01*
X156638896Y-113369820D01*
X156420472Y-113410650D01*
X156370695Y-113429933D01*
X156213272Y-113490919D01*
X156213266Y-113490922D01*
X156024346Y-113607896D01*
X156024344Y-113607898D01*
X155860133Y-113757595D01*
X155726222Y-113934923D01*
X155627180Y-114133825D01*
X155627174Y-114133840D01*
X155566366Y-114347558D01*
X155566365Y-114347560D01*
X155545863Y-114568819D01*
X155545863Y-114568820D01*
X155566365Y-114790079D01*
X155566366Y-114790081D01*
X155627174Y-115003799D01*
X155627180Y-115003814D01*
X155726222Y-115202716D01*
X155860133Y-115380044D01*
X156024344Y-115529741D01*
X156024346Y-115529743D01*
X156213266Y-115646717D01*
X156213272Y-115646720D01*
X156219697Y-115649209D01*
X156420472Y-115726990D01*
X156638896Y-115767820D01*
X156638899Y-115767820D01*
X156861101Y-115767820D01*
X156861104Y-115767820D01*
X157079528Y-115726990D01*
X157286730Y-115646719D01*
X157475655Y-115529742D01*
X157639868Y-115380042D01*
X157773778Y-115202716D01*
X157826978Y-115095876D01*
X157854500Y-115040605D01*
X157902003Y-114989367D01*
X157969666Y-114971946D01*
X158036006Y-114993871D01*
X158079961Y-115048183D01*
X158089500Y-115095876D01*
X158089500Y-117038963D01*
X158069815Y-117106002D01*
X158017011Y-117151757D01*
X157947853Y-117161701D01*
X157884297Y-117132676D01*
X157854500Y-117094235D01*
X157809099Y-117003059D01*
X157773778Y-116932124D01*
X157639868Y-116754798D01*
X157639866Y-116754795D01*
X157475655Y-116605098D01*
X157475653Y-116605096D01*
X157286733Y-116488122D01*
X157286727Y-116488119D01*
X157160317Y-116439148D01*
X157079528Y-116407850D01*
X156861104Y-116367020D01*
X156638896Y-116367020D01*
X156420472Y-116407850D01*
X156374912Y-116425500D01*
X156213272Y-116488119D01*
X156213266Y-116488122D01*
X156024346Y-116605096D01*
X156024344Y-116605098D01*
X155860133Y-116754795D01*
X155726222Y-116932123D01*
X155627180Y-117131025D01*
X155627174Y-117131040D01*
X155566366Y-117344758D01*
X155566365Y-117344760D01*
X155545863Y-117566019D01*
X155545863Y-117566020D01*
X155566365Y-117787279D01*
X155566366Y-117787281D01*
X155627174Y-118000999D01*
X155627180Y-118001014D01*
X155726222Y-118199916D01*
X155860133Y-118377244D01*
X156024344Y-118526941D01*
X156024346Y-118526943D01*
X156213266Y-118643917D01*
X156213272Y-118643920D01*
X156237555Y-118653327D01*
X156420472Y-118724190D01*
X156638896Y-118765020D01*
X156638899Y-118765020D01*
X156861101Y-118765020D01*
X156861104Y-118765020D01*
X157079528Y-118724190D01*
X157286730Y-118643919D01*
X157475655Y-118526942D01*
X157639868Y-118377242D01*
X157773778Y-118199916D01*
X157792434Y-118162449D01*
X157854500Y-118037805D01*
X157902003Y-117986567D01*
X157969666Y-117969146D01*
X158036006Y-117991071D01*
X158079961Y-118045383D01*
X158089500Y-118093076D01*
X158089500Y-122664655D01*
X158069815Y-122731694D01*
X158017011Y-122777449D01*
X157947853Y-122787393D01*
X157884297Y-122758368D01*
X157875865Y-122749586D01*
X157875732Y-122749720D01*
X157755204Y-122629192D01*
X157616774Y-122542210D01*
X157462455Y-122488212D01*
X157300004Y-122469909D01*
X157299996Y-122469909D01*
X157137544Y-122488212D01*
X156983225Y-122542210D01*
X156844795Y-122629192D01*
X156729192Y-122744795D01*
X156642210Y-122883225D01*
X156588212Y-123037544D01*
X156569909Y-123199996D01*
X156569909Y-123200003D01*
X156588212Y-123362455D01*
X156642210Y-123516774D01*
X156676162Y-123570808D01*
X156729192Y-123655204D01*
X156844796Y-123770808D01*
X156983225Y-123857789D01*
X157137539Y-123911786D01*
X157137542Y-123911786D01*
X157137544Y-123911787D01*
X157299996Y-123930091D01*
X157300000Y-123930091D01*
X157300004Y-123930091D01*
X157462455Y-123911787D01*
X157462456Y-123911786D01*
X157462461Y-123911786D01*
X157616775Y-123857789D01*
X157755204Y-123770808D01*
X157870808Y-123655204D01*
X157870808Y-123655203D01*
X157875732Y-123650280D01*
X157877325Y-123651873D01*
X157925742Y-123617891D01*
X157995553Y-123615041D01*
X158055823Y-123650387D01*
X158087416Y-123712706D01*
X158089500Y-123735344D01*
X158089500Y-127864655D01*
X158069815Y-127931694D01*
X158017011Y-127977449D01*
X157947853Y-127987393D01*
X157884297Y-127958368D01*
X157875865Y-127949586D01*
X157875732Y-127949720D01*
X157755204Y-127829192D01*
X157616774Y-127742210D01*
X157462455Y-127688212D01*
X157300004Y-127669909D01*
X157299996Y-127669909D01*
X157137544Y-127688212D01*
X156983225Y-127742210D01*
X156844795Y-127829192D01*
X156729192Y-127944795D01*
X156642210Y-128083225D01*
X156588212Y-128237544D01*
X156569909Y-128399996D01*
X156569909Y-128400003D01*
X156588212Y-128562455D01*
X156642210Y-128716774D01*
X156701911Y-128811787D01*
X156729192Y-128855204D01*
X156844796Y-128970808D01*
X156983225Y-129057789D01*
X157137539Y-129111786D01*
X157137542Y-129111786D01*
X157137544Y-129111787D01*
X157299996Y-129130091D01*
X157300000Y-129130091D01*
X157300004Y-129130091D01*
X157462455Y-129111787D01*
X157462456Y-129111786D01*
X157462461Y-129111786D01*
X157616775Y-129057789D01*
X157755204Y-128970808D01*
X157870808Y-128855204D01*
X157870808Y-128855203D01*
X157875732Y-128850280D01*
X157877325Y-128851873D01*
X157925742Y-128817891D01*
X157995553Y-128815041D01*
X158055823Y-128850387D01*
X158087416Y-128912706D01*
X158089500Y-128935344D01*
X158089500Y-130665500D01*
X158069815Y-130732539D01*
X158017011Y-130778294D01*
X157965500Y-130789500D01*
X126974500Y-130789500D01*
X126907461Y-130769815D01*
X126861706Y-130717011D01*
X126850500Y-130665500D01*
X126850500Y-129799996D01*
X131569909Y-129799996D01*
X131569909Y-129800003D01*
X131588212Y-129962455D01*
X131642210Y-130116774D01*
X131716616Y-130235190D01*
X131729192Y-130255204D01*
X131844796Y-130370808D01*
X131983225Y-130457789D01*
X132137539Y-130511786D01*
X132137542Y-130511786D01*
X132137544Y-130511787D01*
X132299996Y-130530091D01*
X132300000Y-130530091D01*
X132300004Y-130530091D01*
X132462455Y-130511787D01*
X132462456Y-130511786D01*
X132462461Y-130511786D01*
X132616775Y-130457789D01*
X132755204Y-130370808D01*
X132812319Y-130313693D01*
X132873642Y-130280208D01*
X132943334Y-130285192D01*
X132987681Y-130313693D01*
X133044796Y-130370808D01*
X133183225Y-130457789D01*
X133337539Y-130511786D01*
X133337542Y-130511786D01*
X133337544Y-130511787D01*
X133499996Y-130530091D01*
X133500000Y-130530091D01*
X133500004Y-130530091D01*
X133662455Y-130511787D01*
X133662456Y-130511786D01*
X133662461Y-130511786D01*
X133816775Y-130457789D01*
X133955204Y-130370808D01*
X134070808Y-130255204D01*
X134157789Y-130116775D01*
X134211786Y-129962461D01*
X134211787Y-129962455D01*
X134230091Y-129800003D01*
X134230091Y-129799996D01*
X134211787Y-129637544D01*
X134211786Y-129637542D01*
X134211786Y-129637539D01*
X134157789Y-129483225D01*
X134070808Y-129344796D01*
X133955204Y-129229192D01*
X133857909Y-129168057D01*
X133816774Y-129142210D01*
X133662455Y-129088212D01*
X133500004Y-129069909D01*
X133499996Y-129069909D01*
X133337544Y-129088212D01*
X133183225Y-129142210D01*
X133044795Y-129229192D01*
X132987681Y-129286307D01*
X132926358Y-129319792D01*
X132856666Y-129314808D01*
X132812319Y-129286307D01*
X132755204Y-129229192D01*
X132616774Y-129142210D01*
X132462455Y-129088212D01*
X132300004Y-129069909D01*
X132299996Y-129069909D01*
X132137544Y-129088212D01*
X131983225Y-129142210D01*
X131844795Y-129229192D01*
X131729192Y-129344795D01*
X131642210Y-129483225D01*
X131588212Y-129637544D01*
X131569909Y-129799996D01*
X126850500Y-129799996D01*
X126850500Y-128312924D01*
X126870185Y-128245885D01*
X126922989Y-128200130D01*
X126992147Y-128190186D01*
X127055703Y-128219211D01*
X127091540Y-128271968D01*
X127105872Y-128312924D01*
X127142210Y-128416774D01*
X127193693Y-128498708D01*
X127229192Y-128555204D01*
X127344796Y-128670808D01*
X127483225Y-128757789D01*
X127637539Y-128811786D01*
X127637542Y-128811786D01*
X127637544Y-128811787D01*
X127799996Y-128830091D01*
X127800000Y-128830091D01*
X127800004Y-128830091D01*
X127962455Y-128811787D01*
X127962456Y-128811786D01*
X127962461Y-128811786D01*
X128116775Y-128757789D01*
X128255204Y-128670808D01*
X128276512Y-128649500D01*
X146354992Y-128649500D01*
X146373301Y-128800291D01*
X146427165Y-128942319D01*
X146513454Y-129067330D01*
X146627152Y-129168057D01*
X146761652Y-129238648D01*
X146835394Y-129256824D01*
X146909136Y-129275000D01*
X146909137Y-129275000D01*
X147061037Y-129275000D01*
X147061039Y-129274999D01*
X147111211Y-129262633D01*
X147181013Y-129265701D01*
X147238075Y-129306020D01*
X147256828Y-129339056D01*
X147268138Y-129368878D01*
X147354427Y-129493889D01*
X147468125Y-129594616D01*
X147602625Y-129665207D01*
X147676367Y-129683383D01*
X147750109Y-129701559D01*
X147750110Y-129701559D01*
X147902009Y-129701559D01*
X147908350Y-129699996D01*
X150769909Y-129699996D01*
X150769909Y-129700003D01*
X150788212Y-129862455D01*
X150842210Y-130016774D01*
X150842211Y-130016775D01*
X150929192Y-130155204D01*
X151044796Y-130270808D01*
X151183225Y-130357789D01*
X151337539Y-130411786D01*
X151337542Y-130411786D01*
X151337544Y-130411787D01*
X151499996Y-130430091D01*
X151500000Y-130430091D01*
X151500004Y-130430091D01*
X151662455Y-130411787D01*
X151662456Y-130411786D01*
X151662461Y-130411786D01*
X151816775Y-130357789D01*
X151955204Y-130270808D01*
X151962317Y-130263694D01*
X152023637Y-130230209D01*
X152093329Y-130235190D01*
X152137681Y-130263693D01*
X152244796Y-130370808D01*
X152383225Y-130457789D01*
X152537539Y-130511786D01*
X152537542Y-130511786D01*
X152537544Y-130511787D01*
X152699996Y-130530091D01*
X152700000Y-130530091D01*
X152700004Y-130530091D01*
X152862455Y-130511787D01*
X152862456Y-130511786D01*
X152862461Y-130511786D01*
X153016775Y-130457789D01*
X153155204Y-130370808D01*
X153270808Y-130255204D01*
X153357789Y-130116775D01*
X153411786Y-129962461D01*
X153411787Y-129962455D01*
X153430091Y-129800003D01*
X153430091Y-129799996D01*
X153411787Y-129637544D01*
X153411786Y-129637542D01*
X153411786Y-129637539D01*
X153357789Y-129483225D01*
X153270808Y-129344796D01*
X153155204Y-129229192D01*
X153057909Y-129168057D01*
X153016774Y-129142210D01*
X152862455Y-129088212D01*
X152700004Y-129069909D01*
X152699996Y-129069909D01*
X152537544Y-129088212D01*
X152383225Y-129142210D01*
X152244794Y-129229193D01*
X152237677Y-129236310D01*
X152176352Y-129269792D01*
X152106661Y-129264805D01*
X152062318Y-129236306D01*
X151955204Y-129129192D01*
X151816774Y-129042210D01*
X151662455Y-128988212D01*
X151500004Y-128969909D01*
X151499996Y-128969909D01*
X151337544Y-128988212D01*
X151183225Y-129042210D01*
X151044795Y-129129192D01*
X150929192Y-129244795D01*
X150842210Y-129383225D01*
X150788212Y-129537544D01*
X150769909Y-129699996D01*
X147908350Y-129699996D01*
X147951169Y-129689441D01*
X148049493Y-129665207D01*
X148183993Y-129594616D01*
X148297691Y-129493889D01*
X148383980Y-129368878D01*
X148437844Y-129226850D01*
X148456153Y-129076059D01*
X148437844Y-128925268D01*
X148383980Y-128783240D01*
X148297691Y-128658229D01*
X148183993Y-128557502D01*
X148049493Y-128486911D01*
X148049492Y-128486910D01*
X148049491Y-128486910D01*
X147902009Y-128450559D01*
X147902008Y-128450559D01*
X147750110Y-128450559D01*
X147750108Y-128450559D01*
X147699931Y-128462926D01*
X147630129Y-128459856D01*
X147573067Y-128419536D01*
X147554318Y-128386506D01*
X147543007Y-128356681D01*
X147456718Y-128231670D01*
X147343020Y-128130943D01*
X147208520Y-128060352D01*
X147208519Y-128060351D01*
X147208518Y-128060351D01*
X147061036Y-128024000D01*
X147061035Y-128024000D01*
X146909137Y-128024000D01*
X146909136Y-128024000D01*
X146761653Y-128060351D01*
X146627153Y-128130942D01*
X146513453Y-128231671D01*
X146427166Y-128356679D01*
X146427165Y-128356680D01*
X146377776Y-128486910D01*
X146373301Y-128498709D01*
X146354992Y-128649500D01*
X128276512Y-128649500D01*
X128370808Y-128555204D01*
X128457789Y-128416775D01*
X128511786Y-128262461D01*
X128513654Y-128245885D01*
X128530091Y-128100003D01*
X128530091Y-128099996D01*
X128511787Y-127937544D01*
X128511786Y-127937542D01*
X128511786Y-127937539D01*
X128457789Y-127783225D01*
X128370808Y-127644796D01*
X128255204Y-127529192D01*
X128116774Y-127442210D01*
X127962455Y-127388212D01*
X127800004Y-127369909D01*
X127799996Y-127369909D01*
X127637544Y-127388212D01*
X127483225Y-127442210D01*
X127344795Y-127529192D01*
X127229192Y-127644795D01*
X127142210Y-127783225D01*
X127091542Y-127928029D01*
X127050820Y-127984805D01*
X126985868Y-128010553D01*
X126917306Y-127997097D01*
X126866903Y-127948710D01*
X126850500Y-127887075D01*
X126850500Y-123817157D01*
X132202749Y-123817157D01*
X132221058Y-123967948D01*
X132274922Y-124109976D01*
X132361211Y-124234987D01*
X132474909Y-124335714D01*
X132609409Y-124406305D01*
X132609411Y-124406305D01*
X132609412Y-124406306D01*
X132616427Y-124408967D01*
X132615273Y-124412007D01*
X132662964Y-124439727D01*
X132694799Y-124501922D01*
X132687955Y-124571456D01*
X132655199Y-124617850D01*
X132545526Y-124715011D01*
X132459237Y-124840022D01*
X132459236Y-124840023D01*
X132459236Y-124840024D01*
X132405372Y-124982052D01*
X132387063Y-125132843D01*
X132405372Y-125283634D01*
X132459236Y-125425662D01*
X132545525Y-125550673D01*
X132659223Y-125651400D01*
X132793723Y-125721991D01*
X132867465Y-125740167D01*
X132941207Y-125758343D01*
X132941208Y-125758343D01*
X133093107Y-125758343D01*
X133142267Y-125746225D01*
X133240591Y-125721991D01*
X133375091Y-125651400D01*
X133488789Y-125550673D01*
X133575078Y-125425662D01*
X133628942Y-125283634D01*
X133647251Y-125132843D01*
X133628942Y-124982052D01*
X133575078Y-124840024D01*
X133488789Y-124715013D01*
X133375091Y-124614286D01*
X133240591Y-124543695D01*
X133240590Y-124543694D01*
X133240587Y-124543693D01*
X133233573Y-124541033D01*
X133234716Y-124538018D01*
X133186919Y-124510150D01*
X133155169Y-124447911D01*
X133162107Y-124378386D01*
X133194798Y-124332150D01*
X133304475Y-124234987D01*
X133390764Y-124109976D01*
X133444628Y-123967948D01*
X133452879Y-123899996D01*
X133769909Y-123899996D01*
X133769909Y-123900003D01*
X133788212Y-124062455D01*
X133842210Y-124216774D01*
X133842211Y-124216775D01*
X133929192Y-124355204D01*
X134044796Y-124470808D01*
X134183225Y-124557789D01*
X134337539Y-124611786D01*
X134337542Y-124611786D01*
X134337544Y-124611787D01*
X134499996Y-124630091D01*
X134500000Y-124630091D01*
X134500004Y-124630091D01*
X134662455Y-124611787D01*
X134662456Y-124611786D01*
X134662461Y-124611786D01*
X134816775Y-124557789D01*
X134955204Y-124470808D01*
X135070808Y-124355204D01*
X135157789Y-124216775D01*
X135211786Y-124062461D01*
X135213753Y-124045007D01*
X135230091Y-123900003D01*
X135230091Y-123899996D01*
X135211787Y-123737544D01*
X135211786Y-123737542D01*
X135211786Y-123737539D01*
X135157789Y-123583225D01*
X135070808Y-123444796D01*
X134955204Y-123329192D01*
X134830430Y-123250791D01*
X134816774Y-123242210D01*
X134662455Y-123188212D01*
X134500004Y-123169909D01*
X134499996Y-123169909D01*
X134337544Y-123188212D01*
X134183225Y-123242210D01*
X134044795Y-123329192D01*
X133929192Y-123444795D01*
X133842210Y-123583225D01*
X133788212Y-123737544D01*
X133769909Y-123899996D01*
X133452879Y-123899996D01*
X133462937Y-123817157D01*
X133444628Y-123666366D01*
X133390764Y-123524338D01*
X133304475Y-123399327D01*
X133190777Y-123298600D01*
X133056277Y-123228009D01*
X133056276Y-123228008D01*
X133056275Y-123228008D01*
X132908793Y-123191657D01*
X132908792Y-123191657D01*
X132756894Y-123191657D01*
X132756893Y-123191657D01*
X132609410Y-123228008D01*
X132474910Y-123298599D01*
X132361210Y-123399328D01*
X132274923Y-123524336D01*
X132274922Y-123524337D01*
X132221058Y-123666365D01*
X132212683Y-123735344D01*
X132202749Y-123817157D01*
X126850500Y-123817157D01*
X126850500Y-123575874D01*
X126870185Y-123508835D01*
X126922989Y-123463080D01*
X126992147Y-123453136D01*
X127055703Y-123482161D01*
X127062181Y-123488193D01*
X127144796Y-123570808D01*
X127283225Y-123657789D01*
X127437539Y-123711786D01*
X127437542Y-123711786D01*
X127437544Y-123711787D01*
X127599996Y-123730091D01*
X127600000Y-123730091D01*
X127600004Y-123730091D01*
X127762455Y-123711787D01*
X127762456Y-123711786D01*
X127762461Y-123711786D01*
X127916775Y-123657789D01*
X128055204Y-123570808D01*
X128170808Y-123455204D01*
X128257789Y-123316775D01*
X128311786Y-123162461D01*
X128320915Y-123081442D01*
X128330091Y-123000003D01*
X128330091Y-122999996D01*
X128318824Y-122900000D01*
X138569906Y-122900000D01*
X138588215Y-123050791D01*
X138642079Y-123192819D01*
X138728368Y-123317830D01*
X138842066Y-123418557D01*
X138976566Y-123489148D01*
X139050308Y-123507324D01*
X139124050Y-123525500D01*
X139124051Y-123525500D01*
X139275950Y-123525500D01*
X139343561Y-123508835D01*
X139423434Y-123489148D01*
X139557934Y-123418557D01*
X139671632Y-123317830D01*
X139757921Y-123192819D01*
X139811785Y-123050791D01*
X139830094Y-122900000D01*
X139817952Y-122800000D01*
X144069906Y-122800000D01*
X144088215Y-122950791D01*
X144142079Y-123092819D01*
X144228368Y-123217830D01*
X144342066Y-123318557D01*
X144476566Y-123389148D01*
X144517864Y-123399327D01*
X144624050Y-123425500D01*
X144624051Y-123425500D01*
X144775950Y-123425500D01*
X144825110Y-123413382D01*
X144923434Y-123389148D01*
X145057934Y-123318557D01*
X145171632Y-123217830D01*
X145252964Y-123100000D01*
X148169906Y-123100000D01*
X148188215Y-123250791D01*
X148242079Y-123392819D01*
X148328368Y-123517830D01*
X148442066Y-123618557D01*
X148576566Y-123689148D01*
X148650308Y-123707324D01*
X148724050Y-123725500D01*
X148724051Y-123725500D01*
X148875948Y-123725500D01*
X148875949Y-123725500D01*
X149020326Y-123689914D01*
X149079674Y-123689914D01*
X149224051Y-123725500D01*
X149224052Y-123725500D01*
X149375950Y-123725500D01*
X149449691Y-123707324D01*
X149523434Y-123689148D01*
X149523436Y-123689146D01*
X149530442Y-123686490D01*
X149531572Y-123689471D01*
X149585906Y-123678572D01*
X149650966Y-123704048D01*
X149690996Y-123758125D01*
X149742079Y-123892819D01*
X149828368Y-124017830D01*
X149942066Y-124118557D01*
X150076566Y-124189148D01*
X150150308Y-124207324D01*
X150224050Y-124225500D01*
X150224051Y-124225500D01*
X150375950Y-124225500D01*
X150425110Y-124213382D01*
X150523434Y-124189148D01*
X150657934Y-124118557D01*
X150717774Y-124065543D01*
X150781006Y-124035823D01*
X150850270Y-124045007D01*
X150882224Y-124065542D01*
X150942066Y-124118557D01*
X151076566Y-124189148D01*
X151150308Y-124207324D01*
X151224050Y-124225500D01*
X151224051Y-124225500D01*
X151375950Y-124225500D01*
X151425110Y-124213382D01*
X151523434Y-124189148D01*
X151657934Y-124118557D01*
X151717774Y-124065543D01*
X151781006Y-124035823D01*
X151850270Y-124045007D01*
X151882224Y-124065542D01*
X151942066Y-124118557D01*
X152076566Y-124189148D01*
X152150308Y-124207324D01*
X152224050Y-124225500D01*
X152224051Y-124225500D01*
X152375950Y-124225500D01*
X152425110Y-124213382D01*
X152523434Y-124189148D01*
X152657934Y-124118557D01*
X152771632Y-124017830D01*
X152857921Y-123892819D01*
X152911785Y-123750791D01*
X152930094Y-123600000D01*
X152911785Y-123449209D01*
X152857921Y-123307181D01*
X152771632Y-123182170D01*
X152657934Y-123081443D01*
X152523434Y-123010852D01*
X152523433Y-123010851D01*
X152523432Y-123010851D01*
X152375950Y-122974500D01*
X152375949Y-122974500D01*
X152224051Y-122974500D01*
X152224050Y-122974500D01*
X152076567Y-123010851D01*
X151942064Y-123081443D01*
X151882226Y-123134455D01*
X151818993Y-123164176D01*
X151749729Y-123154992D01*
X151717774Y-123134455D01*
X151657935Y-123081443D01*
X151523432Y-123010851D01*
X151375950Y-122974500D01*
X151375949Y-122974500D01*
X151224051Y-122974500D01*
X151224050Y-122974500D01*
X151076567Y-123010851D01*
X150942064Y-123081443D01*
X150882226Y-123134455D01*
X150818993Y-123164176D01*
X150749729Y-123154992D01*
X150717774Y-123134455D01*
X150657935Y-123081443D01*
X150523432Y-123010851D01*
X150375950Y-122974500D01*
X150375949Y-122974500D01*
X150224051Y-122974500D01*
X150224050Y-122974500D01*
X150076566Y-123010851D01*
X150069558Y-123013510D01*
X150068440Y-123010564D01*
X150013861Y-123021407D01*
X149948849Y-122995808D01*
X149909003Y-122941874D01*
X149857921Y-122807181D01*
X149771632Y-122682170D01*
X149657934Y-122581443D01*
X149523434Y-122510852D01*
X149523433Y-122510851D01*
X149523432Y-122510851D01*
X149375950Y-122474500D01*
X149375949Y-122474500D01*
X149224051Y-122474500D01*
X149224050Y-122474500D01*
X149079675Y-122510085D01*
X149020325Y-122510085D01*
X148875950Y-122474500D01*
X148875949Y-122474500D01*
X148724051Y-122474500D01*
X148724050Y-122474500D01*
X148576567Y-122510851D01*
X148442067Y-122581442D01*
X148442066Y-122581443D01*
X148348139Y-122664655D01*
X148328367Y-122682171D01*
X148242080Y-122807179D01*
X148242079Y-122807180D01*
X148190997Y-122941874D01*
X148188215Y-122949209D01*
X148169906Y-123100000D01*
X145252964Y-123100000D01*
X145257921Y-123092819D01*
X145311785Y-122950791D01*
X145330094Y-122800000D01*
X145311785Y-122649209D01*
X145257921Y-122507181D01*
X145171632Y-122382170D01*
X145057934Y-122281443D01*
X144923434Y-122210852D01*
X144923433Y-122210851D01*
X144923432Y-122210851D01*
X144775950Y-122174500D01*
X144775949Y-122174500D01*
X144624051Y-122174500D01*
X144624050Y-122174500D01*
X144476567Y-122210851D01*
X144342067Y-122281442D01*
X144228367Y-122382171D01*
X144142080Y-122507179D01*
X144142079Y-122507180D01*
X144088215Y-122649208D01*
X144084213Y-122682170D01*
X144069906Y-122800000D01*
X139817952Y-122800000D01*
X139811785Y-122749209D01*
X139757921Y-122607181D01*
X139671632Y-122482170D01*
X139557934Y-122381443D01*
X139423434Y-122310852D01*
X139423433Y-122310851D01*
X139423432Y-122310851D01*
X139275950Y-122274500D01*
X139275949Y-122274500D01*
X139124051Y-122274500D01*
X139124050Y-122274500D01*
X138976567Y-122310851D01*
X138842067Y-122381442D01*
X138728367Y-122482171D01*
X138642080Y-122607179D01*
X138642079Y-122607180D01*
X138589889Y-122744796D01*
X138588215Y-122749209D01*
X138569906Y-122900000D01*
X128318824Y-122900000D01*
X128311787Y-122837544D01*
X128311786Y-122837542D01*
X128311786Y-122837539D01*
X128257789Y-122683225D01*
X128170808Y-122544796D01*
X128055204Y-122429192D01*
X127979211Y-122381442D01*
X127916774Y-122342210D01*
X127762455Y-122288212D01*
X127600004Y-122269909D01*
X127599996Y-122269909D01*
X127437544Y-122288212D01*
X127283225Y-122342210D01*
X127144795Y-122429192D01*
X127062181Y-122511807D01*
X127000858Y-122545292D01*
X126931166Y-122540308D01*
X126875233Y-122498436D01*
X126850816Y-122432972D01*
X126850500Y-122424126D01*
X126850500Y-121567157D01*
X130602749Y-121567157D01*
X130621058Y-121717948D01*
X130674922Y-121859976D01*
X130761211Y-121984987D01*
X130874909Y-122085714D01*
X131009409Y-122156305D01*
X131083151Y-122174481D01*
X131156893Y-122192657D01*
X131156894Y-122192657D01*
X131308793Y-122192657D01*
X131382457Y-122174500D01*
X131456277Y-122156305D01*
X131590777Y-122085714D01*
X131665988Y-122019082D01*
X131729217Y-121989364D01*
X131789163Y-121994858D01*
X131837539Y-122011786D01*
X131837542Y-122011786D01*
X131837544Y-122011787D01*
X131999996Y-122030091D01*
X132000000Y-122030091D01*
X132000004Y-122030091D01*
X132162455Y-122011787D01*
X132162456Y-122011786D01*
X132162461Y-122011786D01*
X132316775Y-121957789D01*
X132455204Y-121870808D01*
X132570808Y-121755204D01*
X132657789Y-121616775D01*
X132711786Y-121462461D01*
X132711787Y-121462455D01*
X132718824Y-121399996D01*
X132969909Y-121399996D01*
X132969909Y-121400003D01*
X132988212Y-121562455D01*
X133042210Y-121716774D01*
X133089993Y-121792819D01*
X133129192Y-121855204D01*
X133244796Y-121970808D01*
X133383225Y-122057789D01*
X133537539Y-122111786D01*
X133537542Y-122111786D01*
X133537544Y-122111787D01*
X133699996Y-122130091D01*
X133700000Y-122130091D01*
X133700004Y-122130091D01*
X133862457Y-122111787D01*
X133862459Y-122111786D01*
X133862461Y-122111786D01*
X134016775Y-122057789D01*
X134084030Y-122015529D01*
X134151263Y-121996529D01*
X134215969Y-122015528D01*
X134283225Y-122057789D01*
X134363030Y-122085714D01*
X134437542Y-122111787D01*
X134599996Y-122130091D01*
X134600000Y-122130091D01*
X134600004Y-122130091D01*
X134762455Y-122111787D01*
X134762456Y-122111786D01*
X134762461Y-122111786D01*
X134916775Y-122057789D01*
X135055204Y-121970808D01*
X135170808Y-121855204D01*
X135257789Y-121716775D01*
X135311786Y-121562461D01*
X135313101Y-121550791D01*
X135330091Y-121400003D01*
X135330091Y-121400000D01*
X139669906Y-121400000D01*
X139688215Y-121550791D01*
X139742079Y-121692819D01*
X139828368Y-121817830D01*
X139942066Y-121918557D01*
X140076566Y-121989148D01*
X140106512Y-121996529D01*
X140224050Y-122025500D01*
X140224051Y-122025500D01*
X140375950Y-122025500D01*
X140425110Y-122013382D01*
X140523434Y-121989148D01*
X140657934Y-121918557D01*
X140771632Y-121817830D01*
X140857921Y-121692819D01*
X140911785Y-121550791D01*
X140917952Y-121500000D01*
X142089904Y-121500000D01*
X142108213Y-121650791D01*
X142162077Y-121792819D01*
X142248366Y-121917830D01*
X142362064Y-122018557D01*
X142496564Y-122089148D01*
X142570306Y-122107324D01*
X142644048Y-122125500D01*
X142644049Y-122125500D01*
X142795948Y-122125500D01*
X142845108Y-122113382D01*
X142943432Y-122089148D01*
X143077932Y-122018557D01*
X143191630Y-121917830D01*
X143277919Y-121792819D01*
X143331783Y-121650791D01*
X143335785Y-121617825D01*
X143363405Y-121553648D01*
X143421338Y-121514590D01*
X143429198Y-121512375D01*
X143523434Y-121489148D01*
X143657934Y-121418557D01*
X143771632Y-121317830D01*
X143857921Y-121192819D01*
X143911785Y-121050791D01*
X143930094Y-120900000D01*
X143917952Y-120799996D01*
X155969909Y-120799996D01*
X155969909Y-120800003D01*
X155988212Y-120962455D01*
X156042210Y-121116774D01*
X156062665Y-121149327D01*
X156129192Y-121255204D01*
X156244796Y-121370808D01*
X156383225Y-121457789D01*
X156537539Y-121511786D01*
X156537542Y-121511786D01*
X156537544Y-121511787D01*
X156699996Y-121530091D01*
X156700000Y-121530091D01*
X156700004Y-121530091D01*
X156862455Y-121511787D01*
X156862456Y-121511786D01*
X156862461Y-121511786D01*
X157016775Y-121457789D01*
X157155204Y-121370808D01*
X157270808Y-121255204D01*
X157357789Y-121116775D01*
X157411786Y-120962461D01*
X157412956Y-120952076D01*
X157430091Y-120800003D01*
X157430091Y-120799996D01*
X157411787Y-120637542D01*
X157407148Y-120624284D01*
X157398345Y-120599129D01*
X157394784Y-120529351D01*
X157410394Y-120492202D01*
X157416697Y-120482171D01*
X157457789Y-120416775D01*
X157511786Y-120262461D01*
X157511786Y-120262459D01*
X157511787Y-120262457D01*
X157530091Y-120100003D01*
X157530091Y-120099996D01*
X157511787Y-119937544D01*
X157511786Y-119937542D01*
X157511786Y-119937539D01*
X157457789Y-119783225D01*
X157370808Y-119644796D01*
X157255204Y-119529192D01*
X157127521Y-119448963D01*
X157116774Y-119442210D01*
X156962455Y-119388212D01*
X156800004Y-119369909D01*
X156799996Y-119369909D01*
X156637544Y-119388212D01*
X156483225Y-119442210D01*
X156344795Y-119529192D01*
X156229192Y-119644795D01*
X156142210Y-119783225D01*
X156088212Y-119937544D01*
X156069909Y-120099996D01*
X156069909Y-120100003D01*
X156088213Y-120262459D01*
X156088213Y-120262460D01*
X156101653Y-120300871D01*
X156105214Y-120370650D01*
X156089606Y-120407795D01*
X156042209Y-120483228D01*
X155988212Y-120637544D01*
X155969909Y-120799996D01*
X143917952Y-120799996D01*
X143911785Y-120749209D01*
X143857921Y-120607181D01*
X143771632Y-120482170D01*
X143657934Y-120381443D01*
X143523434Y-120310852D01*
X143523433Y-120310851D01*
X143523432Y-120310851D01*
X143375950Y-120274500D01*
X143375949Y-120274500D01*
X143224051Y-120274500D01*
X143224050Y-120274500D01*
X143076567Y-120310851D01*
X142942067Y-120381442D01*
X142828367Y-120482171D01*
X142742080Y-120607179D01*
X142742079Y-120607180D01*
X142688215Y-120749207D01*
X142684212Y-120782176D01*
X142656590Y-120846354D01*
X142598656Y-120885410D01*
X142590792Y-120887626D01*
X142496565Y-120910851D01*
X142362065Y-120981442D01*
X142248365Y-121082171D01*
X142162078Y-121207179D01*
X142162077Y-121207180D01*
X142108213Y-121349208D01*
X142105590Y-121370808D01*
X142089904Y-121500000D01*
X140917952Y-121500000D01*
X140930094Y-121400000D01*
X140911785Y-121249209D01*
X140857921Y-121107181D01*
X140771632Y-120982170D01*
X140657934Y-120881443D01*
X140523434Y-120810852D01*
X140523433Y-120810851D01*
X140523432Y-120810851D01*
X140375950Y-120774500D01*
X140375949Y-120774500D01*
X140224051Y-120774500D01*
X140224050Y-120774500D01*
X140076567Y-120810851D01*
X139942067Y-120881442D01*
X139828367Y-120982171D01*
X139742080Y-121107179D01*
X139742079Y-121107180D01*
X139692641Y-121237539D01*
X139688215Y-121249209D01*
X139669906Y-121400000D01*
X135330091Y-121400000D01*
X135330091Y-121399996D01*
X135311787Y-121237544D01*
X135311786Y-121237542D01*
X135311786Y-121237539D01*
X135257789Y-121083225D01*
X135170808Y-120944796D01*
X135055204Y-120829192D01*
X135008750Y-120800003D01*
X134916774Y-120742210D01*
X134762455Y-120688212D01*
X134600004Y-120669909D01*
X134599996Y-120669909D01*
X134437544Y-120688212D01*
X134283222Y-120742211D01*
X134215971Y-120784468D01*
X134148735Y-120803468D01*
X134084029Y-120784468D01*
X134016777Y-120742211D01*
X133862455Y-120688212D01*
X133700004Y-120669909D01*
X133699996Y-120669909D01*
X133537544Y-120688212D01*
X133383225Y-120742210D01*
X133244795Y-120829192D01*
X133129192Y-120944795D01*
X133042210Y-121083225D01*
X132988212Y-121237544D01*
X132969909Y-121399996D01*
X132718824Y-121399996D01*
X132730091Y-121300003D01*
X132730091Y-121299996D01*
X132711787Y-121137542D01*
X132701163Y-121107180D01*
X132691728Y-121080219D01*
X132688167Y-121010441D01*
X132722895Y-120949814D01*
X132746768Y-120931878D01*
X132848716Y-120873020D01*
X132960520Y-120761216D01*
X133039577Y-120624284D01*
X133080500Y-120471557D01*
X133080500Y-120313443D01*
X133039577Y-120160716D01*
X132979500Y-120056658D01*
X132960524Y-120023790D01*
X132960518Y-120023782D01*
X132848717Y-119911981D01*
X132848709Y-119911975D01*
X132711790Y-119832926D01*
X132711786Y-119832924D01*
X132711784Y-119832923D01*
X132559057Y-119792000D01*
X131300943Y-119792000D01*
X131148216Y-119832923D01*
X131148209Y-119832926D01*
X131011290Y-119911975D01*
X131011282Y-119911981D01*
X130899481Y-120023782D01*
X130899475Y-120023790D01*
X130820426Y-120160709D01*
X130820423Y-120160716D01*
X130779500Y-120313443D01*
X130779500Y-120471557D01*
X130815841Y-120607181D01*
X130820423Y-120624283D01*
X130820426Y-120624290D01*
X130899475Y-120761209D01*
X130899481Y-120761217D01*
X130960328Y-120822064D01*
X130993813Y-120883387D01*
X130988829Y-120953079D01*
X130946957Y-121009012D01*
X130930274Y-121019541D01*
X130874910Y-121048599D01*
X130761210Y-121149328D01*
X130674923Y-121274336D01*
X130674922Y-121274337D01*
X130627264Y-121400003D01*
X130621058Y-121416366D01*
X130602749Y-121567157D01*
X126850500Y-121567157D01*
X126850500Y-121012285D01*
X126870185Y-120945246D01*
X126922989Y-120899491D01*
X126992147Y-120889547D01*
X127036497Y-120904896D01*
X127118216Y-120952077D01*
X127270943Y-120993000D01*
X127270945Y-120993000D01*
X128229055Y-120993000D01*
X128229057Y-120993000D01*
X128381784Y-120952077D01*
X128518716Y-120873020D01*
X128630520Y-120761216D01*
X128709577Y-120624284D01*
X128750500Y-120471557D01*
X128750500Y-120313443D01*
X128709577Y-120160716D01*
X128649500Y-120056658D01*
X128630524Y-120023790D01*
X128630518Y-120023782D01*
X128518717Y-119911981D01*
X128518709Y-119911975D01*
X128381790Y-119832926D01*
X128381786Y-119832924D01*
X128381784Y-119832923D01*
X128229057Y-119792000D01*
X127270943Y-119792000D01*
X127118216Y-119832923D01*
X127118215Y-119832923D01*
X127036499Y-119880102D01*
X126968599Y-119896574D01*
X126902572Y-119873721D01*
X126859382Y-119818799D01*
X126850500Y-119772714D01*
X126850500Y-119000000D01*
X129019906Y-119000000D01*
X129038215Y-119150791D01*
X129092079Y-119292819D01*
X129178368Y-119417830D01*
X129292066Y-119518557D01*
X129426566Y-119589148D01*
X129500308Y-119607324D01*
X129574050Y-119625500D01*
X129574051Y-119625500D01*
X129725950Y-119625500D01*
X129775110Y-119613382D01*
X129873434Y-119589148D01*
X130007934Y-119518557D01*
X130121632Y-119417830D01*
X130207921Y-119292819D01*
X130261785Y-119150791D01*
X130280094Y-119000000D01*
X130267940Y-118899899D01*
X130954500Y-118899899D01*
X130954500Y-119025101D01*
X130986905Y-119146036D01*
X131049505Y-119254464D01*
X131138036Y-119342995D01*
X131246464Y-119405595D01*
X131367399Y-119438000D01*
X131367401Y-119438000D01*
X131492599Y-119438000D01*
X131492601Y-119438000D01*
X131613536Y-119405595D01*
X131721964Y-119342995D01*
X131810495Y-119254464D01*
X131873095Y-119146036D01*
X131885431Y-119100000D01*
X132669906Y-119100000D01*
X132688215Y-119250791D01*
X132742079Y-119392819D01*
X132828368Y-119517830D01*
X132942066Y-119618557D01*
X133076566Y-119689148D01*
X133150308Y-119707324D01*
X133224050Y-119725500D01*
X133224051Y-119725500D01*
X133375950Y-119725500D01*
X133425110Y-119713382D01*
X133523434Y-119689148D01*
X133657934Y-119618557D01*
X133771632Y-119517830D01*
X133857921Y-119392819D01*
X133911785Y-119250791D01*
X133930094Y-119100000D01*
X133911785Y-118949209D01*
X133857921Y-118807181D01*
X133771632Y-118682170D01*
X133657934Y-118581443D01*
X133523434Y-118510852D01*
X133523433Y-118510851D01*
X133523432Y-118510851D01*
X133375950Y-118474500D01*
X133375949Y-118474500D01*
X133224051Y-118474500D01*
X133224050Y-118474500D01*
X133076567Y-118510851D01*
X132942067Y-118581442D01*
X132941245Y-118582170D01*
X132841503Y-118670534D01*
X132828367Y-118682171D01*
X132742080Y-118807179D01*
X132742079Y-118807180D01*
X132706878Y-118899999D01*
X132688215Y-118949209D01*
X132669906Y-119100000D01*
X131885431Y-119100000D01*
X131905500Y-119025101D01*
X131905500Y-118899899D01*
X131873095Y-118778964D01*
X131810495Y-118670536D01*
X131721964Y-118582005D01*
X131613536Y-118519405D01*
X131613537Y-118519405D01*
X131573224Y-118508603D01*
X131492601Y-118487000D01*
X131367399Y-118487000D01*
X131286775Y-118508603D01*
X131246463Y-118519405D01*
X131138037Y-118582004D01*
X131138034Y-118582006D01*
X131049506Y-118670534D01*
X131049504Y-118670537D01*
X130986905Y-118778963D01*
X130986905Y-118778964D01*
X130954500Y-118899899D01*
X130267940Y-118899899D01*
X130261785Y-118849209D01*
X130207921Y-118707181D01*
X130121632Y-118582170D01*
X130007934Y-118481443D01*
X129873434Y-118410852D01*
X129873433Y-118410851D01*
X129873432Y-118410851D01*
X129725950Y-118374500D01*
X129725949Y-118374500D01*
X129574051Y-118374500D01*
X129574050Y-118374500D01*
X129426567Y-118410851D01*
X129292067Y-118481442D01*
X129292066Y-118481443D01*
X129178556Y-118582004D01*
X129178367Y-118582171D01*
X129092080Y-118707179D01*
X129092079Y-118707180D01*
X129054155Y-118807179D01*
X129038215Y-118849209D01*
X129019906Y-119000000D01*
X126850500Y-119000000D01*
X126850500Y-117999996D01*
X134469909Y-117999996D01*
X134469909Y-118000003D01*
X134488212Y-118162455D01*
X134542210Y-118316774D01*
X134578482Y-118374500D01*
X134629192Y-118455204D01*
X134744796Y-118570808D01*
X134883225Y-118657789D01*
X135037539Y-118711786D01*
X135037542Y-118711786D01*
X135037544Y-118711787D01*
X135199996Y-118730091D01*
X135200000Y-118730091D01*
X135200004Y-118730091D01*
X135362457Y-118711787D01*
X135362459Y-118711786D01*
X135362461Y-118711786D01*
X135516775Y-118657789D01*
X135516775Y-118657788D01*
X135519347Y-118656889D01*
X135589126Y-118653327D01*
X135649753Y-118688055D01*
X135681981Y-118750049D01*
X135683398Y-118788876D01*
X135674464Y-118862461D01*
X135669906Y-118900000D01*
X135688215Y-119050791D01*
X135742079Y-119192819D01*
X135828368Y-119317830D01*
X135942066Y-119418557D01*
X136076566Y-119489148D01*
X136150308Y-119507324D01*
X136224050Y-119525500D01*
X136224051Y-119525500D01*
X136375950Y-119525500D01*
X136412820Y-119516412D01*
X136523434Y-119489148D01*
X136542376Y-119479206D01*
X136610881Y-119465481D01*
X136657622Y-119479205D01*
X136676566Y-119489148D01*
X136774889Y-119513382D01*
X136824050Y-119525500D01*
X136824051Y-119525500D01*
X136975950Y-119525500D01*
X137025110Y-119513382D01*
X137123434Y-119489148D01*
X137257934Y-119418557D01*
X137317774Y-119365543D01*
X137381006Y-119335823D01*
X137450270Y-119345007D01*
X137482224Y-119365542D01*
X137542066Y-119418557D01*
X137676566Y-119489148D01*
X137750308Y-119507324D01*
X137824050Y-119525500D01*
X137824051Y-119525500D01*
X137975950Y-119525500D01*
X138025110Y-119513382D01*
X138123434Y-119489148D01*
X138257934Y-119418557D01*
X138317774Y-119365543D01*
X138381006Y-119335823D01*
X138450270Y-119345007D01*
X138482224Y-119365542D01*
X138542066Y-119418557D01*
X138676566Y-119489148D01*
X138750308Y-119507324D01*
X138824050Y-119525500D01*
X138824051Y-119525500D01*
X138975950Y-119525500D01*
X139025110Y-119513382D01*
X139123434Y-119489148D01*
X139257934Y-119418557D01*
X139317774Y-119365543D01*
X139381006Y-119335823D01*
X139450270Y-119345007D01*
X139482224Y-119365542D01*
X139542066Y-119418557D01*
X139676566Y-119489148D01*
X139750308Y-119507324D01*
X139824050Y-119525500D01*
X139824051Y-119525500D01*
X139975950Y-119525500D01*
X140025110Y-119513382D01*
X140123434Y-119489148D01*
X140257934Y-119418557D01*
X140371632Y-119317830D01*
X140457921Y-119192819D01*
X140511785Y-119050791D01*
X140530094Y-118900000D01*
X140511785Y-118749209D01*
X140457921Y-118607181D01*
X140383939Y-118500000D01*
X144569906Y-118500000D01*
X144588215Y-118650791D01*
X144642079Y-118792819D01*
X144728368Y-118917830D01*
X144842066Y-119018557D01*
X144976566Y-119089148D01*
X145020594Y-119100000D01*
X145124050Y-119125500D01*
X145124051Y-119125500D01*
X145275950Y-119125500D01*
X145325110Y-119113382D01*
X145423434Y-119089148D01*
X145557934Y-119018557D01*
X145671632Y-118917830D01*
X145757921Y-118792819D01*
X145793124Y-118699996D01*
X153119909Y-118699996D01*
X153119909Y-118700003D01*
X153138212Y-118862455D01*
X153192210Y-119016774D01*
X153237686Y-119089148D01*
X153279192Y-119155204D01*
X153394796Y-119270808D01*
X153533225Y-119357789D01*
X153687539Y-119411786D01*
X153687542Y-119411786D01*
X153687544Y-119411787D01*
X153849996Y-119430091D01*
X153850000Y-119430091D01*
X153850004Y-119430091D01*
X154012455Y-119411787D01*
X154012456Y-119411786D01*
X154012461Y-119411786D01*
X154166775Y-119357789D01*
X154305204Y-119270808D01*
X154420808Y-119155204D01*
X154507789Y-119016775D01*
X154561786Y-118862461D01*
X154563279Y-118849209D01*
X154580091Y-118700003D01*
X154580091Y-118699996D01*
X154561787Y-118537544D01*
X154561786Y-118537542D01*
X154561786Y-118537539D01*
X154507789Y-118383225D01*
X154420808Y-118244796D01*
X154305204Y-118129192D01*
X154180430Y-118050791D01*
X154166774Y-118042210D01*
X154012455Y-117988212D01*
X153850004Y-117969909D01*
X153849996Y-117969909D01*
X153687544Y-117988212D01*
X153533225Y-118042210D01*
X153394795Y-118129192D01*
X153279192Y-118244795D01*
X153192210Y-118383225D01*
X153138212Y-118537544D01*
X153119909Y-118699996D01*
X145793124Y-118699996D01*
X145811785Y-118650791D01*
X145830094Y-118500000D01*
X145811785Y-118349209D01*
X145757921Y-118207181D01*
X145671632Y-118082170D01*
X145557934Y-117981443D01*
X145423434Y-117910852D01*
X145423433Y-117910851D01*
X145423432Y-117910851D01*
X145379408Y-117900000D01*
X147069906Y-117900000D01*
X147088215Y-118050791D01*
X147142079Y-118192819D01*
X147228368Y-118317830D01*
X147342066Y-118418557D01*
X147476566Y-118489148D01*
X147520594Y-118500000D01*
X147624050Y-118525500D01*
X147624051Y-118525500D01*
X147775950Y-118525500D01*
X147835382Y-118510851D01*
X147923434Y-118489148D01*
X148057934Y-118418557D01*
X148171632Y-118317830D01*
X148257921Y-118192819D01*
X148311785Y-118050791D01*
X148330094Y-117900000D01*
X148311785Y-117749209D01*
X148257921Y-117607181D01*
X148171632Y-117482170D01*
X148057934Y-117381443D01*
X147923434Y-117310852D01*
X147923433Y-117310851D01*
X147923432Y-117310851D01*
X147775950Y-117274500D01*
X147775949Y-117274500D01*
X147624051Y-117274500D01*
X147624050Y-117274500D01*
X147476567Y-117310851D01*
X147342067Y-117381442D01*
X147228367Y-117482171D01*
X147142080Y-117607179D01*
X147142079Y-117607180D01*
X147088215Y-117749208D01*
X147083592Y-117787280D01*
X147069906Y-117900000D01*
X145379408Y-117900000D01*
X145275950Y-117874500D01*
X145275949Y-117874500D01*
X145124051Y-117874500D01*
X145124050Y-117874500D01*
X144976567Y-117910851D01*
X144842067Y-117981442D01*
X144728367Y-118082171D01*
X144642080Y-118207179D01*
X144642079Y-118207180D01*
X144598992Y-118320793D01*
X144588215Y-118349209D01*
X144569906Y-118500000D01*
X140383939Y-118500000D01*
X140371632Y-118482170D01*
X140257934Y-118381443D01*
X140123434Y-118310852D01*
X140123433Y-118310851D01*
X140123432Y-118310851D01*
X139975950Y-118274500D01*
X139975949Y-118274500D01*
X139824051Y-118274500D01*
X139824050Y-118274500D01*
X139676567Y-118310851D01*
X139542064Y-118381443D01*
X139482226Y-118434455D01*
X139418993Y-118464176D01*
X139349729Y-118454992D01*
X139317774Y-118434455D01*
X139257935Y-118381443D01*
X139123432Y-118310851D01*
X138975950Y-118274500D01*
X138975949Y-118274500D01*
X138824051Y-118274500D01*
X138824050Y-118274500D01*
X138676567Y-118310851D01*
X138542064Y-118381443D01*
X138482226Y-118434455D01*
X138418993Y-118464176D01*
X138349729Y-118454992D01*
X138317774Y-118434455D01*
X138257935Y-118381443D01*
X138123432Y-118310851D01*
X137975950Y-118274500D01*
X137975949Y-118274500D01*
X137824051Y-118274500D01*
X137824050Y-118274500D01*
X137676567Y-118310851D01*
X137542064Y-118381443D01*
X137482226Y-118434455D01*
X137418993Y-118464176D01*
X137349729Y-118454992D01*
X137317774Y-118434455D01*
X137257935Y-118381443D01*
X137123432Y-118310851D01*
X136975950Y-118274500D01*
X136975949Y-118274500D01*
X136824051Y-118274500D01*
X136824050Y-118274500D01*
X136676564Y-118310852D01*
X136676562Y-118310853D01*
X136657622Y-118320793D01*
X136589114Y-118334516D01*
X136542378Y-118320793D01*
X136523437Y-118310853D01*
X136523435Y-118310852D01*
X136375950Y-118274500D01*
X136375949Y-118274500D01*
X136224051Y-118274500D01*
X136224050Y-118274500D01*
X136076565Y-118310851D01*
X136075437Y-118311280D01*
X136074552Y-118311348D01*
X136069283Y-118312647D01*
X136069066Y-118311770D01*
X136005773Y-118316644D01*
X135944268Y-118283494D01*
X135910449Y-118222355D01*
X135910583Y-118167726D01*
X135911783Y-118162467D01*
X135911786Y-118162461D01*
X135911786Y-118162454D01*
X135911788Y-118162449D01*
X135930091Y-118000003D01*
X135930091Y-117999996D01*
X135911787Y-117837544D01*
X135911786Y-117837542D01*
X135911786Y-117837539D01*
X135857789Y-117683225D01*
X135770808Y-117544796D01*
X135655204Y-117429192D01*
X135579211Y-117381442D01*
X135516774Y-117342210D01*
X135362455Y-117288212D01*
X135200004Y-117269909D01*
X135199996Y-117269909D01*
X135037544Y-117288212D01*
X134883225Y-117342210D01*
X134744795Y-117429192D01*
X134629192Y-117544795D01*
X134542210Y-117683225D01*
X134488212Y-117837544D01*
X134469909Y-117999996D01*
X126850500Y-117999996D01*
X126850500Y-116500000D01*
X139669906Y-116500000D01*
X139688215Y-116650791D01*
X139742079Y-116792819D01*
X139828368Y-116917830D01*
X139942066Y-117018557D01*
X140076566Y-117089148D01*
X140097205Y-117094235D01*
X140224050Y-117125500D01*
X140224051Y-117125500D01*
X140375950Y-117125500D01*
X140425110Y-117113382D01*
X140523434Y-117089148D01*
X140657934Y-117018557D01*
X140771632Y-116917830D01*
X140783942Y-116899996D01*
X152219909Y-116899996D01*
X152219909Y-116900003D01*
X152238212Y-117062455D01*
X152292210Y-117216774D01*
X152292211Y-117216775D01*
X152379192Y-117355204D01*
X152494796Y-117470808D01*
X152633225Y-117557789D01*
X152787539Y-117611786D01*
X152787542Y-117611786D01*
X152787544Y-117611787D01*
X152949996Y-117630091D01*
X152950000Y-117630091D01*
X152950004Y-117630091D01*
X153112455Y-117611787D01*
X153112456Y-117611786D01*
X153112461Y-117611786D01*
X153266775Y-117557789D01*
X153405204Y-117470808D01*
X153520808Y-117355204D01*
X153607789Y-117216775D01*
X153661786Y-117062461D01*
X153666733Y-117018557D01*
X153680091Y-116900003D01*
X153680091Y-116899996D01*
X153661787Y-116737544D01*
X153661786Y-116737542D01*
X153661786Y-116737539D01*
X153607789Y-116583225D01*
X153520808Y-116444796D01*
X153405204Y-116329192D01*
X153388279Y-116318557D01*
X153266774Y-116242210D01*
X153112455Y-116188212D01*
X152950004Y-116169909D01*
X152949996Y-116169909D01*
X152787544Y-116188212D01*
X152633225Y-116242210D01*
X152494795Y-116329192D01*
X152379192Y-116444795D01*
X152292210Y-116583225D01*
X152238212Y-116737544D01*
X152219909Y-116899996D01*
X140783942Y-116899996D01*
X140857921Y-116792819D01*
X140911785Y-116650791D01*
X140930094Y-116500000D01*
X140911785Y-116349209D01*
X140857921Y-116207181D01*
X140771632Y-116082170D01*
X140657934Y-115981443D01*
X140523434Y-115910852D01*
X140523433Y-115910851D01*
X140523432Y-115910851D01*
X140375950Y-115874500D01*
X140375949Y-115874500D01*
X140224051Y-115874500D01*
X140224050Y-115874500D01*
X140076567Y-115910851D01*
X139942067Y-115981442D01*
X139828367Y-116082171D01*
X139742080Y-116207179D01*
X139742079Y-116207180D01*
X139699840Y-116318557D01*
X139688215Y-116349209D01*
X139669906Y-116500000D01*
X126850500Y-116500000D01*
X126850500Y-115199996D01*
X134769909Y-115199996D01*
X134769909Y-115200003D01*
X134788212Y-115362455D01*
X134842210Y-115516774D01*
X134923861Y-115646720D01*
X134929192Y-115655204D01*
X135044796Y-115770808D01*
X135183225Y-115857789D01*
X135337539Y-115911786D01*
X135337542Y-115911786D01*
X135337544Y-115911787D01*
X135499996Y-115930091D01*
X135500000Y-115930091D01*
X135500004Y-115930091D01*
X135662455Y-115911787D01*
X135662456Y-115911786D01*
X135662461Y-115911786D01*
X135816775Y-115857789D01*
X135955204Y-115770808D01*
X136070808Y-115655204D01*
X136157789Y-115516775D01*
X136198650Y-115400000D01*
X137169906Y-115400000D01*
X137188215Y-115550791D01*
X137242079Y-115692819D01*
X137328368Y-115817830D01*
X137442066Y-115918557D01*
X137576566Y-115989148D01*
X137650308Y-116007324D01*
X137724050Y-116025500D01*
X137724051Y-116025500D01*
X137875950Y-116025500D01*
X137925110Y-116013382D01*
X138023434Y-115989148D01*
X138157934Y-115918557D01*
X138235319Y-115850000D01*
X143569906Y-115850000D01*
X143588215Y-116000791D01*
X143642079Y-116142819D01*
X143728368Y-116267830D01*
X143842066Y-116368557D01*
X143976566Y-116439148D01*
X143999477Y-116444795D01*
X144124050Y-116475500D01*
X144124051Y-116475500D01*
X144275950Y-116475500D01*
X144325110Y-116463382D01*
X144423434Y-116439148D01*
X144557934Y-116368557D01*
X144671632Y-116267830D01*
X144757921Y-116142819D01*
X144811785Y-116000791D01*
X144830094Y-115850000D01*
X144824023Y-115800000D01*
X145469906Y-115800000D01*
X145488215Y-115950791D01*
X145542079Y-116092819D01*
X145628368Y-116217830D01*
X145742066Y-116318557D01*
X145876566Y-116389148D01*
X145950308Y-116407324D01*
X146024050Y-116425500D01*
X146024051Y-116425500D01*
X146175950Y-116425500D01*
X146247557Y-116407850D01*
X146323434Y-116389148D01*
X146457934Y-116318557D01*
X146571632Y-116217830D01*
X146583939Y-116200000D01*
X149469906Y-116200000D01*
X149488215Y-116350791D01*
X149542079Y-116492819D01*
X149628368Y-116617830D01*
X149742066Y-116718557D01*
X149876566Y-116789148D01*
X149950308Y-116807324D01*
X150024050Y-116825500D01*
X150024051Y-116825500D01*
X150175950Y-116825500D01*
X150225110Y-116813382D01*
X150323434Y-116789148D01*
X150457934Y-116718557D01*
X150571632Y-116617830D01*
X150657921Y-116492819D01*
X150711785Y-116350791D01*
X150730094Y-116200000D01*
X150711785Y-116049209D01*
X150657921Y-115907181D01*
X150571632Y-115782170D01*
X150457934Y-115681443D01*
X150323434Y-115610852D01*
X150323433Y-115610851D01*
X150323432Y-115610851D01*
X150175950Y-115574500D01*
X150175949Y-115574500D01*
X150024051Y-115574500D01*
X150024050Y-115574500D01*
X149876567Y-115610851D01*
X149742067Y-115681442D01*
X149628367Y-115782171D01*
X149542080Y-115907179D01*
X149542079Y-115907180D01*
X149497207Y-116025500D01*
X149488215Y-116049209D01*
X149469906Y-116200000D01*
X146583939Y-116200000D01*
X146657921Y-116092819D01*
X146711785Y-115950791D01*
X146730094Y-115800000D01*
X146711785Y-115649209D01*
X146657921Y-115507181D01*
X146571632Y-115382170D01*
X146457934Y-115281443D01*
X146323434Y-115210852D01*
X146323433Y-115210851D01*
X146323432Y-115210851D01*
X146175950Y-115174500D01*
X146175949Y-115174500D01*
X146024051Y-115174500D01*
X146024050Y-115174500D01*
X145876567Y-115210851D01*
X145742067Y-115281442D01*
X145628367Y-115382171D01*
X145542080Y-115507179D01*
X145542079Y-115507180D01*
X145502762Y-115610852D01*
X145488215Y-115649209D01*
X145469906Y-115800000D01*
X144824023Y-115800000D01*
X144811785Y-115699209D01*
X144757921Y-115557181D01*
X144671632Y-115432170D01*
X144557934Y-115331443D01*
X144423434Y-115260852D01*
X144423433Y-115260851D01*
X144423432Y-115260851D01*
X144275950Y-115224500D01*
X144275949Y-115224500D01*
X144124051Y-115224500D01*
X144124050Y-115224500D01*
X143976567Y-115260851D01*
X143842067Y-115331442D01*
X143728367Y-115432171D01*
X143642080Y-115557179D01*
X143642079Y-115557180D01*
X143594953Y-115681443D01*
X143588215Y-115699209D01*
X143569906Y-115850000D01*
X138235319Y-115850000D01*
X138271632Y-115817830D01*
X138357921Y-115692819D01*
X138411785Y-115550791D01*
X138430094Y-115400000D01*
X138411785Y-115249209D01*
X138357921Y-115107181D01*
X138271632Y-114982170D01*
X138157934Y-114881443D01*
X138023434Y-114810852D01*
X138023433Y-114810851D01*
X138023432Y-114810851D01*
X137875950Y-114774500D01*
X137875949Y-114774500D01*
X137724051Y-114774500D01*
X137724050Y-114774500D01*
X137576567Y-114810851D01*
X137442067Y-114881442D01*
X137328367Y-114982171D01*
X137242080Y-115107179D01*
X137242079Y-115107180D01*
X137197207Y-115225500D01*
X137188215Y-115249209D01*
X137169906Y-115400000D01*
X136198650Y-115400000D01*
X136211786Y-115362461D01*
X136223235Y-115260851D01*
X136230091Y-115200003D01*
X136230091Y-115199996D01*
X136211787Y-115037544D01*
X136211786Y-115037542D01*
X136211786Y-115037539D01*
X136157789Y-114883225D01*
X136070808Y-114744796D01*
X135955204Y-114629192D01*
X135950458Y-114626210D01*
X135816774Y-114542210D01*
X135662455Y-114488212D01*
X135500004Y-114469909D01*
X135499996Y-114469909D01*
X135337544Y-114488212D01*
X135183225Y-114542210D01*
X135044795Y-114629192D01*
X134929192Y-114744795D01*
X134842210Y-114883225D01*
X134788212Y-115037544D01*
X134769909Y-115199996D01*
X126850500Y-115199996D01*
X126850500Y-112372285D01*
X126870185Y-112305246D01*
X126922989Y-112259491D01*
X126992147Y-112249547D01*
X127036497Y-112264896D01*
X127118216Y-112312077D01*
X127270943Y-112353000D01*
X127270945Y-112353000D01*
X128229055Y-112353000D01*
X128229057Y-112353000D01*
X128381784Y-112312077D01*
X128518716Y-112233020D01*
X128630520Y-112121216D01*
X128709577Y-111984284D01*
X128750500Y-111831557D01*
X128750500Y-111770710D01*
X129019907Y-111770710D01*
X129038216Y-111921501D01*
X129092080Y-112063529D01*
X129178369Y-112188540D01*
X129292067Y-112289267D01*
X129426567Y-112359858D01*
X129476985Y-112372285D01*
X129574051Y-112396210D01*
X129703520Y-112396210D01*
X129770559Y-112415895D01*
X129816314Y-112468699D01*
X129826616Y-112505264D01*
X129827295Y-112510852D01*
X129838215Y-112600791D01*
X129892079Y-112742819D01*
X129978368Y-112867830D01*
X130092066Y-112968557D01*
X130226566Y-113039148D01*
X130300308Y-113057324D01*
X130374050Y-113075500D01*
X130374051Y-113075500D01*
X130525950Y-113075500D01*
X130673430Y-113039149D01*
X130673430Y-113039148D01*
X130673434Y-113039148D01*
X130775003Y-112985840D01*
X130843509Y-112972116D01*
X130908562Y-112997609D01*
X130949506Y-113054224D01*
X130952652Y-113111459D01*
X130955561Y-113111842D01*
X130954500Y-113119898D01*
X130954500Y-113119899D01*
X130954500Y-113245101D01*
X130986905Y-113366036D01*
X131049505Y-113474464D01*
X131138036Y-113562995D01*
X131246464Y-113625595D01*
X131367399Y-113658000D01*
X131367401Y-113658000D01*
X131492599Y-113658000D01*
X131492601Y-113658000D01*
X131613536Y-113625595D01*
X131721964Y-113562995D01*
X131810495Y-113474464D01*
X131873095Y-113366036D01*
X131905500Y-113245101D01*
X131905500Y-113149996D01*
X132662803Y-113149996D01*
X132662803Y-113150003D01*
X132681106Y-113312455D01*
X132735104Y-113466774D01*
X132776197Y-113532173D01*
X132822086Y-113605204D01*
X132937690Y-113720808D01*
X133076119Y-113807789D01*
X133230433Y-113861786D01*
X133230436Y-113861786D01*
X133230438Y-113861787D01*
X133392890Y-113880091D01*
X133392894Y-113880091D01*
X133392898Y-113880091D01*
X133555349Y-113861787D01*
X133555350Y-113861786D01*
X133555355Y-113861786D01*
X133709669Y-113807789D01*
X133848098Y-113720808D01*
X133963702Y-113605204D01*
X134050683Y-113466775D01*
X134104680Y-113312461D01*
X134107473Y-113287673D01*
X134122985Y-113150003D01*
X134122985Y-113149996D01*
X134104681Y-112987544D01*
X134104680Y-112987542D01*
X134104680Y-112987539D01*
X134074047Y-112899996D01*
X134569909Y-112899996D01*
X134569909Y-112900003D01*
X134588212Y-113062455D01*
X134642210Y-113216774D01*
X134667021Y-113256260D01*
X134729192Y-113355204D01*
X134844796Y-113470808D01*
X134983225Y-113557789D01*
X135118714Y-113605198D01*
X135175489Y-113645920D01*
X135194800Y-113681284D01*
X135242211Y-113816775D01*
X135329192Y-113955204D01*
X135444796Y-114070808D01*
X135583225Y-114157789D01*
X135737539Y-114211786D01*
X135737542Y-114211786D01*
X135737544Y-114211787D01*
X135899996Y-114230091D01*
X135900000Y-114230091D01*
X135900004Y-114230091D01*
X136062455Y-114211787D01*
X136062456Y-114211786D01*
X136062461Y-114211786D01*
X136216775Y-114157789D01*
X136355204Y-114070808D01*
X136470808Y-113955204D01*
X136557789Y-113816775D01*
X136581155Y-113750000D01*
X146777921Y-113750000D01*
X146796230Y-113900791D01*
X146850094Y-114042819D01*
X146936383Y-114167830D01*
X147050081Y-114268557D01*
X147184581Y-114339148D01*
X147218702Y-114347558D01*
X147332065Y-114375500D01*
X147332066Y-114375500D01*
X147483965Y-114375500D01*
X147533125Y-114363382D01*
X147631449Y-114339148D01*
X147765949Y-114268557D01*
X147879647Y-114167830D01*
X147951575Y-114063624D01*
X148005855Y-114019636D01*
X148023945Y-114013669D01*
X148123434Y-113989148D01*
X148257934Y-113918557D01*
X148371632Y-113817830D01*
X148430309Y-113732822D01*
X149591787Y-113732822D01*
X149610096Y-113883613D01*
X149663960Y-114025641D01*
X149663963Y-114025647D01*
X149691495Y-114065534D01*
X149713378Y-114131888D01*
X149705387Y-114179943D01*
X149667872Y-114278862D01*
X149667872Y-114278864D01*
X149660104Y-114342839D01*
X149649563Y-114429657D01*
X149667872Y-114580448D01*
X149721736Y-114722476D01*
X149808025Y-114847487D01*
X149921723Y-114948214D01*
X150056223Y-115018805D01*
X150129965Y-115036981D01*
X150203707Y-115055157D01*
X150203708Y-115055157D01*
X150355607Y-115055157D01*
X150427064Y-115037544D01*
X150503091Y-115018805D01*
X150637591Y-114948214D01*
X150751289Y-114847487D01*
X150837578Y-114722476D01*
X150874087Y-114626207D01*
X150916263Y-114570507D01*
X150981860Y-114546449D01*
X151019700Y-114549782D01*
X151124051Y-114575503D01*
X151124052Y-114575503D01*
X151275948Y-114575503D01*
X151275949Y-114575503D01*
X151422577Y-114539362D01*
X151492377Y-114542431D01*
X151549440Y-114582750D01*
X151575347Y-114644813D01*
X151588214Y-114750791D01*
X151610993Y-114810852D01*
X151642079Y-114892819D01*
X151728368Y-115017830D01*
X151842066Y-115118557D01*
X151976566Y-115189148D01*
X152031605Y-115202714D01*
X152124050Y-115225500D01*
X152124051Y-115225500D01*
X152275950Y-115225500D01*
X152335382Y-115210851D01*
X152423434Y-115189148D01*
X152557934Y-115118557D01*
X152671632Y-115017830D01*
X152757921Y-114892819D01*
X152811785Y-114750791D01*
X152830094Y-114600000D01*
X152811785Y-114449209D01*
X152796362Y-114408544D01*
X152790994Y-114338883D01*
X152810251Y-114294136D01*
X152871094Y-114205992D01*
X152924958Y-114063964D01*
X152943267Y-113913173D01*
X152924958Y-113762382D01*
X152871094Y-113620354D01*
X152784805Y-113495343D01*
X152671107Y-113394616D01*
X152536607Y-113324025D01*
X152536606Y-113324024D01*
X152536605Y-113324024D01*
X152389123Y-113287673D01*
X152389122Y-113287673D01*
X152237224Y-113287673D01*
X152237223Y-113287673D01*
X152089740Y-113324024D01*
X151955240Y-113394615D01*
X151841537Y-113495346D01*
X151840791Y-113496428D01*
X151840041Y-113497035D01*
X151836567Y-113500957D01*
X151835914Y-113500378D01*
X151786502Y-113540410D01*
X151717052Y-113548060D01*
X151656524Y-113518789D01*
X151636396Y-113500957D01*
X151557934Y-113431446D01*
X151423434Y-113360855D01*
X151423433Y-113360854D01*
X151423432Y-113360854D01*
X151394150Y-113353637D01*
X151333770Y-113318480D01*
X151301982Y-113256260D01*
X151300730Y-113218298D01*
X151302952Y-113200000D01*
X153369906Y-113200000D01*
X153388215Y-113350791D01*
X153442079Y-113492819D01*
X153528368Y-113617830D01*
X153642066Y-113718557D01*
X153776566Y-113789148D01*
X153850308Y-113807324D01*
X153924050Y-113825500D01*
X153924051Y-113825500D01*
X154075950Y-113825500D01*
X154125110Y-113813382D01*
X154223434Y-113789148D01*
X154357934Y-113718557D01*
X154471632Y-113617830D01*
X154557921Y-113492819D01*
X154611785Y-113350791D01*
X154630094Y-113200000D01*
X154611785Y-113049209D01*
X154557921Y-112907181D01*
X154471632Y-112782170D01*
X154357934Y-112681443D01*
X154223434Y-112610852D01*
X154223433Y-112610851D01*
X154223432Y-112610851D01*
X154075950Y-112574500D01*
X154075949Y-112574500D01*
X153924051Y-112574500D01*
X153924049Y-112574500D01*
X153871487Y-112587455D01*
X153801685Y-112584386D01*
X153773333Y-112564352D01*
X153768610Y-112589356D01*
X153720580Y-112640100D01*
X153715812Y-112642737D01*
X153642068Y-112681440D01*
X153528367Y-112782171D01*
X153442080Y-112907179D01*
X153442079Y-112907180D01*
X153389889Y-113044796D01*
X153388215Y-113049209D01*
X153369906Y-113200000D01*
X151302952Y-113200000D01*
X151315094Y-113100000D01*
X151296785Y-112949209D01*
X151242921Y-112807181D01*
X151156632Y-112682170D01*
X151042934Y-112581443D01*
X150908434Y-112510852D01*
X150908433Y-112510851D01*
X150908432Y-112510851D01*
X150760950Y-112474500D01*
X150760949Y-112474500D01*
X150609051Y-112474500D01*
X150609050Y-112474500D01*
X150461567Y-112510851D01*
X150327067Y-112581442D01*
X150213367Y-112682171D01*
X150127080Y-112807179D01*
X150127079Y-112807180D01*
X150073215Y-112949207D01*
X150060929Y-113050393D01*
X150033307Y-113114571D01*
X149995458Y-113145242D01*
X149986394Y-113150000D01*
X149863948Y-113214264D01*
X149750248Y-113314993D01*
X149663961Y-113440001D01*
X149663960Y-113440002D01*
X149610096Y-113582030D01*
X149591787Y-113732822D01*
X148430309Y-113732822D01*
X148457921Y-113692819D01*
X148511785Y-113550791D01*
X148530094Y-113400000D01*
X148511785Y-113249209D01*
X148457921Y-113107181D01*
X148371632Y-112982170D01*
X148257934Y-112881443D01*
X148123434Y-112810852D01*
X148123433Y-112810851D01*
X148123432Y-112810851D01*
X147975950Y-112774500D01*
X147975949Y-112774500D01*
X147824051Y-112774500D01*
X147824050Y-112774500D01*
X147676567Y-112810851D01*
X147542067Y-112881442D01*
X147465574Y-112949209D01*
X147428368Y-112982170D01*
X147425834Y-112985841D01*
X147356441Y-113086374D01*
X147302158Y-113130364D01*
X147284067Y-113136330D01*
X147184582Y-113160851D01*
X147050082Y-113231442D01*
X146936382Y-113332171D01*
X146850095Y-113457179D01*
X146850094Y-113457180D01*
X146796230Y-113599208D01*
X146793026Y-113625594D01*
X146777921Y-113750000D01*
X136581155Y-113750000D01*
X136611786Y-113662461D01*
X136613650Y-113645920D01*
X136630091Y-113500003D01*
X136630091Y-113499996D01*
X136611787Y-113337544D01*
X136611786Y-113337542D01*
X136611786Y-113337539D01*
X136557789Y-113183225D01*
X136470808Y-113044796D01*
X136355204Y-112929192D01*
X136216775Y-112842211D01*
X136081284Y-112794800D01*
X136024509Y-112754079D01*
X136005198Y-112718713D01*
X136001099Y-112707000D01*
X135957789Y-112583225D01*
X135870808Y-112444796D01*
X135755204Y-112329192D01*
X135717094Y-112305246D01*
X135616774Y-112242210D01*
X135465130Y-112189148D01*
X135462461Y-112188214D01*
X135462460Y-112188213D01*
X135462455Y-112188212D01*
X135300004Y-112169909D01*
X135299996Y-112169909D01*
X135137544Y-112188212D01*
X134983225Y-112242210D01*
X134844795Y-112329192D01*
X134729192Y-112444795D01*
X134642210Y-112583225D01*
X134588212Y-112737544D01*
X134569909Y-112899996D01*
X134074047Y-112899996D01*
X134050683Y-112833225D01*
X133963702Y-112694796D01*
X133848098Y-112579192D01*
X133739336Y-112510852D01*
X133709668Y-112492210D01*
X133555349Y-112438212D01*
X133392898Y-112419909D01*
X133392890Y-112419909D01*
X133230438Y-112438212D01*
X133076119Y-112492210D01*
X132937689Y-112579192D01*
X132822086Y-112694795D01*
X132735104Y-112833225D01*
X132681106Y-112987544D01*
X132662803Y-113149996D01*
X131905500Y-113149996D01*
X131905500Y-113119899D01*
X131873095Y-112998964D01*
X131810495Y-112890536D01*
X131721964Y-112802005D01*
X131613536Y-112739405D01*
X131613537Y-112739405D01*
X131573224Y-112728603D01*
X131492601Y-112707000D01*
X131367399Y-112707000D01*
X131306931Y-112723202D01*
X131246462Y-112739405D01*
X131246461Y-112739406D01*
X131243351Y-112741202D01*
X131240396Y-112741918D01*
X131238954Y-112742516D01*
X131238860Y-112742291D01*
X131175450Y-112757670D01*
X131109424Y-112734814D01*
X131066237Y-112679890D01*
X131059599Y-112610337D01*
X131060961Y-112604131D01*
X131061780Y-112600802D01*
X131061785Y-112600791D01*
X131080094Y-112450000D01*
X131080093Y-112449999D01*
X131080998Y-112442554D01*
X131083773Y-112442891D01*
X131099779Y-112388384D01*
X131152583Y-112342629D01*
X131221741Y-112332685D01*
X131236172Y-112335644D01*
X131300943Y-112353000D01*
X131300946Y-112353000D01*
X132559055Y-112353000D01*
X132559057Y-112353000D01*
X132711784Y-112312077D01*
X132848716Y-112233020D01*
X132960520Y-112121216D01*
X133039577Y-111984284D01*
X133039577Y-111984280D01*
X133043424Y-111977619D01*
X133093991Y-111929403D01*
X133162598Y-111916179D01*
X133216783Y-111934623D01*
X133333225Y-112007789D01*
X133487539Y-112061786D01*
X133487542Y-112061786D01*
X133487544Y-112061787D01*
X133649996Y-112080091D01*
X133650000Y-112080091D01*
X133650004Y-112080091D01*
X133812455Y-112061787D01*
X133812456Y-112061786D01*
X133812461Y-112061786D01*
X133966775Y-112007789D01*
X134105204Y-111920808D01*
X134220808Y-111805204D01*
X134307789Y-111666775D01*
X134361786Y-111512461D01*
X134362381Y-111507180D01*
X134380091Y-111350003D01*
X134380091Y-111349996D01*
X134376093Y-111314511D01*
X135805394Y-111314511D01*
X135805394Y-111314518D01*
X135823697Y-111476970D01*
X135823698Y-111476975D01*
X135823699Y-111476976D01*
X135824019Y-111477890D01*
X135877695Y-111631289D01*
X135947474Y-111742341D01*
X135964677Y-111769719D01*
X136080281Y-111885323D01*
X136218710Y-111972304D01*
X136373024Y-112026301D01*
X136373027Y-112026301D01*
X136373029Y-112026302D01*
X136535481Y-112044606D01*
X136535485Y-112044606D01*
X136535489Y-112044606D01*
X136697940Y-112026302D01*
X136697941Y-112026301D01*
X136697946Y-112026301D01*
X136852260Y-111972304D01*
X136990689Y-111885323D01*
X137106293Y-111769719D01*
X137193274Y-111631290D01*
X137247271Y-111476976D01*
X137250026Y-111452526D01*
X137265576Y-111314518D01*
X137265576Y-111314511D01*
X137252673Y-111199996D01*
X141369909Y-111199996D01*
X141369909Y-111200003D01*
X141388212Y-111362455D01*
X141388213Y-111362460D01*
X141388214Y-111362461D01*
X141395111Y-111382170D01*
X141442210Y-111516774D01*
X141484583Y-111584210D01*
X141529192Y-111655204D01*
X141644796Y-111770808D01*
X141783225Y-111857789D01*
X141937539Y-111911786D01*
X141937542Y-111911786D01*
X141937544Y-111911787D01*
X142099996Y-111930091D01*
X142100000Y-111930091D01*
X142100004Y-111930091D01*
X142262455Y-111911787D01*
X142262456Y-111911786D01*
X142262461Y-111911786D01*
X142416775Y-111857789D01*
X142555204Y-111770808D01*
X142670808Y-111655204D01*
X142705495Y-111600000D01*
X145927921Y-111600000D01*
X145946230Y-111750791D01*
X146000094Y-111892819D01*
X146086383Y-112017830D01*
X146200081Y-112118557D01*
X146334581Y-112189148D01*
X146408323Y-112207324D01*
X146482065Y-112225500D01*
X146482066Y-112225500D01*
X146633965Y-112225500D01*
X146683125Y-112213382D01*
X146781449Y-112189148D01*
X146915949Y-112118557D01*
X147029647Y-112017830D01*
X147115936Y-111892819D01*
X147169800Y-111750791D01*
X147170826Y-111742341D01*
X147198447Y-111678163D01*
X147256381Y-111639106D01*
X147326234Y-111637571D01*
X147385828Y-111674045D01*
X147395972Y-111686847D01*
X147400093Y-111692818D01*
X147400094Y-111692819D01*
X147486383Y-111817830D01*
X147600081Y-111918557D01*
X147734581Y-111989148D01*
X147808323Y-112007324D01*
X147882065Y-112025500D01*
X147882066Y-112025500D01*
X148033965Y-112025500D01*
X148083125Y-112013382D01*
X148181449Y-111989148D01*
X148315949Y-111918557D01*
X148429647Y-111817830D01*
X148515936Y-111692819D01*
X148569800Y-111550791D01*
X148588109Y-111400000D01*
X148569800Y-111249209D01*
X148515936Y-111107181D01*
X148429647Y-110982170D01*
X148403166Y-110958710D01*
X149269906Y-110958710D01*
X149288215Y-111109501D01*
X149342079Y-111251529D01*
X149428368Y-111376540D01*
X149542066Y-111477267D01*
X149676566Y-111547858D01*
X149688466Y-111550791D01*
X149824050Y-111584210D01*
X149824051Y-111584210D01*
X149975950Y-111584210D01*
X150025110Y-111572092D01*
X150123434Y-111547858D01*
X150257934Y-111477267D01*
X150257941Y-111477260D01*
X150262071Y-111474411D01*
X150328425Y-111452526D01*
X150390138Y-111466661D01*
X150461566Y-111504150D01*
X150528748Y-111520709D01*
X150609050Y-111540502D01*
X150609051Y-111540502D01*
X150760950Y-111540502D01*
X150841223Y-111520716D01*
X150908434Y-111504150D01*
X151042934Y-111433559D01*
X151156632Y-111332832D01*
X151178531Y-111301105D01*
X151232811Y-111257116D01*
X151302260Y-111249456D01*
X151310255Y-111251149D01*
X151409050Y-111275500D01*
X151409051Y-111275500D01*
X151560951Y-111275500D01*
X151560951Y-111275499D01*
X151625043Y-111259702D01*
X151694846Y-111262770D01*
X151751908Y-111303089D01*
X151777816Y-111365151D01*
X151788215Y-111450792D01*
X151826140Y-111550791D01*
X151842079Y-111592819D01*
X151928368Y-111717830D01*
X152042066Y-111818557D01*
X152176566Y-111889148D01*
X152250308Y-111907324D01*
X152324050Y-111925500D01*
X152324051Y-111925500D01*
X152475950Y-111925500D01*
X152549691Y-111907324D01*
X152623434Y-111889148D01*
X152706248Y-111845683D01*
X152774755Y-111831958D01*
X152839809Y-111857450D01*
X152880753Y-111914066D01*
X152886969Y-111940530D01*
X152888215Y-111950792D01*
X152898389Y-111977619D01*
X152942079Y-112092819D01*
X153028368Y-112217830D01*
X153142066Y-112318557D01*
X153276566Y-112389148D01*
X153350308Y-112407324D01*
X153424050Y-112425500D01*
X153424051Y-112425500D01*
X153575951Y-112425500D01*
X153575951Y-112425499D01*
X153628509Y-112412545D01*
X153698312Y-112415613D01*
X153726665Y-112435647D01*
X153731391Y-112410641D01*
X153779421Y-112359898D01*
X153784157Y-112357277D01*
X153857934Y-112318557D01*
X153971632Y-112217830D01*
X154057921Y-112092819D01*
X154111785Y-111950791D01*
X154130094Y-111800000D01*
X154111785Y-111649209D01*
X154057921Y-111507181D01*
X154057919Y-111507178D01*
X154054434Y-111500537D01*
X154056502Y-111499451D01*
X154038199Y-111443972D01*
X154055655Y-111376318D01*
X154069319Y-111357640D01*
X154071624Y-111355036D01*
X154071632Y-111355030D01*
X154157921Y-111230019D01*
X154211785Y-111087991D01*
X154230094Y-110937200D01*
X154230093Y-110937199D01*
X154230998Y-110929754D01*
X154232657Y-110929955D01*
X154249779Y-110871648D01*
X154252045Y-110868246D01*
X154258213Y-110859310D01*
X154267810Y-110845407D01*
X154321674Y-110703379D01*
X154339983Y-110552588D01*
X154339982Y-110552587D01*
X154340887Y-110545142D01*
X154342928Y-110545389D01*
X154359668Y-110488383D01*
X154406357Y-110445626D01*
X154457934Y-110418557D01*
X154571632Y-110317830D01*
X154657921Y-110192819D01*
X154711785Y-110050791D01*
X154730094Y-109900000D01*
X154711785Y-109749209D01*
X154657921Y-109607181D01*
X154571632Y-109482170D01*
X154457934Y-109381443D01*
X154323434Y-109310852D01*
X154317931Y-109309495D01*
X154257553Y-109274339D01*
X154225765Y-109212119D01*
X154224514Y-109204046D01*
X154221858Y-109182170D01*
X154211785Y-109099209D01*
X154157921Y-108957181D01*
X154071632Y-108832170D01*
X153957934Y-108731443D01*
X153823434Y-108660852D01*
X153823433Y-108660851D01*
X153823432Y-108660851D01*
X153675950Y-108624500D01*
X153675949Y-108624500D01*
X153524051Y-108624500D01*
X153524050Y-108624500D01*
X153376567Y-108660851D01*
X153242067Y-108731442D01*
X153128367Y-108832171D01*
X153042080Y-108957179D01*
X153042079Y-108957180D01*
X152988215Y-109099208D01*
X152972035Y-109232467D01*
X152969906Y-109250000D01*
X152988215Y-109400791D01*
X153042079Y-109542819D01*
X153128368Y-109667830D01*
X153242066Y-109768557D01*
X153341346Y-109820663D01*
X153391557Y-109869245D01*
X153407532Y-109937264D01*
X153384198Y-110003122D01*
X153354174Y-110032498D01*
X153351962Y-110034025D01*
X153351955Y-110034030D01*
X153351955Y-110034031D01*
X153321680Y-110060852D01*
X153238256Y-110134759D01*
X153151969Y-110259767D01*
X153151968Y-110259768D01*
X153098104Y-110401796D01*
X153078891Y-110560033D01*
X153077230Y-110559831D01*
X153060110Y-110618138D01*
X153057846Y-110621538D01*
X153046336Y-110638214D01*
X153042079Y-110644381D01*
X153025829Y-110687229D01*
X152995414Y-110767426D01*
X152953236Y-110823128D01*
X152887638Y-110847185D01*
X152819448Y-110831958D01*
X152797245Y-110816269D01*
X152757935Y-110781443D01*
X152623432Y-110710851D01*
X152475950Y-110674500D01*
X152475949Y-110674500D01*
X152324051Y-110674500D01*
X152324050Y-110674500D01*
X152259954Y-110690298D01*
X152190151Y-110687229D01*
X152133089Y-110646909D01*
X152107183Y-110584847D01*
X152107102Y-110584182D01*
X152096785Y-110499209D01*
X152042921Y-110357181D01*
X151956632Y-110232170D01*
X151842934Y-110131443D01*
X151708434Y-110060852D01*
X151708433Y-110060851D01*
X151708430Y-110060850D01*
X151694428Y-110057399D01*
X151634048Y-110022242D01*
X151602261Y-109960022D01*
X151609159Y-109890493D01*
X151641879Y-109844188D01*
X151671632Y-109817830D01*
X151757921Y-109692819D01*
X151803597Y-109572378D01*
X151839080Y-109525517D01*
X151837320Y-109523530D01*
X151842932Y-109518557D01*
X151842934Y-109518557D01*
X151956632Y-109417830D01*
X152042921Y-109292819D01*
X152096785Y-109150791D01*
X152115094Y-109000000D01*
X152096785Y-108849209D01*
X152042921Y-108707181D01*
X151956632Y-108582170D01*
X151842934Y-108481443D01*
X151726242Y-108420198D01*
X151676031Y-108371615D01*
X151660056Y-108303596D01*
X151667924Y-108266440D01*
X151711785Y-108150791D01*
X151730094Y-108000000D01*
X151711785Y-107849209D01*
X151657921Y-107707181D01*
X151638940Y-107679682D01*
X151617057Y-107613327D01*
X151634523Y-107545676D01*
X151685790Y-107498206D01*
X151711312Y-107488846D01*
X151794155Y-107468427D01*
X151829265Y-107450000D01*
X153419906Y-107450000D01*
X153438215Y-107600791D01*
X153492079Y-107742819D01*
X153578368Y-107867830D01*
X153692066Y-107968557D01*
X153826566Y-108039148D01*
X153900308Y-108057324D01*
X153974050Y-108075500D01*
X153974051Y-108075500D01*
X154125950Y-108075500D01*
X154175110Y-108063382D01*
X154273434Y-108039148D01*
X154407934Y-107968557D01*
X154521632Y-107867830D01*
X154607921Y-107742819D01*
X154661785Y-107600791D01*
X154680094Y-107450000D01*
X154661785Y-107299209D01*
X154607921Y-107157181D01*
X154521632Y-107032170D01*
X154407934Y-106931443D01*
X154273434Y-106860852D01*
X154273433Y-106860851D01*
X154273432Y-106860851D01*
X154125950Y-106824500D01*
X154125949Y-106824500D01*
X153974051Y-106824500D01*
X153974050Y-106824500D01*
X153826567Y-106860851D01*
X153692067Y-106931442D01*
X153692066Y-106931443D01*
X153580739Y-107030070D01*
X153578367Y-107032171D01*
X153492080Y-107157179D01*
X153492079Y-107157180D01*
X153438215Y-107299208D01*
X153434395Y-107330668D01*
X153419906Y-107450000D01*
X151829265Y-107450000D01*
X151928655Y-107397836D01*
X152042353Y-107297109D01*
X152128642Y-107172098D01*
X152182506Y-107030070D01*
X152200815Y-106879279D01*
X152182506Y-106728488D01*
X152128642Y-106586460D01*
X152042353Y-106461449D01*
X151928655Y-106360722D01*
X151794155Y-106290131D01*
X151794154Y-106290130D01*
X151794153Y-106290130D01*
X151646671Y-106253779D01*
X151646670Y-106253779D01*
X151494772Y-106253779D01*
X151494771Y-106253779D01*
X151347288Y-106290130D01*
X151212788Y-106360721D01*
X151099088Y-106461450D01*
X151012801Y-106586458D01*
X151012800Y-106586459D01*
X150958936Y-106728487D01*
X150940627Y-106879279D01*
X150958936Y-107030070D01*
X151012800Y-107172098D01*
X151031781Y-107199597D01*
X151053663Y-107265952D01*
X151036197Y-107333603D01*
X150984929Y-107381072D01*
X150959406Y-107390432D01*
X150876572Y-107410849D01*
X150876569Y-107410850D01*
X150742067Y-107481442D01*
X150724275Y-107497204D01*
X150669562Y-107545676D01*
X150628367Y-107582171D01*
X150542080Y-107707179D01*
X150542079Y-107707180D01*
X150488215Y-107849208D01*
X150469906Y-108000000D01*
X150488215Y-108150791D01*
X150542079Y-108292819D01*
X150542082Y-108292825D01*
X150567439Y-108329561D01*
X150589322Y-108395915D01*
X150571856Y-108463567D01*
X150567439Y-108470440D01*
X150562737Y-108477252D01*
X150508454Y-108521242D01*
X150439005Y-108528902D01*
X150378460Y-108499627D01*
X150357935Y-108481443D01*
X150223432Y-108410851D01*
X150075950Y-108374500D01*
X150075949Y-108374500D01*
X149924051Y-108374500D01*
X149924050Y-108374500D01*
X149776567Y-108410851D01*
X149642067Y-108481442D01*
X149528367Y-108582171D01*
X149442080Y-108707179D01*
X149442079Y-108707180D01*
X149394677Y-108832171D01*
X149388215Y-108849209D01*
X149369906Y-109000000D01*
X149388215Y-109150791D01*
X149442079Y-109292819D01*
X149528368Y-109417830D01*
X149642066Y-109518557D01*
X149776566Y-109589148D01*
X149820594Y-109600000D01*
X149924050Y-109625500D01*
X149924051Y-109625500D01*
X150075950Y-109625500D01*
X150149817Y-109607293D01*
X150223434Y-109589148D01*
X150357934Y-109518557D01*
X150386888Y-109492906D01*
X150450116Y-109463186D01*
X150519380Y-109472368D01*
X150572684Y-109517539D01*
X150584351Y-109544234D01*
X150585555Y-109543778D01*
X150602762Y-109589148D01*
X150642079Y-109692819D01*
X150728368Y-109817830D01*
X150842066Y-109918557D01*
X150976566Y-109989148D01*
X150989437Y-109992320D01*
X150990567Y-109992599D01*
X151050948Y-110027754D01*
X151082737Y-110089973D01*
X151075842Y-110159502D01*
X151043121Y-110205811D01*
X151013367Y-110232170D01*
X150991466Y-110263898D01*
X150937181Y-110307887D01*
X150867732Y-110315544D01*
X150859743Y-110313852D01*
X150760950Y-110289502D01*
X150760949Y-110289502D01*
X150609051Y-110289502D01*
X150609050Y-110289502D01*
X150461567Y-110325853D01*
X150327063Y-110396446D01*
X150322917Y-110399308D01*
X150256560Y-110421185D01*
X150194860Y-110407049D01*
X150123432Y-110369561D01*
X149975950Y-110333210D01*
X149975949Y-110333210D01*
X149824051Y-110333210D01*
X149824050Y-110333210D01*
X149676567Y-110369561D01*
X149542067Y-110440152D01*
X149428367Y-110540881D01*
X149342080Y-110665889D01*
X149342079Y-110665890D01*
X149288215Y-110807918D01*
X149283663Y-110845407D01*
X149269906Y-110958710D01*
X148403166Y-110958710D01*
X148315949Y-110881443D01*
X148181449Y-110810852D01*
X148181448Y-110810851D01*
X148181447Y-110810851D01*
X148033965Y-110774500D01*
X148033964Y-110774500D01*
X147924726Y-110774500D01*
X147857687Y-110754815D01*
X147811932Y-110702011D01*
X147801988Y-110632853D01*
X147822676Y-110580060D01*
X147891383Y-110480521D01*
X147945247Y-110338493D01*
X147963556Y-110187702D01*
X147945247Y-110036911D01*
X147945246Y-110036908D01*
X147945077Y-110035516D01*
X147956537Y-109966592D01*
X148003441Y-109914806D01*
X148038495Y-109900173D01*
X148131449Y-109877262D01*
X148265949Y-109806671D01*
X148379647Y-109705944D01*
X148465936Y-109580933D01*
X148519800Y-109438905D01*
X148538109Y-109288114D01*
X148519800Y-109137323D01*
X148465936Y-108995295D01*
X148379647Y-108870284D01*
X148265949Y-108769557D01*
X148131449Y-108698966D01*
X148131448Y-108698965D01*
X148131447Y-108698965D01*
X147983965Y-108662614D01*
X147983964Y-108662614D01*
X147832066Y-108662614D01*
X147832065Y-108662614D01*
X147684582Y-108698965D01*
X147550082Y-108769556D01*
X147436377Y-108870289D01*
X147435504Y-108871275D01*
X147434685Y-108871788D01*
X147430769Y-108875258D01*
X147430191Y-108874606D01*
X147376310Y-108908395D01*
X147306445Y-108907619D01*
X147248090Y-108869195D01*
X147240653Y-108859485D01*
X147200249Y-108800949D01*
X147179204Y-108745456D01*
X147169801Y-108668009D01*
X147149372Y-108614145D01*
X147115937Y-108525982D01*
X147029648Y-108400971D01*
X146915950Y-108300244D01*
X146781450Y-108229653D01*
X146781449Y-108229652D01*
X146781448Y-108229652D01*
X146633966Y-108193301D01*
X146633965Y-108193301D01*
X146482067Y-108193301D01*
X146482066Y-108193301D01*
X146334583Y-108229652D01*
X146200083Y-108300243D01*
X146086383Y-108400972D01*
X146000096Y-108525980D01*
X146000095Y-108525981D01*
X145946231Y-108668009D01*
X145927922Y-108818801D01*
X145946231Y-108969592D01*
X146000095Y-109111620D01*
X146000096Y-109111621D01*
X146066147Y-109207313D01*
X146087193Y-109262805D01*
X146096598Y-109340257D01*
X146137918Y-109449208D01*
X146150462Y-109482284D01*
X146236751Y-109607295D01*
X146350449Y-109708022D01*
X146484949Y-109778613D01*
X146632434Y-109814965D01*
X146639878Y-109815869D01*
X146639513Y-109818872D01*
X146693244Y-109834650D01*
X146738999Y-109887454D01*
X146748943Y-109956612D01*
X146742147Y-109982937D01*
X146721676Y-110036911D01*
X146706792Y-110159502D01*
X146703368Y-110187702D01*
X146721677Y-110338493D01*
X146775541Y-110480521D01*
X146861830Y-110605532D01*
X146975528Y-110706259D01*
X147110028Y-110776850D01*
X147183770Y-110795026D01*
X147257512Y-110813202D01*
X147366751Y-110813202D01*
X147433790Y-110832887D01*
X147479545Y-110885691D01*
X147489489Y-110954849D01*
X147468801Y-111007642D01*
X147400095Y-111107179D01*
X147400094Y-111107180D01*
X147346229Y-111249208D01*
X147346229Y-111249211D01*
X147345202Y-111257666D01*
X147317576Y-111321842D01*
X147259640Y-111360895D01*
X147189787Y-111362426D01*
X147130195Y-111325948D01*
X147120057Y-111313152D01*
X147115934Y-111307179D01*
X147029647Y-111182170D01*
X146915949Y-111081443D01*
X146781449Y-111010852D01*
X146781448Y-111010851D01*
X146781447Y-111010851D01*
X146633965Y-110974500D01*
X146633964Y-110974500D01*
X146482066Y-110974500D01*
X146482065Y-110974500D01*
X146334582Y-111010851D01*
X146200082Y-111081442D01*
X146200081Y-111081443D01*
X146087071Y-111181561D01*
X146086382Y-111182171D01*
X146000095Y-111307179D01*
X146000094Y-111307180D01*
X145946230Y-111449208D01*
X145942747Y-111477891D01*
X145927921Y-111600000D01*
X142705495Y-111600000D01*
X142757789Y-111516775D01*
X142811786Y-111362461D01*
X142811790Y-111362426D01*
X142830091Y-111200003D01*
X142830091Y-111199996D01*
X142811787Y-111037544D01*
X142811786Y-111037542D01*
X142811786Y-111037539D01*
X142757789Y-110883225D01*
X142670808Y-110744796D01*
X142555204Y-110629192D01*
X142532626Y-110615005D01*
X142416774Y-110542210D01*
X142262455Y-110488212D01*
X142100004Y-110469909D01*
X142099996Y-110469909D01*
X141937544Y-110488212D01*
X141783225Y-110542210D01*
X141644795Y-110629192D01*
X141529192Y-110744795D01*
X141442210Y-110883225D01*
X141388212Y-111037544D01*
X141369909Y-111199996D01*
X137252673Y-111199996D01*
X137247272Y-111152059D01*
X137247271Y-111152057D01*
X137247271Y-111152054D01*
X137193274Y-110997740D01*
X137106293Y-110859311D01*
X136990689Y-110743707D01*
X136942157Y-110713212D01*
X136852259Y-110656725D01*
X136697940Y-110602727D01*
X136535489Y-110584424D01*
X136535481Y-110584424D01*
X136373029Y-110602727D01*
X136218710Y-110656725D01*
X136080280Y-110743707D01*
X135964677Y-110859310D01*
X135877695Y-110997740D01*
X135823697Y-111152059D01*
X135805394Y-111314511D01*
X134376093Y-111314511D01*
X134361787Y-111187544D01*
X134361786Y-111187542D01*
X134361786Y-111187539D01*
X134307789Y-111033225D01*
X134293731Y-111010852D01*
X134247689Y-110937576D01*
X134228689Y-110870339D01*
X134249057Y-110803504D01*
X134302325Y-110758290D01*
X134371581Y-110749053D01*
X134393639Y-110754564D01*
X134394470Y-110754855D01*
X134394476Y-110754855D01*
X134394477Y-110754856D01*
X134556927Y-110773160D01*
X134556931Y-110773160D01*
X134556935Y-110773160D01*
X134719386Y-110754856D01*
X134719387Y-110754855D01*
X134719392Y-110754855D01*
X134873706Y-110700858D01*
X134985825Y-110630408D01*
X135053061Y-110611408D01*
X135081470Y-110615004D01*
X135124051Y-110625500D01*
X135124052Y-110625500D01*
X135275950Y-110625500D01*
X135333122Y-110611408D01*
X135423434Y-110589148D01*
X135557934Y-110518557D01*
X135671632Y-110417830D01*
X135757921Y-110292819D01*
X135811785Y-110150791D01*
X135814062Y-110132038D01*
X135841683Y-110067859D01*
X135899617Y-110028802D01*
X135969470Y-110027267D01*
X136019383Y-110054165D01*
X136092066Y-110118557D01*
X136226566Y-110189148D01*
X136281090Y-110202587D01*
X136374050Y-110225500D01*
X136374051Y-110225500D01*
X136525950Y-110225500D01*
X136575110Y-110213382D01*
X136673434Y-110189148D01*
X136807934Y-110118557D01*
X136921632Y-110017830D01*
X137007921Y-109892819D01*
X137061785Y-109750791D01*
X137080094Y-109600000D01*
X137061785Y-109449209D01*
X137007921Y-109307181D01*
X136921632Y-109182170D01*
X136807934Y-109081443D01*
X136673434Y-109010852D01*
X136673433Y-109010851D01*
X136673432Y-109010851D01*
X136525950Y-108974500D01*
X136525949Y-108974500D01*
X136500443Y-108974500D01*
X136433404Y-108954815D01*
X136398393Y-108920940D01*
X136381624Y-108896646D01*
X136371632Y-108882170D01*
X136257934Y-108781443D01*
X136257933Y-108781442D01*
X136257928Y-108781438D01*
X136253583Y-108778439D01*
X136209595Y-108724155D01*
X136201938Y-108654706D01*
X136233043Y-108592142D01*
X136266398Y-108566598D01*
X136357934Y-108518557D01*
X136471632Y-108417830D01*
X136557921Y-108292819D01*
X136611785Y-108150791D01*
X136630094Y-108000000D01*
X136611785Y-107849209D01*
X136557921Y-107707181D01*
X136471632Y-107582170D01*
X136357934Y-107481443D01*
X136223434Y-107410852D01*
X136223433Y-107410851D01*
X136223432Y-107410851D01*
X136075950Y-107374500D01*
X136075949Y-107374500D01*
X135924051Y-107374500D01*
X135924050Y-107374500D01*
X135776567Y-107410851D01*
X135642067Y-107481442D01*
X135624275Y-107497204D01*
X135569562Y-107545676D01*
X135528367Y-107582171D01*
X135442080Y-107707179D01*
X135442079Y-107707180D01*
X135399217Y-107820200D01*
X135388215Y-107849209D01*
X135369906Y-108000000D01*
X135388215Y-108150791D01*
X135442079Y-108292819D01*
X135528368Y-108417830D01*
X135642066Y-108518557D01*
X135642068Y-108518558D01*
X135646414Y-108521558D01*
X135690403Y-108575842D01*
X135698061Y-108645290D01*
X135666957Y-108707855D01*
X135633600Y-108733401D01*
X135610634Y-108745456D01*
X135542065Y-108781443D01*
X135428367Y-108882171D01*
X135342080Y-109007179D01*
X135342079Y-109007180D01*
X135288215Y-109149207D01*
X135274101Y-109265447D01*
X135246479Y-109329625D01*
X135188545Y-109368681D01*
X135151005Y-109374500D01*
X135124050Y-109374500D01*
X134983009Y-109409263D01*
X134913206Y-109406194D01*
X134887366Y-109393862D01*
X134873708Y-109385281D01*
X134873707Y-109385280D01*
X134873706Y-109385280D01*
X134764794Y-109347170D01*
X134708020Y-109306449D01*
X134682273Y-109241496D01*
X134695729Y-109172934D01*
X134739777Y-109125136D01*
X134861271Y-109048797D01*
X134976875Y-108933193D01*
X135063856Y-108794764D01*
X135117853Y-108640450D01*
X135117854Y-108640444D01*
X135136158Y-108477992D01*
X135136158Y-108477985D01*
X135117854Y-108315533D01*
X135117853Y-108315531D01*
X135117853Y-108315528D01*
X135063856Y-108161214D01*
X134976875Y-108022785D01*
X134861271Y-107907181D01*
X134722841Y-107820199D01*
X134568522Y-107766201D01*
X134406071Y-107747898D01*
X134406063Y-107747898D01*
X134243611Y-107766201D01*
X134089292Y-107820199D01*
X133950862Y-107907181D01*
X133835259Y-108022784D01*
X133748277Y-108161214D01*
X133694279Y-108315533D01*
X133675976Y-108477985D01*
X133675976Y-108477992D01*
X133694279Y-108640444D01*
X133748277Y-108794763D01*
X133837498Y-108936757D01*
X133856498Y-109003994D01*
X133836130Y-109070829D01*
X133782862Y-109116043D01*
X133746388Y-109125949D01*
X133637544Y-109138212D01*
X133483224Y-109192210D01*
X133364443Y-109266846D01*
X133297206Y-109285846D01*
X133284588Y-109285072D01*
X133150004Y-109269909D01*
X133149996Y-109269909D01*
X132987544Y-109288212D01*
X132833225Y-109342210D01*
X132694795Y-109429192D01*
X132579192Y-109544795D01*
X132492210Y-109683225D01*
X132438212Y-109837544D01*
X132419909Y-109999996D01*
X132419909Y-110000003D01*
X132438212Y-110162455D01*
X132492210Y-110316774D01*
X132517599Y-110357180D01*
X132579192Y-110455204D01*
X132694796Y-110570808D01*
X132833225Y-110657789D01*
X132987539Y-110711786D01*
X132987542Y-110711786D01*
X132987547Y-110711788D01*
X132994335Y-110713338D01*
X132993863Y-110715404D01*
X133048830Y-110738501D01*
X133088386Y-110796095D01*
X133090525Y-110865932D01*
X133075528Y-110900627D01*
X132992209Y-111033227D01*
X132948020Y-111159512D01*
X132907299Y-111216288D01*
X132842346Y-111242035D01*
X132773784Y-111228579D01*
X132768980Y-111225945D01*
X132764975Y-111223633D01*
X132711784Y-111192923D01*
X132559057Y-111152000D01*
X131300943Y-111152000D01*
X131148216Y-111192923D01*
X131148209Y-111192926D01*
X131011290Y-111271975D01*
X131011282Y-111271981D01*
X130899481Y-111383782D01*
X130899475Y-111383790D01*
X130820426Y-111520709D01*
X130820423Y-111520716D01*
X130779500Y-111673443D01*
X130779500Y-111728720D01*
X130759815Y-111795759D01*
X130707011Y-111841514D01*
X130637853Y-111851458D01*
X130625825Y-111849117D01*
X130525950Y-111824500D01*
X130525949Y-111824500D01*
X130396481Y-111824500D01*
X130329442Y-111804815D01*
X130283687Y-111752011D01*
X130273385Y-111715446D01*
X130265342Y-111649208D01*
X130261786Y-111619919D01*
X130207922Y-111477891D01*
X130121633Y-111352880D01*
X130007935Y-111252153D01*
X129873435Y-111181562D01*
X129873434Y-111181561D01*
X129873433Y-111181561D01*
X129725951Y-111145210D01*
X129725950Y-111145210D01*
X129574052Y-111145210D01*
X129574051Y-111145210D01*
X129426568Y-111181561D01*
X129292068Y-111252152D01*
X129238059Y-111300000D01*
X129181617Y-111350003D01*
X129178368Y-111352881D01*
X129092081Y-111477889D01*
X129092080Y-111477890D01*
X129038216Y-111619918D01*
X129029364Y-111692820D01*
X129019907Y-111770710D01*
X128750500Y-111770710D01*
X128750500Y-111673443D01*
X128709577Y-111520716D01*
X128684324Y-111476976D01*
X128630524Y-111383790D01*
X128630518Y-111383782D01*
X128518717Y-111271981D01*
X128518709Y-111271975D01*
X128381790Y-111192926D01*
X128381786Y-111192924D01*
X128381784Y-111192923D01*
X128229057Y-111152000D01*
X127270943Y-111152000D01*
X127118216Y-111192923D01*
X127118215Y-111192923D01*
X127036499Y-111240102D01*
X126968599Y-111256574D01*
X126902572Y-111233721D01*
X126859382Y-111178799D01*
X126850500Y-111132714D01*
X126850500Y-107000000D01*
X136869906Y-107000000D01*
X136888215Y-107150791D01*
X136942079Y-107292819D01*
X137028368Y-107417830D01*
X137142066Y-107518557D01*
X137276566Y-107589148D01*
X137350308Y-107607324D01*
X137424050Y-107625500D01*
X137424051Y-107625500D01*
X137575950Y-107625500D01*
X137625337Y-107613327D01*
X137723434Y-107589148D01*
X137857934Y-107518557D01*
X137971632Y-107417830D01*
X138057921Y-107292819D01*
X138111785Y-107150791D01*
X138130094Y-107000000D01*
X138111785Y-106849209D01*
X138057921Y-106707181D01*
X137971632Y-106582170D01*
X137878881Y-106500000D01*
X139019906Y-106500000D01*
X139038215Y-106650791D01*
X139092079Y-106792819D01*
X139178368Y-106917830D01*
X139292066Y-107018557D01*
X139426566Y-107089148D01*
X139500308Y-107107324D01*
X139574050Y-107125500D01*
X139574051Y-107125500D01*
X139725950Y-107125500D01*
X139775110Y-107113382D01*
X139873434Y-107089148D01*
X140007934Y-107018557D01*
X140121632Y-106917830D01*
X140207921Y-106792819D01*
X140261785Y-106650791D01*
X140280094Y-106500000D01*
X140261785Y-106349209D01*
X140207921Y-106207181D01*
X140121632Y-106082170D01*
X140007934Y-105981443D01*
X139873434Y-105910852D01*
X139873433Y-105910851D01*
X139873432Y-105910851D01*
X139725950Y-105874500D01*
X139725949Y-105874500D01*
X139574051Y-105874500D01*
X139574050Y-105874500D01*
X139426567Y-105910851D01*
X139292067Y-105981442D01*
X139178367Y-106082171D01*
X139092080Y-106207179D01*
X139092079Y-106207180D01*
X139049840Y-106318557D01*
X139038215Y-106349209D01*
X139019906Y-106500000D01*
X137878881Y-106500000D01*
X137857934Y-106481443D01*
X137723434Y-106410852D01*
X137723433Y-106410851D01*
X137723432Y-106410851D01*
X137575950Y-106374500D01*
X137575949Y-106374500D01*
X137424051Y-106374500D01*
X137424050Y-106374500D01*
X137276567Y-106410851D01*
X137142067Y-106481442D01*
X137028367Y-106582171D01*
X136942080Y-106707179D01*
X136942079Y-106707180D01*
X136888215Y-106849208D01*
X136882048Y-106900000D01*
X136869906Y-107000000D01*
X126850500Y-107000000D01*
X126850500Y-105018065D01*
X128801840Y-105018065D01*
X128801840Y-105018072D01*
X128820143Y-105180524D01*
X128874141Y-105334843D01*
X128926898Y-105418804D01*
X128961123Y-105473273D01*
X129076727Y-105588877D01*
X129215156Y-105675858D01*
X129369470Y-105729855D01*
X129369473Y-105729855D01*
X129369475Y-105729856D01*
X129531927Y-105748160D01*
X129531931Y-105748160D01*
X129531935Y-105748160D01*
X129694386Y-105729856D01*
X129694387Y-105729855D01*
X129694392Y-105729855D01*
X129848706Y-105675858D01*
X129987135Y-105588877D01*
X129988975Y-105587036D01*
X129990457Y-105586227D01*
X129992578Y-105584536D01*
X129992874Y-105584907D01*
X130050292Y-105553550D01*
X130119984Y-105558529D01*
X130175921Y-105600396D01*
X130192600Y-105630741D01*
X130211092Y-105679500D01*
X130223276Y-105711625D01*
X130235860Y-105729856D01*
X130309564Y-105836634D01*
X130423262Y-105937361D01*
X130557762Y-106007952D01*
X130574912Y-106012179D01*
X130705246Y-106044304D01*
X130705247Y-106044304D01*
X130857146Y-106044304D01*
X130906306Y-106032186D01*
X131004630Y-106007952D01*
X131139130Y-105937361D01*
X131252828Y-105836634D01*
X131278115Y-105800000D01*
X144669906Y-105800000D01*
X144688215Y-105950791D01*
X144742079Y-106092819D01*
X144828368Y-106217830D01*
X144942066Y-106318557D01*
X145076566Y-106389148D01*
X145150308Y-106407324D01*
X145224050Y-106425500D01*
X145224051Y-106425500D01*
X145375950Y-106425500D01*
X145435382Y-106410851D01*
X145523434Y-106389148D01*
X145657934Y-106318557D01*
X145771632Y-106217830D01*
X145857921Y-106092819D01*
X145911785Y-105950791D01*
X145930094Y-105800000D01*
X145911785Y-105649209D01*
X145857921Y-105507181D01*
X145857920Y-105507179D01*
X145855261Y-105500168D01*
X145857351Y-105499375D01*
X145845803Y-105441740D01*
X145862160Y-105399997D01*
X146569906Y-105399997D01*
X146588214Y-105550785D01*
X146588214Y-105550787D01*
X146588215Y-105550788D01*
X146590201Y-105556025D01*
X146595570Y-105625687D01*
X146590203Y-105643966D01*
X146588216Y-105649204D01*
X146588214Y-105649212D01*
X146569906Y-105800000D01*
X146588215Y-105950791D01*
X146608765Y-106004977D01*
X146614132Y-106074640D01*
X146609995Y-106088729D01*
X146609327Y-106091439D01*
X146591019Y-106242227D01*
X146609328Y-106393018D01*
X146663192Y-106535046D01*
X146663193Y-106535047D01*
X146749482Y-106660059D01*
X146754455Y-106665672D01*
X146752342Y-106667543D01*
X146782473Y-106715608D01*
X146786205Y-106734250D01*
X146788213Y-106750783D01*
X146788215Y-106750794D01*
X146836944Y-106879279D01*
X146842079Y-106892819D01*
X146928368Y-107017830D01*
X147042066Y-107118557D01*
X147176566Y-107189148D01*
X147218959Y-107199597D01*
X147324050Y-107225500D01*
X147324051Y-107225500D01*
X147475950Y-107225500D01*
X147525110Y-107213382D01*
X147623434Y-107189148D01*
X147757934Y-107118557D01*
X147871632Y-107017830D01*
X147952964Y-106900000D01*
X149269906Y-106900000D01*
X149288215Y-107050791D01*
X149342079Y-107192819D01*
X149428368Y-107317830D01*
X149542066Y-107418557D01*
X149676566Y-107489148D01*
X149739983Y-107504779D01*
X149824050Y-107525500D01*
X149824051Y-107525500D01*
X149975950Y-107525500D01*
X150025110Y-107513382D01*
X150123434Y-107489148D01*
X150257934Y-107418557D01*
X150371632Y-107317830D01*
X150457921Y-107192819D01*
X150511785Y-107050791D01*
X150530094Y-106900000D01*
X150516202Y-106785590D01*
X150527662Y-106716669D01*
X150537248Y-106700206D01*
X150607921Y-106597819D01*
X150661785Y-106455791D01*
X150680094Y-106305000D01*
X150661785Y-106154209D01*
X150607921Y-106012181D01*
X150521632Y-105887170D01*
X150407934Y-105786443D01*
X150273434Y-105715852D01*
X150273433Y-105715851D01*
X150273432Y-105715851D01*
X150125950Y-105679500D01*
X150125949Y-105679500D01*
X149974051Y-105679500D01*
X149974050Y-105679500D01*
X149826567Y-105715851D01*
X149692067Y-105786442D01*
X149578367Y-105887171D01*
X149492080Y-106012179D01*
X149492079Y-106012180D01*
X149438215Y-106154208D01*
X149419906Y-106305000D01*
X149433797Y-106419408D01*
X149422336Y-106488332D01*
X149412751Y-106504794D01*
X149342080Y-106607179D01*
X149342079Y-106607180D01*
X149288215Y-106749208D01*
X149283797Y-106785593D01*
X149269906Y-106900000D01*
X147952964Y-106900000D01*
X147957921Y-106892819D01*
X148011785Y-106750791D01*
X148030094Y-106600000D01*
X148011785Y-106449209D01*
X147957921Y-106307181D01*
X147871632Y-106182170D01*
X147871630Y-106182167D01*
X147866654Y-106176550D01*
X147868771Y-106174674D01*
X147838647Y-106126647D01*
X147834905Y-106107967D01*
X147832898Y-106091437D01*
X147829383Y-106082170D01*
X147812346Y-106037248D01*
X147806980Y-105967586D01*
X147811121Y-105953483D01*
X147811785Y-105950791D01*
X147816634Y-105910852D01*
X147830094Y-105800000D01*
X147811785Y-105649209D01*
X147809797Y-105643966D01*
X147804429Y-105574309D01*
X147809798Y-105556026D01*
X147811785Y-105550788D01*
X147830094Y-105399997D01*
X147811785Y-105249206D01*
X147757921Y-105107178D01*
X147671632Y-104982167D01*
X147557934Y-104881440D01*
X147423434Y-104810849D01*
X147423433Y-104810848D01*
X147423432Y-104810848D01*
X147275950Y-104774497D01*
X147275949Y-104774497D01*
X147124051Y-104774497D01*
X147124050Y-104774497D01*
X146976567Y-104810848D01*
X146842067Y-104881439D01*
X146728367Y-104982168D01*
X146642080Y-105107176D01*
X146642079Y-105107177D01*
X146588215Y-105249205D01*
X146569906Y-105399997D01*
X145862160Y-105399997D01*
X145871294Y-105376686D01*
X145911698Y-105342823D01*
X145957934Y-105318557D01*
X146071632Y-105217830D01*
X146157921Y-105092819D01*
X146211785Y-104950791D01*
X146230094Y-104800000D01*
X146211785Y-104649209D01*
X146157921Y-104507181D01*
X146152964Y-104500000D01*
X147869906Y-104500000D01*
X147888215Y-104650791D01*
X147942079Y-104792819D01*
X148028368Y-104917830D01*
X148142066Y-105018557D01*
X148276566Y-105089148D01*
X148323126Y-105100624D01*
X148424050Y-105125500D01*
X148424051Y-105125500D01*
X148575950Y-105125500D01*
X148625110Y-105113382D01*
X148723434Y-105089148D01*
X148857934Y-105018557D01*
X148971632Y-104917830D01*
X149057921Y-104792819D01*
X149111785Y-104650791D01*
X149130094Y-104500000D01*
X149111785Y-104349209D01*
X149076458Y-104256059D01*
X150025965Y-104256059D01*
X150044274Y-104406850D01*
X150098138Y-104548878D01*
X150184427Y-104673889D01*
X150298125Y-104774616D01*
X150432625Y-104845207D01*
X150474844Y-104855613D01*
X150580109Y-104881559D01*
X150580110Y-104881559D01*
X150732009Y-104881559D01*
X150807381Y-104862981D01*
X150879493Y-104845207D01*
X151013993Y-104774616D01*
X151127691Y-104673889D01*
X151213980Y-104548878D01*
X151260989Y-104424925D01*
X151270504Y-104399837D01*
X151271729Y-104400301D01*
X151302935Y-104346689D01*
X151365150Y-104314891D01*
X151434680Y-104321777D01*
X151489449Y-104365161D01*
X151504131Y-104392760D01*
X151542080Y-104492821D01*
X151551992Y-104507181D01*
X151628368Y-104617830D01*
X151742066Y-104718557D01*
X151876566Y-104789148D01*
X151920594Y-104800000D01*
X152024050Y-104825500D01*
X152024051Y-104825500D01*
X152175951Y-104825500D01*
X152175951Y-104825499D01*
X152270323Y-104802238D01*
X152329677Y-104802238D01*
X152424048Y-104825499D01*
X152424049Y-104825500D01*
X152424051Y-104825500D01*
X152575950Y-104825500D01*
X152635394Y-104810848D01*
X152723434Y-104789148D01*
X152857934Y-104718557D01*
X152858851Y-104717745D01*
X156287651Y-104717745D01*
X156305960Y-104868536D01*
X156359824Y-105010564D01*
X156446113Y-105135575D01*
X156559811Y-105236302D01*
X156694311Y-105306893D01*
X156768053Y-105325069D01*
X156841795Y-105343245D01*
X156841796Y-105343245D01*
X156993695Y-105343245D01*
X157042855Y-105331127D01*
X157141179Y-105306893D01*
X157275679Y-105236302D01*
X157389377Y-105135575D01*
X157475666Y-105010564D01*
X157529530Y-104868536D01*
X157547839Y-104717745D01*
X157529530Y-104566954D01*
X157475666Y-104424926D01*
X157389377Y-104299915D01*
X157275679Y-104199188D01*
X157141179Y-104128597D01*
X157141178Y-104128596D01*
X157141177Y-104128596D01*
X156993695Y-104092245D01*
X156993694Y-104092245D01*
X156841796Y-104092245D01*
X156841795Y-104092245D01*
X156694312Y-104128596D01*
X156559812Y-104199187D01*
X156446112Y-104299916D01*
X156359825Y-104424924D01*
X156359824Y-104424925D01*
X156305960Y-104566953D01*
X156295450Y-104653514D01*
X156287651Y-104717745D01*
X152858851Y-104717745D01*
X152971632Y-104617830D01*
X153057921Y-104492819D01*
X153111785Y-104350791D01*
X153130094Y-104200000D01*
X153116189Y-104085483D01*
X153127649Y-104016562D01*
X153174553Y-103964776D01*
X153242009Y-103946569D01*
X153296910Y-103960742D01*
X153387075Y-104008065D01*
X153391850Y-104010571D01*
X153539334Y-104046923D01*
X153539335Y-104046923D01*
X153691234Y-104046923D01*
X153740394Y-104034805D01*
X153838718Y-104010571D01*
X153973218Y-103939980D01*
X154086916Y-103839253D01*
X154173205Y-103714242D01*
X154227069Y-103572214D01*
X154245378Y-103421423D01*
X154227069Y-103270632D01*
X154173205Y-103128604D01*
X154086916Y-103003593D01*
X153973218Y-102902866D01*
X153838718Y-102832275D01*
X153838716Y-102832274D01*
X153836042Y-102830871D01*
X153824337Y-102819546D01*
X153797257Y-102821932D01*
X153791940Y-102820745D01*
X153691234Y-102795923D01*
X153691233Y-102795923D01*
X153539335Y-102795923D01*
X153539334Y-102795923D01*
X153391851Y-102832274D01*
X153257351Y-102902865D01*
X153257350Y-102902866D01*
X153168656Y-102981442D01*
X153143651Y-103003594D01*
X153057364Y-103128602D01*
X153057363Y-103128603D01*
X153003499Y-103270631D01*
X152985190Y-103421423D01*
X152999094Y-103535937D01*
X152987633Y-103604860D01*
X152940729Y-103656646D01*
X152873273Y-103674853D01*
X152818373Y-103660680D01*
X152760982Y-103630559D01*
X152723434Y-103610852D01*
X152723433Y-103610851D01*
X152723432Y-103610851D01*
X152575950Y-103574500D01*
X152575949Y-103574500D01*
X152424051Y-103574500D01*
X152424050Y-103574500D01*
X152329675Y-103597761D01*
X152270325Y-103597761D01*
X152175950Y-103574500D01*
X152175949Y-103574500D01*
X152024051Y-103574500D01*
X152024050Y-103574500D01*
X151876567Y-103610851D01*
X151742067Y-103681442D01*
X151628367Y-103782171D01*
X151542080Y-103907179D01*
X151542079Y-103907180D01*
X151485555Y-104056222D01*
X151484332Y-104055758D01*
X151453108Y-104109384D01*
X151390887Y-104141171D01*
X151321359Y-104134273D01*
X151266597Y-104090880D01*
X151251927Y-104063298D01*
X151236331Y-104022176D01*
X151213980Y-103963240D01*
X151207770Y-103954244D01*
X151202473Y-103946569D01*
X151127691Y-103838229D01*
X151013993Y-103737502D01*
X150879493Y-103666911D01*
X150879492Y-103666910D01*
X150879491Y-103666910D01*
X150732009Y-103630559D01*
X150732008Y-103630559D01*
X150580110Y-103630559D01*
X150580109Y-103630559D01*
X150432626Y-103666910D01*
X150298126Y-103737501D01*
X150298125Y-103737502D01*
X150235684Y-103792820D01*
X150184426Y-103838230D01*
X150098139Y-103963238D01*
X150098138Y-103963239D01*
X150044274Y-104105267D01*
X150035045Y-104181275D01*
X150025965Y-104256059D01*
X149076458Y-104256059D01*
X149057921Y-104207181D01*
X148971632Y-104082170D01*
X148857934Y-103981443D01*
X148723434Y-103910852D01*
X148723433Y-103910851D01*
X148723432Y-103910851D01*
X148575950Y-103874500D01*
X148575949Y-103874500D01*
X148424051Y-103874500D01*
X148424050Y-103874500D01*
X148276567Y-103910851D01*
X148142067Y-103981442D01*
X148028367Y-104082171D01*
X147942080Y-104207179D01*
X147942079Y-104207180D01*
X147888215Y-104349208D01*
X147883690Y-104386477D01*
X147869906Y-104500000D01*
X146152964Y-104500000D01*
X146071632Y-104382170D01*
X145957934Y-104281443D01*
X145957932Y-104281442D01*
X145952320Y-104276470D01*
X145953301Y-104275362D01*
X145914616Y-104227616D01*
X145906962Y-104158167D01*
X145938071Y-104095605D01*
X145998064Y-104059793D01*
X145999228Y-104059498D01*
X146139865Y-104024835D01*
X146139867Y-104024834D01*
X146146877Y-104022176D01*
X146147382Y-104023507D01*
X146207820Y-104011395D01*
X146254570Y-104025119D01*
X146376566Y-104089148D01*
X146441963Y-104105267D01*
X146524050Y-104125500D01*
X146524051Y-104125500D01*
X146675950Y-104125500D01*
X146725110Y-104113382D01*
X146823434Y-104089148D01*
X146957934Y-104018557D01*
X147071632Y-103917830D01*
X147157921Y-103792819D01*
X147211785Y-103650791D01*
X147230094Y-103500000D01*
X147211785Y-103349209D01*
X147157921Y-103207181D01*
X147071632Y-103082170D01*
X146957934Y-102981443D01*
X146823434Y-102910852D01*
X146823433Y-102910851D01*
X146823432Y-102910851D01*
X146675950Y-102874500D01*
X146675949Y-102874500D01*
X146524051Y-102874500D01*
X146524050Y-102874500D01*
X146376564Y-102910852D01*
X146369554Y-102913511D01*
X146369050Y-102912183D01*
X146308585Y-102924289D01*
X146261859Y-102910566D01*
X146139863Y-102846538D01*
X145992381Y-102810187D01*
X145992380Y-102810187D01*
X145840482Y-102810187D01*
X145840481Y-102810187D01*
X145692998Y-102846538D01*
X145558498Y-102917129D01*
X145444798Y-103017858D01*
X145358511Y-103142866D01*
X145358510Y-103142867D01*
X145304646Y-103284895D01*
X145298059Y-103339148D01*
X145286337Y-103435687D01*
X145304646Y-103586478D01*
X145358510Y-103728506D01*
X145444799Y-103853517D01*
X145558497Y-103954244D01*
X145558498Y-103954244D01*
X145564111Y-103959217D01*
X145563128Y-103960325D01*
X145601813Y-104008065D01*
X145609469Y-104077514D01*
X145578363Y-104140078D01*
X145518370Y-104175892D01*
X145517056Y-104176224D01*
X145376567Y-104210851D01*
X145242067Y-104281442D01*
X145128367Y-104382171D01*
X145042080Y-104507179D01*
X145042079Y-104507180D01*
X144988215Y-104649208D01*
X144976942Y-104742049D01*
X144969906Y-104800000D01*
X144988215Y-104950791D01*
X145023424Y-105043631D01*
X145044739Y-105099832D01*
X145042650Y-105100624D01*
X145054195Y-105158272D01*
X145028697Y-105223323D01*
X144988301Y-105257176D01*
X144942067Y-105281442D01*
X144828367Y-105382171D01*
X144742080Y-105507179D01*
X144742079Y-105507180D01*
X144688215Y-105649208D01*
X144684979Y-105675858D01*
X144669906Y-105800000D01*
X131278115Y-105800000D01*
X131339117Y-105711623D01*
X131392981Y-105569595D01*
X131411290Y-105418804D01*
X131392981Y-105268013D01*
X131339117Y-105125985D01*
X131252828Y-105000974D01*
X131139130Y-104900247D01*
X131004630Y-104829656D01*
X131004629Y-104829655D01*
X131004628Y-104829655D01*
X130857146Y-104793304D01*
X130857145Y-104793304D01*
X130705247Y-104793304D01*
X130705246Y-104793304D01*
X130557763Y-104829655D01*
X130416620Y-104903733D01*
X130415757Y-104902089D01*
X130358657Y-104920919D01*
X130291006Y-104903452D01*
X130243538Y-104852182D01*
X130237537Y-104837949D01*
X130189720Y-104701294D01*
X130102739Y-104562865D01*
X129987135Y-104447261D01*
X129951586Y-104424924D01*
X129848705Y-104360279D01*
X129694386Y-104306281D01*
X129531935Y-104287978D01*
X129531927Y-104287978D01*
X129369475Y-104306281D01*
X129215156Y-104360279D01*
X129076726Y-104447261D01*
X128961123Y-104562864D01*
X128874141Y-104701294D01*
X128820143Y-104855613D01*
X128801840Y-105018065D01*
X126850500Y-105018065D01*
X126850500Y-104235686D01*
X133169908Y-104235686D01*
X133188217Y-104386477D01*
X133242081Y-104528505D01*
X133328370Y-104653516D01*
X133442068Y-104754243D01*
X133576568Y-104824834D01*
X133724053Y-104861186D01*
X133724058Y-104861186D01*
X133728250Y-104861695D01*
X133731109Y-104862925D01*
X133731335Y-104862981D01*
X133731325Y-104863018D01*
X133792430Y-104889311D01*
X133831492Y-104947241D01*
X133836410Y-104969846D01*
X133845369Y-105043631D01*
X133899233Y-105185659D01*
X133985522Y-105310670D01*
X134099220Y-105411397D01*
X134233720Y-105481988D01*
X134304261Y-105499375D01*
X134381204Y-105518340D01*
X134381205Y-105518340D01*
X134533104Y-105518340D01*
X134606829Y-105500168D01*
X134680588Y-105481988D01*
X134815088Y-105411397D01*
X134928786Y-105310670D01*
X135015075Y-105185659D01*
X135068939Y-105043631D01*
X135087248Y-104892840D01*
X135068939Y-104742049D01*
X135044370Y-104677265D01*
X136106288Y-104677265D01*
X136124597Y-104828056D01*
X136178461Y-104970084D01*
X136264750Y-105095095D01*
X136378448Y-105195822D01*
X136512948Y-105266413D01*
X136573923Y-105281442D01*
X136660432Y-105302765D01*
X136660433Y-105302765D01*
X136812332Y-105302765D01*
X136861492Y-105290647D01*
X136959816Y-105266413D01*
X137094316Y-105195822D01*
X137105788Y-105185659D01*
X137138495Y-105156684D01*
X137201728Y-105126963D01*
X137220721Y-105125500D01*
X137225950Y-105125500D01*
X137275110Y-105113382D01*
X137373434Y-105089148D01*
X137507934Y-105018557D01*
X137621632Y-104917830D01*
X137707921Y-104792819D01*
X137761785Y-104650791D01*
X137780094Y-104500000D01*
X137761785Y-104349209D01*
X137707921Y-104207181D01*
X137621632Y-104082170D01*
X137507934Y-103981443D01*
X137373434Y-103910852D01*
X137373433Y-103910851D01*
X137373432Y-103910851D01*
X137225950Y-103874500D01*
X137225949Y-103874500D01*
X137074051Y-103874500D01*
X137074050Y-103874500D01*
X136926567Y-103910851D01*
X136792064Y-103981443D01*
X136747887Y-104020581D01*
X136684654Y-104050302D01*
X136665661Y-104051765D01*
X136660432Y-104051765D01*
X136512949Y-104088116D01*
X136378449Y-104158707D01*
X136378448Y-104158708D01*
X136300667Y-104227616D01*
X136264749Y-104259436D01*
X136178462Y-104384444D01*
X136178461Y-104384445D01*
X136124597Y-104526473D01*
X136120178Y-104562865D01*
X136106288Y-104677265D01*
X135044370Y-104677265D01*
X135015075Y-104600021D01*
X134928786Y-104475010D01*
X134815088Y-104374283D01*
X134680588Y-104303692D01*
X134680587Y-104303691D01*
X134680586Y-104303691D01*
X134533102Y-104267339D01*
X134528896Y-104266829D01*
X134526035Y-104265597D01*
X134525821Y-104265545D01*
X134525829Y-104265509D01*
X134464718Y-104239208D01*
X134425661Y-104181275D01*
X134420746Y-104158685D01*
X134411787Y-104084895D01*
X134403596Y-104063298D01*
X134382649Y-104008065D01*
X134357923Y-103942867D01*
X134271634Y-103817856D01*
X134157936Y-103717129D01*
X134023436Y-103646538D01*
X134023435Y-103646537D01*
X134023434Y-103646537D01*
X133878836Y-103610897D01*
X133822561Y-103578131D01*
X133818250Y-103584111D01*
X133753232Y-103609693D01*
X133742180Y-103610186D01*
X133724052Y-103610186D01*
X133576569Y-103646537D01*
X133442069Y-103717128D01*
X133328369Y-103817857D01*
X133242082Y-103942865D01*
X133242081Y-103942866D01*
X133188217Y-104084894D01*
X133181517Y-104140078D01*
X133169908Y-104235686D01*
X126850500Y-104235686D01*
X126850500Y-102689920D01*
X133099499Y-102689920D01*
X133128340Y-102834907D01*
X133128343Y-102834917D01*
X133184912Y-102971488D01*
X133184919Y-102971501D01*
X133267048Y-103094415D01*
X133267051Y-103094419D01*
X133371580Y-103198948D01*
X133371584Y-103198951D01*
X133494498Y-103281080D01*
X133494511Y-103281087D01*
X133631082Y-103337656D01*
X133631087Y-103337658D01*
X133631091Y-103337658D01*
X133631092Y-103337659D01*
X133766372Y-103364569D01*
X133828283Y-103396954D01*
X133829349Y-103398827D01*
X133836954Y-103389230D01*
X133903065Y-103366620D01*
X133908511Y-103366500D01*
X134223920Y-103366500D01*
X134361422Y-103339148D01*
X134368913Y-103337658D01*
X134496292Y-103284896D01*
X134505488Y-103281087D01*
X134505488Y-103281086D01*
X134505495Y-103281084D01*
X134628416Y-103198951D01*
X134732634Y-103094732D01*
X134793955Y-103061249D01*
X134863647Y-103066233D01*
X134919581Y-103108104D01*
X134937355Y-103141459D01*
X134942209Y-103155332D01*
X135013354Y-103268557D01*
X135029192Y-103293763D01*
X135144796Y-103409367D01*
X135283225Y-103496348D01*
X135437539Y-103550345D01*
X135437542Y-103550345D01*
X135437544Y-103550346D01*
X135599996Y-103568650D01*
X135600000Y-103568650D01*
X135600004Y-103568650D01*
X135762455Y-103550346D01*
X135762456Y-103550345D01*
X135762461Y-103550345D01*
X135916775Y-103496348D01*
X136055204Y-103409367D01*
X136170808Y-103293763D01*
X136257789Y-103155334D01*
X136311786Y-103001020D01*
X136315114Y-102971488D01*
X136319778Y-102930091D01*
X136327283Y-102863474D01*
X136354349Y-102799062D01*
X136409550Y-102760316D01*
X136416775Y-102757789D01*
X136429171Y-102750000D01*
X138369906Y-102750000D01*
X138388215Y-102900791D01*
X138442079Y-103042819D01*
X138528368Y-103167830D01*
X138642066Y-103268557D01*
X138776566Y-103339148D01*
X138817381Y-103349208D01*
X138924050Y-103375500D01*
X138924051Y-103375500D01*
X139075950Y-103375500D01*
X139125110Y-103363382D01*
X139223434Y-103339148D01*
X139357934Y-103268557D01*
X139471632Y-103167830D01*
X139557921Y-103042819D01*
X139611785Y-102900791D01*
X139630094Y-102750000D01*
X139611785Y-102599209D01*
X139557921Y-102457181D01*
X139471632Y-102332170D01*
X139357934Y-102231443D01*
X139223434Y-102160852D01*
X139223433Y-102160851D01*
X139223432Y-102160851D01*
X139075950Y-102124500D01*
X139075949Y-102124500D01*
X138924051Y-102124500D01*
X138924050Y-102124500D01*
X138776567Y-102160851D01*
X138642067Y-102231442D01*
X138528367Y-102332171D01*
X138442080Y-102457179D01*
X138442079Y-102457180D01*
X138391499Y-102590551D01*
X138388215Y-102599209D01*
X138369906Y-102750000D01*
X136429171Y-102750000D01*
X136555204Y-102670808D01*
X136670808Y-102555204D01*
X136757789Y-102416775D01*
X136811786Y-102262461D01*
X136812006Y-102260509D01*
X136818365Y-102204076D01*
X136845431Y-102139662D01*
X136903026Y-102100107D01*
X136972863Y-102097969D01*
X137029266Y-102130278D01*
X137044796Y-102145808D01*
X137183225Y-102232789D01*
X137337539Y-102286786D01*
X137337542Y-102286786D01*
X137337544Y-102286787D01*
X137499996Y-102305091D01*
X137500000Y-102305091D01*
X137500004Y-102305091D01*
X137662455Y-102286787D01*
X137662456Y-102286786D01*
X137662461Y-102286786D01*
X137816775Y-102232789D01*
X137955204Y-102145808D01*
X138070808Y-102030204D01*
X138157789Y-101891775D01*
X138211786Y-101737461D01*
X138216007Y-101700000D01*
X138216007Y-101699996D01*
X140369909Y-101699996D01*
X140369909Y-101700003D01*
X140388212Y-101862455D01*
X140442210Y-102016774D01*
X140463575Y-102050776D01*
X140529192Y-102155204D01*
X140644796Y-102270808D01*
X140783225Y-102357789D01*
X140937539Y-102411786D01*
X140937542Y-102411786D01*
X140937544Y-102411787D01*
X141099996Y-102430091D01*
X141100000Y-102430091D01*
X141100004Y-102430091D01*
X141262455Y-102411787D01*
X141262456Y-102411786D01*
X141262461Y-102411786D01*
X141416775Y-102357789D01*
X141555204Y-102270808D01*
X141626016Y-102199996D01*
X142769909Y-102199996D01*
X142769909Y-102200003D01*
X142788212Y-102362455D01*
X142842210Y-102516774D01*
X142887686Y-102589148D01*
X142929192Y-102655204D01*
X143044796Y-102770808D01*
X143183225Y-102857789D01*
X143337539Y-102911786D01*
X143337542Y-102911786D01*
X143337544Y-102911787D01*
X143499996Y-102930091D01*
X143500000Y-102930091D01*
X143500004Y-102930091D01*
X143662455Y-102911787D01*
X143662456Y-102911786D01*
X143662461Y-102911786D01*
X143816775Y-102857789D01*
X143955204Y-102770808D01*
X144070808Y-102655204D01*
X144157789Y-102516775D01*
X144211786Y-102362461D01*
X144211787Y-102362455D01*
X144230091Y-102200003D01*
X144230091Y-102199996D01*
X144211787Y-102037544D01*
X144211786Y-102037542D01*
X144211786Y-102037539D01*
X144198650Y-102000000D01*
X147569906Y-102000000D01*
X147588215Y-102150791D01*
X147642079Y-102292819D01*
X147728368Y-102417830D01*
X147842066Y-102518557D01*
X147976566Y-102589148D01*
X148017381Y-102599208D01*
X148124050Y-102625500D01*
X148124051Y-102625500D01*
X148275950Y-102625500D01*
X148325110Y-102613382D01*
X148423434Y-102589148D01*
X148557934Y-102518557D01*
X148671632Y-102417830D01*
X148757921Y-102292819D01*
X148757923Y-102292812D01*
X148758414Y-102291879D01*
X148758958Y-102291316D01*
X148762182Y-102286646D01*
X148762958Y-102287181D01*
X148806996Y-102241664D01*
X148868213Y-102225500D01*
X148875950Y-102225500D01*
X148925110Y-102213382D01*
X149023434Y-102189148D01*
X149157934Y-102118557D01*
X149271632Y-102017830D01*
X149283939Y-102000000D01*
X153469906Y-102000000D01*
X153488215Y-102150791D01*
X153542079Y-102292819D01*
X153628368Y-102417830D01*
X153742066Y-102518557D01*
X153876566Y-102589148D01*
X153876567Y-102589148D01*
X153879240Y-102590551D01*
X153890944Y-102601875D01*
X153918026Y-102599490D01*
X153923309Y-102600669D01*
X154024051Y-102625500D01*
X154024052Y-102625500D01*
X154175950Y-102625500D01*
X154225110Y-102613382D01*
X154323434Y-102589148D01*
X154457934Y-102518557D01*
X154571632Y-102417830D01*
X154657921Y-102292819D01*
X154711785Y-102150791D01*
X154730094Y-102000000D01*
X154711785Y-101849209D01*
X154657921Y-101707181D01*
X154571632Y-101582170D01*
X154457934Y-101481443D01*
X154323434Y-101410852D01*
X154323433Y-101410851D01*
X154323432Y-101410851D01*
X154175950Y-101374500D01*
X154175949Y-101374500D01*
X154024051Y-101374500D01*
X154024050Y-101374500D01*
X153876567Y-101410851D01*
X153742067Y-101481442D01*
X153628367Y-101582171D01*
X153542080Y-101707179D01*
X153542079Y-101707180D01*
X153512057Y-101786343D01*
X153488215Y-101849209D01*
X153469906Y-102000000D01*
X149283939Y-102000000D01*
X149357921Y-101892819D01*
X149411785Y-101750791D01*
X149430094Y-101600000D01*
X149411785Y-101449209D01*
X149357921Y-101307181D01*
X149271632Y-101182170D01*
X149157934Y-101081443D01*
X149023434Y-101010852D01*
X149023433Y-101010851D01*
X149023432Y-101010851D01*
X148875950Y-100974500D01*
X148875949Y-100974500D01*
X148724051Y-100974500D01*
X148724050Y-100974500D01*
X148576567Y-101010851D01*
X148442067Y-101081442D01*
X148328367Y-101182171D01*
X148242080Y-101307178D01*
X148241586Y-101308121D01*
X148241041Y-101308683D01*
X148237818Y-101313354D01*
X148237041Y-101312818D01*
X148193004Y-101358336D01*
X148131787Y-101374500D01*
X148124050Y-101374500D01*
X147976567Y-101410851D01*
X147842067Y-101481442D01*
X147728367Y-101582171D01*
X147642080Y-101707179D01*
X147642079Y-101707180D01*
X147612057Y-101786343D01*
X147588215Y-101849209D01*
X147569906Y-102000000D01*
X144198650Y-102000000D01*
X144157789Y-101883225D01*
X144070808Y-101744796D01*
X143955204Y-101629192D01*
X143816774Y-101542210D01*
X143662455Y-101488212D01*
X143500004Y-101469909D01*
X143499996Y-101469909D01*
X143337544Y-101488212D01*
X143183225Y-101542210D01*
X143044795Y-101629192D01*
X142929192Y-101744795D01*
X142842210Y-101883225D01*
X142788212Y-102037544D01*
X142769909Y-102199996D01*
X141626016Y-102199996D01*
X141670808Y-102155204D01*
X141757789Y-102016775D01*
X141811786Y-101862461D01*
X141813279Y-101849209D01*
X141830091Y-101700003D01*
X141830091Y-101699996D01*
X141811787Y-101537544D01*
X141811786Y-101537542D01*
X141811786Y-101537539D01*
X141757789Y-101383225D01*
X141748545Y-101368513D01*
X146051620Y-101368513D01*
X146069929Y-101519304D01*
X146123793Y-101661332D01*
X146210082Y-101786343D01*
X146323780Y-101887070D01*
X146458280Y-101957661D01*
X146532022Y-101975837D01*
X146605764Y-101994013D01*
X146605765Y-101994013D01*
X146757664Y-101994013D01*
X146806824Y-101981895D01*
X146905148Y-101957661D01*
X147039648Y-101887070D01*
X147153346Y-101786343D01*
X147239635Y-101661332D01*
X147293499Y-101519304D01*
X147311808Y-101368513D01*
X147293499Y-101217722D01*
X147239635Y-101075694D01*
X147153346Y-100950683D01*
X147039648Y-100849956D01*
X146905148Y-100779365D01*
X146905147Y-100779364D01*
X146905146Y-100779364D01*
X146757664Y-100743013D01*
X146757663Y-100743013D01*
X146605765Y-100743013D01*
X146605764Y-100743013D01*
X146458281Y-100779364D01*
X146323781Y-100849955D01*
X146210081Y-100950684D01*
X146123794Y-101075692D01*
X146123793Y-101075693D01*
X146069929Y-101217721D01*
X146058382Y-101312818D01*
X146051620Y-101368513D01*
X141748545Y-101368513D01*
X141670808Y-101244796D01*
X141555204Y-101129192D01*
X141470060Y-101075692D01*
X141416774Y-101042210D01*
X141262455Y-100988212D01*
X141100004Y-100969909D01*
X141099996Y-100969909D01*
X140937544Y-100988212D01*
X140783225Y-101042210D01*
X140644795Y-101129192D01*
X140529192Y-101244795D01*
X140442210Y-101383225D01*
X140388212Y-101537544D01*
X140369909Y-101699996D01*
X138216007Y-101699996D01*
X138230091Y-101575003D01*
X138230091Y-101574996D01*
X138211787Y-101412544D01*
X138211786Y-101412542D01*
X138211786Y-101412539D01*
X138157789Y-101258225D01*
X138070808Y-101119796D01*
X137955204Y-101004192D01*
X137870047Y-100950684D01*
X137816774Y-100917210D01*
X137662455Y-100863212D01*
X137500004Y-100844909D01*
X137499996Y-100844909D01*
X137337544Y-100863212D01*
X137183225Y-100917210D01*
X137044795Y-101004192D01*
X136929192Y-101119795D01*
X136842210Y-101258225D01*
X136788212Y-101412544D01*
X136781634Y-101470925D01*
X136754566Y-101535339D01*
X136696971Y-101574893D01*
X136627134Y-101577030D01*
X136570733Y-101544721D01*
X136555204Y-101529192D01*
X136416774Y-101442210D01*
X136262455Y-101388212D01*
X136100004Y-101369909D01*
X136099996Y-101369909D01*
X135937544Y-101388212D01*
X135783225Y-101442210D01*
X135644795Y-101529192D01*
X135529192Y-101644795D01*
X135442210Y-101783225D01*
X135388212Y-101937544D01*
X135372715Y-102075084D01*
X135345648Y-102139498D01*
X135290456Y-102178239D01*
X135283228Y-102180768D01*
X135144797Y-102267750D01*
X135045000Y-102367547D01*
X134983677Y-102401031D01*
X134913985Y-102396047D01*
X134858052Y-102354175D01*
X134842760Y-102327322D01*
X134815084Y-102260505D01*
X134815080Y-102260498D01*
X134793697Y-102228496D01*
X134772819Y-102161818D01*
X134791304Y-102094438D01*
X134798413Y-102084131D01*
X134824009Y-102050776D01*
X134884937Y-101903683D01*
X134900500Y-101785468D01*
X134900500Y-101414532D01*
X134900015Y-101410851D01*
X134884937Y-101296318D01*
X134884935Y-101296313D01*
X134824011Y-101149228D01*
X134824011Y-101149227D01*
X134824009Y-101149224D01*
X134727087Y-101022913D01*
X134600776Y-100925991D01*
X134600773Y-100925990D01*
X134600771Y-100925988D01*
X134453686Y-100865064D01*
X134453681Y-100865062D01*
X134335469Y-100849500D01*
X134335468Y-100849500D01*
X133664532Y-100849500D01*
X133664531Y-100849500D01*
X133546318Y-100865062D01*
X133546313Y-100865064D01*
X133399228Y-100925988D01*
X133399227Y-100925988D01*
X133272913Y-101022913D01*
X133175988Y-101149227D01*
X133175988Y-101149228D01*
X133115064Y-101296313D01*
X133115062Y-101296318D01*
X133099500Y-101414531D01*
X133099500Y-101785468D01*
X133115062Y-101903681D01*
X133115064Y-101903686D01*
X133175988Y-102050771D01*
X133175990Y-102050775D01*
X133201577Y-102084121D01*
X133226770Y-102149290D01*
X133212731Y-102217735D01*
X133206304Y-102228495D01*
X133184913Y-102260509D01*
X133128343Y-102397082D01*
X133128340Y-102397092D01*
X133099500Y-102542079D01*
X133099500Y-102542082D01*
X133099500Y-102689918D01*
X133099500Y-102689920D01*
X133099499Y-102689920D01*
X126850500Y-102689920D01*
X126850500Y-99312924D01*
X126870185Y-99245885D01*
X126922989Y-99200130D01*
X126992147Y-99190186D01*
X127055703Y-99219211D01*
X127091540Y-99271968D01*
X127101350Y-99300000D01*
X127142210Y-99416774D01*
X127205045Y-99516774D01*
X127229192Y-99555204D01*
X127344796Y-99670808D01*
X127483225Y-99757789D01*
X127637539Y-99811786D01*
X127637542Y-99811786D01*
X127637544Y-99811787D01*
X127799996Y-99830091D01*
X127800000Y-99830091D01*
X127800004Y-99830091D01*
X127962455Y-99811787D01*
X127962456Y-99811786D01*
X127962461Y-99811786D01*
X128116775Y-99757789D01*
X128255204Y-99670808D01*
X128370808Y-99555204D01*
X128457789Y-99416775D01*
X128511786Y-99262461D01*
X128511787Y-99262455D01*
X128530091Y-99100003D01*
X128530091Y-99099996D01*
X128511787Y-98937544D01*
X128511786Y-98937542D01*
X128511786Y-98937539D01*
X128457789Y-98783225D01*
X128370808Y-98644796D01*
X128326008Y-98599996D01*
X133269909Y-98599996D01*
X133269909Y-98600003D01*
X133288212Y-98762455D01*
X133342210Y-98916774D01*
X133342211Y-98916775D01*
X133429192Y-99055204D01*
X133544796Y-99170808D01*
X133683225Y-99257789D01*
X133837539Y-99311786D01*
X133837542Y-99311786D01*
X133837544Y-99311787D01*
X133999996Y-99330091D01*
X134000000Y-99330091D01*
X134000004Y-99330091D01*
X134162455Y-99311787D01*
X134162456Y-99311786D01*
X134162461Y-99311786D01*
X134316775Y-99257789D01*
X134455204Y-99170808D01*
X134570808Y-99055204D01*
X134657789Y-98916775D01*
X134711786Y-98762461D01*
X134711787Y-98762455D01*
X134730091Y-98600003D01*
X134730091Y-98599996D01*
X134711787Y-98437544D01*
X134711786Y-98437542D01*
X134711786Y-98437539D01*
X134657789Y-98283225D01*
X134570808Y-98144796D01*
X134455204Y-98029192D01*
X134316774Y-97942210D01*
X134162455Y-97888212D01*
X134000004Y-97869909D01*
X133999996Y-97869909D01*
X133837544Y-97888212D01*
X133683225Y-97942210D01*
X133544795Y-98029192D01*
X133429192Y-98144795D01*
X133342210Y-98283225D01*
X133288212Y-98437544D01*
X133269909Y-98599996D01*
X128326008Y-98599996D01*
X128255204Y-98529192D01*
X128160856Y-98469909D01*
X128116774Y-98442210D01*
X127962455Y-98388212D01*
X127800004Y-98369909D01*
X127799996Y-98369909D01*
X127637544Y-98388212D01*
X127483225Y-98442210D01*
X127344795Y-98529192D01*
X127229192Y-98644795D01*
X127142210Y-98783225D01*
X127091542Y-98928029D01*
X127050820Y-98984805D01*
X126985868Y-99010553D01*
X126917306Y-98997097D01*
X126866903Y-98948710D01*
X126850500Y-98887075D01*
X126850500Y-96842082D01*
X126870185Y-96775043D01*
X126922989Y-96729288D01*
X126992147Y-96719344D01*
X127055703Y-96748369D01*
X127079493Y-96776109D01*
X127129192Y-96855204D01*
X127244796Y-96970808D01*
X127383225Y-97057789D01*
X127537539Y-97111786D01*
X127537542Y-97111786D01*
X127537544Y-97111787D01*
X127699996Y-97130091D01*
X127700000Y-97130091D01*
X127700004Y-97130091D01*
X127862455Y-97111787D01*
X127862456Y-97111786D01*
X127862461Y-97111786D01*
X128016775Y-97057789D01*
X128155204Y-96970808D01*
X128270808Y-96855204D01*
X128357789Y-96716775D01*
X128411786Y-96562461D01*
X128411787Y-96562455D01*
X128430091Y-96400003D01*
X128430091Y-96399996D01*
X128411787Y-96237544D01*
X128411786Y-96237542D01*
X128411786Y-96237539D01*
X128357789Y-96083225D01*
X128270808Y-95944796D01*
X128155204Y-95829192D01*
X128060856Y-95769909D01*
X128016774Y-95742210D01*
X127862455Y-95688212D01*
X127700004Y-95669909D01*
X127699996Y-95669909D01*
X127537544Y-95688212D01*
X127383225Y-95742210D01*
X127244795Y-95829192D01*
X127129190Y-95944797D01*
X127079493Y-96023890D01*
X127027158Y-96070180D01*
X126958105Y-96080828D01*
X126894257Y-96052453D01*
X126855885Y-95994063D01*
X126850500Y-95957917D01*
X126850500Y-94154500D01*
X126870185Y-94087461D01*
X126922989Y-94041706D01*
X126974500Y-94030500D01*
X134876000Y-94030500D01*
X134943039Y-94050185D01*
G37*
G04 #@! TD.AperFunction*
M02*
