%TF.GenerationSoftware,KiCad,Pcbnew,8.0.2*%
%TF.CreationDate,2024-10-09T18:55:11-06:00*%
%TF.ProjectId,kicad,6b696361-642e-46b6-9963-61645f706362,rev?*%
%TF.SameCoordinates,Original*%
%TF.FileFunction,Drillmap*%
%TF.FilePolarity,Positive*%
%FSLAX45Y45*%
G04 Gerber Fmt 4.5, Leading zero omitted, Abs format (unit mm)*
G04 Created by KiCad (PCBNEW 8.0.2) date 2024-10-09 18:55:11*
%MOMM*%
%LPD*%
G01*
G04 APERTURE LIST*
%ADD10C,0.050000*%
%ADD11C,0.200000*%
%ADD12C,0.100000*%
G04 APERTURE END LIST*
D10*
X9300000Y-4700000D02*
X19300000Y-4700000D01*
X19300000Y-14700000D01*
X9300000Y-14700000D01*
X9300000Y-4700000D01*
D11*
D12*
X18278500Y-5285500D02*
X18343500Y-5350500D01*
X18343500Y-5285500D02*
X18278500Y-5350500D01*
X18856500Y-5285500D02*
X18921500Y-5350500D01*
X18921500Y-5285500D02*
X18856500Y-5350500D01*
D11*
X9558277Y-15013984D02*
X9558277Y-14813984D01*
X9558277Y-14813984D02*
X9605896Y-14813984D01*
X9605896Y-14813984D02*
X9634467Y-14823508D01*
X9634467Y-14823508D02*
X9653515Y-14842555D01*
X9653515Y-14842555D02*
X9663039Y-14861603D01*
X9663039Y-14861603D02*
X9672563Y-14899698D01*
X9672563Y-14899698D02*
X9672563Y-14928269D01*
X9672563Y-14928269D02*
X9663039Y-14966365D01*
X9663039Y-14966365D02*
X9653515Y-14985412D01*
X9653515Y-14985412D02*
X9634467Y-15004460D01*
X9634467Y-15004460D02*
X9605896Y-15013984D01*
X9605896Y-15013984D02*
X9558277Y-15013984D01*
X9758277Y-15013984D02*
X9758277Y-14880650D01*
X9758277Y-14918746D02*
X9767801Y-14899698D01*
X9767801Y-14899698D02*
X9777324Y-14890174D01*
X9777324Y-14890174D02*
X9796372Y-14880650D01*
X9796372Y-14880650D02*
X9815420Y-14880650D01*
X9882086Y-15013984D02*
X9882086Y-14880650D01*
X9882086Y-14813984D02*
X9872563Y-14823508D01*
X9872563Y-14823508D02*
X9882086Y-14833031D01*
X9882086Y-14833031D02*
X9891610Y-14823508D01*
X9891610Y-14823508D02*
X9882086Y-14813984D01*
X9882086Y-14813984D02*
X9882086Y-14833031D01*
X10005896Y-15013984D02*
X9986848Y-15004460D01*
X9986848Y-15004460D02*
X9977324Y-14985412D01*
X9977324Y-14985412D02*
X9977324Y-14813984D01*
X10110658Y-15013984D02*
X10091610Y-15004460D01*
X10091610Y-15004460D02*
X10082086Y-14985412D01*
X10082086Y-14985412D02*
X10082086Y-14813984D01*
X10339229Y-15013984D02*
X10339229Y-14813984D01*
X10339229Y-14813984D02*
X10405896Y-14956841D01*
X10405896Y-14956841D02*
X10472563Y-14813984D01*
X10472563Y-14813984D02*
X10472563Y-15013984D01*
X10653515Y-15013984D02*
X10653515Y-14909222D01*
X10653515Y-14909222D02*
X10643991Y-14890174D01*
X10643991Y-14890174D02*
X10624944Y-14880650D01*
X10624944Y-14880650D02*
X10586848Y-14880650D01*
X10586848Y-14880650D02*
X10567801Y-14890174D01*
X10653515Y-15004460D02*
X10634467Y-15013984D01*
X10634467Y-15013984D02*
X10586848Y-15013984D01*
X10586848Y-15013984D02*
X10567801Y-15004460D01*
X10567801Y-15004460D02*
X10558277Y-14985412D01*
X10558277Y-14985412D02*
X10558277Y-14966365D01*
X10558277Y-14966365D02*
X10567801Y-14947317D01*
X10567801Y-14947317D02*
X10586848Y-14937793D01*
X10586848Y-14937793D02*
X10634467Y-14937793D01*
X10634467Y-14937793D02*
X10653515Y-14928269D01*
X10748753Y-14880650D02*
X10748753Y-15080650D01*
X10748753Y-14890174D02*
X10767801Y-14880650D01*
X10767801Y-14880650D02*
X10805896Y-14880650D01*
X10805896Y-14880650D02*
X10824944Y-14890174D01*
X10824944Y-14890174D02*
X10834467Y-14899698D01*
X10834467Y-14899698D02*
X10843991Y-14918746D01*
X10843991Y-14918746D02*
X10843991Y-14975888D01*
X10843991Y-14975888D02*
X10834467Y-14994936D01*
X10834467Y-14994936D02*
X10824944Y-15004460D01*
X10824944Y-15004460D02*
X10805896Y-15013984D01*
X10805896Y-15013984D02*
X10767801Y-15013984D01*
X10767801Y-15013984D02*
X10748753Y-15004460D01*
X10929705Y-14994936D02*
X10939229Y-15004460D01*
X10939229Y-15004460D02*
X10929705Y-15013984D01*
X10929705Y-15013984D02*
X10920182Y-15004460D01*
X10920182Y-15004460D02*
X10929705Y-14994936D01*
X10929705Y-14994936D02*
X10929705Y-15013984D01*
X10929705Y-14890174D02*
X10939229Y-14899698D01*
X10939229Y-14899698D02*
X10929705Y-14909222D01*
X10929705Y-14909222D02*
X10920182Y-14899698D01*
X10920182Y-14899698D02*
X10929705Y-14890174D01*
X10929705Y-14890174D02*
X10929705Y-14909222D01*
D12*
X9232500Y-15310000D02*
X9297500Y-15375000D01*
X9297500Y-15310000D02*
X9232500Y-15375000D01*
D11*
X9596372Y-15233984D02*
X9615420Y-15233984D01*
X9615420Y-15233984D02*
X9634467Y-15243508D01*
X9634467Y-15243508D02*
X9643991Y-15253031D01*
X9643991Y-15253031D02*
X9653515Y-15272079D01*
X9653515Y-15272079D02*
X9663039Y-15310174D01*
X9663039Y-15310174D02*
X9663039Y-15357793D01*
X9663039Y-15357793D02*
X9653515Y-15395888D01*
X9653515Y-15395888D02*
X9643991Y-15414936D01*
X9643991Y-15414936D02*
X9634467Y-15424460D01*
X9634467Y-15424460D02*
X9615420Y-15433984D01*
X9615420Y-15433984D02*
X9596372Y-15433984D01*
X9596372Y-15433984D02*
X9577324Y-15424460D01*
X9577324Y-15424460D02*
X9567801Y-15414936D01*
X9567801Y-15414936D02*
X9558277Y-15395888D01*
X9558277Y-15395888D02*
X9548753Y-15357793D01*
X9548753Y-15357793D02*
X9548753Y-15310174D01*
X9548753Y-15310174D02*
X9558277Y-15272079D01*
X9558277Y-15272079D02*
X9567801Y-15253031D01*
X9567801Y-15253031D02*
X9577324Y-15243508D01*
X9577324Y-15243508D02*
X9596372Y-15233984D01*
X9748753Y-15414936D02*
X9758277Y-15424460D01*
X9758277Y-15424460D02*
X9748753Y-15433984D01*
X9748753Y-15433984D02*
X9739229Y-15424460D01*
X9739229Y-15424460D02*
X9748753Y-15414936D01*
X9748753Y-15414936D02*
X9748753Y-15433984D01*
X9929705Y-15233984D02*
X9891610Y-15233984D01*
X9891610Y-15233984D02*
X9872563Y-15243508D01*
X9872563Y-15243508D02*
X9863039Y-15253031D01*
X9863039Y-15253031D02*
X9843991Y-15281603D01*
X9843991Y-15281603D02*
X9834467Y-15319698D01*
X9834467Y-15319698D02*
X9834467Y-15395888D01*
X9834467Y-15395888D02*
X9843991Y-15414936D01*
X9843991Y-15414936D02*
X9853515Y-15424460D01*
X9853515Y-15424460D02*
X9872563Y-15433984D01*
X9872563Y-15433984D02*
X9910658Y-15433984D01*
X9910658Y-15433984D02*
X9929705Y-15424460D01*
X9929705Y-15424460D02*
X9939229Y-15414936D01*
X9939229Y-15414936D02*
X9948753Y-15395888D01*
X9948753Y-15395888D02*
X9948753Y-15348269D01*
X9948753Y-15348269D02*
X9939229Y-15329222D01*
X9939229Y-15329222D02*
X9929705Y-15319698D01*
X9929705Y-15319698D02*
X9910658Y-15310174D01*
X9910658Y-15310174D02*
X9872563Y-15310174D01*
X9872563Y-15310174D02*
X9853515Y-15319698D01*
X9853515Y-15319698D02*
X9843991Y-15329222D01*
X9843991Y-15329222D02*
X9834467Y-15348269D01*
X10129705Y-15233984D02*
X10034467Y-15233984D01*
X10034467Y-15233984D02*
X10024944Y-15329222D01*
X10024944Y-15329222D02*
X10034467Y-15319698D01*
X10034467Y-15319698D02*
X10053515Y-15310174D01*
X10053515Y-15310174D02*
X10101134Y-15310174D01*
X10101134Y-15310174D02*
X10120182Y-15319698D01*
X10120182Y-15319698D02*
X10129705Y-15329222D01*
X10129705Y-15329222D02*
X10139229Y-15348269D01*
X10139229Y-15348269D02*
X10139229Y-15395888D01*
X10139229Y-15395888D02*
X10129705Y-15414936D01*
X10129705Y-15414936D02*
X10120182Y-15424460D01*
X10120182Y-15424460D02*
X10101134Y-15433984D01*
X10101134Y-15433984D02*
X10053515Y-15433984D01*
X10053515Y-15433984D02*
X10034467Y-15424460D01*
X10034467Y-15424460D02*
X10024944Y-15414936D01*
X10263039Y-15233984D02*
X10282086Y-15233984D01*
X10282086Y-15233984D02*
X10301134Y-15243508D01*
X10301134Y-15243508D02*
X10310658Y-15253031D01*
X10310658Y-15253031D02*
X10320182Y-15272079D01*
X10320182Y-15272079D02*
X10329705Y-15310174D01*
X10329705Y-15310174D02*
X10329705Y-15357793D01*
X10329705Y-15357793D02*
X10320182Y-15395888D01*
X10320182Y-15395888D02*
X10310658Y-15414936D01*
X10310658Y-15414936D02*
X10301134Y-15424460D01*
X10301134Y-15424460D02*
X10282086Y-15433984D01*
X10282086Y-15433984D02*
X10263039Y-15433984D01*
X10263039Y-15433984D02*
X10243991Y-15424460D01*
X10243991Y-15424460D02*
X10234467Y-15414936D01*
X10234467Y-15414936D02*
X10224944Y-15395888D01*
X10224944Y-15395888D02*
X10215420Y-15357793D01*
X10215420Y-15357793D02*
X10215420Y-15310174D01*
X10215420Y-15310174D02*
X10224944Y-15272079D01*
X10224944Y-15272079D02*
X10234467Y-15253031D01*
X10234467Y-15253031D02*
X10243991Y-15243508D01*
X10243991Y-15243508D02*
X10263039Y-15233984D01*
X10415420Y-15433984D02*
X10415420Y-15300650D01*
X10415420Y-15319698D02*
X10424944Y-15310174D01*
X10424944Y-15310174D02*
X10443991Y-15300650D01*
X10443991Y-15300650D02*
X10472563Y-15300650D01*
X10472563Y-15300650D02*
X10491610Y-15310174D01*
X10491610Y-15310174D02*
X10501134Y-15329222D01*
X10501134Y-15329222D02*
X10501134Y-15433984D01*
X10501134Y-15329222D02*
X10510658Y-15310174D01*
X10510658Y-15310174D02*
X10529705Y-15300650D01*
X10529705Y-15300650D02*
X10558277Y-15300650D01*
X10558277Y-15300650D02*
X10577325Y-15310174D01*
X10577325Y-15310174D02*
X10586848Y-15329222D01*
X10586848Y-15329222D02*
X10586848Y-15433984D01*
X10682086Y-15433984D02*
X10682086Y-15300650D01*
X10682086Y-15319698D02*
X10691610Y-15310174D01*
X10691610Y-15310174D02*
X10710658Y-15300650D01*
X10710658Y-15300650D02*
X10739229Y-15300650D01*
X10739229Y-15300650D02*
X10758277Y-15310174D01*
X10758277Y-15310174D02*
X10767801Y-15329222D01*
X10767801Y-15329222D02*
X10767801Y-15433984D01*
X10767801Y-15329222D02*
X10777325Y-15310174D01*
X10777325Y-15310174D02*
X10796372Y-15300650D01*
X10796372Y-15300650D02*
X10824944Y-15300650D01*
X10824944Y-15300650D02*
X10843991Y-15310174D01*
X10843991Y-15310174D02*
X10853515Y-15329222D01*
X10853515Y-15329222D02*
X10853515Y-15433984D01*
X11243991Y-15224460D02*
X11072563Y-15481603D01*
X11501134Y-15233984D02*
X11520182Y-15233984D01*
X11520182Y-15233984D02*
X11539229Y-15243508D01*
X11539229Y-15243508D02*
X11548753Y-15253031D01*
X11548753Y-15253031D02*
X11558277Y-15272079D01*
X11558277Y-15272079D02*
X11567801Y-15310174D01*
X11567801Y-15310174D02*
X11567801Y-15357793D01*
X11567801Y-15357793D02*
X11558277Y-15395888D01*
X11558277Y-15395888D02*
X11548753Y-15414936D01*
X11548753Y-15414936D02*
X11539229Y-15424460D01*
X11539229Y-15424460D02*
X11520182Y-15433984D01*
X11520182Y-15433984D02*
X11501134Y-15433984D01*
X11501134Y-15433984D02*
X11482086Y-15424460D01*
X11482086Y-15424460D02*
X11472563Y-15414936D01*
X11472563Y-15414936D02*
X11463039Y-15395888D01*
X11463039Y-15395888D02*
X11453515Y-15357793D01*
X11453515Y-15357793D02*
X11453515Y-15310174D01*
X11453515Y-15310174D02*
X11463039Y-15272079D01*
X11463039Y-15272079D02*
X11472563Y-15253031D01*
X11472563Y-15253031D02*
X11482086Y-15243508D01*
X11482086Y-15243508D02*
X11501134Y-15233984D01*
X11653515Y-15414936D02*
X11663039Y-15424460D01*
X11663039Y-15424460D02*
X11653515Y-15433984D01*
X11653515Y-15433984D02*
X11643991Y-15424460D01*
X11643991Y-15424460D02*
X11653515Y-15414936D01*
X11653515Y-15414936D02*
X11653515Y-15433984D01*
X11786848Y-15233984D02*
X11805896Y-15233984D01*
X11805896Y-15233984D02*
X11824944Y-15243508D01*
X11824944Y-15243508D02*
X11834467Y-15253031D01*
X11834467Y-15253031D02*
X11843991Y-15272079D01*
X11843991Y-15272079D02*
X11853515Y-15310174D01*
X11853515Y-15310174D02*
X11853515Y-15357793D01*
X11853515Y-15357793D02*
X11843991Y-15395888D01*
X11843991Y-15395888D02*
X11834467Y-15414936D01*
X11834467Y-15414936D02*
X11824944Y-15424460D01*
X11824944Y-15424460D02*
X11805896Y-15433984D01*
X11805896Y-15433984D02*
X11786848Y-15433984D01*
X11786848Y-15433984D02*
X11767801Y-15424460D01*
X11767801Y-15424460D02*
X11758277Y-15414936D01*
X11758277Y-15414936D02*
X11748753Y-15395888D01*
X11748753Y-15395888D02*
X11739229Y-15357793D01*
X11739229Y-15357793D02*
X11739229Y-15310174D01*
X11739229Y-15310174D02*
X11748753Y-15272079D01*
X11748753Y-15272079D02*
X11758277Y-15253031D01*
X11758277Y-15253031D02*
X11767801Y-15243508D01*
X11767801Y-15243508D02*
X11786848Y-15233984D01*
X11929706Y-15253031D02*
X11939229Y-15243508D01*
X11939229Y-15243508D02*
X11958277Y-15233984D01*
X11958277Y-15233984D02*
X12005896Y-15233984D01*
X12005896Y-15233984D02*
X12024944Y-15243508D01*
X12024944Y-15243508D02*
X12034467Y-15253031D01*
X12034467Y-15253031D02*
X12043991Y-15272079D01*
X12043991Y-15272079D02*
X12043991Y-15291127D01*
X12043991Y-15291127D02*
X12034467Y-15319698D01*
X12034467Y-15319698D02*
X11920182Y-15433984D01*
X11920182Y-15433984D02*
X12043991Y-15433984D01*
X12224944Y-15233984D02*
X12129706Y-15233984D01*
X12129706Y-15233984D02*
X12120182Y-15329222D01*
X12120182Y-15329222D02*
X12129706Y-15319698D01*
X12129706Y-15319698D02*
X12148753Y-15310174D01*
X12148753Y-15310174D02*
X12196372Y-15310174D01*
X12196372Y-15310174D02*
X12215420Y-15319698D01*
X12215420Y-15319698D02*
X12224944Y-15329222D01*
X12224944Y-15329222D02*
X12234467Y-15348269D01*
X12234467Y-15348269D02*
X12234467Y-15395888D01*
X12234467Y-15395888D02*
X12224944Y-15414936D01*
X12224944Y-15414936D02*
X12215420Y-15424460D01*
X12215420Y-15424460D02*
X12196372Y-15433984D01*
X12196372Y-15433984D02*
X12148753Y-15433984D01*
X12148753Y-15433984D02*
X12129706Y-15424460D01*
X12129706Y-15424460D02*
X12120182Y-15414936D01*
X12405896Y-15233984D02*
X12367801Y-15233984D01*
X12367801Y-15233984D02*
X12348753Y-15243508D01*
X12348753Y-15243508D02*
X12339229Y-15253031D01*
X12339229Y-15253031D02*
X12320182Y-15281603D01*
X12320182Y-15281603D02*
X12310658Y-15319698D01*
X12310658Y-15319698D02*
X12310658Y-15395888D01*
X12310658Y-15395888D02*
X12320182Y-15414936D01*
X12320182Y-15414936D02*
X12329706Y-15424460D01*
X12329706Y-15424460D02*
X12348753Y-15433984D01*
X12348753Y-15433984D02*
X12386848Y-15433984D01*
X12386848Y-15433984D02*
X12405896Y-15424460D01*
X12405896Y-15424460D02*
X12415420Y-15414936D01*
X12415420Y-15414936D02*
X12424944Y-15395888D01*
X12424944Y-15395888D02*
X12424944Y-15348269D01*
X12424944Y-15348269D02*
X12415420Y-15329222D01*
X12415420Y-15329222D02*
X12405896Y-15319698D01*
X12405896Y-15319698D02*
X12386848Y-15310174D01*
X12386848Y-15310174D02*
X12348753Y-15310174D01*
X12348753Y-15310174D02*
X12329706Y-15319698D01*
X12329706Y-15319698D02*
X12320182Y-15329222D01*
X12320182Y-15329222D02*
X12310658Y-15348269D01*
X12501134Y-15233984D02*
X12501134Y-15272079D01*
X12577325Y-15233984D02*
X12577325Y-15272079D01*
X12872563Y-15510174D02*
X12863039Y-15500650D01*
X12863039Y-15500650D02*
X12843991Y-15472079D01*
X12843991Y-15472079D02*
X12834468Y-15453031D01*
X12834468Y-15453031D02*
X12824944Y-15424460D01*
X12824944Y-15424460D02*
X12815420Y-15376841D01*
X12815420Y-15376841D02*
X12815420Y-15338746D01*
X12815420Y-15338746D02*
X12824944Y-15291127D01*
X12824944Y-15291127D02*
X12834468Y-15262555D01*
X12834468Y-15262555D02*
X12843991Y-15243508D01*
X12843991Y-15243508D02*
X12863039Y-15214936D01*
X12863039Y-15214936D02*
X12872563Y-15205412D01*
X12939229Y-15253031D02*
X12948753Y-15243508D01*
X12948753Y-15243508D02*
X12967801Y-15233984D01*
X12967801Y-15233984D02*
X13015420Y-15233984D01*
X13015420Y-15233984D02*
X13034468Y-15243508D01*
X13034468Y-15243508D02*
X13043991Y-15253031D01*
X13043991Y-15253031D02*
X13053515Y-15272079D01*
X13053515Y-15272079D02*
X13053515Y-15291127D01*
X13053515Y-15291127D02*
X13043991Y-15319698D01*
X13043991Y-15319698D02*
X12929706Y-15433984D01*
X12929706Y-15433984D02*
X13053515Y-15433984D01*
X13291610Y-15433984D02*
X13291610Y-15233984D01*
X13377325Y-15433984D02*
X13377325Y-15329222D01*
X13377325Y-15329222D02*
X13367801Y-15310174D01*
X13367801Y-15310174D02*
X13348753Y-15300650D01*
X13348753Y-15300650D02*
X13320182Y-15300650D01*
X13320182Y-15300650D02*
X13301134Y-15310174D01*
X13301134Y-15310174D02*
X13291610Y-15319698D01*
X13501134Y-15433984D02*
X13482087Y-15424460D01*
X13482087Y-15424460D02*
X13472563Y-15414936D01*
X13472563Y-15414936D02*
X13463039Y-15395888D01*
X13463039Y-15395888D02*
X13463039Y-15338746D01*
X13463039Y-15338746D02*
X13472563Y-15319698D01*
X13472563Y-15319698D02*
X13482087Y-15310174D01*
X13482087Y-15310174D02*
X13501134Y-15300650D01*
X13501134Y-15300650D02*
X13529706Y-15300650D01*
X13529706Y-15300650D02*
X13548753Y-15310174D01*
X13548753Y-15310174D02*
X13558277Y-15319698D01*
X13558277Y-15319698D02*
X13567801Y-15338746D01*
X13567801Y-15338746D02*
X13567801Y-15395888D01*
X13567801Y-15395888D02*
X13558277Y-15414936D01*
X13558277Y-15414936D02*
X13548753Y-15424460D01*
X13548753Y-15424460D02*
X13529706Y-15433984D01*
X13529706Y-15433984D02*
X13501134Y-15433984D01*
X13682087Y-15433984D02*
X13663039Y-15424460D01*
X13663039Y-15424460D02*
X13653515Y-15405412D01*
X13653515Y-15405412D02*
X13653515Y-15233984D01*
X13834468Y-15424460D02*
X13815420Y-15433984D01*
X13815420Y-15433984D02*
X13777325Y-15433984D01*
X13777325Y-15433984D02*
X13758277Y-15424460D01*
X13758277Y-15424460D02*
X13748753Y-15405412D01*
X13748753Y-15405412D02*
X13748753Y-15329222D01*
X13748753Y-15329222D02*
X13758277Y-15310174D01*
X13758277Y-15310174D02*
X13777325Y-15300650D01*
X13777325Y-15300650D02*
X13815420Y-15300650D01*
X13815420Y-15300650D02*
X13834468Y-15310174D01*
X13834468Y-15310174D02*
X13843991Y-15329222D01*
X13843991Y-15329222D02*
X13843991Y-15348269D01*
X13843991Y-15348269D02*
X13748753Y-15367317D01*
X13920182Y-15424460D02*
X13939230Y-15433984D01*
X13939230Y-15433984D02*
X13977325Y-15433984D01*
X13977325Y-15433984D02*
X13996372Y-15424460D01*
X13996372Y-15424460D02*
X14005896Y-15405412D01*
X14005896Y-15405412D02*
X14005896Y-15395888D01*
X14005896Y-15395888D02*
X13996372Y-15376841D01*
X13996372Y-15376841D02*
X13977325Y-15367317D01*
X13977325Y-15367317D02*
X13948753Y-15367317D01*
X13948753Y-15367317D02*
X13929706Y-15357793D01*
X13929706Y-15357793D02*
X13920182Y-15338746D01*
X13920182Y-15338746D02*
X13920182Y-15329222D01*
X13920182Y-15329222D02*
X13929706Y-15310174D01*
X13929706Y-15310174D02*
X13948753Y-15300650D01*
X13948753Y-15300650D02*
X13977325Y-15300650D01*
X13977325Y-15300650D02*
X13996372Y-15310174D01*
X14072563Y-15510174D02*
X14082087Y-15500650D01*
X14082087Y-15500650D02*
X14101134Y-15472079D01*
X14101134Y-15472079D02*
X14110658Y-15453031D01*
X14110658Y-15453031D02*
X14120182Y-15424460D01*
X14120182Y-15424460D02*
X14129706Y-15376841D01*
X14129706Y-15376841D02*
X14129706Y-15338746D01*
X14129706Y-15338746D02*
X14120182Y-15291127D01*
X14120182Y-15291127D02*
X14110658Y-15262555D01*
X14110658Y-15262555D02*
X14101134Y-15243508D01*
X14101134Y-15243508D02*
X14082087Y-15214936D01*
X14082087Y-15214936D02*
X14072563Y-15205412D01*
X14434468Y-15510174D02*
X14424944Y-15500650D01*
X14424944Y-15500650D02*
X14405896Y-15472079D01*
X14405896Y-15472079D02*
X14396372Y-15453031D01*
X14396372Y-15453031D02*
X14386849Y-15424460D01*
X14386849Y-15424460D02*
X14377325Y-15376841D01*
X14377325Y-15376841D02*
X14377325Y-15338746D01*
X14377325Y-15338746D02*
X14386849Y-15291127D01*
X14386849Y-15291127D02*
X14396372Y-15262555D01*
X14396372Y-15262555D02*
X14405896Y-15243508D01*
X14405896Y-15243508D02*
X14424944Y-15214936D01*
X14424944Y-15214936D02*
X14434468Y-15205412D01*
X14510658Y-15300650D02*
X14510658Y-15433984D01*
X14510658Y-15319698D02*
X14520182Y-15310174D01*
X14520182Y-15310174D02*
X14539230Y-15300650D01*
X14539230Y-15300650D02*
X14567801Y-15300650D01*
X14567801Y-15300650D02*
X14586849Y-15310174D01*
X14586849Y-15310174D02*
X14596372Y-15329222D01*
X14596372Y-15329222D02*
X14596372Y-15433984D01*
X14720182Y-15433984D02*
X14701134Y-15424460D01*
X14701134Y-15424460D02*
X14691611Y-15414936D01*
X14691611Y-15414936D02*
X14682087Y-15395888D01*
X14682087Y-15395888D02*
X14682087Y-15338746D01*
X14682087Y-15338746D02*
X14691611Y-15319698D01*
X14691611Y-15319698D02*
X14701134Y-15310174D01*
X14701134Y-15310174D02*
X14720182Y-15300650D01*
X14720182Y-15300650D02*
X14748753Y-15300650D01*
X14748753Y-15300650D02*
X14767801Y-15310174D01*
X14767801Y-15310174D02*
X14777325Y-15319698D01*
X14777325Y-15319698D02*
X14786849Y-15338746D01*
X14786849Y-15338746D02*
X14786849Y-15395888D01*
X14786849Y-15395888D02*
X14777325Y-15414936D01*
X14777325Y-15414936D02*
X14767801Y-15424460D01*
X14767801Y-15424460D02*
X14748753Y-15433984D01*
X14748753Y-15433984D02*
X14720182Y-15433984D01*
X14843992Y-15300650D02*
X14920182Y-15300650D01*
X14872563Y-15233984D02*
X14872563Y-15405412D01*
X14872563Y-15405412D02*
X14882087Y-15424460D01*
X14882087Y-15424460D02*
X14901134Y-15433984D01*
X14901134Y-15433984D02*
X14920182Y-15433984D01*
X15139230Y-15300650D02*
X15139230Y-15500650D01*
X15139230Y-15310174D02*
X15158277Y-15300650D01*
X15158277Y-15300650D02*
X15196373Y-15300650D01*
X15196373Y-15300650D02*
X15215420Y-15310174D01*
X15215420Y-15310174D02*
X15224944Y-15319698D01*
X15224944Y-15319698D02*
X15234468Y-15338746D01*
X15234468Y-15338746D02*
X15234468Y-15395888D01*
X15234468Y-15395888D02*
X15224944Y-15414936D01*
X15224944Y-15414936D02*
X15215420Y-15424460D01*
X15215420Y-15424460D02*
X15196373Y-15433984D01*
X15196373Y-15433984D02*
X15158277Y-15433984D01*
X15158277Y-15433984D02*
X15139230Y-15424460D01*
X15348753Y-15433984D02*
X15329706Y-15424460D01*
X15329706Y-15424460D02*
X15320182Y-15405412D01*
X15320182Y-15405412D02*
X15320182Y-15233984D01*
X15510658Y-15433984D02*
X15510658Y-15329222D01*
X15510658Y-15329222D02*
X15501134Y-15310174D01*
X15501134Y-15310174D02*
X15482087Y-15300650D01*
X15482087Y-15300650D02*
X15443992Y-15300650D01*
X15443992Y-15300650D02*
X15424944Y-15310174D01*
X15510658Y-15424460D02*
X15491611Y-15433984D01*
X15491611Y-15433984D02*
X15443992Y-15433984D01*
X15443992Y-15433984D02*
X15424944Y-15424460D01*
X15424944Y-15424460D02*
X15415420Y-15405412D01*
X15415420Y-15405412D02*
X15415420Y-15386365D01*
X15415420Y-15386365D02*
X15424944Y-15367317D01*
X15424944Y-15367317D02*
X15443992Y-15357793D01*
X15443992Y-15357793D02*
X15491611Y-15357793D01*
X15491611Y-15357793D02*
X15510658Y-15348269D01*
X15577325Y-15300650D02*
X15653515Y-15300650D01*
X15605896Y-15233984D02*
X15605896Y-15405412D01*
X15605896Y-15405412D02*
X15615420Y-15424460D01*
X15615420Y-15424460D02*
X15634468Y-15433984D01*
X15634468Y-15433984D02*
X15653515Y-15433984D01*
X15796373Y-15424460D02*
X15777325Y-15433984D01*
X15777325Y-15433984D02*
X15739230Y-15433984D01*
X15739230Y-15433984D02*
X15720182Y-15424460D01*
X15720182Y-15424460D02*
X15710658Y-15405412D01*
X15710658Y-15405412D02*
X15710658Y-15329222D01*
X15710658Y-15329222D02*
X15720182Y-15310174D01*
X15720182Y-15310174D02*
X15739230Y-15300650D01*
X15739230Y-15300650D02*
X15777325Y-15300650D01*
X15777325Y-15300650D02*
X15796373Y-15310174D01*
X15796373Y-15310174D02*
X15805896Y-15329222D01*
X15805896Y-15329222D02*
X15805896Y-15348269D01*
X15805896Y-15348269D02*
X15710658Y-15367317D01*
X15977325Y-15433984D02*
X15977325Y-15233984D01*
X15977325Y-15424460D02*
X15958277Y-15433984D01*
X15958277Y-15433984D02*
X15920182Y-15433984D01*
X15920182Y-15433984D02*
X15901134Y-15424460D01*
X15901134Y-15424460D02*
X15891611Y-15414936D01*
X15891611Y-15414936D02*
X15882087Y-15395888D01*
X15882087Y-15395888D02*
X15882087Y-15338746D01*
X15882087Y-15338746D02*
X15891611Y-15319698D01*
X15891611Y-15319698D02*
X15901134Y-15310174D01*
X15901134Y-15310174D02*
X15920182Y-15300650D01*
X15920182Y-15300650D02*
X15958277Y-15300650D01*
X15958277Y-15300650D02*
X15977325Y-15310174D01*
X16053515Y-15510174D02*
X16063039Y-15500650D01*
X16063039Y-15500650D02*
X16082087Y-15472079D01*
X16082087Y-15472079D02*
X16091611Y-15453031D01*
X16091611Y-15453031D02*
X16101134Y-15424460D01*
X16101134Y-15424460D02*
X16110658Y-15376841D01*
X16110658Y-15376841D02*
X16110658Y-15338746D01*
X16110658Y-15338746D02*
X16101134Y-15291127D01*
X16101134Y-15291127D02*
X16091611Y-15262555D01*
X16091611Y-15262555D02*
X16082087Y-15243508D01*
X16082087Y-15243508D02*
X16063039Y-15214936D01*
X16063039Y-15214936D02*
X16053515Y-15205412D01*
M02*
