M48
; DRILL file {KiCad 8.0.2} date 2025-05-08T21:28:41-0600
; FORMAT={-:-/ absolute / metric / decimal}
; #@! TF.CreationDate,2025-05-08T21:28:41-06:00
; #@! TF.GenerationSoftware,Kicad,Pcbnew,8.0.2
; #@! TF.FileFunction,Plated,1,4,PTH
FMAT,2
METRIC
; #@! TA.AperFunction,Plated,PTH,ViaDrill
T1C0.200
; #@! TA.AperFunction,Plated,PTH,ComponentDrill
T2C0.300
; #@! TA.AperFunction,Plated,PTH,ComponentDrill
T3C0.600
; #@! TA.AperFunction,Plated,PTH,ComponentDrill
T4C0.750
; #@! TA.AperFunction,Plated,PTH,ComponentDrill
T5C0.889
%
G90
G05
T1
X127.375Y-128.475
X127.4Y-125.5
X127.45Y-96.3
X127.45Y-99.25
X128.225Y-101.225
X129.65Y-119.875
X129.65Y-112.0
X129.721Y-104.854
X130.45Y-111.727
X130.5Y-123.75
X130.6Y-126.025
X131.325Y-129.125
X131.333Y-121.667
X132.175Y-99.25
X132.833Y-123.733
X133.0Y-125.35
X133.2Y-110.1
X133.325Y-100.495
X133.35Y-119.175
X133.567Y-113.183
X133.725Y-121.35
X133.75Y-111.25
X133.814Y-104.25
X134.0Y-98.625
X134.3Y-123.825
X134.496Y-110.143
X134.5Y-121.425
X134.507Y-104.943
X134.525Y-129.15
X134.557Y-107.993
X134.575Y-112.95
X134.587Y-108.588
X134.6Y-117.95
X134.975Y-122.15
X135.5Y-100.5
X135.525Y-110.075
X135.575Y-102.525
X135.7Y-114.825
X136.075Y-102.1
X136.155Y-118.93
X136.325Y-115.0
X136.725Y-104.65
X136.8Y-111.725
X136.875Y-118.95
X137.275Y-109.6
X137.373Y-111.727
X137.375Y-106.825
X137.375Y-110.751
X137.375Y-111.25
X137.4Y-110.3
X137.45Y-104.25
X137.577Y-101.475
X137.689Y-115.764
X137.745Y-103.62
X137.875Y-118.975
X138.5Y-102.25
X138.521Y-116.346
X138.775Y-118.9
X138.9Y-106.45
X138.974Y-122.901
X139.225Y-100.55
X139.225Y-116.65
X139.25Y-105.725
X139.475Y-123.025
X139.9Y-118.975
X140.308Y-115.942
X140.775Y-122.925
X141.1Y-101.95
X141.241Y-123.018
X141.6Y-106.025
X142.05Y-111.2
X142.72Y-121.5
X142.784Y-118.795
X143.32Y-121.05
X143.45Y-104.236
X144.025Y-119.6
X144.139Y-116.445
X144.25Y-104.575
X144.715Y-105.354
X144.725Y-122.85
X145.15Y-119.2
X145.305Y-105.33
X145.65Y-106.25
X146.025Y-115.325
X146.2Y-106.25
X146.275Y-104.925
X146.6Y-116.7
X146.625Y-104.125
X146.65Y-111.5
X146.821Y-106.25
X146.825Y-128.649
X146.85Y-112.8
X146.908Y-110.036
X147.433Y-108.947
X147.629Y-117.9
X147.708Y-111.025
X147.876Y-129.026
X148.8Y-123.137
X149.286Y-123.394
X149.431Y-106.115
X149.83Y-105.295
X150.0Y-115.785
X150.375Y-123.6
X150.9Y-114.7
X151.075Y-109.525
X151.1Y-108.7
X151.114Y-105.236
X151.175Y-117.225
X151.181Y-110.5
X151.301Y-109.13
X151.396Y-106.705
X151.425Y-123.6
X151.525Y-129.925
X152.025Y-112.0
X152.2Y-113.25
X152.364Y-111.436
X152.4Y-102.9
X152.425Y-123.6
X152.7Y-129.925
X152.725Y-119.4
X152.875Y-115.475
X152.95Y-116.95
X153.017Y-110.925
X153.625Y-103.414
X153.675Y-109.0
X153.75Y-118.3
X153.775Y-113.225
X153.8Y-114.9
X154.075Y-102.175
X154.225Y-121.025
X154.875Y-111.925
X154.875Y-119.5
X155.025Y-126.275
X155.89Y-111.38
X156.225Y-121.975
X156.5Y-119.7
X156.775Y-102.775
X156.83Y-122.992
X157.05Y-104.775
X157.1Y-119.725
X157.5Y-128.425
X157.525Y-123.275
X157.55Y-96.3
X157.55Y-99.275
X157.74Y-113.32
T2
X134.0Y-101.6
X134.0Y-102.616
X136.15Y-99.625
T4
X156.5Y-108.0
X156.5Y-110.0
T5
X156.75Y-114.569
X156.75Y-117.566
T3
X128.15Y-111.752G85X127.35Y-111.752
G05
X128.15Y-120.392G85X127.35Y-120.392
G05
X132.48Y-111.752G85X131.38Y-111.752
G05
X132.48Y-120.392G85X131.38Y-120.392
G05
M30
