G04 #@! TF.GenerationSoftware,KiCad,Pcbnew,8.0.2*
G04 #@! TF.CreationDate,2025-03-06T10:36:10-07:00*
G04 #@! TF.ProjectId,kicad,6b696361-642e-46b6-9963-61645f706362,4*
G04 #@! TF.SameCoordinates,Original*
G04 #@! TF.FileFunction,Copper,L1,Top*
G04 #@! TF.FilePolarity,Positive*
%FSLAX46Y46*%
G04 Gerber Fmt 4.6, Leading zero omitted, Abs format (unit mm)*
G04 Created by KiCad (PCBNEW 8.0.2) date 2025-03-06 10:36:10*
%MOMM*%
%LPD*%
G01*
G04 APERTURE LIST*
G04 Aperture macros list*
%AMRoundRect*
0 Rectangle with rounded corners*
0 $1 Rounding radius*
0 $2 $3 $4 $5 $6 $7 $8 $9 X,Y pos of 4 corners*
0 Add a 4 corners polygon primitive as box body*
4,1,4,$2,$3,$4,$5,$6,$7,$8,$9,$2,$3,0*
0 Add four circle primitives for the rounded corners*
1,1,$1+$1,$2,$3*
1,1,$1+$1,$4,$5*
1,1,$1+$1,$6,$7*
1,1,$1+$1,$8,$9*
0 Add four rect primitives between the rounded corners*
20,1,$1+$1,$2,$3,$4,$5,0*
20,1,$1+$1,$4,$5,$6,$7,0*
20,1,$1+$1,$6,$7,$8,$9,0*
20,1,$1+$1,$8,$9,$2,$3,0*%
G04 Aperture macros list end*
G04 #@! TA.AperFunction,EtchedComponent*
%ADD10C,0.000000*%
G04 #@! TD*
G04 #@! TA.AperFunction,SMDPad,CuDef*
%ADD11RoundRect,0.135000X0.135000X0.185000X-0.135000X0.185000X-0.135000X-0.185000X0.135000X-0.185000X0*%
G04 #@! TD*
G04 #@! TA.AperFunction,SMDPad,CuDef*
%ADD12R,1.000000X1.550000*%
G04 #@! TD*
G04 #@! TA.AperFunction,SMDPad,CuDef*
%ADD13R,0.990600X2.692400*%
G04 #@! TD*
G04 #@! TA.AperFunction,SMDPad,CuDef*
%ADD14C,1.000000*%
G04 #@! TD*
G04 #@! TA.AperFunction,SMDPad,CuDef*
%ADD15RoundRect,0.140000X-0.170000X0.140000X-0.170000X-0.140000X0.170000X-0.140000X0.170000X0.140000X0*%
G04 #@! TD*
G04 #@! TA.AperFunction,SMDPad,CuDef*
%ADD16RoundRect,0.218750X0.256250X-0.218750X0.256250X0.218750X-0.256250X0.218750X-0.256250X-0.218750X0*%
G04 #@! TD*
G04 #@! TA.AperFunction,SMDPad,CuDef*
%ADD17RoundRect,0.135000X0.185000X-0.135000X0.185000X0.135000X-0.185000X0.135000X-0.185000X-0.135000X0*%
G04 #@! TD*
G04 #@! TA.AperFunction,SMDPad,CuDef*
%ADD18RoundRect,0.150000X-0.200000X0.150000X-0.200000X-0.150000X0.200000X-0.150000X0.200000X0.150000X0*%
G04 #@! TD*
G04 #@! TA.AperFunction,ComponentPad*
%ADD19RoundRect,0.104167X-0.295833X0.145833X-0.295833X-0.145833X0.295833X-0.145833X0.295833X0.145833X0*%
G04 #@! TD*
G04 #@! TA.AperFunction,ComponentPad*
%ADD20O,0.800000X0.500000*%
G04 #@! TD*
G04 #@! TA.AperFunction,SMDPad,CuDef*
%ADD21R,1.150000X0.600000*%
G04 #@! TD*
G04 #@! TA.AperFunction,SMDPad,CuDef*
%ADD22R,1.150000X0.300000*%
G04 #@! TD*
G04 #@! TA.AperFunction,ComponentPad*
%ADD23O,2.100000X1.000000*%
G04 #@! TD*
G04 #@! TA.AperFunction,ComponentPad*
%ADD24O,1.800000X1.000000*%
G04 #@! TD*
G04 #@! TA.AperFunction,ComponentPad*
%ADD25RoundRect,0.250000X-0.625000X0.350000X-0.625000X-0.350000X0.625000X-0.350000X0.625000X0.350000X0*%
G04 #@! TD*
G04 #@! TA.AperFunction,ComponentPad*
%ADD26O,1.750000X1.200000*%
G04 #@! TD*
G04 #@! TA.AperFunction,SMDPad,CuDef*
%ADD27RoundRect,0.062500X0.400000X0.062500X-0.400000X0.062500X-0.400000X-0.062500X0.400000X-0.062500X0*%
G04 #@! TD*
G04 #@! TA.AperFunction,SMDPad,CuDef*
%ADD28RoundRect,0.062500X0.062500X0.400000X-0.062500X0.400000X-0.062500X-0.400000X0.062500X-0.400000X0*%
G04 #@! TD*
G04 #@! TA.AperFunction,HeatsinkPad*
%ADD29R,6.400000X6.400000*%
G04 #@! TD*
G04 #@! TA.AperFunction,SMDPad,CuDef*
%ADD30RoundRect,0.140000X0.170000X-0.140000X0.170000X0.140000X-0.170000X0.140000X-0.170000X-0.140000X0*%
G04 #@! TD*
G04 #@! TA.AperFunction,SMDPad,CuDef*
%ADD31RoundRect,0.250000X-0.250000X-0.475000X0.250000X-0.475000X0.250000X0.475000X-0.250000X0.475000X0*%
G04 #@! TD*
G04 #@! TA.AperFunction,SMDPad,CuDef*
%ADD32RoundRect,0.140000X-0.140000X-0.170000X0.140000X-0.170000X0.140000X0.170000X-0.140000X0.170000X0*%
G04 #@! TD*
G04 #@! TA.AperFunction,SMDPad,CuDef*
%ADD33RoundRect,0.225000X0.375000X-0.225000X0.375000X0.225000X-0.375000X0.225000X-0.375000X-0.225000X0*%
G04 #@! TD*
G04 #@! TA.AperFunction,SMDPad,CuDef*
%ADD34RoundRect,0.135000X-0.185000X0.135000X-0.185000X-0.135000X0.185000X-0.135000X0.185000X0.135000X0*%
G04 #@! TD*
G04 #@! TA.AperFunction,SMDPad,CuDef*
%ADD35RoundRect,0.225000X0.225000X0.375000X-0.225000X0.375000X-0.225000X-0.375000X0.225000X-0.375000X0*%
G04 #@! TD*
G04 #@! TA.AperFunction,SMDPad,CuDef*
%ADD36RoundRect,0.140000X0.140000X0.170000X-0.140000X0.170000X-0.140000X-0.170000X0.140000X-0.170000X0*%
G04 #@! TD*
G04 #@! TA.AperFunction,SMDPad,CuDef*
%ADD37RoundRect,0.147500X-0.147500X-0.172500X0.147500X-0.172500X0.147500X0.172500X-0.147500X0.172500X0*%
G04 #@! TD*
G04 #@! TA.AperFunction,SMDPad,CuDef*
%ADD38RoundRect,0.100000X0.100000X-0.155000X0.100000X0.155000X-0.100000X0.155000X-0.100000X-0.155000X0*%
G04 #@! TD*
G04 #@! TA.AperFunction,SMDPad,CuDef*
%ADD39RoundRect,0.135000X-0.135000X-0.185000X0.135000X-0.185000X0.135000X0.185000X-0.135000X0.185000X0*%
G04 #@! TD*
G04 #@! TA.AperFunction,SMDPad,CuDef*
%ADD40R,0.950000X0.350000*%
G04 #@! TD*
G04 #@! TA.AperFunction,SMDPad,CuDef*
%ADD41R,0.350000X0.950000*%
G04 #@! TD*
G04 #@! TA.AperFunction,ConnectorPad*
%ADD42R,0.500000X0.500000*%
G04 #@! TD*
G04 #@! TA.AperFunction,ComponentPad*
%ADD43R,0.900000X0.500000*%
G04 #@! TD*
G04 #@! TA.AperFunction,SMDPad,CuDef*
%ADD44RoundRect,0.150000X-0.512500X-0.150000X0.512500X-0.150000X0.512500X0.150000X-0.512500X0.150000X0*%
G04 #@! TD*
G04 #@! TA.AperFunction,SMDPad,CuDef*
%ADD45RoundRect,0.250000X0.250000X0.475000X-0.250000X0.475000X-0.250000X-0.475000X0.250000X-0.475000X0*%
G04 #@! TD*
G04 #@! TA.AperFunction,SMDPad,CuDef*
%ADD46RoundRect,0.112500X0.237500X-0.112500X0.237500X0.112500X-0.237500X0.112500X-0.237500X-0.112500X0*%
G04 #@! TD*
G04 #@! TA.AperFunction,SMDPad,CuDef*
%ADD47R,0.304800X0.254000*%
G04 #@! TD*
G04 #@! TA.AperFunction,SMDPad,CuDef*
%ADD48R,0.812800X0.990600*%
G04 #@! TD*
G04 #@! TA.AperFunction,ComponentPad*
%ADD49C,1.397000*%
G04 #@! TD*
G04 #@! TA.AperFunction,SMDPad,CuDef*
%ADD50R,1.498600X0.711200*%
G04 #@! TD*
G04 #@! TA.AperFunction,SMDPad,CuDef*
%ADD51R,0.203200X0.762000*%
G04 #@! TD*
G04 #@! TA.AperFunction,SMDPad,CuDef*
%ADD52R,1.600200X0.990600*%
G04 #@! TD*
G04 #@! TA.AperFunction,SMDPad,CuDef*
%ADD53RoundRect,0.150000X0.200000X-0.150000X0.200000X0.150000X-0.200000X0.150000X-0.200000X-0.150000X0*%
G04 #@! TD*
G04 #@! TA.AperFunction,SMDPad,CuDef*
%ADD54R,0.330200X0.812800*%
G04 #@! TD*
G04 #@! TA.AperFunction,SMDPad,CuDef*
%ADD55R,0.406400X0.812800*%
G04 #@! TD*
G04 #@! TA.AperFunction,SMDPad,CuDef*
%ADD56R,0.750000X0.850000*%
G04 #@! TD*
G04 #@! TA.AperFunction,ViaPad*
%ADD57C,0.250000*%
G04 #@! TD*
G04 #@! TA.AperFunction,ViaPad*
%ADD58C,0.450000*%
G04 #@! TD*
G04 #@! TA.AperFunction,Conductor*
%ADD59C,0.100000*%
G04 #@! TD*
G04 #@! TA.AperFunction,Conductor*
%ADD60C,0.150000*%
G04 #@! TD*
G04 APERTURE END LIST*
D10*
G04 #@! TA.AperFunction,EtchedComponent*
G36*
X140700000Y-97115000D02*
G01*
X142700000Y-97115000D01*
X142700000Y-94475000D01*
X145400000Y-94475000D01*
X145400000Y-97115000D01*
X147400000Y-97115000D01*
X147400000Y-94475000D01*
X150100000Y-94475000D01*
X150100000Y-98915000D01*
X149600000Y-98915000D01*
X149600000Y-94975000D01*
X147900000Y-94975000D01*
X147900000Y-97615000D01*
X144900000Y-97615000D01*
X144900000Y-94975000D01*
X143200000Y-94975000D01*
X143200000Y-97615000D01*
X140200000Y-97615000D01*
X140200000Y-94975000D01*
X138500000Y-94975000D01*
X138500000Y-99875000D01*
X138000000Y-99875000D01*
X138000000Y-94975000D01*
X136600000Y-94975000D01*
X136600000Y-99875000D01*
X135700000Y-99875000D01*
X135700000Y-99631785D01*
X136002417Y-99631785D01*
X136012258Y-99679395D01*
X136036326Y-99721797D01*
X136074269Y-99754581D01*
X136082181Y-99758935D01*
X136124844Y-99771043D01*
X136173363Y-99770300D01*
X136218878Y-99757400D01*
X136237489Y-99746787D01*
X136271132Y-99711553D01*
X136291691Y-99666368D01*
X136298222Y-99616842D01*
X136289782Y-99568583D01*
X136272888Y-99536357D01*
X136237628Y-99503687D01*
X136192318Y-99483592D01*
X136142733Y-99477018D01*
X136094647Y-99484908D01*
X136061755Y-99501814D01*
X136026815Y-99538584D01*
X136007153Y-99583378D01*
X136002417Y-99631785D01*
X135700000Y-99631785D01*
X135700000Y-94475000D01*
X140700000Y-94475000D01*
X140700000Y-97115000D01*
G37*
G04 #@! TD.AperFunction*
D11*
X147710000Y-103000000D03*
X146690000Y-103000000D03*
D12*
X157539000Y-129628500D03*
X157539000Y-124378500D03*
X155839000Y-129628500D03*
X155839000Y-124378500D03*
D13*
X149707800Y-119400000D03*
X151892200Y-119400000D03*
D14*
X152500000Y-101500000D03*
D15*
X152300000Y-116000000D03*
X152300000Y-116960000D03*
D16*
X131300000Y-129912000D03*
X131300000Y-128337000D03*
D17*
X150500000Y-105770000D03*
X150500000Y-104750000D03*
D18*
X134600000Y-113650000D03*
X134600000Y-112250000D03*
D19*
X134000000Y-101600000D03*
D20*
X134000000Y-102616000D03*
D21*
X132505000Y-112872500D03*
X132505000Y-113672500D03*
D22*
X132505000Y-114822500D03*
X132505000Y-115822500D03*
X132505000Y-116322500D03*
X132505000Y-117322500D03*
D21*
X132505000Y-118472500D03*
X132505000Y-119272500D03*
X132505000Y-119272500D03*
X132505000Y-118472500D03*
D22*
X132505000Y-117822500D03*
X132505000Y-116822500D03*
X132505000Y-115322500D03*
X132505000Y-114322500D03*
D21*
X132505000Y-113672500D03*
X132505000Y-112872500D03*
D23*
X131930000Y-111752500D03*
D24*
X127750000Y-111752500D03*
D23*
X131930000Y-120392500D03*
D24*
X127750000Y-120392500D03*
D11*
X149820000Y-103000000D03*
X148800000Y-103000000D03*
D14*
X145000000Y-101500000D03*
D25*
X156500000Y-108000000D03*
D26*
X156500000Y-110000000D03*
D27*
X145937500Y-114400000D03*
X145937500Y-114000000D03*
X145937500Y-113600000D03*
X145937500Y-113200000D03*
X145937500Y-112800000D03*
X145937500Y-112400000D03*
X145937500Y-112000000D03*
X145937500Y-111600000D03*
X145937500Y-111200000D03*
X145937500Y-110800000D03*
X145937500Y-110400000D03*
X145937500Y-110000000D03*
X145937500Y-109600000D03*
X145937500Y-109200000D03*
X145937500Y-108800000D03*
X145937500Y-108400000D03*
X145937500Y-108000000D03*
D28*
X145250000Y-107312500D03*
X144850000Y-107312500D03*
X144450000Y-107312500D03*
X144050000Y-107312500D03*
X143650000Y-107312500D03*
X143250000Y-107312500D03*
X142850000Y-107312500D03*
X142450000Y-107312500D03*
X142050000Y-107312500D03*
X141650000Y-107312500D03*
X141250000Y-107312500D03*
X140850000Y-107312500D03*
X140450000Y-107312500D03*
X140050000Y-107312500D03*
X139650000Y-107312500D03*
X139250000Y-107312500D03*
X138850000Y-107312500D03*
D27*
X138162500Y-108000000D03*
X138162500Y-108400000D03*
X138162500Y-108800000D03*
X138162500Y-109200000D03*
X138162500Y-109600000D03*
X138162500Y-110000000D03*
X138162500Y-110400000D03*
X138162500Y-110800000D03*
X138162500Y-111200000D03*
X138162500Y-111600000D03*
X138162500Y-112000000D03*
X138162500Y-112400000D03*
X138162500Y-112800000D03*
X138162500Y-113200000D03*
X138162500Y-113600000D03*
X138162500Y-114000000D03*
X138162500Y-114400000D03*
D28*
X138850000Y-115087500D03*
X139250000Y-115087500D03*
X139650000Y-115087500D03*
X140050000Y-115087500D03*
X140450000Y-115087500D03*
X140850000Y-115087500D03*
X141250000Y-115087500D03*
X141650000Y-115087500D03*
X142050000Y-115087500D03*
X142450000Y-115087500D03*
X142850000Y-115087500D03*
X143250000Y-115087500D03*
X143650000Y-115087500D03*
X144050000Y-115087500D03*
X144450000Y-115087500D03*
X144850000Y-115087500D03*
X145250000Y-115087500D03*
D29*
X142050000Y-111200000D03*
D30*
X153150000Y-103880000D03*
X153150000Y-102920000D03*
D18*
X136400000Y-115700000D03*
X136400000Y-114300000D03*
D16*
X150438000Y-129912000D03*
X150438000Y-128337000D03*
D31*
X155300000Y-122000000D03*
X157200000Y-122000000D03*
D32*
X147400000Y-114500000D03*
X148360000Y-114500000D03*
D33*
X141600000Y-120450000D03*
X141600000Y-117150000D03*
D34*
X144500000Y-119090000D03*
X144500000Y-120110000D03*
X133800000Y-119690000D03*
X133800000Y-120710000D03*
D35*
X139650000Y-117730000D03*
X136350000Y-117730000D03*
D15*
X135880000Y-119520000D03*
X135880000Y-120480000D03*
D36*
X138280000Y-100600000D03*
X137320000Y-100600000D03*
D37*
X139315000Y-101400000D03*
X140285000Y-101400000D03*
D34*
X152460000Y-121960000D03*
X152460000Y-122980000D03*
D15*
X137900000Y-119520000D03*
X137900000Y-120480000D03*
D30*
X140950000Y-106060000D03*
X140950000Y-105100000D03*
D14*
X147500000Y-101500000D03*
D38*
X149100000Y-104155000D03*
X148100000Y-104155000D03*
X148600000Y-105445000D03*
D39*
X133990000Y-114750000D03*
X135010000Y-114750000D03*
D36*
X155730000Y-102000000D03*
X154770000Y-102000000D03*
D34*
X152250000Y-126990000D03*
X152250000Y-128010000D03*
D14*
X150000000Y-101500000D03*
D15*
X136880000Y-119520000D03*
X136880000Y-120480000D03*
D34*
X133000000Y-125980000D03*
X133000000Y-127000000D03*
D11*
X151260000Y-127000000D03*
X150240000Y-127000000D03*
D34*
X130600000Y-100640000D03*
X130600000Y-101660000D03*
D17*
X151750000Y-105760000D03*
X151750000Y-104740000D03*
D40*
X138650000Y-104650000D03*
X138650000Y-104000000D03*
X138650000Y-103350000D03*
D41*
X137900000Y-102600000D03*
X137250000Y-102600000D03*
X136600000Y-102600000D03*
D40*
X135850000Y-103350000D03*
X135850000Y-104000000D03*
X135850000Y-104650000D03*
D41*
X136600000Y-105400000D03*
X137250000Y-105400000D03*
X137900000Y-105400000D03*
D32*
X147620000Y-107300000D03*
X148580000Y-107300000D03*
D17*
X131250000Y-124760000D03*
X131250000Y-123740000D03*
D42*
X138250000Y-99625000D03*
D43*
X136150000Y-99625000D03*
D30*
X149000000Y-110480000D03*
X149000000Y-109520000D03*
D39*
X153240000Y-126250000D03*
X154260000Y-126250000D03*
D44*
X154612500Y-103550000D03*
X154612500Y-104500000D03*
X154612500Y-105450000D03*
X156887500Y-105450000D03*
X156887500Y-103550000D03*
D34*
X142950000Y-104740000D03*
X142950000Y-105760000D03*
D14*
X151400000Y-103200000D03*
D34*
X132600000Y-100640000D03*
X132600000Y-101660000D03*
D35*
X150950000Y-116300000D03*
X147650000Y-116300000D03*
D12*
X157539000Y-100407000D03*
X157539000Y-95157000D03*
X155839000Y-100407000D03*
X155839000Y-95157000D03*
D45*
X145550000Y-117500000D03*
X143650000Y-117500000D03*
D32*
X147620000Y-108250000D03*
X148580000Y-108250000D03*
D46*
X147900000Y-120550000D03*
X147900000Y-119250000D03*
X145900000Y-119900000D03*
D11*
X157760000Y-102000000D03*
X156740000Y-102000000D03*
D30*
X150400000Y-122990000D03*
X150400000Y-122030000D03*
X134750000Y-120730000D03*
X134750000Y-119770000D03*
D12*
X127401000Y-95150000D03*
X127401000Y-100400000D03*
X129101000Y-95150000D03*
X129101000Y-100400000D03*
D47*
X140200000Y-102626002D03*
X140200000Y-103213001D03*
X140200000Y-103800000D03*
X140708000Y-103800000D03*
X140708000Y-103213001D03*
X140708000Y-102626002D03*
D17*
X151500000Y-112510000D03*
X151500000Y-111490000D03*
D14*
X153950000Y-124500000D03*
D48*
X157850000Y-119722480D03*
X157850000Y-112422520D03*
X155650000Y-112422520D03*
X155650000Y-119722480D03*
D49*
X156750000Y-117566020D03*
X156750000Y-114568820D03*
D50*
X155040400Y-118315320D03*
X155040400Y-115330820D03*
X155040400Y-113832220D03*
D30*
X150250000Y-110500000D03*
X150250000Y-109540000D03*
D51*
X151699900Y-109981200D03*
X152099950Y-109981200D03*
X152500000Y-109981200D03*
X152900050Y-109981200D03*
X153300100Y-109981200D03*
X153300100Y-107619000D03*
X152900050Y-107619000D03*
X152500000Y-107619000D03*
X152099950Y-107619000D03*
X151699900Y-107619000D03*
D52*
X152500000Y-108800100D03*
D12*
X127399000Y-124371500D03*
X127399000Y-129621500D03*
X129099000Y-124371500D03*
X129099000Y-129621500D03*
D14*
X150900000Y-125100000D03*
D32*
X148020000Y-112000000D03*
X148980000Y-112000000D03*
D39*
X127240000Y-102000000D03*
X128260000Y-102000000D03*
D32*
X133040000Y-99400000D03*
X134000000Y-99400000D03*
D36*
X136850000Y-110600000D03*
X135890000Y-110600000D03*
D53*
X134600000Y-117200000D03*
X134600000Y-118600000D03*
D34*
X131250000Y-125990000D03*
X131250000Y-127010000D03*
D15*
X154200000Y-111600000D03*
X154200000Y-112560000D03*
X150500000Y-111520000D03*
X150500000Y-112480000D03*
D30*
X154200000Y-120430000D03*
X154200000Y-119470000D03*
D34*
X131600000Y-100640000D03*
X131600000Y-101660000D03*
D15*
X134300000Y-122180000D03*
X134300000Y-123140000D03*
D34*
X143500000Y-119100000D03*
X143500000Y-120120000D03*
D54*
X148219999Y-122156000D03*
X147719998Y-122156000D03*
X147219999Y-122156000D03*
X146719997Y-122156000D03*
X146219998Y-122156000D03*
X145719999Y-122156000D03*
X145219998Y-122156000D03*
X144719999Y-122156000D03*
X144219997Y-122156000D03*
X143719998Y-122156000D03*
X143219999Y-122156000D03*
X142719998Y-122156000D03*
X142219998Y-122156000D03*
X141719997Y-122156000D03*
X141219998Y-122156000D03*
X140719999Y-122156000D03*
X140219997Y-122156000D03*
X139719998Y-122156000D03*
X139219997Y-122156000D03*
X138719998Y-122156000D03*
X138219999Y-122156000D03*
X137719997Y-122156000D03*
X137219998Y-122156000D03*
X136719999Y-122156000D03*
D55*
X135720001Y-124656000D03*
X149219999Y-124656000D03*
D16*
X134500000Y-129912000D03*
X134500000Y-128337000D03*
X153638000Y-129912000D03*
X153638000Y-128337000D03*
D17*
X151460000Y-123000000D03*
X151460000Y-121980000D03*
D56*
X136725000Y-108475000D03*
X136725000Y-107125000D03*
X135675000Y-107125000D03*
X135675000Y-108475000D03*
D15*
X138900000Y-119520000D03*
X138900000Y-120480000D03*
X150250000Y-107520000D03*
X150250000Y-108480000D03*
D14*
X142450000Y-101500000D03*
D15*
X139900000Y-119520000D03*
X139900000Y-120480000D03*
D17*
X153000000Y-105760000D03*
X153000000Y-104740000D03*
D57*
X151485000Y-109000000D03*
D58*
X157300000Y-128400000D03*
X127800000Y-99100000D03*
X157600000Y-96500000D03*
X156700000Y-120800000D03*
D57*
X139200000Y-122900000D03*
X150100000Y-116200000D03*
D58*
X135300000Y-112900000D03*
X136100000Y-102100000D03*
X132000000Y-121300000D03*
X134000000Y-98600000D03*
X142100000Y-111200000D03*
X137500000Y-101575000D03*
X134600000Y-121400000D03*
D57*
X137900000Y-118900000D03*
X135200000Y-110000000D03*
X151200000Y-113950003D03*
D58*
X135200000Y-118000000D03*
D57*
X150656059Y-104256059D03*
D58*
X157600000Y-99200000D03*
D57*
X137500000Y-107000000D03*
X154100000Y-109900000D03*
X153615284Y-103421423D03*
X140300000Y-121400000D03*
X152500000Y-104200000D03*
D58*
X152700000Y-129800000D03*
X141100000Y-101700000D03*
D57*
X150000000Y-109000000D03*
D58*
X132300000Y-129800000D03*
X134500000Y-123900000D03*
D57*
X151100000Y-108800000D03*
X144700000Y-122800000D03*
D58*
X143500000Y-102200000D03*
D57*
X136000000Y-108000000D03*
X146600000Y-103500000D03*
X156917745Y-104717745D03*
X138900000Y-118900000D03*
D58*
X156800000Y-120100000D03*
X157300000Y-123200000D03*
D57*
X147958015Y-111400000D03*
X151300000Y-123600000D03*
X152300000Y-123600000D03*
X151200000Y-109400000D03*
X139900000Y-118900000D03*
X150300000Y-123600000D03*
D58*
X133500000Y-129800000D03*
X133700000Y-121400000D03*
D57*
X139650000Y-106500000D03*
X154000000Y-113200000D03*
D58*
X127800000Y-128100000D03*
D57*
X136900000Y-118900000D03*
D58*
X152950000Y-116900000D03*
D57*
X154100000Y-102000000D03*
X148500000Y-104500000D03*
D58*
X135600000Y-102838559D03*
X127700000Y-96400000D03*
X135500000Y-115200000D03*
X127600000Y-123000000D03*
X151500000Y-129700000D03*
D57*
X133300000Y-119100000D03*
X152100000Y-104200000D03*
D58*
X135900000Y-113500000D03*
X153850000Y-118700000D03*
X133392894Y-113150000D03*
D57*
X136300000Y-118900000D03*
X150685000Y-113100000D03*
X153600000Y-110937200D03*
X150050000Y-106305000D03*
D58*
X129531931Y-105018069D03*
X133650000Y-111350000D03*
X133150000Y-110000000D03*
D57*
X145600000Y-104800000D03*
X149300000Y-123100000D03*
X147700000Y-117900000D03*
X147400000Y-106600000D03*
X145200000Y-118500000D03*
X147221113Y-106242227D03*
X143300000Y-120900000D03*
X147200000Y-105800000D03*
X148800000Y-123100000D03*
X145300000Y-105800000D03*
X142719998Y-121500000D03*
X147200000Y-105399997D03*
X146558016Y-108818801D03*
X139000000Y-102750000D03*
X133800002Y-104235686D03*
X137150000Y-104500000D03*
X147333462Y-110187702D03*
X146708383Y-109189465D03*
X134457154Y-104892840D03*
X136736382Y-104677265D03*
X137343233Y-111756767D03*
X137400000Y-110400000D03*
X137399175Y-111229326D03*
X147908015Y-107775000D03*
X152900000Y-119300000D03*
X157745000Y-102700000D03*
X151500000Y-112100000D03*
X137375001Y-110825454D03*
D58*
X138586081Y-102387821D03*
X127600000Y-102800000D03*
X156800000Y-112100000D03*
X152950000Y-116000000D03*
X152400000Y-126200000D03*
X132200000Y-99300000D03*
X130400000Y-125800000D03*
D57*
X146700000Y-110700000D03*
X155300000Y-120800000D03*
X141584579Y-106164480D03*
D58*
X130400000Y-125100000D03*
X154100000Y-121200000D03*
D57*
X154500000Y-112000000D03*
X147908015Y-112707670D03*
X142900000Y-119600000D03*
X143600000Y-104600000D03*
X144100000Y-119600000D03*
D58*
X133300000Y-100600000D03*
D57*
X152407843Y-102792157D03*
X140800000Y-122800000D03*
X138800000Y-106400000D03*
X140049999Y-115761971D03*
X146900000Y-114600000D03*
D58*
X133600000Y-122300000D03*
D57*
X141200000Y-122900000D03*
D58*
X153500000Y-101500000D03*
D57*
X150500000Y-102800000D03*
D58*
X134406067Y-108477989D03*
X134556931Y-110043069D03*
D57*
X142350000Y-100400000D03*
X135800000Y-100500000D03*
X130781196Y-105418804D03*
X145916431Y-103435687D03*
D58*
X133800000Y-109850000D03*
X136535485Y-111314515D03*
D57*
X154050000Y-107450000D03*
X146558015Y-111600000D03*
X147908015Y-109288114D03*
X151100000Y-108000000D03*
X151570721Y-106879279D03*
X146681714Y-101368513D03*
X137800000Y-115400000D03*
X153709889Y-110552588D03*
X152400000Y-111300000D03*
X147900000Y-113400000D03*
X150221881Y-113732822D03*
X150685000Y-110915002D03*
X153600000Y-109250000D03*
X151485000Y-110650000D03*
X148800000Y-101600000D03*
X140300000Y-116500000D03*
X146100000Y-115800000D03*
X152200000Y-114600000D03*
X148200000Y-102000000D03*
X153500000Y-111800000D03*
X132832843Y-123817157D03*
X130450000Y-112450000D03*
X135900000Y-109300000D03*
X133017157Y-125132843D03*
X136450000Y-109600000D03*
X129650000Y-119000000D03*
X146985086Y-128649500D03*
X131232843Y-121567157D03*
X147826059Y-129076059D03*
X129650001Y-111770710D03*
X144200000Y-115850000D03*
X150279657Y-114429657D03*
X152313173Y-113913173D03*
X147408015Y-113750000D03*
X149900000Y-106900000D03*
X149900000Y-110958710D03*
D59*
X135880000Y-119520000D02*
X135880000Y-119320000D01*
D60*
X142450000Y-101500000D02*
X142800000Y-101500000D01*
X136725000Y-107125000D02*
X137375000Y-107125000D01*
D59*
X135880000Y-119320000D02*
X136300000Y-118900000D01*
D60*
X141650000Y-110800000D02*
X142050000Y-111200000D01*
X157177520Y-119722480D02*
X156800000Y-120100000D01*
X148980000Y-112380000D02*
X149954988Y-113354988D01*
X150780000Y-108480000D02*
X151100000Y-108800000D01*
X146690000Y-103410000D02*
X146600000Y-103500000D01*
X140708000Y-103800000D02*
X140708000Y-103213001D01*
X136400000Y-114300000D02*
X136400000Y-114000000D01*
X133612000Y-129912000D02*
X133500000Y-129800000D01*
X153000000Y-104700000D02*
X152500000Y-104200000D01*
X157539000Y-100407000D02*
X157539000Y-99261000D01*
X157539000Y-129628500D02*
X157539000Y-128639000D01*
X157539000Y-124378500D02*
X157539000Y-123439000D01*
X140157599Y-103213001D02*
X140200000Y-103213001D01*
X127401000Y-95150000D02*
X127401000Y-96101000D01*
X151200000Y-113950003D02*
X151200000Y-114004289D01*
X135675000Y-108475000D02*
X135675000Y-108325000D01*
X137320000Y-100600000D02*
X137320000Y-101395000D01*
X153000000Y-104740000D02*
X153000000Y-104700000D01*
X148580000Y-108250000D02*
X148580000Y-107300000D01*
X149480000Y-109520000D02*
X150000000Y-109000000D01*
X134300000Y-123140000D02*
X134300000Y-123700000D01*
X152900050Y-109200150D02*
X152500000Y-108800100D01*
X139650000Y-106500000D02*
X139650000Y-103720600D01*
X154612500Y-104500000D02*
X153770000Y-104500000D01*
D59*
X136880000Y-118920000D02*
X136900000Y-118900000D01*
D60*
X154770000Y-102000000D02*
X154100000Y-102000000D01*
X135675000Y-108325000D02*
X136000000Y-108000000D01*
X147608015Y-109163849D02*
X147608015Y-109412379D01*
X150250000Y-108480000D02*
X150780000Y-108480000D01*
X140950000Y-105100000D02*
X140950000Y-104042000D01*
X150250000Y-109540000D02*
X151060000Y-109540000D01*
X148931886Y-109588114D02*
X149000000Y-109520000D01*
X140708000Y-103213001D02*
X140708000Y-102626002D01*
X151460000Y-123000000D02*
X151460000Y-123440000D01*
X152460000Y-123440000D02*
X152300000Y-123600000D01*
X154200000Y-113000000D02*
X154000000Y-113200000D01*
X156887500Y-104747990D02*
X156917745Y-104717745D01*
X151460000Y-123440000D02*
X151300000Y-123600000D01*
X148660000Y-114800000D02*
X148360000Y-114500000D01*
X150500000Y-104412118D02*
X150656059Y-104256059D01*
X152812000Y-129912000D02*
X152700000Y-129800000D01*
X152300000Y-116960000D02*
X152890000Y-116960000D01*
X151200000Y-113049314D02*
X151200000Y-113950003D01*
X140200000Y-103213001D02*
X140708000Y-103213001D01*
X135850000Y-103088559D02*
X135600000Y-102838559D01*
X152500000Y-108800100D02*
X151684900Y-108800100D01*
X153770000Y-104500000D02*
X153150000Y-103880000D01*
X152900050Y-109981200D02*
X152900050Y-109200150D01*
X150404289Y-114800000D02*
X148660000Y-114800000D01*
X147608015Y-109412379D02*
X147783750Y-109588114D01*
X153638000Y-129912000D02*
X152812000Y-129912000D01*
X132188000Y-129912000D02*
X132300000Y-129800000D01*
X151288000Y-129912000D02*
X151500000Y-129700000D01*
X127401000Y-96101000D02*
X127700000Y-96400000D01*
X133127500Y-119272500D02*
X133300000Y-119100000D01*
X127399000Y-129621500D02*
X127399000Y-128501000D01*
X151750000Y-104550000D02*
X152100000Y-104200000D01*
X154200000Y-112560000D02*
X154200000Y-113000000D01*
X157539000Y-95157000D02*
X157539000Y-96439000D01*
X140708000Y-102092000D02*
X141100000Y-101700000D01*
X136600000Y-102600000D02*
X136100000Y-102100000D01*
X149954988Y-113354988D02*
X150445012Y-113354988D01*
X127401000Y-99499000D02*
X127800000Y-99100000D01*
X133115394Y-112872500D02*
X133392894Y-113150000D01*
X133800000Y-121300000D02*
X133700000Y-121400000D01*
X137375000Y-107125000D02*
X137500000Y-107000000D01*
X150950000Y-116300000D02*
X150200000Y-116300000D01*
X134500000Y-129912000D02*
X133612000Y-129912000D01*
X152460000Y-122980000D02*
X152460000Y-123440000D01*
X150400000Y-122990000D02*
X150400000Y-123500000D01*
X146690000Y-103000000D02*
X146690000Y-103410000D01*
X154200000Y-119470000D02*
X154200000Y-119050000D01*
D59*
X136880000Y-119520000D02*
X136880000Y-118920000D01*
D60*
X139219997Y-122880003D02*
X139200000Y-122900000D01*
X140950000Y-104042000D02*
X140708000Y-103800000D01*
X148100000Y-104155000D02*
X148155000Y-104155000D01*
X135850000Y-103350000D02*
X135850000Y-103088559D01*
X132505000Y-112872500D02*
X133115394Y-112872500D01*
X156887500Y-105450000D02*
X156887500Y-104747990D01*
X139650000Y-107312500D02*
X139650000Y-106500000D01*
X134600000Y-118600000D02*
X135200000Y-118000000D01*
X152500000Y-109181100D02*
X153300100Y-109981200D01*
X127399000Y-124371500D02*
X127399000Y-123201000D01*
X157539000Y-128639000D02*
X157300000Y-128400000D01*
X134750000Y-121250000D02*
X134600000Y-121400000D01*
X134650000Y-112250000D02*
X135300000Y-112900000D01*
X153300100Y-109981200D02*
X154018800Y-109981200D01*
X131300000Y-129912000D02*
X132188000Y-129912000D01*
X150500000Y-112480000D02*
X150630686Y-112480000D01*
X154200000Y-119050000D02*
X153850000Y-118700000D01*
X136400000Y-114000000D02*
X135900000Y-113500000D01*
X134000000Y-99400000D02*
X134000000Y-98600000D01*
X150200000Y-116300000D02*
X150100000Y-116200000D01*
X151040028Y-113950003D02*
X151200000Y-113950003D01*
X135800000Y-110600000D02*
X135200000Y-110000000D01*
X144719999Y-122156000D02*
X144719999Y-122780001D01*
X133800000Y-120710000D02*
X133800000Y-121300000D01*
X152500000Y-108800100D02*
X152500000Y-109181100D01*
X148980000Y-112000000D02*
X148980000Y-112380000D01*
X157539000Y-123439000D02*
X157300000Y-123200000D01*
X157539000Y-96439000D02*
X157600000Y-96500000D01*
X152900050Y-109981200D02*
X153300100Y-109981200D01*
X151684900Y-108800100D02*
X151485000Y-109000000D01*
X138162500Y-110800000D02*
X141650000Y-110800000D01*
X153156707Y-103880000D02*
X153615284Y-103421423D01*
X149000000Y-109520000D02*
X149480000Y-109520000D01*
X140219997Y-122156000D02*
X140219997Y-121480003D01*
X127399000Y-123201000D02*
X127600000Y-123000000D01*
D59*
X139900000Y-119520000D02*
X139900000Y-118900000D01*
D60*
X137320000Y-101395000D02*
X137500000Y-101575000D01*
X150500000Y-104750000D02*
X150500000Y-104412118D01*
X134600000Y-112250000D02*
X134650000Y-112250000D01*
X157850000Y-119722480D02*
X157177520Y-119722480D01*
X151200000Y-114004289D02*
X150404289Y-114800000D01*
X148980000Y-112000000D02*
X148380000Y-111400000D01*
X157200000Y-121300000D02*
X156700000Y-120800000D01*
X157200000Y-122000000D02*
X157200000Y-121300000D01*
X150438000Y-129912000D02*
X151288000Y-129912000D01*
X140708000Y-102626002D02*
X140708000Y-102092000D01*
X147783750Y-109588114D02*
X148931886Y-109588114D01*
X131930000Y-121230000D02*
X132000000Y-121300000D01*
X152890000Y-116960000D02*
X152950000Y-116900000D01*
X135050000Y-114750000D02*
X135500000Y-115200000D01*
X148521864Y-108250000D02*
X147608015Y-109163849D01*
X157539000Y-99261000D02*
X157600000Y-99200000D01*
X151750000Y-104740000D02*
X151750000Y-104550000D01*
X150630686Y-112480000D02*
X151200000Y-113049314D01*
X132505000Y-119272500D02*
X133127500Y-119272500D01*
X127399000Y-128501000D02*
X127800000Y-128100000D01*
X142050000Y-111200000D02*
X142100000Y-111200000D01*
X150400000Y-123500000D02*
X150300000Y-123600000D01*
X139650000Y-103720600D02*
X140157599Y-103213001D01*
X127401000Y-100400000D02*
X127401000Y-99499000D01*
X139219997Y-122156000D02*
X139219997Y-122880003D01*
X140219997Y-121480003D02*
X140300000Y-121400000D01*
D59*
X138900000Y-119520000D02*
X138900000Y-118900000D01*
D60*
X144719999Y-122780001D02*
X144700000Y-122800000D01*
X135010000Y-114750000D02*
X135050000Y-114750000D01*
X148380000Y-111400000D02*
X147958015Y-111400000D01*
X131930000Y-120392500D02*
X131930000Y-121230000D01*
X135890000Y-110600000D02*
X135800000Y-110600000D01*
X137900000Y-119520000D02*
X137900000Y-118900000D01*
X134300000Y-123700000D02*
X134500000Y-123900000D01*
X134750000Y-120730000D02*
X134750000Y-121250000D01*
X154018800Y-109981200D02*
X154100000Y-109900000D01*
X148580000Y-108250000D02*
X148521864Y-108250000D01*
X150445012Y-113354988D02*
X151040028Y-113950003D01*
X151060000Y-109540000D02*
X151200000Y-109400000D01*
X142800000Y-101500000D02*
X143500000Y-102200000D01*
X148155000Y-104155000D02*
X148500000Y-104500000D01*
X153150000Y-103880000D02*
X153156707Y-103880000D01*
X150500000Y-111520000D02*
X149775000Y-112245000D01*
X154899075Y-109600925D02*
X156500000Y-108000000D01*
X149775000Y-112245000D02*
X149775000Y-112655780D01*
X149775000Y-112655780D02*
X150219220Y-113100000D01*
X154419431Y-110926800D02*
X154899075Y-110447156D01*
X152099950Y-109981200D02*
X152099950Y-110607125D01*
X152099950Y-110607125D02*
X152419625Y-110926800D01*
X152419625Y-110926800D02*
X154419431Y-110926800D01*
X150219220Y-113100000D02*
X150685000Y-113100000D01*
X154899075Y-110447156D02*
X154899075Y-109600925D01*
X156887500Y-104182304D02*
X156050000Y-105019804D01*
X157650000Y-110422520D02*
X155650000Y-112422520D01*
X157495000Y-106895000D02*
X157650000Y-107050000D01*
X156050000Y-105880196D02*
X157064804Y-106895000D01*
X157064804Y-106895000D02*
X157495000Y-106895000D01*
X156887500Y-103550000D02*
X156887500Y-104182304D01*
X156887500Y-103550000D02*
X155730000Y-102392500D01*
X156050000Y-105019804D02*
X156050000Y-105880196D01*
X155730000Y-102392500D02*
X155730000Y-102000000D01*
X157650000Y-107050000D02*
X157650000Y-110422520D01*
X139507600Y-124000001D02*
X138219999Y-122712400D01*
X153450001Y-124000001D02*
X139507600Y-124000001D01*
X139900000Y-120480000D02*
X139445000Y-120025000D01*
X138219999Y-121619999D02*
X138219999Y-122156000D01*
X137415000Y-120815000D02*
X138219999Y-121619999D01*
X139445000Y-120025000D02*
X137595642Y-120025000D01*
X141600000Y-120450000D02*
X139930000Y-120450000D01*
X139930000Y-120450000D02*
X139900000Y-120480000D01*
X137595642Y-120025000D02*
X137415000Y-120205642D01*
X137415000Y-120205642D02*
X137415000Y-120815000D01*
X153950000Y-124500000D02*
X153450001Y-124000001D01*
X138219999Y-122712400D02*
X138219999Y-122156000D01*
X142850000Y-118400000D02*
X141600000Y-117150000D01*
X149707800Y-119400000D02*
X147807800Y-117500000D01*
X145550000Y-119550000D02*
X145550000Y-117500000D01*
X144650000Y-118400000D02*
X142850000Y-118400000D01*
X145900000Y-119900000D02*
X145550000Y-119550000D01*
X147807800Y-117500000D02*
X145550000Y-117500000D01*
X145550000Y-117500000D02*
X144650000Y-118400000D01*
X142675000Y-116525000D02*
X143650000Y-117500000D01*
X140855000Y-116525000D02*
X142675000Y-116525000D01*
X143650000Y-117500000D02*
X144850000Y-116300000D01*
X139650000Y-117730000D02*
X140855000Y-116525000D01*
X144850000Y-116300000D02*
X147650000Y-116300000D01*
X135390398Y-120410398D02*
X134750000Y-119770000D01*
X137219998Y-122577501D02*
X137060099Y-122737400D01*
X137060099Y-122737400D02*
X136379899Y-122737400D01*
X135390398Y-121747899D02*
X135390398Y-120410398D01*
X136379899Y-122737400D02*
X135390398Y-121747899D01*
X150762600Y-125237400D02*
X150900000Y-125100000D01*
X137219998Y-122156000D02*
X137219998Y-122712400D01*
X137219998Y-122156000D02*
X137219998Y-122577501D01*
X136350000Y-118170000D02*
X134750000Y-119770000D01*
X137219998Y-122712400D02*
X139744998Y-125237400D01*
X139744998Y-125237400D02*
X150762600Y-125237400D01*
X136350000Y-117730000D02*
X136350000Y-118170000D01*
X138900000Y-120480000D02*
X139719998Y-121299998D01*
X139719998Y-121299998D02*
X139719998Y-122156000D01*
X138719998Y-121299998D02*
X138719998Y-122156000D01*
X137900000Y-120480000D02*
X138719998Y-121299998D01*
X136880000Y-120480000D02*
X136880000Y-120633553D01*
X137719997Y-121473550D02*
X137719997Y-122156000D01*
X136880000Y-120633553D02*
X137719997Y-121473550D01*
X136719999Y-122156000D02*
X136719999Y-121319999D01*
X136719999Y-121319999D02*
X135880000Y-120480000D01*
X146219998Y-122712400D02*
X146219998Y-122156000D01*
X150400000Y-122030000D02*
X149692600Y-122737400D01*
X146244998Y-122737400D02*
X146219998Y-122712400D01*
X149692600Y-122737400D02*
X146244998Y-122737400D01*
X131250000Y-127010000D02*
X131250000Y-128287000D01*
X131250000Y-128287000D02*
X131300000Y-128337000D01*
X133163000Y-127000000D02*
X134500000Y-128337000D01*
X133000000Y-127000000D02*
X133163000Y-127000000D01*
X150438000Y-128337000D02*
X150438000Y-127198000D01*
X150438000Y-127198000D02*
X150240000Y-127000000D01*
X132505000Y-118472500D02*
X131780000Y-118472500D01*
X150250000Y-106505000D02*
X150050000Y-106305000D01*
X132527500Y-113650000D02*
X132505000Y-113672500D01*
X150050000Y-106305000D02*
X150100000Y-106355000D01*
X133650000Y-112700000D02*
X134600000Y-113650000D01*
X133650000Y-111350000D02*
X133650000Y-112700000D01*
X150250000Y-107520000D02*
X150173015Y-107520000D01*
X150250000Y-107520000D02*
X150250000Y-106505000D01*
X131555000Y-118247500D02*
X131555000Y-114197500D01*
X131780000Y-118472500D02*
X131555000Y-118247500D01*
X131555000Y-114197500D02*
X132080000Y-113672500D01*
X151699900Y-107574145D02*
X151699900Y-107619000D01*
X129531931Y-106381931D02*
X129700000Y-106550000D01*
X129700000Y-106550000D02*
X133150000Y-110000000D01*
X150100000Y-106355000D02*
X150480755Y-106355000D01*
X134600000Y-113650000D02*
X132527500Y-113650000D01*
X129531931Y-105018069D02*
X129531931Y-106381931D01*
X150480755Y-106355000D02*
X151699900Y-107574145D01*
X132080000Y-113672500D02*
X132505000Y-113672500D01*
X138250000Y-100570000D02*
X138280000Y-100600000D01*
X138515000Y-100600000D02*
X139315000Y-101400000D01*
X138280000Y-100600000D02*
X138515000Y-100600000D01*
X138250000Y-99625000D02*
X138250000Y-100570000D01*
D59*
X139250000Y-115087500D02*
X139175000Y-115162500D01*
X133492501Y-116697500D02*
X133367501Y-116822500D01*
X131780000Y-115872500D02*
X131830000Y-115822500D01*
X139022964Y-115750000D02*
X138587500Y-115750000D01*
X133367501Y-116822500D02*
X132505000Y-116822500D01*
X131830000Y-115822500D02*
X132505000Y-115822500D01*
X137640000Y-116697500D02*
X133492501Y-116697500D01*
D60*
X134600000Y-117200000D02*
X134222500Y-116822500D01*
D59*
X131830000Y-116822500D02*
X131780000Y-116772500D01*
X132505000Y-116822500D02*
X131830000Y-116822500D01*
X138587500Y-115750000D02*
X137640000Y-116697500D01*
X131780000Y-116772500D02*
X131780000Y-115872500D01*
X139175000Y-115162500D02*
X139175000Y-115597964D01*
X139175000Y-115597964D02*
X139022964Y-115750000D01*
D60*
X134222500Y-116822500D02*
X132505000Y-116822500D01*
X142457597Y-123450000D02*
X148950000Y-123450000D01*
X143650000Y-106596446D02*
X143650000Y-107312500D01*
X145446446Y-104800000D02*
X143650000Y-106596446D01*
X145600000Y-104800000D02*
X145446446Y-104800000D01*
X141719997Y-122712400D02*
X142457597Y-123450000D01*
X141719997Y-122156000D02*
X141719997Y-122712400D01*
X148950000Y-123450000D02*
X149300000Y-123100000D01*
X147400000Y-106600000D02*
X147300000Y-106700000D01*
X144219997Y-121734502D02*
X145654499Y-120300000D01*
X147237500Y-106700000D02*
X145937500Y-108000000D01*
X146425000Y-119175000D02*
X147700000Y-117900000D01*
X144219997Y-122156000D02*
X144219997Y-121734502D01*
X146425000Y-120134704D02*
X146425000Y-119175000D01*
X146259704Y-120300000D02*
X146425000Y-120134704D01*
X147300000Y-106700000D02*
X147237500Y-106700000D01*
X145654499Y-120300000D02*
X146259704Y-120300000D01*
X143719998Y-120890002D02*
X144500000Y-120110000D01*
X145200000Y-119410000D02*
X145200000Y-118500000D01*
X144500000Y-120110000D02*
X145200000Y-119410000D01*
X147221113Y-106242227D02*
X146320273Y-106242227D01*
X143719998Y-122156000D02*
X143719998Y-120890002D01*
X146320273Y-106242227D02*
X145250000Y-107312500D01*
X147719998Y-121734501D02*
X147719998Y-122156000D01*
X151460000Y-121980000D02*
X151055000Y-121575000D01*
X151055000Y-121575000D02*
X150095642Y-121575000D01*
X147879899Y-121574600D02*
X147719998Y-121734501D01*
X147900000Y-120550000D02*
X147719998Y-120730002D01*
X150095642Y-121575000D02*
X150095242Y-121574600D01*
X150095242Y-121574600D02*
X147879899Y-121574600D01*
X147719998Y-120730002D02*
X147719998Y-122156000D01*
X147200000Y-105800000D02*
X145900001Y-105800000D01*
X143219999Y-122156000D02*
X143219999Y-120980001D01*
X143219999Y-120980001D02*
X143300000Y-120900000D01*
X144850000Y-106850001D02*
X144850000Y-107312500D01*
X145900001Y-105800000D02*
X144850000Y-106850001D01*
X144450000Y-106650000D02*
X145300000Y-105800000D01*
X142792498Y-123150000D02*
X142219998Y-122577500D01*
X144450000Y-107312500D02*
X144450000Y-106650000D01*
X148800000Y-123100000D02*
X148750000Y-123150000D01*
X148750000Y-123150000D02*
X142792498Y-123150000D01*
X142219998Y-122577500D02*
X142219998Y-122156000D01*
D59*
X137536446Y-116447500D02*
X133492501Y-116447500D01*
X133492501Y-116447500D02*
X133367501Y-116322500D01*
X138850000Y-115133946D02*
X137536446Y-116447500D01*
X138850000Y-115087500D02*
X138850000Y-115133946D01*
X133180000Y-115322500D02*
X132505000Y-115322500D01*
D60*
X133413932Y-116322500D02*
X132505000Y-116322500D01*
X134036432Y-115700000D02*
X133413932Y-116322500D01*
D59*
X132505000Y-116322500D02*
X133180000Y-116322500D01*
X133367501Y-116322500D02*
X132505000Y-116322500D01*
X133180000Y-116322500D02*
X133230000Y-116272500D01*
D60*
X136400000Y-115700000D02*
X134036432Y-115700000D01*
D59*
X133230000Y-116272500D02*
X133230000Y-115372500D01*
X133230000Y-115372500D02*
X133180000Y-115322500D01*
D60*
X142719998Y-120900002D02*
X142719998Y-122156000D01*
X144050000Y-106550000D02*
X144050000Y-107312500D01*
X143500000Y-120120000D02*
X142719998Y-120900002D01*
X147200000Y-105399997D02*
X145200003Y-105399997D01*
X142719998Y-122156000D02*
X142719998Y-121500000D01*
X145200003Y-105399997D02*
X144050000Y-106550000D01*
X147219999Y-122156000D02*
X147219999Y-119930001D01*
X147900000Y-119783700D02*
X147900000Y-119250000D01*
X151824600Y-121324600D02*
X149440900Y-121324600D01*
X149440900Y-121324600D02*
X147900000Y-119783700D01*
X152460000Y-121960000D02*
X151824600Y-121324600D01*
X147219999Y-119930001D02*
X147900000Y-119250000D01*
X146539215Y-108800000D02*
X145937500Y-108800000D01*
X146558016Y-108818801D02*
X146539215Y-108800000D01*
X138650000Y-103100000D02*
X139000000Y-102750000D01*
X138650000Y-103350000D02*
X138650000Y-103100000D01*
X147308015Y-110213149D02*
X147333462Y-110187702D01*
X133635686Y-104235686D02*
X133800002Y-104235686D01*
X131600000Y-102200000D02*
X133635686Y-104235686D01*
X131600000Y-101660000D02*
X131600000Y-102200000D01*
X137150000Y-104500000D02*
X137150000Y-105300000D01*
X147308015Y-112241985D02*
X147308015Y-110213149D01*
X147308015Y-112241985D02*
X147150000Y-112400000D01*
X137150000Y-105300000D02*
X137250000Y-105400000D01*
X147150000Y-112400000D02*
X145937500Y-112400000D01*
X132600000Y-102469999D02*
X136180001Y-106050000D01*
X137550000Y-106050000D02*
X137900000Y-105700000D01*
X136180001Y-106050000D02*
X137550000Y-106050000D01*
X132600000Y-101660000D02*
X132600000Y-102469999D01*
X137900000Y-105700000D02*
X137900000Y-105400000D01*
X147050000Y-110555025D02*
X146950000Y-110455025D01*
X146950000Y-109599621D02*
X146708383Y-109358004D01*
X146900000Y-112050000D02*
X147050000Y-111900000D01*
X147050000Y-111900000D02*
X147050000Y-110555025D01*
X133797865Y-104892840D02*
X130600000Y-101694975D01*
X136736382Y-104677265D02*
X136736382Y-105263618D01*
X145937500Y-112000000D02*
X146479030Y-112000000D01*
X134457154Y-104892840D02*
X133797865Y-104892840D01*
X146708383Y-109358004D02*
X146708383Y-109189465D01*
X146479030Y-112000000D02*
X146529030Y-112050000D01*
X146950000Y-110455025D02*
X146950000Y-109599621D01*
X136736382Y-105263618D02*
X136600000Y-105400000D01*
X146529030Y-112050000D02*
X146900000Y-112050000D01*
X130600000Y-101694975D02*
X130600000Y-101660000D01*
X143400000Y-119100000D02*
X142900000Y-119600000D01*
X140450000Y-106560000D02*
X140450000Y-107312500D01*
X136850000Y-110600000D02*
X137149547Y-110600000D01*
X141219998Y-122880002D02*
X141200000Y-122900000D01*
X138162500Y-112000000D02*
X137586466Y-112000000D01*
X145937500Y-114400000D02*
X145250000Y-115087500D01*
X139250000Y-107312500D02*
X139250000Y-106850000D01*
X136150000Y-104650000D02*
X137900000Y-102900000D01*
X146399999Y-109600000D02*
X146700000Y-109900001D01*
X140950000Y-106060000D02*
X141480099Y-106060000D01*
X147400000Y-114500000D02*
X147000000Y-114500000D01*
X134300000Y-122180000D02*
X133720000Y-122180000D01*
X137900000Y-102900000D02*
X137900000Y-102600000D01*
X141480099Y-106060000D02*
X141584579Y-106164480D01*
X145937500Y-109200000D02*
X145937500Y-109600000D01*
X130590000Y-125990000D02*
X130400000Y-125800000D01*
X154200000Y-111600000D02*
X154200000Y-111700000D01*
X130740000Y-124760000D02*
X130400000Y-125100000D01*
X146637501Y-109900001D02*
X146700000Y-109900001D01*
X149820000Y-103000000D02*
X150300000Y-103000000D01*
X157760000Y-102000000D02*
X157760000Y-102685000D01*
X154200000Y-120430000D02*
X154200000Y-121100000D01*
X151500000Y-112510000D02*
X151500000Y-112100000D01*
X144500000Y-119090000D02*
X144500000Y-119200000D01*
X157850000Y-112422520D02*
X157122520Y-112422520D01*
X157760000Y-102685000D02*
X157745000Y-102700000D01*
X144500000Y-119200000D02*
X144100000Y-119600000D01*
X148020000Y-112595685D02*
X147908015Y-112707670D01*
X152300000Y-116000000D02*
X152950000Y-116000000D01*
X142950000Y-104740000D02*
X143460000Y-104740000D01*
X147620000Y-107300000D02*
X147620000Y-107486985D01*
X132300000Y-99400000D02*
X132200000Y-99300000D01*
X131250000Y-124760000D02*
X130740000Y-124760000D01*
X153240000Y-126250000D02*
X152450000Y-126250000D01*
X133040000Y-99400000D02*
X132300000Y-99400000D01*
X138162500Y-111600000D02*
X138162500Y-112000000D01*
X139250000Y-106850000D02*
X138800000Y-106400000D01*
X127240000Y-102440000D02*
X127600000Y-102800000D01*
X140050000Y-115087500D02*
X140050000Y-115761970D01*
X137149547Y-110600000D02*
X137375001Y-110825454D01*
X132600000Y-100640000D02*
X133260000Y-100640000D01*
X145937500Y-109600000D02*
X146210515Y-109600000D01*
X147000000Y-114500000D02*
X146900000Y-114600000D01*
X140050000Y-115761970D02*
X140049999Y-115761971D01*
X157122520Y-112422520D02*
X156800000Y-112100000D01*
X140719999Y-122719999D02*
X140800000Y-122800000D01*
X151892200Y-119400000D02*
X152800000Y-119400000D01*
X141219998Y-122156000D02*
X141219998Y-122880002D01*
X131250000Y-125990000D02*
X130590000Y-125990000D01*
X146700000Y-114400000D02*
X146900000Y-114600000D01*
X132600000Y-100640000D02*
X131600000Y-100640000D01*
X154200000Y-111700000D02*
X154500000Y-112000000D01*
X152450000Y-126250000D02*
X152400000Y-126200000D01*
X147620000Y-108063015D02*
X147908015Y-107775000D01*
X153150000Y-102920000D02*
X152535686Y-102920000D01*
X133260000Y-100640000D02*
X133300000Y-100600000D01*
X138162500Y-111200000D02*
X137428501Y-111200000D01*
X137900000Y-102600000D02*
X138373902Y-102600000D01*
X143500000Y-119100000D02*
X143400000Y-119100000D01*
X146700000Y-109900001D02*
X146700000Y-110700000D01*
X127240000Y-102000000D02*
X127240000Y-102440000D01*
X147620000Y-107486985D02*
X147908015Y-107775000D01*
X148020000Y-112000000D02*
X148020000Y-112595685D01*
X147620000Y-108250000D02*
X147620000Y-108063015D01*
X150300000Y-103000000D02*
X150500000Y-102800000D01*
X131600000Y-100640000D02*
X130600000Y-100640000D01*
X140719999Y-122156000D02*
X140719999Y-122719999D01*
X145937500Y-114400000D02*
X146700000Y-114400000D01*
X147620000Y-108250000D02*
X147620000Y-107300000D01*
X152535686Y-102920000D02*
X152407843Y-102792157D01*
X137428501Y-111200000D02*
X137399175Y-111229326D01*
X133720000Y-122180000D02*
X133600000Y-122300000D01*
X137586466Y-112000000D02*
X137343233Y-111756767D01*
X138373902Y-102600000D02*
X138586081Y-102387821D01*
X135850000Y-104650000D02*
X136150000Y-104650000D01*
X138162500Y-110400000D02*
X137400000Y-110400000D01*
X140950000Y-106060000D02*
X140450000Y-106560000D01*
X138162500Y-111600000D02*
X138162500Y-111200000D01*
X152500000Y-101500000D02*
X153500000Y-101500000D01*
X155300000Y-122000000D02*
X155300000Y-120800000D01*
X154200000Y-121100000D02*
X154100000Y-121200000D01*
X152800000Y-119400000D02*
X152900000Y-119300000D01*
X143460000Y-104740000D02*
X143600000Y-104600000D01*
X145937500Y-109200000D02*
X146637501Y-109900001D01*
X145937500Y-109600000D02*
X146399999Y-109600000D01*
X135800000Y-100500000D02*
X134119224Y-100500000D01*
X142357000Y-100407000D02*
X142350000Y-100400000D01*
X156740000Y-101308000D02*
X156740000Y-102000000D01*
X129950000Y-104021922D02*
X134406067Y-108477989D01*
X129950000Y-100386432D02*
X129950000Y-104021922D01*
X130241432Y-100095000D02*
X129950000Y-100386432D01*
X134119224Y-100500000D02*
X133714224Y-100095000D01*
X134556931Y-110043069D02*
X137313862Y-112800000D01*
X155839000Y-100407000D02*
X142357000Y-100407000D01*
X155839000Y-100407000D02*
X156740000Y-101308000D01*
X133714224Y-100095000D02*
X130241432Y-100095000D01*
X137313862Y-112800000D02*
X138162500Y-112800000D01*
X137000170Y-113200000D02*
X134505196Y-110705025D01*
X129099000Y-111756025D02*
X129099000Y-124371500D01*
X129099000Y-124371500D02*
X129178500Y-124371500D01*
X134300171Y-110500000D02*
X130355025Y-110500000D01*
X138162500Y-113200000D02*
X137000170Y-113200000D01*
X129810000Y-123740000D02*
X131250000Y-123740000D01*
X130355025Y-110500000D02*
X129099000Y-111756025D01*
X129178500Y-124371500D02*
X129810000Y-123740000D01*
X134505196Y-110705025D02*
X134300171Y-110500000D01*
X136535485Y-111514705D02*
X136535485Y-111314515D01*
X147710000Y-103000000D02*
X147733102Y-103000000D01*
X137420780Y-112400000D02*
X136535485Y-111514705D01*
X145916431Y-103516216D02*
X145916431Y-103435687D01*
X148888102Y-104155000D02*
X149100000Y-104155000D01*
X145916431Y-103435687D02*
X146330744Y-103850000D01*
X130781196Y-105348092D02*
X130781196Y-105418804D01*
X128260000Y-102826896D02*
X128260000Y-102000000D01*
X133800000Y-109850000D02*
X133800000Y-108366896D01*
X146330744Y-103850000D02*
X146860000Y-103850000D01*
X138162500Y-112400000D02*
X137420780Y-112400000D01*
X130591552Y-105158448D02*
X130781196Y-105348092D01*
X133800000Y-108366896D02*
X130591552Y-105158448D01*
X129101000Y-100400000D02*
X128260000Y-101241000D01*
X128260000Y-101241000D02*
X128260000Y-102000000D01*
X146860000Y-103850000D02*
X147710000Y-103000000D01*
X147733102Y-103000000D02*
X148888102Y-104155000D01*
X130591552Y-105158448D02*
X128260000Y-102826896D01*
X152952852Y-125775000D02*
X150561432Y-125775000D01*
X150561432Y-125775000D02*
X147286932Y-129049500D01*
X155839000Y-124378500D02*
X155839000Y-124671000D01*
X130500000Y-110850000D02*
X130050000Y-111300000D01*
X138162500Y-113600000D02*
X136905196Y-113600000D01*
X154260000Y-126250000D02*
X153765000Y-125755000D01*
X130050000Y-121600000D02*
X137499500Y-129049500D01*
X155839000Y-124671000D02*
X154260000Y-126250000D01*
X134155196Y-110850000D02*
X130500000Y-110850000D01*
X152972852Y-125755000D02*
X152952852Y-125775000D01*
X153765000Y-125755000D02*
X152972852Y-125755000D01*
X130050000Y-111300000D02*
X130050000Y-121600000D01*
X136905196Y-113600000D02*
X134155196Y-110850000D01*
X137499500Y-129049500D02*
X147286932Y-129049500D01*
X132505000Y-117822500D02*
X133230000Y-117822500D01*
X133800000Y-118392500D02*
X133800000Y-119690000D01*
X133230000Y-117822500D02*
X133800000Y-118392500D01*
X133990000Y-114750000D02*
X132577500Y-114750000D01*
X132577500Y-114750000D02*
X132505000Y-114822500D01*
X149758015Y-108000000D02*
X151100000Y-108000000D01*
X153495780Y-102365000D02*
X150865000Y-102365000D01*
X154105780Y-102975000D02*
X153495780Y-102365000D01*
X148331106Y-109288114D02*
X148755920Y-108863300D01*
X155305196Y-102975000D02*
X154105780Y-102975000D01*
X145937500Y-111600000D02*
X146558015Y-111600000D01*
X147908015Y-109288114D02*
X148331106Y-109288114D01*
X155700000Y-103369804D02*
X155305196Y-102975000D01*
X148894715Y-108863300D02*
X149758015Y-108000000D01*
X155700000Y-105800000D02*
X155700000Y-103369804D01*
X150865000Y-102365000D02*
X150000000Y-101500000D01*
X148755920Y-108863300D02*
X148894715Y-108863300D01*
X154050000Y-107450000D02*
X155700000Y-105800000D01*
X151792779Y-106879279D02*
X151570721Y-106879279D01*
X142035785Y-106050000D02*
X142660000Y-106050000D01*
X152099950Y-107619000D02*
X152099950Y-107186450D01*
X142660000Y-106050000D02*
X142950000Y-105760000D01*
X152099950Y-107186450D02*
X151792779Y-106879279D01*
X144250227Y-103800000D02*
X142491457Y-103800000D01*
X142491457Y-103800000D02*
X141550000Y-104741457D01*
X141550000Y-104741457D02*
X141550000Y-105564215D01*
X146681714Y-101368513D02*
X144250227Y-103800000D01*
X142850000Y-105860000D02*
X142950000Y-105760000D01*
X142850000Y-107312500D02*
X142850000Y-105860000D01*
X141550000Y-105564215D02*
X142035785Y-106050000D01*
X152500000Y-110512200D02*
X152540388Y-110552588D01*
X150204703Y-113750000D02*
X150221881Y-113732822D01*
X148250000Y-113750000D02*
X150204703Y-113750000D01*
X138162500Y-115037500D02*
X137800000Y-115400000D01*
X152500000Y-109981200D02*
X152500000Y-110512200D01*
X138162500Y-114400000D02*
X138162500Y-115037500D01*
X151500000Y-111490000D02*
X152210000Y-111490000D01*
X152540388Y-110552588D02*
X153709889Y-110552588D01*
X152210000Y-111490000D02*
X152400000Y-111300000D01*
X147900000Y-113400000D02*
X148250000Y-113750000D01*
X150665002Y-110915002D02*
X150250000Y-110500000D01*
X151699900Y-110435100D02*
X151485000Y-110650000D01*
X149000000Y-110480000D02*
X150230000Y-110480000D01*
X150230000Y-110480000D02*
X150250000Y-110500000D01*
X153600000Y-109250000D02*
X153650000Y-109200000D01*
X155450000Y-105274999D02*
X155450000Y-104211224D01*
X150685000Y-110915002D02*
X150665002Y-110915002D01*
X151699900Y-109981200D02*
X151699900Y-110435100D01*
X155450000Y-104211224D02*
X154788776Y-103550000D01*
X154788776Y-103550000D02*
X154612500Y-103550000D01*
X153650000Y-106412500D02*
X154612500Y-105450000D01*
X153650000Y-109200000D02*
X153650000Y-106412500D01*
X154612500Y-105450000D02*
X155274999Y-105450000D01*
X155274999Y-105450000D02*
X155450000Y-105274999D01*
X152900050Y-106910050D02*
X152900050Y-107619000D01*
X151750000Y-105760000D02*
X152900050Y-106910050D01*
X152500000Y-107091526D02*
X152500000Y-107619000D01*
X150500000Y-105770000D02*
X151035000Y-106305000D01*
X151713474Y-106305000D02*
X152500000Y-107091526D01*
X151035000Y-106305000D02*
X151713474Y-106305000D01*
X140300000Y-116500000D02*
X140100000Y-116300000D01*
X148025000Y-100825000D02*
X148800000Y-101600000D01*
X151275000Y-115525000D02*
X146375000Y-115525000D01*
X145000000Y-101500000D02*
X145675000Y-100825000D01*
X139650000Y-115856947D02*
X139650000Y-115087500D01*
X140093053Y-116300000D02*
X139650000Y-115856947D01*
X152200000Y-114600000D02*
X151275000Y-115525000D01*
X145675000Y-100825000D02*
X148025000Y-100825000D01*
X146375000Y-115525000D02*
X146100000Y-115800000D01*
X140100000Y-116300000D02*
X140093053Y-116300000D01*
X148200000Y-102000000D02*
X148000000Y-102000000D01*
X150562500Y-115087500D02*
X153150000Y-112500000D01*
X144819975Y-115725000D02*
X145412608Y-115725000D01*
X140450000Y-115549999D02*
X141100001Y-116200000D01*
X146050108Y-115087500D02*
X150562500Y-115087500D01*
X148000000Y-102000000D02*
X147500000Y-101500000D01*
X141100001Y-116200000D02*
X144344975Y-116200000D01*
X153150000Y-112150000D02*
X153500000Y-111800000D01*
X140450000Y-115087500D02*
X140450000Y-115549999D01*
X144344975Y-116200000D02*
X144819975Y-115725000D01*
X145412608Y-115725000D02*
X146050108Y-115087500D01*
X153150000Y-112500000D02*
X153150000Y-112150000D01*
X152577000Y-128337000D02*
X152250000Y-128010000D01*
X153638000Y-128337000D02*
X152577000Y-128337000D01*
X140200000Y-101485000D02*
X140200000Y-102626002D01*
X140285000Y-101400000D02*
X140200000Y-101485000D01*
X135900000Y-109300000D02*
X136150000Y-109300000D01*
X136150000Y-109300000D02*
X136250000Y-109200000D01*
X133000000Y-125150000D02*
X133017157Y-125132843D01*
X130450000Y-121350000D02*
X130450000Y-112500000D01*
X133000000Y-125980000D02*
X133000000Y-125150000D01*
X136250000Y-109200000D02*
X138162500Y-109200000D01*
X132832843Y-123817157D02*
X132832843Y-123732843D01*
X132832843Y-123732843D02*
X130450000Y-121350000D01*
X130450000Y-112500000D02*
X130450000Y-112450000D01*
X151260000Y-127000000D02*
X151260000Y-128694330D01*
X151260000Y-128694330D02*
X150878271Y-129076059D01*
X129650000Y-119000000D02*
X129650001Y-118999999D01*
X138315186Y-128649500D02*
X131232843Y-121567157D01*
X150878271Y-129076059D02*
X147826059Y-129076059D01*
X136450000Y-109600000D02*
X138162500Y-109600000D01*
X129650001Y-118999999D02*
X129650001Y-111770710D01*
X146985086Y-128649500D02*
X138315186Y-128649500D01*
X155052500Y-126990000D02*
X152250000Y-126990000D01*
X153350000Y-114936658D02*
X153350000Y-121274100D01*
X152500000Y-114100000D02*
X152513342Y-114100000D01*
X149850000Y-114000000D02*
X150279657Y-114429657D01*
X154204700Y-122469200D02*
X155064000Y-123328500D01*
X152313173Y-113913173D02*
X152500000Y-114100000D01*
X156614000Y-123328500D02*
X156614000Y-125428500D01*
X152513342Y-114100000D02*
X153350000Y-114936658D01*
X147950000Y-114000000D02*
X149850000Y-114000000D01*
X154204700Y-122128800D02*
X154204700Y-122469200D01*
X144050000Y-115087500D02*
X144050000Y-115700000D01*
X144050000Y-115700000D02*
X144200000Y-115850000D01*
X153350000Y-121274100D02*
X154204700Y-122128800D01*
X147700000Y-113750000D02*
X147950000Y-114000000D01*
X147408015Y-113750000D02*
X147700000Y-113750000D01*
X155064000Y-123328500D02*
X156614000Y-123328500D01*
X156614000Y-125428500D02*
X155052500Y-126990000D01*
X140200000Y-103800000D02*
X140050000Y-103950000D01*
X140050000Y-103950000D02*
X140050000Y-107312500D01*
X135675000Y-106550000D02*
X135800000Y-106425000D01*
X135675000Y-107125000D02*
X135675000Y-106550000D01*
X137962500Y-106425000D02*
X138850000Y-107312500D01*
X135800000Y-106425000D02*
X137962500Y-106425000D01*
X137200000Y-108000000D02*
X138162500Y-108000000D01*
X136725000Y-108475000D02*
X137200000Y-108000000D01*
X151287853Y-103200000D02*
X149042853Y-105445000D01*
X149295000Y-103495000D02*
X151105000Y-103495000D01*
X147565000Y-112756985D02*
X147565000Y-111368750D01*
X145937500Y-112800000D02*
X147521985Y-112800000D01*
X149042853Y-105445000D02*
X148600000Y-105445000D01*
X151400000Y-103200000D02*
X151287853Y-103200000D01*
X148600000Y-105600000D02*
X148600000Y-105445000D01*
X147975040Y-110958710D02*
X149900000Y-110958710D01*
X148800000Y-103000000D02*
X149295000Y-103495000D01*
X149900000Y-106900000D02*
X148600000Y-105600000D01*
X147565000Y-111368750D02*
X147975040Y-110958710D01*
X147521985Y-112800000D02*
X147565000Y-112756985D01*
X151105000Y-103495000D02*
X151400000Y-103200000D01*
X153300100Y-107619000D02*
X153300100Y-106060100D01*
X153300100Y-106060100D02*
X153000000Y-105760000D01*
X135384000Y-104000000D02*
X135850000Y-104000000D01*
X134000000Y-102616000D02*
X135384000Y-104000000D01*
X136550000Y-101600000D02*
X134000000Y-101600000D01*
X137250000Y-102300000D02*
X136550000Y-101600000D01*
X137250000Y-102600000D02*
X137250000Y-102300000D01*
M02*
