%TF.GenerationSoftware,KiCad,Pcbnew,8.0.2*%
%TF.CreationDate,2025-05-08T21:28:42-06:00*%
%TF.ProjectId,kicad,6b696361-642e-46b6-9963-61645f706362,4*%
%TF.SameCoordinates,Original*%
%TF.FileFunction,Drillmap*%
%TF.FilePolarity,Positive*%
%FSLAX45Y45*%
G04 Gerber Fmt 4.5, Leading zero omitted, Abs format (unit mm)*
G04 Created by KiCad (PCBNEW 8.0.2) date 2025-05-08 21:28:42*
%MOMM*%
%LPD*%
G01*
G04 APERTURE LIST*
%ADD10C,0.050000*%
%ADD11C,0.200000*%
%ADD12C,0.100000*%
G04 APERTURE END LIST*
D10*
X12657000Y-9375000D02*
X15837000Y-9375000D01*
X15837000Y-13107000D01*
X12657000Y-13107000D01*
X12657000Y-9375000D01*
D11*
D12*
X12727500Y-12837500D02*
X12747500Y-12857500D01*
X12747500Y-12837500D02*
X12727500Y-12857500D01*
X12730000Y-12540000D02*
X12750000Y-12560000D01*
X12750000Y-12540000D02*
X12730000Y-12560000D01*
X12735000Y-9620000D02*
X12755000Y-9640000D01*
X12755000Y-9620000D02*
X12735000Y-9640000D01*
X12735000Y-9915000D02*
X12755000Y-9935000D01*
X12755000Y-9915000D02*
X12735000Y-9935000D01*
X12812500Y-10112500D02*
X12832500Y-10132500D01*
X12832500Y-10112500D02*
X12812500Y-10132500D01*
X12955000Y-11977500D02*
X12975000Y-11997500D01*
X12975000Y-11977500D02*
X12955000Y-11997500D01*
X12955000Y-11190000D02*
X12975000Y-11210000D01*
X12975000Y-11190000D02*
X12955000Y-11210000D01*
X12962121Y-10475379D02*
X12982121Y-10495379D01*
X12982121Y-10475379D02*
X12962121Y-10495379D01*
X13035000Y-11162695D02*
X13055000Y-11182695D01*
X13055000Y-11162695D02*
X13035000Y-11182695D01*
X13040000Y-12365000D02*
X13060000Y-12385000D01*
X13060000Y-12365000D02*
X13040000Y-12385000D01*
X13050000Y-12592500D02*
X13070000Y-12612500D01*
X13070000Y-12592500D02*
X13050000Y-12612500D01*
X13122500Y-12902500D02*
X13142500Y-12922500D01*
X13142500Y-12902500D02*
X13122500Y-12922500D01*
X13123284Y-12156716D02*
X13143284Y-12176716D01*
X13143284Y-12156716D02*
X13123284Y-12176716D01*
X13207500Y-9915000D02*
X13227500Y-9935000D01*
X13227500Y-9915000D02*
X13207500Y-9935000D01*
X13273284Y-12363284D02*
X13293284Y-12383284D01*
X13293284Y-12363284D02*
X13273284Y-12383284D01*
X13290000Y-12525000D02*
X13310000Y-12545000D01*
X13310000Y-12525000D02*
X13290000Y-12545000D01*
X13310000Y-11000000D02*
X13330000Y-11020000D01*
X13330000Y-11000000D02*
X13310000Y-11020000D01*
X13322500Y-10039500D02*
X13342500Y-10059500D01*
X13342500Y-10039500D02*
X13322500Y-10059500D01*
X13325000Y-11907500D02*
X13345000Y-11927500D01*
X13345000Y-11907500D02*
X13325000Y-11927500D01*
X13346716Y-11308284D02*
X13366716Y-11328284D01*
X13366716Y-11308284D02*
X13346716Y-11328284D01*
X13362500Y-12125000D02*
X13382500Y-12145000D01*
X13382500Y-12125000D02*
X13362500Y-12145000D01*
X13365000Y-11115000D02*
X13385000Y-11135000D01*
X13385000Y-11115000D02*
X13365000Y-11135000D01*
X13371432Y-10415000D02*
X13391432Y-10435000D01*
X13391432Y-10415000D02*
X13371432Y-10435000D01*
X13390000Y-9852500D02*
X13410000Y-9872500D01*
X13410000Y-9852500D02*
X13390000Y-9872500D01*
X13420000Y-12372500D02*
X13440000Y-12392500D01*
X13440000Y-12372500D02*
X13420000Y-12392500D01*
X13439573Y-11004280D02*
X13459573Y-11024280D01*
X13459573Y-11004280D02*
X13439573Y-11024280D01*
X13440000Y-12132500D02*
X13460000Y-12152500D01*
X13460000Y-12132500D02*
X13440000Y-12152500D01*
X13440716Y-10484284D02*
X13460716Y-10504284D01*
X13460716Y-10484284D02*
X13440716Y-10504284D01*
X13442500Y-12905000D02*
X13462500Y-12925000D01*
X13462500Y-12905000D02*
X13442500Y-12925000D01*
X13445724Y-10789276D02*
X13465724Y-10809276D01*
X13465724Y-10789276D02*
X13445724Y-10809276D01*
X13447500Y-11285000D02*
X13467500Y-11305000D01*
X13467500Y-11285000D02*
X13447500Y-11305000D01*
X13448689Y-10848811D02*
X13468689Y-10868811D01*
X13468689Y-10848811D02*
X13448689Y-10868811D01*
X13450000Y-11785000D02*
X13470000Y-11805000D01*
X13470000Y-11785000D02*
X13450000Y-11805000D01*
X13487500Y-12205000D02*
X13507500Y-12225000D01*
X13507500Y-12205000D02*
X13487500Y-12225000D01*
X13540000Y-10040000D02*
X13560000Y-10060000D01*
X13560000Y-10040000D02*
X13540000Y-10060000D01*
X13542500Y-10997500D02*
X13562500Y-11017500D01*
X13562500Y-10997500D02*
X13542500Y-11017500D01*
X13547500Y-10242500D02*
X13567500Y-10262500D01*
X13567500Y-10242500D02*
X13547500Y-10262500D01*
X13560000Y-11472500D02*
X13580000Y-11492500D01*
X13580000Y-11472500D02*
X13560000Y-11492500D01*
X13597500Y-10200000D02*
X13617500Y-10220000D01*
X13617500Y-10200000D02*
X13597500Y-10220000D01*
X13605534Y-11883034D02*
X13625534Y-11903034D01*
X13625534Y-11883034D02*
X13605534Y-11903034D01*
X13622500Y-11490000D02*
X13642500Y-11510000D01*
X13642500Y-11490000D02*
X13622500Y-11510000D01*
X13662466Y-10455000D02*
X13682466Y-10475000D01*
X13682466Y-10455000D02*
X13662466Y-10475000D01*
X13670000Y-11162500D02*
X13690000Y-11182500D01*
X13690000Y-11162500D02*
X13670000Y-11182500D01*
X13677500Y-11885000D02*
X13697500Y-11905000D01*
X13697500Y-11885000D02*
X13677500Y-11905000D01*
X13717500Y-10950000D02*
X13737500Y-10970000D01*
X13737500Y-10950000D02*
X13717500Y-10970000D01*
X13727262Y-11162738D02*
X13747262Y-11182738D01*
X13747262Y-11162738D02*
X13727262Y-11182738D01*
X13727500Y-10672500D02*
X13747500Y-10692500D01*
X13747500Y-10672500D02*
X13727500Y-10692500D01*
X13727500Y-11065111D02*
X13747500Y-11085111D01*
X13747500Y-11065111D02*
X13727500Y-11085111D01*
X13727500Y-11115000D02*
X13747500Y-11135000D01*
X13747500Y-11115000D02*
X13727500Y-11135000D01*
X13730000Y-11020000D02*
X13750000Y-11040000D01*
X13750000Y-11020000D02*
X13730000Y-11040000D01*
X13735000Y-10415000D02*
X13755000Y-10435000D01*
X13755000Y-10415000D02*
X13735000Y-10435000D01*
X13747738Y-10137500D02*
X13767738Y-10157500D01*
X13767738Y-10137500D02*
X13747738Y-10157500D01*
X13758931Y-11566431D02*
X13778931Y-11586431D01*
X13778931Y-11566431D02*
X13758931Y-11586431D01*
X13764534Y-10352034D02*
X13784534Y-10372034D01*
X13784534Y-10352034D02*
X13764534Y-10372034D01*
X13777500Y-11887500D02*
X13797500Y-11907500D01*
X13797500Y-11887500D02*
X13777500Y-11907500D01*
X13840000Y-10215000D02*
X13860000Y-10235000D01*
X13860000Y-10215000D02*
X13840000Y-10235000D01*
X13842142Y-11624642D02*
X13862142Y-11644642D01*
X13862142Y-11624642D02*
X13842142Y-11644642D01*
X13867500Y-11880000D02*
X13887500Y-11900000D01*
X13887500Y-11880000D02*
X13867500Y-11900000D01*
X13880000Y-10635000D02*
X13900000Y-10655000D01*
X13900000Y-10635000D02*
X13880000Y-10655000D01*
X13887414Y-12280086D02*
X13907414Y-12300086D01*
X13907414Y-12280086D02*
X13887414Y-12300086D01*
X13912500Y-10045000D02*
X13932500Y-10065000D01*
X13932500Y-10045000D02*
X13912500Y-10065000D01*
X13912500Y-11655000D02*
X13932500Y-11675000D01*
X13932500Y-11655000D02*
X13912500Y-11675000D01*
X13915000Y-10562500D02*
X13935000Y-10582500D01*
X13935000Y-10562500D02*
X13915000Y-10582500D01*
X13937500Y-12292500D02*
X13957500Y-12312500D01*
X13957500Y-12292500D02*
X13937500Y-12312500D01*
X13980000Y-11887500D02*
X14000000Y-11907500D01*
X14000000Y-11887500D02*
X13980000Y-11907500D01*
X14020784Y-11584215D02*
X14040784Y-11604215D01*
X14040784Y-11584215D02*
X14020784Y-11604215D01*
X14067500Y-12282500D02*
X14087500Y-12302500D01*
X14087500Y-12282500D02*
X14067500Y-12302500D01*
X14100000Y-10185000D02*
X14120000Y-10205000D01*
X14120000Y-10185000D02*
X14100000Y-10205000D01*
X14114078Y-12291816D02*
X14134078Y-12311816D01*
X14134078Y-12291816D02*
X14114078Y-12311816D01*
X14150000Y-10592500D02*
X14170000Y-10612500D01*
X14170000Y-10592500D02*
X14150000Y-10612500D01*
X14195000Y-11110000D02*
X14215000Y-11130000D01*
X14215000Y-11110000D02*
X14195000Y-11130000D01*
X14262000Y-12140000D02*
X14282000Y-12160000D01*
X14282000Y-12140000D02*
X14262000Y-12160000D01*
X14268424Y-11869456D02*
X14288424Y-11889456D01*
X14288424Y-11869456D02*
X14268424Y-11889456D01*
X14322000Y-12095000D02*
X14342000Y-12115000D01*
X14342000Y-12095000D02*
X14322000Y-12115000D01*
X14335000Y-10413569D02*
X14355000Y-10433569D01*
X14355000Y-10413569D02*
X14335000Y-10433569D01*
X14392500Y-11950000D02*
X14412500Y-11970000D01*
X14412500Y-11950000D02*
X14392500Y-11970000D01*
X14403935Y-11634496D02*
X14423935Y-11654496D01*
X14423935Y-11634496D02*
X14403935Y-11654496D01*
X14415000Y-10447500D02*
X14435000Y-10467500D01*
X14435000Y-10447500D02*
X14415000Y-10467500D01*
X14461510Y-10525353D02*
X14481510Y-10545353D01*
X14481510Y-10525353D02*
X14461510Y-10545353D01*
X14462500Y-12275000D02*
X14482500Y-12295000D01*
X14482500Y-12275000D02*
X14462500Y-12295000D01*
X14505000Y-11910000D02*
X14525000Y-11930000D01*
X14525000Y-11910000D02*
X14505000Y-11930000D01*
X14520466Y-10522966D02*
X14540466Y-10542966D01*
X14540466Y-10522966D02*
X14520466Y-10542966D01*
X14555000Y-10615000D02*
X14575000Y-10635000D01*
X14575000Y-10615000D02*
X14555000Y-10635000D01*
X14592500Y-11522500D02*
X14612500Y-11542500D01*
X14612500Y-11522500D02*
X14592500Y-11542500D01*
X14610000Y-10615000D02*
X14630000Y-10635000D01*
X14630000Y-10615000D02*
X14610000Y-10635000D01*
X14617500Y-10482500D02*
X14637500Y-10502500D01*
X14637500Y-10482500D02*
X14617500Y-10502500D01*
X14650000Y-11660000D02*
X14670000Y-11680000D01*
X14670000Y-11660000D02*
X14650000Y-11680000D01*
X14652500Y-10402500D02*
X14672500Y-10422500D01*
X14672500Y-10402500D02*
X14652500Y-10422500D01*
X14655000Y-11140000D02*
X14675000Y-11160000D01*
X14675000Y-11140000D02*
X14655000Y-11160000D01*
X14672119Y-10615000D02*
X14692119Y-10635000D01*
X14692119Y-10615000D02*
X14672119Y-10635000D01*
X14672500Y-12854950D02*
X14692500Y-12874950D01*
X14692500Y-12854950D02*
X14672500Y-12874950D01*
X14675000Y-11270000D02*
X14695000Y-11290000D01*
X14695000Y-11270000D02*
X14675000Y-11290000D01*
X14680801Y-10993562D02*
X14700801Y-11013562D01*
X14700801Y-10993562D02*
X14680801Y-11013562D01*
X14733346Y-10884712D02*
X14753346Y-10904712D01*
X14753346Y-10884712D02*
X14733346Y-10904712D01*
X14752929Y-11780000D02*
X14772929Y-11800000D01*
X14772929Y-11780000D02*
X14752929Y-11800000D01*
X14760801Y-11092500D02*
X14780801Y-11112500D01*
X14780801Y-11092500D02*
X14760801Y-11112500D01*
X14777606Y-12892606D02*
X14797606Y-12912606D01*
X14797606Y-12892606D02*
X14777606Y-12912606D01*
X14870000Y-12303740D02*
X14890000Y-12323740D01*
X14890000Y-12303740D02*
X14870000Y-12323740D01*
X14918637Y-12329420D02*
X14938637Y-12349420D01*
X14938637Y-12329420D02*
X14918637Y-12349420D01*
X14933128Y-10601472D02*
X14953128Y-10621472D01*
X14953128Y-10601472D02*
X14933128Y-10621472D01*
X14973019Y-10519481D02*
X14993019Y-10539481D01*
X14993019Y-10519481D02*
X14973019Y-10539481D01*
X14990000Y-11568500D02*
X15010000Y-11588500D01*
X15010000Y-11568500D02*
X14990000Y-11588500D01*
X15027500Y-12350000D02*
X15047500Y-12370000D01*
X15047500Y-12350000D02*
X15027500Y-12370000D01*
X15080000Y-11460000D02*
X15100000Y-11480000D01*
X15100000Y-11460000D02*
X15080000Y-11480000D01*
X15097500Y-10942500D02*
X15117500Y-10962500D01*
X15117500Y-10942500D02*
X15097500Y-10962500D01*
X15100000Y-10860000D02*
X15120000Y-10880000D01*
X15120000Y-10860000D02*
X15100000Y-10880000D01*
X15101444Y-10513556D02*
X15121444Y-10533556D01*
X15121444Y-10513556D02*
X15101444Y-10533556D01*
X15107500Y-11712500D02*
X15127500Y-11732500D01*
X15127500Y-11712500D02*
X15107500Y-11732500D01*
X15108110Y-11040000D02*
X15128110Y-11060000D01*
X15128110Y-11040000D02*
X15108110Y-11060000D01*
X15120148Y-10903015D02*
X15140148Y-10923015D01*
X15140148Y-10903015D02*
X15120148Y-10923015D01*
X15129644Y-10660500D02*
X15149644Y-10680500D01*
X15149644Y-10660500D02*
X15129644Y-10680500D01*
X15132500Y-12350000D02*
X15152500Y-12370000D01*
X15152500Y-12350000D02*
X15132500Y-12370000D01*
X15142500Y-12982500D02*
X15162500Y-13002500D01*
X15162500Y-12982500D02*
X15142500Y-13002500D01*
X15192500Y-11190000D02*
X15212500Y-11210000D01*
X15212500Y-11190000D02*
X15192500Y-11210000D01*
X15210000Y-11315000D02*
X15230000Y-11335000D01*
X15230000Y-11315000D02*
X15210000Y-11335000D01*
X15226357Y-11133643D02*
X15246357Y-11153643D01*
X15246357Y-11133643D02*
X15226357Y-11153643D01*
X15230000Y-10280000D02*
X15250000Y-10300000D01*
X15250000Y-10280000D02*
X15230000Y-10300000D01*
X15232500Y-12350000D02*
X15252500Y-12370000D01*
X15252500Y-12350000D02*
X15232500Y-12370000D01*
X15260000Y-12982500D02*
X15280000Y-13002500D01*
X15280000Y-12982500D02*
X15260000Y-13002500D01*
X15262500Y-11930000D02*
X15282500Y-11950000D01*
X15282500Y-11930000D02*
X15262500Y-11950000D01*
X15277500Y-11537500D02*
X15297500Y-11557500D01*
X15297500Y-11537500D02*
X15277500Y-11557500D01*
X15285000Y-11685000D02*
X15305000Y-11705000D01*
X15305000Y-11685000D02*
X15285000Y-11705000D01*
X15291676Y-11082500D02*
X15311676Y-11102500D01*
X15311676Y-11082500D02*
X15291676Y-11102500D01*
X15352500Y-10331388D02*
X15372500Y-10351388D01*
X15372500Y-10331388D02*
X15352500Y-10351388D01*
X15357500Y-10890000D02*
X15377500Y-10910000D01*
X15377500Y-10890000D02*
X15357500Y-10910000D01*
X15365000Y-11820000D02*
X15385000Y-11840000D01*
X15385000Y-11820000D02*
X15365000Y-11840000D01*
X15367500Y-11312500D02*
X15387500Y-11332500D01*
X15387500Y-11312500D02*
X15367500Y-11332500D01*
X15370000Y-11480000D02*
X15390000Y-11500000D01*
X15390000Y-11480000D02*
X15370000Y-11500000D01*
X15397500Y-10207500D02*
X15417500Y-10227500D01*
X15417500Y-10207500D02*
X15397500Y-10227500D01*
X15412500Y-12092500D02*
X15432500Y-12112500D01*
X15432500Y-12092500D02*
X15412500Y-12112500D01*
X15477500Y-11182500D02*
X15497500Y-11202500D01*
X15497500Y-11182500D02*
X15477500Y-11202500D01*
X15477500Y-11940000D02*
X15497500Y-11960000D01*
X15497500Y-11940000D02*
X15477500Y-11960000D01*
X15492500Y-12617500D02*
X15512500Y-12637500D01*
X15512500Y-12617500D02*
X15492500Y-12637500D01*
X15579000Y-11128000D02*
X15599000Y-11148000D01*
X15599000Y-11128000D02*
X15579000Y-11148000D01*
X15612500Y-12187500D02*
X15632500Y-12207500D01*
X15632500Y-12187500D02*
X15612500Y-12207500D01*
X15640000Y-11960000D02*
X15660000Y-11980000D01*
X15660000Y-11960000D02*
X15640000Y-11980000D01*
X15667500Y-10267500D02*
X15687500Y-10287500D01*
X15687500Y-10267500D02*
X15667500Y-10287500D01*
X15673017Y-12289194D02*
X15693017Y-12309194D01*
X15693017Y-12289194D02*
X15673017Y-12309194D01*
X15695000Y-10467500D02*
X15715000Y-10487500D01*
X15715000Y-10467500D02*
X15695000Y-10487500D01*
X15700000Y-11962500D02*
X15720000Y-11982500D01*
X15720000Y-11962500D02*
X15700000Y-11982500D01*
X15740000Y-12832500D02*
X15760000Y-12852500D01*
X15760000Y-12832500D02*
X15740000Y-12852500D01*
X15742500Y-12317500D02*
X15762500Y-12337500D01*
X15762500Y-12317500D02*
X15742500Y-12337500D01*
X15745000Y-9620000D02*
X15765000Y-9640000D01*
X15765000Y-9620000D02*
X15745000Y-9640000D01*
X15745000Y-9917500D02*
X15765000Y-9937500D01*
X15765000Y-9917500D02*
X15745000Y-9937500D01*
X15764000Y-11322000D02*
X15784000Y-11342000D01*
X15784000Y-11322000D02*
X15764000Y-11342000D01*
X13415000Y-10160000D02*
G75*
G02*
X13385000Y-10160000I-15000J0D01*
G01*
X13385000Y-10160000D02*
G75*
G02*
X13415000Y-10160000I15000J0D01*
G01*
X13415000Y-10261600D02*
G75*
G02*
X13385000Y-10261600I-15000J0D01*
G01*
X13385000Y-10261600D02*
G75*
G02*
X13415000Y-10261600I15000J0D01*
G01*
X13630000Y-9962500D02*
G75*
G02*
X13600000Y-9962500I-15000J0D01*
G01*
X13600000Y-9962500D02*
G75*
G02*
X13630000Y-9962500I15000J0D01*
G01*
X12775000Y-11145250D02*
X12775000Y-11205250D01*
X12745000Y-11175250D02*
X12805000Y-11175250D01*
X12815000Y-11145250D02*
X12735000Y-11145250D01*
X12735000Y-11205250D02*
G75*
G02*
X12735000Y-11145250I0J30000D01*
G01*
X12735000Y-11205250D02*
X12815000Y-11205250D01*
X12815000Y-11205250D02*
G75*
G03*
X12815000Y-11145250I0J30000D01*
G01*
X12775000Y-12009250D02*
X12775000Y-12069250D01*
X12745000Y-12039250D02*
X12805000Y-12039250D01*
X12815000Y-12009250D02*
X12735000Y-12009250D01*
X12735000Y-12069250D02*
G75*
G02*
X12735000Y-12009250I0J30000D01*
G01*
X12735000Y-12069250D02*
X12815000Y-12069250D01*
X12815000Y-12069250D02*
G75*
G03*
X12815000Y-12009250I0J30000D01*
G01*
X13193000Y-11145250D02*
X13193000Y-11205250D01*
X13163000Y-11175250D02*
X13223000Y-11175250D01*
X13248000Y-11145250D02*
X13138000Y-11145250D01*
X13138000Y-11205250D02*
G75*
G02*
X13138000Y-11145250I0J30000D01*
G01*
X13138000Y-11205250D02*
X13248000Y-11205250D01*
X13248000Y-11205250D02*
G75*
G03*
X13248000Y-11145250I0J30000D01*
G01*
X13193000Y-12009250D02*
X13193000Y-12069250D01*
X13163000Y-12039250D02*
X13223000Y-12039250D01*
X13248000Y-12009250D02*
X13138000Y-12009250D01*
X13138000Y-12069250D02*
G75*
G02*
X13138000Y-12009250I0J30000D01*
G01*
X13138000Y-12069250D02*
X13248000Y-12069250D01*
X13248000Y-12069250D02*
G75*
G03*
X13248000Y-12009250I0J30000D01*
G01*
X15676517Y-10826517D02*
X15676517Y-10773483D01*
X15623483Y-10773483D01*
X15623483Y-10826517D01*
X15676517Y-10826517D01*
X15676517Y-11026517D02*
X15676517Y-10973483D01*
X15623483Y-10973483D01*
X15623483Y-11026517D01*
X15676517Y-11026517D01*
X15675000Y-11501332D02*
X15719450Y-11456882D01*
X15675000Y-11412432D01*
X15630550Y-11456882D01*
X15675000Y-11501332D01*
X15675000Y-11801052D02*
X15719450Y-11756602D01*
X15675000Y-11712152D01*
X15630550Y-11756602D01*
X15675000Y-11801052D01*
D11*
X12915277Y-13420984D02*
X12915277Y-13220984D01*
X12915277Y-13220984D02*
X12962896Y-13220984D01*
X12962896Y-13220984D02*
X12991467Y-13230508D01*
X12991467Y-13230508D02*
X13010515Y-13249555D01*
X13010515Y-13249555D02*
X13020039Y-13268603D01*
X13020039Y-13268603D02*
X13029562Y-13306698D01*
X13029562Y-13306698D02*
X13029562Y-13335269D01*
X13029562Y-13335269D02*
X13020039Y-13373365D01*
X13020039Y-13373365D02*
X13010515Y-13392412D01*
X13010515Y-13392412D02*
X12991467Y-13411460D01*
X12991467Y-13411460D02*
X12962896Y-13420984D01*
X12962896Y-13420984D02*
X12915277Y-13420984D01*
X13115277Y-13420984D02*
X13115277Y-13287650D01*
X13115277Y-13325746D02*
X13124801Y-13306698D01*
X13124801Y-13306698D02*
X13134324Y-13297174D01*
X13134324Y-13297174D02*
X13153372Y-13287650D01*
X13153372Y-13287650D02*
X13172420Y-13287650D01*
X13239086Y-13420984D02*
X13239086Y-13287650D01*
X13239086Y-13220984D02*
X13229562Y-13230508D01*
X13229562Y-13230508D02*
X13239086Y-13240031D01*
X13239086Y-13240031D02*
X13248610Y-13230508D01*
X13248610Y-13230508D02*
X13239086Y-13220984D01*
X13239086Y-13220984D02*
X13239086Y-13240031D01*
X13362896Y-13420984D02*
X13343848Y-13411460D01*
X13343848Y-13411460D02*
X13334324Y-13392412D01*
X13334324Y-13392412D02*
X13334324Y-13220984D01*
X13467658Y-13420984D02*
X13448610Y-13411460D01*
X13448610Y-13411460D02*
X13439086Y-13392412D01*
X13439086Y-13392412D02*
X13439086Y-13220984D01*
X13696229Y-13420984D02*
X13696229Y-13220984D01*
X13696229Y-13220984D02*
X13762896Y-13363841D01*
X13762896Y-13363841D02*
X13829562Y-13220984D01*
X13829562Y-13220984D02*
X13829562Y-13420984D01*
X14010515Y-13420984D02*
X14010515Y-13316222D01*
X14010515Y-13316222D02*
X14000991Y-13297174D01*
X14000991Y-13297174D02*
X13981943Y-13287650D01*
X13981943Y-13287650D02*
X13943848Y-13287650D01*
X13943848Y-13287650D02*
X13924801Y-13297174D01*
X14010515Y-13411460D02*
X13991467Y-13420984D01*
X13991467Y-13420984D02*
X13943848Y-13420984D01*
X13943848Y-13420984D02*
X13924801Y-13411460D01*
X13924801Y-13411460D02*
X13915277Y-13392412D01*
X13915277Y-13392412D02*
X13915277Y-13373365D01*
X13915277Y-13373365D02*
X13924801Y-13354317D01*
X13924801Y-13354317D02*
X13943848Y-13344793D01*
X13943848Y-13344793D02*
X13991467Y-13344793D01*
X13991467Y-13344793D02*
X14010515Y-13335269D01*
X14105753Y-13287650D02*
X14105753Y-13487650D01*
X14105753Y-13297174D02*
X14124801Y-13287650D01*
X14124801Y-13287650D02*
X14162896Y-13287650D01*
X14162896Y-13287650D02*
X14181943Y-13297174D01*
X14181943Y-13297174D02*
X14191467Y-13306698D01*
X14191467Y-13306698D02*
X14200991Y-13325746D01*
X14200991Y-13325746D02*
X14200991Y-13382888D01*
X14200991Y-13382888D02*
X14191467Y-13401936D01*
X14191467Y-13401936D02*
X14181943Y-13411460D01*
X14181943Y-13411460D02*
X14162896Y-13420984D01*
X14162896Y-13420984D02*
X14124801Y-13420984D01*
X14124801Y-13420984D02*
X14105753Y-13411460D01*
X14286705Y-13401936D02*
X14296229Y-13411460D01*
X14296229Y-13411460D02*
X14286705Y-13420984D01*
X14286705Y-13420984D02*
X14277182Y-13411460D01*
X14277182Y-13411460D02*
X14286705Y-13401936D01*
X14286705Y-13401936D02*
X14286705Y-13420984D01*
X14286705Y-13297174D02*
X14296229Y-13306698D01*
X14296229Y-13306698D02*
X14286705Y-13316222D01*
X14286705Y-13316222D02*
X14277182Y-13306698D01*
X14277182Y-13306698D02*
X14286705Y-13297174D01*
X14286705Y-13297174D02*
X14286705Y-13316222D01*
D12*
X12634500Y-13739500D02*
X12654500Y-13759500D01*
X12654500Y-13739500D02*
X12634500Y-13759500D01*
D11*
X12953372Y-13640984D02*
X12972420Y-13640984D01*
X12972420Y-13640984D02*
X12991467Y-13650508D01*
X12991467Y-13650508D02*
X13000991Y-13660031D01*
X13000991Y-13660031D02*
X13010515Y-13679079D01*
X13010515Y-13679079D02*
X13020039Y-13717174D01*
X13020039Y-13717174D02*
X13020039Y-13764793D01*
X13020039Y-13764793D02*
X13010515Y-13802888D01*
X13010515Y-13802888D02*
X13000991Y-13821936D01*
X13000991Y-13821936D02*
X12991467Y-13831460D01*
X12991467Y-13831460D02*
X12972420Y-13840984D01*
X12972420Y-13840984D02*
X12953372Y-13840984D01*
X12953372Y-13840984D02*
X12934324Y-13831460D01*
X12934324Y-13831460D02*
X12924801Y-13821936D01*
X12924801Y-13821936D02*
X12915277Y-13802888D01*
X12915277Y-13802888D02*
X12905753Y-13764793D01*
X12905753Y-13764793D02*
X12905753Y-13717174D01*
X12905753Y-13717174D02*
X12915277Y-13679079D01*
X12915277Y-13679079D02*
X12924801Y-13660031D01*
X12924801Y-13660031D02*
X12934324Y-13650508D01*
X12934324Y-13650508D02*
X12953372Y-13640984D01*
X13105753Y-13821936D02*
X13115277Y-13831460D01*
X13115277Y-13831460D02*
X13105753Y-13840984D01*
X13105753Y-13840984D02*
X13096229Y-13831460D01*
X13096229Y-13831460D02*
X13105753Y-13821936D01*
X13105753Y-13821936D02*
X13105753Y-13840984D01*
X13191467Y-13660031D02*
X13200991Y-13650508D01*
X13200991Y-13650508D02*
X13220039Y-13640984D01*
X13220039Y-13640984D02*
X13267658Y-13640984D01*
X13267658Y-13640984D02*
X13286705Y-13650508D01*
X13286705Y-13650508D02*
X13296229Y-13660031D01*
X13296229Y-13660031D02*
X13305753Y-13679079D01*
X13305753Y-13679079D02*
X13305753Y-13698127D01*
X13305753Y-13698127D02*
X13296229Y-13726698D01*
X13296229Y-13726698D02*
X13181943Y-13840984D01*
X13181943Y-13840984D02*
X13305753Y-13840984D01*
X13429562Y-13640984D02*
X13448610Y-13640984D01*
X13448610Y-13640984D02*
X13467658Y-13650508D01*
X13467658Y-13650508D02*
X13477182Y-13660031D01*
X13477182Y-13660031D02*
X13486705Y-13679079D01*
X13486705Y-13679079D02*
X13496229Y-13717174D01*
X13496229Y-13717174D02*
X13496229Y-13764793D01*
X13496229Y-13764793D02*
X13486705Y-13802888D01*
X13486705Y-13802888D02*
X13477182Y-13821936D01*
X13477182Y-13821936D02*
X13467658Y-13831460D01*
X13467658Y-13831460D02*
X13448610Y-13840984D01*
X13448610Y-13840984D02*
X13429562Y-13840984D01*
X13429562Y-13840984D02*
X13410515Y-13831460D01*
X13410515Y-13831460D02*
X13400991Y-13821936D01*
X13400991Y-13821936D02*
X13391467Y-13802888D01*
X13391467Y-13802888D02*
X13381943Y-13764793D01*
X13381943Y-13764793D02*
X13381943Y-13717174D01*
X13381943Y-13717174D02*
X13391467Y-13679079D01*
X13391467Y-13679079D02*
X13400991Y-13660031D01*
X13400991Y-13660031D02*
X13410515Y-13650508D01*
X13410515Y-13650508D02*
X13429562Y-13640984D01*
X13620039Y-13640984D02*
X13639086Y-13640984D01*
X13639086Y-13640984D02*
X13658134Y-13650508D01*
X13658134Y-13650508D02*
X13667658Y-13660031D01*
X13667658Y-13660031D02*
X13677182Y-13679079D01*
X13677182Y-13679079D02*
X13686705Y-13717174D01*
X13686705Y-13717174D02*
X13686705Y-13764793D01*
X13686705Y-13764793D02*
X13677182Y-13802888D01*
X13677182Y-13802888D02*
X13667658Y-13821936D01*
X13667658Y-13821936D02*
X13658134Y-13831460D01*
X13658134Y-13831460D02*
X13639086Y-13840984D01*
X13639086Y-13840984D02*
X13620039Y-13840984D01*
X13620039Y-13840984D02*
X13600991Y-13831460D01*
X13600991Y-13831460D02*
X13591467Y-13821936D01*
X13591467Y-13821936D02*
X13581943Y-13802888D01*
X13581943Y-13802888D02*
X13572420Y-13764793D01*
X13572420Y-13764793D02*
X13572420Y-13717174D01*
X13572420Y-13717174D02*
X13581943Y-13679079D01*
X13581943Y-13679079D02*
X13591467Y-13660031D01*
X13591467Y-13660031D02*
X13600991Y-13650508D01*
X13600991Y-13650508D02*
X13620039Y-13640984D01*
X13772420Y-13840984D02*
X13772420Y-13707650D01*
X13772420Y-13726698D02*
X13781943Y-13717174D01*
X13781943Y-13717174D02*
X13800991Y-13707650D01*
X13800991Y-13707650D02*
X13829563Y-13707650D01*
X13829563Y-13707650D02*
X13848610Y-13717174D01*
X13848610Y-13717174D02*
X13858134Y-13736222D01*
X13858134Y-13736222D02*
X13858134Y-13840984D01*
X13858134Y-13736222D02*
X13867658Y-13717174D01*
X13867658Y-13717174D02*
X13886705Y-13707650D01*
X13886705Y-13707650D02*
X13915277Y-13707650D01*
X13915277Y-13707650D02*
X13934324Y-13717174D01*
X13934324Y-13717174D02*
X13943848Y-13736222D01*
X13943848Y-13736222D02*
X13943848Y-13840984D01*
X14039086Y-13840984D02*
X14039086Y-13707650D01*
X14039086Y-13726698D02*
X14048610Y-13717174D01*
X14048610Y-13717174D02*
X14067658Y-13707650D01*
X14067658Y-13707650D02*
X14096229Y-13707650D01*
X14096229Y-13707650D02*
X14115277Y-13717174D01*
X14115277Y-13717174D02*
X14124801Y-13736222D01*
X14124801Y-13736222D02*
X14124801Y-13840984D01*
X14124801Y-13736222D02*
X14134324Y-13717174D01*
X14134324Y-13717174D02*
X14153372Y-13707650D01*
X14153372Y-13707650D02*
X14181943Y-13707650D01*
X14181943Y-13707650D02*
X14200991Y-13717174D01*
X14200991Y-13717174D02*
X14210515Y-13736222D01*
X14210515Y-13736222D02*
X14210515Y-13840984D01*
X14600991Y-13631460D02*
X14429563Y-13888603D01*
X14858134Y-13640984D02*
X14877182Y-13640984D01*
X14877182Y-13640984D02*
X14896229Y-13650508D01*
X14896229Y-13650508D02*
X14905753Y-13660031D01*
X14905753Y-13660031D02*
X14915277Y-13679079D01*
X14915277Y-13679079D02*
X14924801Y-13717174D01*
X14924801Y-13717174D02*
X14924801Y-13764793D01*
X14924801Y-13764793D02*
X14915277Y-13802888D01*
X14915277Y-13802888D02*
X14905753Y-13821936D01*
X14905753Y-13821936D02*
X14896229Y-13831460D01*
X14896229Y-13831460D02*
X14877182Y-13840984D01*
X14877182Y-13840984D02*
X14858134Y-13840984D01*
X14858134Y-13840984D02*
X14839086Y-13831460D01*
X14839086Y-13831460D02*
X14829563Y-13821936D01*
X14829563Y-13821936D02*
X14820039Y-13802888D01*
X14820039Y-13802888D02*
X14810515Y-13764793D01*
X14810515Y-13764793D02*
X14810515Y-13717174D01*
X14810515Y-13717174D02*
X14820039Y-13679079D01*
X14820039Y-13679079D02*
X14829563Y-13660031D01*
X14829563Y-13660031D02*
X14839086Y-13650508D01*
X14839086Y-13650508D02*
X14858134Y-13640984D01*
X15010515Y-13821936D02*
X15020039Y-13831460D01*
X15020039Y-13831460D02*
X15010515Y-13840984D01*
X15010515Y-13840984D02*
X15000991Y-13831460D01*
X15000991Y-13831460D02*
X15010515Y-13821936D01*
X15010515Y-13821936D02*
X15010515Y-13840984D01*
X15143848Y-13640984D02*
X15162896Y-13640984D01*
X15162896Y-13640984D02*
X15181944Y-13650508D01*
X15181944Y-13650508D02*
X15191467Y-13660031D01*
X15191467Y-13660031D02*
X15200991Y-13679079D01*
X15200991Y-13679079D02*
X15210515Y-13717174D01*
X15210515Y-13717174D02*
X15210515Y-13764793D01*
X15210515Y-13764793D02*
X15200991Y-13802888D01*
X15200991Y-13802888D02*
X15191467Y-13821936D01*
X15191467Y-13821936D02*
X15181944Y-13831460D01*
X15181944Y-13831460D02*
X15162896Y-13840984D01*
X15162896Y-13840984D02*
X15143848Y-13840984D01*
X15143848Y-13840984D02*
X15124801Y-13831460D01*
X15124801Y-13831460D02*
X15115277Y-13821936D01*
X15115277Y-13821936D02*
X15105753Y-13802888D01*
X15105753Y-13802888D02*
X15096229Y-13764793D01*
X15096229Y-13764793D02*
X15096229Y-13717174D01*
X15096229Y-13717174D02*
X15105753Y-13679079D01*
X15105753Y-13679079D02*
X15115277Y-13660031D01*
X15115277Y-13660031D02*
X15124801Y-13650508D01*
X15124801Y-13650508D02*
X15143848Y-13640984D01*
X15334325Y-13640984D02*
X15353372Y-13640984D01*
X15353372Y-13640984D02*
X15372420Y-13650508D01*
X15372420Y-13650508D02*
X15381944Y-13660031D01*
X15381944Y-13660031D02*
X15391467Y-13679079D01*
X15391467Y-13679079D02*
X15400991Y-13717174D01*
X15400991Y-13717174D02*
X15400991Y-13764793D01*
X15400991Y-13764793D02*
X15391467Y-13802888D01*
X15391467Y-13802888D02*
X15381944Y-13821936D01*
X15381944Y-13821936D02*
X15372420Y-13831460D01*
X15372420Y-13831460D02*
X15353372Y-13840984D01*
X15353372Y-13840984D02*
X15334325Y-13840984D01*
X15334325Y-13840984D02*
X15315277Y-13831460D01*
X15315277Y-13831460D02*
X15305753Y-13821936D01*
X15305753Y-13821936D02*
X15296229Y-13802888D01*
X15296229Y-13802888D02*
X15286706Y-13764793D01*
X15286706Y-13764793D02*
X15286706Y-13717174D01*
X15286706Y-13717174D02*
X15296229Y-13679079D01*
X15296229Y-13679079D02*
X15305753Y-13660031D01*
X15305753Y-13660031D02*
X15315277Y-13650508D01*
X15315277Y-13650508D02*
X15334325Y-13640984D01*
X15467658Y-13640984D02*
X15600991Y-13640984D01*
X15600991Y-13640984D02*
X15515277Y-13840984D01*
X15686706Y-13840984D02*
X15724801Y-13840984D01*
X15724801Y-13840984D02*
X15743848Y-13831460D01*
X15743848Y-13831460D02*
X15753372Y-13821936D01*
X15753372Y-13821936D02*
X15772420Y-13793365D01*
X15772420Y-13793365D02*
X15781944Y-13755269D01*
X15781944Y-13755269D02*
X15781944Y-13679079D01*
X15781944Y-13679079D02*
X15772420Y-13660031D01*
X15772420Y-13660031D02*
X15762896Y-13650508D01*
X15762896Y-13650508D02*
X15743848Y-13640984D01*
X15743848Y-13640984D02*
X15705753Y-13640984D01*
X15705753Y-13640984D02*
X15686706Y-13650508D01*
X15686706Y-13650508D02*
X15677182Y-13660031D01*
X15677182Y-13660031D02*
X15667658Y-13679079D01*
X15667658Y-13679079D02*
X15667658Y-13726698D01*
X15667658Y-13726698D02*
X15677182Y-13745746D01*
X15677182Y-13745746D02*
X15686706Y-13755269D01*
X15686706Y-13755269D02*
X15705753Y-13764793D01*
X15705753Y-13764793D02*
X15743848Y-13764793D01*
X15743848Y-13764793D02*
X15762896Y-13755269D01*
X15762896Y-13755269D02*
X15772420Y-13745746D01*
X15772420Y-13745746D02*
X15781944Y-13726698D01*
X15858134Y-13640984D02*
X15858134Y-13679079D01*
X15934325Y-13640984D02*
X15934325Y-13679079D01*
X16229563Y-13917174D02*
X16220039Y-13907650D01*
X16220039Y-13907650D02*
X16200991Y-13879079D01*
X16200991Y-13879079D02*
X16191468Y-13860031D01*
X16191468Y-13860031D02*
X16181944Y-13831460D01*
X16181944Y-13831460D02*
X16172420Y-13783841D01*
X16172420Y-13783841D02*
X16172420Y-13745746D01*
X16172420Y-13745746D02*
X16181944Y-13698127D01*
X16181944Y-13698127D02*
X16191468Y-13669555D01*
X16191468Y-13669555D02*
X16200991Y-13650508D01*
X16200991Y-13650508D02*
X16220039Y-13621936D01*
X16220039Y-13621936D02*
X16229563Y-13612412D01*
X16410515Y-13840984D02*
X16296229Y-13840984D01*
X16353372Y-13840984D02*
X16353372Y-13640984D01*
X16353372Y-13640984D02*
X16334325Y-13669555D01*
X16334325Y-13669555D02*
X16315277Y-13688603D01*
X16315277Y-13688603D02*
X16296229Y-13698127D01*
X16581944Y-13707650D02*
X16581944Y-13840984D01*
X16534325Y-13631460D02*
X16486706Y-13774317D01*
X16486706Y-13774317D02*
X16610515Y-13774317D01*
X16781944Y-13640984D02*
X16686706Y-13640984D01*
X16686706Y-13640984D02*
X16677182Y-13736222D01*
X16677182Y-13736222D02*
X16686706Y-13726698D01*
X16686706Y-13726698D02*
X16705753Y-13717174D01*
X16705753Y-13717174D02*
X16753372Y-13717174D01*
X16753372Y-13717174D02*
X16772420Y-13726698D01*
X16772420Y-13726698D02*
X16781944Y-13736222D01*
X16781944Y-13736222D02*
X16791468Y-13755269D01*
X16791468Y-13755269D02*
X16791468Y-13802888D01*
X16791468Y-13802888D02*
X16781944Y-13821936D01*
X16781944Y-13821936D02*
X16772420Y-13831460D01*
X16772420Y-13831460D02*
X16753372Y-13840984D01*
X16753372Y-13840984D02*
X16705753Y-13840984D01*
X16705753Y-13840984D02*
X16686706Y-13831460D01*
X16686706Y-13831460D02*
X16677182Y-13821936D01*
X17029563Y-13840984D02*
X17029563Y-13640984D01*
X17115277Y-13840984D02*
X17115277Y-13736222D01*
X17115277Y-13736222D02*
X17105753Y-13717174D01*
X17105753Y-13717174D02*
X17086706Y-13707650D01*
X17086706Y-13707650D02*
X17058134Y-13707650D01*
X17058134Y-13707650D02*
X17039087Y-13717174D01*
X17039087Y-13717174D02*
X17029563Y-13726698D01*
X17239087Y-13840984D02*
X17220039Y-13831460D01*
X17220039Y-13831460D02*
X17210515Y-13821936D01*
X17210515Y-13821936D02*
X17200992Y-13802888D01*
X17200992Y-13802888D02*
X17200992Y-13745746D01*
X17200992Y-13745746D02*
X17210515Y-13726698D01*
X17210515Y-13726698D02*
X17220039Y-13717174D01*
X17220039Y-13717174D02*
X17239087Y-13707650D01*
X17239087Y-13707650D02*
X17267658Y-13707650D01*
X17267658Y-13707650D02*
X17286706Y-13717174D01*
X17286706Y-13717174D02*
X17296230Y-13726698D01*
X17296230Y-13726698D02*
X17305753Y-13745746D01*
X17305753Y-13745746D02*
X17305753Y-13802888D01*
X17305753Y-13802888D02*
X17296230Y-13821936D01*
X17296230Y-13821936D02*
X17286706Y-13831460D01*
X17286706Y-13831460D02*
X17267658Y-13840984D01*
X17267658Y-13840984D02*
X17239087Y-13840984D01*
X17420039Y-13840984D02*
X17400992Y-13831460D01*
X17400992Y-13831460D02*
X17391468Y-13812412D01*
X17391468Y-13812412D02*
X17391468Y-13640984D01*
X17572420Y-13831460D02*
X17553373Y-13840984D01*
X17553373Y-13840984D02*
X17515277Y-13840984D01*
X17515277Y-13840984D02*
X17496230Y-13831460D01*
X17496230Y-13831460D02*
X17486706Y-13812412D01*
X17486706Y-13812412D02*
X17486706Y-13736222D01*
X17486706Y-13736222D02*
X17496230Y-13717174D01*
X17496230Y-13717174D02*
X17515277Y-13707650D01*
X17515277Y-13707650D02*
X17553373Y-13707650D01*
X17553373Y-13707650D02*
X17572420Y-13717174D01*
X17572420Y-13717174D02*
X17581944Y-13736222D01*
X17581944Y-13736222D02*
X17581944Y-13755269D01*
X17581944Y-13755269D02*
X17486706Y-13774317D01*
X17658134Y-13831460D02*
X17677182Y-13840984D01*
X17677182Y-13840984D02*
X17715277Y-13840984D01*
X17715277Y-13840984D02*
X17734325Y-13831460D01*
X17734325Y-13831460D02*
X17743849Y-13812412D01*
X17743849Y-13812412D02*
X17743849Y-13802888D01*
X17743849Y-13802888D02*
X17734325Y-13783841D01*
X17734325Y-13783841D02*
X17715277Y-13774317D01*
X17715277Y-13774317D02*
X17686706Y-13774317D01*
X17686706Y-13774317D02*
X17667658Y-13764793D01*
X17667658Y-13764793D02*
X17658134Y-13745746D01*
X17658134Y-13745746D02*
X17658134Y-13736222D01*
X17658134Y-13736222D02*
X17667658Y-13717174D01*
X17667658Y-13717174D02*
X17686706Y-13707650D01*
X17686706Y-13707650D02*
X17715277Y-13707650D01*
X17715277Y-13707650D02*
X17734325Y-13717174D01*
X17810515Y-13917174D02*
X17820039Y-13907650D01*
X17820039Y-13907650D02*
X17839087Y-13879079D01*
X17839087Y-13879079D02*
X17848611Y-13860031D01*
X17848611Y-13860031D02*
X17858134Y-13831460D01*
X17858134Y-13831460D02*
X17867658Y-13783841D01*
X17867658Y-13783841D02*
X17867658Y-13745746D01*
X17867658Y-13745746D02*
X17858134Y-13698127D01*
X17858134Y-13698127D02*
X17848611Y-13669555D01*
X17848611Y-13669555D02*
X17839087Y-13650508D01*
X17839087Y-13650508D02*
X17820039Y-13621936D01*
X17820039Y-13621936D02*
X17810515Y-13612412D01*
D12*
X12654500Y-14013500D02*
G75*
G02*
X12624500Y-14013500I-15000J0D01*
G01*
X12624500Y-14013500D02*
G75*
G02*
X12654500Y-14013500I15000J0D01*
G01*
D11*
X12953372Y-13904984D02*
X12972420Y-13904984D01*
X12972420Y-13904984D02*
X12991467Y-13914508D01*
X12991467Y-13914508D02*
X13000991Y-13924031D01*
X13000991Y-13924031D02*
X13010515Y-13943079D01*
X13010515Y-13943079D02*
X13020039Y-13981174D01*
X13020039Y-13981174D02*
X13020039Y-14028793D01*
X13020039Y-14028793D02*
X13010515Y-14066888D01*
X13010515Y-14066888D02*
X13000991Y-14085936D01*
X13000991Y-14085936D02*
X12991467Y-14095460D01*
X12991467Y-14095460D02*
X12972420Y-14104984D01*
X12972420Y-14104984D02*
X12953372Y-14104984D01*
X12953372Y-14104984D02*
X12934324Y-14095460D01*
X12934324Y-14095460D02*
X12924801Y-14085936D01*
X12924801Y-14085936D02*
X12915277Y-14066888D01*
X12915277Y-14066888D02*
X12905753Y-14028793D01*
X12905753Y-14028793D02*
X12905753Y-13981174D01*
X12905753Y-13981174D02*
X12915277Y-13943079D01*
X12915277Y-13943079D02*
X12924801Y-13924031D01*
X12924801Y-13924031D02*
X12934324Y-13914508D01*
X12934324Y-13914508D02*
X12953372Y-13904984D01*
X13105753Y-14085936D02*
X13115277Y-14095460D01*
X13115277Y-14095460D02*
X13105753Y-14104984D01*
X13105753Y-14104984D02*
X13096229Y-14095460D01*
X13096229Y-14095460D02*
X13105753Y-14085936D01*
X13105753Y-14085936D02*
X13105753Y-14104984D01*
X13181943Y-13904984D02*
X13305753Y-13904984D01*
X13305753Y-13904984D02*
X13239086Y-13981174D01*
X13239086Y-13981174D02*
X13267658Y-13981174D01*
X13267658Y-13981174D02*
X13286705Y-13990698D01*
X13286705Y-13990698D02*
X13296229Y-14000222D01*
X13296229Y-14000222D02*
X13305753Y-14019269D01*
X13305753Y-14019269D02*
X13305753Y-14066888D01*
X13305753Y-14066888D02*
X13296229Y-14085936D01*
X13296229Y-14085936D02*
X13286705Y-14095460D01*
X13286705Y-14095460D02*
X13267658Y-14104984D01*
X13267658Y-14104984D02*
X13210515Y-14104984D01*
X13210515Y-14104984D02*
X13191467Y-14095460D01*
X13191467Y-14095460D02*
X13181943Y-14085936D01*
X13429562Y-13904984D02*
X13448610Y-13904984D01*
X13448610Y-13904984D02*
X13467658Y-13914508D01*
X13467658Y-13914508D02*
X13477182Y-13924031D01*
X13477182Y-13924031D02*
X13486705Y-13943079D01*
X13486705Y-13943079D02*
X13496229Y-13981174D01*
X13496229Y-13981174D02*
X13496229Y-14028793D01*
X13496229Y-14028793D02*
X13486705Y-14066888D01*
X13486705Y-14066888D02*
X13477182Y-14085936D01*
X13477182Y-14085936D02*
X13467658Y-14095460D01*
X13467658Y-14095460D02*
X13448610Y-14104984D01*
X13448610Y-14104984D02*
X13429562Y-14104984D01*
X13429562Y-14104984D02*
X13410515Y-14095460D01*
X13410515Y-14095460D02*
X13400991Y-14085936D01*
X13400991Y-14085936D02*
X13391467Y-14066888D01*
X13391467Y-14066888D02*
X13381943Y-14028793D01*
X13381943Y-14028793D02*
X13381943Y-13981174D01*
X13381943Y-13981174D02*
X13391467Y-13943079D01*
X13391467Y-13943079D02*
X13400991Y-13924031D01*
X13400991Y-13924031D02*
X13410515Y-13914508D01*
X13410515Y-13914508D02*
X13429562Y-13904984D01*
X13620039Y-13904984D02*
X13639086Y-13904984D01*
X13639086Y-13904984D02*
X13658134Y-13914508D01*
X13658134Y-13914508D02*
X13667658Y-13924031D01*
X13667658Y-13924031D02*
X13677182Y-13943079D01*
X13677182Y-13943079D02*
X13686705Y-13981174D01*
X13686705Y-13981174D02*
X13686705Y-14028793D01*
X13686705Y-14028793D02*
X13677182Y-14066888D01*
X13677182Y-14066888D02*
X13667658Y-14085936D01*
X13667658Y-14085936D02*
X13658134Y-14095460D01*
X13658134Y-14095460D02*
X13639086Y-14104984D01*
X13639086Y-14104984D02*
X13620039Y-14104984D01*
X13620039Y-14104984D02*
X13600991Y-14095460D01*
X13600991Y-14095460D02*
X13591467Y-14085936D01*
X13591467Y-14085936D02*
X13581943Y-14066888D01*
X13581943Y-14066888D02*
X13572420Y-14028793D01*
X13572420Y-14028793D02*
X13572420Y-13981174D01*
X13572420Y-13981174D02*
X13581943Y-13943079D01*
X13581943Y-13943079D02*
X13591467Y-13924031D01*
X13591467Y-13924031D02*
X13600991Y-13914508D01*
X13600991Y-13914508D02*
X13620039Y-13904984D01*
X13772420Y-14104984D02*
X13772420Y-13971650D01*
X13772420Y-13990698D02*
X13781943Y-13981174D01*
X13781943Y-13981174D02*
X13800991Y-13971650D01*
X13800991Y-13971650D02*
X13829563Y-13971650D01*
X13829563Y-13971650D02*
X13848610Y-13981174D01*
X13848610Y-13981174D02*
X13858134Y-14000222D01*
X13858134Y-14000222D02*
X13858134Y-14104984D01*
X13858134Y-14000222D02*
X13867658Y-13981174D01*
X13867658Y-13981174D02*
X13886705Y-13971650D01*
X13886705Y-13971650D02*
X13915277Y-13971650D01*
X13915277Y-13971650D02*
X13934324Y-13981174D01*
X13934324Y-13981174D02*
X13943848Y-14000222D01*
X13943848Y-14000222D02*
X13943848Y-14104984D01*
X14039086Y-14104984D02*
X14039086Y-13971650D01*
X14039086Y-13990698D02*
X14048610Y-13981174D01*
X14048610Y-13981174D02*
X14067658Y-13971650D01*
X14067658Y-13971650D02*
X14096229Y-13971650D01*
X14096229Y-13971650D02*
X14115277Y-13981174D01*
X14115277Y-13981174D02*
X14124801Y-14000222D01*
X14124801Y-14000222D02*
X14124801Y-14104984D01*
X14124801Y-14000222D02*
X14134324Y-13981174D01*
X14134324Y-13981174D02*
X14153372Y-13971650D01*
X14153372Y-13971650D02*
X14181943Y-13971650D01*
X14181943Y-13971650D02*
X14200991Y-13981174D01*
X14200991Y-13981174D02*
X14210515Y-14000222D01*
X14210515Y-14000222D02*
X14210515Y-14104984D01*
X14600991Y-13895460D02*
X14429563Y-14152603D01*
X14858134Y-13904984D02*
X14877182Y-13904984D01*
X14877182Y-13904984D02*
X14896229Y-13914508D01*
X14896229Y-13914508D02*
X14905753Y-13924031D01*
X14905753Y-13924031D02*
X14915277Y-13943079D01*
X14915277Y-13943079D02*
X14924801Y-13981174D01*
X14924801Y-13981174D02*
X14924801Y-14028793D01*
X14924801Y-14028793D02*
X14915277Y-14066888D01*
X14915277Y-14066888D02*
X14905753Y-14085936D01*
X14905753Y-14085936D02*
X14896229Y-14095460D01*
X14896229Y-14095460D02*
X14877182Y-14104984D01*
X14877182Y-14104984D02*
X14858134Y-14104984D01*
X14858134Y-14104984D02*
X14839086Y-14095460D01*
X14839086Y-14095460D02*
X14829563Y-14085936D01*
X14829563Y-14085936D02*
X14820039Y-14066888D01*
X14820039Y-14066888D02*
X14810515Y-14028793D01*
X14810515Y-14028793D02*
X14810515Y-13981174D01*
X14810515Y-13981174D02*
X14820039Y-13943079D01*
X14820039Y-13943079D02*
X14829563Y-13924031D01*
X14829563Y-13924031D02*
X14839086Y-13914508D01*
X14839086Y-13914508D02*
X14858134Y-13904984D01*
X15010515Y-14085936D02*
X15020039Y-14095460D01*
X15020039Y-14095460D02*
X15010515Y-14104984D01*
X15010515Y-14104984D02*
X15000991Y-14095460D01*
X15000991Y-14095460D02*
X15010515Y-14085936D01*
X15010515Y-14085936D02*
X15010515Y-14104984D01*
X15143848Y-13904984D02*
X15162896Y-13904984D01*
X15162896Y-13904984D02*
X15181944Y-13914508D01*
X15181944Y-13914508D02*
X15191467Y-13924031D01*
X15191467Y-13924031D02*
X15200991Y-13943079D01*
X15200991Y-13943079D02*
X15210515Y-13981174D01*
X15210515Y-13981174D02*
X15210515Y-14028793D01*
X15210515Y-14028793D02*
X15200991Y-14066888D01*
X15200991Y-14066888D02*
X15191467Y-14085936D01*
X15191467Y-14085936D02*
X15181944Y-14095460D01*
X15181944Y-14095460D02*
X15162896Y-14104984D01*
X15162896Y-14104984D02*
X15143848Y-14104984D01*
X15143848Y-14104984D02*
X15124801Y-14095460D01*
X15124801Y-14095460D02*
X15115277Y-14085936D01*
X15115277Y-14085936D02*
X15105753Y-14066888D01*
X15105753Y-14066888D02*
X15096229Y-14028793D01*
X15096229Y-14028793D02*
X15096229Y-13981174D01*
X15096229Y-13981174D02*
X15105753Y-13943079D01*
X15105753Y-13943079D02*
X15115277Y-13924031D01*
X15115277Y-13924031D02*
X15124801Y-13914508D01*
X15124801Y-13914508D02*
X15143848Y-13904984D01*
X15400991Y-14104984D02*
X15286706Y-14104984D01*
X15343848Y-14104984D02*
X15343848Y-13904984D01*
X15343848Y-13904984D02*
X15324801Y-13933555D01*
X15324801Y-13933555D02*
X15305753Y-13952603D01*
X15305753Y-13952603D02*
X15286706Y-13962127D01*
X15591467Y-14104984D02*
X15477182Y-14104984D01*
X15534325Y-14104984D02*
X15534325Y-13904984D01*
X15534325Y-13904984D02*
X15515277Y-13933555D01*
X15515277Y-13933555D02*
X15496229Y-13952603D01*
X15496229Y-13952603D02*
X15477182Y-13962127D01*
X15705753Y-13990698D02*
X15686706Y-13981174D01*
X15686706Y-13981174D02*
X15677182Y-13971650D01*
X15677182Y-13971650D02*
X15667658Y-13952603D01*
X15667658Y-13952603D02*
X15667658Y-13943079D01*
X15667658Y-13943079D02*
X15677182Y-13924031D01*
X15677182Y-13924031D02*
X15686706Y-13914508D01*
X15686706Y-13914508D02*
X15705753Y-13904984D01*
X15705753Y-13904984D02*
X15743848Y-13904984D01*
X15743848Y-13904984D02*
X15762896Y-13914508D01*
X15762896Y-13914508D02*
X15772420Y-13924031D01*
X15772420Y-13924031D02*
X15781944Y-13943079D01*
X15781944Y-13943079D02*
X15781944Y-13952603D01*
X15781944Y-13952603D02*
X15772420Y-13971650D01*
X15772420Y-13971650D02*
X15762896Y-13981174D01*
X15762896Y-13981174D02*
X15743848Y-13990698D01*
X15743848Y-13990698D02*
X15705753Y-13990698D01*
X15705753Y-13990698D02*
X15686706Y-14000222D01*
X15686706Y-14000222D02*
X15677182Y-14009746D01*
X15677182Y-14009746D02*
X15667658Y-14028793D01*
X15667658Y-14028793D02*
X15667658Y-14066888D01*
X15667658Y-14066888D02*
X15677182Y-14085936D01*
X15677182Y-14085936D02*
X15686706Y-14095460D01*
X15686706Y-14095460D02*
X15705753Y-14104984D01*
X15705753Y-14104984D02*
X15743848Y-14104984D01*
X15743848Y-14104984D02*
X15762896Y-14095460D01*
X15762896Y-14095460D02*
X15772420Y-14085936D01*
X15772420Y-14085936D02*
X15781944Y-14066888D01*
X15781944Y-14066888D02*
X15781944Y-14028793D01*
X15781944Y-14028793D02*
X15772420Y-14009746D01*
X15772420Y-14009746D02*
X15762896Y-14000222D01*
X15762896Y-14000222D02*
X15743848Y-13990698D01*
X15858134Y-13904984D02*
X15858134Y-13943079D01*
X15934325Y-13904984D02*
X15934325Y-13943079D01*
X16229563Y-14181174D02*
X16220039Y-14171650D01*
X16220039Y-14171650D02*
X16200991Y-14143079D01*
X16200991Y-14143079D02*
X16191468Y-14124031D01*
X16191468Y-14124031D02*
X16181944Y-14095460D01*
X16181944Y-14095460D02*
X16172420Y-14047841D01*
X16172420Y-14047841D02*
X16172420Y-14009746D01*
X16172420Y-14009746D02*
X16181944Y-13962127D01*
X16181944Y-13962127D02*
X16191468Y-13933555D01*
X16191468Y-13933555D02*
X16200991Y-13914508D01*
X16200991Y-13914508D02*
X16220039Y-13885936D01*
X16220039Y-13885936D02*
X16229563Y-13876412D01*
X16286706Y-13904984D02*
X16410515Y-13904984D01*
X16410515Y-13904984D02*
X16343848Y-13981174D01*
X16343848Y-13981174D02*
X16372420Y-13981174D01*
X16372420Y-13981174D02*
X16391468Y-13990698D01*
X16391468Y-13990698D02*
X16400991Y-14000222D01*
X16400991Y-14000222D02*
X16410515Y-14019269D01*
X16410515Y-14019269D02*
X16410515Y-14066888D01*
X16410515Y-14066888D02*
X16400991Y-14085936D01*
X16400991Y-14085936D02*
X16391468Y-14095460D01*
X16391468Y-14095460D02*
X16372420Y-14104984D01*
X16372420Y-14104984D02*
X16315277Y-14104984D01*
X16315277Y-14104984D02*
X16296229Y-14095460D01*
X16296229Y-14095460D02*
X16286706Y-14085936D01*
X16648610Y-14104984D02*
X16648610Y-13904984D01*
X16734325Y-14104984D02*
X16734325Y-14000222D01*
X16734325Y-14000222D02*
X16724801Y-13981174D01*
X16724801Y-13981174D02*
X16705753Y-13971650D01*
X16705753Y-13971650D02*
X16677182Y-13971650D01*
X16677182Y-13971650D02*
X16658134Y-13981174D01*
X16658134Y-13981174D02*
X16648610Y-13990698D01*
X16858134Y-14104984D02*
X16839087Y-14095460D01*
X16839087Y-14095460D02*
X16829563Y-14085936D01*
X16829563Y-14085936D02*
X16820039Y-14066888D01*
X16820039Y-14066888D02*
X16820039Y-14009746D01*
X16820039Y-14009746D02*
X16829563Y-13990698D01*
X16829563Y-13990698D02*
X16839087Y-13981174D01*
X16839087Y-13981174D02*
X16858134Y-13971650D01*
X16858134Y-13971650D02*
X16886706Y-13971650D01*
X16886706Y-13971650D02*
X16905753Y-13981174D01*
X16905753Y-13981174D02*
X16915277Y-13990698D01*
X16915277Y-13990698D02*
X16924801Y-14009746D01*
X16924801Y-14009746D02*
X16924801Y-14066888D01*
X16924801Y-14066888D02*
X16915277Y-14085936D01*
X16915277Y-14085936D02*
X16905753Y-14095460D01*
X16905753Y-14095460D02*
X16886706Y-14104984D01*
X16886706Y-14104984D02*
X16858134Y-14104984D01*
X17039087Y-14104984D02*
X17020039Y-14095460D01*
X17020039Y-14095460D02*
X17010515Y-14076412D01*
X17010515Y-14076412D02*
X17010515Y-13904984D01*
X17191468Y-14095460D02*
X17172420Y-14104984D01*
X17172420Y-14104984D02*
X17134325Y-14104984D01*
X17134325Y-14104984D02*
X17115277Y-14095460D01*
X17115277Y-14095460D02*
X17105753Y-14076412D01*
X17105753Y-14076412D02*
X17105753Y-14000222D01*
X17105753Y-14000222D02*
X17115277Y-13981174D01*
X17115277Y-13981174D02*
X17134325Y-13971650D01*
X17134325Y-13971650D02*
X17172420Y-13971650D01*
X17172420Y-13971650D02*
X17191468Y-13981174D01*
X17191468Y-13981174D02*
X17200992Y-14000222D01*
X17200992Y-14000222D02*
X17200992Y-14019269D01*
X17200992Y-14019269D02*
X17105753Y-14038317D01*
X17277182Y-14095460D02*
X17296230Y-14104984D01*
X17296230Y-14104984D02*
X17334325Y-14104984D01*
X17334325Y-14104984D02*
X17353373Y-14095460D01*
X17353373Y-14095460D02*
X17362896Y-14076412D01*
X17362896Y-14076412D02*
X17362896Y-14066888D01*
X17362896Y-14066888D02*
X17353373Y-14047841D01*
X17353373Y-14047841D02*
X17334325Y-14038317D01*
X17334325Y-14038317D02*
X17305753Y-14038317D01*
X17305753Y-14038317D02*
X17286706Y-14028793D01*
X17286706Y-14028793D02*
X17277182Y-14009746D01*
X17277182Y-14009746D02*
X17277182Y-14000222D01*
X17277182Y-14000222D02*
X17286706Y-13981174D01*
X17286706Y-13981174D02*
X17305753Y-13971650D01*
X17305753Y-13971650D02*
X17334325Y-13971650D01*
X17334325Y-13971650D02*
X17353373Y-13981174D01*
X17429563Y-14181174D02*
X17439087Y-14171650D01*
X17439087Y-14171650D02*
X17458134Y-14143079D01*
X17458134Y-14143079D02*
X17467658Y-14124031D01*
X17467658Y-14124031D02*
X17477182Y-14095460D01*
X17477182Y-14095460D02*
X17486706Y-14047841D01*
X17486706Y-14047841D02*
X17486706Y-14009746D01*
X17486706Y-14009746D02*
X17477182Y-13962127D01*
X17477182Y-13962127D02*
X17467658Y-13933555D01*
X17467658Y-13933555D02*
X17458134Y-13914508D01*
X17458134Y-13914508D02*
X17439087Y-13885936D01*
X17439087Y-13885936D02*
X17429563Y-13876412D01*
D12*
X12624500Y-14247500D02*
X12624500Y-14307500D01*
X12594500Y-14277500D02*
X12654500Y-14277500D01*
D11*
X12953372Y-14168984D02*
X12972420Y-14168984D01*
X12972420Y-14168984D02*
X12991467Y-14178508D01*
X12991467Y-14178508D02*
X13000991Y-14188031D01*
X13000991Y-14188031D02*
X13010515Y-14207079D01*
X13010515Y-14207079D02*
X13020039Y-14245174D01*
X13020039Y-14245174D02*
X13020039Y-14292793D01*
X13020039Y-14292793D02*
X13010515Y-14330888D01*
X13010515Y-14330888D02*
X13000991Y-14349936D01*
X13000991Y-14349936D02*
X12991467Y-14359460D01*
X12991467Y-14359460D02*
X12972420Y-14368984D01*
X12972420Y-14368984D02*
X12953372Y-14368984D01*
X12953372Y-14368984D02*
X12934324Y-14359460D01*
X12934324Y-14359460D02*
X12924801Y-14349936D01*
X12924801Y-14349936D02*
X12915277Y-14330888D01*
X12915277Y-14330888D02*
X12905753Y-14292793D01*
X12905753Y-14292793D02*
X12905753Y-14245174D01*
X12905753Y-14245174D02*
X12915277Y-14207079D01*
X12915277Y-14207079D02*
X12924801Y-14188031D01*
X12924801Y-14188031D02*
X12934324Y-14178508D01*
X12934324Y-14178508D02*
X12953372Y-14168984D01*
X13105753Y-14349936D02*
X13115277Y-14359460D01*
X13115277Y-14359460D02*
X13105753Y-14368984D01*
X13105753Y-14368984D02*
X13096229Y-14359460D01*
X13096229Y-14359460D02*
X13105753Y-14349936D01*
X13105753Y-14349936D02*
X13105753Y-14368984D01*
X13286705Y-14168984D02*
X13248610Y-14168984D01*
X13248610Y-14168984D02*
X13229562Y-14178508D01*
X13229562Y-14178508D02*
X13220039Y-14188031D01*
X13220039Y-14188031D02*
X13200991Y-14216603D01*
X13200991Y-14216603D02*
X13191467Y-14254698D01*
X13191467Y-14254698D02*
X13191467Y-14330888D01*
X13191467Y-14330888D02*
X13200991Y-14349936D01*
X13200991Y-14349936D02*
X13210515Y-14359460D01*
X13210515Y-14359460D02*
X13229562Y-14368984D01*
X13229562Y-14368984D02*
X13267658Y-14368984D01*
X13267658Y-14368984D02*
X13286705Y-14359460D01*
X13286705Y-14359460D02*
X13296229Y-14349936D01*
X13296229Y-14349936D02*
X13305753Y-14330888D01*
X13305753Y-14330888D02*
X13305753Y-14283269D01*
X13305753Y-14283269D02*
X13296229Y-14264222D01*
X13296229Y-14264222D02*
X13286705Y-14254698D01*
X13286705Y-14254698D02*
X13267658Y-14245174D01*
X13267658Y-14245174D02*
X13229562Y-14245174D01*
X13229562Y-14245174D02*
X13210515Y-14254698D01*
X13210515Y-14254698D02*
X13200991Y-14264222D01*
X13200991Y-14264222D02*
X13191467Y-14283269D01*
X13429562Y-14168984D02*
X13448610Y-14168984D01*
X13448610Y-14168984D02*
X13467658Y-14178508D01*
X13467658Y-14178508D02*
X13477182Y-14188031D01*
X13477182Y-14188031D02*
X13486705Y-14207079D01*
X13486705Y-14207079D02*
X13496229Y-14245174D01*
X13496229Y-14245174D02*
X13496229Y-14292793D01*
X13496229Y-14292793D02*
X13486705Y-14330888D01*
X13486705Y-14330888D02*
X13477182Y-14349936D01*
X13477182Y-14349936D02*
X13467658Y-14359460D01*
X13467658Y-14359460D02*
X13448610Y-14368984D01*
X13448610Y-14368984D02*
X13429562Y-14368984D01*
X13429562Y-14368984D02*
X13410515Y-14359460D01*
X13410515Y-14359460D02*
X13400991Y-14349936D01*
X13400991Y-14349936D02*
X13391467Y-14330888D01*
X13391467Y-14330888D02*
X13381943Y-14292793D01*
X13381943Y-14292793D02*
X13381943Y-14245174D01*
X13381943Y-14245174D02*
X13391467Y-14207079D01*
X13391467Y-14207079D02*
X13400991Y-14188031D01*
X13400991Y-14188031D02*
X13410515Y-14178508D01*
X13410515Y-14178508D02*
X13429562Y-14168984D01*
X13620039Y-14168984D02*
X13639086Y-14168984D01*
X13639086Y-14168984D02*
X13658134Y-14178508D01*
X13658134Y-14178508D02*
X13667658Y-14188031D01*
X13667658Y-14188031D02*
X13677182Y-14207079D01*
X13677182Y-14207079D02*
X13686705Y-14245174D01*
X13686705Y-14245174D02*
X13686705Y-14292793D01*
X13686705Y-14292793D02*
X13677182Y-14330888D01*
X13677182Y-14330888D02*
X13667658Y-14349936D01*
X13667658Y-14349936D02*
X13658134Y-14359460D01*
X13658134Y-14359460D02*
X13639086Y-14368984D01*
X13639086Y-14368984D02*
X13620039Y-14368984D01*
X13620039Y-14368984D02*
X13600991Y-14359460D01*
X13600991Y-14359460D02*
X13591467Y-14349936D01*
X13591467Y-14349936D02*
X13581943Y-14330888D01*
X13581943Y-14330888D02*
X13572420Y-14292793D01*
X13572420Y-14292793D02*
X13572420Y-14245174D01*
X13572420Y-14245174D02*
X13581943Y-14207079D01*
X13581943Y-14207079D02*
X13591467Y-14188031D01*
X13591467Y-14188031D02*
X13600991Y-14178508D01*
X13600991Y-14178508D02*
X13620039Y-14168984D01*
X13772420Y-14368984D02*
X13772420Y-14235650D01*
X13772420Y-14254698D02*
X13781943Y-14245174D01*
X13781943Y-14245174D02*
X13800991Y-14235650D01*
X13800991Y-14235650D02*
X13829563Y-14235650D01*
X13829563Y-14235650D02*
X13848610Y-14245174D01*
X13848610Y-14245174D02*
X13858134Y-14264222D01*
X13858134Y-14264222D02*
X13858134Y-14368984D01*
X13858134Y-14264222D02*
X13867658Y-14245174D01*
X13867658Y-14245174D02*
X13886705Y-14235650D01*
X13886705Y-14235650D02*
X13915277Y-14235650D01*
X13915277Y-14235650D02*
X13934324Y-14245174D01*
X13934324Y-14245174D02*
X13943848Y-14264222D01*
X13943848Y-14264222D02*
X13943848Y-14368984D01*
X14039086Y-14368984D02*
X14039086Y-14235650D01*
X14039086Y-14254698D02*
X14048610Y-14245174D01*
X14048610Y-14245174D02*
X14067658Y-14235650D01*
X14067658Y-14235650D02*
X14096229Y-14235650D01*
X14096229Y-14235650D02*
X14115277Y-14245174D01*
X14115277Y-14245174D02*
X14124801Y-14264222D01*
X14124801Y-14264222D02*
X14124801Y-14368984D01*
X14124801Y-14264222D02*
X14134324Y-14245174D01*
X14134324Y-14245174D02*
X14153372Y-14235650D01*
X14153372Y-14235650D02*
X14181943Y-14235650D01*
X14181943Y-14235650D02*
X14200991Y-14245174D01*
X14200991Y-14245174D02*
X14210515Y-14264222D01*
X14210515Y-14264222D02*
X14210515Y-14368984D01*
X14600991Y-14159460D02*
X14429563Y-14416603D01*
X14858134Y-14168984D02*
X14877182Y-14168984D01*
X14877182Y-14168984D02*
X14896229Y-14178508D01*
X14896229Y-14178508D02*
X14905753Y-14188031D01*
X14905753Y-14188031D02*
X14915277Y-14207079D01*
X14915277Y-14207079D02*
X14924801Y-14245174D01*
X14924801Y-14245174D02*
X14924801Y-14292793D01*
X14924801Y-14292793D02*
X14915277Y-14330888D01*
X14915277Y-14330888D02*
X14905753Y-14349936D01*
X14905753Y-14349936D02*
X14896229Y-14359460D01*
X14896229Y-14359460D02*
X14877182Y-14368984D01*
X14877182Y-14368984D02*
X14858134Y-14368984D01*
X14858134Y-14368984D02*
X14839086Y-14359460D01*
X14839086Y-14359460D02*
X14829563Y-14349936D01*
X14829563Y-14349936D02*
X14820039Y-14330888D01*
X14820039Y-14330888D02*
X14810515Y-14292793D01*
X14810515Y-14292793D02*
X14810515Y-14245174D01*
X14810515Y-14245174D02*
X14820039Y-14207079D01*
X14820039Y-14207079D02*
X14829563Y-14188031D01*
X14829563Y-14188031D02*
X14839086Y-14178508D01*
X14839086Y-14178508D02*
X14858134Y-14168984D01*
X15010515Y-14349936D02*
X15020039Y-14359460D01*
X15020039Y-14359460D02*
X15010515Y-14368984D01*
X15010515Y-14368984D02*
X15000991Y-14359460D01*
X15000991Y-14359460D02*
X15010515Y-14349936D01*
X15010515Y-14349936D02*
X15010515Y-14368984D01*
X15143848Y-14168984D02*
X15162896Y-14168984D01*
X15162896Y-14168984D02*
X15181944Y-14178508D01*
X15181944Y-14178508D02*
X15191467Y-14188031D01*
X15191467Y-14188031D02*
X15200991Y-14207079D01*
X15200991Y-14207079D02*
X15210515Y-14245174D01*
X15210515Y-14245174D02*
X15210515Y-14292793D01*
X15210515Y-14292793D02*
X15200991Y-14330888D01*
X15200991Y-14330888D02*
X15191467Y-14349936D01*
X15191467Y-14349936D02*
X15181944Y-14359460D01*
X15181944Y-14359460D02*
X15162896Y-14368984D01*
X15162896Y-14368984D02*
X15143848Y-14368984D01*
X15143848Y-14368984D02*
X15124801Y-14359460D01*
X15124801Y-14359460D02*
X15115277Y-14349936D01*
X15115277Y-14349936D02*
X15105753Y-14330888D01*
X15105753Y-14330888D02*
X15096229Y-14292793D01*
X15096229Y-14292793D02*
X15096229Y-14245174D01*
X15096229Y-14245174D02*
X15105753Y-14207079D01*
X15105753Y-14207079D02*
X15115277Y-14188031D01*
X15115277Y-14188031D02*
X15124801Y-14178508D01*
X15124801Y-14178508D02*
X15143848Y-14168984D01*
X15286706Y-14188031D02*
X15296229Y-14178508D01*
X15296229Y-14178508D02*
X15315277Y-14168984D01*
X15315277Y-14168984D02*
X15362896Y-14168984D01*
X15362896Y-14168984D02*
X15381944Y-14178508D01*
X15381944Y-14178508D02*
X15391467Y-14188031D01*
X15391467Y-14188031D02*
X15400991Y-14207079D01*
X15400991Y-14207079D02*
X15400991Y-14226127D01*
X15400991Y-14226127D02*
X15391467Y-14254698D01*
X15391467Y-14254698D02*
X15277182Y-14368984D01*
X15277182Y-14368984D02*
X15400991Y-14368984D01*
X15467658Y-14168984D02*
X15591467Y-14168984D01*
X15591467Y-14168984D02*
X15524801Y-14245174D01*
X15524801Y-14245174D02*
X15553372Y-14245174D01*
X15553372Y-14245174D02*
X15572420Y-14254698D01*
X15572420Y-14254698D02*
X15581944Y-14264222D01*
X15581944Y-14264222D02*
X15591467Y-14283269D01*
X15591467Y-14283269D02*
X15591467Y-14330888D01*
X15591467Y-14330888D02*
X15581944Y-14349936D01*
X15581944Y-14349936D02*
X15572420Y-14359460D01*
X15572420Y-14359460D02*
X15553372Y-14368984D01*
X15553372Y-14368984D02*
X15496229Y-14368984D01*
X15496229Y-14368984D02*
X15477182Y-14359460D01*
X15477182Y-14359460D02*
X15467658Y-14349936D01*
X15762896Y-14168984D02*
X15724801Y-14168984D01*
X15724801Y-14168984D02*
X15705753Y-14178508D01*
X15705753Y-14178508D02*
X15696229Y-14188031D01*
X15696229Y-14188031D02*
X15677182Y-14216603D01*
X15677182Y-14216603D02*
X15667658Y-14254698D01*
X15667658Y-14254698D02*
X15667658Y-14330888D01*
X15667658Y-14330888D02*
X15677182Y-14349936D01*
X15677182Y-14349936D02*
X15686706Y-14359460D01*
X15686706Y-14359460D02*
X15705753Y-14368984D01*
X15705753Y-14368984D02*
X15743848Y-14368984D01*
X15743848Y-14368984D02*
X15762896Y-14359460D01*
X15762896Y-14359460D02*
X15772420Y-14349936D01*
X15772420Y-14349936D02*
X15781944Y-14330888D01*
X15781944Y-14330888D02*
X15781944Y-14283269D01*
X15781944Y-14283269D02*
X15772420Y-14264222D01*
X15772420Y-14264222D02*
X15762896Y-14254698D01*
X15762896Y-14254698D02*
X15743848Y-14245174D01*
X15743848Y-14245174D02*
X15705753Y-14245174D01*
X15705753Y-14245174D02*
X15686706Y-14254698D01*
X15686706Y-14254698D02*
X15677182Y-14264222D01*
X15677182Y-14264222D02*
X15667658Y-14283269D01*
X15858134Y-14168984D02*
X15858134Y-14207079D01*
X15934325Y-14168984D02*
X15934325Y-14207079D01*
X16229563Y-14445174D02*
X16220039Y-14435650D01*
X16220039Y-14435650D02*
X16200991Y-14407079D01*
X16200991Y-14407079D02*
X16191468Y-14388031D01*
X16191468Y-14388031D02*
X16181944Y-14359460D01*
X16181944Y-14359460D02*
X16172420Y-14311841D01*
X16172420Y-14311841D02*
X16172420Y-14273746D01*
X16172420Y-14273746D02*
X16181944Y-14226127D01*
X16181944Y-14226127D02*
X16191468Y-14197555D01*
X16191468Y-14197555D02*
X16200991Y-14178508D01*
X16200991Y-14178508D02*
X16220039Y-14149936D01*
X16220039Y-14149936D02*
X16229563Y-14140412D01*
X16343848Y-14168984D02*
X16362896Y-14168984D01*
X16362896Y-14168984D02*
X16381944Y-14178508D01*
X16381944Y-14178508D02*
X16391468Y-14188031D01*
X16391468Y-14188031D02*
X16400991Y-14207079D01*
X16400991Y-14207079D02*
X16410515Y-14245174D01*
X16410515Y-14245174D02*
X16410515Y-14292793D01*
X16410515Y-14292793D02*
X16400991Y-14330888D01*
X16400991Y-14330888D02*
X16391468Y-14349936D01*
X16391468Y-14349936D02*
X16381944Y-14359460D01*
X16381944Y-14359460D02*
X16362896Y-14368984D01*
X16362896Y-14368984D02*
X16343848Y-14368984D01*
X16343848Y-14368984D02*
X16324801Y-14359460D01*
X16324801Y-14359460D02*
X16315277Y-14349936D01*
X16315277Y-14349936D02*
X16305753Y-14330888D01*
X16305753Y-14330888D02*
X16296229Y-14292793D01*
X16296229Y-14292793D02*
X16296229Y-14245174D01*
X16296229Y-14245174D02*
X16305753Y-14207079D01*
X16305753Y-14207079D02*
X16315277Y-14188031D01*
X16315277Y-14188031D02*
X16324801Y-14178508D01*
X16324801Y-14178508D02*
X16343848Y-14168984D01*
X16648610Y-14368984D02*
X16648610Y-14168984D01*
X16734325Y-14368984D02*
X16734325Y-14264222D01*
X16734325Y-14264222D02*
X16724801Y-14245174D01*
X16724801Y-14245174D02*
X16705753Y-14235650D01*
X16705753Y-14235650D02*
X16677182Y-14235650D01*
X16677182Y-14235650D02*
X16658134Y-14245174D01*
X16658134Y-14245174D02*
X16648610Y-14254698D01*
X16858134Y-14368984D02*
X16839087Y-14359460D01*
X16839087Y-14359460D02*
X16829563Y-14349936D01*
X16829563Y-14349936D02*
X16820039Y-14330888D01*
X16820039Y-14330888D02*
X16820039Y-14273746D01*
X16820039Y-14273746D02*
X16829563Y-14254698D01*
X16829563Y-14254698D02*
X16839087Y-14245174D01*
X16839087Y-14245174D02*
X16858134Y-14235650D01*
X16858134Y-14235650D02*
X16886706Y-14235650D01*
X16886706Y-14235650D02*
X16905753Y-14245174D01*
X16905753Y-14245174D02*
X16915277Y-14254698D01*
X16915277Y-14254698D02*
X16924801Y-14273746D01*
X16924801Y-14273746D02*
X16924801Y-14330888D01*
X16924801Y-14330888D02*
X16915277Y-14349936D01*
X16915277Y-14349936D02*
X16905753Y-14359460D01*
X16905753Y-14359460D02*
X16886706Y-14368984D01*
X16886706Y-14368984D02*
X16858134Y-14368984D01*
X17039087Y-14368984D02*
X17020039Y-14359460D01*
X17020039Y-14359460D02*
X17010515Y-14340412D01*
X17010515Y-14340412D02*
X17010515Y-14168984D01*
X17191468Y-14359460D02*
X17172420Y-14368984D01*
X17172420Y-14368984D02*
X17134325Y-14368984D01*
X17134325Y-14368984D02*
X17115277Y-14359460D01*
X17115277Y-14359460D02*
X17105753Y-14340412D01*
X17105753Y-14340412D02*
X17105753Y-14264222D01*
X17105753Y-14264222D02*
X17115277Y-14245174D01*
X17115277Y-14245174D02*
X17134325Y-14235650D01*
X17134325Y-14235650D02*
X17172420Y-14235650D01*
X17172420Y-14235650D02*
X17191468Y-14245174D01*
X17191468Y-14245174D02*
X17200992Y-14264222D01*
X17200992Y-14264222D02*
X17200992Y-14283269D01*
X17200992Y-14283269D02*
X17105753Y-14302317D01*
X17277182Y-14359460D02*
X17296230Y-14368984D01*
X17296230Y-14368984D02*
X17334325Y-14368984D01*
X17334325Y-14368984D02*
X17353373Y-14359460D01*
X17353373Y-14359460D02*
X17362896Y-14340412D01*
X17362896Y-14340412D02*
X17362896Y-14330888D01*
X17362896Y-14330888D02*
X17353373Y-14311841D01*
X17353373Y-14311841D02*
X17334325Y-14302317D01*
X17334325Y-14302317D02*
X17305753Y-14302317D01*
X17305753Y-14302317D02*
X17286706Y-14292793D01*
X17286706Y-14292793D02*
X17277182Y-14273746D01*
X17277182Y-14273746D02*
X17277182Y-14264222D01*
X17277182Y-14264222D02*
X17286706Y-14245174D01*
X17286706Y-14245174D02*
X17305753Y-14235650D01*
X17305753Y-14235650D02*
X17334325Y-14235650D01*
X17334325Y-14235650D02*
X17353373Y-14245174D01*
X17600992Y-14292793D02*
X17753373Y-14292793D01*
X17677182Y-14368984D02*
X17677182Y-14216603D01*
X18086706Y-14235650D02*
X18086706Y-14368984D01*
X18039087Y-14159460D02*
X17991468Y-14302317D01*
X17991468Y-14302317D02*
X18115277Y-14302317D01*
X18334325Y-14359460D02*
X18353373Y-14368984D01*
X18353373Y-14368984D02*
X18391468Y-14368984D01*
X18391468Y-14368984D02*
X18410516Y-14359460D01*
X18410516Y-14359460D02*
X18420039Y-14340412D01*
X18420039Y-14340412D02*
X18420039Y-14330888D01*
X18420039Y-14330888D02*
X18410516Y-14311841D01*
X18410516Y-14311841D02*
X18391468Y-14302317D01*
X18391468Y-14302317D02*
X18362896Y-14302317D01*
X18362896Y-14302317D02*
X18343849Y-14292793D01*
X18343849Y-14292793D02*
X18334325Y-14273746D01*
X18334325Y-14273746D02*
X18334325Y-14264222D01*
X18334325Y-14264222D02*
X18343849Y-14245174D01*
X18343849Y-14245174D02*
X18362896Y-14235650D01*
X18362896Y-14235650D02*
X18391468Y-14235650D01*
X18391468Y-14235650D02*
X18410516Y-14245174D01*
X18534325Y-14368984D02*
X18515277Y-14359460D01*
X18515277Y-14359460D02*
X18505754Y-14340412D01*
X18505754Y-14340412D02*
X18505754Y-14168984D01*
X18639087Y-14368984D02*
X18620039Y-14359460D01*
X18620039Y-14359460D02*
X18610516Y-14349936D01*
X18610516Y-14349936D02*
X18600992Y-14330888D01*
X18600992Y-14330888D02*
X18600992Y-14273746D01*
X18600992Y-14273746D02*
X18610516Y-14254698D01*
X18610516Y-14254698D02*
X18620039Y-14245174D01*
X18620039Y-14245174D02*
X18639087Y-14235650D01*
X18639087Y-14235650D02*
X18667658Y-14235650D01*
X18667658Y-14235650D02*
X18686706Y-14245174D01*
X18686706Y-14245174D02*
X18696230Y-14254698D01*
X18696230Y-14254698D02*
X18705754Y-14273746D01*
X18705754Y-14273746D02*
X18705754Y-14330888D01*
X18705754Y-14330888D02*
X18696230Y-14349936D01*
X18696230Y-14349936D02*
X18686706Y-14359460D01*
X18686706Y-14359460D02*
X18667658Y-14368984D01*
X18667658Y-14368984D02*
X18639087Y-14368984D01*
X18762897Y-14235650D02*
X18839087Y-14235650D01*
X18791468Y-14168984D02*
X18791468Y-14340412D01*
X18791468Y-14340412D02*
X18800992Y-14359460D01*
X18800992Y-14359460D02*
X18820039Y-14368984D01*
X18820039Y-14368984D02*
X18839087Y-14368984D01*
X18896230Y-14359460D02*
X18915277Y-14368984D01*
X18915277Y-14368984D02*
X18953373Y-14368984D01*
X18953373Y-14368984D02*
X18972420Y-14359460D01*
X18972420Y-14359460D02*
X18981944Y-14340412D01*
X18981944Y-14340412D02*
X18981944Y-14330888D01*
X18981944Y-14330888D02*
X18972420Y-14311841D01*
X18972420Y-14311841D02*
X18953373Y-14302317D01*
X18953373Y-14302317D02*
X18924801Y-14302317D01*
X18924801Y-14302317D02*
X18905754Y-14292793D01*
X18905754Y-14292793D02*
X18896230Y-14273746D01*
X18896230Y-14273746D02*
X18896230Y-14264222D01*
X18896230Y-14264222D02*
X18905754Y-14245174D01*
X18905754Y-14245174D02*
X18924801Y-14235650D01*
X18924801Y-14235650D02*
X18953373Y-14235650D01*
X18953373Y-14235650D02*
X18972420Y-14245174D01*
X19048611Y-14445174D02*
X19058135Y-14435650D01*
X19058135Y-14435650D02*
X19077182Y-14407079D01*
X19077182Y-14407079D02*
X19086706Y-14388031D01*
X19086706Y-14388031D02*
X19096230Y-14359460D01*
X19096230Y-14359460D02*
X19105754Y-14311841D01*
X19105754Y-14311841D02*
X19105754Y-14273746D01*
X19105754Y-14273746D02*
X19096230Y-14226127D01*
X19096230Y-14226127D02*
X19086706Y-14197555D01*
X19086706Y-14197555D02*
X19077182Y-14178508D01*
X19077182Y-14178508D02*
X19058135Y-14149936D01*
X19058135Y-14149936D02*
X19048611Y-14140412D01*
D12*
X12643517Y-14568017D02*
X12643517Y-14514983D01*
X12590483Y-14514983D01*
X12590483Y-14568017D01*
X12643517Y-14568017D01*
D11*
X12953372Y-14432984D02*
X12972420Y-14432984D01*
X12972420Y-14432984D02*
X12991467Y-14442508D01*
X12991467Y-14442508D02*
X13000991Y-14452031D01*
X13000991Y-14452031D02*
X13010515Y-14471079D01*
X13010515Y-14471079D02*
X13020039Y-14509174D01*
X13020039Y-14509174D02*
X13020039Y-14556793D01*
X13020039Y-14556793D02*
X13010515Y-14594888D01*
X13010515Y-14594888D02*
X13000991Y-14613936D01*
X13000991Y-14613936D02*
X12991467Y-14623460D01*
X12991467Y-14623460D02*
X12972420Y-14632984D01*
X12972420Y-14632984D02*
X12953372Y-14632984D01*
X12953372Y-14632984D02*
X12934324Y-14623460D01*
X12934324Y-14623460D02*
X12924801Y-14613936D01*
X12924801Y-14613936D02*
X12915277Y-14594888D01*
X12915277Y-14594888D02*
X12905753Y-14556793D01*
X12905753Y-14556793D02*
X12905753Y-14509174D01*
X12905753Y-14509174D02*
X12915277Y-14471079D01*
X12915277Y-14471079D02*
X12924801Y-14452031D01*
X12924801Y-14452031D02*
X12934324Y-14442508D01*
X12934324Y-14442508D02*
X12953372Y-14432984D01*
X13105753Y-14613936D02*
X13115277Y-14623460D01*
X13115277Y-14623460D02*
X13105753Y-14632984D01*
X13105753Y-14632984D02*
X13096229Y-14623460D01*
X13096229Y-14623460D02*
X13105753Y-14613936D01*
X13105753Y-14613936D02*
X13105753Y-14632984D01*
X13181943Y-14432984D02*
X13315277Y-14432984D01*
X13315277Y-14432984D02*
X13229562Y-14632984D01*
X13486705Y-14432984D02*
X13391467Y-14432984D01*
X13391467Y-14432984D02*
X13381943Y-14528222D01*
X13381943Y-14528222D02*
X13391467Y-14518698D01*
X13391467Y-14518698D02*
X13410515Y-14509174D01*
X13410515Y-14509174D02*
X13458134Y-14509174D01*
X13458134Y-14509174D02*
X13477182Y-14518698D01*
X13477182Y-14518698D02*
X13486705Y-14528222D01*
X13486705Y-14528222D02*
X13496229Y-14547269D01*
X13496229Y-14547269D02*
X13496229Y-14594888D01*
X13496229Y-14594888D02*
X13486705Y-14613936D01*
X13486705Y-14613936D02*
X13477182Y-14623460D01*
X13477182Y-14623460D02*
X13458134Y-14632984D01*
X13458134Y-14632984D02*
X13410515Y-14632984D01*
X13410515Y-14632984D02*
X13391467Y-14623460D01*
X13391467Y-14623460D02*
X13381943Y-14613936D01*
X13620039Y-14432984D02*
X13639086Y-14432984D01*
X13639086Y-14432984D02*
X13658134Y-14442508D01*
X13658134Y-14442508D02*
X13667658Y-14452031D01*
X13667658Y-14452031D02*
X13677182Y-14471079D01*
X13677182Y-14471079D02*
X13686705Y-14509174D01*
X13686705Y-14509174D02*
X13686705Y-14556793D01*
X13686705Y-14556793D02*
X13677182Y-14594888D01*
X13677182Y-14594888D02*
X13667658Y-14613936D01*
X13667658Y-14613936D02*
X13658134Y-14623460D01*
X13658134Y-14623460D02*
X13639086Y-14632984D01*
X13639086Y-14632984D02*
X13620039Y-14632984D01*
X13620039Y-14632984D02*
X13600991Y-14623460D01*
X13600991Y-14623460D02*
X13591467Y-14613936D01*
X13591467Y-14613936D02*
X13581943Y-14594888D01*
X13581943Y-14594888D02*
X13572420Y-14556793D01*
X13572420Y-14556793D02*
X13572420Y-14509174D01*
X13572420Y-14509174D02*
X13581943Y-14471079D01*
X13581943Y-14471079D02*
X13591467Y-14452031D01*
X13591467Y-14452031D02*
X13600991Y-14442508D01*
X13600991Y-14442508D02*
X13620039Y-14432984D01*
X13772420Y-14632984D02*
X13772420Y-14499650D01*
X13772420Y-14518698D02*
X13781943Y-14509174D01*
X13781943Y-14509174D02*
X13800991Y-14499650D01*
X13800991Y-14499650D02*
X13829563Y-14499650D01*
X13829563Y-14499650D02*
X13848610Y-14509174D01*
X13848610Y-14509174D02*
X13858134Y-14528222D01*
X13858134Y-14528222D02*
X13858134Y-14632984D01*
X13858134Y-14528222D02*
X13867658Y-14509174D01*
X13867658Y-14509174D02*
X13886705Y-14499650D01*
X13886705Y-14499650D02*
X13915277Y-14499650D01*
X13915277Y-14499650D02*
X13934324Y-14509174D01*
X13934324Y-14509174D02*
X13943848Y-14528222D01*
X13943848Y-14528222D02*
X13943848Y-14632984D01*
X14039086Y-14632984D02*
X14039086Y-14499650D01*
X14039086Y-14518698D02*
X14048610Y-14509174D01*
X14048610Y-14509174D02*
X14067658Y-14499650D01*
X14067658Y-14499650D02*
X14096229Y-14499650D01*
X14096229Y-14499650D02*
X14115277Y-14509174D01*
X14115277Y-14509174D02*
X14124801Y-14528222D01*
X14124801Y-14528222D02*
X14124801Y-14632984D01*
X14124801Y-14528222D02*
X14134324Y-14509174D01*
X14134324Y-14509174D02*
X14153372Y-14499650D01*
X14153372Y-14499650D02*
X14181943Y-14499650D01*
X14181943Y-14499650D02*
X14200991Y-14509174D01*
X14200991Y-14509174D02*
X14210515Y-14528222D01*
X14210515Y-14528222D02*
X14210515Y-14632984D01*
X14600991Y-14423460D02*
X14429563Y-14680603D01*
X14858134Y-14432984D02*
X14877182Y-14432984D01*
X14877182Y-14432984D02*
X14896229Y-14442508D01*
X14896229Y-14442508D02*
X14905753Y-14452031D01*
X14905753Y-14452031D02*
X14915277Y-14471079D01*
X14915277Y-14471079D02*
X14924801Y-14509174D01*
X14924801Y-14509174D02*
X14924801Y-14556793D01*
X14924801Y-14556793D02*
X14915277Y-14594888D01*
X14915277Y-14594888D02*
X14905753Y-14613936D01*
X14905753Y-14613936D02*
X14896229Y-14623460D01*
X14896229Y-14623460D02*
X14877182Y-14632984D01*
X14877182Y-14632984D02*
X14858134Y-14632984D01*
X14858134Y-14632984D02*
X14839086Y-14623460D01*
X14839086Y-14623460D02*
X14829563Y-14613936D01*
X14829563Y-14613936D02*
X14820039Y-14594888D01*
X14820039Y-14594888D02*
X14810515Y-14556793D01*
X14810515Y-14556793D02*
X14810515Y-14509174D01*
X14810515Y-14509174D02*
X14820039Y-14471079D01*
X14820039Y-14471079D02*
X14829563Y-14452031D01*
X14829563Y-14452031D02*
X14839086Y-14442508D01*
X14839086Y-14442508D02*
X14858134Y-14432984D01*
X15010515Y-14613936D02*
X15020039Y-14623460D01*
X15020039Y-14623460D02*
X15010515Y-14632984D01*
X15010515Y-14632984D02*
X15000991Y-14623460D01*
X15000991Y-14623460D02*
X15010515Y-14613936D01*
X15010515Y-14613936D02*
X15010515Y-14632984D01*
X15143848Y-14432984D02*
X15162896Y-14432984D01*
X15162896Y-14432984D02*
X15181944Y-14442508D01*
X15181944Y-14442508D02*
X15191467Y-14452031D01*
X15191467Y-14452031D02*
X15200991Y-14471079D01*
X15200991Y-14471079D02*
X15210515Y-14509174D01*
X15210515Y-14509174D02*
X15210515Y-14556793D01*
X15210515Y-14556793D02*
X15200991Y-14594888D01*
X15200991Y-14594888D02*
X15191467Y-14613936D01*
X15191467Y-14613936D02*
X15181944Y-14623460D01*
X15181944Y-14623460D02*
X15162896Y-14632984D01*
X15162896Y-14632984D02*
X15143848Y-14632984D01*
X15143848Y-14632984D02*
X15124801Y-14623460D01*
X15124801Y-14623460D02*
X15115277Y-14613936D01*
X15115277Y-14613936D02*
X15105753Y-14594888D01*
X15105753Y-14594888D02*
X15096229Y-14556793D01*
X15096229Y-14556793D02*
X15096229Y-14509174D01*
X15096229Y-14509174D02*
X15105753Y-14471079D01*
X15105753Y-14471079D02*
X15115277Y-14452031D01*
X15115277Y-14452031D02*
X15124801Y-14442508D01*
X15124801Y-14442508D02*
X15143848Y-14432984D01*
X15286706Y-14452031D02*
X15296229Y-14442508D01*
X15296229Y-14442508D02*
X15315277Y-14432984D01*
X15315277Y-14432984D02*
X15362896Y-14432984D01*
X15362896Y-14432984D02*
X15381944Y-14442508D01*
X15381944Y-14442508D02*
X15391467Y-14452031D01*
X15391467Y-14452031D02*
X15400991Y-14471079D01*
X15400991Y-14471079D02*
X15400991Y-14490127D01*
X15400991Y-14490127D02*
X15391467Y-14518698D01*
X15391467Y-14518698D02*
X15277182Y-14632984D01*
X15277182Y-14632984D02*
X15400991Y-14632984D01*
X15496229Y-14632984D02*
X15534325Y-14632984D01*
X15534325Y-14632984D02*
X15553372Y-14623460D01*
X15553372Y-14623460D02*
X15562896Y-14613936D01*
X15562896Y-14613936D02*
X15581944Y-14585365D01*
X15581944Y-14585365D02*
X15591467Y-14547269D01*
X15591467Y-14547269D02*
X15591467Y-14471079D01*
X15591467Y-14471079D02*
X15581944Y-14452031D01*
X15581944Y-14452031D02*
X15572420Y-14442508D01*
X15572420Y-14442508D02*
X15553372Y-14432984D01*
X15553372Y-14432984D02*
X15515277Y-14432984D01*
X15515277Y-14432984D02*
X15496229Y-14442508D01*
X15496229Y-14442508D02*
X15486706Y-14452031D01*
X15486706Y-14452031D02*
X15477182Y-14471079D01*
X15477182Y-14471079D02*
X15477182Y-14518698D01*
X15477182Y-14518698D02*
X15486706Y-14537746D01*
X15486706Y-14537746D02*
X15496229Y-14547269D01*
X15496229Y-14547269D02*
X15515277Y-14556793D01*
X15515277Y-14556793D02*
X15553372Y-14556793D01*
X15553372Y-14556793D02*
X15572420Y-14547269D01*
X15572420Y-14547269D02*
X15581944Y-14537746D01*
X15581944Y-14537746D02*
X15591467Y-14518698D01*
X15772420Y-14432984D02*
X15677182Y-14432984D01*
X15677182Y-14432984D02*
X15667658Y-14528222D01*
X15667658Y-14528222D02*
X15677182Y-14518698D01*
X15677182Y-14518698D02*
X15696229Y-14509174D01*
X15696229Y-14509174D02*
X15743848Y-14509174D01*
X15743848Y-14509174D02*
X15762896Y-14518698D01*
X15762896Y-14518698D02*
X15772420Y-14528222D01*
X15772420Y-14528222D02*
X15781944Y-14547269D01*
X15781944Y-14547269D02*
X15781944Y-14594888D01*
X15781944Y-14594888D02*
X15772420Y-14613936D01*
X15772420Y-14613936D02*
X15762896Y-14623460D01*
X15762896Y-14623460D02*
X15743848Y-14632984D01*
X15743848Y-14632984D02*
X15696229Y-14632984D01*
X15696229Y-14632984D02*
X15677182Y-14623460D01*
X15677182Y-14623460D02*
X15667658Y-14613936D01*
X15858134Y-14432984D02*
X15858134Y-14471079D01*
X15934325Y-14432984D02*
X15934325Y-14471079D01*
X16229563Y-14709174D02*
X16220039Y-14699650D01*
X16220039Y-14699650D02*
X16200991Y-14671079D01*
X16200991Y-14671079D02*
X16191468Y-14652031D01*
X16191468Y-14652031D02*
X16181944Y-14623460D01*
X16181944Y-14623460D02*
X16172420Y-14575841D01*
X16172420Y-14575841D02*
X16172420Y-14537746D01*
X16172420Y-14537746D02*
X16181944Y-14490127D01*
X16181944Y-14490127D02*
X16191468Y-14461555D01*
X16191468Y-14461555D02*
X16200991Y-14442508D01*
X16200991Y-14442508D02*
X16220039Y-14413936D01*
X16220039Y-14413936D02*
X16229563Y-14404412D01*
X16296229Y-14452031D02*
X16305753Y-14442508D01*
X16305753Y-14442508D02*
X16324801Y-14432984D01*
X16324801Y-14432984D02*
X16372420Y-14432984D01*
X16372420Y-14432984D02*
X16391468Y-14442508D01*
X16391468Y-14442508D02*
X16400991Y-14452031D01*
X16400991Y-14452031D02*
X16410515Y-14471079D01*
X16410515Y-14471079D02*
X16410515Y-14490127D01*
X16410515Y-14490127D02*
X16400991Y-14518698D01*
X16400991Y-14518698D02*
X16286706Y-14632984D01*
X16286706Y-14632984D02*
X16410515Y-14632984D01*
X16648610Y-14632984D02*
X16648610Y-14432984D01*
X16734325Y-14632984D02*
X16734325Y-14528222D01*
X16734325Y-14528222D02*
X16724801Y-14509174D01*
X16724801Y-14509174D02*
X16705753Y-14499650D01*
X16705753Y-14499650D02*
X16677182Y-14499650D01*
X16677182Y-14499650D02*
X16658134Y-14509174D01*
X16658134Y-14509174D02*
X16648610Y-14518698D01*
X16858134Y-14632984D02*
X16839087Y-14623460D01*
X16839087Y-14623460D02*
X16829563Y-14613936D01*
X16829563Y-14613936D02*
X16820039Y-14594888D01*
X16820039Y-14594888D02*
X16820039Y-14537746D01*
X16820039Y-14537746D02*
X16829563Y-14518698D01*
X16829563Y-14518698D02*
X16839087Y-14509174D01*
X16839087Y-14509174D02*
X16858134Y-14499650D01*
X16858134Y-14499650D02*
X16886706Y-14499650D01*
X16886706Y-14499650D02*
X16905753Y-14509174D01*
X16905753Y-14509174D02*
X16915277Y-14518698D01*
X16915277Y-14518698D02*
X16924801Y-14537746D01*
X16924801Y-14537746D02*
X16924801Y-14594888D01*
X16924801Y-14594888D02*
X16915277Y-14613936D01*
X16915277Y-14613936D02*
X16905753Y-14623460D01*
X16905753Y-14623460D02*
X16886706Y-14632984D01*
X16886706Y-14632984D02*
X16858134Y-14632984D01*
X17039087Y-14632984D02*
X17020039Y-14623460D01*
X17020039Y-14623460D02*
X17010515Y-14604412D01*
X17010515Y-14604412D02*
X17010515Y-14432984D01*
X17191468Y-14623460D02*
X17172420Y-14632984D01*
X17172420Y-14632984D02*
X17134325Y-14632984D01*
X17134325Y-14632984D02*
X17115277Y-14623460D01*
X17115277Y-14623460D02*
X17105753Y-14604412D01*
X17105753Y-14604412D02*
X17105753Y-14528222D01*
X17105753Y-14528222D02*
X17115277Y-14509174D01*
X17115277Y-14509174D02*
X17134325Y-14499650D01*
X17134325Y-14499650D02*
X17172420Y-14499650D01*
X17172420Y-14499650D02*
X17191468Y-14509174D01*
X17191468Y-14509174D02*
X17200992Y-14528222D01*
X17200992Y-14528222D02*
X17200992Y-14547269D01*
X17200992Y-14547269D02*
X17105753Y-14566317D01*
X17277182Y-14623460D02*
X17296230Y-14632984D01*
X17296230Y-14632984D02*
X17334325Y-14632984D01*
X17334325Y-14632984D02*
X17353373Y-14623460D01*
X17353373Y-14623460D02*
X17362896Y-14604412D01*
X17362896Y-14604412D02*
X17362896Y-14594888D01*
X17362896Y-14594888D02*
X17353373Y-14575841D01*
X17353373Y-14575841D02*
X17334325Y-14566317D01*
X17334325Y-14566317D02*
X17305753Y-14566317D01*
X17305753Y-14566317D02*
X17286706Y-14556793D01*
X17286706Y-14556793D02*
X17277182Y-14537746D01*
X17277182Y-14537746D02*
X17277182Y-14528222D01*
X17277182Y-14528222D02*
X17286706Y-14509174D01*
X17286706Y-14509174D02*
X17305753Y-14499650D01*
X17305753Y-14499650D02*
X17334325Y-14499650D01*
X17334325Y-14499650D02*
X17353373Y-14509174D01*
X17429563Y-14709174D02*
X17439087Y-14699650D01*
X17439087Y-14699650D02*
X17458134Y-14671079D01*
X17458134Y-14671079D02*
X17467658Y-14652031D01*
X17467658Y-14652031D02*
X17477182Y-14623460D01*
X17477182Y-14623460D02*
X17486706Y-14575841D01*
X17486706Y-14575841D02*
X17486706Y-14537746D01*
X17486706Y-14537746D02*
X17477182Y-14490127D01*
X17477182Y-14490127D02*
X17467658Y-14461555D01*
X17467658Y-14461555D02*
X17458134Y-14442508D01*
X17458134Y-14442508D02*
X17439087Y-14413936D01*
X17439087Y-14413936D02*
X17429563Y-14404412D01*
D12*
X12610050Y-14849950D02*
X12654500Y-14805500D01*
X12610050Y-14761050D01*
X12565600Y-14805500D01*
X12610050Y-14849950D01*
D11*
X12953372Y-14696984D02*
X12972420Y-14696984D01*
X12972420Y-14696984D02*
X12991467Y-14706508D01*
X12991467Y-14706508D02*
X13000991Y-14716031D01*
X13000991Y-14716031D02*
X13010515Y-14735079D01*
X13010515Y-14735079D02*
X13020039Y-14773174D01*
X13020039Y-14773174D02*
X13020039Y-14820793D01*
X13020039Y-14820793D02*
X13010515Y-14858888D01*
X13010515Y-14858888D02*
X13000991Y-14877936D01*
X13000991Y-14877936D02*
X12991467Y-14887460D01*
X12991467Y-14887460D02*
X12972420Y-14896984D01*
X12972420Y-14896984D02*
X12953372Y-14896984D01*
X12953372Y-14896984D02*
X12934324Y-14887460D01*
X12934324Y-14887460D02*
X12924801Y-14877936D01*
X12924801Y-14877936D02*
X12915277Y-14858888D01*
X12915277Y-14858888D02*
X12905753Y-14820793D01*
X12905753Y-14820793D02*
X12905753Y-14773174D01*
X12905753Y-14773174D02*
X12915277Y-14735079D01*
X12915277Y-14735079D02*
X12924801Y-14716031D01*
X12924801Y-14716031D02*
X12934324Y-14706508D01*
X12934324Y-14706508D02*
X12953372Y-14696984D01*
X13105753Y-14877936D02*
X13115277Y-14887460D01*
X13115277Y-14887460D02*
X13105753Y-14896984D01*
X13105753Y-14896984D02*
X13096229Y-14887460D01*
X13096229Y-14887460D02*
X13105753Y-14877936D01*
X13105753Y-14877936D02*
X13105753Y-14896984D01*
X13229562Y-14782698D02*
X13210515Y-14773174D01*
X13210515Y-14773174D02*
X13200991Y-14763650D01*
X13200991Y-14763650D02*
X13191467Y-14744603D01*
X13191467Y-14744603D02*
X13191467Y-14735079D01*
X13191467Y-14735079D02*
X13200991Y-14716031D01*
X13200991Y-14716031D02*
X13210515Y-14706508D01*
X13210515Y-14706508D02*
X13229562Y-14696984D01*
X13229562Y-14696984D02*
X13267658Y-14696984D01*
X13267658Y-14696984D02*
X13286705Y-14706508D01*
X13286705Y-14706508D02*
X13296229Y-14716031D01*
X13296229Y-14716031D02*
X13305753Y-14735079D01*
X13305753Y-14735079D02*
X13305753Y-14744603D01*
X13305753Y-14744603D02*
X13296229Y-14763650D01*
X13296229Y-14763650D02*
X13286705Y-14773174D01*
X13286705Y-14773174D02*
X13267658Y-14782698D01*
X13267658Y-14782698D02*
X13229562Y-14782698D01*
X13229562Y-14782698D02*
X13210515Y-14792222D01*
X13210515Y-14792222D02*
X13200991Y-14801746D01*
X13200991Y-14801746D02*
X13191467Y-14820793D01*
X13191467Y-14820793D02*
X13191467Y-14858888D01*
X13191467Y-14858888D02*
X13200991Y-14877936D01*
X13200991Y-14877936D02*
X13210515Y-14887460D01*
X13210515Y-14887460D02*
X13229562Y-14896984D01*
X13229562Y-14896984D02*
X13267658Y-14896984D01*
X13267658Y-14896984D02*
X13286705Y-14887460D01*
X13286705Y-14887460D02*
X13296229Y-14877936D01*
X13296229Y-14877936D02*
X13305753Y-14858888D01*
X13305753Y-14858888D02*
X13305753Y-14820793D01*
X13305753Y-14820793D02*
X13296229Y-14801746D01*
X13296229Y-14801746D02*
X13286705Y-14792222D01*
X13286705Y-14792222D02*
X13267658Y-14782698D01*
X13420039Y-14782698D02*
X13400991Y-14773174D01*
X13400991Y-14773174D02*
X13391467Y-14763650D01*
X13391467Y-14763650D02*
X13381943Y-14744603D01*
X13381943Y-14744603D02*
X13381943Y-14735079D01*
X13381943Y-14735079D02*
X13391467Y-14716031D01*
X13391467Y-14716031D02*
X13400991Y-14706508D01*
X13400991Y-14706508D02*
X13420039Y-14696984D01*
X13420039Y-14696984D02*
X13458134Y-14696984D01*
X13458134Y-14696984D02*
X13477182Y-14706508D01*
X13477182Y-14706508D02*
X13486705Y-14716031D01*
X13486705Y-14716031D02*
X13496229Y-14735079D01*
X13496229Y-14735079D02*
X13496229Y-14744603D01*
X13496229Y-14744603D02*
X13486705Y-14763650D01*
X13486705Y-14763650D02*
X13477182Y-14773174D01*
X13477182Y-14773174D02*
X13458134Y-14782698D01*
X13458134Y-14782698D02*
X13420039Y-14782698D01*
X13420039Y-14782698D02*
X13400991Y-14792222D01*
X13400991Y-14792222D02*
X13391467Y-14801746D01*
X13391467Y-14801746D02*
X13381943Y-14820793D01*
X13381943Y-14820793D02*
X13381943Y-14858888D01*
X13381943Y-14858888D02*
X13391467Y-14877936D01*
X13391467Y-14877936D02*
X13400991Y-14887460D01*
X13400991Y-14887460D02*
X13420039Y-14896984D01*
X13420039Y-14896984D02*
X13458134Y-14896984D01*
X13458134Y-14896984D02*
X13477182Y-14887460D01*
X13477182Y-14887460D02*
X13486705Y-14877936D01*
X13486705Y-14877936D02*
X13496229Y-14858888D01*
X13496229Y-14858888D02*
X13496229Y-14820793D01*
X13496229Y-14820793D02*
X13486705Y-14801746D01*
X13486705Y-14801746D02*
X13477182Y-14792222D01*
X13477182Y-14792222D02*
X13458134Y-14782698D01*
X13591467Y-14896984D02*
X13629562Y-14896984D01*
X13629562Y-14896984D02*
X13648610Y-14887460D01*
X13648610Y-14887460D02*
X13658134Y-14877936D01*
X13658134Y-14877936D02*
X13677182Y-14849365D01*
X13677182Y-14849365D02*
X13686705Y-14811269D01*
X13686705Y-14811269D02*
X13686705Y-14735079D01*
X13686705Y-14735079D02*
X13677182Y-14716031D01*
X13677182Y-14716031D02*
X13667658Y-14706508D01*
X13667658Y-14706508D02*
X13648610Y-14696984D01*
X13648610Y-14696984D02*
X13610515Y-14696984D01*
X13610515Y-14696984D02*
X13591467Y-14706508D01*
X13591467Y-14706508D02*
X13581943Y-14716031D01*
X13581943Y-14716031D02*
X13572420Y-14735079D01*
X13572420Y-14735079D02*
X13572420Y-14782698D01*
X13572420Y-14782698D02*
X13581943Y-14801746D01*
X13581943Y-14801746D02*
X13591467Y-14811269D01*
X13591467Y-14811269D02*
X13610515Y-14820793D01*
X13610515Y-14820793D02*
X13648610Y-14820793D01*
X13648610Y-14820793D02*
X13667658Y-14811269D01*
X13667658Y-14811269D02*
X13677182Y-14801746D01*
X13677182Y-14801746D02*
X13686705Y-14782698D01*
X13772420Y-14896984D02*
X13772420Y-14763650D01*
X13772420Y-14782698D02*
X13781943Y-14773174D01*
X13781943Y-14773174D02*
X13800991Y-14763650D01*
X13800991Y-14763650D02*
X13829563Y-14763650D01*
X13829563Y-14763650D02*
X13848610Y-14773174D01*
X13848610Y-14773174D02*
X13858134Y-14792222D01*
X13858134Y-14792222D02*
X13858134Y-14896984D01*
X13858134Y-14792222D02*
X13867658Y-14773174D01*
X13867658Y-14773174D02*
X13886705Y-14763650D01*
X13886705Y-14763650D02*
X13915277Y-14763650D01*
X13915277Y-14763650D02*
X13934324Y-14773174D01*
X13934324Y-14773174D02*
X13943848Y-14792222D01*
X13943848Y-14792222D02*
X13943848Y-14896984D01*
X14039086Y-14896984D02*
X14039086Y-14763650D01*
X14039086Y-14782698D02*
X14048610Y-14773174D01*
X14048610Y-14773174D02*
X14067658Y-14763650D01*
X14067658Y-14763650D02*
X14096229Y-14763650D01*
X14096229Y-14763650D02*
X14115277Y-14773174D01*
X14115277Y-14773174D02*
X14124801Y-14792222D01*
X14124801Y-14792222D02*
X14124801Y-14896984D01*
X14124801Y-14792222D02*
X14134324Y-14773174D01*
X14134324Y-14773174D02*
X14153372Y-14763650D01*
X14153372Y-14763650D02*
X14181943Y-14763650D01*
X14181943Y-14763650D02*
X14200991Y-14773174D01*
X14200991Y-14773174D02*
X14210515Y-14792222D01*
X14210515Y-14792222D02*
X14210515Y-14896984D01*
X14600991Y-14687460D02*
X14429563Y-14944603D01*
X14858134Y-14696984D02*
X14877182Y-14696984D01*
X14877182Y-14696984D02*
X14896229Y-14706508D01*
X14896229Y-14706508D02*
X14905753Y-14716031D01*
X14905753Y-14716031D02*
X14915277Y-14735079D01*
X14915277Y-14735079D02*
X14924801Y-14773174D01*
X14924801Y-14773174D02*
X14924801Y-14820793D01*
X14924801Y-14820793D02*
X14915277Y-14858888D01*
X14915277Y-14858888D02*
X14905753Y-14877936D01*
X14905753Y-14877936D02*
X14896229Y-14887460D01*
X14896229Y-14887460D02*
X14877182Y-14896984D01*
X14877182Y-14896984D02*
X14858134Y-14896984D01*
X14858134Y-14896984D02*
X14839086Y-14887460D01*
X14839086Y-14887460D02*
X14829563Y-14877936D01*
X14829563Y-14877936D02*
X14820039Y-14858888D01*
X14820039Y-14858888D02*
X14810515Y-14820793D01*
X14810515Y-14820793D02*
X14810515Y-14773174D01*
X14810515Y-14773174D02*
X14820039Y-14735079D01*
X14820039Y-14735079D02*
X14829563Y-14716031D01*
X14829563Y-14716031D02*
X14839086Y-14706508D01*
X14839086Y-14706508D02*
X14858134Y-14696984D01*
X15010515Y-14877936D02*
X15020039Y-14887460D01*
X15020039Y-14887460D02*
X15010515Y-14896984D01*
X15010515Y-14896984D02*
X15000991Y-14887460D01*
X15000991Y-14887460D02*
X15010515Y-14877936D01*
X15010515Y-14877936D02*
X15010515Y-14896984D01*
X15143848Y-14696984D02*
X15162896Y-14696984D01*
X15162896Y-14696984D02*
X15181944Y-14706508D01*
X15181944Y-14706508D02*
X15191467Y-14716031D01*
X15191467Y-14716031D02*
X15200991Y-14735079D01*
X15200991Y-14735079D02*
X15210515Y-14773174D01*
X15210515Y-14773174D02*
X15210515Y-14820793D01*
X15210515Y-14820793D02*
X15200991Y-14858888D01*
X15200991Y-14858888D02*
X15191467Y-14877936D01*
X15191467Y-14877936D02*
X15181944Y-14887460D01*
X15181944Y-14887460D02*
X15162896Y-14896984D01*
X15162896Y-14896984D02*
X15143848Y-14896984D01*
X15143848Y-14896984D02*
X15124801Y-14887460D01*
X15124801Y-14887460D02*
X15115277Y-14877936D01*
X15115277Y-14877936D02*
X15105753Y-14858888D01*
X15105753Y-14858888D02*
X15096229Y-14820793D01*
X15096229Y-14820793D02*
X15096229Y-14773174D01*
X15096229Y-14773174D02*
X15105753Y-14735079D01*
X15105753Y-14735079D02*
X15115277Y-14716031D01*
X15115277Y-14716031D02*
X15124801Y-14706508D01*
X15124801Y-14706508D02*
X15143848Y-14696984D01*
X15277182Y-14696984D02*
X15400991Y-14696984D01*
X15400991Y-14696984D02*
X15334325Y-14773174D01*
X15334325Y-14773174D02*
X15362896Y-14773174D01*
X15362896Y-14773174D02*
X15381944Y-14782698D01*
X15381944Y-14782698D02*
X15391467Y-14792222D01*
X15391467Y-14792222D02*
X15400991Y-14811269D01*
X15400991Y-14811269D02*
X15400991Y-14858888D01*
X15400991Y-14858888D02*
X15391467Y-14877936D01*
X15391467Y-14877936D02*
X15381944Y-14887460D01*
X15381944Y-14887460D02*
X15362896Y-14896984D01*
X15362896Y-14896984D02*
X15305753Y-14896984D01*
X15305753Y-14896984D02*
X15286706Y-14887460D01*
X15286706Y-14887460D02*
X15277182Y-14877936D01*
X15581944Y-14696984D02*
X15486706Y-14696984D01*
X15486706Y-14696984D02*
X15477182Y-14792222D01*
X15477182Y-14792222D02*
X15486706Y-14782698D01*
X15486706Y-14782698D02*
X15505753Y-14773174D01*
X15505753Y-14773174D02*
X15553372Y-14773174D01*
X15553372Y-14773174D02*
X15572420Y-14782698D01*
X15572420Y-14782698D02*
X15581944Y-14792222D01*
X15581944Y-14792222D02*
X15591467Y-14811269D01*
X15591467Y-14811269D02*
X15591467Y-14858888D01*
X15591467Y-14858888D02*
X15581944Y-14877936D01*
X15581944Y-14877936D02*
X15572420Y-14887460D01*
X15572420Y-14887460D02*
X15553372Y-14896984D01*
X15553372Y-14896984D02*
X15505753Y-14896984D01*
X15505753Y-14896984D02*
X15486706Y-14887460D01*
X15486706Y-14887460D02*
X15477182Y-14877936D01*
X15715277Y-14696984D02*
X15734325Y-14696984D01*
X15734325Y-14696984D02*
X15753372Y-14706508D01*
X15753372Y-14706508D02*
X15762896Y-14716031D01*
X15762896Y-14716031D02*
X15772420Y-14735079D01*
X15772420Y-14735079D02*
X15781944Y-14773174D01*
X15781944Y-14773174D02*
X15781944Y-14820793D01*
X15781944Y-14820793D02*
X15772420Y-14858888D01*
X15772420Y-14858888D02*
X15762896Y-14877936D01*
X15762896Y-14877936D02*
X15753372Y-14887460D01*
X15753372Y-14887460D02*
X15734325Y-14896984D01*
X15734325Y-14896984D02*
X15715277Y-14896984D01*
X15715277Y-14896984D02*
X15696229Y-14887460D01*
X15696229Y-14887460D02*
X15686706Y-14877936D01*
X15686706Y-14877936D02*
X15677182Y-14858888D01*
X15677182Y-14858888D02*
X15667658Y-14820793D01*
X15667658Y-14820793D02*
X15667658Y-14773174D01*
X15667658Y-14773174D02*
X15677182Y-14735079D01*
X15677182Y-14735079D02*
X15686706Y-14716031D01*
X15686706Y-14716031D02*
X15696229Y-14706508D01*
X15696229Y-14706508D02*
X15715277Y-14696984D01*
X15858134Y-14696984D02*
X15858134Y-14735079D01*
X15934325Y-14696984D02*
X15934325Y-14735079D01*
X16229563Y-14973174D02*
X16220039Y-14963650D01*
X16220039Y-14963650D02*
X16200991Y-14935079D01*
X16200991Y-14935079D02*
X16191468Y-14916031D01*
X16191468Y-14916031D02*
X16181944Y-14887460D01*
X16181944Y-14887460D02*
X16172420Y-14839841D01*
X16172420Y-14839841D02*
X16172420Y-14801746D01*
X16172420Y-14801746D02*
X16181944Y-14754127D01*
X16181944Y-14754127D02*
X16191468Y-14725555D01*
X16191468Y-14725555D02*
X16200991Y-14706508D01*
X16200991Y-14706508D02*
X16220039Y-14677936D01*
X16220039Y-14677936D02*
X16229563Y-14668412D01*
X16296229Y-14716031D02*
X16305753Y-14706508D01*
X16305753Y-14706508D02*
X16324801Y-14696984D01*
X16324801Y-14696984D02*
X16372420Y-14696984D01*
X16372420Y-14696984D02*
X16391468Y-14706508D01*
X16391468Y-14706508D02*
X16400991Y-14716031D01*
X16400991Y-14716031D02*
X16410515Y-14735079D01*
X16410515Y-14735079D02*
X16410515Y-14754127D01*
X16410515Y-14754127D02*
X16400991Y-14782698D01*
X16400991Y-14782698D02*
X16286706Y-14896984D01*
X16286706Y-14896984D02*
X16410515Y-14896984D01*
X16648610Y-14896984D02*
X16648610Y-14696984D01*
X16734325Y-14896984D02*
X16734325Y-14792222D01*
X16734325Y-14792222D02*
X16724801Y-14773174D01*
X16724801Y-14773174D02*
X16705753Y-14763650D01*
X16705753Y-14763650D02*
X16677182Y-14763650D01*
X16677182Y-14763650D02*
X16658134Y-14773174D01*
X16658134Y-14773174D02*
X16648610Y-14782698D01*
X16858134Y-14896984D02*
X16839087Y-14887460D01*
X16839087Y-14887460D02*
X16829563Y-14877936D01*
X16829563Y-14877936D02*
X16820039Y-14858888D01*
X16820039Y-14858888D02*
X16820039Y-14801746D01*
X16820039Y-14801746D02*
X16829563Y-14782698D01*
X16829563Y-14782698D02*
X16839087Y-14773174D01*
X16839087Y-14773174D02*
X16858134Y-14763650D01*
X16858134Y-14763650D02*
X16886706Y-14763650D01*
X16886706Y-14763650D02*
X16905753Y-14773174D01*
X16905753Y-14773174D02*
X16915277Y-14782698D01*
X16915277Y-14782698D02*
X16924801Y-14801746D01*
X16924801Y-14801746D02*
X16924801Y-14858888D01*
X16924801Y-14858888D02*
X16915277Y-14877936D01*
X16915277Y-14877936D02*
X16905753Y-14887460D01*
X16905753Y-14887460D02*
X16886706Y-14896984D01*
X16886706Y-14896984D02*
X16858134Y-14896984D01*
X17039087Y-14896984D02*
X17020039Y-14887460D01*
X17020039Y-14887460D02*
X17010515Y-14868412D01*
X17010515Y-14868412D02*
X17010515Y-14696984D01*
X17191468Y-14887460D02*
X17172420Y-14896984D01*
X17172420Y-14896984D02*
X17134325Y-14896984D01*
X17134325Y-14896984D02*
X17115277Y-14887460D01*
X17115277Y-14887460D02*
X17105753Y-14868412D01*
X17105753Y-14868412D02*
X17105753Y-14792222D01*
X17105753Y-14792222D02*
X17115277Y-14773174D01*
X17115277Y-14773174D02*
X17134325Y-14763650D01*
X17134325Y-14763650D02*
X17172420Y-14763650D01*
X17172420Y-14763650D02*
X17191468Y-14773174D01*
X17191468Y-14773174D02*
X17200992Y-14792222D01*
X17200992Y-14792222D02*
X17200992Y-14811269D01*
X17200992Y-14811269D02*
X17105753Y-14830317D01*
X17277182Y-14887460D02*
X17296230Y-14896984D01*
X17296230Y-14896984D02*
X17334325Y-14896984D01*
X17334325Y-14896984D02*
X17353373Y-14887460D01*
X17353373Y-14887460D02*
X17362896Y-14868412D01*
X17362896Y-14868412D02*
X17362896Y-14858888D01*
X17362896Y-14858888D02*
X17353373Y-14839841D01*
X17353373Y-14839841D02*
X17334325Y-14830317D01*
X17334325Y-14830317D02*
X17305753Y-14830317D01*
X17305753Y-14830317D02*
X17286706Y-14820793D01*
X17286706Y-14820793D02*
X17277182Y-14801746D01*
X17277182Y-14801746D02*
X17277182Y-14792222D01*
X17277182Y-14792222D02*
X17286706Y-14773174D01*
X17286706Y-14773174D02*
X17305753Y-14763650D01*
X17305753Y-14763650D02*
X17334325Y-14763650D01*
X17334325Y-14763650D02*
X17353373Y-14773174D01*
X17429563Y-14973174D02*
X17439087Y-14963650D01*
X17439087Y-14963650D02*
X17458134Y-14935079D01*
X17458134Y-14935079D02*
X17467658Y-14916031D01*
X17467658Y-14916031D02*
X17477182Y-14887460D01*
X17477182Y-14887460D02*
X17486706Y-14839841D01*
X17486706Y-14839841D02*
X17486706Y-14801746D01*
X17486706Y-14801746D02*
X17477182Y-14754127D01*
X17477182Y-14754127D02*
X17467658Y-14725555D01*
X17467658Y-14725555D02*
X17458134Y-14706508D01*
X17458134Y-14706508D02*
X17439087Y-14677936D01*
X17439087Y-14677936D02*
X17429563Y-14668412D01*
M02*
