G04 #@! TF.GenerationSoftware,KiCad,Pcbnew,8.0.2*
G04 #@! TF.CreationDate,2025-05-08T21:28:10-06:00*
G04 #@! TF.ProjectId,kicad,6b696361-642e-46b6-9963-61645f706362,4*
G04 #@! TF.SameCoordinates,Original*
G04 #@! TF.FileFunction,Copper,L2,Inr*
G04 #@! TF.FilePolarity,Positive*
%FSLAX46Y46*%
G04 Gerber Fmt 4.6, Leading zero omitted, Abs format (unit mm)*
G04 Created by KiCad (PCBNEW 8.0.2) date 2025-05-08 21:28:10*
%MOMM*%
%LPD*%
G01*
G04 APERTURE LIST*
G04 Aperture macros list*
%AMRoundRect*
0 Rectangle with rounded corners*
0 $1 Rounding radius*
0 $2 $3 $4 $5 $6 $7 $8 $9 X,Y pos of 4 corners*
0 Add a 4 corners polygon primitive as box body*
4,1,4,$2,$3,$4,$5,$6,$7,$8,$9,$2,$3,0*
0 Add four circle primitives for the rounded corners*
1,1,$1+$1,$2,$3*
1,1,$1+$1,$4,$5*
1,1,$1+$1,$6,$7*
1,1,$1+$1,$8,$9*
0 Add four rect primitives between the rounded corners*
20,1,$1+$1,$2,$3,$4,$5,0*
20,1,$1+$1,$4,$5,$6,$7,0*
20,1,$1+$1,$6,$7,$8,$9,0*
20,1,$1+$1,$8,$9,$2,$3,0*%
G04 Aperture macros list end*
G04 #@! TA.AperFunction,ComponentPad*
%ADD10RoundRect,0.104167X-0.295833X0.145833X-0.295833X-0.145833X0.295833X-0.145833X0.295833X0.145833X0*%
G04 #@! TD*
G04 #@! TA.AperFunction,ComponentPad*
%ADD11O,0.800000X0.500000*%
G04 #@! TD*
G04 #@! TA.AperFunction,ComponentPad*
%ADD12O,2.100000X1.000000*%
G04 #@! TD*
G04 #@! TA.AperFunction,ComponentPad*
%ADD13O,1.800000X1.000000*%
G04 #@! TD*
G04 #@! TA.AperFunction,ComponentPad*
%ADD14RoundRect,0.250000X-0.625000X0.350000X-0.625000X-0.350000X0.625000X-0.350000X0.625000X0.350000X0*%
G04 #@! TD*
G04 #@! TA.AperFunction,ComponentPad*
%ADD15O,1.750000X1.200000*%
G04 #@! TD*
G04 #@! TA.AperFunction,ComponentPad*
%ADD16R,0.900000X0.500000*%
G04 #@! TD*
G04 #@! TA.AperFunction,ComponentPad*
%ADD17C,1.397000*%
G04 #@! TD*
G04 #@! TA.AperFunction,ViaPad*
%ADD18C,0.450000*%
G04 #@! TD*
G04 APERTURE END LIST*
D10*
X134000000Y-101600000D03*
D11*
X134000000Y-102616000D03*
D12*
X131930000Y-111752500D03*
D13*
X127750000Y-111752500D03*
D12*
X131930000Y-120392500D03*
D13*
X127750000Y-120392500D03*
D14*
X156500000Y-108000000D03*
D15*
X156500000Y-110000000D03*
D16*
X136150000Y-99625000D03*
D17*
X156750000Y-117566020D03*
X156750000Y-114568820D03*
D18*
X136325000Y-115000000D03*
X133567157Y-113182843D03*
X156775000Y-102775000D03*
X152700000Y-129925000D03*
X156830174Y-122991945D03*
X150900000Y-114700000D03*
X151175000Y-117225000D03*
X153750000Y-118300000D03*
X139475000Y-123025000D03*
X151425000Y-123600001D03*
X157740000Y-113320000D03*
X139900000Y-118975000D03*
X139250000Y-105725000D03*
X144725000Y-122850000D03*
X151075000Y-109525000D03*
X134525000Y-129150000D03*
X156500000Y-119700000D03*
X154075000Y-102175000D03*
X134300000Y-123825000D03*
X152200000Y-113250000D03*
X151525000Y-129925000D03*
X152950000Y-116950000D03*
X138775000Y-118900000D03*
X155025000Y-126275000D03*
X136155343Y-118930343D03*
X137875000Y-118975000D03*
X136875000Y-118950000D03*
X152425000Y-123600001D03*
X133725000Y-121350000D03*
X157050000Y-104775000D03*
X133350000Y-119175000D03*
X130500000Y-123750000D03*
X134600000Y-117950000D03*
X137375000Y-106825000D03*
X151301484Y-109130153D03*
X134500000Y-121425000D03*
X131325000Y-129125000D03*
X128225000Y-101225000D03*
X135700000Y-114825000D03*
X135575000Y-102525000D03*
X134000000Y-98625000D03*
X137577380Y-101475000D03*
X141100000Y-101950000D03*
X138974143Y-122900858D03*
X142050000Y-111200000D03*
X153775000Y-113225000D03*
X135525000Y-110075000D03*
X150375000Y-123600001D03*
X151100000Y-108700000D03*
X157100000Y-119725000D03*
X155890000Y-111380000D03*
X153625001Y-103413882D03*
X136075000Y-102100000D03*
X134575000Y-112950000D03*
X151114444Y-105235557D03*
X154875000Y-119500000D03*
X129721209Y-104853791D03*
X133200000Y-110100000D03*
X149830191Y-105294809D03*
X133750000Y-111250000D03*
X149286370Y-123394203D03*
X144715098Y-105353530D03*
X147629290Y-117900000D03*
X146821188Y-106250000D03*
X145150000Y-119200000D03*
X146200000Y-106250000D03*
X145649997Y-106250000D03*
X143319998Y-121050000D03*
X146275000Y-104925000D03*
X148800000Y-123137400D03*
X145304657Y-105329657D03*
X142719998Y-121500000D03*
X137745343Y-103620343D03*
X144250000Y-104575000D03*
X137450000Y-104250000D03*
X147433462Y-108947119D03*
X133814316Y-104250000D03*
X136724656Y-104650000D03*
X134507158Y-104942842D03*
X146908015Y-110035616D03*
X157525000Y-123275000D03*
X132175000Y-99250000D03*
X139225000Y-116650000D03*
X154875000Y-111925000D03*
X152400000Y-102900000D03*
X153800000Y-114900000D03*
X137372618Y-111727383D03*
X140307842Y-115942155D03*
X142784240Y-118794558D03*
X157550000Y-99275000D03*
X157500000Y-128425000D03*
X127450000Y-96300000D03*
X144025000Y-119600000D03*
X127375000Y-128475000D03*
X152725000Y-119400000D03*
X157550000Y-96300000D03*
X130600000Y-126025000D03*
X133325000Y-100495000D03*
X138500000Y-102250000D03*
X134975000Y-122150000D03*
X152025000Y-112000000D03*
X127450000Y-99250000D03*
X137375000Y-111250000D03*
X152875000Y-115475000D03*
X137375000Y-110751114D03*
X146025000Y-115325000D03*
X138900000Y-106450000D03*
X156225000Y-121975000D03*
X141600000Y-106025000D03*
X137400000Y-110300000D03*
X140775000Y-122925000D03*
X141240778Y-123018156D03*
X154225000Y-121025000D03*
X146625000Y-104125000D03*
X143450000Y-104235686D03*
X127400000Y-125500000D03*
X134586895Y-108588105D03*
X135500000Y-100500000D03*
X134495729Y-110142802D03*
X139225000Y-100550000D03*
X136800000Y-111725000D03*
X146850000Y-112800000D03*
X151396440Y-106704999D03*
X149431283Y-106114721D03*
X153016756Y-110925000D03*
X152363569Y-111436430D03*
X150000000Y-115785000D03*
X144139354Y-116444960D03*
X138521416Y-116346416D03*
X137689307Y-115764307D03*
X146600000Y-116700000D03*
X151181100Y-110500000D03*
X153675000Y-109000000D03*
X147708015Y-111025000D03*
X146650000Y-111500000D03*
X134557238Y-107992762D03*
X133000000Y-125350000D03*
X132832843Y-123732843D03*
X130450000Y-111726949D03*
X137275000Y-109600000D03*
X129650000Y-119875000D03*
X147876059Y-129026059D03*
X131332843Y-121667157D03*
X146825000Y-128649500D03*
X129650001Y-112000000D03*
G04 #@! TA.AperFunction,Conductor*
G36*
X134943039Y-94050185D02*
G01*
X134988794Y-94102989D01*
X135000000Y-94154500D01*
X135000000Y-99300000D01*
X135075500Y-99300000D01*
X135142539Y-99319685D01*
X135188294Y-99372489D01*
X135199500Y-99424000D01*
X135199500Y-99763452D01*
X135179815Y-99830491D01*
X135141473Y-99868445D01*
X135044797Y-99929190D01*
X134929192Y-100044795D01*
X134842210Y-100183225D01*
X134788212Y-100337544D01*
X134769909Y-100499996D01*
X134769909Y-100500003D01*
X134788212Y-100662455D01*
X134844511Y-100823349D01*
X134842718Y-100823976D01*
X134852529Y-100883583D01*
X134824802Y-100947715D01*
X134766804Y-100986677D01*
X134696948Y-100988097D01*
X134653974Y-100966811D01*
X134600776Y-100925991D01*
X134600773Y-100925990D01*
X134600771Y-100925988D01*
X134453686Y-100865064D01*
X134453681Y-100865062D01*
X134335469Y-100849500D01*
X134335468Y-100849500D01*
X134144350Y-100849500D01*
X134077311Y-100829815D01*
X134031556Y-100777011D01*
X134021612Y-100707853D01*
X134027306Y-100684550D01*
X134036786Y-100657461D01*
X134048894Y-100550000D01*
X134055091Y-100495003D01*
X134055091Y-100494996D01*
X134036787Y-100332544D01*
X134036786Y-100332542D01*
X134036786Y-100332539D01*
X133982789Y-100178225D01*
X133895808Y-100039796D01*
X133780204Y-99924192D01*
X133754097Y-99907788D01*
X133641774Y-99837210D01*
X133487455Y-99783212D01*
X133325004Y-99764909D01*
X133324996Y-99764909D01*
X133162544Y-99783212D01*
X133008225Y-99837210D01*
X132878814Y-99918525D01*
X132811577Y-99937525D01*
X132807844Y-99936387D01*
X132809709Y-99950365D01*
X132780038Y-100013622D01*
X132774840Y-100019148D01*
X132754191Y-100039797D01*
X132667210Y-100178225D01*
X132613212Y-100332544D01*
X132594909Y-100494996D01*
X132594909Y-100495003D01*
X132613212Y-100657455D01*
X132613213Y-100657460D01*
X132613214Y-100657461D01*
X132614964Y-100662461D01*
X132667210Y-100811774D01*
X132700694Y-100865063D01*
X132754192Y-100950204D01*
X132869796Y-101065808D01*
X132894571Y-101081375D01*
X133008226Y-101152790D01*
X133033279Y-101161556D01*
X133090056Y-101202277D01*
X133115804Y-101267229D01*
X133115265Y-101294783D01*
X133099500Y-101414531D01*
X133099500Y-101785468D01*
X133115062Y-101903681D01*
X133115064Y-101903686D01*
X133175988Y-102050771D01*
X133175990Y-102050775D01*
X133201577Y-102084121D01*
X133226770Y-102149290D01*
X133212731Y-102217735D01*
X133206304Y-102228495D01*
X133184913Y-102260509D01*
X133128343Y-102397082D01*
X133128340Y-102397092D01*
X133099500Y-102542079D01*
X133099500Y-102542082D01*
X133099500Y-102689918D01*
X133099500Y-102689920D01*
X133099499Y-102689920D01*
X133128340Y-102834907D01*
X133128343Y-102834917D01*
X133184912Y-102971488D01*
X133184919Y-102971501D01*
X133267048Y-103094415D01*
X133267051Y-103094419D01*
X133371580Y-103198948D01*
X133371584Y-103198951D01*
X133494498Y-103281080D01*
X133494511Y-103281087D01*
X133602942Y-103326000D01*
X133657346Y-103369840D01*
X133679411Y-103436135D01*
X133662132Y-103503834D01*
X133610995Y-103551445D01*
X133596445Y-103557603D01*
X133497540Y-103592211D01*
X133359111Y-103679192D01*
X133243508Y-103794795D01*
X133156526Y-103933225D01*
X133102528Y-104087544D01*
X133084225Y-104249996D01*
X133084225Y-104250003D01*
X133102528Y-104412455D01*
X133156526Y-104566774D01*
X133237603Y-104695807D01*
X133243508Y-104705204D01*
X133359112Y-104820808D01*
X133497541Y-104907789D01*
X133651855Y-104961786D01*
X133682573Y-104965247D01*
X133746985Y-104992312D01*
X133786542Y-105049906D01*
X133791910Y-105074580D01*
X133795372Y-105105303D01*
X133804837Y-105132353D01*
X133849368Y-105259616D01*
X133913566Y-105361786D01*
X133936350Y-105398046D01*
X134051954Y-105513650D01*
X134190383Y-105600631D01*
X134344697Y-105654628D01*
X134344700Y-105654628D01*
X134344702Y-105654629D01*
X134507154Y-105672933D01*
X134507158Y-105672933D01*
X134507162Y-105672933D01*
X134669613Y-105654629D01*
X134669614Y-105654628D01*
X134669619Y-105654628D01*
X134823933Y-105600631D01*
X134962362Y-105513650D01*
X135077966Y-105398046D01*
X135164947Y-105259617D01*
X135218944Y-105105303D01*
X135218955Y-105105204D01*
X135237249Y-104942845D01*
X135237249Y-104942838D01*
X135218945Y-104780386D01*
X135218944Y-104780384D01*
X135218944Y-104780381D01*
X135173320Y-104649996D01*
X135994565Y-104649996D01*
X135994565Y-104650003D01*
X136012868Y-104812455D01*
X136066866Y-104966774D01*
X136142699Y-105087461D01*
X136153848Y-105105204D01*
X136269452Y-105220808D01*
X136407881Y-105307789D01*
X136562195Y-105361786D01*
X136562198Y-105361786D01*
X136562200Y-105361787D01*
X136724652Y-105380091D01*
X136724656Y-105380091D01*
X136724660Y-105380091D01*
X136887111Y-105361787D01*
X136887112Y-105361786D01*
X136887117Y-105361786D01*
X137041431Y-105307789D01*
X137179860Y-105220808D01*
X137295464Y-105105204D01*
X137337644Y-105038073D01*
X137389978Y-104991783D01*
X137443036Y-104983056D01*
X137443036Y-104980091D01*
X137450004Y-104980091D01*
X137612455Y-104961787D01*
X137612456Y-104961786D01*
X137612461Y-104961786D01*
X137766775Y-104907789D01*
X137905204Y-104820808D01*
X138020808Y-104705204D01*
X138107789Y-104566775D01*
X138161786Y-104412461D01*
X138163350Y-104398587D01*
X138180108Y-104249849D01*
X138186061Y-104235682D01*
X142719909Y-104235682D01*
X142719909Y-104235689D01*
X142738212Y-104398141D01*
X142792210Y-104552460D01*
X142853499Y-104650000D01*
X142879192Y-104690890D01*
X142994796Y-104806494D01*
X143133225Y-104893475D01*
X143287539Y-104947472D01*
X143287542Y-104947472D01*
X143287544Y-104947473D01*
X143449996Y-104965777D01*
X143450000Y-104965777D01*
X143450002Y-104965777D01*
X143518526Y-104958055D01*
X143548807Y-104954644D01*
X143617629Y-104966698D01*
X143667684Y-105011891D01*
X143679188Y-105030200D01*
X143679192Y-105030204D01*
X143794796Y-105145808D01*
X143928316Y-105229705D01*
X143974607Y-105282039D01*
X143985565Y-105348578D01*
X143985007Y-105353531D01*
X143985007Y-105353533D01*
X144003310Y-105515985D01*
X144057308Y-105670304D01*
X144135532Y-105794796D01*
X144144290Y-105808734D01*
X144259894Y-105924338D01*
X144398323Y-106011319D01*
X144552637Y-106065316D01*
X144552640Y-106065316D01*
X144552642Y-106065317D01*
X144715094Y-106083621D01*
X144715098Y-106083621D01*
X144715100Y-106083621D01*
X144763838Y-106078129D01*
X144787013Y-106075518D01*
X144855835Y-106087572D01*
X144907214Y-106134921D01*
X144924839Y-106202531D01*
X144924117Y-106212621D01*
X144919906Y-106249996D01*
X144919906Y-106250003D01*
X144938209Y-106412455D01*
X144992207Y-106566774D01*
X145065105Y-106682789D01*
X145079189Y-106705204D01*
X145194793Y-106820808D01*
X145333222Y-106907789D01*
X145487536Y-106961786D01*
X145487539Y-106961786D01*
X145487541Y-106961787D01*
X145649993Y-106980091D01*
X145649997Y-106980091D01*
X145650001Y-106980091D01*
X145812452Y-106961787D01*
X145812453Y-106961786D01*
X145812458Y-106961786D01*
X145884046Y-106936735D01*
X145953820Y-106933173D01*
X145965932Y-106936729D01*
X146037539Y-106961786D01*
X146037543Y-106961786D01*
X146037545Y-106961787D01*
X146037542Y-106961787D01*
X146199996Y-106980091D01*
X146200000Y-106980091D01*
X146200004Y-106980091D01*
X146362457Y-106961787D01*
X146362459Y-106961786D01*
X146362461Y-106961786D01*
X146469639Y-106924281D01*
X146539417Y-106920719D01*
X146551547Y-106924281D01*
X146587140Y-106936736D01*
X146658730Y-106961787D01*
X146821184Y-106980091D01*
X146821188Y-106980091D01*
X146821192Y-106980091D01*
X146983643Y-106961787D01*
X146983644Y-106961786D01*
X146983649Y-106961786D01*
X147137963Y-106907789D01*
X147276392Y-106820808D01*
X147391996Y-106705204D01*
X147478977Y-106566775D01*
X147532974Y-106412461D01*
X147535705Y-106388224D01*
X147551279Y-106250003D01*
X147551279Y-106249996D01*
X147536037Y-106114717D01*
X148701192Y-106114717D01*
X148701192Y-106114724D01*
X148719495Y-106277176D01*
X148773493Y-106431495D01*
X148843270Y-106542543D01*
X148860475Y-106569925D01*
X148976079Y-106685529D01*
X149114508Y-106772510D01*
X149268822Y-106826507D01*
X149268825Y-106826507D01*
X149268827Y-106826508D01*
X149431279Y-106844812D01*
X149431283Y-106844812D01*
X149431287Y-106844812D01*
X149593738Y-106826508D01*
X149593739Y-106826507D01*
X149593744Y-106826507D01*
X149748058Y-106772510D01*
X149855507Y-106704995D01*
X150666349Y-106704995D01*
X150666349Y-106705002D01*
X150684652Y-106867454D01*
X150738650Y-107021773D01*
X150792698Y-107107789D01*
X150825632Y-107160203D01*
X150941236Y-107275807D01*
X151079665Y-107362788D01*
X151233979Y-107416785D01*
X151233982Y-107416785D01*
X151233984Y-107416786D01*
X151396436Y-107435090D01*
X151396440Y-107435090D01*
X151396444Y-107435090D01*
X151558895Y-107416786D01*
X151558896Y-107416785D01*
X151558901Y-107416785D01*
X151713215Y-107362788D01*
X151851644Y-107275807D01*
X151967248Y-107160203D01*
X152054229Y-107021774D01*
X152108226Y-106867460D01*
X152110778Y-106844812D01*
X152126531Y-106705002D01*
X152126531Y-106704995D01*
X152108227Y-106542543D01*
X152108226Y-106542541D01*
X152108226Y-106542538D01*
X152054229Y-106388224D01*
X151967248Y-106249795D01*
X151851644Y-106134191D01*
X151820656Y-106114720D01*
X151713214Y-106047209D01*
X151558895Y-105993211D01*
X151396444Y-105974908D01*
X151396436Y-105974908D01*
X151233984Y-105993211D01*
X151079665Y-106047209D01*
X150941235Y-106134191D01*
X150825632Y-106249794D01*
X150738650Y-106388224D01*
X150684652Y-106542543D01*
X150666349Y-106704995D01*
X149855507Y-106704995D01*
X149886487Y-106685529D01*
X150002091Y-106569925D01*
X150089072Y-106431496D01*
X150143069Y-106277182D01*
X150143070Y-106277176D01*
X150161374Y-106114724D01*
X150161374Y-106114720D01*
X150157870Y-106083621D01*
X150152085Y-106032285D01*
X150164139Y-105963466D01*
X150209333Y-105913410D01*
X150285395Y-105865617D01*
X150400999Y-105750013D01*
X150487980Y-105611584D01*
X150541977Y-105457270D01*
X150545658Y-105424599D01*
X150560282Y-105294812D01*
X150560282Y-105294805D01*
X150541978Y-105132353D01*
X150541977Y-105132351D01*
X150541977Y-105132348D01*
X150487980Y-104978034D01*
X150400999Y-104839605D01*
X150285395Y-104724001D01*
X150233400Y-104691330D01*
X150146965Y-104637019D01*
X149992646Y-104583021D01*
X149830195Y-104564718D01*
X149830187Y-104564718D01*
X149667735Y-104583021D01*
X149513416Y-104637019D01*
X149374986Y-104724001D01*
X149259383Y-104839604D01*
X149172401Y-104978034D01*
X149118403Y-105132353D01*
X149100100Y-105294805D01*
X149100100Y-105294812D01*
X149109387Y-105377243D01*
X149097332Y-105446065D01*
X149052140Y-105496119D01*
X148976081Y-105543911D01*
X148976078Y-105543913D01*
X148860475Y-105659516D01*
X148773493Y-105797946D01*
X148719495Y-105952265D01*
X148701192Y-106114717D01*
X147536037Y-106114717D01*
X147532975Y-106087544D01*
X147532974Y-106087542D01*
X147532974Y-106087539D01*
X147478977Y-105933225D01*
X147391996Y-105794796D01*
X147276392Y-105679192D01*
X147266431Y-105672933D01*
X147137962Y-105592210D01*
X146983643Y-105538212D01*
X146958303Y-105535357D01*
X146893889Y-105508289D01*
X146854336Y-105450693D01*
X146852199Y-105380856D01*
X146867194Y-105346168D01*
X146932789Y-105241775D01*
X146986786Y-105087461D01*
X146986787Y-105087455D01*
X147005091Y-104925003D01*
X147005091Y-104924998D01*
X146997068Y-104853794D01*
X146994664Y-104832461D01*
X147006718Y-104763641D01*
X147051912Y-104713584D01*
X147080204Y-104695808D01*
X147195808Y-104580204D01*
X147282789Y-104441775D01*
X147336786Y-104287461D01*
X147336910Y-104286361D01*
X147355091Y-104125003D01*
X147355091Y-104124996D01*
X147336787Y-103962544D01*
X147336786Y-103962542D01*
X147336786Y-103962539D01*
X147282789Y-103808225D01*
X147195808Y-103669796D01*
X147080204Y-103554192D01*
X146947500Y-103470808D01*
X146941774Y-103467210D01*
X146787455Y-103413212D01*
X146625004Y-103394909D01*
X146624996Y-103394909D01*
X146462544Y-103413212D01*
X146308225Y-103467210D01*
X146169795Y-103554192D01*
X146054192Y-103669795D01*
X145967210Y-103808225D01*
X145913212Y-103962544D01*
X145894909Y-104124996D01*
X145894909Y-104125005D01*
X145905334Y-104217539D01*
X145893279Y-104286361D01*
X145848088Y-104336414D01*
X145819796Y-104354191D01*
X145704192Y-104469795D01*
X145704187Y-104469801D01*
X145637800Y-104575456D01*
X145585466Y-104621747D01*
X145516412Y-104632395D01*
X145491853Y-104626526D01*
X145477896Y-104621642D01*
X145467118Y-104617871D01*
X145467117Y-104617870D01*
X145467115Y-104617870D01*
X145304661Y-104599566D01*
X145304653Y-104599566D01*
X145142199Y-104617869D01*
X145142198Y-104617870D01*
X145137642Y-104619464D01*
X145067863Y-104623020D01*
X145007239Y-104588286D01*
X144975016Y-104526290D01*
X144973477Y-104516301D01*
X144970247Y-104487637D01*
X144961786Y-104412539D01*
X144907789Y-104258225D01*
X144820808Y-104119796D01*
X144705204Y-104004192D01*
X144598457Y-103937118D01*
X144566774Y-103917210D01*
X144432939Y-103870379D01*
X144412461Y-103863214D01*
X144412460Y-103863213D01*
X144412455Y-103863212D01*
X144250004Y-103844909D01*
X144249996Y-103844909D01*
X144151190Y-103856041D01*
X144082368Y-103843986D01*
X144032313Y-103798792D01*
X144020809Y-103780484D01*
X144020807Y-103780481D01*
X143905204Y-103664878D01*
X143766774Y-103577896D01*
X143612455Y-103523898D01*
X143450004Y-103505595D01*
X143449996Y-103505595D01*
X143287544Y-103523898D01*
X143133225Y-103577896D01*
X142994795Y-103664878D01*
X142879192Y-103780481D01*
X142792210Y-103918911D01*
X142738212Y-104073230D01*
X142719909Y-104235682D01*
X138186061Y-104235682D01*
X138207174Y-104185435D01*
X138215647Y-104176051D01*
X138249695Y-104142003D01*
X138316151Y-104075547D01*
X138403132Y-103937118D01*
X138457129Y-103782804D01*
X138457130Y-103782798D01*
X138475434Y-103620346D01*
X138475434Y-103620339D01*
X138457130Y-103457887D01*
X138457129Y-103457885D01*
X138457129Y-103457882D01*
X138403132Y-103303568D01*
X138316151Y-103165139D01*
X138314003Y-103161720D01*
X138295003Y-103094483D01*
X138315371Y-103027648D01*
X138368639Y-102982434D01*
X138432879Y-102972528D01*
X138489394Y-102978896D01*
X138499999Y-102980091D01*
X138500000Y-102980091D01*
X138500004Y-102980091D01*
X138662455Y-102961787D01*
X138662456Y-102961786D01*
X138662461Y-102961786D01*
X138816775Y-102907789D01*
X138829177Y-102899996D01*
X151669909Y-102899996D01*
X151669909Y-102900003D01*
X151688212Y-103062455D01*
X151742210Y-103216774D01*
X151782619Y-103281084D01*
X151829192Y-103355204D01*
X151944796Y-103470808D01*
X152083225Y-103557789D01*
X152237539Y-103611786D01*
X152237542Y-103611786D01*
X152237544Y-103611787D01*
X152399996Y-103630091D01*
X152400000Y-103630091D01*
X152400004Y-103630091D01*
X152562455Y-103611787D01*
X152562456Y-103611786D01*
X152562461Y-103611786D01*
X152716775Y-103557789D01*
X152855204Y-103470808D01*
X152970808Y-103355204D01*
X153057789Y-103216775D01*
X153111786Y-103062461D01*
X153111787Y-103062455D01*
X153130091Y-102900003D01*
X153130091Y-102899996D01*
X153111787Y-102737544D01*
X153111786Y-102737542D01*
X153111786Y-102737539D01*
X153057789Y-102583225D01*
X152970808Y-102444796D01*
X152855204Y-102329192D01*
X152716774Y-102242210D01*
X152562455Y-102188212D01*
X152400004Y-102169909D01*
X152399996Y-102169909D01*
X152237544Y-102188212D01*
X152083225Y-102242210D01*
X151944795Y-102329192D01*
X151829192Y-102444795D01*
X151742210Y-102583225D01*
X151688212Y-102737544D01*
X151669909Y-102899996D01*
X138829177Y-102899996D01*
X138955204Y-102820808D01*
X139070808Y-102705204D01*
X139157789Y-102566775D01*
X139211786Y-102412461D01*
X139213518Y-102397092D01*
X139230091Y-102250003D01*
X139230091Y-102249996D01*
X139211787Y-102087544D01*
X139211786Y-102087542D01*
X139211786Y-102087539D01*
X139157789Y-101933225D01*
X139070808Y-101794796D01*
X138955204Y-101679192D01*
X138816774Y-101592210D01*
X138662455Y-101538212D01*
X138500004Y-101519909D01*
X138499996Y-101519909D01*
X138337544Y-101538212D01*
X138183225Y-101592210D01*
X138044795Y-101679192D01*
X137929192Y-101794795D01*
X137842210Y-101933225D01*
X137788212Y-102087544D01*
X137769909Y-102249996D01*
X137769909Y-102250003D01*
X137788212Y-102412455D01*
X137842210Y-102566774D01*
X137931339Y-102708622D01*
X137950339Y-102775859D01*
X137929971Y-102842694D01*
X137876703Y-102887908D01*
X137812462Y-102897814D01*
X137745347Y-102890252D01*
X137745339Y-102890252D01*
X137582887Y-102908555D01*
X137428568Y-102962553D01*
X137290138Y-103049535D01*
X137174535Y-103165138D01*
X137087553Y-103303568D01*
X137033555Y-103457887D01*
X137015234Y-103620494D01*
X136988167Y-103684908D01*
X136979696Y-103694290D01*
X136879191Y-103794796D01*
X136837009Y-103861927D01*
X136784673Y-103908217D01*
X136731619Y-103917001D01*
X136731619Y-103919909D01*
X136724652Y-103919909D01*
X136562200Y-103938212D01*
X136407881Y-103992210D01*
X136269451Y-104079192D01*
X136153848Y-104194795D01*
X136066866Y-104333225D01*
X136012868Y-104487544D01*
X135994565Y-104649996D01*
X135173320Y-104649996D01*
X135164947Y-104626067D01*
X135077966Y-104487638D01*
X134962362Y-104372034D01*
X134933965Y-104354191D01*
X134823932Y-104285052D01*
X134682859Y-104235689D01*
X134669619Y-104231056D01*
X134654252Y-104229324D01*
X134638896Y-104227594D01*
X134574483Y-104200525D01*
X134534929Y-104142930D01*
X134529563Y-104118263D01*
X134526102Y-104087539D01*
X134472105Y-103933225D01*
X134385124Y-103794796D01*
X134269520Y-103679192D01*
X134254565Y-103669795D01*
X134136316Y-103595494D01*
X134090025Y-103543159D01*
X134079377Y-103474105D01*
X134107752Y-103410257D01*
X134166142Y-103371885D01*
X134202288Y-103366500D01*
X134223920Y-103366500D01*
X134321462Y-103347096D01*
X134368913Y-103337658D01*
X134505495Y-103281084D01*
X134628416Y-103198951D01*
X134732951Y-103094416D01*
X134815084Y-102971495D01*
X134818788Y-102962554D01*
X134841154Y-102908557D01*
X134871658Y-102834913D01*
X134883405Y-102775859D01*
X134900500Y-102689920D01*
X134900500Y-102542079D01*
X134871659Y-102397092D01*
X134871658Y-102397091D01*
X134871658Y-102397087D01*
X134843535Y-102329192D01*
X134815087Y-102260511D01*
X134815080Y-102260498D01*
X134793697Y-102228496D01*
X134772819Y-102161818D01*
X134791304Y-102094438D01*
X134798413Y-102084131D01*
X134824009Y-102050776D01*
X134884937Y-101903683D01*
X134900500Y-101785468D01*
X134900500Y-101414532D01*
X134884937Y-101296317D01*
X134850559Y-101213323D01*
X134843091Y-101143854D01*
X134874366Y-101081375D01*
X134934455Y-101045723D01*
X135004280Y-101048217D01*
X135042435Y-101068925D01*
X135044795Y-101070807D01*
X135044796Y-101070808D01*
X135183225Y-101157789D01*
X135337539Y-101211786D01*
X135337542Y-101211786D01*
X135337544Y-101211787D01*
X135499996Y-101230091D01*
X135500000Y-101230091D01*
X135500004Y-101230091D01*
X135662455Y-101211787D01*
X135662456Y-101211786D01*
X135662461Y-101211786D01*
X135816775Y-101157789D01*
X135955204Y-101070808D01*
X136070808Y-100955204D01*
X136157789Y-100816775D01*
X136211786Y-100662461D01*
X136211787Y-100662455D01*
X136224458Y-100549996D01*
X138494909Y-100549996D01*
X138494909Y-100550003D01*
X138513212Y-100712455D01*
X138567210Y-100866774D01*
X138567211Y-100866775D01*
X138654192Y-101005204D01*
X138769796Y-101120808D01*
X138908225Y-101207789D01*
X139062539Y-101261786D01*
X139062542Y-101261786D01*
X139062544Y-101261787D01*
X139224996Y-101280091D01*
X139225000Y-101280091D01*
X139225004Y-101280091D01*
X139387455Y-101261787D01*
X139387456Y-101261786D01*
X139387461Y-101261786D01*
X139541775Y-101207789D01*
X139680204Y-101120808D01*
X139795808Y-101005204D01*
X139882789Y-100866775D01*
X139936786Y-100712461D01*
X139936787Y-100712455D01*
X139955091Y-100550003D01*
X139955091Y-100549996D01*
X139936787Y-100387544D01*
X139936786Y-100387542D01*
X139936786Y-100387539D01*
X139882789Y-100233225D01*
X139795808Y-100094796D01*
X139680204Y-99979192D01*
X139613892Y-99937525D01*
X139541774Y-99892210D01*
X139387455Y-99838212D01*
X139225004Y-99819909D01*
X139224996Y-99819909D01*
X139062544Y-99838212D01*
X138908225Y-99892210D01*
X138769795Y-99979192D01*
X138654192Y-100094795D01*
X138567210Y-100233225D01*
X138513212Y-100387544D01*
X138494909Y-100549996D01*
X136224458Y-100549996D01*
X136230091Y-100500003D01*
X136230091Y-100499499D01*
X136230183Y-100499184D01*
X136230871Y-100493081D01*
X136231940Y-100493201D01*
X136249776Y-100432460D01*
X136302580Y-100386705D01*
X136354091Y-100375499D01*
X136647871Y-100375499D01*
X136647872Y-100375499D01*
X136707483Y-100369091D01*
X136842331Y-100318796D01*
X136957546Y-100232546D01*
X137043796Y-100117331D01*
X137094091Y-99982483D01*
X137100500Y-99922873D01*
X137100499Y-99423999D01*
X137120183Y-99356961D01*
X137172987Y-99311206D01*
X137224499Y-99300000D01*
X150600000Y-99300000D01*
X150600000Y-94154500D01*
X150619685Y-94087461D01*
X150672489Y-94041706D01*
X150724000Y-94030500D01*
X157965500Y-94030500D01*
X158032539Y-94050185D01*
X158078294Y-94102989D01*
X158089500Y-94154500D01*
X158089500Y-95557797D01*
X158069815Y-95624836D01*
X158017011Y-95670591D01*
X157947853Y-95680535D01*
X157899528Y-95662791D01*
X157866774Y-95642210D01*
X157712455Y-95588212D01*
X157550004Y-95569909D01*
X157549996Y-95569909D01*
X157387544Y-95588212D01*
X157233225Y-95642210D01*
X157094795Y-95729192D01*
X156979192Y-95844795D01*
X156892210Y-95983225D01*
X156838212Y-96137544D01*
X156819909Y-96299996D01*
X156819909Y-96300003D01*
X156838212Y-96462455D01*
X156892210Y-96616774D01*
X156892211Y-96616775D01*
X156979192Y-96755204D01*
X157094796Y-96870808D01*
X157233225Y-96957789D01*
X157387539Y-97011786D01*
X157387542Y-97011786D01*
X157387544Y-97011787D01*
X157549996Y-97030091D01*
X157550000Y-97030091D01*
X157550004Y-97030091D01*
X157712455Y-97011787D01*
X157712456Y-97011786D01*
X157712461Y-97011786D01*
X157866775Y-96957789D01*
X157899526Y-96937209D01*
X157966762Y-96918208D01*
X158033598Y-96938574D01*
X158078813Y-96991841D01*
X158089500Y-97042202D01*
X158089500Y-98532797D01*
X158069815Y-98599836D01*
X158017011Y-98645591D01*
X157947853Y-98655535D01*
X157899528Y-98637791D01*
X157866774Y-98617210D01*
X157712455Y-98563212D01*
X157550004Y-98544909D01*
X157549996Y-98544909D01*
X157387544Y-98563212D01*
X157233225Y-98617210D01*
X157094795Y-98704192D01*
X156979192Y-98819795D01*
X156892210Y-98958225D01*
X156838212Y-99112544D01*
X156819909Y-99274996D01*
X156819909Y-99275003D01*
X156838212Y-99437455D01*
X156892210Y-99591774D01*
X156963483Y-99705204D01*
X156979192Y-99730204D01*
X157094796Y-99845808D01*
X157233225Y-99932789D01*
X157387539Y-99986786D01*
X157387542Y-99986786D01*
X157387544Y-99986787D01*
X157549996Y-100005091D01*
X157550000Y-100005091D01*
X157550004Y-100005091D01*
X157712455Y-99986787D01*
X157712456Y-99986786D01*
X157712461Y-99986786D01*
X157866775Y-99932789D01*
X157899526Y-99912209D01*
X157966762Y-99893208D01*
X158033598Y-99913574D01*
X158078813Y-99966841D01*
X158089500Y-100017202D01*
X158089500Y-107406277D01*
X158069815Y-107473316D01*
X158017011Y-107519071D01*
X157947853Y-107529015D01*
X157884297Y-107499990D01*
X157847794Y-107445282D01*
X157834869Y-107406277D01*
X157809814Y-107330666D01*
X157717712Y-107181344D01*
X157593656Y-107057288D01*
X157444334Y-106965186D01*
X157277797Y-106910001D01*
X157277795Y-106910000D01*
X157175010Y-106899500D01*
X155824998Y-106899500D01*
X155824981Y-106899501D01*
X155722203Y-106910000D01*
X155722200Y-106910001D01*
X155555668Y-106965185D01*
X155555663Y-106965187D01*
X155406342Y-107057289D01*
X155282289Y-107181342D01*
X155190187Y-107330663D01*
X155190185Y-107330668D01*
X155179542Y-107362788D01*
X155135001Y-107497203D01*
X155135001Y-107497204D01*
X155135000Y-107497204D01*
X155124500Y-107599983D01*
X155124500Y-108400001D01*
X155124501Y-108400019D01*
X155135000Y-108502796D01*
X155135001Y-108502799D01*
X155148918Y-108544796D01*
X155190186Y-108669334D01*
X155282288Y-108818656D01*
X155406344Y-108942712D01*
X155470981Y-108982580D01*
X155517705Y-109034526D01*
X155528928Y-109103489D01*
X155501085Y-109167571D01*
X155493566Y-109175799D01*
X155385964Y-109283401D01*
X155284195Y-109423475D01*
X155205591Y-109577744D01*
X155152085Y-109742415D01*
X155150884Y-109749999D01*
X155150885Y-109750000D01*
X156219670Y-109750000D01*
X156199925Y-109769745D01*
X156150556Y-109855255D01*
X156125000Y-109950630D01*
X156125000Y-110049370D01*
X156150556Y-110144745D01*
X156199925Y-110230255D01*
X156219670Y-110250000D01*
X155150885Y-110250000D01*
X155152085Y-110257584D01*
X155205591Y-110422255D01*
X155284195Y-110576524D01*
X155385967Y-110716602D01*
X155508397Y-110839032D01*
X155648475Y-110940804D01*
X155802742Y-111019408D01*
X155967415Y-111072914D01*
X156138429Y-111100000D01*
X156250000Y-111100000D01*
X156250000Y-110280330D01*
X156269745Y-110300075D01*
X156355255Y-110349444D01*
X156450630Y-110375000D01*
X156549370Y-110375000D01*
X156644745Y-110349444D01*
X156730255Y-110300075D01*
X156750000Y-110280330D01*
X156750000Y-111100000D01*
X156861571Y-111100000D01*
X157032584Y-111072914D01*
X157197257Y-111019408D01*
X157351524Y-110940804D01*
X157491602Y-110839032D01*
X157614032Y-110716602D01*
X157715804Y-110576524D01*
X157794408Y-110422255D01*
X157847569Y-110258647D01*
X157887007Y-110200971D01*
X157951365Y-110173773D01*
X158020212Y-110185688D01*
X158071687Y-110232932D01*
X158089500Y-110296965D01*
X158089500Y-114041763D01*
X158069815Y-114108802D01*
X158017011Y-114154557D01*
X157947853Y-114164501D01*
X157884297Y-114135476D01*
X157854500Y-114097035D01*
X157809099Y-114005859D01*
X157773778Y-113934924D01*
X157639868Y-113757598D01*
X157639866Y-113757595D01*
X157475655Y-113607898D01*
X157475653Y-113607896D01*
X157286733Y-113490922D01*
X157286727Y-113490919D01*
X157179080Y-113449217D01*
X157079528Y-113410650D01*
X156861104Y-113369820D01*
X156638896Y-113369820D01*
X156420472Y-113410650D01*
X156370695Y-113429933D01*
X156213272Y-113490919D01*
X156213266Y-113490922D01*
X156024346Y-113607896D01*
X156024344Y-113607898D01*
X155860133Y-113757595D01*
X155726222Y-113934923D01*
X155627180Y-114133825D01*
X155627174Y-114133840D01*
X155566366Y-114347558D01*
X155566365Y-114347560D01*
X155545863Y-114568819D01*
X155545863Y-114568820D01*
X155566365Y-114790079D01*
X155566366Y-114790081D01*
X155627174Y-115003799D01*
X155627180Y-115003814D01*
X155726222Y-115202716D01*
X155860133Y-115380044D01*
X156024344Y-115529741D01*
X156024346Y-115529743D01*
X156213266Y-115646717D01*
X156213272Y-115646720D01*
X156242206Y-115657929D01*
X156420472Y-115726990D01*
X156638896Y-115767820D01*
X156638899Y-115767820D01*
X156861101Y-115767820D01*
X156861104Y-115767820D01*
X157079528Y-115726990D01*
X157286730Y-115646719D01*
X157475655Y-115529742D01*
X157639868Y-115380042D01*
X157773778Y-115202716D01*
X157811375Y-115127211D01*
X157854500Y-115040605D01*
X157902003Y-114989367D01*
X157969666Y-114971946D01*
X158036006Y-114993871D01*
X158079961Y-115048183D01*
X158089500Y-115095876D01*
X158089500Y-117038963D01*
X158069815Y-117106002D01*
X158017011Y-117151757D01*
X157947853Y-117161701D01*
X157884297Y-117132676D01*
X157854500Y-117094235D01*
X157791032Y-116966775D01*
X157773778Y-116932124D01*
X157639868Y-116754798D01*
X157639866Y-116754795D01*
X157475655Y-116605098D01*
X157475653Y-116605096D01*
X157286733Y-116488122D01*
X157286727Y-116488119D01*
X157169715Y-116442789D01*
X157079528Y-116407850D01*
X156861104Y-116367020D01*
X156638896Y-116367020D01*
X156420472Y-116407850D01*
X156383699Y-116422096D01*
X156213272Y-116488119D01*
X156213266Y-116488122D01*
X156024346Y-116605096D01*
X156024344Y-116605098D01*
X155860133Y-116754795D01*
X155726222Y-116932123D01*
X155627180Y-117131025D01*
X155627174Y-117131040D01*
X155566366Y-117344758D01*
X155566365Y-117344760D01*
X155545863Y-117566019D01*
X155545863Y-117566020D01*
X155566365Y-117787279D01*
X155566366Y-117787281D01*
X155627174Y-118000999D01*
X155627180Y-118001014D01*
X155726222Y-118199916D01*
X155860133Y-118377244D01*
X156024344Y-118526941D01*
X156024346Y-118526943D01*
X156213266Y-118643917D01*
X156213272Y-118643920D01*
X156242206Y-118655129D01*
X156420472Y-118724190D01*
X156638896Y-118765020D01*
X156638899Y-118765020D01*
X156861101Y-118765020D01*
X156861104Y-118765020D01*
X157079528Y-118724190D01*
X157286730Y-118643919D01*
X157475655Y-118526942D01*
X157639868Y-118377242D01*
X157773778Y-118199916D01*
X157773779Y-118199914D01*
X157854500Y-118037805D01*
X157902003Y-117986567D01*
X157969666Y-117969146D01*
X158036006Y-117991071D01*
X158079961Y-118045383D01*
X158089500Y-118093076D01*
X158089500Y-122548505D01*
X158069815Y-122615544D01*
X158017011Y-122661299D01*
X157947853Y-122671243D01*
X157899528Y-122653499D01*
X157841775Y-122617210D01*
X157687455Y-122563212D01*
X157525004Y-122544909D01*
X157524996Y-122544909D01*
X157362544Y-122563212D01*
X157208225Y-122617210D01*
X157069795Y-122704192D01*
X156954192Y-122819795D01*
X156867210Y-122958225D01*
X156813212Y-123112544D01*
X156794909Y-123274996D01*
X156794909Y-123275003D01*
X156813212Y-123437455D01*
X156867210Y-123591774D01*
X156867211Y-123591775D01*
X156954192Y-123730204D01*
X157069796Y-123845808D01*
X157208225Y-123932789D01*
X157362539Y-123986786D01*
X157362542Y-123986786D01*
X157362544Y-123986787D01*
X157524996Y-124005091D01*
X157525000Y-124005091D01*
X157525004Y-124005091D01*
X157687455Y-123986787D01*
X157687456Y-123986786D01*
X157687461Y-123986786D01*
X157841775Y-123932789D01*
X157899527Y-123896501D01*
X157966764Y-123877500D01*
X158033599Y-123897867D01*
X158078814Y-123951135D01*
X158089500Y-124001494D01*
X158089500Y-127714214D01*
X158069815Y-127781253D01*
X158017011Y-127827008D01*
X157947853Y-127836952D01*
X157899528Y-127819208D01*
X157816774Y-127767210D01*
X157662455Y-127713212D01*
X157500004Y-127694909D01*
X157499996Y-127694909D01*
X157337544Y-127713212D01*
X157183225Y-127767210D01*
X157044795Y-127854192D01*
X156929192Y-127969795D01*
X156842210Y-128108225D01*
X156788212Y-128262544D01*
X156769909Y-128424996D01*
X156769909Y-128425003D01*
X156788212Y-128587455D01*
X156842210Y-128741774D01*
X156873628Y-128791775D01*
X156929192Y-128880204D01*
X157044796Y-128995808D01*
X157183225Y-129082789D01*
X157337539Y-129136786D01*
X157337542Y-129136786D01*
X157337544Y-129136787D01*
X157499996Y-129155091D01*
X157500000Y-129155091D01*
X157500004Y-129155091D01*
X157662455Y-129136787D01*
X157662456Y-129136786D01*
X157662461Y-129136786D01*
X157816775Y-129082789D01*
X157899527Y-129030791D01*
X157966764Y-129011791D01*
X158033599Y-129032158D01*
X158078813Y-129085426D01*
X158089500Y-129135785D01*
X158089500Y-130665500D01*
X158069815Y-130732539D01*
X158017011Y-130778294D01*
X157965500Y-130789500D01*
X126974500Y-130789500D01*
X126907461Y-130769815D01*
X126861706Y-130717011D01*
X126850500Y-130665500D01*
X126850500Y-129226628D01*
X126870185Y-129159589D01*
X126922989Y-129113834D01*
X126992147Y-129103890D01*
X127040473Y-129121635D01*
X127049190Y-129127112D01*
X127058225Y-129132789D01*
X127212539Y-129186786D01*
X127212542Y-129186786D01*
X127212544Y-129186787D01*
X127374996Y-129205091D01*
X127375000Y-129205091D01*
X127375004Y-129205091D01*
X127537455Y-129186787D01*
X127537456Y-129186786D01*
X127537461Y-129186786D01*
X127691775Y-129132789D01*
X127830204Y-129045808D01*
X127945808Y-128930204D01*
X128032789Y-128791775D01*
X128082575Y-128649496D01*
X146094909Y-128649496D01*
X146094909Y-128649503D01*
X146113212Y-128811955D01*
X146167210Y-128966274D01*
X146204773Y-129026055D01*
X146254192Y-129104704D01*
X146369796Y-129220308D01*
X146508225Y-129307289D01*
X146662539Y-129361286D01*
X146662542Y-129361286D01*
X146662544Y-129361287D01*
X146824996Y-129379591D01*
X146825000Y-129379591D01*
X146825004Y-129379591D01*
X146987455Y-129361287D01*
X146987456Y-129361286D01*
X146987461Y-129361286D01*
X147092838Y-129324412D01*
X147162613Y-129320850D01*
X147223241Y-129355579D01*
X147238784Y-129375482D01*
X147305251Y-129481263D01*
X147420855Y-129596867D01*
X147559284Y-129683848D01*
X147713598Y-129737845D01*
X147713601Y-129737845D01*
X147713603Y-129737846D01*
X147876055Y-129756150D01*
X147876059Y-129756150D01*
X147876063Y-129756150D01*
X148038514Y-129737846D01*
X148038515Y-129737845D01*
X148038520Y-129737845D01*
X148192834Y-129683848D01*
X148331263Y-129596867D01*
X148446867Y-129481263D01*
X148533848Y-129342834D01*
X148587845Y-129188520D01*
X148587846Y-129188514D01*
X148606150Y-129026062D01*
X148606150Y-129026055D01*
X148587846Y-128863603D01*
X148587845Y-128863601D01*
X148587845Y-128863598D01*
X148533848Y-128709284D01*
X148446867Y-128570855D01*
X148331263Y-128455251D01*
X148245345Y-128401265D01*
X148192833Y-128368269D01*
X148038514Y-128314271D01*
X147876063Y-128295968D01*
X147876055Y-128295968D01*
X147713602Y-128314271D01*
X147608221Y-128351145D01*
X147538443Y-128354706D01*
X147477816Y-128319977D01*
X147462275Y-128300076D01*
X147395809Y-128194297D01*
X147280204Y-128078692D01*
X147141774Y-127991710D01*
X146987455Y-127937712D01*
X146825004Y-127919409D01*
X146824996Y-127919409D01*
X146662544Y-127937712D01*
X146508225Y-127991710D01*
X146369795Y-128078692D01*
X146254192Y-128194295D01*
X146167210Y-128332725D01*
X146113212Y-128487044D01*
X146094909Y-128649496D01*
X128082575Y-128649496D01*
X128086786Y-128637461D01*
X128092420Y-128587461D01*
X128105091Y-128475003D01*
X128105091Y-128474996D01*
X128086787Y-128312544D01*
X128086786Y-128312542D01*
X128086786Y-128312539D01*
X128032789Y-128158225D01*
X127945808Y-128019796D01*
X127830204Y-127904192D01*
X127723193Y-127836952D01*
X127691774Y-127817210D01*
X127537455Y-127763212D01*
X127375004Y-127744909D01*
X127374996Y-127744909D01*
X127212544Y-127763212D01*
X127058223Y-127817211D01*
X127040470Y-127828366D01*
X126973233Y-127847365D01*
X126906398Y-127826996D01*
X126861185Y-127773727D01*
X126850500Y-127723371D01*
X126850500Y-126235919D01*
X126870185Y-126168880D01*
X126922989Y-126123125D01*
X126992147Y-126113181D01*
X127040472Y-126130925D01*
X127083225Y-126157789D01*
X127237539Y-126211786D01*
X127237542Y-126211786D01*
X127237544Y-126211787D01*
X127399996Y-126230091D01*
X127400000Y-126230091D01*
X127400004Y-126230091D01*
X127562455Y-126211787D01*
X127562456Y-126211786D01*
X127562461Y-126211786D01*
X127716775Y-126157789D01*
X127855204Y-126070808D01*
X127901016Y-126024996D01*
X129869909Y-126024996D01*
X129869909Y-126025003D01*
X129888212Y-126187455D01*
X129942210Y-126341774D01*
X129942211Y-126341775D01*
X130029192Y-126480204D01*
X130144796Y-126595808D01*
X130283225Y-126682789D01*
X130437539Y-126736786D01*
X130437542Y-126736786D01*
X130437544Y-126736787D01*
X130599996Y-126755091D01*
X130600000Y-126755091D01*
X130600004Y-126755091D01*
X130762455Y-126736787D01*
X130762456Y-126736786D01*
X130762461Y-126736786D01*
X130916775Y-126682789D01*
X131055204Y-126595808D01*
X131170808Y-126480204D01*
X131257789Y-126341775D01*
X131311786Y-126187461D01*
X131313880Y-126168880D01*
X131330091Y-126025003D01*
X131330091Y-126024996D01*
X131311787Y-125862544D01*
X131311786Y-125862542D01*
X131311786Y-125862539D01*
X131257789Y-125708225D01*
X131170808Y-125569796D01*
X131055204Y-125454192D01*
X130916774Y-125367210D01*
X130762455Y-125313212D01*
X130600004Y-125294909D01*
X130599996Y-125294909D01*
X130437544Y-125313212D01*
X130283225Y-125367210D01*
X130144795Y-125454192D01*
X130029192Y-125569795D01*
X129942210Y-125708225D01*
X129888212Y-125862544D01*
X129869909Y-126024996D01*
X127901016Y-126024996D01*
X127970808Y-125955204D01*
X128057789Y-125816775D01*
X128111786Y-125662461D01*
X128130091Y-125500000D01*
X128115129Y-125367211D01*
X128111787Y-125337544D01*
X128111786Y-125337542D01*
X128111786Y-125337539D01*
X128057789Y-125183225D01*
X127970808Y-125044796D01*
X127855204Y-124929192D01*
X127800462Y-124894795D01*
X127716774Y-124842210D01*
X127562455Y-124788212D01*
X127400004Y-124769909D01*
X127399996Y-124769909D01*
X127237544Y-124788212D01*
X127083224Y-124842210D01*
X127040472Y-124869074D01*
X126973235Y-124888074D01*
X126906400Y-124867706D01*
X126861186Y-124814438D01*
X126850500Y-124764080D01*
X126850500Y-123732839D01*
X132102752Y-123732839D01*
X132102752Y-123732846D01*
X132121055Y-123895298D01*
X132175053Y-124049617D01*
X132210474Y-124105989D01*
X132262035Y-124188047D01*
X132377639Y-124303651D01*
X132516068Y-124390632D01*
X132670382Y-124444629D01*
X132675433Y-124445198D01*
X132739849Y-124472260D01*
X132779408Y-124529852D01*
X132781550Y-124599689D01*
X132745596Y-124659598D01*
X132702516Y-124685459D01*
X132683228Y-124692208D01*
X132544795Y-124779192D01*
X132429192Y-124894795D01*
X132342210Y-125033225D01*
X132288212Y-125187544D01*
X132269909Y-125349996D01*
X132269909Y-125350003D01*
X132288212Y-125512455D01*
X132342210Y-125666774D01*
X132342211Y-125666775D01*
X132429192Y-125805204D01*
X132544796Y-125920808D01*
X132683225Y-126007789D01*
X132837539Y-126061786D01*
X132837542Y-126061786D01*
X132837544Y-126061787D01*
X132999996Y-126080091D01*
X133000000Y-126080091D01*
X133000004Y-126080091D01*
X133162455Y-126061787D01*
X133162456Y-126061786D01*
X133162461Y-126061786D01*
X133316775Y-126007789D01*
X133455204Y-125920808D01*
X133570808Y-125805204D01*
X133657789Y-125666775D01*
X133711786Y-125512461D01*
X133713190Y-125500000D01*
X133730091Y-125350003D01*
X133730091Y-125349996D01*
X133711787Y-125187544D01*
X133711786Y-125187542D01*
X133711786Y-125187539D01*
X133657789Y-125033225D01*
X133570808Y-124894796D01*
X133455204Y-124779192D01*
X133440430Y-124769909D01*
X133316774Y-124692210D01*
X133162455Y-124638212D01*
X133157400Y-124637643D01*
X133092986Y-124610576D01*
X133053431Y-124552981D01*
X133051294Y-124483144D01*
X133087253Y-124423238D01*
X133130331Y-124397381D01*
X133133961Y-124396110D01*
X133149618Y-124390632D01*
X133288047Y-124303651D01*
X133403651Y-124188047D01*
X133490632Y-124049618D01*
X133544629Y-123895304D01*
X133544630Y-123895298D01*
X133562934Y-123732846D01*
X133562934Y-123732839D01*
X133544630Y-123570387D01*
X133544629Y-123570385D01*
X133544629Y-123570382D01*
X133490632Y-123416068D01*
X133403651Y-123277639D01*
X133288047Y-123162035D01*
X133248841Y-123137400D01*
X133149617Y-123075053D01*
X132995298Y-123021055D01*
X132832847Y-123002752D01*
X132832839Y-123002752D01*
X132670387Y-123021055D01*
X132516068Y-123075053D01*
X132377638Y-123162035D01*
X132262035Y-123277638D01*
X132175053Y-123416068D01*
X132121055Y-123570387D01*
X132102752Y-123732839D01*
X126850500Y-123732839D01*
X126850500Y-122924996D01*
X140044909Y-122924996D01*
X140044909Y-122925003D01*
X140063212Y-123087455D01*
X140117210Y-123241774D01*
X140139745Y-123277638D01*
X140204192Y-123380204D01*
X140319796Y-123495808D01*
X140458225Y-123582789D01*
X140612539Y-123636786D01*
X140612542Y-123636786D01*
X140612544Y-123636787D01*
X140774997Y-123655091D01*
X140774999Y-123655091D01*
X140774999Y-123655090D01*
X140775000Y-123655091D01*
X140830086Y-123648883D01*
X140898905Y-123660936D01*
X140909937Y-123667106D01*
X140924003Y-123675945D01*
X141078317Y-123729942D01*
X141078320Y-123729943D01*
X141240774Y-123748247D01*
X141240778Y-123748247D01*
X141240782Y-123748247D01*
X141403233Y-123729943D01*
X141403234Y-123729942D01*
X141403239Y-123729942D01*
X141557553Y-123675945D01*
X141695982Y-123588964D01*
X141811586Y-123473360D01*
X141898567Y-123334931D01*
X141952564Y-123180617D01*
X141957433Y-123137403D01*
X141957434Y-123137396D01*
X148069909Y-123137396D01*
X148069909Y-123137403D01*
X148088212Y-123299855D01*
X148142210Y-123454174D01*
X148206609Y-123556664D01*
X148229192Y-123592604D01*
X148344796Y-123708208D01*
X148483225Y-123795189D01*
X148637539Y-123849186D01*
X148682104Y-123854207D01*
X148746516Y-123881272D01*
X148755901Y-123889746D01*
X148831166Y-123965011D01*
X148969595Y-124051992D01*
X149123909Y-124105989D01*
X149123912Y-124105989D01*
X149123914Y-124105990D01*
X149286366Y-124124294D01*
X149286370Y-124124294D01*
X149286374Y-124124294D01*
X149448825Y-124105990D01*
X149448826Y-124105989D01*
X149448831Y-124105989D01*
X149603145Y-124051992D01*
X149741574Y-123965011D01*
X149857178Y-123849407D01*
X149944159Y-123710978D01*
X149998156Y-123556664D01*
X150011588Y-123437455D01*
X150016461Y-123394206D01*
X150016461Y-123394199D01*
X149998157Y-123231747D01*
X149998156Y-123231745D01*
X149998156Y-123231742D01*
X149944159Y-123077428D01*
X149857178Y-122938999D01*
X149741574Y-122823395D01*
X149644723Y-122762539D01*
X149603144Y-122736413D01*
X149448825Y-122682415D01*
X149404262Y-122677394D01*
X149339849Y-122650326D01*
X149330467Y-122641855D01*
X149255204Y-122566592D01*
X149116774Y-122479610D01*
X148962455Y-122425612D01*
X148800004Y-122407309D01*
X148799996Y-122407309D01*
X148637544Y-122425612D01*
X148483225Y-122479610D01*
X148344795Y-122566592D01*
X148229192Y-122682195D01*
X148142210Y-122820625D01*
X148088212Y-122974944D01*
X148069909Y-123137396D01*
X141957434Y-123137396D01*
X141970869Y-123018159D01*
X141970869Y-123018152D01*
X141952565Y-122855700D01*
X141952564Y-122855698D01*
X141952564Y-122855695D01*
X141898567Y-122701381D01*
X141811586Y-122562952D01*
X141695982Y-122447348D01*
X141661393Y-122425614D01*
X141557552Y-122360366D01*
X141403233Y-122306368D01*
X141240782Y-122288065D01*
X141240773Y-122288065D01*
X141185688Y-122294271D01*
X141116867Y-122282216D01*
X141105836Y-122276046D01*
X141091773Y-122267210D01*
X140937457Y-122213212D01*
X140775004Y-122194909D01*
X140774996Y-122194909D01*
X140612544Y-122213212D01*
X140458225Y-122267210D01*
X140319795Y-122354192D01*
X140204192Y-122469795D01*
X140117210Y-122608225D01*
X140063212Y-122762544D01*
X140044909Y-122924996D01*
X126850500Y-122924996D01*
X126850500Y-121453571D01*
X126870185Y-121386532D01*
X126922989Y-121340777D01*
X126992147Y-121330833D01*
X127021955Y-121339011D01*
X127058309Y-121354070D01*
X127058318Y-121354072D01*
X127251504Y-121392499D01*
X127251508Y-121392500D01*
X127500000Y-121392500D01*
X127500000Y-120692500D01*
X128000000Y-120692500D01*
X128000000Y-121392500D01*
X128248492Y-121392500D01*
X128248495Y-121392499D01*
X128441681Y-121354072D01*
X128441693Y-121354069D01*
X128623671Y-121278692D01*
X128623684Y-121278685D01*
X128787462Y-121169251D01*
X128787466Y-121169248D01*
X128926748Y-121029966D01*
X128926751Y-121029962D01*
X129036185Y-120866184D01*
X129036192Y-120866171D01*
X129111569Y-120684193D01*
X129111570Y-120684189D01*
X129127837Y-120602410D01*
X129160222Y-120540498D01*
X129220938Y-120505924D01*
X129290707Y-120509663D01*
X129315428Y-120521606D01*
X129333225Y-120532789D01*
X129487539Y-120586786D01*
X129487542Y-120586786D01*
X129487544Y-120586787D01*
X129649996Y-120605091D01*
X129650000Y-120605091D01*
X129650004Y-120605091D01*
X129812455Y-120586787D01*
X129812456Y-120586786D01*
X129812461Y-120586786D01*
X129966775Y-120532789D01*
X130105204Y-120445808D01*
X130220808Y-120330204D01*
X130302289Y-120200527D01*
X130354624Y-120154237D01*
X130407283Y-120142500D01*
X131213012Y-120142500D01*
X131195795Y-120152440D01*
X131139940Y-120208295D01*
X131100444Y-120276704D01*
X131080000Y-120353004D01*
X131080000Y-120431996D01*
X131100444Y-120508296D01*
X131139940Y-120576705D01*
X131195795Y-120632560D01*
X131213012Y-120642500D01*
X130410138Y-120642500D01*
X130418430Y-120684190D01*
X130418430Y-120684192D01*
X130493807Y-120866171D01*
X130493814Y-120866184D01*
X130603247Y-121029961D01*
X130701065Y-121127778D01*
X130734550Y-121189101D01*
X130729566Y-121258793D01*
X130718378Y-121281432D01*
X130675053Y-121350382D01*
X130621055Y-121504701D01*
X130602752Y-121667153D01*
X130602752Y-121667160D01*
X130621055Y-121829612D01*
X130675053Y-121983931D01*
X130729641Y-122070807D01*
X130762035Y-122122361D01*
X130877639Y-122237965D01*
X131016068Y-122324946D01*
X131170382Y-122378943D01*
X131170385Y-122378943D01*
X131170387Y-122378944D01*
X131332839Y-122397248D01*
X131332843Y-122397248D01*
X131332847Y-122397248D01*
X131495298Y-122378944D01*
X131495299Y-122378943D01*
X131495304Y-122378943D01*
X131649618Y-122324946D01*
X131788047Y-122237965D01*
X131876016Y-122149996D01*
X134244909Y-122149996D01*
X134244909Y-122150003D01*
X134263212Y-122312455D01*
X134317210Y-122466774D01*
X134377808Y-122563214D01*
X134404192Y-122605204D01*
X134519796Y-122720808D01*
X134658225Y-122807789D01*
X134812539Y-122861786D01*
X134812542Y-122861786D01*
X134812544Y-122861787D01*
X134974996Y-122880091D01*
X134975000Y-122880091D01*
X134975004Y-122880091D01*
X135137455Y-122861787D01*
X135137456Y-122861786D01*
X135137461Y-122861786D01*
X135291775Y-122807789D01*
X135430204Y-122720808D01*
X135545808Y-122605204D01*
X135632789Y-122466775D01*
X135686786Y-122312461D01*
X135686787Y-122312455D01*
X135705091Y-122150003D01*
X135705091Y-122149996D01*
X135686787Y-121987544D01*
X135686786Y-121987542D01*
X135686786Y-121987539D01*
X135632789Y-121833225D01*
X135545808Y-121694796D01*
X135430204Y-121579192D01*
X135304165Y-121499996D01*
X141989907Y-121499996D01*
X141989907Y-121500003D01*
X142008210Y-121662455D01*
X142062208Y-121816774D01*
X142072545Y-121833225D01*
X142149190Y-121955204D01*
X142264794Y-122070808D01*
X142403223Y-122157789D01*
X142557537Y-122211786D01*
X142557540Y-122211786D01*
X142557542Y-122211787D01*
X142719994Y-122230091D01*
X142719998Y-122230091D01*
X142720002Y-122230091D01*
X142882453Y-122211787D01*
X142882454Y-122211786D01*
X142882459Y-122211786D01*
X143036773Y-122157789D01*
X143175202Y-122070808D01*
X143271014Y-121974996D01*
X155494909Y-121974996D01*
X155494909Y-121975003D01*
X155513212Y-122137455D01*
X155567210Y-122291774D01*
X155580205Y-122312455D01*
X155654192Y-122430204D01*
X155769796Y-122545808D01*
X155908225Y-122632789D01*
X156062539Y-122686786D01*
X156062542Y-122686786D01*
X156062544Y-122686787D01*
X156224996Y-122705091D01*
X156225000Y-122705091D01*
X156225004Y-122705091D01*
X156387455Y-122686787D01*
X156387456Y-122686786D01*
X156387461Y-122686786D01*
X156541775Y-122632789D01*
X156680204Y-122545808D01*
X156795808Y-122430204D01*
X156882789Y-122291775D01*
X156936786Y-122137461D01*
X156936787Y-122137455D01*
X156955091Y-121975003D01*
X156955091Y-121974996D01*
X156936787Y-121812544D01*
X156936786Y-121812542D01*
X156936786Y-121812539D01*
X156882789Y-121658225D01*
X156795808Y-121519796D01*
X156680204Y-121404192D01*
X156652098Y-121386532D01*
X156541774Y-121317210D01*
X156387455Y-121263212D01*
X156225004Y-121244909D01*
X156224996Y-121244909D01*
X156062544Y-121263212D01*
X155908225Y-121317210D01*
X155769795Y-121404192D01*
X155654192Y-121519795D01*
X155567210Y-121658225D01*
X155513212Y-121812544D01*
X155494909Y-121974996D01*
X143271014Y-121974996D01*
X143290806Y-121955204D01*
X143375227Y-121820849D01*
X143427561Y-121774559D01*
X143466338Y-121763602D01*
X143482459Y-121761786D01*
X143482463Y-121761784D01*
X143482466Y-121761784D01*
X143636770Y-121707790D01*
X143636769Y-121707790D01*
X143636773Y-121707789D01*
X143775202Y-121620808D01*
X143890806Y-121505204D01*
X143977787Y-121366775D01*
X144031784Y-121212461D01*
X144031785Y-121212455D01*
X144050089Y-121050003D01*
X144050089Y-121049996D01*
X144047272Y-121024996D01*
X153494909Y-121024996D01*
X153494909Y-121025003D01*
X153513212Y-121187455D01*
X153567210Y-121341774D01*
X153627808Y-121438214D01*
X153654192Y-121480204D01*
X153769796Y-121595808D01*
X153908225Y-121682789D01*
X154062539Y-121736786D01*
X154062542Y-121736786D01*
X154062544Y-121736787D01*
X154224996Y-121755091D01*
X154225000Y-121755091D01*
X154225004Y-121755091D01*
X154387455Y-121736787D01*
X154387456Y-121736786D01*
X154387461Y-121736786D01*
X154541775Y-121682789D01*
X154680204Y-121595808D01*
X154795808Y-121480204D01*
X154882789Y-121341775D01*
X154936786Y-121187461D01*
X154936787Y-121187455D01*
X154955091Y-121025003D01*
X154955091Y-121024996D01*
X154936787Y-120862544D01*
X154936786Y-120862542D01*
X154936786Y-120862539D01*
X154882789Y-120708225D01*
X154795808Y-120569796D01*
X154680204Y-120454192D01*
X154666859Y-120445807D01*
X154541774Y-120367210D01*
X154387455Y-120313212D01*
X154225004Y-120294909D01*
X154224996Y-120294909D01*
X154062544Y-120313212D01*
X153908225Y-120367210D01*
X153769795Y-120454192D01*
X153654192Y-120569795D01*
X153567210Y-120708225D01*
X153513212Y-120862544D01*
X153494909Y-121024996D01*
X144047272Y-121024996D01*
X144031785Y-120887544D01*
X144031784Y-120887542D01*
X144031784Y-120887539D01*
X143977787Y-120733225D01*
X143890806Y-120594796D01*
X143826027Y-120530017D01*
X143792542Y-120468694D01*
X143797526Y-120399002D01*
X143839398Y-120343069D01*
X143904862Y-120318652D01*
X143927592Y-120319116D01*
X144024997Y-120330091D01*
X144025000Y-120330091D01*
X144025004Y-120330091D01*
X144187455Y-120311787D01*
X144187456Y-120311786D01*
X144187461Y-120311786D01*
X144341775Y-120257789D01*
X144480204Y-120170808D01*
X144595808Y-120055204D01*
X144682789Y-119916775D01*
X144682788Y-119916775D01*
X144686494Y-119910879D01*
X144688688Y-119912257D01*
X144727521Y-119869236D01*
X144794945Y-119850913D01*
X144833387Y-119857846D01*
X144878851Y-119873754D01*
X144987539Y-119911786D01*
X144987542Y-119911786D01*
X144987544Y-119911787D01*
X145149996Y-119930091D01*
X145150000Y-119930091D01*
X145150004Y-119930091D01*
X145312455Y-119911787D01*
X145312456Y-119911786D01*
X145312461Y-119911786D01*
X145466775Y-119857789D01*
X145605204Y-119770808D01*
X145720808Y-119655204D01*
X145807789Y-119516775D01*
X145848652Y-119399996D01*
X151994909Y-119399996D01*
X151994909Y-119400003D01*
X152013212Y-119562455D01*
X152067210Y-119716774D01*
X152101162Y-119770808D01*
X152154192Y-119855204D01*
X152269796Y-119970808D01*
X152408225Y-120057789D01*
X152562539Y-120111786D01*
X152562542Y-120111786D01*
X152562544Y-120111787D01*
X152724996Y-120130091D01*
X152725000Y-120130091D01*
X152725004Y-120130091D01*
X152887455Y-120111787D01*
X152887456Y-120111786D01*
X152887461Y-120111786D01*
X153041775Y-120057789D01*
X153180204Y-119970808D01*
X153295808Y-119855204D01*
X153382789Y-119716775D01*
X153436786Y-119562461D01*
X153437263Y-119558227D01*
X153455091Y-119400003D01*
X153455091Y-119399996D01*
X153436787Y-119237544D01*
X153436786Y-119237542D01*
X153436786Y-119237539D01*
X153382789Y-119083225D01*
X153295808Y-118944796D01*
X153180204Y-118829192D01*
X153179427Y-118828704D01*
X153041774Y-118742210D01*
X152887455Y-118688212D01*
X152725004Y-118669909D01*
X152724996Y-118669909D01*
X152562544Y-118688212D01*
X152408225Y-118742210D01*
X152269795Y-118829192D01*
X152154192Y-118944795D01*
X152067210Y-119083225D01*
X152013212Y-119237544D01*
X151994909Y-119399996D01*
X145848652Y-119399996D01*
X145861786Y-119362461D01*
X145861787Y-119362455D01*
X145880091Y-119200003D01*
X145880091Y-119199996D01*
X145861787Y-119037544D01*
X145861786Y-119037542D01*
X145861786Y-119037539D01*
X145807789Y-118883225D01*
X145720808Y-118744796D01*
X145605204Y-118629192D01*
X145530105Y-118582004D01*
X145466774Y-118542210D01*
X145312455Y-118488212D01*
X145150004Y-118469909D01*
X145149996Y-118469909D01*
X144987544Y-118488212D01*
X144833225Y-118542210D01*
X144694795Y-118629192D01*
X144579192Y-118744795D01*
X144488506Y-118889121D01*
X144486323Y-118887749D01*
X144447413Y-118930803D01*
X144379978Y-118949084D01*
X144341612Y-118942153D01*
X144201882Y-118893260D01*
X144187461Y-118888214D01*
X144187460Y-118888213D01*
X144187455Y-118888212D01*
X144025004Y-118869909D01*
X144024996Y-118869909D01*
X143862544Y-118888212D01*
X143708223Y-118942211D01*
X143699674Y-118947583D01*
X143632437Y-118966582D01*
X143565602Y-118946213D01*
X143520389Y-118892944D01*
X143510484Y-118828704D01*
X143514331Y-118794560D01*
X143514331Y-118794554D01*
X143496027Y-118632102D01*
X143496026Y-118632100D01*
X143496026Y-118632097D01*
X143442029Y-118477783D01*
X143355048Y-118339354D01*
X143239444Y-118223750D01*
X143201513Y-118199916D01*
X143101014Y-118136768D01*
X142946695Y-118082770D01*
X142784244Y-118064467D01*
X142784236Y-118064467D01*
X142621784Y-118082770D01*
X142467465Y-118136768D01*
X142329035Y-118223750D01*
X142213432Y-118339353D01*
X142126450Y-118477783D01*
X142072452Y-118632102D01*
X142054149Y-118794554D01*
X142054149Y-118794561D01*
X142072452Y-118957013D01*
X142126450Y-119111332D01*
X142126451Y-119111333D01*
X142213432Y-119249762D01*
X142329036Y-119365366D01*
X142467465Y-119452347D01*
X142621779Y-119506344D01*
X142621782Y-119506344D01*
X142621784Y-119506345D01*
X142784236Y-119524649D01*
X142784240Y-119524649D01*
X142784244Y-119524649D01*
X142946695Y-119506345D01*
X142946696Y-119506344D01*
X142946701Y-119506344D01*
X143101015Y-119452347D01*
X143109558Y-119446978D01*
X143176792Y-119427975D01*
X143243629Y-119448339D01*
X143288846Y-119501604D01*
X143298756Y-119565849D01*
X143294909Y-119600000D01*
X143294909Y-119600003D01*
X143313212Y-119762455D01*
X143367210Y-119916774D01*
X143454192Y-120055204D01*
X143518970Y-120119982D01*
X143552455Y-120181305D01*
X143547471Y-120250997D01*
X143505599Y-120306930D01*
X143440135Y-120331347D01*
X143417406Y-120330883D01*
X143320002Y-120319909D01*
X143319994Y-120319909D01*
X143157542Y-120338212D01*
X143003223Y-120392210D01*
X142864793Y-120479192D01*
X142749190Y-120594795D01*
X142664771Y-120729148D01*
X142612436Y-120775439D01*
X142573664Y-120786396D01*
X142557541Y-120788212D01*
X142403223Y-120842210D01*
X142264793Y-120929192D01*
X142149190Y-121044795D01*
X142062208Y-121183225D01*
X142008210Y-121337544D01*
X141989907Y-121499996D01*
X135304165Y-121499996D01*
X135291774Y-121492210D01*
X135137455Y-121438212D01*
X134975004Y-121419909D01*
X134974996Y-121419909D01*
X134812544Y-121438212D01*
X134658225Y-121492210D01*
X134519795Y-121579192D01*
X134404192Y-121694795D01*
X134317210Y-121833225D01*
X134263212Y-121987544D01*
X134244909Y-122149996D01*
X131876016Y-122149996D01*
X131903651Y-122122361D01*
X131990632Y-121983932D01*
X132044629Y-121829618D01*
X132046553Y-121812544D01*
X132062934Y-121667160D01*
X132062934Y-121667153D01*
X132047524Y-121530383D01*
X132059579Y-121461561D01*
X132106928Y-121410182D01*
X132170744Y-121392500D01*
X132578492Y-121392500D01*
X132578495Y-121392499D01*
X132771681Y-121354072D01*
X132771693Y-121354069D01*
X132953671Y-121278692D01*
X132953684Y-121278685D01*
X133117462Y-121169251D01*
X133117466Y-121169248D01*
X133256748Y-121029966D01*
X133256751Y-121029962D01*
X133366185Y-120866184D01*
X133366192Y-120866171D01*
X133441569Y-120684192D01*
X133441569Y-120684190D01*
X133449862Y-120642500D01*
X132646988Y-120642500D01*
X132664205Y-120632560D01*
X132720060Y-120576705D01*
X132759556Y-120508296D01*
X132780000Y-120431996D01*
X132780000Y-120353004D01*
X132759556Y-120276704D01*
X132720060Y-120208295D01*
X132664205Y-120152440D01*
X132646988Y-120142500D01*
X133449862Y-120142500D01*
X133441569Y-120100809D01*
X133441569Y-120100807D01*
X133366192Y-119918828D01*
X133366185Y-119918815D01*
X133256751Y-119755037D01*
X133256748Y-119755033D01*
X133117466Y-119615751D01*
X133117462Y-119615748D01*
X132953684Y-119506314D01*
X132953671Y-119506307D01*
X132771693Y-119430930D01*
X132771681Y-119430927D01*
X132578495Y-119392500D01*
X132180000Y-119392500D01*
X132180000Y-120092500D01*
X131680000Y-120092500D01*
X131680000Y-119436321D01*
X131699685Y-119369282D01*
X131716319Y-119348640D01*
X131760767Y-119304192D01*
X131810495Y-119254464D01*
X131873095Y-119146036D01*
X131905500Y-119025101D01*
X131905500Y-118899899D01*
X131873095Y-118778964D01*
X131810495Y-118670536D01*
X131721964Y-118582005D01*
X131613536Y-118519405D01*
X131613537Y-118519405D01*
X131573224Y-118508603D01*
X131492601Y-118487000D01*
X131367399Y-118487000D01*
X131286775Y-118508603D01*
X131246463Y-118519405D01*
X131138037Y-118582004D01*
X131138034Y-118582006D01*
X131049506Y-118670534D01*
X131049504Y-118670537D01*
X130986905Y-118778963D01*
X130982726Y-118794560D01*
X130954500Y-118899899D01*
X130954500Y-119025101D01*
X130986905Y-119146036D01*
X131039736Y-119237544D01*
X131049504Y-119254462D01*
X131049506Y-119254465D01*
X131054426Y-119259385D01*
X131087911Y-119320708D01*
X131082927Y-119390400D01*
X131041055Y-119446333D01*
X131014198Y-119461627D01*
X130906325Y-119506309D01*
X130906315Y-119506314D01*
X130742537Y-119615748D01*
X130742533Y-119615751D01*
X130603251Y-119755033D01*
X130603244Y-119755042D01*
X130589085Y-119776232D01*
X130535472Y-119821036D01*
X130466147Y-119829742D01*
X130403120Y-119799586D01*
X130366402Y-119740142D01*
X130362765Y-119721221D01*
X130361787Y-119712545D01*
X130361786Y-119712543D01*
X130361786Y-119712539D01*
X130307789Y-119558225D01*
X130220808Y-119419796D01*
X130105204Y-119304192D01*
X130071835Y-119283225D01*
X129966774Y-119217210D01*
X129812455Y-119163212D01*
X129650004Y-119144909D01*
X129649996Y-119144909D01*
X129487544Y-119163212D01*
X129333225Y-119217210D01*
X129194795Y-119304192D01*
X129079192Y-119419795D01*
X128992208Y-119558227D01*
X128989402Y-119566248D01*
X128948676Y-119623022D01*
X128883722Y-119648765D01*
X128815161Y-119635304D01*
X128792765Y-119618891D01*
X128792173Y-119619614D01*
X128787462Y-119615748D01*
X128623684Y-119506314D01*
X128623671Y-119506307D01*
X128441693Y-119430930D01*
X128441681Y-119430927D01*
X128248495Y-119392500D01*
X128000000Y-119392500D01*
X128000000Y-120092500D01*
X127500000Y-120092500D01*
X127500000Y-119392500D01*
X127251504Y-119392500D01*
X127058318Y-119430927D01*
X127058306Y-119430930D01*
X127021952Y-119445989D01*
X126952483Y-119453458D01*
X126890004Y-119422183D01*
X126854352Y-119362094D01*
X126850500Y-119331428D01*
X126850500Y-115764303D01*
X136959216Y-115764303D01*
X136959216Y-115764310D01*
X136977519Y-115926762D01*
X136977520Y-115926767D01*
X136977521Y-115926768D01*
X136981525Y-115938212D01*
X137031517Y-116081081D01*
X137064008Y-116132789D01*
X137118499Y-116219511D01*
X137234103Y-116335115D01*
X137372532Y-116422096D01*
X137526846Y-116476093D01*
X137526849Y-116476093D01*
X137526851Y-116476094D01*
X137689303Y-116494398D01*
X137689305Y-116494398D01*
X137689305Y-116494397D01*
X137689307Y-116494398D01*
X137701924Y-116492976D01*
X137770746Y-116505029D01*
X137822126Y-116552377D01*
X137832851Y-116575239D01*
X137863627Y-116663191D01*
X137950608Y-116801620D01*
X138066212Y-116917224D01*
X138204641Y-117004205D01*
X138358955Y-117058202D01*
X138358958Y-117058202D01*
X138358960Y-117058203D01*
X138521412Y-117076507D01*
X138521414Y-117076507D01*
X138521414Y-117076506D01*
X138521416Y-117076507D01*
X138555614Y-117072653D01*
X138624433Y-117084706D01*
X138657179Y-117108191D01*
X138769796Y-117220808D01*
X138908225Y-117307789D01*
X139062539Y-117361786D01*
X139062542Y-117361786D01*
X139062544Y-117361787D01*
X139224996Y-117380091D01*
X139225000Y-117380091D01*
X139225004Y-117380091D01*
X139387455Y-117361787D01*
X139387456Y-117361786D01*
X139387461Y-117361786D01*
X139541775Y-117307789D01*
X139680204Y-117220808D01*
X139795808Y-117105204D01*
X139882789Y-116966775D01*
X139936786Y-116812461D01*
X139938008Y-116801620D01*
X139944472Y-116744246D01*
X139971538Y-116679832D01*
X140029132Y-116640276D01*
X140098969Y-116638137D01*
X140108643Y-116641085D01*
X140145381Y-116653941D01*
X140145384Y-116653942D01*
X140307838Y-116672246D01*
X140307842Y-116672246D01*
X140307846Y-116672246D01*
X140470297Y-116653942D01*
X140470298Y-116653941D01*
X140470303Y-116653941D01*
X140624617Y-116599944D01*
X140763046Y-116512963D01*
X140831053Y-116444956D01*
X143409263Y-116444956D01*
X143409263Y-116444963D01*
X143427566Y-116607415D01*
X143481564Y-116761734D01*
X143568546Y-116900164D01*
X143684150Y-117015768D01*
X143822579Y-117102749D01*
X143976893Y-117156746D01*
X143976896Y-117156746D01*
X143976898Y-117156747D01*
X144139350Y-117175051D01*
X144139354Y-117175051D01*
X144139358Y-117175051D01*
X144301809Y-117156747D01*
X144301810Y-117156746D01*
X144301815Y-117156746D01*
X144456129Y-117102749D01*
X144594558Y-117015768D01*
X144710162Y-116900164D01*
X144797143Y-116761735D01*
X144851140Y-116607421D01*
X144851402Y-116605096D01*
X144869445Y-116444963D01*
X144869445Y-116444956D01*
X144851141Y-116282504D01*
X144851140Y-116282502D01*
X144851140Y-116282499D01*
X144797143Y-116128185D01*
X144710162Y-115989756D01*
X144594558Y-115874152D01*
X144515469Y-115824457D01*
X144456128Y-115787170D01*
X144301809Y-115733172D01*
X144139358Y-115714869D01*
X144139350Y-115714869D01*
X143976898Y-115733172D01*
X143822579Y-115787170D01*
X143684149Y-115874152D01*
X143568546Y-115989755D01*
X143481564Y-116128185D01*
X143427566Y-116282504D01*
X143409263Y-116444956D01*
X140831053Y-116444956D01*
X140878650Y-116397359D01*
X140965631Y-116258930D01*
X141019628Y-116104616D01*
X141019948Y-116101775D01*
X141037933Y-115942158D01*
X141037933Y-115942151D01*
X141019629Y-115779699D01*
X141019628Y-115779697D01*
X141019628Y-115779694D01*
X140965631Y-115625380D01*
X140878650Y-115486951D01*
X140763046Y-115371347D01*
X140696917Y-115329795D01*
X140689279Y-115324996D01*
X145294909Y-115324996D01*
X145294909Y-115325003D01*
X145313212Y-115487455D01*
X145367210Y-115641774D01*
X145396650Y-115688627D01*
X145454192Y-115780204D01*
X145569796Y-115895808D01*
X145708225Y-115982789D01*
X145862539Y-116036786D01*
X145862543Y-116036786D01*
X145862545Y-116036787D01*
X145944706Y-116046044D01*
X146009121Y-116073110D01*
X146048676Y-116130704D01*
X146050815Y-116200541D01*
X146031923Y-116238288D01*
X146032897Y-116238900D01*
X145942210Y-116383225D01*
X145888212Y-116537544D01*
X145869909Y-116699996D01*
X145869909Y-116700003D01*
X145888212Y-116862455D01*
X145942210Y-117016774D01*
X145996232Y-117102749D01*
X146029192Y-117155204D01*
X146144796Y-117270808D01*
X146283225Y-117357789D01*
X146437539Y-117411786D01*
X146437542Y-117411786D01*
X146437544Y-117411787D01*
X146599996Y-117430091D01*
X146600000Y-117430091D01*
X146600004Y-117430091D01*
X146762453Y-117411787D01*
X146762453Y-117411786D01*
X146762461Y-117411786D01*
X146834012Y-117386748D01*
X146903789Y-117383188D01*
X146964417Y-117417917D01*
X146996644Y-117479910D01*
X146990239Y-117549486D01*
X146979960Y-117569761D01*
X146971501Y-117583223D01*
X146917502Y-117737544D01*
X146899199Y-117899996D01*
X146899199Y-117900003D01*
X146917502Y-118062455D01*
X146971500Y-118216774D01*
X147048522Y-118339353D01*
X147058482Y-118355204D01*
X147174086Y-118470808D01*
X147312515Y-118557789D01*
X147466829Y-118611786D01*
X147466832Y-118611786D01*
X147466834Y-118611787D01*
X147629286Y-118630091D01*
X147629290Y-118630091D01*
X147629294Y-118630091D01*
X147791745Y-118611787D01*
X147791746Y-118611786D01*
X147791751Y-118611786D01*
X147946065Y-118557789D01*
X148084494Y-118470808D01*
X148200098Y-118355204D01*
X148287079Y-118216775D01*
X148341076Y-118062461D01*
X148341077Y-118062455D01*
X148359381Y-117900003D01*
X148359381Y-117899996D01*
X148341077Y-117737544D01*
X148341076Y-117737542D01*
X148341076Y-117737539D01*
X148287079Y-117583225D01*
X148200098Y-117444796D01*
X148084494Y-117329192D01*
X147946064Y-117242210D01*
X147791745Y-117188212D01*
X147629294Y-117169909D01*
X147629286Y-117169909D01*
X147466833Y-117188212D01*
X147395277Y-117213250D01*
X147325498Y-117216811D01*
X147264871Y-117182081D01*
X147232645Y-117120087D01*
X147239051Y-117050512D01*
X147249328Y-117030239D01*
X147257789Y-117016775D01*
X147311786Y-116862461D01*
X147317420Y-116812461D01*
X147330091Y-116700003D01*
X147330091Y-116699996D01*
X147311787Y-116537544D01*
X147311786Y-116537542D01*
X147311786Y-116537539D01*
X147257789Y-116383225D01*
X147170808Y-116244796D01*
X147055204Y-116129192D01*
X146978636Y-116081081D01*
X146916774Y-116042210D01*
X146762455Y-115988212D01*
X146680291Y-115978955D01*
X146615877Y-115951889D01*
X146576322Y-115894294D01*
X146574185Y-115824457D01*
X146593080Y-115786714D01*
X146592103Y-115786100D01*
X146592797Y-115784996D01*
X149269909Y-115784996D01*
X149269909Y-115785003D01*
X149288212Y-115947455D01*
X149288213Y-115947460D01*
X149288214Y-115947461D01*
X149290508Y-115954016D01*
X149342210Y-116101774D01*
X149359438Y-116129192D01*
X149429192Y-116240204D01*
X149544796Y-116355808D01*
X149683225Y-116442789D01*
X149837539Y-116496786D01*
X149837542Y-116496786D01*
X149837544Y-116496787D01*
X149999996Y-116515091D01*
X150000000Y-116515091D01*
X150000004Y-116515091D01*
X150162455Y-116496787D01*
X150162456Y-116496786D01*
X150162461Y-116496786D01*
X150316775Y-116442789D01*
X150455204Y-116355808D01*
X150570808Y-116240204D01*
X150657789Y-116101775D01*
X150711786Y-115947461D01*
X150712384Y-115942155D01*
X150730091Y-115785003D01*
X150730091Y-115784996D01*
X150711787Y-115622544D01*
X150711786Y-115622542D01*
X150711786Y-115622539D01*
X150660158Y-115474996D01*
X152144909Y-115474996D01*
X152144909Y-115475003D01*
X152163212Y-115637455D01*
X152217210Y-115791774D01*
X152292957Y-115912324D01*
X152304192Y-115930204D01*
X152419796Y-116045808D01*
X152558225Y-116132789D01*
X152712539Y-116186786D01*
X152712542Y-116186786D01*
X152712544Y-116186787D01*
X152874996Y-116205091D01*
X152875000Y-116205091D01*
X152875004Y-116205091D01*
X153037455Y-116186787D01*
X153037456Y-116186786D01*
X153037461Y-116186786D01*
X153191775Y-116132789D01*
X153330204Y-116045808D01*
X153445808Y-115930204D01*
X153532789Y-115791775D01*
X153564694Y-115700595D01*
X153605416Y-115643820D01*
X153670369Y-115618072D01*
X153695618Y-115618329D01*
X153733019Y-115622544D01*
X153799998Y-115630091D01*
X153800000Y-115630091D01*
X153800004Y-115630091D01*
X153962455Y-115611787D01*
X153962456Y-115611786D01*
X153962461Y-115611786D01*
X154116775Y-115557789D01*
X154255204Y-115470808D01*
X154370808Y-115355204D01*
X154457789Y-115216775D01*
X154511786Y-115062461D01*
X154512906Y-115052521D01*
X154530091Y-114900003D01*
X154530091Y-114899996D01*
X154511787Y-114737544D01*
X154511786Y-114737542D01*
X154511786Y-114737539D01*
X154457789Y-114583225D01*
X154370808Y-114444796D01*
X154255204Y-114329192D01*
X154116774Y-114242210D01*
X153962455Y-114188212D01*
X153800004Y-114169909D01*
X153799996Y-114169909D01*
X153637544Y-114188212D01*
X153483225Y-114242210D01*
X153344795Y-114329192D01*
X153229192Y-114444795D01*
X153142209Y-114583227D01*
X153110305Y-114674404D01*
X153069584Y-114731180D01*
X153004631Y-114756927D01*
X152979381Y-114756669D01*
X152875004Y-114744909D01*
X152874996Y-114744909D01*
X152712544Y-114763212D01*
X152558225Y-114817210D01*
X152419795Y-114904192D01*
X152304192Y-115019795D01*
X152217210Y-115158225D01*
X152163212Y-115312544D01*
X152144909Y-115474996D01*
X150660158Y-115474996D01*
X150657789Y-115468225D01*
X150570808Y-115329796D01*
X150455204Y-115214192D01*
X150436937Y-115202714D01*
X150316774Y-115127210D01*
X150162455Y-115073212D01*
X150000004Y-115054909D01*
X149999996Y-115054909D01*
X149837544Y-115073212D01*
X149683225Y-115127210D01*
X149544795Y-115214192D01*
X149429192Y-115329795D01*
X149342210Y-115468225D01*
X149288212Y-115622544D01*
X149269909Y-115784996D01*
X146592797Y-115784996D01*
X146605795Y-115764310D01*
X146682789Y-115641775D01*
X146736786Y-115487461D01*
X146736787Y-115487455D01*
X146755091Y-115325003D01*
X146755091Y-115324996D01*
X146736787Y-115162544D01*
X146736786Y-115162542D01*
X146736786Y-115162539D01*
X146682789Y-115008225D01*
X146595808Y-114869796D01*
X146480204Y-114754192D01*
X146353223Y-114674404D01*
X146341774Y-114667210D01*
X146187455Y-114613212D01*
X146025004Y-114594909D01*
X146024996Y-114594909D01*
X145862544Y-114613212D01*
X145708225Y-114667210D01*
X145569795Y-114754192D01*
X145454192Y-114869795D01*
X145367210Y-115008225D01*
X145313212Y-115162544D01*
X145294909Y-115324996D01*
X140689279Y-115324996D01*
X140624616Y-115284365D01*
X140470297Y-115230367D01*
X140307846Y-115212064D01*
X140307838Y-115212064D01*
X140145386Y-115230367D01*
X139991067Y-115284365D01*
X139852637Y-115371347D01*
X139737034Y-115486950D01*
X139650052Y-115625380D01*
X139596054Y-115779699D01*
X139588369Y-115847910D01*
X139561302Y-115912324D01*
X139503707Y-115951879D01*
X139433870Y-115954016D01*
X139424195Y-115951068D01*
X139398723Y-115942155D01*
X139387461Y-115938214D01*
X139387460Y-115938213D01*
X139387455Y-115938212D01*
X139225004Y-115919909D01*
X139224997Y-115919909D01*
X139190799Y-115923762D01*
X139121977Y-115911707D01*
X139089235Y-115888223D01*
X138976620Y-115775608D01*
X138838190Y-115688626D01*
X138704293Y-115641774D01*
X138683877Y-115634630D01*
X138683876Y-115634629D01*
X138683871Y-115634628D01*
X138521420Y-115616325D01*
X138521416Y-115616325D01*
X138508791Y-115617747D01*
X138439970Y-115605690D01*
X138388592Y-115558339D01*
X138377870Y-115535480D01*
X138375862Y-115529742D01*
X138347096Y-115447532D01*
X138260115Y-115309103D01*
X138144511Y-115193499D01*
X138039013Y-115127210D01*
X138006081Y-115106517D01*
X137851762Y-115052519D01*
X137689311Y-115034216D01*
X137689303Y-115034216D01*
X137526851Y-115052519D01*
X137372532Y-115106517D01*
X137234102Y-115193499D01*
X137118499Y-115309102D01*
X137031517Y-115447532D01*
X136977519Y-115601851D01*
X136959216Y-115764303D01*
X126850500Y-115764303D01*
X126850500Y-112813571D01*
X126870185Y-112746532D01*
X126922989Y-112700777D01*
X126992147Y-112690833D01*
X127021955Y-112699011D01*
X127058309Y-112714070D01*
X127058318Y-112714072D01*
X127251504Y-112752499D01*
X127251508Y-112752500D01*
X127500000Y-112752500D01*
X127500000Y-112052500D01*
X128000000Y-112052500D01*
X128000000Y-112752500D01*
X128248492Y-112752500D01*
X128248495Y-112752499D01*
X128441681Y-112714072D01*
X128441693Y-112714069D01*
X128623671Y-112638692D01*
X128623684Y-112638685D01*
X128787461Y-112529252D01*
X128885244Y-112431469D01*
X128946567Y-112397984D01*
X129016259Y-112402968D01*
X129072193Y-112444839D01*
X129077918Y-112453175D01*
X129079193Y-112455204D01*
X129194797Y-112570808D01*
X129333226Y-112657789D01*
X129487540Y-112711786D01*
X129487543Y-112711786D01*
X129487545Y-112711787D01*
X129649997Y-112730091D01*
X129650001Y-112730091D01*
X129650005Y-112730091D01*
X129812456Y-112711787D01*
X129812457Y-112711786D01*
X129812462Y-112711786D01*
X129966776Y-112657789D01*
X130105205Y-112570808D01*
X130200145Y-112475867D01*
X130261464Y-112442385D01*
X130301704Y-112440331D01*
X130392301Y-112450538D01*
X130449998Y-112457040D01*
X130450000Y-112457040D01*
X130450003Y-112457040D01*
X130588675Y-112441415D01*
X130657497Y-112453469D01*
X130690241Y-112476955D01*
X130742533Y-112529248D01*
X130742537Y-112529251D01*
X130906315Y-112638685D01*
X130906328Y-112638692D01*
X131014197Y-112683372D01*
X131068601Y-112727212D01*
X131090666Y-112793506D01*
X131073387Y-112861206D01*
X131054430Y-112885610D01*
X131049508Y-112890532D01*
X131049504Y-112890537D01*
X130986905Y-112998963D01*
X130986905Y-112998964D01*
X130954500Y-113119899D01*
X130954500Y-113245101D01*
X130986905Y-113366036D01*
X131049505Y-113474464D01*
X131138036Y-113562995D01*
X131246464Y-113625595D01*
X131367399Y-113658000D01*
X131367401Y-113658000D01*
X131492599Y-113658000D01*
X131492601Y-113658000D01*
X131613536Y-113625595D01*
X131721964Y-113562995D01*
X131810495Y-113474464D01*
X131873095Y-113366036D01*
X131905500Y-113245101D01*
X131905500Y-113119899D01*
X131873095Y-112998964D01*
X131810495Y-112890536D01*
X131721964Y-112802005D01*
X131716319Y-112796360D01*
X131682834Y-112735037D01*
X131680000Y-112708679D01*
X131680000Y-112052500D01*
X132180000Y-112052500D01*
X132180000Y-112752500D01*
X132578492Y-112752500D01*
X132578495Y-112752499D01*
X132771681Y-112714072D01*
X132771693Y-112714069D01*
X132953671Y-112638692D01*
X132953684Y-112638685D01*
X133117462Y-112529251D01*
X133117466Y-112529248D01*
X133256748Y-112389966D01*
X133256751Y-112389962D01*
X133366185Y-112226184D01*
X133366192Y-112226171D01*
X133443902Y-112038561D01*
X133445635Y-112039278D01*
X133479127Y-111988155D01*
X133542934Y-111959688D01*
X133580574Y-111961392D01*
X133580618Y-111961007D01*
X133586361Y-111961654D01*
X133587110Y-111961688D01*
X133587534Y-111961784D01*
X133587539Y-111961786D01*
X133587544Y-111961786D01*
X133587546Y-111961787D01*
X133749996Y-111980091D01*
X133750000Y-111980091D01*
X133750004Y-111980091D01*
X133912455Y-111961787D01*
X133912456Y-111961786D01*
X133912461Y-111961786D01*
X134066775Y-111907789D01*
X134205204Y-111820808D01*
X134301016Y-111724996D01*
X136069909Y-111724996D01*
X136069909Y-111725003D01*
X136088212Y-111887455D01*
X136142210Y-112041774D01*
X136218042Y-112162459D01*
X136229192Y-112180204D01*
X136344796Y-112295808D01*
X136483225Y-112382789D01*
X136637539Y-112436786D01*
X136637542Y-112436786D01*
X136637544Y-112436787D01*
X136799996Y-112455091D01*
X136800000Y-112455091D01*
X136800004Y-112455091D01*
X136962455Y-112436787D01*
X136962456Y-112436786D01*
X136962461Y-112436786D01*
X137041948Y-112408971D01*
X137111724Y-112405409D01*
X137123856Y-112408971D01*
X137210160Y-112439170D01*
X137372614Y-112457474D01*
X137372618Y-112457474D01*
X137372622Y-112457474D01*
X137535073Y-112439170D01*
X137535074Y-112439169D01*
X137535079Y-112439169D01*
X137689393Y-112385172D01*
X137827822Y-112298191D01*
X137943426Y-112182587D01*
X138030407Y-112044158D01*
X138084404Y-111889844D01*
X138084673Y-111887461D01*
X138102709Y-111727386D01*
X138102709Y-111727379D01*
X138084405Y-111564929D01*
X138084404Y-111564925D01*
X138084404Y-111564922D01*
X138073250Y-111533049D01*
X138071563Y-111499996D01*
X145919909Y-111499996D01*
X145919909Y-111500003D01*
X145938212Y-111662455D01*
X145938213Y-111662460D01*
X145938214Y-111662461D01*
X145945327Y-111682789D01*
X145992210Y-111816774D01*
X146060215Y-111925003D01*
X146079192Y-111955204D01*
X146194796Y-112070808D01*
X146283229Y-112126374D01*
X146329520Y-112178709D01*
X146340168Y-112247762D01*
X146311793Y-112311611D01*
X146304940Y-112319048D01*
X146279191Y-112344797D01*
X146192210Y-112483225D01*
X146138212Y-112637544D01*
X146119909Y-112799996D01*
X146119909Y-112800003D01*
X146138212Y-112962455D01*
X146192210Y-113116774D01*
X146272843Y-113245099D01*
X146279192Y-113255204D01*
X146394796Y-113370808D01*
X146533225Y-113457789D01*
X146687539Y-113511786D01*
X146687542Y-113511786D01*
X146687544Y-113511787D01*
X146849996Y-113530091D01*
X146850000Y-113530091D01*
X146850004Y-113530091D01*
X147012455Y-113511787D01*
X147012456Y-113511786D01*
X147012461Y-113511786D01*
X147166775Y-113457789D01*
X147305204Y-113370808D01*
X147420808Y-113255204D01*
X147507789Y-113116775D01*
X147561786Y-112962461D01*
X147569890Y-112890536D01*
X147580091Y-112800003D01*
X147580091Y-112799996D01*
X147561787Y-112637544D01*
X147561786Y-112637542D01*
X147561786Y-112637539D01*
X147507789Y-112483225D01*
X147420808Y-112344796D01*
X147305204Y-112229192D01*
X147216770Y-112173625D01*
X147170479Y-112121290D01*
X147159831Y-112052236D01*
X147188206Y-111988388D01*
X147195038Y-111980973D01*
X147220808Y-111955204D01*
X147307789Y-111816775D01*
X147317707Y-111788429D01*
X147358426Y-111731656D01*
X147423378Y-111705907D01*
X147475703Y-111712344D01*
X147518690Y-111727386D01*
X147545557Y-111736787D01*
X147708011Y-111755091D01*
X147708015Y-111755091D01*
X147708019Y-111755091D01*
X147870470Y-111736787D01*
X147870471Y-111736786D01*
X147870476Y-111736786D01*
X148024790Y-111682789D01*
X148163219Y-111595808D01*
X148278823Y-111480204D01*
X148365804Y-111341775D01*
X148419801Y-111187461D01*
X148419802Y-111187455D01*
X148438106Y-111025003D01*
X148438106Y-111024996D01*
X148419802Y-110862544D01*
X148419801Y-110862542D01*
X148419801Y-110862539D01*
X148365804Y-110708225D01*
X148278823Y-110569796D01*
X148209023Y-110499996D01*
X150451009Y-110499996D01*
X150451009Y-110500003D01*
X150469312Y-110662455D01*
X150523310Y-110816774D01*
X150596482Y-110933225D01*
X150610292Y-110955204D01*
X150725896Y-111070808D01*
X150864325Y-111157789D01*
X151018639Y-111211786D01*
X151018642Y-111211786D01*
X151018644Y-111211787D01*
X151181096Y-111230091D01*
X151181100Y-111230091D01*
X151181104Y-111230091D01*
X151343554Y-111211787D01*
X151343554Y-111211786D01*
X151343561Y-111211786D01*
X151485457Y-111162133D01*
X151555235Y-111158573D01*
X151615863Y-111193302D01*
X151648090Y-111255295D01*
X151649631Y-111293062D01*
X151645892Y-111326240D01*
X151618824Y-111390654D01*
X151588649Y-111417345D01*
X151569796Y-111429192D01*
X151569793Y-111429194D01*
X151454192Y-111544795D01*
X151367210Y-111683225D01*
X151313212Y-111837544D01*
X151294909Y-111999996D01*
X151294909Y-112000003D01*
X151313212Y-112162455D01*
X151313213Y-112162460D01*
X151313214Y-112162461D01*
X151318899Y-112178709D01*
X151367210Y-112316774D01*
X151444117Y-112439170D01*
X151454192Y-112455204D01*
X151569796Y-112570808D01*
X151708225Y-112657789D01*
X151862539Y-112711786D01*
X151862542Y-112711786D01*
X151862544Y-112711787D01*
X152024996Y-112730091D01*
X152025000Y-112730091D01*
X152025004Y-112730091D01*
X152187455Y-112711787D01*
X152187456Y-112711786D01*
X152187461Y-112711786D01*
X152341775Y-112657789D01*
X152480204Y-112570808D01*
X152595808Y-112455204D01*
X152682789Y-112316775D01*
X152736786Y-112162461D01*
X152742675Y-112110189D01*
X152769740Y-112045779D01*
X152799921Y-112019083D01*
X152818773Y-112007238D01*
X152901015Y-111924996D01*
X154144909Y-111924996D01*
X154144909Y-111925003D01*
X154163212Y-112087455D01*
X154217210Y-112241774D01*
X154261092Y-112311611D01*
X154304192Y-112380204D01*
X154419796Y-112495808D01*
X154558225Y-112582789D01*
X154712539Y-112636786D01*
X154712542Y-112636786D01*
X154712544Y-112636787D01*
X154874996Y-112655091D01*
X154875000Y-112655091D01*
X154875004Y-112655091D01*
X155037455Y-112636787D01*
X155037456Y-112636786D01*
X155037461Y-112636786D01*
X155191775Y-112582789D01*
X155330204Y-112495808D01*
X155445808Y-112380204D01*
X155532789Y-112241775D01*
X155586786Y-112087461D01*
X155586787Y-112087455D01*
X155605091Y-111925003D01*
X155605091Y-111924996D01*
X155586787Y-111762544D01*
X155586786Y-111762542D01*
X155586786Y-111762539D01*
X155532789Y-111608225D01*
X155445808Y-111469796D01*
X155330204Y-111354192D01*
X155285719Y-111326240D01*
X155191774Y-111267210D01*
X155037455Y-111213212D01*
X154875004Y-111194909D01*
X154874996Y-111194909D01*
X154712544Y-111213212D01*
X154558225Y-111267210D01*
X154419795Y-111354192D01*
X154304192Y-111469795D01*
X154217210Y-111608225D01*
X154163212Y-111762544D01*
X154144909Y-111924996D01*
X152901015Y-111924996D01*
X152934377Y-111891634D01*
X153021358Y-111753205D01*
X153031553Y-111724066D01*
X153072272Y-111667292D01*
X153134709Y-111641800D01*
X153179217Y-111636786D01*
X153333531Y-111582789D01*
X153471960Y-111495808D01*
X153587564Y-111380204D01*
X153674545Y-111241775D01*
X153728542Y-111087461D01*
X153730181Y-111072914D01*
X153746847Y-110925003D01*
X153746847Y-110924996D01*
X153728543Y-110762544D01*
X153728542Y-110762542D01*
X153728542Y-110762539D01*
X153674545Y-110608225D01*
X153587564Y-110469796D01*
X153471960Y-110354192D01*
X153400404Y-110309230D01*
X153333530Y-110267210D01*
X153179211Y-110213212D01*
X153016760Y-110194909D01*
X153016752Y-110194909D01*
X152854300Y-110213212D01*
X152699981Y-110267210D01*
X152561551Y-110354192D01*
X152445948Y-110469795D01*
X152358968Y-110608222D01*
X152348770Y-110637366D01*
X152308047Y-110694141D01*
X152245613Y-110719629D01*
X152201108Y-110724644D01*
X152170206Y-110735457D01*
X152059211Y-110774295D01*
X151989432Y-110777856D01*
X151928805Y-110743127D01*
X151896578Y-110681133D01*
X151895037Y-110643369D01*
X151895714Y-110637366D01*
X151904145Y-110562531D01*
X151911191Y-110500002D01*
X151911191Y-110499996D01*
X151892887Y-110337544D01*
X151892886Y-110337542D01*
X151892886Y-110337539D01*
X151838889Y-110183225D01*
X151751908Y-110044796D01*
X151636304Y-109929192D01*
X151547122Y-109873155D01*
X151497874Y-109842210D01*
X151354021Y-109791874D01*
X151343561Y-109788214D01*
X151343560Y-109788213D01*
X151343555Y-109788212D01*
X151181104Y-109769909D01*
X151181096Y-109769909D01*
X151018644Y-109788212D01*
X150864325Y-109842210D01*
X150725895Y-109929192D01*
X150610292Y-110044795D01*
X150523310Y-110183225D01*
X150469312Y-110337544D01*
X150451009Y-110499996D01*
X148209023Y-110499996D01*
X148163219Y-110454192D01*
X148112392Y-110422255D01*
X148024789Y-110367210D01*
X147870470Y-110313212D01*
X147733353Y-110297763D01*
X147668939Y-110270696D01*
X147629384Y-110213101D01*
X147624017Y-110160659D01*
X147638106Y-110035618D01*
X147638106Y-110035612D01*
X147619802Y-109873158D01*
X147599453Y-109815004D01*
X147591358Y-109791872D01*
X147587797Y-109722095D01*
X147622525Y-109661468D01*
X147667444Y-109633878D01*
X147721972Y-109614798D01*
X147750235Y-109604909D01*
X147758054Y-109599996D01*
X147888666Y-109517927D01*
X148004270Y-109402323D01*
X148091251Y-109263894D01*
X148145248Y-109109580D01*
X148145249Y-109109574D01*
X148157596Y-108999996D01*
X152944909Y-108999996D01*
X152944909Y-109000003D01*
X152963212Y-109162455D01*
X153017210Y-109316774D01*
X153077492Y-109412711D01*
X153104192Y-109455204D01*
X153219796Y-109570808D01*
X153358225Y-109657789D01*
X153512539Y-109711786D01*
X153512542Y-109711786D01*
X153512544Y-109711787D01*
X153674996Y-109730091D01*
X153675000Y-109730091D01*
X153675004Y-109730091D01*
X153837455Y-109711787D01*
X153837456Y-109711786D01*
X153837461Y-109711786D01*
X153991775Y-109657789D01*
X154130204Y-109570808D01*
X154245808Y-109455204D01*
X154332789Y-109316775D01*
X154386786Y-109162461D01*
X154387186Y-109158912D01*
X154405091Y-109000003D01*
X154405091Y-108999996D01*
X154386787Y-108837544D01*
X154386786Y-108837542D01*
X154386786Y-108837539D01*
X154332789Y-108683225D01*
X154245808Y-108544796D01*
X154130204Y-108429192D01*
X154022685Y-108361633D01*
X153991774Y-108342210D01*
X153837455Y-108288212D01*
X153675004Y-108269909D01*
X153674996Y-108269909D01*
X153512544Y-108288212D01*
X153358225Y-108342210D01*
X153219795Y-108429192D01*
X153104192Y-108544795D01*
X153017210Y-108683225D01*
X152963212Y-108837544D01*
X152944909Y-108999996D01*
X148157596Y-108999996D01*
X148163553Y-108947122D01*
X148163553Y-108947115D01*
X148145249Y-108784663D01*
X148145248Y-108784661D01*
X148145248Y-108784658D01*
X148091251Y-108630344D01*
X148004270Y-108491915D01*
X147888666Y-108376311D01*
X147865306Y-108361633D01*
X147750236Y-108289329D01*
X147595917Y-108235331D01*
X147433466Y-108217028D01*
X147433458Y-108217028D01*
X147271006Y-108235331D01*
X147116687Y-108289329D01*
X146978257Y-108376311D01*
X146862654Y-108491914D01*
X146775672Y-108630344D01*
X146721674Y-108784663D01*
X146703371Y-108947115D01*
X146703371Y-108947122D01*
X146721674Y-109109575D01*
X146750117Y-109190862D01*
X146753678Y-109260641D01*
X146718948Y-109321268D01*
X146674030Y-109348856D01*
X146591242Y-109377825D01*
X146452810Y-109464808D01*
X146337207Y-109580411D01*
X146250225Y-109718841D01*
X146196227Y-109873160D01*
X146177924Y-110035612D01*
X146177924Y-110035619D01*
X146196227Y-110198071D01*
X146250225Y-110352390D01*
X146337207Y-110490820D01*
X146456936Y-110610549D01*
X146490421Y-110671872D01*
X146485437Y-110741564D01*
X146443565Y-110797497D01*
X146410211Y-110815271D01*
X146333226Y-110842209D01*
X146194795Y-110929192D01*
X146079192Y-111044795D01*
X145992210Y-111183225D01*
X145938212Y-111337544D01*
X145919909Y-111499996D01*
X138071563Y-111499996D01*
X138069688Y-111463273D01*
X138073246Y-111451154D01*
X138086786Y-111412461D01*
X138089815Y-111385577D01*
X138105091Y-111250003D01*
X138105091Y-111249996D01*
X138086787Y-111087544D01*
X138086786Y-111087542D01*
X138086786Y-111087539D01*
X138070679Y-111041511D01*
X138067117Y-110971734D01*
X138070680Y-110959601D01*
X138072219Y-110955204D01*
X138086786Y-110913575D01*
X138091826Y-110868846D01*
X138105091Y-110751117D01*
X138105091Y-110751110D01*
X138086007Y-110581732D01*
X138087670Y-110581544D01*
X138091021Y-110521799D01*
X138111786Y-110462461D01*
X138112718Y-110454192D01*
X138130091Y-110300003D01*
X138130091Y-110299996D01*
X138111787Y-110137544D01*
X138111786Y-110137540D01*
X138111786Y-110137539D01*
X138057789Y-109983225D01*
X137994335Y-109882240D01*
X137975335Y-109815004D01*
X137982289Y-109775311D01*
X137986786Y-109762461D01*
X137993832Y-109699925D01*
X138005091Y-109600003D01*
X138005091Y-109599996D01*
X137986787Y-109437544D01*
X137986786Y-109437542D01*
X137986786Y-109437539D01*
X137932789Y-109283225D01*
X137845808Y-109144796D01*
X137730204Y-109029192D01*
X137683750Y-109000003D01*
X137591774Y-108942210D01*
X137437455Y-108888212D01*
X137275004Y-108869909D01*
X137274996Y-108869909D01*
X137112544Y-108888212D01*
X136958225Y-108942210D01*
X136819795Y-109029192D01*
X136704192Y-109144795D01*
X136617210Y-109283225D01*
X136563212Y-109437544D01*
X136544909Y-109599996D01*
X136544909Y-109600003D01*
X136563212Y-109762455D01*
X136617211Y-109916776D01*
X136680663Y-110017758D01*
X136699664Y-110084995D01*
X136692712Y-110124683D01*
X136688213Y-110137540D01*
X136688212Y-110137542D01*
X136669909Y-110299996D01*
X136669909Y-110300003D01*
X136688993Y-110469381D01*
X136687335Y-110469567D01*
X136683977Y-110529311D01*
X136663213Y-110588653D01*
X136663213Y-110588654D01*
X136644909Y-110751110D01*
X136644909Y-110751117D01*
X136661968Y-110902527D01*
X136649913Y-110971349D01*
X136602564Y-111022728D01*
X136579702Y-111033452D01*
X136483225Y-111067210D01*
X136344795Y-111154192D01*
X136229192Y-111269795D01*
X136142210Y-111408225D01*
X136088212Y-111562544D01*
X136069909Y-111724996D01*
X134301016Y-111724996D01*
X134320808Y-111705204D01*
X134407789Y-111566775D01*
X134461786Y-111412461D01*
X134462044Y-111410174D01*
X134480091Y-111250003D01*
X134480091Y-111249996D01*
X134461787Y-111087542D01*
X134455354Y-111069159D01*
X134442169Y-111031479D01*
X134438608Y-110961701D01*
X134473336Y-110901074D01*
X134535330Y-110868846D01*
X134545328Y-110867305D01*
X134658184Y-110854589D01*
X134658185Y-110854588D01*
X134658190Y-110854588D01*
X134812504Y-110800591D01*
X134950933Y-110713610D01*
X135066537Y-110598006D01*
X135153518Y-110459577D01*
X135207515Y-110305263D01*
X135208108Y-110300000D01*
X135225820Y-110142805D01*
X135225820Y-110142798D01*
X135207516Y-109980346D01*
X135207515Y-109980344D01*
X135207515Y-109980341D01*
X135153518Y-109826027D01*
X135066537Y-109687598D01*
X134950933Y-109571994D01*
X134950931Y-109571992D01*
X134818701Y-109488906D01*
X134772411Y-109436572D01*
X134761763Y-109367518D01*
X134790138Y-109303670D01*
X134843721Y-109266871D01*
X134903668Y-109245895D01*
X134903670Y-109245894D01*
X135042099Y-109158913D01*
X135157703Y-109043309D01*
X135244684Y-108904880D01*
X135298681Y-108750566D01*
X135306269Y-108683225D01*
X135316986Y-108588108D01*
X135316986Y-108588101D01*
X135298682Y-108425647D01*
X135289711Y-108400009D01*
X135250869Y-108289008D01*
X135247308Y-108219231D01*
X135250860Y-108207131D01*
X135269024Y-108155223D01*
X135287329Y-107992762D01*
X135269024Y-107830301D01*
X135215027Y-107675987D01*
X135128046Y-107537558D01*
X135012442Y-107421954D01*
X134987492Y-107406277D01*
X134874012Y-107334972D01*
X134719693Y-107280974D01*
X134557242Y-107262671D01*
X134557234Y-107262671D01*
X134394782Y-107280974D01*
X134240463Y-107334972D01*
X134102033Y-107421954D01*
X133986430Y-107537557D01*
X133899448Y-107675987D01*
X133845450Y-107830306D01*
X133827147Y-107992758D01*
X133827147Y-107992765D01*
X133845450Y-108155216D01*
X133845451Y-108155221D01*
X133845452Y-108155223D01*
X133873483Y-108235331D01*
X133893262Y-108291855D01*
X133896823Y-108361633D01*
X133893262Y-108373762D01*
X133875108Y-108425644D01*
X133875108Y-108425645D01*
X133856804Y-108588101D01*
X133856804Y-108588108D01*
X133875107Y-108750560D01*
X133929105Y-108904879D01*
X133988874Y-109000000D01*
X134016087Y-109043309D01*
X134131691Y-109158913D01*
X134235217Y-109223963D01*
X134263921Y-109241999D01*
X134310212Y-109294334D01*
X134320860Y-109363388D01*
X134292485Y-109427236D01*
X134238905Y-109464034D01*
X134178955Y-109485011D01*
X134040526Y-109571993D01*
X133956287Y-109656232D01*
X133894963Y-109689716D01*
X133825272Y-109684732D01*
X133776254Y-109649197D01*
X133775732Y-109649720D01*
X133772452Y-109646440D01*
X133771664Y-109645869D01*
X133770809Y-109644797D01*
X133655204Y-109529192D01*
X133516774Y-109442210D01*
X133362455Y-109388212D01*
X133200004Y-109369909D01*
X133199996Y-109369909D01*
X133037544Y-109388212D01*
X132883225Y-109442210D01*
X132744795Y-109529192D01*
X132629192Y-109644795D01*
X132542210Y-109783225D01*
X132488212Y-109937544D01*
X132469909Y-110099996D01*
X132469909Y-110100003D01*
X132488212Y-110262455D01*
X132542210Y-110416774D01*
X132632897Y-110561100D01*
X132630618Y-110562531D01*
X132652396Y-110615863D01*
X132639646Y-110684559D01*
X132591780Y-110735457D01*
X132529042Y-110752500D01*
X132180000Y-110752500D01*
X132180000Y-111452500D01*
X131680000Y-111452500D01*
X131680000Y-110752500D01*
X131281504Y-110752500D01*
X131088318Y-110790927D01*
X131088306Y-110790930D01*
X130906328Y-110866307D01*
X130906315Y-110866314D01*
X130742540Y-110975746D01*
X130734713Y-110983573D01*
X130673388Y-111017055D01*
X130619904Y-111013842D01*
X130619250Y-111016712D01*
X130612459Y-111015162D01*
X130450004Y-110996858D01*
X130449996Y-110996858D01*
X130287544Y-111015161D01*
X130133225Y-111069159D01*
X129994797Y-111156140D01*
X129899858Y-111251079D01*
X129838534Y-111284563D01*
X129798294Y-111286617D01*
X129650005Y-111269909D01*
X129649997Y-111269909D01*
X129487545Y-111288212D01*
X129333225Y-111342210D01*
X129242704Y-111399089D01*
X129175467Y-111418089D01*
X129108632Y-111397721D01*
X129063418Y-111344453D01*
X129062171Y-111341548D01*
X129036190Y-111278824D01*
X129036185Y-111278815D01*
X128926751Y-111115037D01*
X128926748Y-111115033D01*
X128787466Y-110975751D01*
X128787462Y-110975748D01*
X128623684Y-110866314D01*
X128623671Y-110866307D01*
X128441693Y-110790930D01*
X128441681Y-110790927D01*
X128248495Y-110752500D01*
X128000000Y-110752500D01*
X128000000Y-111452500D01*
X127500000Y-111452500D01*
X127500000Y-110752500D01*
X127251504Y-110752500D01*
X127058318Y-110790927D01*
X127058306Y-110790930D01*
X127021952Y-110805989D01*
X126952483Y-110813458D01*
X126890004Y-110782183D01*
X126854352Y-110722094D01*
X126850500Y-110691428D01*
X126850500Y-106449996D01*
X138169909Y-106449996D01*
X138169909Y-106450003D01*
X138188212Y-106612455D01*
X138242210Y-106766774D01*
X138276162Y-106820808D01*
X138329192Y-106905204D01*
X138444796Y-107020808D01*
X138583225Y-107107789D01*
X138737539Y-107161786D01*
X138737542Y-107161786D01*
X138737544Y-107161787D01*
X138899996Y-107180091D01*
X138900000Y-107180091D01*
X138900004Y-107180091D01*
X139062455Y-107161787D01*
X139062456Y-107161786D01*
X139062461Y-107161786D01*
X139216775Y-107107789D01*
X139355204Y-107020808D01*
X139470808Y-106905204D01*
X139557789Y-106766775D01*
X139611786Y-106612461D01*
X139611787Y-106612455D01*
X139630091Y-106450003D01*
X139630091Y-106449996D01*
X139611787Y-106287544D01*
X139611786Y-106287542D01*
X139611786Y-106287539D01*
X139557789Y-106133225D01*
X139489784Y-106024996D01*
X140869909Y-106024996D01*
X140869909Y-106025003D01*
X140888212Y-106187455D01*
X140942210Y-106341774D01*
X141010215Y-106450003D01*
X141029192Y-106480204D01*
X141144796Y-106595808D01*
X141283225Y-106682789D01*
X141437539Y-106736786D01*
X141437542Y-106736786D01*
X141437544Y-106736787D01*
X141599996Y-106755091D01*
X141600000Y-106755091D01*
X141600004Y-106755091D01*
X141762455Y-106736787D01*
X141762456Y-106736786D01*
X141762461Y-106736786D01*
X141916775Y-106682789D01*
X142055204Y-106595808D01*
X142170808Y-106480204D01*
X142257789Y-106341775D01*
X142311786Y-106187461D01*
X142319982Y-106114720D01*
X142330091Y-106025003D01*
X142330091Y-106024996D01*
X142311787Y-105862544D01*
X142311786Y-105862542D01*
X142311786Y-105862539D01*
X142257789Y-105708225D01*
X142170808Y-105569796D01*
X142055204Y-105454192D01*
X142008106Y-105424598D01*
X141916774Y-105367210D01*
X141762455Y-105313212D01*
X141600004Y-105294909D01*
X141599996Y-105294909D01*
X141437544Y-105313212D01*
X141283225Y-105367210D01*
X141144795Y-105454192D01*
X141029192Y-105569795D01*
X140942210Y-105708225D01*
X140888212Y-105862544D01*
X140869909Y-106024996D01*
X139489784Y-106024996D01*
X139470808Y-105994796D01*
X139355204Y-105879192D01*
X139328701Y-105862539D01*
X139216774Y-105792210D01*
X139062455Y-105738212D01*
X138900004Y-105719909D01*
X138899996Y-105719909D01*
X138737544Y-105738212D01*
X138583225Y-105792210D01*
X138444795Y-105879192D01*
X138329192Y-105994795D01*
X138242210Y-106133225D01*
X138188212Y-106287544D01*
X138169909Y-106449996D01*
X126850500Y-106449996D01*
X126850500Y-104853787D01*
X128991118Y-104853787D01*
X128991118Y-104853794D01*
X129009421Y-105016246D01*
X129063419Y-105170565D01*
X129094989Y-105220808D01*
X129150401Y-105308995D01*
X129266005Y-105424599D01*
X129404434Y-105511580D01*
X129558748Y-105565577D01*
X129558751Y-105565577D01*
X129558753Y-105565578D01*
X129721205Y-105583882D01*
X129721209Y-105583882D01*
X129721213Y-105583882D01*
X129883664Y-105565578D01*
X129883665Y-105565577D01*
X129883670Y-105565577D01*
X130037984Y-105511580D01*
X130176413Y-105424599D01*
X130292017Y-105308995D01*
X130378998Y-105170566D01*
X130432995Y-105016252D01*
X130432996Y-105016246D01*
X130451300Y-104853794D01*
X130451300Y-104853787D01*
X130432996Y-104691335D01*
X130432995Y-104691333D01*
X130432995Y-104691330D01*
X130378998Y-104537016D01*
X130292017Y-104398587D01*
X130176413Y-104282983D01*
X130123681Y-104249849D01*
X130037983Y-104196001D01*
X129883664Y-104142003D01*
X129721213Y-104123700D01*
X129721205Y-104123700D01*
X129558753Y-104142003D01*
X129404434Y-104196001D01*
X129266004Y-104282983D01*
X129150401Y-104398586D01*
X129063419Y-104537016D01*
X129009421Y-104691335D01*
X128991118Y-104853787D01*
X126850500Y-104853787D01*
X126850500Y-99954502D01*
X126870185Y-99887463D01*
X126922989Y-99841708D01*
X126992147Y-99831764D01*
X127040473Y-99849509D01*
X127110019Y-99893208D01*
X127133225Y-99907789D01*
X127287539Y-99961786D01*
X127287542Y-99961786D01*
X127287544Y-99961787D01*
X127449996Y-99980091D01*
X127450000Y-99980091D01*
X127450004Y-99980091D01*
X127612455Y-99961787D01*
X127612456Y-99961786D01*
X127612461Y-99961786D01*
X127766775Y-99907789D01*
X127905204Y-99820808D01*
X128020808Y-99705204D01*
X128107789Y-99566775D01*
X128161786Y-99412461D01*
X128166290Y-99372489D01*
X128180091Y-99250003D01*
X128180091Y-99249996D01*
X131444909Y-99249996D01*
X131444909Y-99250003D01*
X131463212Y-99412455D01*
X131517210Y-99566774D01*
X131575500Y-99659541D01*
X131604192Y-99705204D01*
X131719796Y-99820808D01*
X131858225Y-99907789D01*
X132012539Y-99961786D01*
X132012542Y-99961786D01*
X132012544Y-99961787D01*
X132174996Y-99980091D01*
X132175000Y-99980091D01*
X132175004Y-99980091D01*
X132337455Y-99961787D01*
X132337456Y-99961786D01*
X132337461Y-99961786D01*
X132491775Y-99907789D01*
X132621185Y-99826474D01*
X132688421Y-99807474D01*
X132692155Y-99808612D01*
X132690291Y-99794633D01*
X132719962Y-99731377D01*
X132725130Y-99725881D01*
X132745808Y-99705204D01*
X132832789Y-99566775D01*
X132886786Y-99412461D01*
X132891290Y-99372489D01*
X132905091Y-99250003D01*
X132905091Y-99249996D01*
X132886787Y-99087544D01*
X132886786Y-99087542D01*
X132886786Y-99087539D01*
X132832789Y-98933225D01*
X132745808Y-98794796D01*
X132630204Y-98679192D01*
X132582350Y-98649123D01*
X132491774Y-98592210D01*
X132337455Y-98538212D01*
X132175004Y-98519909D01*
X132174996Y-98519909D01*
X132012544Y-98538212D01*
X131858225Y-98592210D01*
X131719795Y-98679192D01*
X131604192Y-98794795D01*
X131517210Y-98933225D01*
X131463212Y-99087544D01*
X131444909Y-99249996D01*
X128180091Y-99249996D01*
X128161787Y-99087544D01*
X128161786Y-99087542D01*
X128161786Y-99087539D01*
X128107789Y-98933225D01*
X128020808Y-98794796D01*
X127905204Y-98679192D01*
X127857350Y-98649123D01*
X127766774Y-98592210D01*
X127612455Y-98538212D01*
X127450004Y-98519909D01*
X127449996Y-98519909D01*
X127287544Y-98538212D01*
X127133224Y-98592210D01*
X127040472Y-98650491D01*
X126973235Y-98669491D01*
X126906400Y-98649123D01*
X126861186Y-98595855D01*
X126850500Y-98545497D01*
X126850500Y-97004502D01*
X126870185Y-96937463D01*
X126922989Y-96891708D01*
X126992147Y-96881764D01*
X127040473Y-96899509D01*
X127102644Y-96938574D01*
X127133225Y-96957789D01*
X127287539Y-97011786D01*
X127287542Y-97011786D01*
X127287544Y-97011787D01*
X127449996Y-97030091D01*
X127450000Y-97030091D01*
X127450004Y-97030091D01*
X127612455Y-97011787D01*
X127612456Y-97011786D01*
X127612461Y-97011786D01*
X127766775Y-96957789D01*
X127905204Y-96870808D01*
X128020808Y-96755204D01*
X128107789Y-96616775D01*
X128161786Y-96462461D01*
X128180091Y-96300000D01*
X128161786Y-96137539D01*
X128107789Y-95983225D01*
X128020808Y-95844796D01*
X127905204Y-95729192D01*
X127827767Y-95680535D01*
X127766774Y-95642210D01*
X127612455Y-95588212D01*
X127450004Y-95569909D01*
X127449996Y-95569909D01*
X127287544Y-95588212D01*
X127133224Y-95642210D01*
X127040472Y-95700491D01*
X126973235Y-95719491D01*
X126906400Y-95699123D01*
X126861186Y-95645855D01*
X126850500Y-95595497D01*
X126850500Y-94154500D01*
X126870185Y-94087461D01*
X126922989Y-94041706D01*
X126974500Y-94030500D01*
X134876000Y-94030500D01*
X134943039Y-94050185D01*
G37*
G04 #@! TD.AperFunction*
M02*
