G04 #@! TF.GenerationSoftware,KiCad,Pcbnew,8.0.2*
G04 #@! TF.CreationDate,2024-10-06T17:22:18-06:00*
G04 #@! TF.ProjectId,kicad,6b696361-642e-46b6-9963-61645f706362,rev?*
G04 #@! TF.SameCoordinates,Original*
G04 #@! TF.FileFunction,Copper,L2,Bot*
G04 #@! TF.FilePolarity,Positive*
%FSLAX46Y46*%
G04 Gerber Fmt 4.6, Leading zero omitted, Abs format (unit mm)*
G04 Created by KiCad (PCBNEW 8.0.2) date 2024-10-06 17:22:18*
%MOMM*%
%LPD*%
G01*
G04 APERTURE LIST*
G04 Aperture macros list*
%AMRoundRect*
0 Rectangle with rounded corners*
0 $1 Rounding radius*
0 $2 $3 $4 $5 $6 $7 $8 $9 X,Y pos of 4 corners*
0 Add a 4 corners polygon primitive as box body*
4,1,4,$2,$3,$4,$5,$6,$7,$8,$9,$2,$3,0*
0 Add four circle primitives for the rounded corners*
1,1,$1+$1,$2,$3*
1,1,$1+$1,$4,$5*
1,1,$1+$1,$6,$7*
1,1,$1+$1,$8,$9*
0 Add four rect primitives between the rounded corners*
20,1,$1+$1,$2,$3,$4,$5,0*
20,1,$1+$1,$4,$5,$6,$7,0*
20,1,$1+$1,$6,$7,$8,$9,0*
20,1,$1+$1,$8,$9,$2,$3,0*%
G04 Aperture macros list end*
G04 #@! TA.AperFunction,ComponentPad*
%ADD10O,1.000000X2.100000*%
G04 #@! TD*
G04 #@! TA.AperFunction,ComponentPad*
%ADD11O,1.000000X1.800000*%
G04 #@! TD*
G04 #@! TA.AperFunction,ComponentPad*
%ADD12RoundRect,0.250000X0.350000X0.625000X-0.350000X0.625000X-0.350000X-0.625000X0.350000X-0.625000X0*%
G04 #@! TD*
G04 #@! TA.AperFunction,ComponentPad*
%ADD13O,1.200000X1.750000*%
G04 #@! TD*
G04 #@! TA.AperFunction,ComponentPad*
%ADD14RoundRect,0.250000X-0.600000X-0.725000X0.600000X-0.725000X0.600000X0.725000X-0.600000X0.725000X0*%
G04 #@! TD*
G04 #@! TA.AperFunction,ComponentPad*
%ADD15O,1.700000X1.950000*%
G04 #@! TD*
G04 #@! TA.AperFunction,ComponentPad*
%ADD16RoundRect,0.250000X0.725000X-0.600000X0.725000X0.600000X-0.725000X0.600000X-0.725000X-0.600000X0*%
G04 #@! TD*
G04 #@! TA.AperFunction,ComponentPad*
%ADD17O,1.950000X1.700000*%
G04 #@! TD*
G04 #@! TA.AperFunction,ComponentPad*
%ADD18RoundRect,0.250000X-0.600000X-0.750000X0.600000X-0.750000X0.600000X0.750000X-0.600000X0.750000X0*%
G04 #@! TD*
G04 #@! TA.AperFunction,ComponentPad*
%ADD19O,1.700000X2.000000*%
G04 #@! TD*
G04 #@! TA.AperFunction,ComponentPad*
%ADD20RoundRect,0.250000X0.600000X0.725000X-0.600000X0.725000X-0.600000X-0.725000X0.600000X-0.725000X0*%
G04 #@! TD*
G04 #@! TA.AperFunction,ComponentPad*
%ADD21RoundRect,0.250000X-0.725000X0.600000X-0.725000X-0.600000X0.725000X-0.600000X0.725000X0.600000X0*%
G04 #@! TD*
G04 #@! TA.AperFunction,ViaPad*
%ADD22C,0.600000*%
G04 #@! TD*
G04 #@! TA.AperFunction,Conductor*
%ADD23C,0.150000*%
G04 #@! TD*
G04 #@! TA.AperFunction,Conductor*
%ADD24C,0.200000*%
G04 #@! TD*
G04 APERTURE END LIST*
D10*
X190320000Y-53680000D03*
D11*
X190320000Y-49500000D03*
D10*
X181680000Y-53680000D03*
D11*
X181680000Y-49500000D03*
D12*
X156000000Y-54500000D03*
D13*
X154000000Y-54500000D03*
D14*
X116500000Y-51000000D03*
D15*
X119000000Y-51000000D03*
X121500000Y-51000000D03*
D16*
X97000000Y-89500000D03*
D17*
X97000000Y-87000000D03*
X97000000Y-84500000D03*
X97000000Y-82000000D03*
X97000000Y-79500000D03*
X97000000Y-77000000D03*
D18*
X97000000Y-51000000D03*
D19*
X99500000Y-51000000D03*
D14*
X138000000Y-50500000D03*
D15*
X140500000Y-50500000D03*
X143000000Y-50500000D03*
X145500000Y-50500000D03*
D18*
X173500000Y-50000000D03*
D19*
X176000000Y-50000000D03*
D20*
X142500000Y-143000000D03*
D15*
X140000000Y-143000000D03*
X137500000Y-143000000D03*
X135000000Y-143000000D03*
X132500000Y-143000000D03*
X130000000Y-143000000D03*
D21*
X189500000Y-110500000D03*
D17*
X189500000Y-113000000D03*
X189500000Y-115500000D03*
X189500000Y-118000000D03*
D20*
X109500000Y-143000000D03*
D15*
X107000000Y-143000000D03*
X104500000Y-143000000D03*
X102000000Y-143000000D03*
X99500000Y-143000000D03*
X97000000Y-143000000D03*
D22*
X171500000Y-60500000D03*
X190000000Y-57500000D03*
X185056947Y-58045804D03*
X176000000Y-57500000D03*
X174000000Y-57500000D03*
X183000000Y-55500000D03*
X187500000Y-60000000D03*
X108000000Y-107000000D03*
X99000000Y-98500000D03*
X189500000Y-55500000D03*
X129000000Y-78000000D03*
X146500000Y-62500000D03*
X161000000Y-61500000D03*
X120000000Y-62000000D03*
X108000000Y-113000000D03*
X108000000Y-81000000D03*
X156500000Y-57000000D03*
X112000000Y-90500000D03*
X124000000Y-62000000D03*
X96000000Y-62000000D03*
X113000000Y-104500000D03*
X183500000Y-137500000D03*
X99500000Y-110899999D03*
X99500000Y-52500000D03*
X154500000Y-63500000D03*
X154000000Y-64462500D03*
X159500000Y-60000000D03*
X133500000Y-133000000D03*
X116000000Y-62000000D03*
X119500000Y-104500000D03*
X137000000Y-61500000D03*
X171500000Y-137500000D03*
X108000000Y-132000000D03*
X108000000Y-104000000D03*
X134000000Y-134500000D03*
X126500000Y-70500000D03*
X160000000Y-53000000D03*
X117375000Y-104000000D03*
X162000000Y-66000000D03*
X171500000Y-128000000D03*
X99310735Y-108810735D03*
X133000000Y-61500000D03*
X99500000Y-135000000D03*
X183500000Y-128000000D03*
X108000000Y-110000000D03*
X159000000Y-63500000D03*
X144925000Y-59000000D03*
X130000000Y-78000000D03*
X134500000Y-135500000D03*
X154000000Y-57500000D03*
X156000000Y-56000000D03*
X153000000Y-58225000D03*
X151966119Y-65612500D03*
X157000000Y-60175001D03*
X154525001Y-56500000D03*
X150000000Y-60550000D03*
X150380913Y-64694087D03*
X150380913Y-62500000D03*
X138862500Y-58000000D03*
X142425000Y-57500000D03*
X144075000Y-57500000D03*
X105000000Y-98100000D03*
X105000000Y-96900000D03*
X105000000Y-92000000D03*
X108309264Y-91190733D03*
X101700000Y-92000000D03*
X107210735Y-91789263D03*
X111559265Y-94440735D03*
X101637500Y-100000000D03*
X110710736Y-95289264D03*
X104100000Y-97500000D03*
X114500000Y-82500000D03*
X100437500Y-101500000D03*
X104500000Y-95500000D03*
X111893595Y-83901395D03*
X131175734Y-136524263D03*
X132000000Y-136500000D03*
X152262097Y-60262097D03*
X155274999Y-60588171D03*
D23*
X154286828Y-55925000D02*
X155925000Y-55925000D01*
X154000000Y-57500000D02*
X153950001Y-57450001D01*
X153950001Y-56261827D02*
X154286828Y-55925000D01*
X153950001Y-57450001D02*
X153950001Y-56261827D01*
X155925000Y-55925000D02*
X156000000Y-56000000D01*
D24*
X151662097Y-59562903D02*
X153000000Y-58225000D01*
X151966119Y-65612500D02*
X151966119Y-65185352D01*
X153149196Y-64002275D02*
X153149196Y-61997725D01*
X153149196Y-61997725D02*
X151662097Y-60510626D01*
X151966119Y-65185352D02*
X153149196Y-64002275D01*
X151662097Y-60510626D02*
X151662097Y-59562903D01*
D23*
X154525001Y-56500000D02*
X157000000Y-58974999D01*
X157000000Y-58974999D02*
X157000000Y-60175001D01*
D24*
X150380913Y-64694087D02*
X150380913Y-62500000D01*
D23*
X143000000Y-57500000D02*
X144075000Y-57500000D01*
X143000000Y-57500000D02*
X139362500Y-57500000D01*
D24*
X150380913Y-60930913D02*
X150000000Y-60550000D01*
D23*
X142425000Y-57500000D02*
X143000000Y-57500000D01*
X139362500Y-57500000D02*
X138862500Y-58000000D01*
D24*
X150380913Y-62500000D02*
X150380913Y-60930913D01*
X105000000Y-98100000D02*
X105000000Y-96900000D01*
X107710734Y-91789263D02*
X108309264Y-91190733D01*
X107210735Y-91789263D02*
X107710734Y-91789263D01*
X101700000Y-92000000D02*
X105000000Y-92000000D01*
X110710736Y-95289264D02*
X111559265Y-94440735D01*
X101637500Y-100000000D02*
X104100000Y-97537500D01*
X104100000Y-97537500D02*
X104100000Y-97500000D01*
X114000000Y-83000000D02*
X112794990Y-83000000D01*
X112794990Y-83000000D02*
X111893595Y-83901395D01*
X104500000Y-96251471D02*
X104500000Y-95500000D01*
X100437500Y-100313971D02*
X100437500Y-101500000D01*
X104051474Y-96699997D02*
X104500000Y-96251471D01*
X104051474Y-96699997D02*
X100437500Y-100313971D01*
X114500000Y-82500000D02*
X114000000Y-83000000D01*
X132900000Y-135900000D02*
X140000000Y-143000000D01*
X131751471Y-135900000D02*
X132900000Y-135900000D01*
X131175734Y-136475737D02*
X131751471Y-135900000D01*
X131175734Y-136524263D02*
X131175734Y-136475737D01*
X132000000Y-136500000D02*
X137500000Y-142000000D01*
X137500000Y-142000000D02*
X137500000Y-143000000D01*
D23*
X155274999Y-60588171D02*
X154948925Y-60262097D01*
X154948925Y-60262097D02*
X152262097Y-60262097D01*
G04 #@! TA.AperFunction,Conductor*
G36*
X192442539Y-47520185D02*
G01*
X192488294Y-47572989D01*
X192499500Y-47624500D01*
X192499500Y-146375500D01*
X192479815Y-146442539D01*
X192427011Y-146488294D01*
X192375500Y-146499500D01*
X93624500Y-146499500D01*
X93557461Y-146479815D01*
X93511706Y-146427011D01*
X93500500Y-146375500D01*
X93500500Y-142768713D01*
X95649500Y-142768713D01*
X95649500Y-143231286D01*
X95682753Y-143441239D01*
X95748444Y-143643414D01*
X95844951Y-143832820D01*
X95969890Y-144004786D01*
X96120213Y-144155109D01*
X96292179Y-144280048D01*
X96292181Y-144280049D01*
X96292184Y-144280051D01*
X96481588Y-144376557D01*
X96683757Y-144442246D01*
X96893713Y-144475500D01*
X96893714Y-144475500D01*
X97106286Y-144475500D01*
X97106287Y-144475500D01*
X97316243Y-144442246D01*
X97518412Y-144376557D01*
X97707816Y-144280051D01*
X97729789Y-144264086D01*
X97879786Y-144155109D01*
X97879788Y-144155106D01*
X97879792Y-144155104D01*
X98030104Y-144004792D01*
X98149683Y-143840204D01*
X98205011Y-143797540D01*
X98274624Y-143791561D01*
X98336420Y-143824166D01*
X98350313Y-143840199D01*
X98453925Y-143982809D01*
X98469896Y-144004792D01*
X98620213Y-144155109D01*
X98792179Y-144280048D01*
X98792181Y-144280049D01*
X98792184Y-144280051D01*
X98981588Y-144376557D01*
X99183757Y-144442246D01*
X99393713Y-144475500D01*
X99393714Y-144475500D01*
X99606286Y-144475500D01*
X99606287Y-144475500D01*
X99816243Y-144442246D01*
X100018412Y-144376557D01*
X100207816Y-144280051D01*
X100229789Y-144264086D01*
X100379786Y-144155109D01*
X100379788Y-144155106D01*
X100379792Y-144155104D01*
X100530104Y-144004792D01*
X100649683Y-143840204D01*
X100705011Y-143797540D01*
X100774624Y-143791561D01*
X100836420Y-143824166D01*
X100850313Y-143840199D01*
X100953925Y-143982809D01*
X100969896Y-144004792D01*
X101120213Y-144155109D01*
X101292179Y-144280048D01*
X101292181Y-144280049D01*
X101292184Y-144280051D01*
X101481588Y-144376557D01*
X101683757Y-144442246D01*
X101893713Y-144475500D01*
X101893714Y-144475500D01*
X102106286Y-144475500D01*
X102106287Y-144475500D01*
X102316243Y-144442246D01*
X102518412Y-144376557D01*
X102707816Y-144280051D01*
X102729789Y-144264086D01*
X102879786Y-144155109D01*
X102879788Y-144155106D01*
X102879792Y-144155104D01*
X103030104Y-144004792D01*
X103149683Y-143840204D01*
X103205011Y-143797540D01*
X103274624Y-143791561D01*
X103336420Y-143824166D01*
X103350313Y-143840199D01*
X103453925Y-143982809D01*
X103469896Y-144004792D01*
X103620213Y-144155109D01*
X103792179Y-144280048D01*
X103792181Y-144280049D01*
X103792184Y-144280051D01*
X103981588Y-144376557D01*
X104183757Y-144442246D01*
X104393713Y-144475500D01*
X104393714Y-144475500D01*
X104606286Y-144475500D01*
X104606287Y-144475500D01*
X104816243Y-144442246D01*
X105018412Y-144376557D01*
X105207816Y-144280051D01*
X105229789Y-144264086D01*
X105379786Y-144155109D01*
X105379788Y-144155106D01*
X105379792Y-144155104D01*
X105530104Y-144004792D01*
X105649683Y-143840204D01*
X105705011Y-143797540D01*
X105774624Y-143791561D01*
X105836420Y-143824166D01*
X105850313Y-143840199D01*
X105953925Y-143982809D01*
X105969896Y-144004792D01*
X106120213Y-144155109D01*
X106292179Y-144280048D01*
X106292181Y-144280049D01*
X106292184Y-144280051D01*
X106481588Y-144376557D01*
X106683757Y-144442246D01*
X106893713Y-144475500D01*
X106893714Y-144475500D01*
X107106286Y-144475500D01*
X107106287Y-144475500D01*
X107316243Y-144442246D01*
X107518412Y-144376557D01*
X107707816Y-144280051D01*
X107879792Y-144155104D01*
X108018604Y-144016291D01*
X108079923Y-143982809D01*
X108149615Y-143987793D01*
X108205549Y-144029664D01*
X108211821Y-144038878D01*
X108215185Y-144044333D01*
X108215186Y-144044334D01*
X108307288Y-144193656D01*
X108431344Y-144317712D01*
X108580666Y-144409814D01*
X108747203Y-144464999D01*
X108849991Y-144475500D01*
X110150008Y-144475499D01*
X110252797Y-144464999D01*
X110419334Y-144409814D01*
X110568656Y-144317712D01*
X110692712Y-144193656D01*
X110784814Y-144044334D01*
X110839999Y-143877797D01*
X110850500Y-143775009D01*
X110850499Y-142768713D01*
X128649500Y-142768713D01*
X128649500Y-143231286D01*
X128682753Y-143441239D01*
X128748444Y-143643414D01*
X128844951Y-143832820D01*
X128969890Y-144004786D01*
X129120213Y-144155109D01*
X129292179Y-144280048D01*
X129292181Y-144280049D01*
X129292184Y-144280051D01*
X129481588Y-144376557D01*
X129683757Y-144442246D01*
X129893713Y-144475500D01*
X129893714Y-144475500D01*
X130106286Y-144475500D01*
X130106287Y-144475500D01*
X130316243Y-144442246D01*
X130518412Y-144376557D01*
X130707816Y-144280051D01*
X130729789Y-144264086D01*
X130879786Y-144155109D01*
X130879788Y-144155106D01*
X130879792Y-144155104D01*
X131030104Y-144004792D01*
X131149683Y-143840204D01*
X131205011Y-143797540D01*
X131274624Y-143791561D01*
X131336420Y-143824166D01*
X131350313Y-143840199D01*
X131453925Y-143982809D01*
X131469896Y-144004792D01*
X131620213Y-144155109D01*
X131792179Y-144280048D01*
X131792181Y-144280049D01*
X131792184Y-144280051D01*
X131981588Y-144376557D01*
X132183757Y-144442246D01*
X132393713Y-144475500D01*
X132393714Y-144475500D01*
X132606286Y-144475500D01*
X132606287Y-144475500D01*
X132816243Y-144442246D01*
X133018412Y-144376557D01*
X133207816Y-144280051D01*
X133229789Y-144264086D01*
X133379786Y-144155109D01*
X133379788Y-144155106D01*
X133379792Y-144155104D01*
X133530104Y-144004792D01*
X133649683Y-143840204D01*
X133705011Y-143797540D01*
X133774624Y-143791561D01*
X133836420Y-143824166D01*
X133850313Y-143840199D01*
X133953925Y-143982809D01*
X133969896Y-144004792D01*
X134120213Y-144155109D01*
X134292179Y-144280048D01*
X134292181Y-144280049D01*
X134292184Y-144280051D01*
X134481588Y-144376557D01*
X134683757Y-144442246D01*
X134893713Y-144475500D01*
X134893714Y-144475500D01*
X135106286Y-144475500D01*
X135106287Y-144475500D01*
X135316243Y-144442246D01*
X135518412Y-144376557D01*
X135707816Y-144280051D01*
X135729789Y-144264086D01*
X135879786Y-144155109D01*
X135879788Y-144155106D01*
X135879792Y-144155104D01*
X136030104Y-144004792D01*
X136149683Y-143840204D01*
X136205011Y-143797540D01*
X136274624Y-143791561D01*
X136336420Y-143824166D01*
X136350313Y-143840199D01*
X136453925Y-143982809D01*
X136469896Y-144004792D01*
X136620213Y-144155109D01*
X136792179Y-144280048D01*
X136792181Y-144280049D01*
X136792184Y-144280051D01*
X136981588Y-144376557D01*
X137183757Y-144442246D01*
X137393713Y-144475500D01*
X137393714Y-144475500D01*
X137606286Y-144475500D01*
X137606287Y-144475500D01*
X137816243Y-144442246D01*
X138018412Y-144376557D01*
X138207816Y-144280051D01*
X138229789Y-144264086D01*
X138379786Y-144155109D01*
X138379788Y-144155106D01*
X138379792Y-144155104D01*
X138530104Y-144004792D01*
X138649683Y-143840204D01*
X138705011Y-143797540D01*
X138774624Y-143791561D01*
X138836420Y-143824166D01*
X138850313Y-143840199D01*
X138953925Y-143982809D01*
X138969896Y-144004792D01*
X139120213Y-144155109D01*
X139292179Y-144280048D01*
X139292181Y-144280049D01*
X139292184Y-144280051D01*
X139481588Y-144376557D01*
X139683757Y-144442246D01*
X139893713Y-144475500D01*
X139893714Y-144475500D01*
X140106286Y-144475500D01*
X140106287Y-144475500D01*
X140316243Y-144442246D01*
X140518412Y-144376557D01*
X140707816Y-144280051D01*
X140879792Y-144155104D01*
X141018604Y-144016291D01*
X141079923Y-143982809D01*
X141149615Y-143987793D01*
X141205549Y-144029664D01*
X141211821Y-144038878D01*
X141215185Y-144044333D01*
X141215186Y-144044334D01*
X141307288Y-144193656D01*
X141431344Y-144317712D01*
X141580666Y-144409814D01*
X141747203Y-144464999D01*
X141849991Y-144475500D01*
X143150008Y-144475499D01*
X143252797Y-144464999D01*
X143419334Y-144409814D01*
X143568656Y-144317712D01*
X143692712Y-144193656D01*
X143784814Y-144044334D01*
X143839999Y-143877797D01*
X143850500Y-143775009D01*
X143850499Y-142224992D01*
X143839999Y-142122203D01*
X143784814Y-141955666D01*
X143692712Y-141806344D01*
X143568656Y-141682288D01*
X143473253Y-141623443D01*
X143419336Y-141590187D01*
X143419331Y-141590185D01*
X143417862Y-141589698D01*
X143252797Y-141535001D01*
X143252795Y-141535000D01*
X143150010Y-141524500D01*
X141849998Y-141524500D01*
X141849981Y-141524501D01*
X141747203Y-141535000D01*
X141747200Y-141535001D01*
X141580668Y-141590185D01*
X141580663Y-141590187D01*
X141431342Y-141682289D01*
X141307289Y-141806342D01*
X141211821Y-141961121D01*
X141159873Y-142007845D01*
X141090910Y-142019068D01*
X141026828Y-141991224D01*
X141018601Y-141983705D01*
X140879786Y-141844890D01*
X140707820Y-141719951D01*
X140518414Y-141623444D01*
X140518413Y-141623443D01*
X140518412Y-141623443D01*
X140316243Y-141557754D01*
X140316241Y-141557753D01*
X140316240Y-141557753D01*
X140154957Y-141532208D01*
X140106287Y-141524500D01*
X139893713Y-141524500D01*
X139845042Y-141532208D01*
X139683760Y-141557753D01*
X139683757Y-141557754D01*
X139547129Y-141602147D01*
X139477290Y-141604142D01*
X139421132Y-141571897D01*
X133387590Y-135538355D01*
X133387588Y-135538352D01*
X133268717Y-135419481D01*
X133268716Y-135419480D01*
X133181904Y-135369360D01*
X133181904Y-135369359D01*
X133181900Y-135369358D01*
X133131785Y-135340423D01*
X132979057Y-135299499D01*
X132820943Y-135299499D01*
X132813347Y-135299499D01*
X132813331Y-135299500D01*
X131830528Y-135299500D01*
X131672414Y-135299500D01*
X131519686Y-135340423D01*
X131519685Y-135340423D01*
X131519683Y-135340424D01*
X131519680Y-135340425D01*
X131469567Y-135369359D01*
X131469566Y-135369360D01*
X131426160Y-135394420D01*
X131382756Y-135419479D01*
X131382753Y-135419481D01*
X131270951Y-135531284D01*
X131270949Y-135531286D01*
X131102511Y-135699724D01*
X131041188Y-135733208D01*
X131028717Y-135735262D01*
X131010909Y-135737268D01*
X130996479Y-135738895D01*
X130996478Y-135738895D01*
X130826212Y-135798473D01*
X130673471Y-135894447D01*
X130545918Y-136022000D01*
X130449945Y-136174739D01*
X130390365Y-136345008D01*
X130390364Y-136345013D01*
X130370169Y-136524259D01*
X130370169Y-136524266D01*
X130390364Y-136703512D01*
X130390365Y-136703517D01*
X130449945Y-136873786D01*
X130545918Y-137026525D01*
X130673472Y-137154079D01*
X130826212Y-137250052D01*
X130996479Y-137309631D01*
X130996484Y-137309632D01*
X131175730Y-137329828D01*
X131175734Y-137329828D01*
X131175738Y-137329828D01*
X131354983Y-137309632D01*
X131354986Y-137309631D01*
X131354989Y-137309631D01*
X131525256Y-137250052D01*
X131544284Y-137238095D01*
X131611519Y-137219094D01*
X131651211Y-137226045D01*
X131820745Y-137285368D01*
X131907669Y-137295161D01*
X131972080Y-137322226D01*
X131981465Y-137330700D01*
X136470252Y-141819487D01*
X136503737Y-141880810D01*
X136498753Y-141950502D01*
X136472643Y-141991139D01*
X136473064Y-141991498D01*
X136470436Y-141994575D01*
X136470275Y-141994826D01*
X136469910Y-141995190D01*
X136469895Y-141995208D01*
X136350318Y-142159793D01*
X136294988Y-142202459D01*
X136225375Y-142208438D01*
X136163580Y-142175832D01*
X136149682Y-142159793D01*
X136030109Y-141995214D01*
X136030105Y-141995209D01*
X135879786Y-141844890D01*
X135707820Y-141719951D01*
X135518414Y-141623444D01*
X135518413Y-141623443D01*
X135518412Y-141623443D01*
X135316243Y-141557754D01*
X135316241Y-141557753D01*
X135316240Y-141557753D01*
X135154957Y-141532208D01*
X135106287Y-141524500D01*
X134893713Y-141524500D01*
X134845042Y-141532208D01*
X134683760Y-141557753D01*
X134481585Y-141623444D01*
X134292179Y-141719951D01*
X134120213Y-141844890D01*
X133969894Y-141995209D01*
X133969890Y-141995214D01*
X133850318Y-142159793D01*
X133794989Y-142202459D01*
X133725375Y-142208438D01*
X133663580Y-142175833D01*
X133649682Y-142159793D01*
X133530109Y-141995214D01*
X133530105Y-141995209D01*
X133379786Y-141844890D01*
X133207820Y-141719951D01*
X133018414Y-141623444D01*
X133018413Y-141623443D01*
X133018412Y-141623443D01*
X132816243Y-141557754D01*
X132816241Y-141557753D01*
X132816240Y-141557753D01*
X132654957Y-141532208D01*
X132606287Y-141524500D01*
X132393713Y-141524500D01*
X132345042Y-141532208D01*
X132183760Y-141557753D01*
X131981585Y-141623444D01*
X131792179Y-141719951D01*
X131620213Y-141844890D01*
X131469894Y-141995209D01*
X131469890Y-141995214D01*
X131350318Y-142159793D01*
X131294989Y-142202459D01*
X131225375Y-142208438D01*
X131163580Y-142175833D01*
X131149682Y-142159793D01*
X131030109Y-141995214D01*
X131030105Y-141995209D01*
X130879786Y-141844890D01*
X130707820Y-141719951D01*
X130518414Y-141623444D01*
X130518413Y-141623443D01*
X130518412Y-141623443D01*
X130316243Y-141557754D01*
X130316241Y-141557753D01*
X130316240Y-141557753D01*
X130154957Y-141532208D01*
X130106287Y-141524500D01*
X129893713Y-141524500D01*
X129845042Y-141532208D01*
X129683760Y-141557753D01*
X129481585Y-141623444D01*
X129292179Y-141719951D01*
X129120213Y-141844890D01*
X128969890Y-141995213D01*
X128844951Y-142167179D01*
X128748444Y-142356585D01*
X128682753Y-142558760D01*
X128649500Y-142768713D01*
X110850499Y-142768713D01*
X110850499Y-142224992D01*
X110839999Y-142122203D01*
X110784814Y-141955666D01*
X110692712Y-141806344D01*
X110568656Y-141682288D01*
X110473253Y-141623443D01*
X110419336Y-141590187D01*
X110419331Y-141590185D01*
X110417862Y-141589698D01*
X110252797Y-141535001D01*
X110252795Y-141535000D01*
X110150010Y-141524500D01*
X108849998Y-141524500D01*
X108849981Y-141524501D01*
X108747203Y-141535000D01*
X108747200Y-141535001D01*
X108580668Y-141590185D01*
X108580663Y-141590187D01*
X108431342Y-141682289D01*
X108307289Y-141806342D01*
X108211821Y-141961121D01*
X108159873Y-142007845D01*
X108090910Y-142019068D01*
X108026828Y-141991224D01*
X108018601Y-141983705D01*
X107879786Y-141844890D01*
X107707820Y-141719951D01*
X107518414Y-141623444D01*
X107518413Y-141623443D01*
X107518412Y-141623443D01*
X107316243Y-141557754D01*
X107316241Y-141557753D01*
X107316240Y-141557753D01*
X107154957Y-141532208D01*
X107106287Y-141524500D01*
X106893713Y-141524500D01*
X106845042Y-141532208D01*
X106683760Y-141557753D01*
X106481585Y-141623444D01*
X106292179Y-141719951D01*
X106120213Y-141844890D01*
X105969894Y-141995209D01*
X105969890Y-141995214D01*
X105850318Y-142159793D01*
X105794989Y-142202459D01*
X105725375Y-142208438D01*
X105663580Y-142175833D01*
X105649682Y-142159793D01*
X105530109Y-141995214D01*
X105530105Y-141995209D01*
X105379786Y-141844890D01*
X105207820Y-141719951D01*
X105018414Y-141623444D01*
X105018413Y-141623443D01*
X105018412Y-141623443D01*
X104816243Y-141557754D01*
X104816241Y-141557753D01*
X104816240Y-141557753D01*
X104654957Y-141532208D01*
X104606287Y-141524500D01*
X104393713Y-141524500D01*
X104345042Y-141532208D01*
X104183760Y-141557753D01*
X103981585Y-141623444D01*
X103792179Y-141719951D01*
X103620213Y-141844890D01*
X103469894Y-141995209D01*
X103469890Y-141995214D01*
X103350318Y-142159793D01*
X103294989Y-142202459D01*
X103225375Y-142208438D01*
X103163580Y-142175833D01*
X103149682Y-142159793D01*
X103030109Y-141995214D01*
X103030105Y-141995209D01*
X102879786Y-141844890D01*
X102707820Y-141719951D01*
X102518414Y-141623444D01*
X102518413Y-141623443D01*
X102518412Y-141623443D01*
X102316243Y-141557754D01*
X102316241Y-141557753D01*
X102316240Y-141557753D01*
X102154957Y-141532208D01*
X102106287Y-141524500D01*
X101893713Y-141524500D01*
X101845042Y-141532208D01*
X101683760Y-141557753D01*
X101481585Y-141623444D01*
X101292179Y-141719951D01*
X101120213Y-141844890D01*
X100969894Y-141995209D01*
X100969890Y-141995214D01*
X100850318Y-142159793D01*
X100794989Y-142202459D01*
X100725375Y-142208438D01*
X100663580Y-142175833D01*
X100649682Y-142159793D01*
X100530109Y-141995214D01*
X100530105Y-141995209D01*
X100379786Y-141844890D01*
X100207820Y-141719951D01*
X100018414Y-141623444D01*
X100018413Y-141623443D01*
X100018412Y-141623443D01*
X99816243Y-141557754D01*
X99816241Y-141557753D01*
X99816240Y-141557753D01*
X99654957Y-141532208D01*
X99606287Y-141524500D01*
X99393713Y-141524500D01*
X99345042Y-141532208D01*
X99183760Y-141557753D01*
X98981585Y-141623444D01*
X98792179Y-141719951D01*
X98620213Y-141844890D01*
X98469894Y-141995209D01*
X98469890Y-141995214D01*
X98350318Y-142159793D01*
X98294989Y-142202459D01*
X98225375Y-142208438D01*
X98163580Y-142175833D01*
X98149682Y-142159793D01*
X98030109Y-141995214D01*
X98030105Y-141995209D01*
X97879786Y-141844890D01*
X97707820Y-141719951D01*
X97518414Y-141623444D01*
X97518413Y-141623443D01*
X97518412Y-141623443D01*
X97316243Y-141557754D01*
X97316241Y-141557753D01*
X97316240Y-141557753D01*
X97154957Y-141532208D01*
X97106287Y-141524500D01*
X96893713Y-141524500D01*
X96845042Y-141532208D01*
X96683760Y-141557753D01*
X96481585Y-141623444D01*
X96292179Y-141719951D01*
X96120213Y-141844890D01*
X95969890Y-141995213D01*
X95844951Y-142167179D01*
X95748444Y-142356585D01*
X95682753Y-142558760D01*
X95649500Y-142768713D01*
X93500500Y-142768713D01*
X93500500Y-109849983D01*
X188024500Y-109849983D01*
X188024500Y-111150001D01*
X188024501Y-111150018D01*
X188035000Y-111252796D01*
X188035001Y-111252799D01*
X188090185Y-111419331D01*
X188090187Y-111419336D01*
X188182289Y-111568657D01*
X188306344Y-111692712D01*
X188461120Y-111788178D01*
X188507845Y-111840126D01*
X188519068Y-111909088D01*
X188491224Y-111973171D01*
X188483706Y-111981398D01*
X188344889Y-112120215D01*
X188219951Y-112292179D01*
X188123444Y-112481585D01*
X188057753Y-112683760D01*
X188024500Y-112893713D01*
X188024500Y-113106286D01*
X188057753Y-113316239D01*
X188123444Y-113518414D01*
X188219951Y-113707820D01*
X188344890Y-113879786D01*
X188495209Y-114030105D01*
X188495214Y-114030109D01*
X188659793Y-114149682D01*
X188702459Y-114205011D01*
X188708438Y-114274625D01*
X188675833Y-114336420D01*
X188659793Y-114350318D01*
X188495214Y-114469890D01*
X188495209Y-114469894D01*
X188344890Y-114620213D01*
X188219951Y-114792179D01*
X188123444Y-114981585D01*
X188057753Y-115183760D01*
X188024500Y-115393713D01*
X188024500Y-115606286D01*
X188057753Y-115816239D01*
X188123444Y-116018414D01*
X188219951Y-116207820D01*
X188344890Y-116379786D01*
X188495209Y-116530105D01*
X188495214Y-116530109D01*
X188659793Y-116649682D01*
X188702459Y-116705011D01*
X188708438Y-116774625D01*
X188675833Y-116836420D01*
X188659793Y-116850318D01*
X188495214Y-116969890D01*
X188495209Y-116969894D01*
X188344890Y-117120213D01*
X188219951Y-117292179D01*
X188123444Y-117481585D01*
X188057753Y-117683760D01*
X188024500Y-117893713D01*
X188024500Y-118106286D01*
X188057753Y-118316239D01*
X188123444Y-118518414D01*
X188219951Y-118707820D01*
X188344890Y-118879786D01*
X188495213Y-119030109D01*
X188667179Y-119155048D01*
X188667181Y-119155049D01*
X188667184Y-119155051D01*
X188856588Y-119251557D01*
X189058757Y-119317246D01*
X189268713Y-119350500D01*
X189268714Y-119350500D01*
X189731286Y-119350500D01*
X189731287Y-119350500D01*
X189941243Y-119317246D01*
X190143412Y-119251557D01*
X190332816Y-119155051D01*
X190354789Y-119139086D01*
X190504786Y-119030109D01*
X190504788Y-119030106D01*
X190504792Y-119030104D01*
X190655104Y-118879792D01*
X190655106Y-118879788D01*
X190655109Y-118879786D01*
X190780048Y-118707820D01*
X190780047Y-118707820D01*
X190780051Y-118707816D01*
X190876557Y-118518412D01*
X190942246Y-118316243D01*
X190975500Y-118106287D01*
X190975500Y-117893713D01*
X190942246Y-117683757D01*
X190876557Y-117481588D01*
X190780051Y-117292184D01*
X190780049Y-117292181D01*
X190780048Y-117292179D01*
X190655109Y-117120213D01*
X190504792Y-116969896D01*
X190504784Y-116969890D01*
X190340204Y-116850316D01*
X190297540Y-116794989D01*
X190291561Y-116725376D01*
X190324166Y-116663580D01*
X190340199Y-116649686D01*
X190504792Y-116530104D01*
X190655104Y-116379792D01*
X190655106Y-116379788D01*
X190655109Y-116379786D01*
X190780048Y-116207820D01*
X190780047Y-116207820D01*
X190780051Y-116207816D01*
X190876557Y-116018412D01*
X190942246Y-115816243D01*
X190975500Y-115606287D01*
X190975500Y-115393713D01*
X190942246Y-115183757D01*
X190876557Y-114981588D01*
X190780051Y-114792184D01*
X190780049Y-114792181D01*
X190780048Y-114792179D01*
X190655109Y-114620213D01*
X190504792Y-114469896D01*
X190504784Y-114469890D01*
X190340204Y-114350316D01*
X190297540Y-114294989D01*
X190291561Y-114225376D01*
X190324166Y-114163580D01*
X190340199Y-114149686D01*
X190504792Y-114030104D01*
X190655104Y-113879792D01*
X190655106Y-113879788D01*
X190655109Y-113879786D01*
X190780048Y-113707820D01*
X190780047Y-113707820D01*
X190780051Y-113707816D01*
X190876557Y-113518412D01*
X190942246Y-113316243D01*
X190975500Y-113106287D01*
X190975500Y-112893713D01*
X190942246Y-112683757D01*
X190876557Y-112481588D01*
X190780051Y-112292184D01*
X190780049Y-112292181D01*
X190780048Y-112292179D01*
X190655109Y-112120213D01*
X190516294Y-111981398D01*
X190482809Y-111920075D01*
X190487793Y-111850383D01*
X190529665Y-111794450D01*
X190538879Y-111788178D01*
X190544331Y-111784814D01*
X190544334Y-111784814D01*
X190693656Y-111692712D01*
X190817712Y-111568656D01*
X190909814Y-111419334D01*
X190964999Y-111252797D01*
X190975500Y-111150009D01*
X190975499Y-109849992D01*
X190964999Y-109747203D01*
X190909814Y-109580666D01*
X190817712Y-109431344D01*
X190693656Y-109307288D01*
X190544334Y-109215186D01*
X190377797Y-109160001D01*
X190377795Y-109160000D01*
X190275010Y-109149500D01*
X188724998Y-109149500D01*
X188724981Y-109149501D01*
X188622203Y-109160000D01*
X188622200Y-109160001D01*
X188455668Y-109215185D01*
X188455663Y-109215187D01*
X188306342Y-109307289D01*
X188182289Y-109431342D01*
X188090187Y-109580663D01*
X188090186Y-109580666D01*
X188035001Y-109747203D01*
X188035001Y-109747204D01*
X188035000Y-109747204D01*
X188024500Y-109849983D01*
X93500500Y-109849983D01*
X93500500Y-101499996D01*
X99631935Y-101499996D01*
X99631935Y-101500003D01*
X99652130Y-101679249D01*
X99652131Y-101679254D01*
X99711711Y-101849523D01*
X99807684Y-102002262D01*
X99935238Y-102129816D01*
X100087978Y-102225789D01*
X100258245Y-102285368D01*
X100258250Y-102285369D01*
X100437496Y-102305565D01*
X100437500Y-102305565D01*
X100437504Y-102305565D01*
X100616749Y-102285369D01*
X100616752Y-102285368D01*
X100616755Y-102285368D01*
X100787022Y-102225789D01*
X100939762Y-102129816D01*
X101067316Y-102002262D01*
X101163289Y-101849522D01*
X101222868Y-101679255D01*
X101243065Y-101500000D01*
X101222868Y-101320745D01*
X101163289Y-101150478D01*
X101067316Y-100997738D01*
X101067314Y-100997736D01*
X101067313Y-100997734D01*
X101065050Y-100994896D01*
X101064159Y-100992715D01*
X101063611Y-100991842D01*
X101063764Y-100991745D01*
X101038644Y-100930209D01*
X101038000Y-100917587D01*
X101038000Y-100793078D01*
X101057685Y-100726039D01*
X101110489Y-100680284D01*
X101179647Y-100670340D01*
X101227971Y-100688084D01*
X101243958Y-100698129D01*
X101287975Y-100725788D01*
X101458245Y-100785368D01*
X101458250Y-100785369D01*
X101637496Y-100805565D01*
X101637500Y-100805565D01*
X101637504Y-100805565D01*
X101816749Y-100785369D01*
X101816752Y-100785368D01*
X101816755Y-100785368D01*
X101987022Y-100725789D01*
X102139762Y-100629816D01*
X102267316Y-100502262D01*
X102363289Y-100349522D01*
X102422868Y-100179255D01*
X102432661Y-100092329D01*
X102459726Y-100027918D01*
X102468190Y-100018543D01*
X104073602Y-98413131D01*
X104134923Y-98379648D01*
X104204615Y-98384632D01*
X104260548Y-98426504D01*
X104272997Y-98447004D01*
X104274206Y-98449516D01*
X104370184Y-98602262D01*
X104497738Y-98729816D01*
X104650478Y-98825789D01*
X104820745Y-98885368D01*
X104820750Y-98885369D01*
X104999996Y-98905565D01*
X105000000Y-98905565D01*
X105000004Y-98905565D01*
X105179249Y-98885369D01*
X105179252Y-98885368D01*
X105179255Y-98885368D01*
X105349522Y-98825789D01*
X105502262Y-98729816D01*
X105629816Y-98602262D01*
X105725789Y-98449522D01*
X105785368Y-98279255D01*
X105805565Y-98100000D01*
X105785368Y-97920745D01*
X105725789Y-97750478D01*
X105629816Y-97597738D01*
X105629814Y-97597736D01*
X105629813Y-97597734D01*
X105627550Y-97594896D01*
X105626659Y-97592715D01*
X105626111Y-97591842D01*
X105626264Y-97591745D01*
X105601144Y-97530209D01*
X105600500Y-97517587D01*
X105600500Y-97482412D01*
X105620185Y-97415373D01*
X105627555Y-97405097D01*
X105629810Y-97402267D01*
X105629816Y-97402262D01*
X105725789Y-97249522D01*
X105785368Y-97079255D01*
X105805565Y-96900000D01*
X105785368Y-96720745D01*
X105725789Y-96550478D01*
X105629816Y-96397738D01*
X105502262Y-96270184D01*
X105421564Y-96219478D01*
X105349521Y-96174210D01*
X105227612Y-96131553D01*
X105170836Y-96090831D01*
X105145088Y-96025879D01*
X105158544Y-95957317D01*
X105163573Y-95948538D01*
X105225788Y-95849524D01*
X105225789Y-95849522D01*
X105285368Y-95679255D01*
X105305565Y-95500000D01*
X105302017Y-95468513D01*
X105285369Y-95320750D01*
X105285368Y-95320745D01*
X105274351Y-95289260D01*
X109905171Y-95289260D01*
X109905171Y-95289267D01*
X109925366Y-95468513D01*
X109925367Y-95468518D01*
X109984947Y-95638787D01*
X110010375Y-95679255D01*
X110080920Y-95791526D01*
X110208474Y-95919080D01*
X110361214Y-96015053D01*
X110408440Y-96031578D01*
X110531481Y-96074632D01*
X110531486Y-96074633D01*
X110710732Y-96094829D01*
X110710736Y-96094829D01*
X110710740Y-96094829D01*
X110889985Y-96074633D01*
X110889988Y-96074632D01*
X110889991Y-96074632D01*
X111060258Y-96015053D01*
X111212998Y-95919080D01*
X111340552Y-95791526D01*
X111436525Y-95638786D01*
X111496104Y-95468519D01*
X111505897Y-95381593D01*
X111532962Y-95317182D01*
X111541426Y-95307807D01*
X111577800Y-95271433D01*
X111639121Y-95237950D01*
X111651576Y-95235898D01*
X111738520Y-95226103D01*
X111908787Y-95166524D01*
X112061527Y-95070551D01*
X112189081Y-94942997D01*
X112285054Y-94790257D01*
X112344633Y-94619990D01*
X112359049Y-94492047D01*
X112364830Y-94440738D01*
X112364830Y-94440731D01*
X112344634Y-94261485D01*
X112344633Y-94261480D01*
X112285053Y-94091211D01*
X112189080Y-93938472D01*
X112061527Y-93810919D01*
X111908788Y-93714946D01*
X111738519Y-93655366D01*
X111738514Y-93655365D01*
X111559269Y-93635170D01*
X111559261Y-93635170D01*
X111380015Y-93655365D01*
X111380010Y-93655366D01*
X111209741Y-93714946D01*
X111057002Y-93810919D01*
X110929449Y-93938472D01*
X110833475Y-94091213D01*
X110773895Y-94261485D01*
X110764102Y-94348403D01*
X110737035Y-94412817D01*
X110728563Y-94422200D01*
X110692201Y-94458562D01*
X110630878Y-94492047D01*
X110618404Y-94494101D01*
X110531486Y-94503894D01*
X110361214Y-94563474D01*
X110208473Y-94659448D01*
X110080920Y-94787001D01*
X109984947Y-94939740D01*
X109925367Y-95110009D01*
X109925366Y-95110014D01*
X109905171Y-95289260D01*
X105274351Y-95289260D01*
X105252251Y-95226102D01*
X105225789Y-95150478D01*
X105129816Y-94997738D01*
X105002262Y-94870184D01*
X104875061Y-94790258D01*
X104849523Y-94774211D01*
X104679254Y-94714631D01*
X104679249Y-94714630D01*
X104500004Y-94694435D01*
X104499996Y-94694435D01*
X104320750Y-94714630D01*
X104320745Y-94714631D01*
X104150476Y-94774211D01*
X103997737Y-94870184D01*
X103870184Y-94997737D01*
X103774211Y-95150476D01*
X103714631Y-95320745D01*
X103714630Y-95320750D01*
X103694435Y-95499996D01*
X103694435Y-95500003D01*
X103714630Y-95679249D01*
X103714631Y-95679254D01*
X103774211Y-95849523D01*
X103829067Y-95936825D01*
X103848067Y-96004062D01*
X103827699Y-96070897D01*
X103811755Y-96090477D01*
X103682758Y-96219477D01*
X103682757Y-96219478D01*
X99956981Y-99945253D01*
X99956980Y-99945255D01*
X99914674Y-100018533D01*
X99906861Y-100032065D01*
X99906859Y-100032067D01*
X99877925Y-100082180D01*
X99877924Y-100082181D01*
X99877923Y-100082186D01*
X99836999Y-100234914D01*
X99836999Y-100234916D01*
X99836999Y-100403017D01*
X99837000Y-100403030D01*
X99837000Y-100917587D01*
X99817315Y-100984626D01*
X99809950Y-100994896D01*
X99807686Y-100997734D01*
X99711711Y-101150476D01*
X99652131Y-101320745D01*
X99652130Y-101320750D01*
X99631935Y-101499996D01*
X93500500Y-101499996D01*
X93500500Y-91999996D01*
X100894435Y-91999996D01*
X100894435Y-92000003D01*
X100914630Y-92179249D01*
X100914631Y-92179254D01*
X100974211Y-92349523D01*
X101070184Y-92502262D01*
X101197738Y-92629816D01*
X101350478Y-92725789D01*
X101520745Y-92785368D01*
X101520750Y-92785369D01*
X101699996Y-92805565D01*
X101700000Y-92805565D01*
X101700004Y-92805565D01*
X101879249Y-92785369D01*
X101879252Y-92785368D01*
X101879255Y-92785368D01*
X102049522Y-92725789D01*
X102202262Y-92629816D01*
X102202267Y-92629810D01*
X102205097Y-92627555D01*
X102207275Y-92626665D01*
X102208158Y-92626111D01*
X102208255Y-92626265D01*
X102269783Y-92601145D01*
X102282412Y-92600500D01*
X104417588Y-92600500D01*
X104484627Y-92620185D01*
X104494903Y-92627555D01*
X104497736Y-92629814D01*
X104497738Y-92629816D01*
X104650478Y-92725789D01*
X104820745Y-92785368D01*
X104820750Y-92785369D01*
X104999996Y-92805565D01*
X105000000Y-92805565D01*
X105000004Y-92805565D01*
X105179249Y-92785369D01*
X105179252Y-92785368D01*
X105179255Y-92785368D01*
X105349522Y-92725789D01*
X105502262Y-92629816D01*
X105629816Y-92502262D01*
X105725789Y-92349522D01*
X105785368Y-92179255D01*
X105785369Y-92179249D01*
X105805565Y-92000003D01*
X105805565Y-91999996D01*
X105785369Y-91820750D01*
X105785368Y-91820745D01*
X105774351Y-91789259D01*
X106405170Y-91789259D01*
X106405170Y-91789266D01*
X106425365Y-91968512D01*
X106425366Y-91968517D01*
X106484946Y-92138786D01*
X106580919Y-92291525D01*
X106708473Y-92419079D01*
X106861213Y-92515052D01*
X107031480Y-92574631D01*
X107031485Y-92574632D01*
X107210731Y-92594828D01*
X107210735Y-92594828D01*
X107210739Y-92594828D01*
X107389984Y-92574632D01*
X107389987Y-92574631D01*
X107389990Y-92574631D01*
X107560257Y-92515052D01*
X107712997Y-92419079D01*
X107713001Y-92419074D01*
X107715832Y-92416818D01*
X107718010Y-92415928D01*
X107718893Y-92415374D01*
X107718990Y-92415528D01*
X107780519Y-92390409D01*
X107787660Y-92390044D01*
X107789788Y-92389764D01*
X107789791Y-92389764D01*
X107942519Y-92348840D01*
X107992638Y-92319902D01*
X108079450Y-92269783D01*
X108191254Y-92157979D01*
X108191254Y-92157977D01*
X108201462Y-92147770D01*
X108201464Y-92147767D01*
X108327799Y-92021431D01*
X108389120Y-91987948D01*
X108401575Y-91985896D01*
X108488519Y-91976101D01*
X108658786Y-91916522D01*
X108811526Y-91820549D01*
X108939080Y-91692995D01*
X109035053Y-91540255D01*
X109094632Y-91369988D01*
X109094633Y-91369982D01*
X109114829Y-91190736D01*
X109114829Y-91190729D01*
X109094633Y-91011483D01*
X109094632Y-91011478D01*
X109038303Y-90850499D01*
X109035053Y-90841211D01*
X109034291Y-90839999D01*
X108995846Y-90778813D01*
X108939080Y-90688471D01*
X108811526Y-90560917D01*
X108658787Y-90464944D01*
X108488518Y-90405364D01*
X108488513Y-90405363D01*
X108309268Y-90385168D01*
X108309260Y-90385168D01*
X108130014Y-90405363D01*
X108130009Y-90405364D01*
X107959740Y-90464944D01*
X107807001Y-90560917D01*
X107679448Y-90688470D01*
X107583473Y-90841213D01*
X107552606Y-90929425D01*
X107511884Y-90986201D01*
X107446932Y-91011948D01*
X107394616Y-91005513D01*
X107389995Y-91003896D01*
X107389981Y-91003893D01*
X107210739Y-90983698D01*
X107210731Y-90983698D01*
X107031485Y-91003893D01*
X107031480Y-91003894D01*
X106861211Y-91063474D01*
X106708472Y-91159447D01*
X106580919Y-91287000D01*
X106484946Y-91439739D01*
X106425366Y-91610008D01*
X106425365Y-91610013D01*
X106405170Y-91789259D01*
X105774351Y-91789259D01*
X105725788Y-91650476D01*
X105629815Y-91497737D01*
X105502262Y-91370184D01*
X105349523Y-91274211D01*
X105179254Y-91214631D01*
X105179249Y-91214630D01*
X105000004Y-91194435D01*
X104999996Y-91194435D01*
X104820750Y-91214630D01*
X104820745Y-91214631D01*
X104650476Y-91274211D01*
X104497736Y-91370185D01*
X104494903Y-91372445D01*
X104492724Y-91373334D01*
X104491842Y-91373889D01*
X104491744Y-91373734D01*
X104430217Y-91398855D01*
X104417588Y-91399500D01*
X102282412Y-91399500D01*
X102215373Y-91379815D01*
X102205097Y-91372445D01*
X102202263Y-91370185D01*
X102202262Y-91370184D01*
X102145496Y-91334515D01*
X102049523Y-91274211D01*
X101879254Y-91214631D01*
X101879249Y-91214630D01*
X101700004Y-91194435D01*
X101699996Y-91194435D01*
X101520750Y-91214630D01*
X101520745Y-91214631D01*
X101350476Y-91274211D01*
X101197737Y-91370184D01*
X101070184Y-91497737D01*
X100974211Y-91650476D01*
X100914631Y-91820745D01*
X100914630Y-91820750D01*
X100894435Y-91999996D01*
X93500500Y-91999996D01*
X93500500Y-76893713D01*
X95524500Y-76893713D01*
X95524500Y-77106286D01*
X95557753Y-77316239D01*
X95623444Y-77518414D01*
X95719951Y-77707820D01*
X95844890Y-77879786D01*
X95995209Y-78030105D01*
X95995214Y-78030109D01*
X96159793Y-78149682D01*
X96202459Y-78205011D01*
X96208438Y-78274625D01*
X96175833Y-78336420D01*
X96159793Y-78350318D01*
X95995214Y-78469890D01*
X95995209Y-78469894D01*
X95844890Y-78620213D01*
X95719951Y-78792179D01*
X95623444Y-78981585D01*
X95557753Y-79183760D01*
X95524500Y-79393713D01*
X95524500Y-79606286D01*
X95557753Y-79816239D01*
X95623444Y-80018414D01*
X95719951Y-80207820D01*
X95844890Y-80379786D01*
X95995209Y-80530105D01*
X95995214Y-80530109D01*
X96159793Y-80649682D01*
X96202459Y-80705011D01*
X96208438Y-80774625D01*
X96175833Y-80836420D01*
X96159793Y-80850318D01*
X95995214Y-80969890D01*
X95995209Y-80969894D01*
X95844890Y-81120213D01*
X95719951Y-81292179D01*
X95623444Y-81481585D01*
X95557753Y-81683760D01*
X95543427Y-81774211D01*
X95524500Y-81893713D01*
X95524500Y-82106287D01*
X95557754Y-82316243D01*
X95617459Y-82499996D01*
X95623444Y-82518414D01*
X95719951Y-82707820D01*
X95844890Y-82879786D01*
X95995209Y-83030105D01*
X95995214Y-83030109D01*
X96159793Y-83149682D01*
X96202459Y-83205011D01*
X96208438Y-83274625D01*
X96175833Y-83336420D01*
X96159793Y-83350318D01*
X95995214Y-83469890D01*
X95995209Y-83469894D01*
X95844890Y-83620213D01*
X95719951Y-83792179D01*
X95623444Y-83981585D01*
X95557753Y-84183760D01*
X95524500Y-84393713D01*
X95524500Y-84606286D01*
X95557753Y-84816239D01*
X95623444Y-85018414D01*
X95719951Y-85207820D01*
X95844890Y-85379786D01*
X95995209Y-85530105D01*
X95995214Y-85530109D01*
X96159793Y-85649682D01*
X96202459Y-85705011D01*
X96208438Y-85774625D01*
X96175833Y-85836420D01*
X96159793Y-85850318D01*
X95995214Y-85969890D01*
X95995209Y-85969894D01*
X95844890Y-86120213D01*
X95719951Y-86292179D01*
X95623444Y-86481585D01*
X95557753Y-86683760D01*
X95524500Y-86893713D01*
X95524500Y-87106286D01*
X95557753Y-87316239D01*
X95623444Y-87518414D01*
X95719951Y-87707820D01*
X95844890Y-87879786D01*
X95983705Y-88018601D01*
X96017190Y-88079924D01*
X96012206Y-88149616D01*
X95970334Y-88205549D01*
X95961121Y-88211821D01*
X95806342Y-88307289D01*
X95682289Y-88431342D01*
X95590187Y-88580663D01*
X95590186Y-88580666D01*
X95535001Y-88747203D01*
X95535001Y-88747204D01*
X95535000Y-88747204D01*
X95524500Y-88849983D01*
X95524500Y-90150001D01*
X95524501Y-90150018D01*
X95535000Y-90252796D01*
X95535001Y-90252799D01*
X95578864Y-90385168D01*
X95590186Y-90419334D01*
X95682288Y-90568656D01*
X95806344Y-90692712D01*
X95955666Y-90784814D01*
X96122203Y-90839999D01*
X96224991Y-90850500D01*
X97775008Y-90850499D01*
X97877797Y-90839999D01*
X98044334Y-90784814D01*
X98193656Y-90692712D01*
X98317712Y-90568656D01*
X98409814Y-90419334D01*
X98464999Y-90252797D01*
X98475500Y-90150009D01*
X98475499Y-88849992D01*
X98464999Y-88747203D01*
X98409814Y-88580666D01*
X98317712Y-88431344D01*
X98193656Y-88307288D01*
X98044334Y-88215186D01*
X98044333Y-88215185D01*
X98038878Y-88211821D01*
X97992154Y-88159873D01*
X97980931Y-88090910D01*
X98008775Y-88026828D01*
X98016272Y-88018623D01*
X98155104Y-87879792D01*
X98280051Y-87707816D01*
X98376557Y-87518412D01*
X98442246Y-87316243D01*
X98475500Y-87106287D01*
X98475500Y-86893713D01*
X98442246Y-86683757D01*
X98376557Y-86481588D01*
X98280051Y-86292184D01*
X98280049Y-86292181D01*
X98280048Y-86292179D01*
X98155109Y-86120213D01*
X98004792Y-85969896D01*
X98004784Y-85969890D01*
X97840204Y-85850316D01*
X97797540Y-85794989D01*
X97791561Y-85725376D01*
X97824166Y-85663580D01*
X97840199Y-85649686D01*
X98004792Y-85530104D01*
X98155104Y-85379792D01*
X98155106Y-85379788D01*
X98155109Y-85379786D01*
X98280048Y-85207820D01*
X98280047Y-85207820D01*
X98280051Y-85207816D01*
X98376557Y-85018412D01*
X98442246Y-84816243D01*
X98475500Y-84606287D01*
X98475500Y-84393713D01*
X98442246Y-84183757D01*
X98376557Y-83981588D01*
X98335695Y-83901391D01*
X111088030Y-83901391D01*
X111088030Y-83901398D01*
X111108225Y-84080644D01*
X111108226Y-84080649D01*
X111167806Y-84250918D01*
X111257531Y-84393713D01*
X111263779Y-84403657D01*
X111391333Y-84531211D01*
X111481675Y-84587977D01*
X111510815Y-84606287D01*
X111544073Y-84627184D01*
X111714340Y-84686763D01*
X111714345Y-84686764D01*
X111893591Y-84706960D01*
X111893595Y-84706960D01*
X111893599Y-84706960D01*
X112072844Y-84686764D01*
X112072847Y-84686763D01*
X112072850Y-84686763D01*
X112243117Y-84627184D01*
X112395857Y-84531211D01*
X112523411Y-84403657D01*
X112619384Y-84250917D01*
X112678963Y-84080650D01*
X112688756Y-83993724D01*
X112715821Y-83929313D01*
X112724275Y-83919948D01*
X113007407Y-83636816D01*
X113068729Y-83603334D01*
X113095087Y-83600500D01*
X113913331Y-83600500D01*
X113913347Y-83600501D01*
X113920943Y-83600501D01*
X114079054Y-83600501D01*
X114079057Y-83600501D01*
X114231785Y-83559577D01*
X114281904Y-83530639D01*
X114368716Y-83480520D01*
X114480520Y-83368716D01*
X114480521Y-83368714D01*
X114512815Y-83336420D01*
X114518535Y-83330700D01*
X114579858Y-83297215D01*
X114592315Y-83295163D01*
X114679255Y-83285368D01*
X114849522Y-83225789D01*
X115002262Y-83129816D01*
X115129816Y-83002262D01*
X115225789Y-82849522D01*
X115285368Y-82679255D01*
X115303370Y-82519480D01*
X115305565Y-82500003D01*
X115305565Y-82499996D01*
X115285369Y-82320750D01*
X115285368Y-82320745D01*
X115225788Y-82150476D01*
X115129815Y-81997737D01*
X115002262Y-81870184D01*
X114849523Y-81774211D01*
X114679254Y-81714631D01*
X114679249Y-81714630D01*
X114500004Y-81694435D01*
X114499996Y-81694435D01*
X114320750Y-81714630D01*
X114320745Y-81714631D01*
X114150476Y-81774211D01*
X113997737Y-81870184D01*
X113870184Y-81997737D01*
X113774211Y-82150477D01*
X113716133Y-82316455D01*
X113675411Y-82373231D01*
X113610458Y-82398978D01*
X113599091Y-82399500D01*
X112881659Y-82399500D01*
X112881643Y-82399499D01*
X112874047Y-82399499D01*
X112715933Y-82399499D01*
X112636000Y-82420917D01*
X112563206Y-82440422D01*
X112525705Y-82462074D01*
X112525704Y-82462073D01*
X112426277Y-82519477D01*
X112426272Y-82519481D01*
X112314468Y-82631286D01*
X111875060Y-83070693D01*
X111813737Y-83104178D01*
X111801263Y-83106232D01*
X111714345Y-83116025D01*
X111544073Y-83175605D01*
X111391332Y-83271579D01*
X111263779Y-83399132D01*
X111167806Y-83551871D01*
X111108226Y-83722140D01*
X111108225Y-83722145D01*
X111088030Y-83901391D01*
X98335695Y-83901391D01*
X98280051Y-83792184D01*
X98280049Y-83792181D01*
X98280048Y-83792179D01*
X98155109Y-83620213D01*
X98004792Y-83469896D01*
X97907394Y-83399133D01*
X97840204Y-83350316D01*
X97797540Y-83294989D01*
X97791561Y-83225376D01*
X97824166Y-83163580D01*
X97840199Y-83149686D01*
X98004792Y-83030104D01*
X98155104Y-82879792D01*
X98155106Y-82879788D01*
X98155109Y-82879786D01*
X98280048Y-82707820D01*
X98280047Y-82707820D01*
X98280051Y-82707816D01*
X98376557Y-82518412D01*
X98442246Y-82316243D01*
X98475500Y-82106287D01*
X98475500Y-81893713D01*
X98442246Y-81683757D01*
X98376557Y-81481588D01*
X98280051Y-81292184D01*
X98280049Y-81292181D01*
X98280048Y-81292179D01*
X98155109Y-81120213D01*
X98004792Y-80969896D01*
X98004784Y-80969890D01*
X97840204Y-80850316D01*
X97797540Y-80794989D01*
X97791561Y-80725376D01*
X97824166Y-80663580D01*
X97840199Y-80649686D01*
X98004792Y-80530104D01*
X98155104Y-80379792D01*
X98155106Y-80379788D01*
X98155109Y-80379786D01*
X98280048Y-80207820D01*
X98280047Y-80207820D01*
X98280051Y-80207816D01*
X98376557Y-80018412D01*
X98442246Y-79816243D01*
X98475500Y-79606287D01*
X98475500Y-79393713D01*
X98442246Y-79183757D01*
X98376557Y-78981588D01*
X98280051Y-78792184D01*
X98280049Y-78792181D01*
X98280048Y-78792179D01*
X98155109Y-78620213D01*
X98004792Y-78469896D01*
X98004784Y-78469890D01*
X97840204Y-78350316D01*
X97797540Y-78294989D01*
X97791561Y-78225376D01*
X97824166Y-78163580D01*
X97840199Y-78149686D01*
X98004792Y-78030104D01*
X98155104Y-77879792D01*
X98155106Y-77879788D01*
X98155109Y-77879786D01*
X98280048Y-77707820D01*
X98280047Y-77707820D01*
X98280051Y-77707816D01*
X98376557Y-77518412D01*
X98442246Y-77316243D01*
X98475500Y-77106287D01*
X98475500Y-76893713D01*
X98442246Y-76683757D01*
X98376557Y-76481588D01*
X98280051Y-76292184D01*
X98280049Y-76292181D01*
X98280048Y-76292179D01*
X98155109Y-76120213D01*
X98004786Y-75969890D01*
X97832820Y-75844951D01*
X97643414Y-75748444D01*
X97643413Y-75748443D01*
X97643412Y-75748443D01*
X97441243Y-75682754D01*
X97441241Y-75682753D01*
X97441240Y-75682753D01*
X97279957Y-75657208D01*
X97231287Y-75649500D01*
X96768713Y-75649500D01*
X96720042Y-75657208D01*
X96558760Y-75682753D01*
X96356585Y-75748444D01*
X96167179Y-75844951D01*
X95995213Y-75969890D01*
X95844890Y-76120213D01*
X95719951Y-76292179D01*
X95623444Y-76481585D01*
X95557753Y-76683760D01*
X95524500Y-76893713D01*
X93500500Y-76893713D01*
X93500500Y-60549996D01*
X149194435Y-60549996D01*
X149194435Y-60550003D01*
X149214630Y-60729249D01*
X149214631Y-60729254D01*
X149274211Y-60899523D01*
X149368309Y-61049278D01*
X149370184Y-61052262D01*
X149497738Y-61179816D01*
X149650478Y-61275789D01*
X149697367Y-61292196D01*
X149754143Y-61332918D01*
X149779891Y-61397870D01*
X149780413Y-61409238D01*
X149780413Y-61917587D01*
X149760728Y-61984626D01*
X149753363Y-61994896D01*
X149751099Y-61997734D01*
X149655124Y-62150476D01*
X149595544Y-62320745D01*
X149595543Y-62320750D01*
X149575348Y-62499996D01*
X149575348Y-62500003D01*
X149595543Y-62679249D01*
X149595544Y-62679254D01*
X149655124Y-62849523D01*
X149751098Y-63002263D01*
X149753358Y-63005097D01*
X149754247Y-63007275D01*
X149754802Y-63008158D01*
X149754647Y-63008255D01*
X149779768Y-63069783D01*
X149780413Y-63082412D01*
X149780413Y-64111674D01*
X149760728Y-64178713D01*
X149753363Y-64188983D01*
X149751099Y-64191821D01*
X149655124Y-64344563D01*
X149595544Y-64514832D01*
X149595543Y-64514837D01*
X149575348Y-64694083D01*
X149575348Y-64694090D01*
X149595543Y-64873336D01*
X149595544Y-64873341D01*
X149655124Y-65043610D01*
X149717972Y-65143631D01*
X149751097Y-65196349D01*
X149878651Y-65323903D01*
X150031391Y-65419876D01*
X150201658Y-65479455D01*
X150201663Y-65479456D01*
X150380909Y-65499652D01*
X150380913Y-65499652D01*
X150380917Y-65499652D01*
X150560162Y-65479456D01*
X150560165Y-65479455D01*
X150560168Y-65479455D01*
X150730435Y-65419876D01*
X150883175Y-65323903D01*
X151010729Y-65196349D01*
X151010732Y-65196343D01*
X151015620Y-65191456D01*
X151076943Y-65157971D01*
X151146635Y-65162955D01*
X151202569Y-65204826D01*
X151226986Y-65270290D01*
X151220344Y-65320091D01*
X151180751Y-65433242D01*
X151180749Y-65433250D01*
X151160554Y-65612496D01*
X151160554Y-65612503D01*
X151180749Y-65791749D01*
X151180750Y-65791754D01*
X151240330Y-65962023D01*
X151336303Y-66114762D01*
X151463857Y-66242316D01*
X151616597Y-66338289D01*
X151786864Y-66397868D01*
X151786869Y-66397869D01*
X151966115Y-66418065D01*
X151966119Y-66418065D01*
X151966123Y-66418065D01*
X152145368Y-66397869D01*
X152145371Y-66397868D01*
X152145374Y-66397868D01*
X152315641Y-66338289D01*
X152468381Y-66242316D01*
X152595935Y-66114762D01*
X152691908Y-65962022D01*
X152751487Y-65791755D01*
X152771684Y-65612500D01*
X152751487Y-65433245D01*
X152729517Y-65370460D01*
X152725955Y-65300685D01*
X152758876Y-65241829D01*
X153629716Y-64370991D01*
X153708773Y-64234059D01*
X153749697Y-64081332D01*
X153749697Y-63923217D01*
X153749697Y-63915622D01*
X153749696Y-63915604D01*
X153749696Y-62086785D01*
X153749697Y-62086772D01*
X153749697Y-61918669D01*
X153708772Y-61765939D01*
X153708769Y-61765934D01*
X153629720Y-61629015D01*
X153629714Y-61629007D01*
X153049985Y-61049278D01*
X153016500Y-60987955D01*
X153021484Y-60918263D01*
X153063356Y-60862330D01*
X153128820Y-60837913D01*
X153137666Y-60837597D01*
X154426202Y-60837597D01*
X154493241Y-60857282D01*
X154538996Y-60910086D01*
X154543244Y-60920643D01*
X154549210Y-60937694D01*
X154645183Y-61090433D01*
X154772737Y-61217987D01*
X154925477Y-61313960D01*
X154979656Y-61332918D01*
X155095744Y-61373539D01*
X155095749Y-61373540D01*
X155274995Y-61393736D01*
X155274999Y-61393736D01*
X155275003Y-61393736D01*
X155454248Y-61373540D01*
X155454251Y-61373539D01*
X155454254Y-61373539D01*
X155624521Y-61313960D01*
X155777261Y-61217987D01*
X155904815Y-61090433D01*
X156000788Y-60937693D01*
X156060367Y-60767426D01*
X156063186Y-60742411D01*
X156076412Y-60625018D01*
X156103478Y-60560604D01*
X156161072Y-60521049D01*
X156230909Y-60518910D01*
X156290816Y-60554868D01*
X156304625Y-60572928D01*
X156370182Y-60677261D01*
X156370184Y-60677263D01*
X156497738Y-60804817D01*
X156588080Y-60861583D01*
X156648461Y-60899523D01*
X156650478Y-60900790D01*
X156707215Y-60920643D01*
X156820745Y-60960369D01*
X156820750Y-60960370D01*
X156999996Y-60980566D01*
X157000000Y-60980566D01*
X157000004Y-60980566D01*
X157179249Y-60960370D01*
X157179252Y-60960369D01*
X157179255Y-60960369D01*
X157349522Y-60900790D01*
X157502262Y-60804817D01*
X157629816Y-60677263D01*
X157725789Y-60524523D01*
X157785368Y-60354256D01*
X157785369Y-60354250D01*
X157805565Y-60175004D01*
X157805565Y-60174997D01*
X157785369Y-59995751D01*
X157785368Y-59995746D01*
X157725788Y-59825477D01*
X157663167Y-59725817D01*
X157629816Y-59672739D01*
X157611819Y-59654742D01*
X157578334Y-59593419D01*
X157575500Y-59567061D01*
X157575500Y-58899235D01*
X157575500Y-58899233D01*
X157559011Y-58837696D01*
X157536281Y-58752864D01*
X157460515Y-58621634D01*
X157353365Y-58514484D01*
X157353364Y-58514483D01*
X157349034Y-58510153D01*
X157349023Y-58510143D01*
X156423760Y-57584880D01*
X155849874Y-57010993D01*
X155816390Y-56949672D01*
X155821374Y-56879980D01*
X155863246Y-56824047D01*
X155928710Y-56799630D01*
X155951439Y-56800094D01*
X155999996Y-56805565D01*
X156000000Y-56805565D01*
X156000004Y-56805565D01*
X156179249Y-56785369D01*
X156179252Y-56785368D01*
X156179255Y-56785368D01*
X156349522Y-56725789D01*
X156502262Y-56629816D01*
X156629816Y-56502262D01*
X156725789Y-56349522D01*
X156785368Y-56179255D01*
X156805565Y-56000000D01*
X156785368Y-55820745D01*
X156785367Y-55820743D01*
X156784991Y-55817402D01*
X156797045Y-55748580D01*
X156820524Y-55715843D01*
X156942712Y-55593656D01*
X157034814Y-55444334D01*
X157089999Y-55277797D01*
X157100500Y-55175009D01*
X157100499Y-53824992D01*
X157089999Y-53722203D01*
X157034814Y-53555666D01*
X156942712Y-53406344D01*
X156818656Y-53282288D01*
X156669334Y-53190186D01*
X156502797Y-53135001D01*
X156502795Y-53135000D01*
X156400010Y-53124500D01*
X155599998Y-53124500D01*
X155599980Y-53124501D01*
X155497203Y-53135000D01*
X155497200Y-53135001D01*
X155330668Y-53190185D01*
X155330663Y-53190187D01*
X155181342Y-53282289D01*
X155057289Y-53406342D01*
X155017420Y-53470981D01*
X154965472Y-53517705D01*
X154896509Y-53528928D01*
X154832427Y-53501084D01*
X154824200Y-53493565D01*
X154716602Y-53385967D01*
X154576524Y-53284195D01*
X154422257Y-53205591D01*
X154257589Y-53152087D01*
X154257581Y-53152085D01*
X154250000Y-53150884D01*
X154250000Y-54219670D01*
X154230255Y-54199925D01*
X154144745Y-54150556D01*
X154049370Y-54125000D01*
X153950630Y-54125000D01*
X153855255Y-54150556D01*
X153769745Y-54199925D01*
X153750000Y-54219670D01*
X153750000Y-53150884D01*
X153749999Y-53150884D01*
X153742418Y-53152085D01*
X153742410Y-53152087D01*
X153577742Y-53205591D01*
X153423475Y-53284195D01*
X153283397Y-53385967D01*
X153160967Y-53508397D01*
X153059195Y-53648475D01*
X152980591Y-53802742D01*
X152927085Y-53967415D01*
X152900000Y-54138428D01*
X152900000Y-54250000D01*
X153719670Y-54250000D01*
X153699925Y-54269745D01*
X153650556Y-54355255D01*
X153625000Y-54450630D01*
X153625000Y-54549370D01*
X153650556Y-54644745D01*
X153699925Y-54730255D01*
X153719670Y-54750000D01*
X152900000Y-54750000D01*
X152900000Y-54861571D01*
X152927085Y-55032584D01*
X152980591Y-55197257D01*
X153059195Y-55351524D01*
X153160967Y-55491602D01*
X153283397Y-55614032D01*
X153423475Y-55715804D01*
X153444367Y-55726449D01*
X153495163Y-55774424D01*
X153511958Y-55842245D01*
X153492079Y-55900575D01*
X153493550Y-55901424D01*
X153489487Y-55908460D01*
X153489486Y-55908462D01*
X153466511Y-55948255D01*
X153413720Y-56039690D01*
X153374501Y-56186061D01*
X153374501Y-56955143D01*
X153355495Y-57021115D01*
X153274211Y-57150476D01*
X153214631Y-57320745D01*
X153213083Y-57327532D01*
X153211364Y-57327139D01*
X153187775Y-57383273D01*
X153130179Y-57422827D01*
X153077742Y-57428193D01*
X153000005Y-57419435D01*
X152999996Y-57419435D01*
X152820750Y-57439630D01*
X152820745Y-57439631D01*
X152650476Y-57499211D01*
X152497737Y-57595184D01*
X152370184Y-57722737D01*
X152274210Y-57875478D01*
X152214630Y-58045750D01*
X152204837Y-58132668D01*
X152177770Y-58197082D01*
X152169298Y-58206465D01*
X151293383Y-59082381D01*
X151181578Y-59194185D01*
X151181577Y-59194187D01*
X151140844Y-59264740D01*
X151131458Y-59280997D01*
X151131456Y-59280999D01*
X151102522Y-59331112D01*
X151102521Y-59331113D01*
X151102520Y-59331118D01*
X151061596Y-59483846D01*
X151061596Y-59483848D01*
X151061596Y-59651949D01*
X151061597Y-59651962D01*
X151061597Y-60423956D01*
X151061596Y-60423974D01*
X151061596Y-60462998D01*
X151041911Y-60530037D01*
X150989107Y-60575792D01*
X150919949Y-60585736D01*
X150856393Y-60556711D01*
X150849915Y-60550679D01*
X150830700Y-60531464D01*
X150797215Y-60470141D01*
X150795163Y-60457684D01*
X150785368Y-60370745D01*
X150725789Y-60200478D01*
X150719357Y-60190242D01*
X150629815Y-60047737D01*
X150502262Y-59920184D01*
X150349523Y-59824211D01*
X150179254Y-59764631D01*
X150179249Y-59764630D01*
X150000004Y-59744435D01*
X149999996Y-59744435D01*
X149820750Y-59764630D01*
X149820745Y-59764631D01*
X149650476Y-59824211D01*
X149497737Y-59920184D01*
X149370184Y-60047737D01*
X149274211Y-60200476D01*
X149214631Y-60370745D01*
X149214630Y-60370750D01*
X149194435Y-60549996D01*
X93500500Y-60549996D01*
X93500500Y-57999996D01*
X138056935Y-57999996D01*
X138056935Y-58000003D01*
X138077130Y-58179249D01*
X138077131Y-58179254D01*
X138136711Y-58349523D01*
X138171102Y-58404255D01*
X138232684Y-58502262D01*
X138360238Y-58629816D01*
X138512978Y-58725789D01*
X138590354Y-58752864D01*
X138683245Y-58785368D01*
X138683250Y-58785369D01*
X138862496Y-58805565D01*
X138862500Y-58805565D01*
X138862504Y-58805565D01*
X139041749Y-58785369D01*
X139041752Y-58785368D01*
X139041755Y-58785368D01*
X139212022Y-58725789D01*
X139364762Y-58629816D01*
X139492316Y-58502262D01*
X139588289Y-58349522D01*
X139647868Y-58179255D01*
X139647869Y-58179249D01*
X139649417Y-58172468D01*
X139652386Y-58173145D01*
X139674236Y-58121181D01*
X139731840Y-58081639D01*
X139770372Y-58075500D01*
X141817060Y-58075500D01*
X141884099Y-58095185D01*
X141904741Y-58111819D01*
X141922738Y-58129816D01*
X142075478Y-58225789D01*
X142224594Y-58277967D01*
X142245745Y-58285368D01*
X142245750Y-58285369D01*
X142424996Y-58305565D01*
X142425000Y-58305565D01*
X142425004Y-58305565D01*
X142604249Y-58285369D01*
X142604252Y-58285368D01*
X142604255Y-58285368D01*
X142774522Y-58225789D01*
X142927262Y-58129816D01*
X142945259Y-58111819D01*
X143006582Y-58078334D01*
X143032940Y-58075500D01*
X143467060Y-58075500D01*
X143534099Y-58095185D01*
X143554741Y-58111819D01*
X143572738Y-58129816D01*
X143725478Y-58225789D01*
X143874594Y-58277967D01*
X143895745Y-58285368D01*
X143895750Y-58285369D01*
X144074996Y-58305565D01*
X144075000Y-58305565D01*
X144075004Y-58305565D01*
X144254249Y-58285369D01*
X144254252Y-58285368D01*
X144254255Y-58285368D01*
X144424522Y-58225789D01*
X144577262Y-58129816D01*
X144704816Y-58002262D01*
X144800789Y-57849522D01*
X144860368Y-57679255D01*
X144860369Y-57679249D01*
X144880565Y-57500003D01*
X144880565Y-57499996D01*
X144860369Y-57320750D01*
X144860368Y-57320745D01*
X144818239Y-57200348D01*
X144800789Y-57150478D01*
X144704816Y-56997738D01*
X144577262Y-56870184D01*
X144424523Y-56774211D01*
X144254254Y-56714631D01*
X144254249Y-56714630D01*
X144075004Y-56694435D01*
X144074996Y-56694435D01*
X143895750Y-56714630D01*
X143895745Y-56714631D01*
X143725476Y-56774211D01*
X143572737Y-56870184D01*
X143554741Y-56888181D01*
X143493418Y-56921666D01*
X143467060Y-56924500D01*
X143032940Y-56924500D01*
X142965901Y-56904815D01*
X142945259Y-56888181D01*
X142927262Y-56870184D01*
X142774523Y-56774211D01*
X142604254Y-56714631D01*
X142604249Y-56714630D01*
X142425004Y-56694435D01*
X142424996Y-56694435D01*
X142245750Y-56714630D01*
X142245745Y-56714631D01*
X142075476Y-56774211D01*
X141922737Y-56870184D01*
X141904741Y-56888181D01*
X141843418Y-56921666D01*
X141817060Y-56924500D01*
X139286734Y-56924500D01*
X139140363Y-56963719D01*
X139009135Y-57039485D01*
X138883809Y-57164810D01*
X138822485Y-57198294D01*
X138810012Y-57200348D01*
X138683250Y-57214630D01*
X138512978Y-57274210D01*
X138360237Y-57370184D01*
X138232684Y-57497737D01*
X138136711Y-57650476D01*
X138077131Y-57820745D01*
X138077130Y-57820750D01*
X138056935Y-57999996D01*
X93500500Y-57999996D01*
X93500500Y-53031504D01*
X180680000Y-53031504D01*
X180680000Y-53430000D01*
X181380000Y-53430000D01*
X181380000Y-53930000D01*
X180680000Y-53930000D01*
X180680000Y-54328495D01*
X180718427Y-54521681D01*
X180718430Y-54521693D01*
X180793807Y-54703671D01*
X180793814Y-54703684D01*
X180903248Y-54867462D01*
X180903251Y-54867466D01*
X181042533Y-55006748D01*
X181042537Y-55006751D01*
X181206315Y-55116185D01*
X181206328Y-55116192D01*
X181388308Y-55191569D01*
X181430000Y-55199862D01*
X181430000Y-54396988D01*
X181439940Y-54414205D01*
X181495795Y-54470060D01*
X181564204Y-54509556D01*
X181640504Y-54530000D01*
X181719496Y-54530000D01*
X181795796Y-54509556D01*
X181864205Y-54470060D01*
X181920060Y-54414205D01*
X181930000Y-54396988D01*
X181930000Y-55199862D01*
X181971690Y-55191569D01*
X181971692Y-55191569D01*
X182153671Y-55116192D01*
X182153684Y-55116185D01*
X182317462Y-55006751D01*
X182317466Y-55006748D01*
X182456748Y-54867466D01*
X182456751Y-54867462D01*
X182566185Y-54703684D01*
X182566192Y-54703671D01*
X182641569Y-54521693D01*
X182641572Y-54521681D01*
X182679999Y-54328495D01*
X182680000Y-54328492D01*
X182680000Y-53930000D01*
X181980000Y-53930000D01*
X181980000Y-53430000D01*
X182575950Y-53430000D01*
X182642989Y-53449685D01*
X182683337Y-53491999D01*
X182689492Y-53502661D01*
X182689495Y-53502665D01*
X182787335Y-53600505D01*
X182907164Y-53669688D01*
X183040817Y-53705500D01*
X183040819Y-53705500D01*
X183179181Y-53705500D01*
X183179183Y-53705500D01*
X183312836Y-53669688D01*
X183432665Y-53600505D01*
X183530505Y-53502665D01*
X183599688Y-53382836D01*
X183635500Y-53249183D01*
X183635500Y-53110817D01*
X188364500Y-53110817D01*
X188364500Y-53249183D01*
X188373882Y-53284195D01*
X188400312Y-53382835D01*
X188400313Y-53382838D01*
X188469492Y-53502661D01*
X188469494Y-53502664D01*
X188469495Y-53502665D01*
X188567335Y-53600505D01*
X188687164Y-53669688D01*
X188820817Y-53705500D01*
X188820819Y-53705500D01*
X188959181Y-53705500D01*
X188959183Y-53705500D01*
X189092836Y-53669688D01*
X189212665Y-53600505D01*
X189310505Y-53502665D01*
X189316663Y-53491999D01*
X189367231Y-53443784D01*
X189424050Y-53430000D01*
X190020000Y-53430000D01*
X190020000Y-53930000D01*
X189320000Y-53930000D01*
X189320000Y-54328495D01*
X189358427Y-54521681D01*
X189358430Y-54521693D01*
X189433807Y-54703671D01*
X189433814Y-54703684D01*
X189543248Y-54867462D01*
X189543251Y-54867466D01*
X189682533Y-55006748D01*
X189682537Y-55006751D01*
X189846315Y-55116185D01*
X189846328Y-55116192D01*
X190028308Y-55191569D01*
X190070000Y-55199862D01*
X190070000Y-54396988D01*
X190079940Y-54414205D01*
X190135795Y-54470060D01*
X190204204Y-54509556D01*
X190280504Y-54530000D01*
X190359496Y-54530000D01*
X190435796Y-54509556D01*
X190504205Y-54470060D01*
X190560060Y-54414205D01*
X190570000Y-54396988D01*
X190570000Y-55199862D01*
X190611690Y-55191569D01*
X190611692Y-55191569D01*
X190793671Y-55116192D01*
X190793684Y-55116185D01*
X190957462Y-55006751D01*
X190957466Y-55006748D01*
X191096748Y-54867466D01*
X191096751Y-54867462D01*
X191206185Y-54703684D01*
X191206192Y-54703671D01*
X191281569Y-54521693D01*
X191281572Y-54521681D01*
X191319999Y-54328495D01*
X191320000Y-54328492D01*
X191320000Y-53930000D01*
X190620000Y-53930000D01*
X190620000Y-53430000D01*
X191320000Y-53430000D01*
X191320000Y-53031508D01*
X191319999Y-53031504D01*
X191281572Y-52838318D01*
X191281569Y-52838306D01*
X191206192Y-52656328D01*
X191206185Y-52656315D01*
X191096751Y-52492537D01*
X191096748Y-52492533D01*
X190957466Y-52353251D01*
X190957462Y-52353248D01*
X190793684Y-52243814D01*
X190793671Y-52243807D01*
X190611691Y-52168429D01*
X190611683Y-52168427D01*
X190570000Y-52160135D01*
X190570000Y-52963011D01*
X190560060Y-52945795D01*
X190504205Y-52889940D01*
X190435796Y-52850444D01*
X190359496Y-52830000D01*
X190280504Y-52830000D01*
X190204204Y-52850444D01*
X190135795Y-52889940D01*
X190079940Y-52945795D01*
X190070000Y-52963011D01*
X190070000Y-52160136D01*
X190069999Y-52160135D01*
X190028316Y-52168427D01*
X190028308Y-52168429D01*
X189846328Y-52243807D01*
X189846315Y-52243814D01*
X189682537Y-52353248D01*
X189682533Y-52353251D01*
X189543251Y-52492533D01*
X189543248Y-52492537D01*
X189433814Y-52656315D01*
X189433807Y-52656328D01*
X189409838Y-52714197D01*
X189365997Y-52768601D01*
X189299703Y-52790666D01*
X189232004Y-52773387D01*
X189219624Y-52763770D01*
X189219110Y-52764441D01*
X189212661Y-52759492D01*
X189092838Y-52690313D01*
X189092837Y-52690312D01*
X189092836Y-52690312D01*
X188959183Y-52654500D01*
X188820817Y-52654500D01*
X188687164Y-52690312D01*
X188687161Y-52690313D01*
X188567338Y-52759492D01*
X188567333Y-52759496D01*
X188469496Y-52857333D01*
X188469492Y-52857338D01*
X188400313Y-52977161D01*
X188400312Y-52977164D01*
X188364500Y-53110817D01*
X183635500Y-53110817D01*
X183599688Y-52977164D01*
X183565096Y-52917249D01*
X183530507Y-52857338D01*
X183530503Y-52857333D01*
X183432666Y-52759496D01*
X183432661Y-52759492D01*
X183312838Y-52690313D01*
X183312837Y-52690312D01*
X183312836Y-52690312D01*
X183179183Y-52654500D01*
X183040817Y-52654500D01*
X182907164Y-52690312D01*
X182907161Y-52690313D01*
X182787338Y-52759492D01*
X182780890Y-52764441D01*
X182778883Y-52761825D01*
X182730991Y-52787931D01*
X182661303Y-52782895D01*
X182605400Y-52740982D01*
X182590160Y-52714196D01*
X182566189Y-52656322D01*
X182566185Y-52656315D01*
X182456751Y-52492537D01*
X182456748Y-52492533D01*
X182317466Y-52353251D01*
X182317462Y-52353248D01*
X182153684Y-52243814D01*
X182153671Y-52243807D01*
X181971691Y-52168429D01*
X181971683Y-52168427D01*
X181930000Y-52160135D01*
X181930000Y-52963011D01*
X181920060Y-52945795D01*
X181864205Y-52889940D01*
X181795796Y-52850444D01*
X181719496Y-52830000D01*
X181640504Y-52830000D01*
X181564204Y-52850444D01*
X181495795Y-52889940D01*
X181439940Y-52945795D01*
X181430000Y-52963011D01*
X181430000Y-52160136D01*
X181429999Y-52160135D01*
X181388316Y-52168427D01*
X181388308Y-52168429D01*
X181206328Y-52243807D01*
X181206315Y-52243814D01*
X181042537Y-52353248D01*
X181042533Y-52353251D01*
X180903251Y-52492533D01*
X180903248Y-52492537D01*
X180793814Y-52656315D01*
X180793807Y-52656328D01*
X180718430Y-52838306D01*
X180718427Y-52838318D01*
X180680000Y-53031504D01*
X93500500Y-53031504D01*
X93500500Y-50199983D01*
X95649500Y-50199983D01*
X95649500Y-51800001D01*
X95649501Y-51800018D01*
X95660000Y-51902796D01*
X95660001Y-51902799D01*
X95684092Y-51975499D01*
X95715186Y-52069334D01*
X95807288Y-52218656D01*
X95931344Y-52342712D01*
X96080666Y-52434814D01*
X96247203Y-52489999D01*
X96349991Y-52500500D01*
X97650008Y-52500499D01*
X97752797Y-52489999D01*
X97919334Y-52434814D01*
X98068656Y-52342712D01*
X98192712Y-52218656D01*
X98284814Y-52069334D01*
X98284814Y-52069331D01*
X98288448Y-52063441D01*
X98340395Y-52016716D01*
X98409358Y-52005493D01*
X98473440Y-52033336D01*
X98481668Y-52040856D01*
X98620535Y-52179723D01*
X98620540Y-52179727D01*
X98792442Y-52304620D01*
X98981782Y-52401095D01*
X99183871Y-52466757D01*
X99250000Y-52477231D01*
X99250000Y-51433012D01*
X99307007Y-51465925D01*
X99434174Y-51500000D01*
X99565826Y-51500000D01*
X99692993Y-51465925D01*
X99750000Y-51433012D01*
X99750000Y-52477230D01*
X99816126Y-52466757D01*
X99816129Y-52466757D01*
X100018217Y-52401095D01*
X100207557Y-52304620D01*
X100379459Y-52179727D01*
X100379464Y-52179723D01*
X100529723Y-52029464D01*
X100529727Y-52029459D01*
X100654620Y-51857557D01*
X100751095Y-51668217D01*
X100816757Y-51466130D01*
X100816757Y-51466127D01*
X100850000Y-51256246D01*
X100850000Y-51250000D01*
X99933012Y-51250000D01*
X99965925Y-51192993D01*
X100000000Y-51065826D01*
X100000000Y-50934174D01*
X99965925Y-50807007D01*
X99933012Y-50750000D01*
X100850000Y-50750000D01*
X100850000Y-50743753D01*
X100816757Y-50533872D01*
X100816757Y-50533869D01*
X100751095Y-50331782D01*
X100696677Y-50224983D01*
X115149500Y-50224983D01*
X115149500Y-51775001D01*
X115149501Y-51775018D01*
X115160000Y-51877796D01*
X115160001Y-51877799D01*
X115215185Y-52044331D01*
X115215186Y-52044334D01*
X115307288Y-52193656D01*
X115431344Y-52317712D01*
X115580666Y-52409814D01*
X115747203Y-52464999D01*
X115849991Y-52475500D01*
X117150008Y-52475499D01*
X117252797Y-52464999D01*
X117419334Y-52409814D01*
X117568656Y-52317712D01*
X117692712Y-52193656D01*
X117784814Y-52044334D01*
X117784814Y-52044331D01*
X117788178Y-52038879D01*
X117840126Y-51992154D01*
X117909088Y-51980931D01*
X117973170Y-52008774D01*
X117981398Y-52016294D01*
X118120213Y-52155109D01*
X118292179Y-52280048D01*
X118292181Y-52280049D01*
X118292184Y-52280051D01*
X118481588Y-52376557D01*
X118683757Y-52442246D01*
X118893713Y-52475500D01*
X118893714Y-52475500D01*
X119106286Y-52475500D01*
X119106287Y-52475500D01*
X119316243Y-52442246D01*
X119518412Y-52376557D01*
X119707816Y-52280051D01*
X119757702Y-52243807D01*
X119879786Y-52155109D01*
X119879788Y-52155106D01*
X119879792Y-52155104D01*
X120030104Y-52004792D01*
X120149683Y-51840204D01*
X120205011Y-51797540D01*
X120274624Y-51791561D01*
X120336420Y-51824166D01*
X120350313Y-51840199D01*
X120400891Y-51909814D01*
X120469896Y-52004792D01*
X120620213Y-52155109D01*
X120792179Y-52280048D01*
X120792181Y-52280049D01*
X120792184Y-52280051D01*
X120981588Y-52376557D01*
X121183757Y-52442246D01*
X121393713Y-52475500D01*
X121393714Y-52475500D01*
X121606286Y-52475500D01*
X121606287Y-52475500D01*
X121816243Y-52442246D01*
X122018412Y-52376557D01*
X122207816Y-52280051D01*
X122257702Y-52243807D01*
X122379786Y-52155109D01*
X122379788Y-52155106D01*
X122379792Y-52155104D01*
X122530104Y-52004792D01*
X122530106Y-52004788D01*
X122530109Y-52004786D01*
X122655048Y-51832820D01*
X122655047Y-51832820D01*
X122655051Y-51832816D01*
X122751557Y-51643412D01*
X122817246Y-51441243D01*
X122850500Y-51231287D01*
X122850500Y-50768713D01*
X122817246Y-50558757D01*
X122751557Y-50356588D01*
X122655051Y-50167184D01*
X122655049Y-50167181D01*
X122655048Y-50167179D01*
X122530109Y-49995213D01*
X122379786Y-49844890D01*
X122214746Y-49724983D01*
X136649500Y-49724983D01*
X136649500Y-51275001D01*
X136649501Y-51275018D01*
X136660000Y-51377796D01*
X136660001Y-51377799D01*
X136705894Y-51516294D01*
X136715186Y-51544334D01*
X136807288Y-51693656D01*
X136931344Y-51817712D01*
X137080666Y-51909814D01*
X137247203Y-51964999D01*
X137349991Y-51975500D01*
X138650008Y-51975499D01*
X138752797Y-51964999D01*
X138919334Y-51909814D01*
X139068656Y-51817712D01*
X139192712Y-51693656D01*
X139284814Y-51544334D01*
X139284814Y-51544331D01*
X139288178Y-51538879D01*
X139340126Y-51492154D01*
X139409088Y-51480931D01*
X139473170Y-51508774D01*
X139481398Y-51516294D01*
X139620213Y-51655109D01*
X139792179Y-51780048D01*
X139792181Y-51780049D01*
X139792184Y-51780051D01*
X139981588Y-51876557D01*
X140183757Y-51942246D01*
X140393713Y-51975500D01*
X140393714Y-51975500D01*
X140606286Y-51975500D01*
X140606287Y-51975500D01*
X140816243Y-51942246D01*
X141018412Y-51876557D01*
X141207816Y-51780051D01*
X141229789Y-51764086D01*
X141379786Y-51655109D01*
X141379788Y-51655106D01*
X141379792Y-51655104D01*
X141530104Y-51504792D01*
X141649683Y-51340204D01*
X141705011Y-51297540D01*
X141774624Y-51291561D01*
X141836420Y-51324166D01*
X141850313Y-51340199D01*
X141952560Y-51480931D01*
X141969896Y-51504792D01*
X142120213Y-51655109D01*
X142292179Y-51780048D01*
X142292181Y-51780049D01*
X142292184Y-51780051D01*
X142481588Y-51876557D01*
X142683757Y-51942246D01*
X142893713Y-51975500D01*
X142893714Y-51975500D01*
X143106286Y-51975500D01*
X143106287Y-51975500D01*
X143316243Y-51942246D01*
X143518412Y-51876557D01*
X143707816Y-51780051D01*
X143729789Y-51764086D01*
X143879786Y-51655109D01*
X143879788Y-51655106D01*
X143879792Y-51655104D01*
X144030104Y-51504792D01*
X144149683Y-51340204D01*
X144205011Y-51297540D01*
X144274624Y-51291561D01*
X144336420Y-51324166D01*
X144350313Y-51340199D01*
X144452560Y-51480931D01*
X144469896Y-51504792D01*
X144620213Y-51655109D01*
X144792179Y-51780048D01*
X144792181Y-51780049D01*
X144792184Y-51780051D01*
X144981588Y-51876557D01*
X145183757Y-51942246D01*
X145393713Y-51975500D01*
X145393714Y-51975500D01*
X145606286Y-51975500D01*
X145606287Y-51975500D01*
X145816243Y-51942246D01*
X146018412Y-51876557D01*
X146207816Y-51780051D01*
X146229789Y-51764086D01*
X146379786Y-51655109D01*
X146379788Y-51655106D01*
X146379792Y-51655104D01*
X146530104Y-51504792D01*
X146530106Y-51504788D01*
X146530109Y-51504786D01*
X146655048Y-51332820D01*
X146655047Y-51332820D01*
X146655051Y-51332816D01*
X146751557Y-51143412D01*
X146817246Y-50941243D01*
X146850500Y-50731287D01*
X146850500Y-50268713D01*
X146817246Y-50058757D01*
X146751557Y-49856588D01*
X146655051Y-49667184D01*
X146655049Y-49667181D01*
X146655048Y-49667179D01*
X146530109Y-49495213D01*
X146379786Y-49344890D01*
X146207820Y-49219951D01*
X146168631Y-49199983D01*
X172149500Y-49199983D01*
X172149500Y-50800001D01*
X172149501Y-50800018D01*
X172160000Y-50902796D01*
X172160001Y-50902799D01*
X172205894Y-51041294D01*
X172215186Y-51069334D01*
X172307288Y-51218656D01*
X172431344Y-51342712D01*
X172580666Y-51434814D01*
X172747203Y-51489999D01*
X172849991Y-51500500D01*
X174150008Y-51500499D01*
X174252797Y-51489999D01*
X174419334Y-51434814D01*
X174568656Y-51342712D01*
X174692712Y-51218656D01*
X174784814Y-51069334D01*
X174784814Y-51069331D01*
X174788178Y-51063879D01*
X174840126Y-51017154D01*
X174909088Y-51005931D01*
X174973170Y-51033774D01*
X174981398Y-51041294D01*
X175120213Y-51180109D01*
X175292179Y-51305048D01*
X175292181Y-51305049D01*
X175292184Y-51305051D01*
X175481588Y-51401557D01*
X175683757Y-51467246D01*
X175893713Y-51500500D01*
X175893714Y-51500500D01*
X176106286Y-51500500D01*
X176106287Y-51500500D01*
X176316243Y-51467246D01*
X176518412Y-51401557D01*
X176707816Y-51305051D01*
X176783588Y-51250000D01*
X176879786Y-51180109D01*
X176879788Y-51180106D01*
X176879792Y-51180104D01*
X177030104Y-51029792D01*
X177030106Y-51029788D01*
X177030109Y-51029786D01*
X177155048Y-50857820D01*
X177155047Y-50857820D01*
X177155051Y-50857816D01*
X177251557Y-50668412D01*
X177317246Y-50466243D01*
X177350500Y-50256287D01*
X177350500Y-49743713D01*
X177317246Y-49533757D01*
X177251557Y-49331588D01*
X177155051Y-49142184D01*
X177155049Y-49142181D01*
X177155048Y-49142179D01*
X177052843Y-49001504D01*
X180680000Y-49001504D01*
X180680000Y-49250000D01*
X181380000Y-49250000D01*
X181380000Y-49750000D01*
X180680000Y-49750000D01*
X180680000Y-49998495D01*
X180718427Y-50191681D01*
X180718430Y-50191693D01*
X180793807Y-50373671D01*
X180793814Y-50373684D01*
X180903248Y-50537462D01*
X180903251Y-50537466D01*
X181042533Y-50676748D01*
X181042537Y-50676751D01*
X181206315Y-50786185D01*
X181206328Y-50786192D01*
X181388308Y-50861569D01*
X181430000Y-50869862D01*
X181430000Y-50066988D01*
X181439940Y-50084205D01*
X181495795Y-50140060D01*
X181564204Y-50179556D01*
X181640504Y-50200000D01*
X181719496Y-50200000D01*
X181795796Y-50179556D01*
X181864205Y-50140060D01*
X181920060Y-50084205D01*
X181930000Y-50066988D01*
X181930000Y-50869862D01*
X181971690Y-50861569D01*
X181971692Y-50861569D01*
X182153671Y-50786192D01*
X182153684Y-50786185D01*
X182317462Y-50676751D01*
X182317466Y-50676748D01*
X182456748Y-50537466D01*
X182456751Y-50537462D01*
X182566185Y-50373684D01*
X182566192Y-50373671D01*
X182641569Y-50191693D01*
X182641572Y-50191681D01*
X182679999Y-49998495D01*
X182680000Y-49998492D01*
X182680000Y-49750000D01*
X181980000Y-49750000D01*
X181980000Y-49250000D01*
X182680000Y-49250000D01*
X182680000Y-49001508D01*
X182679999Y-49001504D01*
X189320000Y-49001504D01*
X189320000Y-49250000D01*
X190020000Y-49250000D01*
X190020000Y-49750000D01*
X189320000Y-49750000D01*
X189320000Y-49998495D01*
X189358427Y-50191681D01*
X189358430Y-50191693D01*
X189433807Y-50373671D01*
X189433814Y-50373684D01*
X189543248Y-50537462D01*
X189543251Y-50537466D01*
X189682533Y-50676748D01*
X189682537Y-50676751D01*
X189846315Y-50786185D01*
X189846328Y-50786192D01*
X190028308Y-50861569D01*
X190070000Y-50869862D01*
X190070000Y-50066988D01*
X190079940Y-50084205D01*
X190135795Y-50140060D01*
X190204204Y-50179556D01*
X190280504Y-50200000D01*
X190359496Y-50200000D01*
X190435796Y-50179556D01*
X190504205Y-50140060D01*
X190560060Y-50084205D01*
X190570000Y-50066988D01*
X190570000Y-50869862D01*
X190611690Y-50861569D01*
X190611692Y-50861569D01*
X190793671Y-50786192D01*
X190793684Y-50786185D01*
X190957462Y-50676751D01*
X190957466Y-50676748D01*
X191096748Y-50537466D01*
X191096751Y-50537462D01*
X191206185Y-50373684D01*
X191206192Y-50373671D01*
X191281569Y-50191693D01*
X191281572Y-50191681D01*
X191319999Y-49998495D01*
X191320000Y-49998492D01*
X191320000Y-49750000D01*
X190620000Y-49750000D01*
X190620000Y-49250000D01*
X191320000Y-49250000D01*
X191320000Y-49001508D01*
X191319999Y-49001504D01*
X191281572Y-48808318D01*
X191281569Y-48808306D01*
X191206192Y-48626328D01*
X191206185Y-48626315D01*
X191096751Y-48462537D01*
X191096748Y-48462533D01*
X190957466Y-48323251D01*
X190957462Y-48323248D01*
X190793684Y-48213814D01*
X190793671Y-48213807D01*
X190611691Y-48138429D01*
X190611683Y-48138427D01*
X190570000Y-48130135D01*
X190570000Y-48933011D01*
X190560060Y-48915795D01*
X190504205Y-48859940D01*
X190435796Y-48820444D01*
X190359496Y-48800000D01*
X190280504Y-48800000D01*
X190204204Y-48820444D01*
X190135795Y-48859940D01*
X190079940Y-48915795D01*
X190070000Y-48933011D01*
X190070000Y-48130136D01*
X190069999Y-48130135D01*
X190028316Y-48138427D01*
X190028308Y-48138429D01*
X189846328Y-48213807D01*
X189846315Y-48213814D01*
X189682537Y-48323248D01*
X189682533Y-48323251D01*
X189543251Y-48462533D01*
X189543248Y-48462537D01*
X189433814Y-48626315D01*
X189433807Y-48626328D01*
X189358430Y-48808306D01*
X189358427Y-48808318D01*
X189320000Y-49001504D01*
X182679999Y-49001504D01*
X182641572Y-48808318D01*
X182641569Y-48808306D01*
X182566192Y-48626328D01*
X182566185Y-48626315D01*
X182456751Y-48462537D01*
X182456748Y-48462533D01*
X182317466Y-48323251D01*
X182317462Y-48323248D01*
X182153684Y-48213814D01*
X182153671Y-48213807D01*
X181971691Y-48138429D01*
X181971683Y-48138427D01*
X181930000Y-48130135D01*
X181930000Y-48933011D01*
X181920060Y-48915795D01*
X181864205Y-48859940D01*
X181795796Y-48820444D01*
X181719496Y-48800000D01*
X181640504Y-48800000D01*
X181564204Y-48820444D01*
X181495795Y-48859940D01*
X181439940Y-48915795D01*
X181430000Y-48933011D01*
X181430000Y-48130136D01*
X181429999Y-48130135D01*
X181388316Y-48138427D01*
X181388308Y-48138429D01*
X181206328Y-48213807D01*
X181206315Y-48213814D01*
X181042537Y-48323248D01*
X181042533Y-48323251D01*
X180903251Y-48462533D01*
X180903248Y-48462537D01*
X180793814Y-48626315D01*
X180793807Y-48626328D01*
X180718430Y-48808306D01*
X180718427Y-48808318D01*
X180680000Y-49001504D01*
X177052843Y-49001504D01*
X177030109Y-48970213D01*
X176879786Y-48819890D01*
X176707820Y-48694951D01*
X176518414Y-48598444D01*
X176518413Y-48598443D01*
X176518412Y-48598443D01*
X176316243Y-48532754D01*
X176316241Y-48532753D01*
X176316240Y-48532753D01*
X176154957Y-48507208D01*
X176106287Y-48499500D01*
X175893713Y-48499500D01*
X175845042Y-48507208D01*
X175683760Y-48532753D01*
X175481585Y-48598444D01*
X175292179Y-48694951D01*
X175120215Y-48819889D01*
X174981398Y-48958706D01*
X174920075Y-48992190D01*
X174850383Y-48987206D01*
X174794450Y-48945334D01*
X174788178Y-48936120D01*
X174692712Y-48781344D01*
X174568657Y-48657289D01*
X174568656Y-48657288D01*
X174419334Y-48565186D01*
X174252797Y-48510001D01*
X174252795Y-48510000D01*
X174150010Y-48499500D01*
X172849998Y-48499500D01*
X172849981Y-48499501D01*
X172747203Y-48510000D01*
X172747200Y-48510001D01*
X172580668Y-48565185D01*
X172580663Y-48565187D01*
X172431342Y-48657289D01*
X172307289Y-48781342D01*
X172215187Y-48930663D01*
X172215185Y-48930668D01*
X172210325Y-48945334D01*
X172160001Y-49097203D01*
X172160001Y-49097204D01*
X172160000Y-49097204D01*
X172149500Y-49199983D01*
X146168631Y-49199983D01*
X146018414Y-49123444D01*
X146018413Y-49123443D01*
X146018412Y-49123443D01*
X145816243Y-49057754D01*
X145816241Y-49057753D01*
X145816240Y-49057753D01*
X145654957Y-49032208D01*
X145606287Y-49024500D01*
X145393713Y-49024500D01*
X145345042Y-49032208D01*
X145183760Y-49057753D01*
X144981585Y-49123444D01*
X144792179Y-49219951D01*
X144620213Y-49344890D01*
X144469894Y-49495209D01*
X144469890Y-49495214D01*
X144350318Y-49659793D01*
X144294989Y-49702459D01*
X144225375Y-49708438D01*
X144163580Y-49675833D01*
X144149682Y-49659793D01*
X144030109Y-49495214D01*
X144030105Y-49495209D01*
X143879786Y-49344890D01*
X143707820Y-49219951D01*
X143518414Y-49123444D01*
X143518413Y-49123443D01*
X143518412Y-49123443D01*
X143316243Y-49057754D01*
X143316241Y-49057753D01*
X143316240Y-49057753D01*
X143154957Y-49032208D01*
X143106287Y-49024500D01*
X142893713Y-49024500D01*
X142845042Y-49032208D01*
X142683760Y-49057753D01*
X142481585Y-49123444D01*
X142292179Y-49219951D01*
X142120213Y-49344890D01*
X141969894Y-49495209D01*
X141969890Y-49495214D01*
X141850318Y-49659793D01*
X141794989Y-49702459D01*
X141725375Y-49708438D01*
X141663580Y-49675833D01*
X141649682Y-49659793D01*
X141530109Y-49495214D01*
X141530105Y-49495209D01*
X141379786Y-49344890D01*
X141207820Y-49219951D01*
X141018414Y-49123444D01*
X141018413Y-49123443D01*
X141018412Y-49123443D01*
X140816243Y-49057754D01*
X140816241Y-49057753D01*
X140816240Y-49057753D01*
X140654957Y-49032208D01*
X140606287Y-49024500D01*
X140393713Y-49024500D01*
X140345042Y-49032208D01*
X140183760Y-49057753D01*
X139981585Y-49123444D01*
X139792179Y-49219951D01*
X139620215Y-49344889D01*
X139481398Y-49483706D01*
X139420075Y-49517190D01*
X139350383Y-49512206D01*
X139294450Y-49470334D01*
X139288178Y-49461120D01*
X139192712Y-49306344D01*
X139068657Y-49182289D01*
X139068656Y-49182288D01*
X138930712Y-49097204D01*
X138919336Y-49090187D01*
X138919331Y-49090185D01*
X138917862Y-49089698D01*
X138752797Y-49035001D01*
X138752795Y-49035000D01*
X138650010Y-49024500D01*
X137349998Y-49024500D01*
X137349981Y-49024501D01*
X137247203Y-49035000D01*
X137247200Y-49035001D01*
X137080668Y-49090185D01*
X137080663Y-49090187D01*
X136931342Y-49182289D01*
X136807289Y-49306342D01*
X136715187Y-49455663D01*
X136715185Y-49455668D01*
X136692377Y-49524500D01*
X136660001Y-49622203D01*
X136660001Y-49622204D01*
X136660000Y-49622204D01*
X136649500Y-49724983D01*
X122214746Y-49724983D01*
X122207820Y-49719951D01*
X122018414Y-49623444D01*
X122018413Y-49623443D01*
X122018412Y-49623443D01*
X121816243Y-49557754D01*
X121816241Y-49557753D01*
X121816240Y-49557753D01*
X121654957Y-49532208D01*
X121606287Y-49524500D01*
X121393713Y-49524500D01*
X121345042Y-49532208D01*
X121183760Y-49557753D01*
X120981585Y-49623444D01*
X120792179Y-49719951D01*
X120620213Y-49844890D01*
X120469894Y-49995209D01*
X120469890Y-49995214D01*
X120350318Y-50159793D01*
X120294989Y-50202459D01*
X120225375Y-50208438D01*
X120163580Y-50175833D01*
X120149682Y-50159793D01*
X120030109Y-49995214D01*
X120030105Y-49995209D01*
X119879786Y-49844890D01*
X119707820Y-49719951D01*
X119518414Y-49623444D01*
X119518413Y-49623443D01*
X119518412Y-49623443D01*
X119316243Y-49557754D01*
X119316241Y-49557753D01*
X119316240Y-49557753D01*
X119154957Y-49532208D01*
X119106287Y-49524500D01*
X118893713Y-49524500D01*
X118845042Y-49532208D01*
X118683760Y-49557753D01*
X118481585Y-49623444D01*
X118292179Y-49719951D01*
X118120215Y-49844889D01*
X117981398Y-49983706D01*
X117920075Y-50017190D01*
X117850383Y-50012206D01*
X117794450Y-49970334D01*
X117788178Y-49961120D01*
X117692712Y-49806344D01*
X117568657Y-49682289D01*
X117568656Y-49682288D01*
X117419334Y-49590186D01*
X117252797Y-49535001D01*
X117252795Y-49535000D01*
X117150010Y-49524500D01*
X115849998Y-49524500D01*
X115849981Y-49524501D01*
X115747203Y-49535000D01*
X115747200Y-49535001D01*
X115580668Y-49590185D01*
X115580663Y-49590187D01*
X115431342Y-49682289D01*
X115307289Y-49806342D01*
X115215187Y-49955663D01*
X115215185Y-49955668D01*
X115202938Y-49992628D01*
X115160001Y-50122203D01*
X115160001Y-50122204D01*
X115160000Y-50122204D01*
X115149500Y-50224983D01*
X100696677Y-50224983D01*
X100654620Y-50142442D01*
X100529727Y-49970540D01*
X100529723Y-49970535D01*
X100379464Y-49820276D01*
X100379459Y-49820272D01*
X100207557Y-49695379D01*
X100018215Y-49598903D01*
X99816124Y-49533241D01*
X99750000Y-49522768D01*
X99750000Y-50566988D01*
X99692993Y-50534075D01*
X99565826Y-50500000D01*
X99434174Y-50500000D01*
X99307007Y-50534075D01*
X99250000Y-50566988D01*
X99250000Y-49522768D01*
X99249999Y-49522768D01*
X99183875Y-49533241D01*
X98981784Y-49598903D01*
X98792442Y-49695379D01*
X98620541Y-49820271D01*
X98481668Y-49959144D01*
X98420345Y-49992628D01*
X98350653Y-49987644D01*
X98294720Y-49945772D01*
X98288448Y-49936558D01*
X98192712Y-49781344D01*
X98068657Y-49657289D01*
X98068656Y-49657288D01*
X97919334Y-49565186D01*
X97752797Y-49510001D01*
X97752795Y-49510000D01*
X97650010Y-49499500D01*
X96349998Y-49499500D01*
X96349981Y-49499501D01*
X96247203Y-49510000D01*
X96247200Y-49510001D01*
X96080668Y-49565185D01*
X96080663Y-49565187D01*
X95931342Y-49657289D01*
X95807289Y-49781342D01*
X95715187Y-49930663D01*
X95715185Y-49930668D01*
X95693797Y-49995213D01*
X95660001Y-50097203D01*
X95660001Y-50097204D01*
X95660000Y-50097204D01*
X95649500Y-50199983D01*
X93500500Y-50199983D01*
X93500500Y-47624500D01*
X93520185Y-47557461D01*
X93572989Y-47511706D01*
X93624500Y-47500500D01*
X192375500Y-47500500D01*
X192442539Y-47520185D01*
G37*
G04 #@! TD.AperFunction*
M02*
