%TF.GenerationSoftware,KiCad,Pcbnew,8.0.2*%
%TF.CreationDate,2025-03-06T10:36:19-07:00*%
%TF.ProjectId,kicad,6b696361-642e-46b6-9963-61645f706362,4*%
%TF.SameCoordinates,Original*%
%TF.FileFunction,Drillmap*%
%TF.FilePolarity,Positive*%
%FSLAX45Y45*%
G04 Gerber Fmt 4.5, Leading zero omitted, Abs format (unit mm)*
G04 Created by KiCad (PCBNEW 8.0.2) date 2025-03-06 10:36:19*
%MOMM*%
%LPD*%
G01*
G04 APERTURE LIST*
%ADD10C,0.050000*%
%ADD11C,0.200000*%
%ADD12C,0.100000*%
G04 APERTURE END LIST*
D10*
X12657000Y-9375000D02*
X15837000Y-9375000D01*
X15837000Y-13107000D01*
X12657000Y-13107000D01*
X12657000Y-9375000D01*
D11*
D12*
X12957500Y-11892500D02*
X12972500Y-11907500D01*
X12972500Y-11892500D02*
X12957500Y-11907500D01*
X12957500Y-11169571D02*
X12972500Y-11184571D01*
X12972500Y-11169571D02*
X12957500Y-11184571D01*
X13037500Y-11237500D02*
X13052500Y-11252500D01*
X13052500Y-11237500D02*
X13037500Y-11252500D01*
X13070620Y-10534380D02*
X13085620Y-10549380D01*
X13085620Y-10534380D02*
X13070620Y-10549380D01*
X13115784Y-12149216D02*
X13130784Y-12164216D01*
X13130784Y-12149216D02*
X13115784Y-12164216D01*
X13275784Y-12374216D02*
X13290784Y-12389216D01*
X13290784Y-12374216D02*
X13275784Y-12389216D01*
X13294216Y-12505784D02*
X13309216Y-12520784D01*
X13309216Y-12505784D02*
X13294216Y-12520784D01*
X13322500Y-11902500D02*
X13337500Y-11917500D01*
X13337500Y-11902500D02*
X13322500Y-11917500D01*
X13372500Y-10416069D02*
X13387500Y-10431069D01*
X13387500Y-10416069D02*
X13372500Y-10431069D01*
X13438215Y-10481784D02*
X13453215Y-10496784D01*
X13453215Y-10481784D02*
X13438215Y-10496784D01*
X13512500Y-10992500D02*
X13527500Y-11007500D01*
X13527500Y-10992500D02*
X13512500Y-11007500D01*
X13572500Y-10042500D02*
X13587500Y-10057500D01*
X13587500Y-10042500D02*
X13572500Y-10057500D01*
X13582500Y-10922500D02*
X13597500Y-10937500D01*
X13597500Y-10922500D02*
X13582500Y-10937500D01*
X13592500Y-10792500D02*
X13607500Y-10807500D01*
X13607500Y-10792500D02*
X13592500Y-10807500D01*
X13622500Y-11882500D02*
X13637500Y-11897500D01*
X13637500Y-11882500D02*
X13622500Y-11897500D01*
X13637500Y-10952500D02*
X13652500Y-10967500D01*
X13652500Y-10952500D02*
X13637500Y-10967500D01*
X13666138Y-10460227D02*
X13681138Y-10475227D01*
X13681138Y-10460227D02*
X13666138Y-10475227D01*
X13682500Y-11882500D02*
X13697500Y-11897500D01*
X13697500Y-11882500D02*
X13682500Y-11897500D01*
X13707500Y-10442500D02*
X13722500Y-10457500D01*
X13722500Y-10442500D02*
X13707500Y-10457500D01*
X13726823Y-11168177D02*
X13741823Y-11183177D01*
X13741823Y-11168177D02*
X13726823Y-11183177D01*
X13730000Y-11075045D02*
X13745000Y-11090045D01*
X13745000Y-11075045D02*
X13730000Y-11090045D01*
X13732417Y-11115433D02*
X13747417Y-11130433D01*
X13747417Y-11115433D02*
X13732417Y-11130433D01*
X13732500Y-11032500D02*
X13747500Y-11047500D01*
X13747500Y-11032500D02*
X13732500Y-11047500D01*
X13742500Y-10692500D02*
X13757500Y-10707500D01*
X13757500Y-10692500D02*
X13742500Y-10707500D01*
X13772500Y-11532500D02*
X13787500Y-11547500D01*
X13787500Y-11532500D02*
X13772500Y-11547500D01*
X13782500Y-11882500D02*
X13797500Y-11897500D01*
X13797500Y-11882500D02*
X13782500Y-11897500D01*
X13872500Y-10632500D02*
X13887500Y-10647500D01*
X13887500Y-10632500D02*
X13872500Y-10647500D01*
X13882500Y-11882500D02*
X13897500Y-11897500D01*
X13897500Y-11882500D02*
X13882500Y-11897500D01*
X13892500Y-10267500D02*
X13907500Y-10282500D01*
X13907500Y-10267500D02*
X13892500Y-10282500D01*
X13912500Y-12282500D02*
X13927500Y-12297500D01*
X13927500Y-12282500D02*
X13912500Y-12297500D01*
X13957500Y-10642500D02*
X13972500Y-10657500D01*
X13972500Y-10642500D02*
X13957500Y-10657500D01*
X13982500Y-11882500D02*
X13997500Y-11897500D01*
X13997500Y-11882500D02*
X13982500Y-11897500D01*
X13997500Y-11568697D02*
X14012500Y-11583697D01*
X14012500Y-11568697D02*
X13997500Y-11583697D01*
X14022500Y-11642500D02*
X14037500Y-11657500D01*
X14037500Y-11642500D02*
X14022500Y-11657500D01*
X14022500Y-12132500D02*
X14037500Y-12147500D01*
X14037500Y-12132500D02*
X14022500Y-12147500D01*
X14072500Y-12272500D02*
X14087500Y-12287500D01*
X14087500Y-12272500D02*
X14072500Y-12287500D01*
X14112500Y-12282500D02*
X14127500Y-12297500D01*
X14127500Y-12282500D02*
X14112500Y-12297500D01*
X14150958Y-10608948D02*
X14165958Y-10623948D01*
X14165958Y-10608948D02*
X14150958Y-10623948D01*
X14227500Y-10032500D02*
X14242500Y-10047500D01*
X14242500Y-10032500D02*
X14227500Y-10047500D01*
X14264500Y-12142500D02*
X14279500Y-12157500D01*
X14279500Y-12142500D02*
X14264500Y-12157500D01*
X14282500Y-11952500D02*
X14297500Y-11967500D01*
X14297500Y-11952500D02*
X14282500Y-11967500D01*
X14322500Y-12082500D02*
X14337500Y-12097500D01*
X14337500Y-12082500D02*
X14322500Y-12097500D01*
X14352500Y-10452500D02*
X14367500Y-10467500D01*
X14367500Y-10452500D02*
X14352500Y-10467500D01*
X14402500Y-11952500D02*
X14417500Y-11967500D01*
X14417500Y-11952500D02*
X14402500Y-11967500D01*
X14412500Y-11577500D02*
X14427500Y-11592500D01*
X14427500Y-11577500D02*
X14412500Y-11592500D01*
X14462500Y-12272500D02*
X14477500Y-12287500D01*
X14477500Y-12272500D02*
X14462500Y-12287500D01*
X14512500Y-11842500D02*
X14527500Y-11857500D01*
X14527500Y-11842500D02*
X14512500Y-11857500D01*
X14522500Y-10572500D02*
X14537500Y-10587500D01*
X14537500Y-10572500D02*
X14522500Y-10587500D01*
X14552500Y-10472500D02*
X14567500Y-10487500D01*
X14567500Y-10472500D02*
X14552500Y-10487500D01*
X14584143Y-10336069D02*
X14599143Y-10351069D01*
X14599143Y-10336069D02*
X14584143Y-10351069D01*
X14602500Y-11572500D02*
X14617500Y-11587500D01*
X14617500Y-11572500D02*
X14602500Y-11587500D01*
X14648301Y-11152500D02*
X14663301Y-11167500D01*
X14663301Y-11152500D02*
X14648301Y-11167500D01*
X14648302Y-10874380D02*
X14663302Y-10889380D01*
X14663302Y-10874380D02*
X14648302Y-10889380D01*
X14652500Y-10342500D02*
X14667500Y-10357500D01*
X14667500Y-10342500D02*
X14652500Y-10357500D01*
X14660671Y-10129351D02*
X14675671Y-10144351D01*
X14675671Y-10129351D02*
X14660671Y-10144351D01*
X14662500Y-11062500D02*
X14677500Y-11077500D01*
X14677500Y-11062500D02*
X14662500Y-11077500D01*
X14663338Y-10911447D02*
X14678338Y-10926447D01*
X14678338Y-10911447D02*
X14663338Y-10926447D01*
X14682500Y-11452500D02*
X14697500Y-11467500D01*
X14697500Y-11452500D02*
X14682500Y-11467500D01*
X14691009Y-12857450D02*
X14706009Y-12872450D01*
X14706009Y-12857450D02*
X14691009Y-12872450D01*
X14712500Y-10532500D02*
X14727500Y-10547500D01*
X14727500Y-10532500D02*
X14712500Y-10547500D01*
X14712500Y-10572500D02*
X14727500Y-10587500D01*
X14727500Y-10572500D02*
X14712500Y-10587500D01*
X14714611Y-10616723D02*
X14729611Y-10631723D01*
X14729611Y-10616723D02*
X14714611Y-10631723D01*
X14725846Y-11011270D02*
X14740846Y-11026270D01*
X14740846Y-11011270D02*
X14725846Y-11026270D01*
X14732500Y-10652500D02*
X14747500Y-10667500D01*
X14747500Y-10652500D02*
X14732500Y-10667500D01*
X14733301Y-11367500D02*
X14748301Y-11382500D01*
X14748301Y-11367500D02*
X14733301Y-11382500D01*
X14762500Y-11782500D02*
X14777500Y-11797500D01*
X14777500Y-11782500D02*
X14762500Y-11797500D01*
X14775106Y-12900106D02*
X14790106Y-12915106D01*
X14790106Y-12900106D02*
X14775106Y-12915106D01*
X14782500Y-11332500D02*
X14797500Y-11347500D01*
X14797500Y-11332500D02*
X14782500Y-11347500D01*
X14783301Y-10770000D02*
X14798301Y-10785000D01*
X14798301Y-10770000D02*
X14783301Y-10785000D01*
X14783301Y-10921311D02*
X14798301Y-10936311D01*
X14798301Y-10921311D02*
X14783301Y-10936311D01*
X14783301Y-11263267D02*
X14798301Y-11278267D01*
X14798301Y-11263267D02*
X14783301Y-11278267D01*
X14788301Y-11132500D02*
X14803301Y-11147500D01*
X14803301Y-11132500D02*
X14788301Y-11147500D01*
X14812500Y-10192500D02*
X14827500Y-10207500D01*
X14827500Y-10192500D02*
X14812500Y-10207500D01*
X14842500Y-10442500D02*
X14857500Y-10457500D01*
X14857500Y-10442500D02*
X14842500Y-10457500D01*
X14872500Y-10152500D02*
X14887500Y-10167500D01*
X14887500Y-10152500D02*
X14872500Y-10167500D01*
X14872500Y-12302500D02*
X14887500Y-12317500D01*
X14887500Y-12302500D02*
X14872500Y-12317500D01*
X14922500Y-12302500D02*
X14937500Y-12317500D01*
X14937500Y-12302500D02*
X14922500Y-12317500D01*
X14982500Y-10682500D02*
X14997500Y-10697500D01*
X14997500Y-10682500D02*
X14982500Y-10697500D01*
X14982500Y-11088371D02*
X14997500Y-11103371D01*
X14997500Y-11088371D02*
X14982500Y-11103371D01*
X14992500Y-10892500D02*
X15007500Y-10907500D01*
X15007500Y-10892500D02*
X14992500Y-10907500D01*
X14997500Y-10623000D02*
X15012500Y-10638000D01*
X15012500Y-10623000D02*
X14997500Y-10638000D01*
X15002500Y-11612500D02*
X15017500Y-11627500D01*
X15017500Y-11612500D02*
X15002500Y-11627500D01*
X15014688Y-11365782D02*
X15029688Y-11380782D01*
X15029688Y-11365782D02*
X15014688Y-11380782D01*
X15020466Y-11435466D02*
X15035466Y-11450466D01*
X15035466Y-11435466D02*
X15020466Y-11450466D01*
X15022500Y-12352500D02*
X15037500Y-12367500D01*
X15037500Y-12352500D02*
X15022500Y-12367500D01*
X15042500Y-10272500D02*
X15057500Y-10287500D01*
X15057500Y-10272500D02*
X15042500Y-10287500D01*
X15058106Y-10418106D02*
X15073106Y-10433106D01*
X15073106Y-10418106D02*
X15058106Y-10433106D01*
X15061000Y-11084000D02*
X15076000Y-11099000D01*
X15076000Y-11084000D02*
X15061000Y-11099000D01*
X15061000Y-11302500D02*
X15076000Y-11317500D01*
X15076000Y-11302500D02*
X15061000Y-11317500D01*
X15102500Y-10792500D02*
X15117500Y-10807500D01*
X15117500Y-10792500D02*
X15102500Y-10807500D01*
X15102500Y-10872500D02*
X15117500Y-10887500D01*
X15117500Y-10872500D02*
X15102500Y-10887500D01*
X15112500Y-10932500D02*
X15127500Y-10947500D01*
X15127500Y-10932500D02*
X15112500Y-10947500D01*
X15112500Y-11387500D02*
X15127500Y-11402500D01*
X15127500Y-11387500D02*
X15112500Y-11402500D01*
X15122500Y-12352500D02*
X15137500Y-12367500D01*
X15137500Y-12352500D02*
X15122500Y-12367500D01*
X15141000Y-10892500D02*
X15156000Y-10907500D01*
X15156000Y-10892500D02*
X15141000Y-10907500D01*
X15141000Y-11057500D02*
X15156000Y-11072500D01*
X15156000Y-11057500D02*
X15141000Y-11072500D01*
X15142500Y-11202500D02*
X15157500Y-11217500D01*
X15157500Y-11202500D02*
X15142500Y-11217500D01*
X15149572Y-10680428D02*
X15164572Y-10695428D01*
X15164572Y-10680428D02*
X15149572Y-10695428D01*
X15202500Y-10412500D02*
X15217500Y-10427500D01*
X15217500Y-10412500D02*
X15202500Y-10427500D01*
X15212500Y-11452500D02*
X15227500Y-11467500D01*
X15227500Y-11452500D02*
X15212500Y-11467500D01*
X15222500Y-12352500D02*
X15237500Y-12367500D01*
X15237500Y-12352500D02*
X15222500Y-12367500D01*
X15223817Y-11383817D02*
X15238817Y-11398817D01*
X15238817Y-11383817D02*
X15223817Y-11398817D01*
X15232500Y-11122500D02*
X15247500Y-11137500D01*
X15247500Y-11122500D02*
X15232500Y-11137500D01*
X15233284Y-10271716D02*
X15248284Y-10286716D01*
X15248284Y-10271716D02*
X15233284Y-10286716D01*
X15242500Y-10412500D02*
X15257500Y-10427500D01*
X15257500Y-10412500D02*
X15242500Y-10427500D01*
X15282500Y-11922500D02*
X15297500Y-11937500D01*
X15297500Y-11922500D02*
X15282500Y-11937500D01*
X15342500Y-11172500D02*
X15357500Y-11187500D01*
X15357500Y-11172500D02*
X15342500Y-11187500D01*
X15352500Y-10917500D02*
X15367500Y-10932500D01*
X15367500Y-10917500D02*
X15352500Y-10932500D01*
X15352500Y-11086220D02*
X15367500Y-11101220D01*
X15367500Y-11086220D02*
X15352500Y-11101220D01*
X15354028Y-10334642D02*
X15369028Y-10349642D01*
X15369028Y-10334642D02*
X15354028Y-10349642D01*
X15363489Y-11047759D02*
X15378489Y-11062759D01*
X15378489Y-11047759D02*
X15363489Y-11062759D01*
X15392500Y-11312500D02*
X15407500Y-11327500D01*
X15407500Y-11312500D02*
X15392500Y-11327500D01*
X15397500Y-10737500D02*
X15412500Y-10752500D01*
X15412500Y-10737500D02*
X15397500Y-10752500D01*
X15402500Y-10192500D02*
X15417500Y-10207500D01*
X15417500Y-10192500D02*
X15402500Y-10207500D01*
X15402500Y-10982500D02*
X15417500Y-10997500D01*
X15417500Y-10982500D02*
X15402500Y-10997500D01*
X15442500Y-11192500D02*
X15457500Y-11207500D01*
X15457500Y-11192500D02*
X15442500Y-11207500D01*
X15522500Y-12072500D02*
X15537500Y-12087500D01*
X15537500Y-12072500D02*
X15522500Y-12087500D01*
X15684274Y-10464275D02*
X15699274Y-10479275D01*
X15699274Y-10464275D02*
X15684274Y-10479275D01*
X15767000Y-10262500D02*
X15782000Y-10277500D01*
X15782000Y-10262500D02*
X15767000Y-10277500D01*
X12775000Y-10280000D02*
G75*
G02*
X12745000Y-10280000I-15000J0D01*
G01*
X12745000Y-10280000D02*
G75*
G02*
X12775000Y-10280000I15000J0D01*
G01*
X12775000Y-12300000D02*
G75*
G02*
X12745000Y-12300000I-15000J0D01*
G01*
X12745000Y-12300000D02*
G75*
G02*
X12775000Y-12300000I15000J0D01*
G01*
X12785000Y-9640000D02*
G75*
G02*
X12755000Y-9640000I-15000J0D01*
G01*
X12755000Y-9640000D02*
G75*
G02*
X12785000Y-9640000I15000J0D01*
G01*
X12795000Y-9910000D02*
G75*
G02*
X12765000Y-9910000I-15000J0D01*
G01*
X12765000Y-9910000D02*
G75*
G02*
X12795000Y-9910000I15000J0D01*
G01*
X12795000Y-12810000D02*
G75*
G02*
X12765000Y-12810000I-15000J0D01*
G01*
X12765000Y-12810000D02*
G75*
G02*
X12795000Y-12810000I15000J0D01*
G01*
X12968193Y-10501807D02*
G75*
G02*
X12938193Y-10501807I-15000J0D01*
G01*
X12938193Y-10501807D02*
G75*
G02*
X12968193Y-10501807I15000J0D01*
G01*
X13055000Y-12510000D02*
G75*
G02*
X13025000Y-12510000I-15000J0D01*
G01*
X13025000Y-12510000D02*
G75*
G02*
X13055000Y-12510000I15000J0D01*
G01*
X13055000Y-12580000D02*
G75*
G02*
X13025000Y-12580000I-15000J0D01*
G01*
X13025000Y-12580000D02*
G75*
G02*
X13055000Y-12580000I15000J0D01*
G01*
X13215000Y-12130000D02*
G75*
G02*
X13185000Y-12130000I-15000J0D01*
G01*
X13185000Y-12130000D02*
G75*
G02*
X13215000Y-12130000I15000J0D01*
G01*
X13235000Y-9930000D02*
G75*
G02*
X13205000Y-9930000I-15000J0D01*
G01*
X13205000Y-9930000D02*
G75*
G02*
X13235000Y-9930000I15000J0D01*
G01*
X13245000Y-12980000D02*
G75*
G02*
X13215000Y-12980000I-15000J0D01*
G01*
X13215000Y-12980000D02*
G75*
G02*
X13245000Y-12980000I15000J0D01*
G01*
X13330000Y-11000000D02*
G75*
G02*
X13300000Y-11000000I-15000J0D01*
G01*
X13300000Y-11000000D02*
G75*
G02*
X13330000Y-11000000I15000J0D01*
G01*
X13345000Y-10060000D02*
G75*
G02*
X13315000Y-10060000I-15000J0D01*
G01*
X13315000Y-10060000D02*
G75*
G02*
X13345000Y-10060000I15000J0D01*
G01*
X13354289Y-11315000D02*
G75*
G02*
X13324289Y-11315000I-15000J0D01*
G01*
X13324289Y-11315000D02*
G75*
G02*
X13354289Y-11315000I15000J0D01*
G01*
X13365000Y-12980000D02*
G75*
G02*
X13335000Y-12980000I-15000J0D01*
G01*
X13335000Y-12980000D02*
G75*
G02*
X13365000Y-12980000I15000J0D01*
G01*
X13375000Y-12230000D02*
G75*
G02*
X13345000Y-12230000I-15000J0D01*
G01*
X13345000Y-12230000D02*
G75*
G02*
X13375000Y-12230000I15000J0D01*
G01*
X13380000Y-11135000D02*
G75*
G02*
X13350000Y-11135000I-15000J0D01*
G01*
X13350000Y-11135000D02*
G75*
G02*
X13380000Y-11135000I15000J0D01*
G01*
X13385000Y-12140000D02*
G75*
G02*
X13355000Y-12140000I-15000J0D01*
G01*
X13355000Y-12140000D02*
G75*
G02*
X13385000Y-12140000I15000J0D01*
G01*
X13395000Y-10985000D02*
G75*
G02*
X13365000Y-10985000I-15000J0D01*
G01*
X13365000Y-10985000D02*
G75*
G02*
X13395000Y-10985000I15000J0D01*
G01*
X13415000Y-9860000D02*
G75*
G02*
X13385000Y-9860000I-15000J0D01*
G01*
X13385000Y-9860000D02*
G75*
G02*
X13415000Y-9860000I15000J0D01*
G01*
X13455607Y-10847799D02*
G75*
G02*
X13425607Y-10847799I-15000J0D01*
G01*
X13425607Y-10847799D02*
G75*
G02*
X13455607Y-10847799I15000J0D01*
G01*
X13465000Y-12390000D02*
G75*
G02*
X13435000Y-12390000I-15000J0D01*
G01*
X13435000Y-12390000D02*
G75*
G02*
X13465000Y-12390000I15000J0D01*
G01*
X13470693Y-11004307D02*
G75*
G02*
X13440693Y-11004307I-15000J0D01*
G01*
X13440693Y-11004307D02*
G75*
G02*
X13470693Y-11004307I15000J0D01*
G01*
X13475000Y-12140000D02*
G75*
G02*
X13445000Y-12140000I-15000J0D01*
G01*
X13445000Y-12140000D02*
G75*
G02*
X13475000Y-12140000I15000J0D01*
G01*
X13535000Y-11800000D02*
G75*
G02*
X13505000Y-11800000I-15000J0D01*
G01*
X13505000Y-11800000D02*
G75*
G02*
X13535000Y-11800000I15000J0D01*
G01*
X13545000Y-11290000D02*
G75*
G02*
X13515000Y-11290000I-15000J0D01*
G01*
X13515000Y-11290000D02*
G75*
G02*
X13545000Y-11290000I15000J0D01*
G01*
X13565000Y-11520000D02*
G75*
G02*
X13535000Y-11520000I-15000J0D01*
G01*
X13535000Y-11520000D02*
G75*
G02*
X13565000Y-11520000I15000J0D01*
G01*
X13575000Y-10283856D02*
G75*
G02*
X13545000Y-10283856I-15000J0D01*
G01*
X13545000Y-10283856D02*
G75*
G02*
X13575000Y-10283856I15000J0D01*
G01*
X13605000Y-11350000D02*
G75*
G02*
X13575000Y-11350000I-15000J0D01*
G01*
X13575000Y-11350000D02*
G75*
G02*
X13605000Y-11350000I15000J0D01*
G01*
X13625000Y-10210000D02*
G75*
G02*
X13595000Y-10210000I-15000J0D01*
G01*
X13595000Y-10210000D02*
G75*
G02*
X13625000Y-10210000I15000J0D01*
G01*
X13668548Y-11131452D02*
G75*
G02*
X13638548Y-11131452I-15000J0D01*
G01*
X13638548Y-11131452D02*
G75*
G02*
X13668548Y-11131452I15000J0D01*
G01*
X13765000Y-10157500D02*
G75*
G02*
X13735000Y-10157500I-15000J0D01*
G01*
X13735000Y-10157500D02*
G75*
G02*
X13765000Y-10157500I15000J0D01*
G01*
X13873608Y-10238782D02*
G75*
G02*
X13843608Y-10238782I-15000J0D01*
G01*
X13843608Y-10238782D02*
G75*
G02*
X13873608Y-10238782I15000J0D01*
G01*
X14125000Y-10170000D02*
G75*
G02*
X14095000Y-10170000I-15000J0D01*
G01*
X14095000Y-10170000D02*
G75*
G02*
X14125000Y-10170000I15000J0D01*
G01*
X14225000Y-11120000D02*
G75*
G02*
X14195000Y-11120000I-15000J0D01*
G01*
X14195000Y-11120000D02*
G75*
G02*
X14225000Y-11120000I15000J0D01*
G01*
X14365000Y-10220000D02*
G75*
G02*
X14335000Y-10220000I-15000J0D01*
G01*
X14335000Y-10220000D02*
G75*
G02*
X14365000Y-10220000I15000J0D01*
G01*
X15165000Y-12970000D02*
G75*
G02*
X15135000Y-12970000I-15000J0D01*
G01*
X15135000Y-12970000D02*
G75*
G02*
X15165000Y-12970000I15000J0D01*
G01*
X15255000Y-12620000D02*
G75*
G02*
X15225000Y-12620000I-15000J0D01*
G01*
X15225000Y-12620000D02*
G75*
G02*
X15255000Y-12620000I15000J0D01*
G01*
X15285000Y-12980000D02*
G75*
G02*
X15255000Y-12980000I-15000J0D01*
G01*
X15255000Y-12980000D02*
G75*
G02*
X15285000Y-12980000I15000J0D01*
G01*
X15310000Y-11600000D02*
G75*
G02*
X15280000Y-11600000I-15000J0D01*
G01*
X15280000Y-11600000D02*
G75*
G02*
X15310000Y-11600000I15000J0D01*
G01*
X15310000Y-11690000D02*
G75*
G02*
X15280000Y-11690000I-15000J0D01*
G01*
X15280000Y-11690000D02*
G75*
G02*
X15310000Y-11690000I15000J0D01*
G01*
X15365000Y-10150000D02*
G75*
G02*
X15335000Y-10150000I-15000J0D01*
G01*
X15335000Y-10150000D02*
G75*
G02*
X15365000Y-10150000I15000J0D01*
G01*
X15400000Y-11870000D02*
G75*
G02*
X15370000Y-11870000I-15000J0D01*
G01*
X15370000Y-11870000D02*
G75*
G02*
X15400000Y-11870000I15000J0D01*
G01*
X15425000Y-12120000D02*
G75*
G02*
X15395000Y-12120000I-15000J0D01*
G01*
X15395000Y-12120000D02*
G75*
G02*
X15425000Y-12120000I15000J0D01*
G01*
X15685000Y-12080000D02*
G75*
G02*
X15655000Y-12080000I-15000J0D01*
G01*
X15655000Y-12080000D02*
G75*
G02*
X15685000Y-12080000I15000J0D01*
G01*
X15695000Y-11210000D02*
G75*
G02*
X15665000Y-11210000I-15000J0D01*
G01*
X15665000Y-11210000D02*
G75*
G02*
X15695000Y-11210000I15000J0D01*
G01*
X15695000Y-12010000D02*
G75*
G02*
X15665000Y-12010000I-15000J0D01*
G01*
X15665000Y-12010000D02*
G75*
G02*
X15695000Y-12010000I15000J0D01*
G01*
X15745000Y-12320000D02*
G75*
G02*
X15715000Y-12320000I-15000J0D01*
G01*
X15715000Y-12320000D02*
G75*
G02*
X15745000Y-12320000I15000J0D01*
G01*
X15745000Y-12840000D02*
G75*
G02*
X15715000Y-12840000I-15000J0D01*
G01*
X15715000Y-12840000D02*
G75*
G02*
X15745000Y-12840000I15000J0D01*
G01*
X15775000Y-9650000D02*
G75*
G02*
X15745000Y-9650000I-15000J0D01*
G01*
X15745000Y-9650000D02*
G75*
G02*
X15775000Y-9650000I15000J0D01*
G01*
X15775000Y-9920000D02*
G75*
G02*
X15745000Y-9920000I-15000J0D01*
G01*
X15745000Y-9920000D02*
G75*
G02*
X15775000Y-9920000I15000J0D01*
G01*
X13400000Y-10145000D02*
X13400000Y-10175000D01*
X13385000Y-10160000D02*
X13415000Y-10160000D01*
X13400000Y-10246600D02*
X13400000Y-10276600D01*
X13385000Y-10261600D02*
X13415000Y-10261600D01*
X13615000Y-9947500D02*
X13615000Y-9977500D01*
X13600000Y-9962500D02*
X13630000Y-9962500D01*
X12796213Y-11196463D02*
X12796213Y-11154037D01*
X12753787Y-11154037D01*
X12753787Y-11196463D01*
X12796213Y-11196463D01*
X12815000Y-11145250D02*
X12735000Y-11145250D01*
X12735000Y-11205250D02*
G75*
G02*
X12735000Y-11145250I0J30000D01*
G01*
X12735000Y-11205250D02*
X12815000Y-11205250D01*
X12815000Y-11205250D02*
G75*
G03*
X12815000Y-11145250I0J30000D01*
G01*
X12796213Y-12060463D02*
X12796213Y-12018037D01*
X12753787Y-12018037D01*
X12753787Y-12060463D01*
X12796213Y-12060463D01*
X12815000Y-12009250D02*
X12735000Y-12009250D01*
X12735000Y-12069250D02*
G75*
G02*
X12735000Y-12009250I0J30000D01*
G01*
X12735000Y-12069250D02*
X12815000Y-12069250D01*
X12815000Y-12069250D02*
G75*
G03*
X12815000Y-12009250I0J30000D01*
G01*
X13214213Y-11196463D02*
X13214213Y-11154037D01*
X13171787Y-11154037D01*
X13171787Y-11196463D01*
X13214213Y-11196463D01*
X13248000Y-11145250D02*
X13138000Y-11145250D01*
X13138000Y-11205250D02*
G75*
G02*
X13138000Y-11145250I0J30000D01*
G01*
X13138000Y-11205250D02*
X13248000Y-11205250D01*
X13248000Y-11205250D02*
G75*
G03*
X13248000Y-11145250I0J30000D01*
G01*
X13214213Y-12060463D02*
X13214213Y-12018037D01*
X13171787Y-12018037D01*
X13171787Y-12060463D01*
X13214213Y-12060463D01*
X13248000Y-12009250D02*
X13138000Y-12009250D01*
X13138000Y-12069250D02*
G75*
G02*
X13138000Y-12009250I0J30000D01*
G01*
X13138000Y-12069250D02*
X13248000Y-12069250D01*
X13248000Y-12069250D02*
G75*
G03*
X13248000Y-12009250I0J30000D01*
G01*
X15650000Y-10837500D02*
X15687500Y-10800000D01*
X15650000Y-10762500D01*
X15612500Y-10800000D01*
X15650000Y-10837500D01*
X15650000Y-11037500D02*
X15687500Y-11000000D01*
X15650000Y-10962500D01*
X15612500Y-11000000D01*
X15650000Y-11037500D01*
X15630550Y-11412432D02*
X15719450Y-11501332D01*
X15719450Y-11412432D02*
X15630550Y-11501332D01*
X15719450Y-11456882D02*
G75*
G02*
X15630550Y-11456882I-44450J0D01*
G01*
X15630550Y-11456882D02*
G75*
G02*
X15719450Y-11456882I44450J0D01*
G01*
X15630550Y-11712152D02*
X15719450Y-11801052D01*
X15719450Y-11712152D02*
X15630550Y-11801052D01*
X15719450Y-11756602D02*
G75*
G02*
X15630550Y-11756602I-44450J0D01*
G01*
X15630550Y-11756602D02*
G75*
G02*
X15719450Y-11756602I44450J0D01*
G01*
D11*
X12915277Y-13420984D02*
X12915277Y-13220984D01*
X12915277Y-13220984D02*
X12962896Y-13220984D01*
X12962896Y-13220984D02*
X12991467Y-13230508D01*
X12991467Y-13230508D02*
X13010515Y-13249555D01*
X13010515Y-13249555D02*
X13020039Y-13268603D01*
X13020039Y-13268603D02*
X13029562Y-13306698D01*
X13029562Y-13306698D02*
X13029562Y-13335269D01*
X13029562Y-13335269D02*
X13020039Y-13373365D01*
X13020039Y-13373365D02*
X13010515Y-13392412D01*
X13010515Y-13392412D02*
X12991467Y-13411460D01*
X12991467Y-13411460D02*
X12962896Y-13420984D01*
X12962896Y-13420984D02*
X12915277Y-13420984D01*
X13115277Y-13420984D02*
X13115277Y-13287650D01*
X13115277Y-13325746D02*
X13124801Y-13306698D01*
X13124801Y-13306698D02*
X13134324Y-13297174D01*
X13134324Y-13297174D02*
X13153372Y-13287650D01*
X13153372Y-13287650D02*
X13172420Y-13287650D01*
X13239086Y-13420984D02*
X13239086Y-13287650D01*
X13239086Y-13220984D02*
X13229562Y-13230508D01*
X13229562Y-13230508D02*
X13239086Y-13240031D01*
X13239086Y-13240031D02*
X13248610Y-13230508D01*
X13248610Y-13230508D02*
X13239086Y-13220984D01*
X13239086Y-13220984D02*
X13239086Y-13240031D01*
X13362896Y-13420984D02*
X13343848Y-13411460D01*
X13343848Y-13411460D02*
X13334324Y-13392412D01*
X13334324Y-13392412D02*
X13334324Y-13220984D01*
X13467658Y-13420984D02*
X13448610Y-13411460D01*
X13448610Y-13411460D02*
X13439086Y-13392412D01*
X13439086Y-13392412D02*
X13439086Y-13220984D01*
X13696229Y-13420984D02*
X13696229Y-13220984D01*
X13696229Y-13220984D02*
X13762896Y-13363841D01*
X13762896Y-13363841D02*
X13829562Y-13220984D01*
X13829562Y-13220984D02*
X13829562Y-13420984D01*
X14010515Y-13420984D02*
X14010515Y-13316222D01*
X14010515Y-13316222D02*
X14000991Y-13297174D01*
X14000991Y-13297174D02*
X13981943Y-13287650D01*
X13981943Y-13287650D02*
X13943848Y-13287650D01*
X13943848Y-13287650D02*
X13924801Y-13297174D01*
X14010515Y-13411460D02*
X13991467Y-13420984D01*
X13991467Y-13420984D02*
X13943848Y-13420984D01*
X13943848Y-13420984D02*
X13924801Y-13411460D01*
X13924801Y-13411460D02*
X13915277Y-13392412D01*
X13915277Y-13392412D02*
X13915277Y-13373365D01*
X13915277Y-13373365D02*
X13924801Y-13354317D01*
X13924801Y-13354317D02*
X13943848Y-13344793D01*
X13943848Y-13344793D02*
X13991467Y-13344793D01*
X13991467Y-13344793D02*
X14010515Y-13335269D01*
X14105753Y-13287650D02*
X14105753Y-13487650D01*
X14105753Y-13297174D02*
X14124801Y-13287650D01*
X14124801Y-13287650D02*
X14162896Y-13287650D01*
X14162896Y-13287650D02*
X14181943Y-13297174D01*
X14181943Y-13297174D02*
X14191467Y-13306698D01*
X14191467Y-13306698D02*
X14200991Y-13325746D01*
X14200991Y-13325746D02*
X14200991Y-13382888D01*
X14200991Y-13382888D02*
X14191467Y-13401936D01*
X14191467Y-13401936D02*
X14181943Y-13411460D01*
X14181943Y-13411460D02*
X14162896Y-13420984D01*
X14162896Y-13420984D02*
X14124801Y-13420984D01*
X14124801Y-13420984D02*
X14105753Y-13411460D01*
X14286705Y-13401936D02*
X14296229Y-13411460D01*
X14296229Y-13411460D02*
X14286705Y-13420984D01*
X14286705Y-13420984D02*
X14277182Y-13411460D01*
X14277182Y-13411460D02*
X14286705Y-13401936D01*
X14286705Y-13401936D02*
X14286705Y-13420984D01*
X14286705Y-13297174D02*
X14296229Y-13306698D01*
X14296229Y-13306698D02*
X14286705Y-13316222D01*
X14286705Y-13316222D02*
X14277182Y-13306698D01*
X14277182Y-13306698D02*
X14286705Y-13297174D01*
X14286705Y-13297174D02*
X14286705Y-13316222D01*
D12*
X12639500Y-13742000D02*
X12654500Y-13757000D01*
X12654500Y-13742000D02*
X12639500Y-13757000D01*
D11*
X12953372Y-13640984D02*
X12972420Y-13640984D01*
X12972420Y-13640984D02*
X12991467Y-13650508D01*
X12991467Y-13650508D02*
X13000991Y-13660031D01*
X13000991Y-13660031D02*
X13010515Y-13679079D01*
X13010515Y-13679079D02*
X13020039Y-13717174D01*
X13020039Y-13717174D02*
X13020039Y-13764793D01*
X13020039Y-13764793D02*
X13010515Y-13802888D01*
X13010515Y-13802888D02*
X13000991Y-13821936D01*
X13000991Y-13821936D02*
X12991467Y-13831460D01*
X12991467Y-13831460D02*
X12972420Y-13840984D01*
X12972420Y-13840984D02*
X12953372Y-13840984D01*
X12953372Y-13840984D02*
X12934324Y-13831460D01*
X12934324Y-13831460D02*
X12924801Y-13821936D01*
X12924801Y-13821936D02*
X12915277Y-13802888D01*
X12915277Y-13802888D02*
X12905753Y-13764793D01*
X12905753Y-13764793D02*
X12905753Y-13717174D01*
X12905753Y-13717174D02*
X12915277Y-13679079D01*
X12915277Y-13679079D02*
X12924801Y-13660031D01*
X12924801Y-13660031D02*
X12934324Y-13650508D01*
X12934324Y-13650508D02*
X12953372Y-13640984D01*
X13105753Y-13821936D02*
X13115277Y-13831460D01*
X13115277Y-13831460D02*
X13105753Y-13840984D01*
X13105753Y-13840984D02*
X13096229Y-13831460D01*
X13096229Y-13831460D02*
X13105753Y-13821936D01*
X13105753Y-13821936D02*
X13105753Y-13840984D01*
X13305753Y-13840984D02*
X13191467Y-13840984D01*
X13248610Y-13840984D02*
X13248610Y-13640984D01*
X13248610Y-13640984D02*
X13229562Y-13669555D01*
X13229562Y-13669555D02*
X13210515Y-13688603D01*
X13210515Y-13688603D02*
X13191467Y-13698127D01*
X13486705Y-13640984D02*
X13391467Y-13640984D01*
X13391467Y-13640984D02*
X13381943Y-13736222D01*
X13381943Y-13736222D02*
X13391467Y-13726698D01*
X13391467Y-13726698D02*
X13410515Y-13717174D01*
X13410515Y-13717174D02*
X13458134Y-13717174D01*
X13458134Y-13717174D02*
X13477182Y-13726698D01*
X13477182Y-13726698D02*
X13486705Y-13736222D01*
X13486705Y-13736222D02*
X13496229Y-13755269D01*
X13496229Y-13755269D02*
X13496229Y-13802888D01*
X13496229Y-13802888D02*
X13486705Y-13821936D01*
X13486705Y-13821936D02*
X13477182Y-13831460D01*
X13477182Y-13831460D02*
X13458134Y-13840984D01*
X13458134Y-13840984D02*
X13410515Y-13840984D01*
X13410515Y-13840984D02*
X13391467Y-13831460D01*
X13391467Y-13831460D02*
X13381943Y-13821936D01*
X13620039Y-13640984D02*
X13639086Y-13640984D01*
X13639086Y-13640984D02*
X13658134Y-13650508D01*
X13658134Y-13650508D02*
X13667658Y-13660031D01*
X13667658Y-13660031D02*
X13677182Y-13679079D01*
X13677182Y-13679079D02*
X13686705Y-13717174D01*
X13686705Y-13717174D02*
X13686705Y-13764793D01*
X13686705Y-13764793D02*
X13677182Y-13802888D01*
X13677182Y-13802888D02*
X13667658Y-13821936D01*
X13667658Y-13821936D02*
X13658134Y-13831460D01*
X13658134Y-13831460D02*
X13639086Y-13840984D01*
X13639086Y-13840984D02*
X13620039Y-13840984D01*
X13620039Y-13840984D02*
X13600991Y-13831460D01*
X13600991Y-13831460D02*
X13591467Y-13821936D01*
X13591467Y-13821936D02*
X13581943Y-13802888D01*
X13581943Y-13802888D02*
X13572420Y-13764793D01*
X13572420Y-13764793D02*
X13572420Y-13717174D01*
X13572420Y-13717174D02*
X13581943Y-13679079D01*
X13581943Y-13679079D02*
X13591467Y-13660031D01*
X13591467Y-13660031D02*
X13600991Y-13650508D01*
X13600991Y-13650508D02*
X13620039Y-13640984D01*
X13772420Y-13840984D02*
X13772420Y-13707650D01*
X13772420Y-13726698D02*
X13781943Y-13717174D01*
X13781943Y-13717174D02*
X13800991Y-13707650D01*
X13800991Y-13707650D02*
X13829563Y-13707650D01*
X13829563Y-13707650D02*
X13848610Y-13717174D01*
X13848610Y-13717174D02*
X13858134Y-13736222D01*
X13858134Y-13736222D02*
X13858134Y-13840984D01*
X13858134Y-13736222D02*
X13867658Y-13717174D01*
X13867658Y-13717174D02*
X13886705Y-13707650D01*
X13886705Y-13707650D02*
X13915277Y-13707650D01*
X13915277Y-13707650D02*
X13934324Y-13717174D01*
X13934324Y-13717174D02*
X13943848Y-13736222D01*
X13943848Y-13736222D02*
X13943848Y-13840984D01*
X14039086Y-13840984D02*
X14039086Y-13707650D01*
X14039086Y-13726698D02*
X14048610Y-13717174D01*
X14048610Y-13717174D02*
X14067658Y-13707650D01*
X14067658Y-13707650D02*
X14096229Y-13707650D01*
X14096229Y-13707650D02*
X14115277Y-13717174D01*
X14115277Y-13717174D02*
X14124801Y-13736222D01*
X14124801Y-13736222D02*
X14124801Y-13840984D01*
X14124801Y-13736222D02*
X14134324Y-13717174D01*
X14134324Y-13717174D02*
X14153372Y-13707650D01*
X14153372Y-13707650D02*
X14181943Y-13707650D01*
X14181943Y-13707650D02*
X14200991Y-13717174D01*
X14200991Y-13717174D02*
X14210515Y-13736222D01*
X14210515Y-13736222D02*
X14210515Y-13840984D01*
X14600991Y-13631460D02*
X14429563Y-13888603D01*
X14858134Y-13640984D02*
X14877182Y-13640984D01*
X14877182Y-13640984D02*
X14896229Y-13650508D01*
X14896229Y-13650508D02*
X14905753Y-13660031D01*
X14905753Y-13660031D02*
X14915277Y-13679079D01*
X14915277Y-13679079D02*
X14924801Y-13717174D01*
X14924801Y-13717174D02*
X14924801Y-13764793D01*
X14924801Y-13764793D02*
X14915277Y-13802888D01*
X14915277Y-13802888D02*
X14905753Y-13821936D01*
X14905753Y-13821936D02*
X14896229Y-13831460D01*
X14896229Y-13831460D02*
X14877182Y-13840984D01*
X14877182Y-13840984D02*
X14858134Y-13840984D01*
X14858134Y-13840984D02*
X14839086Y-13831460D01*
X14839086Y-13831460D02*
X14829563Y-13821936D01*
X14829563Y-13821936D02*
X14820039Y-13802888D01*
X14820039Y-13802888D02*
X14810515Y-13764793D01*
X14810515Y-13764793D02*
X14810515Y-13717174D01*
X14810515Y-13717174D02*
X14820039Y-13679079D01*
X14820039Y-13679079D02*
X14829563Y-13660031D01*
X14829563Y-13660031D02*
X14839086Y-13650508D01*
X14839086Y-13650508D02*
X14858134Y-13640984D01*
X15010515Y-13821936D02*
X15020039Y-13831460D01*
X15020039Y-13831460D02*
X15010515Y-13840984D01*
X15010515Y-13840984D02*
X15000991Y-13831460D01*
X15000991Y-13831460D02*
X15010515Y-13821936D01*
X15010515Y-13821936D02*
X15010515Y-13840984D01*
X15143848Y-13640984D02*
X15162896Y-13640984D01*
X15162896Y-13640984D02*
X15181944Y-13650508D01*
X15181944Y-13650508D02*
X15191467Y-13660031D01*
X15191467Y-13660031D02*
X15200991Y-13679079D01*
X15200991Y-13679079D02*
X15210515Y-13717174D01*
X15210515Y-13717174D02*
X15210515Y-13764793D01*
X15210515Y-13764793D02*
X15200991Y-13802888D01*
X15200991Y-13802888D02*
X15191467Y-13821936D01*
X15191467Y-13821936D02*
X15181944Y-13831460D01*
X15181944Y-13831460D02*
X15162896Y-13840984D01*
X15162896Y-13840984D02*
X15143848Y-13840984D01*
X15143848Y-13840984D02*
X15124801Y-13831460D01*
X15124801Y-13831460D02*
X15115277Y-13821936D01*
X15115277Y-13821936D02*
X15105753Y-13802888D01*
X15105753Y-13802888D02*
X15096229Y-13764793D01*
X15096229Y-13764793D02*
X15096229Y-13717174D01*
X15096229Y-13717174D02*
X15105753Y-13679079D01*
X15105753Y-13679079D02*
X15115277Y-13660031D01*
X15115277Y-13660031D02*
X15124801Y-13650508D01*
X15124801Y-13650508D02*
X15143848Y-13640984D01*
X15334325Y-13640984D02*
X15353372Y-13640984D01*
X15353372Y-13640984D02*
X15372420Y-13650508D01*
X15372420Y-13650508D02*
X15381944Y-13660031D01*
X15381944Y-13660031D02*
X15391467Y-13679079D01*
X15391467Y-13679079D02*
X15400991Y-13717174D01*
X15400991Y-13717174D02*
X15400991Y-13764793D01*
X15400991Y-13764793D02*
X15391467Y-13802888D01*
X15391467Y-13802888D02*
X15381944Y-13821936D01*
X15381944Y-13821936D02*
X15372420Y-13831460D01*
X15372420Y-13831460D02*
X15353372Y-13840984D01*
X15353372Y-13840984D02*
X15334325Y-13840984D01*
X15334325Y-13840984D02*
X15315277Y-13831460D01*
X15315277Y-13831460D02*
X15305753Y-13821936D01*
X15305753Y-13821936D02*
X15296229Y-13802888D01*
X15296229Y-13802888D02*
X15286706Y-13764793D01*
X15286706Y-13764793D02*
X15286706Y-13717174D01*
X15286706Y-13717174D02*
X15296229Y-13679079D01*
X15296229Y-13679079D02*
X15305753Y-13660031D01*
X15305753Y-13660031D02*
X15315277Y-13650508D01*
X15315277Y-13650508D02*
X15334325Y-13640984D01*
X15581944Y-13640984D02*
X15486706Y-13640984D01*
X15486706Y-13640984D02*
X15477182Y-13736222D01*
X15477182Y-13736222D02*
X15486706Y-13726698D01*
X15486706Y-13726698D02*
X15505753Y-13717174D01*
X15505753Y-13717174D02*
X15553372Y-13717174D01*
X15553372Y-13717174D02*
X15572420Y-13726698D01*
X15572420Y-13726698D02*
X15581944Y-13736222D01*
X15581944Y-13736222D02*
X15591467Y-13755269D01*
X15591467Y-13755269D02*
X15591467Y-13802888D01*
X15591467Y-13802888D02*
X15581944Y-13821936D01*
X15581944Y-13821936D02*
X15572420Y-13831460D01*
X15572420Y-13831460D02*
X15553372Y-13840984D01*
X15553372Y-13840984D02*
X15505753Y-13840984D01*
X15505753Y-13840984D02*
X15486706Y-13831460D01*
X15486706Y-13831460D02*
X15477182Y-13821936D01*
X15686706Y-13840984D02*
X15724801Y-13840984D01*
X15724801Y-13840984D02*
X15743848Y-13831460D01*
X15743848Y-13831460D02*
X15753372Y-13821936D01*
X15753372Y-13821936D02*
X15772420Y-13793365D01*
X15772420Y-13793365D02*
X15781944Y-13755269D01*
X15781944Y-13755269D02*
X15781944Y-13679079D01*
X15781944Y-13679079D02*
X15772420Y-13660031D01*
X15772420Y-13660031D02*
X15762896Y-13650508D01*
X15762896Y-13650508D02*
X15743848Y-13640984D01*
X15743848Y-13640984D02*
X15705753Y-13640984D01*
X15705753Y-13640984D02*
X15686706Y-13650508D01*
X15686706Y-13650508D02*
X15677182Y-13660031D01*
X15677182Y-13660031D02*
X15667658Y-13679079D01*
X15667658Y-13679079D02*
X15667658Y-13726698D01*
X15667658Y-13726698D02*
X15677182Y-13745746D01*
X15677182Y-13745746D02*
X15686706Y-13755269D01*
X15686706Y-13755269D02*
X15705753Y-13764793D01*
X15705753Y-13764793D02*
X15743848Y-13764793D01*
X15743848Y-13764793D02*
X15762896Y-13755269D01*
X15762896Y-13755269D02*
X15772420Y-13745746D01*
X15772420Y-13745746D02*
X15781944Y-13726698D01*
X15858134Y-13640984D02*
X15858134Y-13679079D01*
X15934325Y-13640984D02*
X15934325Y-13679079D01*
X16229563Y-13917174D02*
X16220039Y-13907650D01*
X16220039Y-13907650D02*
X16200991Y-13879079D01*
X16200991Y-13879079D02*
X16191468Y-13860031D01*
X16191468Y-13860031D02*
X16181944Y-13831460D01*
X16181944Y-13831460D02*
X16172420Y-13783841D01*
X16172420Y-13783841D02*
X16172420Y-13745746D01*
X16172420Y-13745746D02*
X16181944Y-13698127D01*
X16181944Y-13698127D02*
X16191468Y-13669555D01*
X16191468Y-13669555D02*
X16200991Y-13650508D01*
X16200991Y-13650508D02*
X16220039Y-13621936D01*
X16220039Y-13621936D02*
X16229563Y-13612412D01*
X16410515Y-13840984D02*
X16296229Y-13840984D01*
X16353372Y-13840984D02*
X16353372Y-13640984D01*
X16353372Y-13640984D02*
X16334325Y-13669555D01*
X16334325Y-13669555D02*
X16315277Y-13688603D01*
X16315277Y-13688603D02*
X16296229Y-13698127D01*
X16600991Y-13840984D02*
X16486706Y-13840984D01*
X16543848Y-13840984D02*
X16543848Y-13640984D01*
X16543848Y-13640984D02*
X16524801Y-13669555D01*
X16524801Y-13669555D02*
X16505753Y-13688603D01*
X16505753Y-13688603D02*
X16486706Y-13698127D01*
X16696229Y-13840984D02*
X16734325Y-13840984D01*
X16734325Y-13840984D02*
X16753372Y-13831460D01*
X16753372Y-13831460D02*
X16762896Y-13821936D01*
X16762896Y-13821936D02*
X16781944Y-13793365D01*
X16781944Y-13793365D02*
X16791468Y-13755269D01*
X16791468Y-13755269D02*
X16791468Y-13679079D01*
X16791468Y-13679079D02*
X16781944Y-13660031D01*
X16781944Y-13660031D02*
X16772420Y-13650508D01*
X16772420Y-13650508D02*
X16753372Y-13640984D01*
X16753372Y-13640984D02*
X16715277Y-13640984D01*
X16715277Y-13640984D02*
X16696229Y-13650508D01*
X16696229Y-13650508D02*
X16686706Y-13660031D01*
X16686706Y-13660031D02*
X16677182Y-13679079D01*
X16677182Y-13679079D02*
X16677182Y-13726698D01*
X16677182Y-13726698D02*
X16686706Y-13745746D01*
X16686706Y-13745746D02*
X16696229Y-13755269D01*
X16696229Y-13755269D02*
X16715277Y-13764793D01*
X16715277Y-13764793D02*
X16753372Y-13764793D01*
X16753372Y-13764793D02*
X16772420Y-13755269D01*
X16772420Y-13755269D02*
X16781944Y-13745746D01*
X16781944Y-13745746D02*
X16791468Y-13726698D01*
X17029563Y-13840984D02*
X17029563Y-13640984D01*
X17115277Y-13840984D02*
X17115277Y-13736222D01*
X17115277Y-13736222D02*
X17105753Y-13717174D01*
X17105753Y-13717174D02*
X17086706Y-13707650D01*
X17086706Y-13707650D02*
X17058134Y-13707650D01*
X17058134Y-13707650D02*
X17039087Y-13717174D01*
X17039087Y-13717174D02*
X17029563Y-13726698D01*
X17239087Y-13840984D02*
X17220039Y-13831460D01*
X17220039Y-13831460D02*
X17210515Y-13821936D01*
X17210515Y-13821936D02*
X17200992Y-13802888D01*
X17200992Y-13802888D02*
X17200992Y-13745746D01*
X17200992Y-13745746D02*
X17210515Y-13726698D01*
X17210515Y-13726698D02*
X17220039Y-13717174D01*
X17220039Y-13717174D02*
X17239087Y-13707650D01*
X17239087Y-13707650D02*
X17267658Y-13707650D01*
X17267658Y-13707650D02*
X17286706Y-13717174D01*
X17286706Y-13717174D02*
X17296230Y-13726698D01*
X17296230Y-13726698D02*
X17305753Y-13745746D01*
X17305753Y-13745746D02*
X17305753Y-13802888D01*
X17305753Y-13802888D02*
X17296230Y-13821936D01*
X17296230Y-13821936D02*
X17286706Y-13831460D01*
X17286706Y-13831460D02*
X17267658Y-13840984D01*
X17267658Y-13840984D02*
X17239087Y-13840984D01*
X17420039Y-13840984D02*
X17400992Y-13831460D01*
X17400992Y-13831460D02*
X17391468Y-13812412D01*
X17391468Y-13812412D02*
X17391468Y-13640984D01*
X17572420Y-13831460D02*
X17553373Y-13840984D01*
X17553373Y-13840984D02*
X17515277Y-13840984D01*
X17515277Y-13840984D02*
X17496230Y-13831460D01*
X17496230Y-13831460D02*
X17486706Y-13812412D01*
X17486706Y-13812412D02*
X17486706Y-13736222D01*
X17486706Y-13736222D02*
X17496230Y-13717174D01*
X17496230Y-13717174D02*
X17515277Y-13707650D01*
X17515277Y-13707650D02*
X17553373Y-13707650D01*
X17553373Y-13707650D02*
X17572420Y-13717174D01*
X17572420Y-13717174D02*
X17581944Y-13736222D01*
X17581944Y-13736222D02*
X17581944Y-13755269D01*
X17581944Y-13755269D02*
X17486706Y-13774317D01*
X17658134Y-13831460D02*
X17677182Y-13840984D01*
X17677182Y-13840984D02*
X17715277Y-13840984D01*
X17715277Y-13840984D02*
X17734325Y-13831460D01*
X17734325Y-13831460D02*
X17743849Y-13812412D01*
X17743849Y-13812412D02*
X17743849Y-13802888D01*
X17743849Y-13802888D02*
X17734325Y-13783841D01*
X17734325Y-13783841D02*
X17715277Y-13774317D01*
X17715277Y-13774317D02*
X17686706Y-13774317D01*
X17686706Y-13774317D02*
X17667658Y-13764793D01*
X17667658Y-13764793D02*
X17658134Y-13745746D01*
X17658134Y-13745746D02*
X17658134Y-13736222D01*
X17658134Y-13736222D02*
X17667658Y-13717174D01*
X17667658Y-13717174D02*
X17686706Y-13707650D01*
X17686706Y-13707650D02*
X17715277Y-13707650D01*
X17715277Y-13707650D02*
X17734325Y-13717174D01*
X17810515Y-13917174D02*
X17820039Y-13907650D01*
X17820039Y-13907650D02*
X17839087Y-13879079D01*
X17839087Y-13879079D02*
X17848611Y-13860031D01*
X17848611Y-13860031D02*
X17858134Y-13831460D01*
X17858134Y-13831460D02*
X17867658Y-13783841D01*
X17867658Y-13783841D02*
X17867658Y-13745746D01*
X17867658Y-13745746D02*
X17858134Y-13698127D01*
X17858134Y-13698127D02*
X17848611Y-13669555D01*
X17848611Y-13669555D02*
X17839087Y-13650508D01*
X17839087Y-13650508D02*
X17820039Y-13621936D01*
X17820039Y-13621936D02*
X17810515Y-13612412D01*
D12*
X12654500Y-14013500D02*
G75*
G02*
X12624500Y-14013500I-15000J0D01*
G01*
X12624500Y-14013500D02*
G75*
G02*
X12654500Y-14013500I15000J0D01*
G01*
D11*
X12953372Y-13904984D02*
X12972420Y-13904984D01*
X12972420Y-13904984D02*
X12991467Y-13914508D01*
X12991467Y-13914508D02*
X13000991Y-13924031D01*
X13000991Y-13924031D02*
X13010515Y-13943079D01*
X13010515Y-13943079D02*
X13020039Y-13981174D01*
X13020039Y-13981174D02*
X13020039Y-14028793D01*
X13020039Y-14028793D02*
X13010515Y-14066888D01*
X13010515Y-14066888D02*
X13000991Y-14085936D01*
X13000991Y-14085936D02*
X12991467Y-14095460D01*
X12991467Y-14095460D02*
X12972420Y-14104984D01*
X12972420Y-14104984D02*
X12953372Y-14104984D01*
X12953372Y-14104984D02*
X12934324Y-14095460D01*
X12934324Y-14095460D02*
X12924801Y-14085936D01*
X12924801Y-14085936D02*
X12915277Y-14066888D01*
X12915277Y-14066888D02*
X12905753Y-14028793D01*
X12905753Y-14028793D02*
X12905753Y-13981174D01*
X12905753Y-13981174D02*
X12915277Y-13943079D01*
X12915277Y-13943079D02*
X12924801Y-13924031D01*
X12924801Y-13924031D02*
X12934324Y-13914508D01*
X12934324Y-13914508D02*
X12953372Y-13904984D01*
X13105753Y-14085936D02*
X13115277Y-14095460D01*
X13115277Y-14095460D02*
X13105753Y-14104984D01*
X13105753Y-14104984D02*
X13096229Y-14095460D01*
X13096229Y-14095460D02*
X13105753Y-14085936D01*
X13105753Y-14085936D02*
X13105753Y-14104984D01*
X13181943Y-13904984D02*
X13305753Y-13904984D01*
X13305753Y-13904984D02*
X13239086Y-13981174D01*
X13239086Y-13981174D02*
X13267658Y-13981174D01*
X13267658Y-13981174D02*
X13286705Y-13990698D01*
X13286705Y-13990698D02*
X13296229Y-14000222D01*
X13296229Y-14000222D02*
X13305753Y-14019269D01*
X13305753Y-14019269D02*
X13305753Y-14066888D01*
X13305753Y-14066888D02*
X13296229Y-14085936D01*
X13296229Y-14085936D02*
X13286705Y-14095460D01*
X13286705Y-14095460D02*
X13267658Y-14104984D01*
X13267658Y-14104984D02*
X13210515Y-14104984D01*
X13210515Y-14104984D02*
X13191467Y-14095460D01*
X13191467Y-14095460D02*
X13181943Y-14085936D01*
X13429562Y-13904984D02*
X13448610Y-13904984D01*
X13448610Y-13904984D02*
X13467658Y-13914508D01*
X13467658Y-13914508D02*
X13477182Y-13924031D01*
X13477182Y-13924031D02*
X13486705Y-13943079D01*
X13486705Y-13943079D02*
X13496229Y-13981174D01*
X13496229Y-13981174D02*
X13496229Y-14028793D01*
X13496229Y-14028793D02*
X13486705Y-14066888D01*
X13486705Y-14066888D02*
X13477182Y-14085936D01*
X13477182Y-14085936D02*
X13467658Y-14095460D01*
X13467658Y-14095460D02*
X13448610Y-14104984D01*
X13448610Y-14104984D02*
X13429562Y-14104984D01*
X13429562Y-14104984D02*
X13410515Y-14095460D01*
X13410515Y-14095460D02*
X13400991Y-14085936D01*
X13400991Y-14085936D02*
X13391467Y-14066888D01*
X13391467Y-14066888D02*
X13381943Y-14028793D01*
X13381943Y-14028793D02*
X13381943Y-13981174D01*
X13381943Y-13981174D02*
X13391467Y-13943079D01*
X13391467Y-13943079D02*
X13400991Y-13924031D01*
X13400991Y-13924031D02*
X13410515Y-13914508D01*
X13410515Y-13914508D02*
X13429562Y-13904984D01*
X13620039Y-13904984D02*
X13639086Y-13904984D01*
X13639086Y-13904984D02*
X13658134Y-13914508D01*
X13658134Y-13914508D02*
X13667658Y-13924031D01*
X13667658Y-13924031D02*
X13677182Y-13943079D01*
X13677182Y-13943079D02*
X13686705Y-13981174D01*
X13686705Y-13981174D02*
X13686705Y-14028793D01*
X13686705Y-14028793D02*
X13677182Y-14066888D01*
X13677182Y-14066888D02*
X13667658Y-14085936D01*
X13667658Y-14085936D02*
X13658134Y-14095460D01*
X13658134Y-14095460D02*
X13639086Y-14104984D01*
X13639086Y-14104984D02*
X13620039Y-14104984D01*
X13620039Y-14104984D02*
X13600991Y-14095460D01*
X13600991Y-14095460D02*
X13591467Y-14085936D01*
X13591467Y-14085936D02*
X13581943Y-14066888D01*
X13581943Y-14066888D02*
X13572420Y-14028793D01*
X13572420Y-14028793D02*
X13572420Y-13981174D01*
X13572420Y-13981174D02*
X13581943Y-13943079D01*
X13581943Y-13943079D02*
X13591467Y-13924031D01*
X13591467Y-13924031D02*
X13600991Y-13914508D01*
X13600991Y-13914508D02*
X13620039Y-13904984D01*
X13772420Y-14104984D02*
X13772420Y-13971650D01*
X13772420Y-13990698D02*
X13781943Y-13981174D01*
X13781943Y-13981174D02*
X13800991Y-13971650D01*
X13800991Y-13971650D02*
X13829563Y-13971650D01*
X13829563Y-13971650D02*
X13848610Y-13981174D01*
X13848610Y-13981174D02*
X13858134Y-14000222D01*
X13858134Y-14000222D02*
X13858134Y-14104984D01*
X13858134Y-14000222D02*
X13867658Y-13981174D01*
X13867658Y-13981174D02*
X13886705Y-13971650D01*
X13886705Y-13971650D02*
X13915277Y-13971650D01*
X13915277Y-13971650D02*
X13934324Y-13981174D01*
X13934324Y-13981174D02*
X13943848Y-14000222D01*
X13943848Y-14000222D02*
X13943848Y-14104984D01*
X14039086Y-14104984D02*
X14039086Y-13971650D01*
X14039086Y-13990698D02*
X14048610Y-13981174D01*
X14048610Y-13981174D02*
X14067658Y-13971650D01*
X14067658Y-13971650D02*
X14096229Y-13971650D01*
X14096229Y-13971650D02*
X14115277Y-13981174D01*
X14115277Y-13981174D02*
X14124801Y-14000222D01*
X14124801Y-14000222D02*
X14124801Y-14104984D01*
X14124801Y-14000222D02*
X14134324Y-13981174D01*
X14134324Y-13981174D02*
X14153372Y-13971650D01*
X14153372Y-13971650D02*
X14181943Y-13971650D01*
X14181943Y-13971650D02*
X14200991Y-13981174D01*
X14200991Y-13981174D02*
X14210515Y-14000222D01*
X14210515Y-14000222D02*
X14210515Y-14104984D01*
X14600991Y-13895460D02*
X14429563Y-14152603D01*
X14858134Y-13904984D02*
X14877182Y-13904984D01*
X14877182Y-13904984D02*
X14896229Y-13914508D01*
X14896229Y-13914508D02*
X14905753Y-13924031D01*
X14905753Y-13924031D02*
X14915277Y-13943079D01*
X14915277Y-13943079D02*
X14924801Y-13981174D01*
X14924801Y-13981174D02*
X14924801Y-14028793D01*
X14924801Y-14028793D02*
X14915277Y-14066888D01*
X14915277Y-14066888D02*
X14905753Y-14085936D01*
X14905753Y-14085936D02*
X14896229Y-14095460D01*
X14896229Y-14095460D02*
X14877182Y-14104984D01*
X14877182Y-14104984D02*
X14858134Y-14104984D01*
X14858134Y-14104984D02*
X14839086Y-14095460D01*
X14839086Y-14095460D02*
X14829563Y-14085936D01*
X14829563Y-14085936D02*
X14820039Y-14066888D01*
X14820039Y-14066888D02*
X14810515Y-14028793D01*
X14810515Y-14028793D02*
X14810515Y-13981174D01*
X14810515Y-13981174D02*
X14820039Y-13943079D01*
X14820039Y-13943079D02*
X14829563Y-13924031D01*
X14829563Y-13924031D02*
X14839086Y-13914508D01*
X14839086Y-13914508D02*
X14858134Y-13904984D01*
X15010515Y-14085936D02*
X15020039Y-14095460D01*
X15020039Y-14095460D02*
X15010515Y-14104984D01*
X15010515Y-14104984D02*
X15000991Y-14095460D01*
X15000991Y-14095460D02*
X15010515Y-14085936D01*
X15010515Y-14085936D02*
X15010515Y-14104984D01*
X15143848Y-13904984D02*
X15162896Y-13904984D01*
X15162896Y-13904984D02*
X15181944Y-13914508D01*
X15181944Y-13914508D02*
X15191467Y-13924031D01*
X15191467Y-13924031D02*
X15200991Y-13943079D01*
X15200991Y-13943079D02*
X15210515Y-13981174D01*
X15210515Y-13981174D02*
X15210515Y-14028793D01*
X15210515Y-14028793D02*
X15200991Y-14066888D01*
X15200991Y-14066888D02*
X15191467Y-14085936D01*
X15191467Y-14085936D02*
X15181944Y-14095460D01*
X15181944Y-14095460D02*
X15162896Y-14104984D01*
X15162896Y-14104984D02*
X15143848Y-14104984D01*
X15143848Y-14104984D02*
X15124801Y-14095460D01*
X15124801Y-14095460D02*
X15115277Y-14085936D01*
X15115277Y-14085936D02*
X15105753Y-14066888D01*
X15105753Y-14066888D02*
X15096229Y-14028793D01*
X15096229Y-14028793D02*
X15096229Y-13981174D01*
X15096229Y-13981174D02*
X15105753Y-13943079D01*
X15105753Y-13943079D02*
X15115277Y-13924031D01*
X15115277Y-13924031D02*
X15124801Y-13914508D01*
X15124801Y-13914508D02*
X15143848Y-13904984D01*
X15400991Y-14104984D02*
X15286706Y-14104984D01*
X15343848Y-14104984D02*
X15343848Y-13904984D01*
X15343848Y-13904984D02*
X15324801Y-13933555D01*
X15324801Y-13933555D02*
X15305753Y-13952603D01*
X15305753Y-13952603D02*
X15286706Y-13962127D01*
X15591467Y-14104984D02*
X15477182Y-14104984D01*
X15534325Y-14104984D02*
X15534325Y-13904984D01*
X15534325Y-13904984D02*
X15515277Y-13933555D01*
X15515277Y-13933555D02*
X15496229Y-13952603D01*
X15496229Y-13952603D02*
X15477182Y-13962127D01*
X15705753Y-13990698D02*
X15686706Y-13981174D01*
X15686706Y-13981174D02*
X15677182Y-13971650D01*
X15677182Y-13971650D02*
X15667658Y-13952603D01*
X15667658Y-13952603D02*
X15667658Y-13943079D01*
X15667658Y-13943079D02*
X15677182Y-13924031D01*
X15677182Y-13924031D02*
X15686706Y-13914508D01*
X15686706Y-13914508D02*
X15705753Y-13904984D01*
X15705753Y-13904984D02*
X15743848Y-13904984D01*
X15743848Y-13904984D02*
X15762896Y-13914508D01*
X15762896Y-13914508D02*
X15772420Y-13924031D01*
X15772420Y-13924031D02*
X15781944Y-13943079D01*
X15781944Y-13943079D02*
X15781944Y-13952603D01*
X15781944Y-13952603D02*
X15772420Y-13971650D01*
X15772420Y-13971650D02*
X15762896Y-13981174D01*
X15762896Y-13981174D02*
X15743848Y-13990698D01*
X15743848Y-13990698D02*
X15705753Y-13990698D01*
X15705753Y-13990698D02*
X15686706Y-14000222D01*
X15686706Y-14000222D02*
X15677182Y-14009746D01*
X15677182Y-14009746D02*
X15667658Y-14028793D01*
X15667658Y-14028793D02*
X15667658Y-14066888D01*
X15667658Y-14066888D02*
X15677182Y-14085936D01*
X15677182Y-14085936D02*
X15686706Y-14095460D01*
X15686706Y-14095460D02*
X15705753Y-14104984D01*
X15705753Y-14104984D02*
X15743848Y-14104984D01*
X15743848Y-14104984D02*
X15762896Y-14095460D01*
X15762896Y-14095460D02*
X15772420Y-14085936D01*
X15772420Y-14085936D02*
X15781944Y-14066888D01*
X15781944Y-14066888D02*
X15781944Y-14028793D01*
X15781944Y-14028793D02*
X15772420Y-14009746D01*
X15772420Y-14009746D02*
X15762896Y-14000222D01*
X15762896Y-14000222D02*
X15743848Y-13990698D01*
X15858134Y-13904984D02*
X15858134Y-13943079D01*
X15934325Y-13904984D02*
X15934325Y-13943079D01*
X16229563Y-14181174D02*
X16220039Y-14171650D01*
X16220039Y-14171650D02*
X16200991Y-14143079D01*
X16200991Y-14143079D02*
X16191468Y-14124031D01*
X16191468Y-14124031D02*
X16181944Y-14095460D01*
X16181944Y-14095460D02*
X16172420Y-14047841D01*
X16172420Y-14047841D02*
X16172420Y-14009746D01*
X16172420Y-14009746D02*
X16181944Y-13962127D01*
X16181944Y-13962127D02*
X16191468Y-13933555D01*
X16191468Y-13933555D02*
X16200991Y-13914508D01*
X16200991Y-13914508D02*
X16220039Y-13885936D01*
X16220039Y-13885936D02*
X16229563Y-13876412D01*
X16400991Y-13904984D02*
X16305753Y-13904984D01*
X16305753Y-13904984D02*
X16296229Y-14000222D01*
X16296229Y-14000222D02*
X16305753Y-13990698D01*
X16305753Y-13990698D02*
X16324801Y-13981174D01*
X16324801Y-13981174D02*
X16372420Y-13981174D01*
X16372420Y-13981174D02*
X16391468Y-13990698D01*
X16391468Y-13990698D02*
X16400991Y-14000222D01*
X16400991Y-14000222D02*
X16410515Y-14019269D01*
X16410515Y-14019269D02*
X16410515Y-14066888D01*
X16410515Y-14066888D02*
X16400991Y-14085936D01*
X16400991Y-14085936D02*
X16391468Y-14095460D01*
X16391468Y-14095460D02*
X16372420Y-14104984D01*
X16372420Y-14104984D02*
X16324801Y-14104984D01*
X16324801Y-14104984D02*
X16305753Y-14095460D01*
X16305753Y-14095460D02*
X16296229Y-14085936D01*
X16600991Y-14104984D02*
X16486706Y-14104984D01*
X16543848Y-14104984D02*
X16543848Y-13904984D01*
X16543848Y-13904984D02*
X16524801Y-13933555D01*
X16524801Y-13933555D02*
X16505753Y-13952603D01*
X16505753Y-13952603D02*
X16486706Y-13962127D01*
X16839087Y-14104984D02*
X16839087Y-13904984D01*
X16924801Y-14104984D02*
X16924801Y-14000222D01*
X16924801Y-14000222D02*
X16915277Y-13981174D01*
X16915277Y-13981174D02*
X16896230Y-13971650D01*
X16896230Y-13971650D02*
X16867658Y-13971650D01*
X16867658Y-13971650D02*
X16848611Y-13981174D01*
X16848611Y-13981174D02*
X16839087Y-13990698D01*
X17048611Y-14104984D02*
X17029563Y-14095460D01*
X17029563Y-14095460D02*
X17020039Y-14085936D01*
X17020039Y-14085936D02*
X17010515Y-14066888D01*
X17010515Y-14066888D02*
X17010515Y-14009746D01*
X17010515Y-14009746D02*
X17020039Y-13990698D01*
X17020039Y-13990698D02*
X17029563Y-13981174D01*
X17029563Y-13981174D02*
X17048611Y-13971650D01*
X17048611Y-13971650D02*
X17077182Y-13971650D01*
X17077182Y-13971650D02*
X17096230Y-13981174D01*
X17096230Y-13981174D02*
X17105753Y-13990698D01*
X17105753Y-13990698D02*
X17115277Y-14009746D01*
X17115277Y-14009746D02*
X17115277Y-14066888D01*
X17115277Y-14066888D02*
X17105753Y-14085936D01*
X17105753Y-14085936D02*
X17096230Y-14095460D01*
X17096230Y-14095460D02*
X17077182Y-14104984D01*
X17077182Y-14104984D02*
X17048611Y-14104984D01*
X17229563Y-14104984D02*
X17210515Y-14095460D01*
X17210515Y-14095460D02*
X17200992Y-14076412D01*
X17200992Y-14076412D02*
X17200992Y-13904984D01*
X17381944Y-14095460D02*
X17362896Y-14104984D01*
X17362896Y-14104984D02*
X17324801Y-14104984D01*
X17324801Y-14104984D02*
X17305753Y-14095460D01*
X17305753Y-14095460D02*
X17296230Y-14076412D01*
X17296230Y-14076412D02*
X17296230Y-14000222D01*
X17296230Y-14000222D02*
X17305753Y-13981174D01*
X17305753Y-13981174D02*
X17324801Y-13971650D01*
X17324801Y-13971650D02*
X17362896Y-13971650D01*
X17362896Y-13971650D02*
X17381944Y-13981174D01*
X17381944Y-13981174D02*
X17391468Y-14000222D01*
X17391468Y-14000222D02*
X17391468Y-14019269D01*
X17391468Y-14019269D02*
X17296230Y-14038317D01*
X17467658Y-14095460D02*
X17486706Y-14104984D01*
X17486706Y-14104984D02*
X17524801Y-14104984D01*
X17524801Y-14104984D02*
X17543849Y-14095460D01*
X17543849Y-14095460D02*
X17553373Y-14076412D01*
X17553373Y-14076412D02*
X17553373Y-14066888D01*
X17553373Y-14066888D02*
X17543849Y-14047841D01*
X17543849Y-14047841D02*
X17524801Y-14038317D01*
X17524801Y-14038317D02*
X17496230Y-14038317D01*
X17496230Y-14038317D02*
X17477182Y-14028793D01*
X17477182Y-14028793D02*
X17467658Y-14009746D01*
X17467658Y-14009746D02*
X17467658Y-14000222D01*
X17467658Y-14000222D02*
X17477182Y-13981174D01*
X17477182Y-13981174D02*
X17496230Y-13971650D01*
X17496230Y-13971650D02*
X17524801Y-13971650D01*
X17524801Y-13971650D02*
X17543849Y-13981174D01*
X17620039Y-14181174D02*
X17629563Y-14171650D01*
X17629563Y-14171650D02*
X17648611Y-14143079D01*
X17648611Y-14143079D02*
X17658134Y-14124031D01*
X17658134Y-14124031D02*
X17667658Y-14095460D01*
X17667658Y-14095460D02*
X17677182Y-14047841D01*
X17677182Y-14047841D02*
X17677182Y-14009746D01*
X17677182Y-14009746D02*
X17667658Y-13962127D01*
X17667658Y-13962127D02*
X17658134Y-13933555D01*
X17658134Y-13933555D02*
X17648611Y-13914508D01*
X17648611Y-13914508D02*
X17629563Y-13885936D01*
X17629563Y-13885936D02*
X17620039Y-13876412D01*
D12*
X12639500Y-14262500D02*
X12639500Y-14292500D01*
X12624500Y-14277500D02*
X12654500Y-14277500D01*
D11*
X12953372Y-14168984D02*
X12972420Y-14168984D01*
X12972420Y-14168984D02*
X12991467Y-14178508D01*
X12991467Y-14178508D02*
X13000991Y-14188031D01*
X13000991Y-14188031D02*
X13010515Y-14207079D01*
X13010515Y-14207079D02*
X13020039Y-14245174D01*
X13020039Y-14245174D02*
X13020039Y-14292793D01*
X13020039Y-14292793D02*
X13010515Y-14330888D01*
X13010515Y-14330888D02*
X13000991Y-14349936D01*
X13000991Y-14349936D02*
X12991467Y-14359460D01*
X12991467Y-14359460D02*
X12972420Y-14368984D01*
X12972420Y-14368984D02*
X12953372Y-14368984D01*
X12953372Y-14368984D02*
X12934324Y-14359460D01*
X12934324Y-14359460D02*
X12924801Y-14349936D01*
X12924801Y-14349936D02*
X12915277Y-14330888D01*
X12915277Y-14330888D02*
X12905753Y-14292793D01*
X12905753Y-14292793D02*
X12905753Y-14245174D01*
X12905753Y-14245174D02*
X12915277Y-14207079D01*
X12915277Y-14207079D02*
X12924801Y-14188031D01*
X12924801Y-14188031D02*
X12934324Y-14178508D01*
X12934324Y-14178508D02*
X12953372Y-14168984D01*
X13105753Y-14349936D02*
X13115277Y-14359460D01*
X13115277Y-14359460D02*
X13105753Y-14368984D01*
X13105753Y-14368984D02*
X13096229Y-14359460D01*
X13096229Y-14359460D02*
X13105753Y-14349936D01*
X13105753Y-14349936D02*
X13105753Y-14368984D01*
X13181943Y-14168984D02*
X13305753Y-14168984D01*
X13305753Y-14168984D02*
X13239086Y-14245174D01*
X13239086Y-14245174D02*
X13267658Y-14245174D01*
X13267658Y-14245174D02*
X13286705Y-14254698D01*
X13286705Y-14254698D02*
X13296229Y-14264222D01*
X13296229Y-14264222D02*
X13305753Y-14283269D01*
X13305753Y-14283269D02*
X13305753Y-14330888D01*
X13305753Y-14330888D02*
X13296229Y-14349936D01*
X13296229Y-14349936D02*
X13286705Y-14359460D01*
X13286705Y-14359460D02*
X13267658Y-14368984D01*
X13267658Y-14368984D02*
X13210515Y-14368984D01*
X13210515Y-14368984D02*
X13191467Y-14359460D01*
X13191467Y-14359460D02*
X13181943Y-14349936D01*
X13429562Y-14168984D02*
X13448610Y-14168984D01*
X13448610Y-14168984D02*
X13467658Y-14178508D01*
X13467658Y-14178508D02*
X13477182Y-14188031D01*
X13477182Y-14188031D02*
X13486705Y-14207079D01*
X13486705Y-14207079D02*
X13496229Y-14245174D01*
X13496229Y-14245174D02*
X13496229Y-14292793D01*
X13496229Y-14292793D02*
X13486705Y-14330888D01*
X13486705Y-14330888D02*
X13477182Y-14349936D01*
X13477182Y-14349936D02*
X13467658Y-14359460D01*
X13467658Y-14359460D02*
X13448610Y-14368984D01*
X13448610Y-14368984D02*
X13429562Y-14368984D01*
X13429562Y-14368984D02*
X13410515Y-14359460D01*
X13410515Y-14359460D02*
X13400991Y-14349936D01*
X13400991Y-14349936D02*
X13391467Y-14330888D01*
X13391467Y-14330888D02*
X13381943Y-14292793D01*
X13381943Y-14292793D02*
X13381943Y-14245174D01*
X13381943Y-14245174D02*
X13391467Y-14207079D01*
X13391467Y-14207079D02*
X13400991Y-14188031D01*
X13400991Y-14188031D02*
X13410515Y-14178508D01*
X13410515Y-14178508D02*
X13429562Y-14168984D01*
X13620039Y-14168984D02*
X13639086Y-14168984D01*
X13639086Y-14168984D02*
X13658134Y-14178508D01*
X13658134Y-14178508D02*
X13667658Y-14188031D01*
X13667658Y-14188031D02*
X13677182Y-14207079D01*
X13677182Y-14207079D02*
X13686705Y-14245174D01*
X13686705Y-14245174D02*
X13686705Y-14292793D01*
X13686705Y-14292793D02*
X13677182Y-14330888D01*
X13677182Y-14330888D02*
X13667658Y-14349936D01*
X13667658Y-14349936D02*
X13658134Y-14359460D01*
X13658134Y-14359460D02*
X13639086Y-14368984D01*
X13639086Y-14368984D02*
X13620039Y-14368984D01*
X13620039Y-14368984D02*
X13600991Y-14359460D01*
X13600991Y-14359460D02*
X13591467Y-14349936D01*
X13591467Y-14349936D02*
X13581943Y-14330888D01*
X13581943Y-14330888D02*
X13572420Y-14292793D01*
X13572420Y-14292793D02*
X13572420Y-14245174D01*
X13572420Y-14245174D02*
X13581943Y-14207079D01*
X13581943Y-14207079D02*
X13591467Y-14188031D01*
X13591467Y-14188031D02*
X13600991Y-14178508D01*
X13600991Y-14178508D02*
X13620039Y-14168984D01*
X13772420Y-14368984D02*
X13772420Y-14235650D01*
X13772420Y-14254698D02*
X13781943Y-14245174D01*
X13781943Y-14245174D02*
X13800991Y-14235650D01*
X13800991Y-14235650D02*
X13829563Y-14235650D01*
X13829563Y-14235650D02*
X13848610Y-14245174D01*
X13848610Y-14245174D02*
X13858134Y-14264222D01*
X13858134Y-14264222D02*
X13858134Y-14368984D01*
X13858134Y-14264222D02*
X13867658Y-14245174D01*
X13867658Y-14245174D02*
X13886705Y-14235650D01*
X13886705Y-14235650D02*
X13915277Y-14235650D01*
X13915277Y-14235650D02*
X13934324Y-14245174D01*
X13934324Y-14245174D02*
X13943848Y-14264222D01*
X13943848Y-14264222D02*
X13943848Y-14368984D01*
X14039086Y-14368984D02*
X14039086Y-14235650D01*
X14039086Y-14254698D02*
X14048610Y-14245174D01*
X14048610Y-14245174D02*
X14067658Y-14235650D01*
X14067658Y-14235650D02*
X14096229Y-14235650D01*
X14096229Y-14235650D02*
X14115277Y-14245174D01*
X14115277Y-14245174D02*
X14124801Y-14264222D01*
X14124801Y-14264222D02*
X14124801Y-14368984D01*
X14124801Y-14264222D02*
X14134324Y-14245174D01*
X14134324Y-14245174D02*
X14153372Y-14235650D01*
X14153372Y-14235650D02*
X14181943Y-14235650D01*
X14181943Y-14235650D02*
X14200991Y-14245174D01*
X14200991Y-14245174D02*
X14210515Y-14264222D01*
X14210515Y-14264222D02*
X14210515Y-14368984D01*
X14600991Y-14159460D02*
X14429563Y-14416603D01*
X14858134Y-14168984D02*
X14877182Y-14168984D01*
X14877182Y-14168984D02*
X14896229Y-14178508D01*
X14896229Y-14178508D02*
X14905753Y-14188031D01*
X14905753Y-14188031D02*
X14915277Y-14207079D01*
X14915277Y-14207079D02*
X14924801Y-14245174D01*
X14924801Y-14245174D02*
X14924801Y-14292793D01*
X14924801Y-14292793D02*
X14915277Y-14330888D01*
X14915277Y-14330888D02*
X14905753Y-14349936D01*
X14905753Y-14349936D02*
X14896229Y-14359460D01*
X14896229Y-14359460D02*
X14877182Y-14368984D01*
X14877182Y-14368984D02*
X14858134Y-14368984D01*
X14858134Y-14368984D02*
X14839086Y-14359460D01*
X14839086Y-14359460D02*
X14829563Y-14349936D01*
X14829563Y-14349936D02*
X14820039Y-14330888D01*
X14820039Y-14330888D02*
X14810515Y-14292793D01*
X14810515Y-14292793D02*
X14810515Y-14245174D01*
X14810515Y-14245174D02*
X14820039Y-14207079D01*
X14820039Y-14207079D02*
X14829563Y-14188031D01*
X14829563Y-14188031D02*
X14839086Y-14178508D01*
X14839086Y-14178508D02*
X14858134Y-14168984D01*
X15010515Y-14349936D02*
X15020039Y-14359460D01*
X15020039Y-14359460D02*
X15010515Y-14368984D01*
X15010515Y-14368984D02*
X15000991Y-14359460D01*
X15000991Y-14359460D02*
X15010515Y-14349936D01*
X15010515Y-14349936D02*
X15010515Y-14368984D01*
X15143848Y-14168984D02*
X15162896Y-14168984D01*
X15162896Y-14168984D02*
X15181944Y-14178508D01*
X15181944Y-14178508D02*
X15191467Y-14188031D01*
X15191467Y-14188031D02*
X15200991Y-14207079D01*
X15200991Y-14207079D02*
X15210515Y-14245174D01*
X15210515Y-14245174D02*
X15210515Y-14292793D01*
X15210515Y-14292793D02*
X15200991Y-14330888D01*
X15200991Y-14330888D02*
X15191467Y-14349936D01*
X15191467Y-14349936D02*
X15181944Y-14359460D01*
X15181944Y-14359460D02*
X15162896Y-14368984D01*
X15162896Y-14368984D02*
X15143848Y-14368984D01*
X15143848Y-14368984D02*
X15124801Y-14359460D01*
X15124801Y-14359460D02*
X15115277Y-14349936D01*
X15115277Y-14349936D02*
X15105753Y-14330888D01*
X15105753Y-14330888D02*
X15096229Y-14292793D01*
X15096229Y-14292793D02*
X15096229Y-14245174D01*
X15096229Y-14245174D02*
X15105753Y-14207079D01*
X15105753Y-14207079D02*
X15115277Y-14188031D01*
X15115277Y-14188031D02*
X15124801Y-14178508D01*
X15124801Y-14178508D02*
X15143848Y-14168984D01*
X15400991Y-14368984D02*
X15286706Y-14368984D01*
X15343848Y-14368984D02*
X15343848Y-14168984D01*
X15343848Y-14168984D02*
X15324801Y-14197555D01*
X15324801Y-14197555D02*
X15305753Y-14216603D01*
X15305753Y-14216603D02*
X15286706Y-14226127D01*
X15591467Y-14368984D02*
X15477182Y-14368984D01*
X15534325Y-14368984D02*
X15534325Y-14168984D01*
X15534325Y-14168984D02*
X15515277Y-14197555D01*
X15515277Y-14197555D02*
X15496229Y-14216603D01*
X15496229Y-14216603D02*
X15477182Y-14226127D01*
X15705753Y-14254698D02*
X15686706Y-14245174D01*
X15686706Y-14245174D02*
X15677182Y-14235650D01*
X15677182Y-14235650D02*
X15667658Y-14216603D01*
X15667658Y-14216603D02*
X15667658Y-14207079D01*
X15667658Y-14207079D02*
X15677182Y-14188031D01*
X15677182Y-14188031D02*
X15686706Y-14178508D01*
X15686706Y-14178508D02*
X15705753Y-14168984D01*
X15705753Y-14168984D02*
X15743848Y-14168984D01*
X15743848Y-14168984D02*
X15762896Y-14178508D01*
X15762896Y-14178508D02*
X15772420Y-14188031D01*
X15772420Y-14188031D02*
X15781944Y-14207079D01*
X15781944Y-14207079D02*
X15781944Y-14216603D01*
X15781944Y-14216603D02*
X15772420Y-14235650D01*
X15772420Y-14235650D02*
X15762896Y-14245174D01*
X15762896Y-14245174D02*
X15743848Y-14254698D01*
X15743848Y-14254698D02*
X15705753Y-14254698D01*
X15705753Y-14254698D02*
X15686706Y-14264222D01*
X15686706Y-14264222D02*
X15677182Y-14273746D01*
X15677182Y-14273746D02*
X15667658Y-14292793D01*
X15667658Y-14292793D02*
X15667658Y-14330888D01*
X15667658Y-14330888D02*
X15677182Y-14349936D01*
X15677182Y-14349936D02*
X15686706Y-14359460D01*
X15686706Y-14359460D02*
X15705753Y-14368984D01*
X15705753Y-14368984D02*
X15743848Y-14368984D01*
X15743848Y-14368984D02*
X15762896Y-14359460D01*
X15762896Y-14359460D02*
X15772420Y-14349936D01*
X15772420Y-14349936D02*
X15781944Y-14330888D01*
X15781944Y-14330888D02*
X15781944Y-14292793D01*
X15781944Y-14292793D02*
X15772420Y-14273746D01*
X15772420Y-14273746D02*
X15762896Y-14264222D01*
X15762896Y-14264222D02*
X15743848Y-14254698D01*
X15858134Y-14168984D02*
X15858134Y-14207079D01*
X15934325Y-14168984D02*
X15934325Y-14207079D01*
X16229563Y-14445174D02*
X16220039Y-14435650D01*
X16220039Y-14435650D02*
X16200991Y-14407079D01*
X16200991Y-14407079D02*
X16191468Y-14388031D01*
X16191468Y-14388031D02*
X16181944Y-14359460D01*
X16181944Y-14359460D02*
X16172420Y-14311841D01*
X16172420Y-14311841D02*
X16172420Y-14273746D01*
X16172420Y-14273746D02*
X16181944Y-14226127D01*
X16181944Y-14226127D02*
X16191468Y-14197555D01*
X16191468Y-14197555D02*
X16200991Y-14178508D01*
X16200991Y-14178508D02*
X16220039Y-14149936D01*
X16220039Y-14149936D02*
X16229563Y-14140412D01*
X16286706Y-14168984D02*
X16410515Y-14168984D01*
X16410515Y-14168984D02*
X16343848Y-14245174D01*
X16343848Y-14245174D02*
X16372420Y-14245174D01*
X16372420Y-14245174D02*
X16391468Y-14254698D01*
X16391468Y-14254698D02*
X16400991Y-14264222D01*
X16400991Y-14264222D02*
X16410515Y-14283269D01*
X16410515Y-14283269D02*
X16410515Y-14330888D01*
X16410515Y-14330888D02*
X16400991Y-14349936D01*
X16400991Y-14349936D02*
X16391468Y-14359460D01*
X16391468Y-14359460D02*
X16372420Y-14368984D01*
X16372420Y-14368984D02*
X16315277Y-14368984D01*
X16315277Y-14368984D02*
X16296229Y-14359460D01*
X16296229Y-14359460D02*
X16286706Y-14349936D01*
X16648610Y-14368984D02*
X16648610Y-14168984D01*
X16734325Y-14368984D02*
X16734325Y-14264222D01*
X16734325Y-14264222D02*
X16724801Y-14245174D01*
X16724801Y-14245174D02*
X16705753Y-14235650D01*
X16705753Y-14235650D02*
X16677182Y-14235650D01*
X16677182Y-14235650D02*
X16658134Y-14245174D01*
X16658134Y-14245174D02*
X16648610Y-14254698D01*
X16858134Y-14368984D02*
X16839087Y-14359460D01*
X16839087Y-14359460D02*
X16829563Y-14349936D01*
X16829563Y-14349936D02*
X16820039Y-14330888D01*
X16820039Y-14330888D02*
X16820039Y-14273746D01*
X16820039Y-14273746D02*
X16829563Y-14254698D01*
X16829563Y-14254698D02*
X16839087Y-14245174D01*
X16839087Y-14245174D02*
X16858134Y-14235650D01*
X16858134Y-14235650D02*
X16886706Y-14235650D01*
X16886706Y-14235650D02*
X16905753Y-14245174D01*
X16905753Y-14245174D02*
X16915277Y-14254698D01*
X16915277Y-14254698D02*
X16924801Y-14273746D01*
X16924801Y-14273746D02*
X16924801Y-14330888D01*
X16924801Y-14330888D02*
X16915277Y-14349936D01*
X16915277Y-14349936D02*
X16905753Y-14359460D01*
X16905753Y-14359460D02*
X16886706Y-14368984D01*
X16886706Y-14368984D02*
X16858134Y-14368984D01*
X17039087Y-14368984D02*
X17020039Y-14359460D01*
X17020039Y-14359460D02*
X17010515Y-14340412D01*
X17010515Y-14340412D02*
X17010515Y-14168984D01*
X17191468Y-14359460D02*
X17172420Y-14368984D01*
X17172420Y-14368984D02*
X17134325Y-14368984D01*
X17134325Y-14368984D02*
X17115277Y-14359460D01*
X17115277Y-14359460D02*
X17105753Y-14340412D01*
X17105753Y-14340412D02*
X17105753Y-14264222D01*
X17105753Y-14264222D02*
X17115277Y-14245174D01*
X17115277Y-14245174D02*
X17134325Y-14235650D01*
X17134325Y-14235650D02*
X17172420Y-14235650D01*
X17172420Y-14235650D02*
X17191468Y-14245174D01*
X17191468Y-14245174D02*
X17200992Y-14264222D01*
X17200992Y-14264222D02*
X17200992Y-14283269D01*
X17200992Y-14283269D02*
X17105753Y-14302317D01*
X17277182Y-14359460D02*
X17296230Y-14368984D01*
X17296230Y-14368984D02*
X17334325Y-14368984D01*
X17334325Y-14368984D02*
X17353373Y-14359460D01*
X17353373Y-14359460D02*
X17362896Y-14340412D01*
X17362896Y-14340412D02*
X17362896Y-14330888D01*
X17362896Y-14330888D02*
X17353373Y-14311841D01*
X17353373Y-14311841D02*
X17334325Y-14302317D01*
X17334325Y-14302317D02*
X17305753Y-14302317D01*
X17305753Y-14302317D02*
X17286706Y-14292793D01*
X17286706Y-14292793D02*
X17277182Y-14273746D01*
X17277182Y-14273746D02*
X17277182Y-14264222D01*
X17277182Y-14264222D02*
X17286706Y-14245174D01*
X17286706Y-14245174D02*
X17305753Y-14235650D01*
X17305753Y-14235650D02*
X17334325Y-14235650D01*
X17334325Y-14235650D02*
X17353373Y-14245174D01*
X17429563Y-14445174D02*
X17439087Y-14435650D01*
X17439087Y-14435650D02*
X17458134Y-14407079D01*
X17458134Y-14407079D02*
X17467658Y-14388031D01*
X17467658Y-14388031D02*
X17477182Y-14359460D01*
X17477182Y-14359460D02*
X17486706Y-14311841D01*
X17486706Y-14311841D02*
X17486706Y-14273746D01*
X17486706Y-14273746D02*
X17477182Y-14226127D01*
X17477182Y-14226127D02*
X17467658Y-14197555D01*
X17467658Y-14197555D02*
X17458134Y-14178508D01*
X17458134Y-14178508D02*
X17439087Y-14149936D01*
X17439087Y-14149936D02*
X17429563Y-14140412D01*
D12*
X12645713Y-14562713D02*
X12645713Y-14520287D01*
X12603287Y-14520287D01*
X12603287Y-14562713D01*
X12645713Y-14562713D01*
D11*
X12953372Y-14432984D02*
X12972420Y-14432984D01*
X12972420Y-14432984D02*
X12991467Y-14442508D01*
X12991467Y-14442508D02*
X13000991Y-14452031D01*
X13000991Y-14452031D02*
X13010515Y-14471079D01*
X13010515Y-14471079D02*
X13020039Y-14509174D01*
X13020039Y-14509174D02*
X13020039Y-14556793D01*
X13020039Y-14556793D02*
X13010515Y-14594888D01*
X13010515Y-14594888D02*
X13000991Y-14613936D01*
X13000991Y-14613936D02*
X12991467Y-14623460D01*
X12991467Y-14623460D02*
X12972420Y-14632984D01*
X12972420Y-14632984D02*
X12953372Y-14632984D01*
X12953372Y-14632984D02*
X12934324Y-14623460D01*
X12934324Y-14623460D02*
X12924801Y-14613936D01*
X12924801Y-14613936D02*
X12915277Y-14594888D01*
X12915277Y-14594888D02*
X12905753Y-14556793D01*
X12905753Y-14556793D02*
X12905753Y-14509174D01*
X12905753Y-14509174D02*
X12915277Y-14471079D01*
X12915277Y-14471079D02*
X12924801Y-14452031D01*
X12924801Y-14452031D02*
X12934324Y-14442508D01*
X12934324Y-14442508D02*
X12953372Y-14432984D01*
X13105753Y-14613936D02*
X13115277Y-14623460D01*
X13115277Y-14623460D02*
X13105753Y-14632984D01*
X13105753Y-14632984D02*
X13096229Y-14623460D01*
X13096229Y-14623460D02*
X13105753Y-14613936D01*
X13105753Y-14613936D02*
X13105753Y-14632984D01*
X13286705Y-14432984D02*
X13248610Y-14432984D01*
X13248610Y-14432984D02*
X13229562Y-14442508D01*
X13229562Y-14442508D02*
X13220039Y-14452031D01*
X13220039Y-14452031D02*
X13200991Y-14480603D01*
X13200991Y-14480603D02*
X13191467Y-14518698D01*
X13191467Y-14518698D02*
X13191467Y-14594888D01*
X13191467Y-14594888D02*
X13200991Y-14613936D01*
X13200991Y-14613936D02*
X13210515Y-14623460D01*
X13210515Y-14623460D02*
X13229562Y-14632984D01*
X13229562Y-14632984D02*
X13267658Y-14632984D01*
X13267658Y-14632984D02*
X13286705Y-14623460D01*
X13286705Y-14623460D02*
X13296229Y-14613936D01*
X13296229Y-14613936D02*
X13305753Y-14594888D01*
X13305753Y-14594888D02*
X13305753Y-14547269D01*
X13305753Y-14547269D02*
X13296229Y-14528222D01*
X13296229Y-14528222D02*
X13286705Y-14518698D01*
X13286705Y-14518698D02*
X13267658Y-14509174D01*
X13267658Y-14509174D02*
X13229562Y-14509174D01*
X13229562Y-14509174D02*
X13210515Y-14518698D01*
X13210515Y-14518698D02*
X13200991Y-14528222D01*
X13200991Y-14528222D02*
X13191467Y-14547269D01*
X13429562Y-14432984D02*
X13448610Y-14432984D01*
X13448610Y-14432984D02*
X13467658Y-14442508D01*
X13467658Y-14442508D02*
X13477182Y-14452031D01*
X13477182Y-14452031D02*
X13486705Y-14471079D01*
X13486705Y-14471079D02*
X13496229Y-14509174D01*
X13496229Y-14509174D02*
X13496229Y-14556793D01*
X13496229Y-14556793D02*
X13486705Y-14594888D01*
X13486705Y-14594888D02*
X13477182Y-14613936D01*
X13477182Y-14613936D02*
X13467658Y-14623460D01*
X13467658Y-14623460D02*
X13448610Y-14632984D01*
X13448610Y-14632984D02*
X13429562Y-14632984D01*
X13429562Y-14632984D02*
X13410515Y-14623460D01*
X13410515Y-14623460D02*
X13400991Y-14613936D01*
X13400991Y-14613936D02*
X13391467Y-14594888D01*
X13391467Y-14594888D02*
X13381943Y-14556793D01*
X13381943Y-14556793D02*
X13381943Y-14509174D01*
X13381943Y-14509174D02*
X13391467Y-14471079D01*
X13391467Y-14471079D02*
X13400991Y-14452031D01*
X13400991Y-14452031D02*
X13410515Y-14442508D01*
X13410515Y-14442508D02*
X13429562Y-14432984D01*
X13620039Y-14432984D02*
X13639086Y-14432984D01*
X13639086Y-14432984D02*
X13658134Y-14442508D01*
X13658134Y-14442508D02*
X13667658Y-14452031D01*
X13667658Y-14452031D02*
X13677182Y-14471079D01*
X13677182Y-14471079D02*
X13686705Y-14509174D01*
X13686705Y-14509174D02*
X13686705Y-14556793D01*
X13686705Y-14556793D02*
X13677182Y-14594888D01*
X13677182Y-14594888D02*
X13667658Y-14613936D01*
X13667658Y-14613936D02*
X13658134Y-14623460D01*
X13658134Y-14623460D02*
X13639086Y-14632984D01*
X13639086Y-14632984D02*
X13620039Y-14632984D01*
X13620039Y-14632984D02*
X13600991Y-14623460D01*
X13600991Y-14623460D02*
X13591467Y-14613936D01*
X13591467Y-14613936D02*
X13581943Y-14594888D01*
X13581943Y-14594888D02*
X13572420Y-14556793D01*
X13572420Y-14556793D02*
X13572420Y-14509174D01*
X13572420Y-14509174D02*
X13581943Y-14471079D01*
X13581943Y-14471079D02*
X13591467Y-14452031D01*
X13591467Y-14452031D02*
X13600991Y-14442508D01*
X13600991Y-14442508D02*
X13620039Y-14432984D01*
X13772420Y-14632984D02*
X13772420Y-14499650D01*
X13772420Y-14518698D02*
X13781943Y-14509174D01*
X13781943Y-14509174D02*
X13800991Y-14499650D01*
X13800991Y-14499650D02*
X13829563Y-14499650D01*
X13829563Y-14499650D02*
X13848610Y-14509174D01*
X13848610Y-14509174D02*
X13858134Y-14528222D01*
X13858134Y-14528222D02*
X13858134Y-14632984D01*
X13858134Y-14528222D02*
X13867658Y-14509174D01*
X13867658Y-14509174D02*
X13886705Y-14499650D01*
X13886705Y-14499650D02*
X13915277Y-14499650D01*
X13915277Y-14499650D02*
X13934324Y-14509174D01*
X13934324Y-14509174D02*
X13943848Y-14528222D01*
X13943848Y-14528222D02*
X13943848Y-14632984D01*
X14039086Y-14632984D02*
X14039086Y-14499650D01*
X14039086Y-14518698D02*
X14048610Y-14509174D01*
X14048610Y-14509174D02*
X14067658Y-14499650D01*
X14067658Y-14499650D02*
X14096229Y-14499650D01*
X14096229Y-14499650D02*
X14115277Y-14509174D01*
X14115277Y-14509174D02*
X14124801Y-14528222D01*
X14124801Y-14528222D02*
X14124801Y-14632984D01*
X14124801Y-14528222D02*
X14134324Y-14509174D01*
X14134324Y-14509174D02*
X14153372Y-14499650D01*
X14153372Y-14499650D02*
X14181943Y-14499650D01*
X14181943Y-14499650D02*
X14200991Y-14509174D01*
X14200991Y-14509174D02*
X14210515Y-14528222D01*
X14210515Y-14528222D02*
X14210515Y-14632984D01*
X14600991Y-14423460D02*
X14429563Y-14680603D01*
X14858134Y-14432984D02*
X14877182Y-14432984D01*
X14877182Y-14432984D02*
X14896229Y-14442508D01*
X14896229Y-14442508D02*
X14905753Y-14452031D01*
X14905753Y-14452031D02*
X14915277Y-14471079D01*
X14915277Y-14471079D02*
X14924801Y-14509174D01*
X14924801Y-14509174D02*
X14924801Y-14556793D01*
X14924801Y-14556793D02*
X14915277Y-14594888D01*
X14915277Y-14594888D02*
X14905753Y-14613936D01*
X14905753Y-14613936D02*
X14896229Y-14623460D01*
X14896229Y-14623460D02*
X14877182Y-14632984D01*
X14877182Y-14632984D02*
X14858134Y-14632984D01*
X14858134Y-14632984D02*
X14839086Y-14623460D01*
X14839086Y-14623460D02*
X14829563Y-14613936D01*
X14829563Y-14613936D02*
X14820039Y-14594888D01*
X14820039Y-14594888D02*
X14810515Y-14556793D01*
X14810515Y-14556793D02*
X14810515Y-14509174D01*
X14810515Y-14509174D02*
X14820039Y-14471079D01*
X14820039Y-14471079D02*
X14829563Y-14452031D01*
X14829563Y-14452031D02*
X14839086Y-14442508D01*
X14839086Y-14442508D02*
X14858134Y-14432984D01*
X15010515Y-14613936D02*
X15020039Y-14623460D01*
X15020039Y-14623460D02*
X15010515Y-14632984D01*
X15010515Y-14632984D02*
X15000991Y-14623460D01*
X15000991Y-14623460D02*
X15010515Y-14613936D01*
X15010515Y-14613936D02*
X15010515Y-14632984D01*
X15143848Y-14432984D02*
X15162896Y-14432984D01*
X15162896Y-14432984D02*
X15181944Y-14442508D01*
X15181944Y-14442508D02*
X15191467Y-14452031D01*
X15191467Y-14452031D02*
X15200991Y-14471079D01*
X15200991Y-14471079D02*
X15210515Y-14509174D01*
X15210515Y-14509174D02*
X15210515Y-14556793D01*
X15210515Y-14556793D02*
X15200991Y-14594888D01*
X15200991Y-14594888D02*
X15191467Y-14613936D01*
X15191467Y-14613936D02*
X15181944Y-14623460D01*
X15181944Y-14623460D02*
X15162896Y-14632984D01*
X15162896Y-14632984D02*
X15143848Y-14632984D01*
X15143848Y-14632984D02*
X15124801Y-14623460D01*
X15124801Y-14623460D02*
X15115277Y-14613936D01*
X15115277Y-14613936D02*
X15105753Y-14594888D01*
X15105753Y-14594888D02*
X15096229Y-14556793D01*
X15096229Y-14556793D02*
X15096229Y-14509174D01*
X15096229Y-14509174D02*
X15105753Y-14471079D01*
X15105753Y-14471079D02*
X15115277Y-14452031D01*
X15115277Y-14452031D02*
X15124801Y-14442508D01*
X15124801Y-14442508D02*
X15143848Y-14432984D01*
X15286706Y-14452031D02*
X15296229Y-14442508D01*
X15296229Y-14442508D02*
X15315277Y-14432984D01*
X15315277Y-14432984D02*
X15362896Y-14432984D01*
X15362896Y-14432984D02*
X15381944Y-14442508D01*
X15381944Y-14442508D02*
X15391467Y-14452031D01*
X15391467Y-14452031D02*
X15400991Y-14471079D01*
X15400991Y-14471079D02*
X15400991Y-14490127D01*
X15400991Y-14490127D02*
X15391467Y-14518698D01*
X15391467Y-14518698D02*
X15277182Y-14632984D01*
X15277182Y-14632984D02*
X15400991Y-14632984D01*
X15467658Y-14432984D02*
X15591467Y-14432984D01*
X15591467Y-14432984D02*
X15524801Y-14509174D01*
X15524801Y-14509174D02*
X15553372Y-14509174D01*
X15553372Y-14509174D02*
X15572420Y-14518698D01*
X15572420Y-14518698D02*
X15581944Y-14528222D01*
X15581944Y-14528222D02*
X15591467Y-14547269D01*
X15591467Y-14547269D02*
X15591467Y-14594888D01*
X15591467Y-14594888D02*
X15581944Y-14613936D01*
X15581944Y-14613936D02*
X15572420Y-14623460D01*
X15572420Y-14623460D02*
X15553372Y-14632984D01*
X15553372Y-14632984D02*
X15496229Y-14632984D01*
X15496229Y-14632984D02*
X15477182Y-14623460D01*
X15477182Y-14623460D02*
X15467658Y-14613936D01*
X15762896Y-14432984D02*
X15724801Y-14432984D01*
X15724801Y-14432984D02*
X15705753Y-14442508D01*
X15705753Y-14442508D02*
X15696229Y-14452031D01*
X15696229Y-14452031D02*
X15677182Y-14480603D01*
X15677182Y-14480603D02*
X15667658Y-14518698D01*
X15667658Y-14518698D02*
X15667658Y-14594888D01*
X15667658Y-14594888D02*
X15677182Y-14613936D01*
X15677182Y-14613936D02*
X15686706Y-14623460D01*
X15686706Y-14623460D02*
X15705753Y-14632984D01*
X15705753Y-14632984D02*
X15743848Y-14632984D01*
X15743848Y-14632984D02*
X15762896Y-14623460D01*
X15762896Y-14623460D02*
X15772420Y-14613936D01*
X15772420Y-14613936D02*
X15781944Y-14594888D01*
X15781944Y-14594888D02*
X15781944Y-14547269D01*
X15781944Y-14547269D02*
X15772420Y-14528222D01*
X15772420Y-14528222D02*
X15762896Y-14518698D01*
X15762896Y-14518698D02*
X15743848Y-14509174D01*
X15743848Y-14509174D02*
X15705753Y-14509174D01*
X15705753Y-14509174D02*
X15686706Y-14518698D01*
X15686706Y-14518698D02*
X15677182Y-14528222D01*
X15677182Y-14528222D02*
X15667658Y-14547269D01*
X15858134Y-14432984D02*
X15858134Y-14471079D01*
X15934325Y-14432984D02*
X15934325Y-14471079D01*
X16229563Y-14709174D02*
X16220039Y-14699650D01*
X16220039Y-14699650D02*
X16200991Y-14671079D01*
X16200991Y-14671079D02*
X16191468Y-14652031D01*
X16191468Y-14652031D02*
X16181944Y-14623460D01*
X16181944Y-14623460D02*
X16172420Y-14575841D01*
X16172420Y-14575841D02*
X16172420Y-14537746D01*
X16172420Y-14537746D02*
X16181944Y-14490127D01*
X16181944Y-14490127D02*
X16191468Y-14461555D01*
X16191468Y-14461555D02*
X16200991Y-14442508D01*
X16200991Y-14442508D02*
X16220039Y-14413936D01*
X16220039Y-14413936D02*
X16229563Y-14404412D01*
X16343848Y-14432984D02*
X16362896Y-14432984D01*
X16362896Y-14432984D02*
X16381944Y-14442508D01*
X16381944Y-14442508D02*
X16391468Y-14452031D01*
X16391468Y-14452031D02*
X16400991Y-14471079D01*
X16400991Y-14471079D02*
X16410515Y-14509174D01*
X16410515Y-14509174D02*
X16410515Y-14556793D01*
X16410515Y-14556793D02*
X16400991Y-14594888D01*
X16400991Y-14594888D02*
X16391468Y-14613936D01*
X16391468Y-14613936D02*
X16381944Y-14623460D01*
X16381944Y-14623460D02*
X16362896Y-14632984D01*
X16362896Y-14632984D02*
X16343848Y-14632984D01*
X16343848Y-14632984D02*
X16324801Y-14623460D01*
X16324801Y-14623460D02*
X16315277Y-14613936D01*
X16315277Y-14613936D02*
X16305753Y-14594888D01*
X16305753Y-14594888D02*
X16296229Y-14556793D01*
X16296229Y-14556793D02*
X16296229Y-14509174D01*
X16296229Y-14509174D02*
X16305753Y-14471079D01*
X16305753Y-14471079D02*
X16315277Y-14452031D01*
X16315277Y-14452031D02*
X16324801Y-14442508D01*
X16324801Y-14442508D02*
X16343848Y-14432984D01*
X16648610Y-14632984D02*
X16648610Y-14432984D01*
X16734325Y-14632984D02*
X16734325Y-14528222D01*
X16734325Y-14528222D02*
X16724801Y-14509174D01*
X16724801Y-14509174D02*
X16705753Y-14499650D01*
X16705753Y-14499650D02*
X16677182Y-14499650D01*
X16677182Y-14499650D02*
X16658134Y-14509174D01*
X16658134Y-14509174D02*
X16648610Y-14518698D01*
X16858134Y-14632984D02*
X16839087Y-14623460D01*
X16839087Y-14623460D02*
X16829563Y-14613936D01*
X16829563Y-14613936D02*
X16820039Y-14594888D01*
X16820039Y-14594888D02*
X16820039Y-14537746D01*
X16820039Y-14537746D02*
X16829563Y-14518698D01*
X16829563Y-14518698D02*
X16839087Y-14509174D01*
X16839087Y-14509174D02*
X16858134Y-14499650D01*
X16858134Y-14499650D02*
X16886706Y-14499650D01*
X16886706Y-14499650D02*
X16905753Y-14509174D01*
X16905753Y-14509174D02*
X16915277Y-14518698D01*
X16915277Y-14518698D02*
X16924801Y-14537746D01*
X16924801Y-14537746D02*
X16924801Y-14594888D01*
X16924801Y-14594888D02*
X16915277Y-14613936D01*
X16915277Y-14613936D02*
X16905753Y-14623460D01*
X16905753Y-14623460D02*
X16886706Y-14632984D01*
X16886706Y-14632984D02*
X16858134Y-14632984D01*
X17039087Y-14632984D02*
X17020039Y-14623460D01*
X17020039Y-14623460D02*
X17010515Y-14604412D01*
X17010515Y-14604412D02*
X17010515Y-14432984D01*
X17191468Y-14623460D02*
X17172420Y-14632984D01*
X17172420Y-14632984D02*
X17134325Y-14632984D01*
X17134325Y-14632984D02*
X17115277Y-14623460D01*
X17115277Y-14623460D02*
X17105753Y-14604412D01*
X17105753Y-14604412D02*
X17105753Y-14528222D01*
X17105753Y-14528222D02*
X17115277Y-14509174D01*
X17115277Y-14509174D02*
X17134325Y-14499650D01*
X17134325Y-14499650D02*
X17172420Y-14499650D01*
X17172420Y-14499650D02*
X17191468Y-14509174D01*
X17191468Y-14509174D02*
X17200992Y-14528222D01*
X17200992Y-14528222D02*
X17200992Y-14547269D01*
X17200992Y-14547269D02*
X17105753Y-14566317D01*
X17277182Y-14623460D02*
X17296230Y-14632984D01*
X17296230Y-14632984D02*
X17334325Y-14632984D01*
X17334325Y-14632984D02*
X17353373Y-14623460D01*
X17353373Y-14623460D02*
X17362896Y-14604412D01*
X17362896Y-14604412D02*
X17362896Y-14594888D01*
X17362896Y-14594888D02*
X17353373Y-14575841D01*
X17353373Y-14575841D02*
X17334325Y-14566317D01*
X17334325Y-14566317D02*
X17305753Y-14566317D01*
X17305753Y-14566317D02*
X17286706Y-14556793D01*
X17286706Y-14556793D02*
X17277182Y-14537746D01*
X17277182Y-14537746D02*
X17277182Y-14528222D01*
X17277182Y-14528222D02*
X17286706Y-14509174D01*
X17286706Y-14509174D02*
X17305753Y-14499650D01*
X17305753Y-14499650D02*
X17334325Y-14499650D01*
X17334325Y-14499650D02*
X17353373Y-14509174D01*
X17600992Y-14556793D02*
X17753373Y-14556793D01*
X17677182Y-14632984D02*
X17677182Y-14480603D01*
X18086706Y-14499650D02*
X18086706Y-14632984D01*
X18039087Y-14423460D02*
X17991468Y-14566317D01*
X17991468Y-14566317D02*
X18115277Y-14566317D01*
X18334325Y-14623460D02*
X18353373Y-14632984D01*
X18353373Y-14632984D02*
X18391468Y-14632984D01*
X18391468Y-14632984D02*
X18410516Y-14623460D01*
X18410516Y-14623460D02*
X18420039Y-14604412D01*
X18420039Y-14604412D02*
X18420039Y-14594888D01*
X18420039Y-14594888D02*
X18410516Y-14575841D01*
X18410516Y-14575841D02*
X18391468Y-14566317D01*
X18391468Y-14566317D02*
X18362896Y-14566317D01*
X18362896Y-14566317D02*
X18343849Y-14556793D01*
X18343849Y-14556793D02*
X18334325Y-14537746D01*
X18334325Y-14537746D02*
X18334325Y-14528222D01*
X18334325Y-14528222D02*
X18343849Y-14509174D01*
X18343849Y-14509174D02*
X18362896Y-14499650D01*
X18362896Y-14499650D02*
X18391468Y-14499650D01*
X18391468Y-14499650D02*
X18410516Y-14509174D01*
X18534325Y-14632984D02*
X18515277Y-14623460D01*
X18515277Y-14623460D02*
X18505754Y-14604412D01*
X18505754Y-14604412D02*
X18505754Y-14432984D01*
X18639087Y-14632984D02*
X18620039Y-14623460D01*
X18620039Y-14623460D02*
X18610516Y-14613936D01*
X18610516Y-14613936D02*
X18600992Y-14594888D01*
X18600992Y-14594888D02*
X18600992Y-14537746D01*
X18600992Y-14537746D02*
X18610516Y-14518698D01*
X18610516Y-14518698D02*
X18620039Y-14509174D01*
X18620039Y-14509174D02*
X18639087Y-14499650D01*
X18639087Y-14499650D02*
X18667658Y-14499650D01*
X18667658Y-14499650D02*
X18686706Y-14509174D01*
X18686706Y-14509174D02*
X18696230Y-14518698D01*
X18696230Y-14518698D02*
X18705754Y-14537746D01*
X18705754Y-14537746D02*
X18705754Y-14594888D01*
X18705754Y-14594888D02*
X18696230Y-14613936D01*
X18696230Y-14613936D02*
X18686706Y-14623460D01*
X18686706Y-14623460D02*
X18667658Y-14632984D01*
X18667658Y-14632984D02*
X18639087Y-14632984D01*
X18762897Y-14499650D02*
X18839087Y-14499650D01*
X18791468Y-14432984D02*
X18791468Y-14604412D01*
X18791468Y-14604412D02*
X18800992Y-14623460D01*
X18800992Y-14623460D02*
X18820039Y-14632984D01*
X18820039Y-14632984D02*
X18839087Y-14632984D01*
X18896230Y-14623460D02*
X18915277Y-14632984D01*
X18915277Y-14632984D02*
X18953373Y-14632984D01*
X18953373Y-14632984D02*
X18972420Y-14623460D01*
X18972420Y-14623460D02*
X18981944Y-14604412D01*
X18981944Y-14604412D02*
X18981944Y-14594888D01*
X18981944Y-14594888D02*
X18972420Y-14575841D01*
X18972420Y-14575841D02*
X18953373Y-14566317D01*
X18953373Y-14566317D02*
X18924801Y-14566317D01*
X18924801Y-14566317D02*
X18905754Y-14556793D01*
X18905754Y-14556793D02*
X18896230Y-14537746D01*
X18896230Y-14537746D02*
X18896230Y-14528222D01*
X18896230Y-14528222D02*
X18905754Y-14509174D01*
X18905754Y-14509174D02*
X18924801Y-14499650D01*
X18924801Y-14499650D02*
X18953373Y-14499650D01*
X18953373Y-14499650D02*
X18972420Y-14509174D01*
X19048611Y-14709174D02*
X19058135Y-14699650D01*
X19058135Y-14699650D02*
X19077182Y-14671079D01*
X19077182Y-14671079D02*
X19086706Y-14652031D01*
X19086706Y-14652031D02*
X19096230Y-14623460D01*
X19096230Y-14623460D02*
X19105754Y-14575841D01*
X19105754Y-14575841D02*
X19105754Y-14537746D01*
X19105754Y-14537746D02*
X19096230Y-14490127D01*
X19096230Y-14490127D02*
X19086706Y-14461555D01*
X19086706Y-14461555D02*
X19077182Y-14442508D01*
X19077182Y-14442508D02*
X19058135Y-14413936D01*
X19058135Y-14413936D02*
X19048611Y-14404412D01*
D12*
X12617000Y-14843000D02*
X12654500Y-14805500D01*
X12617000Y-14768000D01*
X12579500Y-14805500D01*
X12617000Y-14843000D01*
D11*
X12953372Y-14696984D02*
X12972420Y-14696984D01*
X12972420Y-14696984D02*
X12991467Y-14706508D01*
X12991467Y-14706508D02*
X13000991Y-14716031D01*
X13000991Y-14716031D02*
X13010515Y-14735079D01*
X13010515Y-14735079D02*
X13020039Y-14773174D01*
X13020039Y-14773174D02*
X13020039Y-14820793D01*
X13020039Y-14820793D02*
X13010515Y-14858888D01*
X13010515Y-14858888D02*
X13000991Y-14877936D01*
X13000991Y-14877936D02*
X12991467Y-14887460D01*
X12991467Y-14887460D02*
X12972420Y-14896984D01*
X12972420Y-14896984D02*
X12953372Y-14896984D01*
X12953372Y-14896984D02*
X12934324Y-14887460D01*
X12934324Y-14887460D02*
X12924801Y-14877936D01*
X12924801Y-14877936D02*
X12915277Y-14858888D01*
X12915277Y-14858888D02*
X12905753Y-14820793D01*
X12905753Y-14820793D02*
X12905753Y-14773174D01*
X12905753Y-14773174D02*
X12915277Y-14735079D01*
X12915277Y-14735079D02*
X12924801Y-14716031D01*
X12924801Y-14716031D02*
X12934324Y-14706508D01*
X12934324Y-14706508D02*
X12953372Y-14696984D01*
X13105753Y-14877936D02*
X13115277Y-14887460D01*
X13115277Y-14887460D02*
X13105753Y-14896984D01*
X13105753Y-14896984D02*
X13096229Y-14887460D01*
X13096229Y-14887460D02*
X13105753Y-14877936D01*
X13105753Y-14877936D02*
X13105753Y-14896984D01*
X13181943Y-14696984D02*
X13315277Y-14696984D01*
X13315277Y-14696984D02*
X13229562Y-14896984D01*
X13486705Y-14696984D02*
X13391467Y-14696984D01*
X13391467Y-14696984D02*
X13381943Y-14792222D01*
X13381943Y-14792222D02*
X13391467Y-14782698D01*
X13391467Y-14782698D02*
X13410515Y-14773174D01*
X13410515Y-14773174D02*
X13458134Y-14773174D01*
X13458134Y-14773174D02*
X13477182Y-14782698D01*
X13477182Y-14782698D02*
X13486705Y-14792222D01*
X13486705Y-14792222D02*
X13496229Y-14811269D01*
X13496229Y-14811269D02*
X13496229Y-14858888D01*
X13496229Y-14858888D02*
X13486705Y-14877936D01*
X13486705Y-14877936D02*
X13477182Y-14887460D01*
X13477182Y-14887460D02*
X13458134Y-14896984D01*
X13458134Y-14896984D02*
X13410515Y-14896984D01*
X13410515Y-14896984D02*
X13391467Y-14887460D01*
X13391467Y-14887460D02*
X13381943Y-14877936D01*
X13620039Y-14696984D02*
X13639086Y-14696984D01*
X13639086Y-14696984D02*
X13658134Y-14706508D01*
X13658134Y-14706508D02*
X13667658Y-14716031D01*
X13667658Y-14716031D02*
X13677182Y-14735079D01*
X13677182Y-14735079D02*
X13686705Y-14773174D01*
X13686705Y-14773174D02*
X13686705Y-14820793D01*
X13686705Y-14820793D02*
X13677182Y-14858888D01*
X13677182Y-14858888D02*
X13667658Y-14877936D01*
X13667658Y-14877936D02*
X13658134Y-14887460D01*
X13658134Y-14887460D02*
X13639086Y-14896984D01*
X13639086Y-14896984D02*
X13620039Y-14896984D01*
X13620039Y-14896984D02*
X13600991Y-14887460D01*
X13600991Y-14887460D02*
X13591467Y-14877936D01*
X13591467Y-14877936D02*
X13581943Y-14858888D01*
X13581943Y-14858888D02*
X13572420Y-14820793D01*
X13572420Y-14820793D02*
X13572420Y-14773174D01*
X13572420Y-14773174D02*
X13581943Y-14735079D01*
X13581943Y-14735079D02*
X13591467Y-14716031D01*
X13591467Y-14716031D02*
X13600991Y-14706508D01*
X13600991Y-14706508D02*
X13620039Y-14696984D01*
X13772420Y-14896984D02*
X13772420Y-14763650D01*
X13772420Y-14782698D02*
X13781943Y-14773174D01*
X13781943Y-14773174D02*
X13800991Y-14763650D01*
X13800991Y-14763650D02*
X13829563Y-14763650D01*
X13829563Y-14763650D02*
X13848610Y-14773174D01*
X13848610Y-14773174D02*
X13858134Y-14792222D01*
X13858134Y-14792222D02*
X13858134Y-14896984D01*
X13858134Y-14792222D02*
X13867658Y-14773174D01*
X13867658Y-14773174D02*
X13886705Y-14763650D01*
X13886705Y-14763650D02*
X13915277Y-14763650D01*
X13915277Y-14763650D02*
X13934324Y-14773174D01*
X13934324Y-14773174D02*
X13943848Y-14792222D01*
X13943848Y-14792222D02*
X13943848Y-14896984D01*
X14039086Y-14896984D02*
X14039086Y-14763650D01*
X14039086Y-14782698D02*
X14048610Y-14773174D01*
X14048610Y-14773174D02*
X14067658Y-14763650D01*
X14067658Y-14763650D02*
X14096229Y-14763650D01*
X14096229Y-14763650D02*
X14115277Y-14773174D01*
X14115277Y-14773174D02*
X14124801Y-14792222D01*
X14124801Y-14792222D02*
X14124801Y-14896984D01*
X14124801Y-14792222D02*
X14134324Y-14773174D01*
X14134324Y-14773174D02*
X14153372Y-14763650D01*
X14153372Y-14763650D02*
X14181943Y-14763650D01*
X14181943Y-14763650D02*
X14200991Y-14773174D01*
X14200991Y-14773174D02*
X14210515Y-14792222D01*
X14210515Y-14792222D02*
X14210515Y-14896984D01*
X14600991Y-14687460D02*
X14429563Y-14944603D01*
X14858134Y-14696984D02*
X14877182Y-14696984D01*
X14877182Y-14696984D02*
X14896229Y-14706508D01*
X14896229Y-14706508D02*
X14905753Y-14716031D01*
X14905753Y-14716031D02*
X14915277Y-14735079D01*
X14915277Y-14735079D02*
X14924801Y-14773174D01*
X14924801Y-14773174D02*
X14924801Y-14820793D01*
X14924801Y-14820793D02*
X14915277Y-14858888D01*
X14915277Y-14858888D02*
X14905753Y-14877936D01*
X14905753Y-14877936D02*
X14896229Y-14887460D01*
X14896229Y-14887460D02*
X14877182Y-14896984D01*
X14877182Y-14896984D02*
X14858134Y-14896984D01*
X14858134Y-14896984D02*
X14839086Y-14887460D01*
X14839086Y-14887460D02*
X14829563Y-14877936D01*
X14829563Y-14877936D02*
X14820039Y-14858888D01*
X14820039Y-14858888D02*
X14810515Y-14820793D01*
X14810515Y-14820793D02*
X14810515Y-14773174D01*
X14810515Y-14773174D02*
X14820039Y-14735079D01*
X14820039Y-14735079D02*
X14829563Y-14716031D01*
X14829563Y-14716031D02*
X14839086Y-14706508D01*
X14839086Y-14706508D02*
X14858134Y-14696984D01*
X15010515Y-14877936D02*
X15020039Y-14887460D01*
X15020039Y-14887460D02*
X15010515Y-14896984D01*
X15010515Y-14896984D02*
X15000991Y-14887460D01*
X15000991Y-14887460D02*
X15010515Y-14877936D01*
X15010515Y-14877936D02*
X15010515Y-14896984D01*
X15143848Y-14696984D02*
X15162896Y-14696984D01*
X15162896Y-14696984D02*
X15181944Y-14706508D01*
X15181944Y-14706508D02*
X15191467Y-14716031D01*
X15191467Y-14716031D02*
X15200991Y-14735079D01*
X15200991Y-14735079D02*
X15210515Y-14773174D01*
X15210515Y-14773174D02*
X15210515Y-14820793D01*
X15210515Y-14820793D02*
X15200991Y-14858888D01*
X15200991Y-14858888D02*
X15191467Y-14877936D01*
X15191467Y-14877936D02*
X15181944Y-14887460D01*
X15181944Y-14887460D02*
X15162896Y-14896984D01*
X15162896Y-14896984D02*
X15143848Y-14896984D01*
X15143848Y-14896984D02*
X15124801Y-14887460D01*
X15124801Y-14887460D02*
X15115277Y-14877936D01*
X15115277Y-14877936D02*
X15105753Y-14858888D01*
X15105753Y-14858888D02*
X15096229Y-14820793D01*
X15096229Y-14820793D02*
X15096229Y-14773174D01*
X15096229Y-14773174D02*
X15105753Y-14735079D01*
X15105753Y-14735079D02*
X15115277Y-14716031D01*
X15115277Y-14716031D02*
X15124801Y-14706508D01*
X15124801Y-14706508D02*
X15143848Y-14696984D01*
X15286706Y-14716031D02*
X15296229Y-14706508D01*
X15296229Y-14706508D02*
X15315277Y-14696984D01*
X15315277Y-14696984D02*
X15362896Y-14696984D01*
X15362896Y-14696984D02*
X15381944Y-14706508D01*
X15381944Y-14706508D02*
X15391467Y-14716031D01*
X15391467Y-14716031D02*
X15400991Y-14735079D01*
X15400991Y-14735079D02*
X15400991Y-14754127D01*
X15400991Y-14754127D02*
X15391467Y-14782698D01*
X15391467Y-14782698D02*
X15277182Y-14896984D01*
X15277182Y-14896984D02*
X15400991Y-14896984D01*
X15496229Y-14896984D02*
X15534325Y-14896984D01*
X15534325Y-14896984D02*
X15553372Y-14887460D01*
X15553372Y-14887460D02*
X15562896Y-14877936D01*
X15562896Y-14877936D02*
X15581944Y-14849365D01*
X15581944Y-14849365D02*
X15591467Y-14811269D01*
X15591467Y-14811269D02*
X15591467Y-14735079D01*
X15591467Y-14735079D02*
X15581944Y-14716031D01*
X15581944Y-14716031D02*
X15572420Y-14706508D01*
X15572420Y-14706508D02*
X15553372Y-14696984D01*
X15553372Y-14696984D02*
X15515277Y-14696984D01*
X15515277Y-14696984D02*
X15496229Y-14706508D01*
X15496229Y-14706508D02*
X15486706Y-14716031D01*
X15486706Y-14716031D02*
X15477182Y-14735079D01*
X15477182Y-14735079D02*
X15477182Y-14782698D01*
X15477182Y-14782698D02*
X15486706Y-14801746D01*
X15486706Y-14801746D02*
X15496229Y-14811269D01*
X15496229Y-14811269D02*
X15515277Y-14820793D01*
X15515277Y-14820793D02*
X15553372Y-14820793D01*
X15553372Y-14820793D02*
X15572420Y-14811269D01*
X15572420Y-14811269D02*
X15581944Y-14801746D01*
X15581944Y-14801746D02*
X15591467Y-14782698D01*
X15772420Y-14696984D02*
X15677182Y-14696984D01*
X15677182Y-14696984D02*
X15667658Y-14792222D01*
X15667658Y-14792222D02*
X15677182Y-14782698D01*
X15677182Y-14782698D02*
X15696229Y-14773174D01*
X15696229Y-14773174D02*
X15743848Y-14773174D01*
X15743848Y-14773174D02*
X15762896Y-14782698D01*
X15762896Y-14782698D02*
X15772420Y-14792222D01*
X15772420Y-14792222D02*
X15781944Y-14811269D01*
X15781944Y-14811269D02*
X15781944Y-14858888D01*
X15781944Y-14858888D02*
X15772420Y-14877936D01*
X15772420Y-14877936D02*
X15762896Y-14887460D01*
X15762896Y-14887460D02*
X15743848Y-14896984D01*
X15743848Y-14896984D02*
X15696229Y-14896984D01*
X15696229Y-14896984D02*
X15677182Y-14887460D01*
X15677182Y-14887460D02*
X15667658Y-14877936D01*
X15858134Y-14696984D02*
X15858134Y-14735079D01*
X15934325Y-14696984D02*
X15934325Y-14735079D01*
X16229563Y-14973174D02*
X16220039Y-14963650D01*
X16220039Y-14963650D02*
X16200991Y-14935079D01*
X16200991Y-14935079D02*
X16191468Y-14916031D01*
X16191468Y-14916031D02*
X16181944Y-14887460D01*
X16181944Y-14887460D02*
X16172420Y-14839841D01*
X16172420Y-14839841D02*
X16172420Y-14801746D01*
X16172420Y-14801746D02*
X16181944Y-14754127D01*
X16181944Y-14754127D02*
X16191468Y-14725555D01*
X16191468Y-14725555D02*
X16200991Y-14706508D01*
X16200991Y-14706508D02*
X16220039Y-14677936D01*
X16220039Y-14677936D02*
X16229563Y-14668412D01*
X16296229Y-14716031D02*
X16305753Y-14706508D01*
X16305753Y-14706508D02*
X16324801Y-14696984D01*
X16324801Y-14696984D02*
X16372420Y-14696984D01*
X16372420Y-14696984D02*
X16391468Y-14706508D01*
X16391468Y-14706508D02*
X16400991Y-14716031D01*
X16400991Y-14716031D02*
X16410515Y-14735079D01*
X16410515Y-14735079D02*
X16410515Y-14754127D01*
X16410515Y-14754127D02*
X16400991Y-14782698D01*
X16400991Y-14782698D02*
X16286706Y-14896984D01*
X16286706Y-14896984D02*
X16410515Y-14896984D01*
X16648610Y-14896984D02*
X16648610Y-14696984D01*
X16734325Y-14896984D02*
X16734325Y-14792222D01*
X16734325Y-14792222D02*
X16724801Y-14773174D01*
X16724801Y-14773174D02*
X16705753Y-14763650D01*
X16705753Y-14763650D02*
X16677182Y-14763650D01*
X16677182Y-14763650D02*
X16658134Y-14773174D01*
X16658134Y-14773174D02*
X16648610Y-14782698D01*
X16858134Y-14896984D02*
X16839087Y-14887460D01*
X16839087Y-14887460D02*
X16829563Y-14877936D01*
X16829563Y-14877936D02*
X16820039Y-14858888D01*
X16820039Y-14858888D02*
X16820039Y-14801746D01*
X16820039Y-14801746D02*
X16829563Y-14782698D01*
X16829563Y-14782698D02*
X16839087Y-14773174D01*
X16839087Y-14773174D02*
X16858134Y-14763650D01*
X16858134Y-14763650D02*
X16886706Y-14763650D01*
X16886706Y-14763650D02*
X16905753Y-14773174D01*
X16905753Y-14773174D02*
X16915277Y-14782698D01*
X16915277Y-14782698D02*
X16924801Y-14801746D01*
X16924801Y-14801746D02*
X16924801Y-14858888D01*
X16924801Y-14858888D02*
X16915277Y-14877936D01*
X16915277Y-14877936D02*
X16905753Y-14887460D01*
X16905753Y-14887460D02*
X16886706Y-14896984D01*
X16886706Y-14896984D02*
X16858134Y-14896984D01*
X17039087Y-14896984D02*
X17020039Y-14887460D01*
X17020039Y-14887460D02*
X17010515Y-14868412D01*
X17010515Y-14868412D02*
X17010515Y-14696984D01*
X17191468Y-14887460D02*
X17172420Y-14896984D01*
X17172420Y-14896984D02*
X17134325Y-14896984D01*
X17134325Y-14896984D02*
X17115277Y-14887460D01*
X17115277Y-14887460D02*
X17105753Y-14868412D01*
X17105753Y-14868412D02*
X17105753Y-14792222D01*
X17105753Y-14792222D02*
X17115277Y-14773174D01*
X17115277Y-14773174D02*
X17134325Y-14763650D01*
X17134325Y-14763650D02*
X17172420Y-14763650D01*
X17172420Y-14763650D02*
X17191468Y-14773174D01*
X17191468Y-14773174D02*
X17200992Y-14792222D01*
X17200992Y-14792222D02*
X17200992Y-14811269D01*
X17200992Y-14811269D02*
X17105753Y-14830317D01*
X17277182Y-14887460D02*
X17296230Y-14896984D01*
X17296230Y-14896984D02*
X17334325Y-14896984D01*
X17334325Y-14896984D02*
X17353373Y-14887460D01*
X17353373Y-14887460D02*
X17362896Y-14868412D01*
X17362896Y-14868412D02*
X17362896Y-14858888D01*
X17362896Y-14858888D02*
X17353373Y-14839841D01*
X17353373Y-14839841D02*
X17334325Y-14830317D01*
X17334325Y-14830317D02*
X17305753Y-14830317D01*
X17305753Y-14830317D02*
X17286706Y-14820793D01*
X17286706Y-14820793D02*
X17277182Y-14801746D01*
X17277182Y-14801746D02*
X17277182Y-14792222D01*
X17277182Y-14792222D02*
X17286706Y-14773174D01*
X17286706Y-14773174D02*
X17305753Y-14763650D01*
X17305753Y-14763650D02*
X17334325Y-14763650D01*
X17334325Y-14763650D02*
X17353373Y-14773174D01*
X17429563Y-14973174D02*
X17439087Y-14963650D01*
X17439087Y-14963650D02*
X17458134Y-14935079D01*
X17458134Y-14935079D02*
X17467658Y-14916031D01*
X17467658Y-14916031D02*
X17477182Y-14887460D01*
X17477182Y-14887460D02*
X17486706Y-14839841D01*
X17486706Y-14839841D02*
X17486706Y-14801746D01*
X17486706Y-14801746D02*
X17477182Y-14754127D01*
X17477182Y-14754127D02*
X17467658Y-14725555D01*
X17467658Y-14725555D02*
X17458134Y-14706508D01*
X17458134Y-14706508D02*
X17439087Y-14677936D01*
X17439087Y-14677936D02*
X17429563Y-14668412D01*
D12*
X12565600Y-15025050D02*
X12654500Y-15113950D01*
X12654500Y-15025050D02*
X12565600Y-15113950D01*
X12654500Y-15069500D02*
G75*
G02*
X12565600Y-15069500I-44450J0D01*
G01*
X12565600Y-15069500D02*
G75*
G02*
X12654500Y-15069500I44450J0D01*
G01*
D11*
X12953372Y-14960984D02*
X12972420Y-14960984D01*
X12972420Y-14960984D02*
X12991467Y-14970508D01*
X12991467Y-14970508D02*
X13000991Y-14980031D01*
X13000991Y-14980031D02*
X13010515Y-14999079D01*
X13010515Y-14999079D02*
X13020039Y-15037174D01*
X13020039Y-15037174D02*
X13020039Y-15084793D01*
X13020039Y-15084793D02*
X13010515Y-15122888D01*
X13010515Y-15122888D02*
X13000991Y-15141936D01*
X13000991Y-15141936D02*
X12991467Y-15151460D01*
X12991467Y-15151460D02*
X12972420Y-15160984D01*
X12972420Y-15160984D02*
X12953372Y-15160984D01*
X12953372Y-15160984D02*
X12934324Y-15151460D01*
X12934324Y-15151460D02*
X12924801Y-15141936D01*
X12924801Y-15141936D02*
X12915277Y-15122888D01*
X12915277Y-15122888D02*
X12905753Y-15084793D01*
X12905753Y-15084793D02*
X12905753Y-15037174D01*
X12905753Y-15037174D02*
X12915277Y-14999079D01*
X12915277Y-14999079D02*
X12924801Y-14980031D01*
X12924801Y-14980031D02*
X12934324Y-14970508D01*
X12934324Y-14970508D02*
X12953372Y-14960984D01*
X13105753Y-15141936D02*
X13115277Y-15151460D01*
X13115277Y-15151460D02*
X13105753Y-15160984D01*
X13105753Y-15160984D02*
X13096229Y-15151460D01*
X13096229Y-15151460D02*
X13105753Y-15141936D01*
X13105753Y-15141936D02*
X13105753Y-15160984D01*
X13229562Y-15046698D02*
X13210515Y-15037174D01*
X13210515Y-15037174D02*
X13200991Y-15027650D01*
X13200991Y-15027650D02*
X13191467Y-15008603D01*
X13191467Y-15008603D02*
X13191467Y-14999079D01*
X13191467Y-14999079D02*
X13200991Y-14980031D01*
X13200991Y-14980031D02*
X13210515Y-14970508D01*
X13210515Y-14970508D02*
X13229562Y-14960984D01*
X13229562Y-14960984D02*
X13267658Y-14960984D01*
X13267658Y-14960984D02*
X13286705Y-14970508D01*
X13286705Y-14970508D02*
X13296229Y-14980031D01*
X13296229Y-14980031D02*
X13305753Y-14999079D01*
X13305753Y-14999079D02*
X13305753Y-15008603D01*
X13305753Y-15008603D02*
X13296229Y-15027650D01*
X13296229Y-15027650D02*
X13286705Y-15037174D01*
X13286705Y-15037174D02*
X13267658Y-15046698D01*
X13267658Y-15046698D02*
X13229562Y-15046698D01*
X13229562Y-15046698D02*
X13210515Y-15056222D01*
X13210515Y-15056222D02*
X13200991Y-15065746D01*
X13200991Y-15065746D02*
X13191467Y-15084793D01*
X13191467Y-15084793D02*
X13191467Y-15122888D01*
X13191467Y-15122888D02*
X13200991Y-15141936D01*
X13200991Y-15141936D02*
X13210515Y-15151460D01*
X13210515Y-15151460D02*
X13229562Y-15160984D01*
X13229562Y-15160984D02*
X13267658Y-15160984D01*
X13267658Y-15160984D02*
X13286705Y-15151460D01*
X13286705Y-15151460D02*
X13296229Y-15141936D01*
X13296229Y-15141936D02*
X13305753Y-15122888D01*
X13305753Y-15122888D02*
X13305753Y-15084793D01*
X13305753Y-15084793D02*
X13296229Y-15065746D01*
X13296229Y-15065746D02*
X13286705Y-15056222D01*
X13286705Y-15056222D02*
X13267658Y-15046698D01*
X13420039Y-15046698D02*
X13400991Y-15037174D01*
X13400991Y-15037174D02*
X13391467Y-15027650D01*
X13391467Y-15027650D02*
X13381943Y-15008603D01*
X13381943Y-15008603D02*
X13381943Y-14999079D01*
X13381943Y-14999079D02*
X13391467Y-14980031D01*
X13391467Y-14980031D02*
X13400991Y-14970508D01*
X13400991Y-14970508D02*
X13420039Y-14960984D01*
X13420039Y-14960984D02*
X13458134Y-14960984D01*
X13458134Y-14960984D02*
X13477182Y-14970508D01*
X13477182Y-14970508D02*
X13486705Y-14980031D01*
X13486705Y-14980031D02*
X13496229Y-14999079D01*
X13496229Y-14999079D02*
X13496229Y-15008603D01*
X13496229Y-15008603D02*
X13486705Y-15027650D01*
X13486705Y-15027650D02*
X13477182Y-15037174D01*
X13477182Y-15037174D02*
X13458134Y-15046698D01*
X13458134Y-15046698D02*
X13420039Y-15046698D01*
X13420039Y-15046698D02*
X13400991Y-15056222D01*
X13400991Y-15056222D02*
X13391467Y-15065746D01*
X13391467Y-15065746D02*
X13381943Y-15084793D01*
X13381943Y-15084793D02*
X13381943Y-15122888D01*
X13381943Y-15122888D02*
X13391467Y-15141936D01*
X13391467Y-15141936D02*
X13400991Y-15151460D01*
X13400991Y-15151460D02*
X13420039Y-15160984D01*
X13420039Y-15160984D02*
X13458134Y-15160984D01*
X13458134Y-15160984D02*
X13477182Y-15151460D01*
X13477182Y-15151460D02*
X13486705Y-15141936D01*
X13486705Y-15141936D02*
X13496229Y-15122888D01*
X13496229Y-15122888D02*
X13496229Y-15084793D01*
X13496229Y-15084793D02*
X13486705Y-15065746D01*
X13486705Y-15065746D02*
X13477182Y-15056222D01*
X13477182Y-15056222D02*
X13458134Y-15046698D01*
X13591467Y-15160984D02*
X13629562Y-15160984D01*
X13629562Y-15160984D02*
X13648610Y-15151460D01*
X13648610Y-15151460D02*
X13658134Y-15141936D01*
X13658134Y-15141936D02*
X13677182Y-15113365D01*
X13677182Y-15113365D02*
X13686705Y-15075269D01*
X13686705Y-15075269D02*
X13686705Y-14999079D01*
X13686705Y-14999079D02*
X13677182Y-14980031D01*
X13677182Y-14980031D02*
X13667658Y-14970508D01*
X13667658Y-14970508D02*
X13648610Y-14960984D01*
X13648610Y-14960984D02*
X13610515Y-14960984D01*
X13610515Y-14960984D02*
X13591467Y-14970508D01*
X13591467Y-14970508D02*
X13581943Y-14980031D01*
X13581943Y-14980031D02*
X13572420Y-14999079D01*
X13572420Y-14999079D02*
X13572420Y-15046698D01*
X13572420Y-15046698D02*
X13581943Y-15065746D01*
X13581943Y-15065746D02*
X13591467Y-15075269D01*
X13591467Y-15075269D02*
X13610515Y-15084793D01*
X13610515Y-15084793D02*
X13648610Y-15084793D01*
X13648610Y-15084793D02*
X13667658Y-15075269D01*
X13667658Y-15075269D02*
X13677182Y-15065746D01*
X13677182Y-15065746D02*
X13686705Y-15046698D01*
X13772420Y-15160984D02*
X13772420Y-15027650D01*
X13772420Y-15046698D02*
X13781943Y-15037174D01*
X13781943Y-15037174D02*
X13800991Y-15027650D01*
X13800991Y-15027650D02*
X13829563Y-15027650D01*
X13829563Y-15027650D02*
X13848610Y-15037174D01*
X13848610Y-15037174D02*
X13858134Y-15056222D01*
X13858134Y-15056222D02*
X13858134Y-15160984D01*
X13858134Y-15056222D02*
X13867658Y-15037174D01*
X13867658Y-15037174D02*
X13886705Y-15027650D01*
X13886705Y-15027650D02*
X13915277Y-15027650D01*
X13915277Y-15027650D02*
X13934324Y-15037174D01*
X13934324Y-15037174D02*
X13943848Y-15056222D01*
X13943848Y-15056222D02*
X13943848Y-15160984D01*
X14039086Y-15160984D02*
X14039086Y-15027650D01*
X14039086Y-15046698D02*
X14048610Y-15037174D01*
X14048610Y-15037174D02*
X14067658Y-15027650D01*
X14067658Y-15027650D02*
X14096229Y-15027650D01*
X14096229Y-15027650D02*
X14115277Y-15037174D01*
X14115277Y-15037174D02*
X14124801Y-15056222D01*
X14124801Y-15056222D02*
X14124801Y-15160984D01*
X14124801Y-15056222D02*
X14134324Y-15037174D01*
X14134324Y-15037174D02*
X14153372Y-15027650D01*
X14153372Y-15027650D02*
X14181943Y-15027650D01*
X14181943Y-15027650D02*
X14200991Y-15037174D01*
X14200991Y-15037174D02*
X14210515Y-15056222D01*
X14210515Y-15056222D02*
X14210515Y-15160984D01*
X14600991Y-14951460D02*
X14429563Y-15208603D01*
X14858134Y-14960984D02*
X14877182Y-14960984D01*
X14877182Y-14960984D02*
X14896229Y-14970508D01*
X14896229Y-14970508D02*
X14905753Y-14980031D01*
X14905753Y-14980031D02*
X14915277Y-14999079D01*
X14915277Y-14999079D02*
X14924801Y-15037174D01*
X14924801Y-15037174D02*
X14924801Y-15084793D01*
X14924801Y-15084793D02*
X14915277Y-15122888D01*
X14915277Y-15122888D02*
X14905753Y-15141936D01*
X14905753Y-15141936D02*
X14896229Y-15151460D01*
X14896229Y-15151460D02*
X14877182Y-15160984D01*
X14877182Y-15160984D02*
X14858134Y-15160984D01*
X14858134Y-15160984D02*
X14839086Y-15151460D01*
X14839086Y-15151460D02*
X14829563Y-15141936D01*
X14829563Y-15141936D02*
X14820039Y-15122888D01*
X14820039Y-15122888D02*
X14810515Y-15084793D01*
X14810515Y-15084793D02*
X14810515Y-15037174D01*
X14810515Y-15037174D02*
X14820039Y-14999079D01*
X14820039Y-14999079D02*
X14829563Y-14980031D01*
X14829563Y-14980031D02*
X14839086Y-14970508D01*
X14839086Y-14970508D02*
X14858134Y-14960984D01*
X15010515Y-15141936D02*
X15020039Y-15151460D01*
X15020039Y-15151460D02*
X15010515Y-15160984D01*
X15010515Y-15160984D02*
X15000991Y-15151460D01*
X15000991Y-15151460D02*
X15010515Y-15141936D01*
X15010515Y-15141936D02*
X15010515Y-15160984D01*
X15143848Y-14960984D02*
X15162896Y-14960984D01*
X15162896Y-14960984D02*
X15181944Y-14970508D01*
X15181944Y-14970508D02*
X15191467Y-14980031D01*
X15191467Y-14980031D02*
X15200991Y-14999079D01*
X15200991Y-14999079D02*
X15210515Y-15037174D01*
X15210515Y-15037174D02*
X15210515Y-15084793D01*
X15210515Y-15084793D02*
X15200991Y-15122888D01*
X15200991Y-15122888D02*
X15191467Y-15141936D01*
X15191467Y-15141936D02*
X15181944Y-15151460D01*
X15181944Y-15151460D02*
X15162896Y-15160984D01*
X15162896Y-15160984D02*
X15143848Y-15160984D01*
X15143848Y-15160984D02*
X15124801Y-15151460D01*
X15124801Y-15151460D02*
X15115277Y-15141936D01*
X15115277Y-15141936D02*
X15105753Y-15122888D01*
X15105753Y-15122888D02*
X15096229Y-15084793D01*
X15096229Y-15084793D02*
X15096229Y-15037174D01*
X15096229Y-15037174D02*
X15105753Y-14999079D01*
X15105753Y-14999079D02*
X15115277Y-14980031D01*
X15115277Y-14980031D02*
X15124801Y-14970508D01*
X15124801Y-14970508D02*
X15143848Y-14960984D01*
X15277182Y-14960984D02*
X15400991Y-14960984D01*
X15400991Y-14960984D02*
X15334325Y-15037174D01*
X15334325Y-15037174D02*
X15362896Y-15037174D01*
X15362896Y-15037174D02*
X15381944Y-15046698D01*
X15381944Y-15046698D02*
X15391467Y-15056222D01*
X15391467Y-15056222D02*
X15400991Y-15075269D01*
X15400991Y-15075269D02*
X15400991Y-15122888D01*
X15400991Y-15122888D02*
X15391467Y-15141936D01*
X15391467Y-15141936D02*
X15381944Y-15151460D01*
X15381944Y-15151460D02*
X15362896Y-15160984D01*
X15362896Y-15160984D02*
X15305753Y-15160984D01*
X15305753Y-15160984D02*
X15286706Y-15151460D01*
X15286706Y-15151460D02*
X15277182Y-15141936D01*
X15581944Y-14960984D02*
X15486706Y-14960984D01*
X15486706Y-14960984D02*
X15477182Y-15056222D01*
X15477182Y-15056222D02*
X15486706Y-15046698D01*
X15486706Y-15046698D02*
X15505753Y-15037174D01*
X15505753Y-15037174D02*
X15553372Y-15037174D01*
X15553372Y-15037174D02*
X15572420Y-15046698D01*
X15572420Y-15046698D02*
X15581944Y-15056222D01*
X15581944Y-15056222D02*
X15591467Y-15075269D01*
X15591467Y-15075269D02*
X15591467Y-15122888D01*
X15591467Y-15122888D02*
X15581944Y-15141936D01*
X15581944Y-15141936D02*
X15572420Y-15151460D01*
X15572420Y-15151460D02*
X15553372Y-15160984D01*
X15553372Y-15160984D02*
X15505753Y-15160984D01*
X15505753Y-15160984D02*
X15486706Y-15151460D01*
X15486706Y-15151460D02*
X15477182Y-15141936D01*
X15715277Y-14960984D02*
X15734325Y-14960984D01*
X15734325Y-14960984D02*
X15753372Y-14970508D01*
X15753372Y-14970508D02*
X15762896Y-14980031D01*
X15762896Y-14980031D02*
X15772420Y-14999079D01*
X15772420Y-14999079D02*
X15781944Y-15037174D01*
X15781944Y-15037174D02*
X15781944Y-15084793D01*
X15781944Y-15084793D02*
X15772420Y-15122888D01*
X15772420Y-15122888D02*
X15762896Y-15141936D01*
X15762896Y-15141936D02*
X15753372Y-15151460D01*
X15753372Y-15151460D02*
X15734325Y-15160984D01*
X15734325Y-15160984D02*
X15715277Y-15160984D01*
X15715277Y-15160984D02*
X15696229Y-15151460D01*
X15696229Y-15151460D02*
X15686706Y-15141936D01*
X15686706Y-15141936D02*
X15677182Y-15122888D01*
X15677182Y-15122888D02*
X15667658Y-15084793D01*
X15667658Y-15084793D02*
X15667658Y-15037174D01*
X15667658Y-15037174D02*
X15677182Y-14999079D01*
X15677182Y-14999079D02*
X15686706Y-14980031D01*
X15686706Y-14980031D02*
X15696229Y-14970508D01*
X15696229Y-14970508D02*
X15715277Y-14960984D01*
X15858134Y-14960984D02*
X15858134Y-14999079D01*
X15934325Y-14960984D02*
X15934325Y-14999079D01*
X16229563Y-15237174D02*
X16220039Y-15227650D01*
X16220039Y-15227650D02*
X16200991Y-15199079D01*
X16200991Y-15199079D02*
X16191468Y-15180031D01*
X16191468Y-15180031D02*
X16181944Y-15151460D01*
X16181944Y-15151460D02*
X16172420Y-15103841D01*
X16172420Y-15103841D02*
X16172420Y-15065746D01*
X16172420Y-15065746D02*
X16181944Y-15018127D01*
X16181944Y-15018127D02*
X16191468Y-14989555D01*
X16191468Y-14989555D02*
X16200991Y-14970508D01*
X16200991Y-14970508D02*
X16220039Y-14941936D01*
X16220039Y-14941936D02*
X16229563Y-14932412D01*
X16296229Y-14980031D02*
X16305753Y-14970508D01*
X16305753Y-14970508D02*
X16324801Y-14960984D01*
X16324801Y-14960984D02*
X16372420Y-14960984D01*
X16372420Y-14960984D02*
X16391468Y-14970508D01*
X16391468Y-14970508D02*
X16400991Y-14980031D01*
X16400991Y-14980031D02*
X16410515Y-14999079D01*
X16410515Y-14999079D02*
X16410515Y-15018127D01*
X16410515Y-15018127D02*
X16400991Y-15046698D01*
X16400991Y-15046698D02*
X16286706Y-15160984D01*
X16286706Y-15160984D02*
X16410515Y-15160984D01*
X16648610Y-15160984D02*
X16648610Y-14960984D01*
X16734325Y-15160984D02*
X16734325Y-15056222D01*
X16734325Y-15056222D02*
X16724801Y-15037174D01*
X16724801Y-15037174D02*
X16705753Y-15027650D01*
X16705753Y-15027650D02*
X16677182Y-15027650D01*
X16677182Y-15027650D02*
X16658134Y-15037174D01*
X16658134Y-15037174D02*
X16648610Y-15046698D01*
X16858134Y-15160984D02*
X16839087Y-15151460D01*
X16839087Y-15151460D02*
X16829563Y-15141936D01*
X16829563Y-15141936D02*
X16820039Y-15122888D01*
X16820039Y-15122888D02*
X16820039Y-15065746D01*
X16820039Y-15065746D02*
X16829563Y-15046698D01*
X16829563Y-15046698D02*
X16839087Y-15037174D01*
X16839087Y-15037174D02*
X16858134Y-15027650D01*
X16858134Y-15027650D02*
X16886706Y-15027650D01*
X16886706Y-15027650D02*
X16905753Y-15037174D01*
X16905753Y-15037174D02*
X16915277Y-15046698D01*
X16915277Y-15046698D02*
X16924801Y-15065746D01*
X16924801Y-15065746D02*
X16924801Y-15122888D01*
X16924801Y-15122888D02*
X16915277Y-15141936D01*
X16915277Y-15141936D02*
X16905753Y-15151460D01*
X16905753Y-15151460D02*
X16886706Y-15160984D01*
X16886706Y-15160984D02*
X16858134Y-15160984D01*
X17039087Y-15160984D02*
X17020039Y-15151460D01*
X17020039Y-15151460D02*
X17010515Y-15132412D01*
X17010515Y-15132412D02*
X17010515Y-14960984D01*
X17191468Y-15151460D02*
X17172420Y-15160984D01*
X17172420Y-15160984D02*
X17134325Y-15160984D01*
X17134325Y-15160984D02*
X17115277Y-15151460D01*
X17115277Y-15151460D02*
X17105753Y-15132412D01*
X17105753Y-15132412D02*
X17105753Y-15056222D01*
X17105753Y-15056222D02*
X17115277Y-15037174D01*
X17115277Y-15037174D02*
X17134325Y-15027650D01*
X17134325Y-15027650D02*
X17172420Y-15027650D01*
X17172420Y-15027650D02*
X17191468Y-15037174D01*
X17191468Y-15037174D02*
X17200992Y-15056222D01*
X17200992Y-15056222D02*
X17200992Y-15075269D01*
X17200992Y-15075269D02*
X17105753Y-15094317D01*
X17277182Y-15151460D02*
X17296230Y-15160984D01*
X17296230Y-15160984D02*
X17334325Y-15160984D01*
X17334325Y-15160984D02*
X17353373Y-15151460D01*
X17353373Y-15151460D02*
X17362896Y-15132412D01*
X17362896Y-15132412D02*
X17362896Y-15122888D01*
X17362896Y-15122888D02*
X17353373Y-15103841D01*
X17353373Y-15103841D02*
X17334325Y-15094317D01*
X17334325Y-15094317D02*
X17305753Y-15094317D01*
X17305753Y-15094317D02*
X17286706Y-15084793D01*
X17286706Y-15084793D02*
X17277182Y-15065746D01*
X17277182Y-15065746D02*
X17277182Y-15056222D01*
X17277182Y-15056222D02*
X17286706Y-15037174D01*
X17286706Y-15037174D02*
X17305753Y-15027650D01*
X17305753Y-15027650D02*
X17334325Y-15027650D01*
X17334325Y-15027650D02*
X17353373Y-15037174D01*
X17429563Y-15237174D02*
X17439087Y-15227650D01*
X17439087Y-15227650D02*
X17458134Y-15199079D01*
X17458134Y-15199079D02*
X17467658Y-15180031D01*
X17467658Y-15180031D02*
X17477182Y-15151460D01*
X17477182Y-15151460D02*
X17486706Y-15103841D01*
X17486706Y-15103841D02*
X17486706Y-15065746D01*
X17486706Y-15065746D02*
X17477182Y-15018127D01*
X17477182Y-15018127D02*
X17467658Y-14989555D01*
X17467658Y-14989555D02*
X17458134Y-14970508D01*
X17458134Y-14970508D02*
X17439087Y-14941936D01*
X17439087Y-14941936D02*
X17429563Y-14932412D01*
M02*
