G04 #@! TF.GenerationSoftware,KiCad,Pcbnew,8.0.2*
G04 #@! TF.CreationDate,2024-10-06T19:59:24-06:00*
G04 #@! TF.ProjectId,kicad,6b696361-642e-46b6-9963-61645f706362,rev?*
G04 #@! TF.SameCoordinates,Original*
G04 #@! TF.FileFunction,Paste,Top*
G04 #@! TF.FilePolarity,Positive*
%FSLAX46Y46*%
G04 Gerber Fmt 4.6, Leading zero omitted, Abs format (unit mm)*
G04 Created by KiCad (PCBNEW 8.0.2) date 2024-10-06 19:59:24*
%MOMM*%
%LPD*%
G01*
G04 APERTURE LIST*
G04 Aperture macros list*
%AMRoundRect*
0 Rectangle with rounded corners*
0 $1 Rounding radius*
0 $2 $3 $4 $5 $6 $7 $8 $9 X,Y pos of 4 corners*
0 Add a 4 corners polygon primitive as box body*
4,1,4,$2,$3,$4,$5,$6,$7,$8,$9,$2,$3,0*
0 Add four circle primitives for the rounded corners*
1,1,$1+$1,$2,$3*
1,1,$1+$1,$4,$5*
1,1,$1+$1,$6,$7*
1,1,$1+$1,$8,$9*
0 Add four rect primitives between the rounded corners*
20,1,$1+$1,$2,$3,$4,$5,0*
20,1,$1+$1,$4,$5,$6,$7,0*
20,1,$1+$1,$6,$7,$8,$9,0*
20,1,$1+$1,$8,$9,$2,$3,0*%
G04 Aperture macros list end*
%ADD10C,0.010000*%
%ADD11C,0.050000*%
%ADD12C,0.000000*%
%ADD13R,1.000000X1.800000*%
%ADD14R,0.990600X2.692400*%
%ADD15RoundRect,0.237500X0.237500X-0.287500X0.237500X0.287500X-0.237500X0.287500X-0.237500X-0.287500X0*%
%ADD16RoundRect,0.237500X0.237500X-0.250000X0.237500X0.250000X-0.237500X0.250000X-0.237500X-0.250000X0*%
%ADD17RoundRect,0.150000X0.200000X-0.150000X0.200000X0.150000X-0.200000X0.150000X-0.200000X-0.150000X0*%
%ADD18RoundRect,0.237500X-0.237500X0.250000X-0.237500X-0.250000X0.237500X-0.250000X0.237500X0.250000X0*%
%ADD19R,0.600000X1.150000*%
%ADD20R,0.300000X1.150000*%
%ADD21RoundRect,0.237500X-0.237500X0.300000X-0.237500X-0.300000X0.237500X-0.300000X0.237500X0.300000X0*%
%ADD22RoundRect,0.237500X0.250000X0.237500X-0.250000X0.237500X-0.250000X-0.237500X0.250000X-0.237500X0*%
%ADD23RoundRect,0.250000X-0.475000X0.337500X-0.475000X-0.337500X0.475000X-0.337500X0.475000X0.337500X0*%
%ADD24RoundRect,0.225000X0.375000X-0.225000X0.375000X0.225000X-0.375000X0.225000X-0.375000X-0.225000X0*%
%ADD25RoundRect,0.225000X-0.375000X0.225000X-0.375000X-0.225000X0.375000X-0.225000X0.375000X0.225000X0*%
%ADD26RoundRect,0.250000X0.337500X0.475000X-0.337500X0.475000X-0.337500X-0.475000X0.337500X-0.475000X0*%
%ADD27RoundRect,0.237500X-0.300000X-0.237500X0.300000X-0.237500X0.300000X0.237500X-0.300000X0.237500X0*%
%ADD28RoundRect,0.237500X-0.250000X-0.237500X0.250000X-0.237500X0.250000X0.237500X-0.250000X0.237500X0*%
%ADD29R,0.350000X0.950000*%
%ADD30R,0.950000X0.350000*%
%ADD31RoundRect,0.250000X-0.337500X-0.475000X0.337500X-0.475000X0.337500X0.475000X-0.337500X0.475000X0*%
%ADD32RoundRect,0.250000X0.475000X-0.337500X0.475000X0.337500X-0.475000X0.337500X-0.475000X-0.337500X0*%
%ADD33RoundRect,0.112500X-0.112500X-0.637500X0.112500X-0.637500X0.112500X0.637500X-0.112500X0.637500X0*%
%ADD34RoundRect,0.150000X-0.825000X-0.150000X0.825000X-0.150000X0.825000X0.150000X-0.825000X0.150000X0*%
%ADD35RoundRect,0.150000X0.512500X0.150000X-0.512500X0.150000X-0.512500X-0.150000X0.512500X-0.150000X0*%
%ADD36R,0.838200X0.355600*%
%ADD37R,0.838200X0.406400*%
G04 APERTURE END LIST*
D10*
X145220000Y-131485000D02*
X145220000Y-131493000D01*
X145221000Y-131501000D01*
X145222000Y-131508000D01*
X145223000Y-131516000D01*
X145225000Y-131524000D01*
X145227000Y-131531000D01*
X145230000Y-131539000D01*
X145233000Y-131546000D01*
X145236000Y-131553000D01*
X145240000Y-131560000D01*
X145244000Y-131567000D01*
X145249000Y-131573000D01*
X145253000Y-131579000D01*
X145259000Y-131585000D01*
X145264000Y-131591000D01*
X145270000Y-131596000D01*
X145276000Y-131602000D01*
X145282000Y-131606000D01*
X145288000Y-131611000D01*
X145295000Y-131615000D01*
X145302000Y-131619000D01*
X145309000Y-131622000D01*
X145316000Y-131625000D01*
X145324000Y-131628000D01*
X145331000Y-131630000D01*
X145339000Y-131632000D01*
X145347000Y-131633000D01*
X145354000Y-131634000D01*
X145362000Y-131635000D01*
X145370000Y-131635000D01*
X145420000Y-131635000D01*
X145428000Y-131635000D01*
X145436000Y-131634000D01*
X145443000Y-131633000D01*
X145451000Y-131632000D01*
X145459000Y-131630000D01*
X145466000Y-131628000D01*
X145474000Y-131625000D01*
X145481000Y-131622000D01*
X145488000Y-131619000D01*
X145495000Y-131615000D01*
X145502000Y-131611000D01*
X145508000Y-131606000D01*
X145514000Y-131602000D01*
X145520000Y-131596000D01*
X145526000Y-131591000D01*
X145531000Y-131585000D01*
X145537000Y-131579000D01*
X145541000Y-131573000D01*
X145546000Y-131567000D01*
X145550000Y-131560000D01*
X145554000Y-131553000D01*
X145557000Y-131546000D01*
X145560000Y-131539000D01*
X145563000Y-131531000D01*
X145565000Y-131524000D01*
X145567000Y-131516000D01*
X145568000Y-131508000D01*
X145569000Y-131501000D01*
X145570000Y-131493000D01*
X145570000Y-131485000D01*
X145570000Y-131425000D01*
X146510000Y-131425000D01*
X146510000Y-132575000D01*
X145570000Y-132575000D01*
X145570000Y-132515000D01*
X145570000Y-132507000D01*
X145569000Y-132499000D01*
X145568000Y-132492000D01*
X145567000Y-132484000D01*
X145565000Y-132476000D01*
X145563000Y-132469000D01*
X145560000Y-132461000D01*
X145557000Y-132454000D01*
X145554000Y-132447000D01*
X145550000Y-132440000D01*
X145546000Y-132433000D01*
X145541000Y-132427000D01*
X145537000Y-132421000D01*
X145531000Y-132415000D01*
X145526000Y-132409000D01*
X145520000Y-132404000D01*
X145514000Y-132398000D01*
X145508000Y-132394000D01*
X145502000Y-132389000D01*
X145495000Y-132385000D01*
X145488000Y-132381000D01*
X145481000Y-132378000D01*
X145474000Y-132375000D01*
X145466000Y-132372000D01*
X145459000Y-132370000D01*
X145451000Y-132368000D01*
X145443000Y-132367000D01*
X145436000Y-132366000D01*
X145428000Y-132365000D01*
X145420000Y-132365000D01*
X145370000Y-132365000D01*
X145362000Y-132365000D01*
X145354000Y-132366000D01*
X145347000Y-132367000D01*
X145339000Y-132368000D01*
X145331000Y-132370000D01*
X145324000Y-132372000D01*
X145316000Y-132375000D01*
X145309000Y-132378000D01*
X145302000Y-132381000D01*
X145295000Y-132385000D01*
X145288000Y-132389000D01*
X145282000Y-132394000D01*
X145276000Y-132398000D01*
X145270000Y-132404000D01*
X145264000Y-132409000D01*
X145259000Y-132415000D01*
X145253000Y-132421000D01*
X145249000Y-132427000D01*
X145244000Y-132433000D01*
X145240000Y-132440000D01*
X145236000Y-132447000D01*
X145233000Y-132454000D01*
X145230000Y-132461000D01*
X145227000Y-132469000D01*
X145225000Y-132476000D01*
X145223000Y-132484000D01*
X145222000Y-132492000D01*
X145221000Y-132499000D01*
X145220000Y-132507000D01*
X145220000Y-132515000D01*
X145220000Y-132575000D01*
X144070000Y-132575000D01*
X144070000Y-131425000D01*
X145220000Y-131425000D01*
X145220000Y-131485000D01*
G36*
X145220000Y-131485000D02*
G01*
X145220000Y-131493000D01*
X145221000Y-131501000D01*
X145222000Y-131508000D01*
X145223000Y-131516000D01*
X145225000Y-131524000D01*
X145227000Y-131531000D01*
X145230000Y-131539000D01*
X145233000Y-131546000D01*
X145236000Y-131553000D01*
X145240000Y-131560000D01*
X145244000Y-131567000D01*
X145249000Y-131573000D01*
X145253000Y-131579000D01*
X145259000Y-131585000D01*
X145264000Y-131591000D01*
X145270000Y-131596000D01*
X145276000Y-131602000D01*
X145282000Y-131606000D01*
X145288000Y-131611000D01*
X145295000Y-131615000D01*
X145302000Y-131619000D01*
X145309000Y-131622000D01*
X145316000Y-131625000D01*
X145324000Y-131628000D01*
X145331000Y-131630000D01*
X145339000Y-131632000D01*
X145347000Y-131633000D01*
X145354000Y-131634000D01*
X145362000Y-131635000D01*
X145370000Y-131635000D01*
X145420000Y-131635000D01*
X145428000Y-131635000D01*
X145436000Y-131634000D01*
X145443000Y-131633000D01*
X145451000Y-131632000D01*
X145459000Y-131630000D01*
X145466000Y-131628000D01*
X145474000Y-131625000D01*
X145481000Y-131622000D01*
X145488000Y-131619000D01*
X145495000Y-131615000D01*
X145502000Y-131611000D01*
X145508000Y-131606000D01*
X145514000Y-131602000D01*
X145520000Y-131596000D01*
X145526000Y-131591000D01*
X145531000Y-131585000D01*
X145537000Y-131579000D01*
X145541000Y-131573000D01*
X145546000Y-131567000D01*
X145550000Y-131560000D01*
X145554000Y-131553000D01*
X145557000Y-131546000D01*
X145560000Y-131539000D01*
X145563000Y-131531000D01*
X145565000Y-131524000D01*
X145567000Y-131516000D01*
X145568000Y-131508000D01*
X145569000Y-131501000D01*
X145570000Y-131493000D01*
X145570000Y-131485000D01*
X145570000Y-131425000D01*
X146510000Y-131425000D01*
X146510000Y-132575000D01*
X145570000Y-132575000D01*
X145570000Y-132515000D01*
X145570000Y-132507000D01*
X145569000Y-132499000D01*
X145568000Y-132492000D01*
X145567000Y-132484000D01*
X145565000Y-132476000D01*
X145563000Y-132469000D01*
X145560000Y-132461000D01*
X145557000Y-132454000D01*
X145554000Y-132447000D01*
X145550000Y-132440000D01*
X145546000Y-132433000D01*
X145541000Y-132427000D01*
X145537000Y-132421000D01*
X145531000Y-132415000D01*
X145526000Y-132409000D01*
X145520000Y-132404000D01*
X145514000Y-132398000D01*
X145508000Y-132394000D01*
X145502000Y-132389000D01*
X145495000Y-132385000D01*
X145488000Y-132381000D01*
X145481000Y-132378000D01*
X145474000Y-132375000D01*
X145466000Y-132372000D01*
X145459000Y-132370000D01*
X145451000Y-132368000D01*
X145443000Y-132367000D01*
X145436000Y-132366000D01*
X145428000Y-132365000D01*
X145420000Y-132365000D01*
X145370000Y-132365000D01*
X145362000Y-132365000D01*
X145354000Y-132366000D01*
X145347000Y-132367000D01*
X145339000Y-132368000D01*
X145331000Y-132370000D01*
X145324000Y-132372000D01*
X145316000Y-132375000D01*
X145309000Y-132378000D01*
X145302000Y-132381000D01*
X145295000Y-132385000D01*
X145288000Y-132389000D01*
X145282000Y-132394000D01*
X145276000Y-132398000D01*
X145270000Y-132404000D01*
X145264000Y-132409000D01*
X145259000Y-132415000D01*
X145253000Y-132421000D01*
X145249000Y-132427000D01*
X145244000Y-132433000D01*
X145240000Y-132440000D01*
X145236000Y-132447000D01*
X145233000Y-132454000D01*
X145230000Y-132461000D01*
X145227000Y-132469000D01*
X145225000Y-132476000D01*
X145223000Y-132484000D01*
X145222000Y-132492000D01*
X145221000Y-132499000D01*
X145220000Y-132507000D01*
X145220000Y-132515000D01*
X145220000Y-132575000D01*
X144070000Y-132575000D01*
X144070000Y-131425000D01*
X145220000Y-131425000D01*
X145220000Y-131485000D01*
G37*
D11*
X154250008Y-58325000D02*
G75*
G02*
X154200006Y-58325000I-25001J0D01*
G01*
X154200006Y-58325000D02*
G75*
G02*
X154250008Y-58325000I25001J0D01*
G01*
X154250008Y-58475002D02*
G75*
G02*
X154200006Y-58475002I-25001J0D01*
G01*
X154200006Y-58475002D02*
G75*
G02*
X154250008Y-58475002I25001J0D01*
G01*
X154250008Y-58725002D02*
G75*
G02*
X154200006Y-58725002I-25001J0D01*
G01*
X154200006Y-58725002D02*
G75*
G02*
X154250008Y-58725002I25001J0D01*
G01*
X154250008Y-58875004D02*
G75*
G02*
X154200006Y-58875004I-25001J0D01*
G01*
X154200006Y-58875004D02*
G75*
G02*
X154250008Y-58875004I25001J0D01*
G01*
X154250008Y-59125001D02*
G75*
G02*
X154200006Y-59125001I-25001J0D01*
G01*
X154200006Y-59125001D02*
G75*
G02*
X154250008Y-59125001I25001J0D01*
G01*
X154250008Y-59275003D02*
G75*
G02*
X154200006Y-59275003I-25001J0D01*
G01*
X154200006Y-59275003D02*
G75*
G02*
X154250008Y-59275003I25001J0D01*
G01*
X154250008Y-59525000D02*
G75*
G02*
X154200006Y-59525000I-25001J0D01*
G01*
X154200006Y-59525000D02*
G75*
G02*
X154250008Y-59525000I25001J0D01*
G01*
X154250008Y-59675002D02*
G75*
G02*
X154200006Y-59675002I-25001J0D01*
G01*
X154200006Y-59675002D02*
G75*
G02*
X154250008Y-59675002I25001J0D01*
G01*
X154250008Y-59924999D02*
G75*
G02*
X154200006Y-59924999I-25001J0D01*
G01*
X154200006Y-59924999D02*
G75*
G02*
X154250008Y-59924999I25001J0D01*
G01*
X154250008Y-60075002D02*
G75*
G02*
X154200006Y-60075002I-25001J0D01*
G01*
X154200006Y-60075002D02*
G75*
G02*
X154250008Y-60075002I25001J0D01*
G01*
X154400010Y-58325000D02*
G75*
G02*
X154350008Y-58325000I-25001J0D01*
G01*
X154350008Y-58325000D02*
G75*
G02*
X154400010Y-58325000I25001J0D01*
G01*
X154400010Y-58475002D02*
G75*
G02*
X154350008Y-58475002I-25001J0D01*
G01*
X154350008Y-58475002D02*
G75*
G02*
X154400010Y-58475002I25001J0D01*
G01*
X154400010Y-58725002D02*
G75*
G02*
X154350008Y-58725002I-25001J0D01*
G01*
X154350008Y-58725002D02*
G75*
G02*
X154400010Y-58725002I25001J0D01*
G01*
X154400010Y-58875004D02*
G75*
G02*
X154350008Y-58875004I-25001J0D01*
G01*
X154350008Y-58875004D02*
G75*
G02*
X154400010Y-58875004I25001J0D01*
G01*
X154400010Y-59125001D02*
G75*
G02*
X154350008Y-59125001I-25001J0D01*
G01*
X154350008Y-59125001D02*
G75*
G02*
X154400010Y-59125001I25001J0D01*
G01*
X154400010Y-59275003D02*
G75*
G02*
X154350008Y-59275003I-25001J0D01*
G01*
X154350008Y-59275003D02*
G75*
G02*
X154400010Y-59275003I25001J0D01*
G01*
X154400010Y-59525000D02*
G75*
G02*
X154350008Y-59525000I-25001J0D01*
G01*
X154350008Y-59525000D02*
G75*
G02*
X154400010Y-59525000I25001J0D01*
G01*
X154400010Y-59675002D02*
G75*
G02*
X154350008Y-59675002I-25001J0D01*
G01*
X154350008Y-59675002D02*
G75*
G02*
X154400010Y-59675002I25001J0D01*
G01*
X154400010Y-59924999D02*
G75*
G02*
X154350008Y-59924999I-25001J0D01*
G01*
X154350008Y-59924999D02*
G75*
G02*
X154400010Y-59924999I25001J0D01*
G01*
X154400010Y-60075002D02*
G75*
G02*
X154350008Y-60075002I-25001J0D01*
G01*
X154350008Y-60075002D02*
G75*
G02*
X154400010Y-60075002I25001J0D01*
G01*
X154650010Y-58325000D02*
G75*
G02*
X154600006Y-58325000I-25002J0D01*
G01*
X154600006Y-58325000D02*
G75*
G02*
X154650010Y-58325000I25002J0D01*
G01*
X154650010Y-58475002D02*
G75*
G02*
X154600006Y-58475002I-25002J0D01*
G01*
X154600006Y-58475002D02*
G75*
G02*
X154650010Y-58475002I25002J0D01*
G01*
X154650010Y-58725002D02*
G75*
G02*
X154600006Y-58725002I-25002J0D01*
G01*
X154600006Y-58725002D02*
G75*
G02*
X154650010Y-58725002I25002J0D01*
G01*
X154650010Y-58875004D02*
G75*
G02*
X154600006Y-58875004I-25002J0D01*
G01*
X154600006Y-58875004D02*
G75*
G02*
X154650010Y-58875004I25002J0D01*
G01*
X154650010Y-59125001D02*
G75*
G02*
X154600006Y-59125001I-25002J0D01*
G01*
X154600006Y-59125001D02*
G75*
G02*
X154650010Y-59125001I25002J0D01*
G01*
X154650010Y-59275003D02*
G75*
G02*
X154600006Y-59275003I-25002J0D01*
G01*
X154600006Y-59275003D02*
G75*
G02*
X154650010Y-59275003I25002J0D01*
G01*
X154650010Y-59525000D02*
G75*
G02*
X154600006Y-59525000I-25002J0D01*
G01*
X154600006Y-59525000D02*
G75*
G02*
X154650010Y-59525000I25002J0D01*
G01*
X154650010Y-59675002D02*
G75*
G02*
X154600006Y-59675002I-25002J0D01*
G01*
X154600006Y-59675002D02*
G75*
G02*
X154650010Y-59675002I25002J0D01*
G01*
X154650010Y-59924999D02*
G75*
G02*
X154600006Y-59924999I-25002J0D01*
G01*
X154600006Y-59924999D02*
G75*
G02*
X154650010Y-59924999I25002J0D01*
G01*
X154650010Y-60075002D02*
G75*
G02*
X154600006Y-60075002I-25002J0D01*
G01*
X154600006Y-60075002D02*
G75*
G02*
X154650010Y-60075002I25002J0D01*
G01*
X154800012Y-58325000D02*
G75*
G02*
X154750010Y-58325000I-25001J0D01*
G01*
X154750010Y-58325000D02*
G75*
G02*
X154800012Y-58325000I25001J0D01*
G01*
X154800012Y-58475002D02*
G75*
G02*
X154750010Y-58475002I-25001J0D01*
G01*
X154750010Y-58475002D02*
G75*
G02*
X154800012Y-58475002I25001J0D01*
G01*
X154800012Y-58725002D02*
G75*
G02*
X154750010Y-58725002I-25001J0D01*
G01*
X154750010Y-58725002D02*
G75*
G02*
X154800012Y-58725002I25001J0D01*
G01*
X154800012Y-58875004D02*
G75*
G02*
X154750010Y-58875004I-25001J0D01*
G01*
X154750010Y-58875004D02*
G75*
G02*
X154800012Y-58875004I25001J0D01*
G01*
X154800012Y-59125001D02*
G75*
G02*
X154750010Y-59125001I-25001J0D01*
G01*
X154750010Y-59125001D02*
G75*
G02*
X154800012Y-59125001I25001J0D01*
G01*
X154800012Y-59275003D02*
G75*
G02*
X154750010Y-59275003I-25001J0D01*
G01*
X154750010Y-59275003D02*
G75*
G02*
X154800012Y-59275003I25001J0D01*
G01*
X154800012Y-59525000D02*
G75*
G02*
X154750010Y-59525000I-25001J0D01*
G01*
X154750010Y-59525000D02*
G75*
G02*
X154800012Y-59525000I25001J0D01*
G01*
X154800012Y-59675002D02*
G75*
G02*
X154750010Y-59675002I-25001J0D01*
G01*
X154750010Y-59675002D02*
G75*
G02*
X154800012Y-59675002I25001J0D01*
G01*
X154800012Y-59924999D02*
G75*
G02*
X154750010Y-59924999I-25001J0D01*
G01*
X154750010Y-59924999D02*
G75*
G02*
X154800012Y-59924999I25001J0D01*
G01*
X154800012Y-60075002D02*
G75*
G02*
X154750010Y-60075002I-25001J0D01*
G01*
X154750010Y-60075002D02*
G75*
G02*
X154800012Y-60075002I25001J0D01*
G01*
X155050009Y-58325000D02*
G75*
G02*
X155000007Y-58325000I-25001J0D01*
G01*
X155000007Y-58325000D02*
G75*
G02*
X155050009Y-58325000I25001J0D01*
G01*
X155050009Y-58475002D02*
G75*
G02*
X155000007Y-58475002I-25001J0D01*
G01*
X155000007Y-58475002D02*
G75*
G02*
X155050009Y-58475002I25001J0D01*
G01*
X155050009Y-58725002D02*
G75*
G02*
X155000007Y-58725002I-25001J0D01*
G01*
X155000007Y-58725002D02*
G75*
G02*
X155050009Y-58725002I25001J0D01*
G01*
X155050009Y-58875004D02*
G75*
G02*
X155000007Y-58875004I-25001J0D01*
G01*
X155000007Y-58875004D02*
G75*
G02*
X155050009Y-58875004I25001J0D01*
G01*
X155050009Y-59125001D02*
G75*
G02*
X155000007Y-59125001I-25001J0D01*
G01*
X155000007Y-59125001D02*
G75*
G02*
X155050009Y-59125001I25001J0D01*
G01*
X155050009Y-59275003D02*
G75*
G02*
X155000007Y-59275003I-25001J0D01*
G01*
X155000007Y-59275003D02*
G75*
G02*
X155050009Y-59275003I25001J0D01*
G01*
X155050009Y-59525000D02*
G75*
G02*
X155000007Y-59525000I-25001J0D01*
G01*
X155000007Y-59525000D02*
G75*
G02*
X155050009Y-59525000I25001J0D01*
G01*
X155050009Y-59675002D02*
G75*
G02*
X155000007Y-59675002I-25001J0D01*
G01*
X155000007Y-59675002D02*
G75*
G02*
X155050009Y-59675002I25001J0D01*
G01*
X155050009Y-59924999D02*
G75*
G02*
X155000007Y-59924999I-25001J0D01*
G01*
X155000007Y-59924999D02*
G75*
G02*
X155050009Y-59924999I25001J0D01*
G01*
X155050009Y-60075002D02*
G75*
G02*
X155000007Y-60075002I-25001J0D01*
G01*
X155000007Y-60075002D02*
G75*
G02*
X155050009Y-60075002I25001J0D01*
G01*
X155200011Y-58325000D02*
G75*
G02*
X155150009Y-58325000I-25001J0D01*
G01*
X155150009Y-58325000D02*
G75*
G02*
X155200011Y-58325000I25001J0D01*
G01*
X155200011Y-58475002D02*
G75*
G02*
X155150009Y-58475002I-25001J0D01*
G01*
X155150009Y-58475002D02*
G75*
G02*
X155200011Y-58475002I25001J0D01*
G01*
X155200011Y-58725002D02*
G75*
G02*
X155150009Y-58725002I-25001J0D01*
G01*
X155150009Y-58725002D02*
G75*
G02*
X155200011Y-58725002I25001J0D01*
G01*
X155200011Y-58875004D02*
G75*
G02*
X155150009Y-58875004I-25001J0D01*
G01*
X155150009Y-58875004D02*
G75*
G02*
X155200011Y-58875004I25001J0D01*
G01*
X155200011Y-59125001D02*
G75*
G02*
X155150009Y-59125001I-25001J0D01*
G01*
X155150009Y-59125001D02*
G75*
G02*
X155200011Y-59125001I25001J0D01*
G01*
X155200011Y-59275003D02*
G75*
G02*
X155150009Y-59275003I-25001J0D01*
G01*
X155150009Y-59275003D02*
G75*
G02*
X155200011Y-59275003I25001J0D01*
G01*
X155200011Y-59525000D02*
G75*
G02*
X155150009Y-59525000I-25001J0D01*
G01*
X155150009Y-59525000D02*
G75*
G02*
X155200011Y-59525000I25001J0D01*
G01*
X155200011Y-59675002D02*
G75*
G02*
X155150009Y-59675002I-25001J0D01*
G01*
X155150009Y-59675002D02*
G75*
G02*
X155200011Y-59675002I25001J0D01*
G01*
X155200011Y-59924999D02*
G75*
G02*
X155150009Y-59924999I-25001J0D01*
G01*
X155150009Y-59924999D02*
G75*
G02*
X155200011Y-59924999I25001J0D01*
G01*
X155200011Y-60075002D02*
G75*
G02*
X155150009Y-60075002I-25001J0D01*
G01*
X155150009Y-60075002D02*
G75*
G02*
X155200011Y-60075002I25001J0D01*
G01*
X155450008Y-58325000D02*
G75*
G02*
X155400006Y-58325000I-25001J0D01*
G01*
X155400006Y-58325000D02*
G75*
G02*
X155450008Y-58325000I25001J0D01*
G01*
X155450008Y-58475002D02*
G75*
G02*
X155400006Y-58475002I-25001J0D01*
G01*
X155400006Y-58475002D02*
G75*
G02*
X155450008Y-58475002I25001J0D01*
G01*
X155450008Y-58725002D02*
G75*
G02*
X155400006Y-58725002I-25001J0D01*
G01*
X155400006Y-58725002D02*
G75*
G02*
X155450008Y-58725002I25001J0D01*
G01*
X155450008Y-58875004D02*
G75*
G02*
X155400006Y-58875004I-25001J0D01*
G01*
X155400006Y-58875004D02*
G75*
G02*
X155450008Y-58875004I25001J0D01*
G01*
X155450008Y-59125001D02*
G75*
G02*
X155400006Y-59125001I-25001J0D01*
G01*
X155400006Y-59125001D02*
G75*
G02*
X155450008Y-59125001I25001J0D01*
G01*
X155450008Y-59275003D02*
G75*
G02*
X155400006Y-59275003I-25001J0D01*
G01*
X155400006Y-59275003D02*
G75*
G02*
X155450008Y-59275003I25001J0D01*
G01*
X155450008Y-59525000D02*
G75*
G02*
X155400006Y-59525000I-25001J0D01*
G01*
X155400006Y-59525000D02*
G75*
G02*
X155450008Y-59525000I25001J0D01*
G01*
X155450008Y-59675002D02*
G75*
G02*
X155400006Y-59675002I-25001J0D01*
G01*
X155400006Y-59675002D02*
G75*
G02*
X155450008Y-59675002I25001J0D01*
G01*
X155450008Y-59924999D02*
G75*
G02*
X155400006Y-59924999I-25001J0D01*
G01*
X155400006Y-59924999D02*
G75*
G02*
X155450008Y-59924999I25001J0D01*
G01*
X155450008Y-60075002D02*
G75*
G02*
X155400006Y-60075002I-25001J0D01*
G01*
X155400006Y-60075002D02*
G75*
G02*
X155450008Y-60075002I25001J0D01*
G01*
X155600010Y-58325000D02*
G75*
G02*
X155550008Y-58325000I-25001J0D01*
G01*
X155550008Y-58325000D02*
G75*
G02*
X155600010Y-58325000I25001J0D01*
G01*
X155600010Y-58475002D02*
G75*
G02*
X155550008Y-58475002I-25001J0D01*
G01*
X155550008Y-58475002D02*
G75*
G02*
X155600010Y-58475002I25001J0D01*
G01*
X155600010Y-58725002D02*
G75*
G02*
X155550008Y-58725002I-25001J0D01*
G01*
X155550008Y-58725002D02*
G75*
G02*
X155600010Y-58725002I25001J0D01*
G01*
X155600010Y-58875004D02*
G75*
G02*
X155550008Y-58875004I-25001J0D01*
G01*
X155550008Y-58875004D02*
G75*
G02*
X155600010Y-58875004I25001J0D01*
G01*
X155600010Y-59125001D02*
G75*
G02*
X155550008Y-59125001I-25001J0D01*
G01*
X155550008Y-59125001D02*
G75*
G02*
X155600010Y-59125001I25001J0D01*
G01*
X155600010Y-59275003D02*
G75*
G02*
X155550008Y-59275003I-25001J0D01*
G01*
X155550008Y-59275003D02*
G75*
G02*
X155600010Y-59275003I25001J0D01*
G01*
X155600010Y-59525000D02*
G75*
G02*
X155550008Y-59525000I-25001J0D01*
G01*
X155550008Y-59525000D02*
G75*
G02*
X155600010Y-59525000I25001J0D01*
G01*
X155600010Y-59675002D02*
G75*
G02*
X155550008Y-59675002I-25001J0D01*
G01*
X155550008Y-59675002D02*
G75*
G02*
X155600010Y-59675002I25001J0D01*
G01*
X155600010Y-59924999D02*
G75*
G02*
X155550008Y-59924999I-25001J0D01*
G01*
X155550008Y-59924999D02*
G75*
G02*
X155600010Y-59924999I25001J0D01*
G01*
X155600010Y-60075002D02*
G75*
G02*
X155550008Y-60075002I-25001J0D01*
G01*
X155550008Y-60075002D02*
G75*
G02*
X155600010Y-60075002I25001J0D01*
G01*
D12*
G36*
X154225009Y-58475000D02*
G01*
X154175009Y-58475000D01*
X154175009Y-58325000D01*
X154225009Y-58325000D01*
X154225009Y-58475000D01*
G37*
G36*
X154225009Y-58875001D02*
G01*
X154175009Y-58875001D01*
X154175009Y-58725002D01*
X154225009Y-58725002D01*
X154225009Y-58875001D01*
G37*
G36*
X154225009Y-59275001D02*
G01*
X154175009Y-59275001D01*
X154175009Y-59125001D01*
X154225009Y-59125001D01*
X154225009Y-59275001D01*
G37*
G36*
X154225009Y-59675000D02*
G01*
X154175009Y-59675000D01*
X154175009Y-59525000D01*
X154225009Y-59525000D01*
X154225009Y-59675000D01*
G37*
G36*
X154225009Y-60074999D02*
G01*
X154175009Y-60074999D01*
X154175009Y-59924999D01*
X154225009Y-59924999D01*
X154225009Y-60074999D01*
G37*
G36*
X154375011Y-58475000D02*
G01*
X154225009Y-58475000D01*
X154225009Y-58324997D01*
X154375011Y-58324997D01*
X154375011Y-58475000D01*
G37*
G36*
X154375009Y-58525000D02*
G01*
X154225009Y-58525000D01*
X154225009Y-58475000D01*
X154375009Y-58475000D01*
X154375009Y-58525000D01*
G37*
G36*
X154375011Y-58875001D02*
G01*
X154225009Y-58875001D01*
X154225009Y-58724999D01*
X154375011Y-58724999D01*
X154375011Y-58875001D01*
G37*
G36*
X154375009Y-58925001D02*
G01*
X154225009Y-58925001D01*
X154225009Y-58875001D01*
X154375009Y-58875001D01*
X154375009Y-58925001D01*
G37*
G36*
X154375011Y-59275001D02*
G01*
X154225009Y-59275001D01*
X154225009Y-59124998D01*
X154375011Y-59124998D01*
X154375011Y-59275001D01*
G37*
G36*
X154375009Y-59325000D02*
G01*
X154225009Y-59325000D01*
X154225009Y-59275001D01*
X154375009Y-59275001D01*
X154375009Y-59325000D01*
G37*
G36*
X154375011Y-59675000D02*
G01*
X154225009Y-59675000D01*
X154225009Y-59524998D01*
X154375011Y-59524998D01*
X154375011Y-59675000D01*
G37*
G36*
X154375009Y-59725000D02*
G01*
X154225009Y-59725000D01*
X154225009Y-59675000D01*
X154375009Y-59675000D01*
X154375009Y-59725000D01*
G37*
G36*
X154375011Y-60074999D02*
G01*
X154225009Y-60074999D01*
X154225009Y-59924997D01*
X154375011Y-59924997D01*
X154375011Y-60074999D01*
G37*
G36*
X154375009Y-60124999D02*
G01*
X154225009Y-60124999D01*
X154225009Y-60074999D01*
X154375009Y-60074999D01*
X154375009Y-60124999D01*
G37*
G36*
X154375009Y-58325000D02*
G01*
X154225009Y-58325000D01*
X154225009Y-58275000D01*
X154375009Y-58275000D01*
X154375009Y-58325000D01*
G37*
G36*
X154375009Y-58725002D02*
G01*
X154225009Y-58725002D01*
X154225009Y-58675002D01*
X154375009Y-58675002D01*
X154375009Y-58725002D01*
G37*
G36*
X154375009Y-59125001D02*
G01*
X154225009Y-59125001D01*
X154225009Y-59075001D01*
X154375009Y-59075001D01*
X154375009Y-59125001D01*
G37*
G36*
X154375009Y-59525000D02*
G01*
X154225009Y-59525000D01*
X154225009Y-59475000D01*
X154375009Y-59475000D01*
X154375009Y-59525000D01*
G37*
G36*
X154375009Y-59924999D02*
G01*
X154225009Y-59924999D01*
X154225009Y-59874999D01*
X154375009Y-59874999D01*
X154375009Y-59924999D01*
G37*
G36*
X154425009Y-58475000D02*
G01*
X154375009Y-58475000D01*
X154375009Y-58325000D01*
X154425009Y-58325000D01*
X154425009Y-58475000D01*
G37*
G36*
X154425009Y-58875001D02*
G01*
X154375009Y-58875001D01*
X154375009Y-58725002D01*
X154425009Y-58725002D01*
X154425009Y-58875001D01*
G37*
G36*
X154425009Y-59275001D02*
G01*
X154375009Y-59275001D01*
X154375009Y-59125001D01*
X154425009Y-59125001D01*
X154425009Y-59275001D01*
G37*
G36*
X154425009Y-59675000D02*
G01*
X154375009Y-59675000D01*
X154375009Y-59525000D01*
X154425009Y-59525000D01*
X154425009Y-59675000D01*
G37*
G36*
X154425009Y-60074999D02*
G01*
X154375009Y-60074999D01*
X154375009Y-59924999D01*
X154425009Y-59924999D01*
X154425009Y-60074999D01*
G37*
G36*
X154625011Y-58475000D02*
G01*
X154575011Y-58475000D01*
X154575011Y-58325000D01*
X154625011Y-58325000D01*
X154625011Y-58475000D01*
G37*
G36*
X154625011Y-58875001D02*
G01*
X154575011Y-58875001D01*
X154575011Y-58725002D01*
X154625011Y-58725002D01*
X154625011Y-58875001D01*
G37*
G36*
X154625011Y-59275001D02*
G01*
X154575011Y-59275001D01*
X154575011Y-59125001D01*
X154625011Y-59125001D01*
X154625011Y-59275001D01*
G37*
G36*
X154625011Y-59675000D02*
G01*
X154575011Y-59675000D01*
X154575011Y-59525000D01*
X154625011Y-59525000D01*
X154625011Y-59675000D01*
G37*
G36*
X154625011Y-60074999D02*
G01*
X154575011Y-60074999D01*
X154575011Y-59924999D01*
X154625011Y-59924999D01*
X154625011Y-60074999D01*
G37*
G36*
X154775013Y-58475000D02*
G01*
X154625011Y-58475000D01*
X154625011Y-58324997D01*
X154775013Y-58324997D01*
X154775013Y-58475000D01*
G37*
G36*
X154775011Y-58525000D02*
G01*
X154625011Y-58525000D01*
X154625011Y-58475000D01*
X154775011Y-58475000D01*
X154775011Y-58525000D01*
G37*
G36*
X154775013Y-58875001D02*
G01*
X154625011Y-58875001D01*
X154625011Y-58724999D01*
X154775013Y-58724999D01*
X154775013Y-58875001D01*
G37*
G36*
X154775011Y-58925001D02*
G01*
X154625011Y-58925001D01*
X154625011Y-58875001D01*
X154775011Y-58875001D01*
X154775011Y-58925001D01*
G37*
G36*
X154775013Y-59275001D02*
G01*
X154625011Y-59275001D01*
X154625011Y-59124998D01*
X154775013Y-59124998D01*
X154775013Y-59275001D01*
G37*
G36*
X154775011Y-59325000D02*
G01*
X154625011Y-59325000D01*
X154625011Y-59275001D01*
X154775011Y-59275001D01*
X154775011Y-59325000D01*
G37*
G36*
X154775013Y-59675000D02*
G01*
X154625011Y-59675000D01*
X154625011Y-59524998D01*
X154775013Y-59524998D01*
X154775013Y-59675000D01*
G37*
G36*
X154775011Y-59725000D02*
G01*
X154625011Y-59725000D01*
X154625011Y-59675000D01*
X154775011Y-59675000D01*
X154775011Y-59725000D01*
G37*
G36*
X154775013Y-60074999D02*
G01*
X154625011Y-60074999D01*
X154625011Y-59924997D01*
X154775013Y-59924997D01*
X154775013Y-60074999D01*
G37*
G36*
X154775011Y-60124999D02*
G01*
X154625011Y-60124999D01*
X154625011Y-60074999D01*
X154775011Y-60074999D01*
X154775011Y-60124999D01*
G37*
G36*
X154775011Y-58325000D02*
G01*
X154625011Y-58325000D01*
X154625011Y-58275000D01*
X154775011Y-58275000D01*
X154775011Y-58325000D01*
G37*
G36*
X154775011Y-58725002D02*
G01*
X154625011Y-58725002D01*
X154625011Y-58675002D01*
X154775011Y-58675002D01*
X154775011Y-58725002D01*
G37*
G36*
X154775011Y-59125001D02*
G01*
X154625011Y-59125001D01*
X154625011Y-59075001D01*
X154775011Y-59075001D01*
X154775011Y-59125001D01*
G37*
G36*
X154775011Y-59525000D02*
G01*
X154625011Y-59525000D01*
X154625011Y-59475000D01*
X154775011Y-59475000D01*
X154775011Y-59525000D01*
G37*
G36*
X154775011Y-59924999D02*
G01*
X154625011Y-59924999D01*
X154625011Y-59874999D01*
X154775011Y-59874999D01*
X154775011Y-59924999D01*
G37*
G36*
X154825011Y-58475000D02*
G01*
X154775011Y-58475000D01*
X154775011Y-58325000D01*
X154825011Y-58325000D01*
X154825011Y-58475000D01*
G37*
G36*
X154825011Y-58875001D02*
G01*
X154775011Y-58875001D01*
X154775011Y-58725002D01*
X154825011Y-58725002D01*
X154825011Y-58875001D01*
G37*
G36*
X154825011Y-59275001D02*
G01*
X154775011Y-59275001D01*
X154775011Y-59125001D01*
X154825011Y-59125001D01*
X154825011Y-59275001D01*
G37*
G36*
X154825011Y-59675000D02*
G01*
X154775011Y-59675000D01*
X154775011Y-59525000D01*
X154825011Y-59525000D01*
X154825011Y-59675000D01*
G37*
G36*
X154825011Y-60074999D02*
G01*
X154775011Y-60074999D01*
X154775011Y-59924999D01*
X154825011Y-59924999D01*
X154825011Y-60074999D01*
G37*
G36*
X155025010Y-58475000D02*
G01*
X154975010Y-58475000D01*
X154975010Y-58325000D01*
X155025010Y-58325000D01*
X155025010Y-58475000D01*
G37*
G36*
X155025010Y-58875001D02*
G01*
X154975010Y-58875001D01*
X154975010Y-58725002D01*
X155025010Y-58725002D01*
X155025010Y-58875001D01*
G37*
G36*
X155025010Y-59275001D02*
G01*
X154975010Y-59275001D01*
X154975010Y-59125001D01*
X155025010Y-59125001D01*
X155025010Y-59275001D01*
G37*
G36*
X155025010Y-59675000D02*
G01*
X154975010Y-59675000D01*
X154975010Y-59525000D01*
X155025010Y-59525000D01*
X155025010Y-59675000D01*
G37*
G36*
X155025010Y-60074999D02*
G01*
X154975010Y-60074999D01*
X154975010Y-59924999D01*
X155025010Y-59924999D01*
X155025010Y-60074999D01*
G37*
G36*
X155175012Y-58475000D02*
G01*
X155025010Y-58475000D01*
X155025010Y-58324997D01*
X155175012Y-58324997D01*
X155175012Y-58475000D01*
G37*
G36*
X155175010Y-58525000D02*
G01*
X155025010Y-58525000D01*
X155025010Y-58475000D01*
X155175010Y-58475000D01*
X155175010Y-58525000D01*
G37*
G36*
X155175012Y-58875001D02*
G01*
X155025010Y-58875001D01*
X155025010Y-58724999D01*
X155175012Y-58724999D01*
X155175012Y-58875001D01*
G37*
G36*
X155175010Y-58925001D02*
G01*
X155025010Y-58925001D01*
X155025010Y-58875001D01*
X155175010Y-58875001D01*
X155175010Y-58925001D01*
G37*
G36*
X155175012Y-59275001D02*
G01*
X155025010Y-59275001D01*
X155025010Y-59124998D01*
X155175012Y-59124998D01*
X155175012Y-59275001D01*
G37*
G36*
X155175010Y-59325000D02*
G01*
X155025010Y-59325000D01*
X155025010Y-59275001D01*
X155175010Y-59275001D01*
X155175010Y-59325000D01*
G37*
G36*
X155175012Y-59675000D02*
G01*
X155025010Y-59675000D01*
X155025010Y-59524998D01*
X155175012Y-59524998D01*
X155175012Y-59675000D01*
G37*
G36*
X155175010Y-59725000D02*
G01*
X155025010Y-59725000D01*
X155025010Y-59675000D01*
X155175010Y-59675000D01*
X155175010Y-59725000D01*
G37*
G36*
X155175012Y-60074999D02*
G01*
X155025010Y-60074999D01*
X155025010Y-59924997D01*
X155175012Y-59924997D01*
X155175012Y-60074999D01*
G37*
G36*
X155175010Y-60124999D02*
G01*
X155025010Y-60124999D01*
X155025010Y-60074999D01*
X155175010Y-60074999D01*
X155175010Y-60124999D01*
G37*
G36*
X155175010Y-58325000D02*
G01*
X155025010Y-58325000D01*
X155025010Y-58275000D01*
X155175010Y-58275000D01*
X155175010Y-58325000D01*
G37*
G36*
X155175010Y-58725002D02*
G01*
X155025010Y-58725002D01*
X155025010Y-58675002D01*
X155175010Y-58675002D01*
X155175010Y-58725002D01*
G37*
G36*
X155175010Y-59125001D02*
G01*
X155025010Y-59125001D01*
X155025010Y-59075001D01*
X155175010Y-59075001D01*
X155175010Y-59125001D01*
G37*
G36*
X155175010Y-59525000D02*
G01*
X155025010Y-59525000D01*
X155025010Y-59475000D01*
X155175010Y-59475000D01*
X155175010Y-59525000D01*
G37*
G36*
X155175010Y-59924999D02*
G01*
X155025010Y-59924999D01*
X155025010Y-59874999D01*
X155175010Y-59874999D01*
X155175010Y-59924999D01*
G37*
G36*
X155225010Y-58475000D02*
G01*
X155175010Y-58475000D01*
X155175010Y-58325000D01*
X155225010Y-58325000D01*
X155225010Y-58475000D01*
G37*
G36*
X155225010Y-58875001D02*
G01*
X155175010Y-58875001D01*
X155175010Y-58725002D01*
X155225010Y-58725002D01*
X155225010Y-58875001D01*
G37*
G36*
X155225010Y-59275001D02*
G01*
X155175010Y-59275001D01*
X155175010Y-59125001D01*
X155225010Y-59125001D01*
X155225010Y-59275001D01*
G37*
G36*
X155225010Y-59675000D02*
G01*
X155175010Y-59675000D01*
X155175010Y-59525000D01*
X155225010Y-59525000D01*
X155225010Y-59675000D01*
G37*
G36*
X155225010Y-60074999D02*
G01*
X155175010Y-60074999D01*
X155175010Y-59924999D01*
X155225010Y-59924999D01*
X155225010Y-60074999D01*
G37*
G36*
X155425009Y-58475000D02*
G01*
X155375009Y-58475000D01*
X155375009Y-58325000D01*
X155425009Y-58325000D01*
X155425009Y-58475000D01*
G37*
G36*
X155425009Y-58875001D02*
G01*
X155375009Y-58875001D01*
X155375009Y-58725002D01*
X155425009Y-58725002D01*
X155425009Y-58875001D01*
G37*
G36*
X155425009Y-59275001D02*
G01*
X155375009Y-59275001D01*
X155375009Y-59125001D01*
X155425009Y-59125001D01*
X155425009Y-59275001D01*
G37*
G36*
X155425009Y-59675000D02*
G01*
X155375009Y-59675000D01*
X155375009Y-59525000D01*
X155425009Y-59525000D01*
X155425009Y-59675000D01*
G37*
G36*
X155425009Y-60074999D02*
G01*
X155375009Y-60074999D01*
X155375009Y-59924999D01*
X155425009Y-59924999D01*
X155425009Y-60074999D01*
G37*
G36*
X155575012Y-58475000D02*
G01*
X155425009Y-58475000D01*
X155425009Y-58324997D01*
X155575012Y-58324997D01*
X155575012Y-58475000D01*
G37*
G36*
X155575009Y-58525000D02*
G01*
X155425009Y-58525000D01*
X155425009Y-58475000D01*
X155575009Y-58475000D01*
X155575009Y-58525000D01*
G37*
G36*
X155575012Y-58875001D02*
G01*
X155425009Y-58875001D01*
X155425009Y-58724999D01*
X155575012Y-58724999D01*
X155575012Y-58875001D01*
G37*
G36*
X155575009Y-58925001D02*
G01*
X155425009Y-58925001D01*
X155425009Y-58875001D01*
X155575009Y-58875001D01*
X155575009Y-58925001D01*
G37*
G36*
X155575012Y-59275001D02*
G01*
X155425009Y-59275001D01*
X155425009Y-59124998D01*
X155575012Y-59124998D01*
X155575012Y-59275001D01*
G37*
G36*
X155575009Y-59325000D02*
G01*
X155425009Y-59325000D01*
X155425009Y-59275001D01*
X155575009Y-59275001D01*
X155575009Y-59325000D01*
G37*
G36*
X155575012Y-59675000D02*
G01*
X155425009Y-59675000D01*
X155425009Y-59524998D01*
X155575012Y-59524998D01*
X155575012Y-59675000D01*
G37*
G36*
X155575009Y-59725000D02*
G01*
X155425009Y-59725000D01*
X155425009Y-59675000D01*
X155575009Y-59675000D01*
X155575009Y-59725000D01*
G37*
G36*
X155575012Y-60074999D02*
G01*
X155425009Y-60074999D01*
X155425009Y-59924997D01*
X155575012Y-59924997D01*
X155575012Y-60074999D01*
G37*
G36*
X155575009Y-60124999D02*
G01*
X155425009Y-60124999D01*
X155425009Y-60074999D01*
X155575009Y-60074999D01*
X155575009Y-60124999D01*
G37*
G36*
X155575009Y-58325000D02*
G01*
X155425009Y-58325000D01*
X155425009Y-58275000D01*
X155575009Y-58275000D01*
X155575009Y-58325000D01*
G37*
G36*
X155575009Y-58725002D02*
G01*
X155425009Y-58725002D01*
X155425009Y-58675002D01*
X155575009Y-58675002D01*
X155575009Y-58725002D01*
G37*
G36*
X155575009Y-59125001D02*
G01*
X155425009Y-59125001D01*
X155425009Y-59075001D01*
X155575009Y-59075001D01*
X155575009Y-59125001D01*
G37*
G36*
X155575009Y-59525000D02*
G01*
X155425009Y-59525000D01*
X155425009Y-59475000D01*
X155575009Y-59475000D01*
X155575009Y-59525000D01*
G37*
G36*
X155575009Y-59924999D02*
G01*
X155425009Y-59924999D01*
X155425009Y-59874999D01*
X155575009Y-59874999D01*
X155575009Y-59924999D01*
G37*
G36*
X155625009Y-58475000D02*
G01*
X155575009Y-58475000D01*
X155575009Y-58325000D01*
X155625009Y-58325000D01*
X155625009Y-58475000D01*
G37*
G36*
X155625009Y-58875001D02*
G01*
X155575009Y-58875001D01*
X155575009Y-58725002D01*
X155625009Y-58725002D01*
X155625009Y-58875001D01*
G37*
G36*
X155625009Y-59275001D02*
G01*
X155575009Y-59275001D01*
X155575009Y-59125001D01*
X155625009Y-59125001D01*
X155625009Y-59275001D01*
G37*
G36*
X155625009Y-59675000D02*
G01*
X155575009Y-59675000D01*
X155575009Y-59525000D01*
X155625009Y-59525000D01*
X155625009Y-59675000D01*
G37*
G36*
X155625009Y-60074999D02*
G01*
X155575009Y-60074999D01*
X155575009Y-59924999D01*
X155625009Y-59924999D01*
X155625009Y-60074999D01*
G37*
D10*
X145220000Y-133985000D02*
X145220000Y-133993000D01*
X145221000Y-134001000D01*
X145222000Y-134008000D01*
X145223000Y-134016000D01*
X145225000Y-134024000D01*
X145227000Y-134031000D01*
X145230000Y-134039000D01*
X145233000Y-134046000D01*
X145236000Y-134053000D01*
X145240000Y-134060000D01*
X145244000Y-134067000D01*
X145249000Y-134073000D01*
X145253000Y-134079000D01*
X145259000Y-134085000D01*
X145264000Y-134091000D01*
X145270000Y-134096000D01*
X145276000Y-134102000D01*
X145282000Y-134106000D01*
X145288000Y-134111000D01*
X145295000Y-134115000D01*
X145302000Y-134119000D01*
X145309000Y-134122000D01*
X145316000Y-134125000D01*
X145324000Y-134128000D01*
X145331000Y-134130000D01*
X145339000Y-134132000D01*
X145347000Y-134133000D01*
X145354000Y-134134000D01*
X145362000Y-134135000D01*
X145370000Y-134135000D01*
X145420000Y-134135000D01*
X145428000Y-134135000D01*
X145436000Y-134134000D01*
X145443000Y-134133000D01*
X145451000Y-134132000D01*
X145459000Y-134130000D01*
X145466000Y-134128000D01*
X145474000Y-134125000D01*
X145481000Y-134122000D01*
X145488000Y-134119000D01*
X145495000Y-134115000D01*
X145502000Y-134111000D01*
X145508000Y-134106000D01*
X145514000Y-134102000D01*
X145520000Y-134096000D01*
X145526000Y-134091000D01*
X145531000Y-134085000D01*
X145537000Y-134079000D01*
X145541000Y-134073000D01*
X145546000Y-134067000D01*
X145550000Y-134060000D01*
X145554000Y-134053000D01*
X145557000Y-134046000D01*
X145560000Y-134039000D01*
X145563000Y-134031000D01*
X145565000Y-134024000D01*
X145567000Y-134016000D01*
X145568000Y-134008000D01*
X145569000Y-134001000D01*
X145570000Y-133993000D01*
X145570000Y-133985000D01*
X145570000Y-133925000D01*
X146510000Y-133925000D01*
X146510000Y-135075000D01*
X145570000Y-135075000D01*
X145570000Y-135015000D01*
X145570000Y-135007000D01*
X145569000Y-134999000D01*
X145568000Y-134992000D01*
X145567000Y-134984000D01*
X145565000Y-134976000D01*
X145563000Y-134969000D01*
X145560000Y-134961000D01*
X145557000Y-134954000D01*
X145554000Y-134947000D01*
X145550000Y-134940000D01*
X145546000Y-134933000D01*
X145541000Y-134927000D01*
X145537000Y-134921000D01*
X145531000Y-134915000D01*
X145526000Y-134909000D01*
X145520000Y-134904000D01*
X145514000Y-134898000D01*
X145508000Y-134894000D01*
X145502000Y-134889000D01*
X145495000Y-134885000D01*
X145488000Y-134881000D01*
X145481000Y-134878000D01*
X145474000Y-134875000D01*
X145466000Y-134872000D01*
X145459000Y-134870000D01*
X145451000Y-134868000D01*
X145443000Y-134867000D01*
X145436000Y-134866000D01*
X145428000Y-134865000D01*
X145420000Y-134865000D01*
X145370000Y-134865000D01*
X145362000Y-134865000D01*
X145354000Y-134866000D01*
X145347000Y-134867000D01*
X145339000Y-134868000D01*
X145331000Y-134870000D01*
X145324000Y-134872000D01*
X145316000Y-134875000D01*
X145309000Y-134878000D01*
X145302000Y-134881000D01*
X145295000Y-134885000D01*
X145288000Y-134889000D01*
X145282000Y-134894000D01*
X145276000Y-134898000D01*
X145270000Y-134904000D01*
X145264000Y-134909000D01*
X145259000Y-134915000D01*
X145253000Y-134921000D01*
X145249000Y-134927000D01*
X145244000Y-134933000D01*
X145240000Y-134940000D01*
X145236000Y-134947000D01*
X145233000Y-134954000D01*
X145230000Y-134961000D01*
X145227000Y-134969000D01*
X145225000Y-134976000D01*
X145223000Y-134984000D01*
X145222000Y-134992000D01*
X145221000Y-134999000D01*
X145220000Y-135007000D01*
X145220000Y-135015000D01*
X145220000Y-135075000D01*
X144070000Y-135075000D01*
X144070000Y-133925000D01*
X145220000Y-133925000D01*
X145220000Y-133985000D01*
G36*
X145220000Y-133985000D02*
G01*
X145220000Y-133993000D01*
X145221000Y-134001000D01*
X145222000Y-134008000D01*
X145223000Y-134016000D01*
X145225000Y-134024000D01*
X145227000Y-134031000D01*
X145230000Y-134039000D01*
X145233000Y-134046000D01*
X145236000Y-134053000D01*
X145240000Y-134060000D01*
X145244000Y-134067000D01*
X145249000Y-134073000D01*
X145253000Y-134079000D01*
X145259000Y-134085000D01*
X145264000Y-134091000D01*
X145270000Y-134096000D01*
X145276000Y-134102000D01*
X145282000Y-134106000D01*
X145288000Y-134111000D01*
X145295000Y-134115000D01*
X145302000Y-134119000D01*
X145309000Y-134122000D01*
X145316000Y-134125000D01*
X145324000Y-134128000D01*
X145331000Y-134130000D01*
X145339000Y-134132000D01*
X145347000Y-134133000D01*
X145354000Y-134134000D01*
X145362000Y-134135000D01*
X145370000Y-134135000D01*
X145420000Y-134135000D01*
X145428000Y-134135000D01*
X145436000Y-134134000D01*
X145443000Y-134133000D01*
X145451000Y-134132000D01*
X145459000Y-134130000D01*
X145466000Y-134128000D01*
X145474000Y-134125000D01*
X145481000Y-134122000D01*
X145488000Y-134119000D01*
X145495000Y-134115000D01*
X145502000Y-134111000D01*
X145508000Y-134106000D01*
X145514000Y-134102000D01*
X145520000Y-134096000D01*
X145526000Y-134091000D01*
X145531000Y-134085000D01*
X145537000Y-134079000D01*
X145541000Y-134073000D01*
X145546000Y-134067000D01*
X145550000Y-134060000D01*
X145554000Y-134053000D01*
X145557000Y-134046000D01*
X145560000Y-134039000D01*
X145563000Y-134031000D01*
X145565000Y-134024000D01*
X145567000Y-134016000D01*
X145568000Y-134008000D01*
X145569000Y-134001000D01*
X145570000Y-133993000D01*
X145570000Y-133985000D01*
X145570000Y-133925000D01*
X146510000Y-133925000D01*
X146510000Y-135075000D01*
X145570000Y-135075000D01*
X145570000Y-135015000D01*
X145570000Y-135007000D01*
X145569000Y-134999000D01*
X145568000Y-134992000D01*
X145567000Y-134984000D01*
X145565000Y-134976000D01*
X145563000Y-134969000D01*
X145560000Y-134961000D01*
X145557000Y-134954000D01*
X145554000Y-134947000D01*
X145550000Y-134940000D01*
X145546000Y-134933000D01*
X145541000Y-134927000D01*
X145537000Y-134921000D01*
X145531000Y-134915000D01*
X145526000Y-134909000D01*
X145520000Y-134904000D01*
X145514000Y-134898000D01*
X145508000Y-134894000D01*
X145502000Y-134889000D01*
X145495000Y-134885000D01*
X145488000Y-134881000D01*
X145481000Y-134878000D01*
X145474000Y-134875000D01*
X145466000Y-134872000D01*
X145459000Y-134870000D01*
X145451000Y-134868000D01*
X145443000Y-134867000D01*
X145436000Y-134866000D01*
X145428000Y-134865000D01*
X145420000Y-134865000D01*
X145370000Y-134865000D01*
X145362000Y-134865000D01*
X145354000Y-134866000D01*
X145347000Y-134867000D01*
X145339000Y-134868000D01*
X145331000Y-134870000D01*
X145324000Y-134872000D01*
X145316000Y-134875000D01*
X145309000Y-134878000D01*
X145302000Y-134881000D01*
X145295000Y-134885000D01*
X145288000Y-134889000D01*
X145282000Y-134894000D01*
X145276000Y-134898000D01*
X145270000Y-134904000D01*
X145264000Y-134909000D01*
X145259000Y-134915000D01*
X145253000Y-134921000D01*
X145249000Y-134927000D01*
X145244000Y-134933000D01*
X145240000Y-134940000D01*
X145236000Y-134947000D01*
X145233000Y-134954000D01*
X145230000Y-134961000D01*
X145227000Y-134969000D01*
X145225000Y-134976000D01*
X145223000Y-134984000D01*
X145222000Y-134992000D01*
X145221000Y-134999000D01*
X145220000Y-135007000D01*
X145220000Y-135015000D01*
X145220000Y-135075000D01*
X144070000Y-135075000D01*
X144070000Y-133925000D01*
X145220000Y-133925000D01*
X145220000Y-133985000D01*
G37*
D13*
X184800000Y-142500000D03*
X184800000Y-137500000D03*
X186500000Y-142500000D03*
X186500000Y-137500000D03*
D14*
X112592200Y-80000000D03*
X110407800Y-80000000D03*
D15*
X171500000Y-59375000D03*
X171500000Y-57625000D03*
X115000000Y-62000000D03*
X115000000Y-60250000D03*
D16*
X138000000Y-57412500D03*
X138000000Y-55587500D03*
D17*
X189250000Y-55800000D03*
X189250000Y-57200000D03*
D18*
X131815000Y-55837500D03*
X131815000Y-57662500D03*
D19*
X189200000Y-54255000D03*
X188400000Y-54255000D03*
D20*
X187250000Y-54255000D03*
X186250000Y-54255000D03*
X185750000Y-54255000D03*
X184750000Y-54255000D03*
D19*
X183600000Y-54255000D03*
X182800000Y-54255000D03*
X182800000Y-54255000D03*
X183600000Y-54255000D03*
D20*
X184250000Y-54255000D03*
X185250000Y-54255000D03*
X186750000Y-54255000D03*
X187750000Y-54255000D03*
D19*
X188400000Y-54255000D03*
X189200000Y-54255000D03*
D18*
X119040000Y-56087500D03*
X119040000Y-57912500D03*
D21*
X153000000Y-62500000D03*
X153000000Y-64225000D03*
D22*
X102912500Y-127000000D03*
X101087500Y-127000000D03*
D17*
X174000000Y-55000000D03*
X174000000Y-56400000D03*
D15*
X123000000Y-62000000D03*
X123000000Y-60250000D03*
D23*
X107000000Y-78962500D03*
X107000000Y-81037500D03*
D24*
X113000000Y-99075000D03*
X113000000Y-95775000D03*
D18*
X94500000Y-68500000D03*
X94500000Y-70325000D03*
X184000000Y-57000000D03*
X184000000Y-58825000D03*
D25*
X119000000Y-95775000D03*
X119000000Y-99075000D03*
D26*
X107075000Y-113000000D03*
X105000000Y-113000000D03*
D22*
X133000000Y-78000000D03*
X131175000Y-78000000D03*
D26*
X107075000Y-106980000D03*
X105000000Y-106980000D03*
D13*
X187000000Y-95500000D03*
X187000000Y-90500000D03*
X188700000Y-95500000D03*
X188700000Y-90500000D03*
D27*
X143525000Y-62645000D03*
X145250000Y-62645000D03*
D18*
X187510000Y-57175000D03*
X187510000Y-59000000D03*
D16*
X145500000Y-57412500D03*
X145500000Y-55587500D03*
D15*
X95000000Y-62000000D03*
X95000000Y-60250000D03*
D26*
X107075000Y-109990000D03*
X105000000Y-109990000D03*
D28*
X122087500Y-133500000D03*
X123912500Y-133500000D03*
D29*
X130950000Y-137550000D03*
X131600000Y-137550000D03*
X132250000Y-137550000D03*
D30*
X133000000Y-136800000D03*
X133000000Y-136150000D03*
X133000000Y-135500000D03*
D29*
X132250000Y-134750000D03*
X131600000Y-134750000D03*
X130950000Y-134750000D03*
D30*
X130200000Y-135500000D03*
X130200000Y-136150000D03*
X130200000Y-136800000D03*
D16*
X173500000Y-133500000D03*
X173500000Y-131675000D03*
D28*
X168087500Y-59500000D03*
X169912500Y-59500000D03*
D21*
X161500000Y-63137500D03*
X161500000Y-64862500D03*
D16*
X181500000Y-143000000D03*
X181500000Y-141175000D03*
D18*
X99500000Y-68587500D03*
X99500000Y-70412500D03*
D21*
X158000000Y-61775000D03*
X158000000Y-63500000D03*
D28*
X122087500Y-140000000D03*
X123912500Y-140000000D03*
D24*
X115925000Y-104075000D03*
X115925000Y-100775000D03*
D13*
X184800000Y-133000000D03*
X184800000Y-128000000D03*
X186500000Y-133000000D03*
X186500000Y-128000000D03*
D23*
X116000000Y-95925000D03*
X116000000Y-98000000D03*
D18*
X123040000Y-56087500D03*
X123040000Y-57912500D03*
D16*
X181500000Y-133500000D03*
X181500000Y-131675000D03*
D31*
X98962500Y-97000000D03*
X101037500Y-97000000D03*
D32*
X119000000Y-103500000D03*
X119000000Y-101425000D03*
D13*
X170200000Y-137500000D03*
X170200000Y-142500000D03*
X168500000Y-137500000D03*
X168500000Y-142500000D03*
D33*
X106850000Y-89830000D03*
X108150000Y-89830000D03*
X107500000Y-87170000D03*
D18*
X95040000Y-56337500D03*
X95040000Y-58162500D03*
D23*
X161000000Y-58462500D03*
X161000000Y-60537500D03*
D28*
X143475000Y-60135000D03*
X145300000Y-60135000D03*
D16*
X140500000Y-57412500D03*
X140500000Y-55587500D03*
D13*
X170200000Y-128000000D03*
X170200000Y-133000000D03*
X168500000Y-128000000D03*
X168500000Y-133000000D03*
D23*
X156000000Y-61962500D03*
X156000000Y-64037500D03*
D16*
X173500000Y-143000000D03*
X173500000Y-141175000D03*
D27*
X130637500Y-133000000D03*
X132362500Y-133000000D03*
D34*
X99525000Y-130095000D03*
X99525000Y-131365000D03*
X99525000Y-132635000D03*
X99525000Y-133905000D03*
X104475000Y-133905000D03*
X104475000Y-132635000D03*
X104475000Y-131365000D03*
X104475000Y-130095000D03*
D17*
X176000000Y-55000000D03*
X176000000Y-56400000D03*
D18*
X115040000Y-56087500D03*
X115040000Y-57912500D03*
D13*
X187000000Y-87000000D03*
X187000000Y-82000000D03*
X188700000Y-87000000D03*
X188700000Y-82000000D03*
D28*
X122087500Y-136500000D03*
X123912500Y-136500000D03*
D23*
X160000000Y-49462500D03*
X160000000Y-51537500D03*
D28*
X126175000Y-78000000D03*
X128000000Y-78000000D03*
D35*
X140775000Y-62450000D03*
X140775000Y-60550000D03*
X138500000Y-61500000D03*
D15*
X131775000Y-61500000D03*
X131775000Y-59750000D03*
D36*
X97590014Y-101999998D03*
X97590014Y-102499999D03*
X97590014Y-102999998D03*
X97590014Y-103500000D03*
X97590014Y-103999999D03*
X97590014Y-104499998D03*
X97590014Y-104999999D03*
X97590014Y-105499998D03*
X97590014Y-106000000D03*
X97590014Y-106499999D03*
X97590014Y-106999998D03*
X97590014Y-107499999D03*
X97590014Y-107999999D03*
X97590014Y-108500000D03*
X97590014Y-108999999D03*
X97590014Y-109499998D03*
X97590014Y-110000000D03*
X97590014Y-110499999D03*
X97590014Y-111000000D03*
X97590014Y-111499999D03*
X97590014Y-111999998D03*
X97590014Y-112500000D03*
X97590014Y-112999999D03*
X97590014Y-113499998D03*
D37*
X95090014Y-101000000D03*
X95090014Y-114499998D03*
D15*
X119000000Y-62000000D03*
X119000000Y-60250000D03*
D16*
X113000000Y-90412500D03*
X113000000Y-88587500D03*
D26*
X107075000Y-103970000D03*
X105000000Y-103970000D03*
D13*
X187150000Y-104000000D03*
X187150000Y-99000000D03*
X188850000Y-104000000D03*
X188850000Y-99000000D03*
D21*
X107000000Y-130275000D03*
X107000000Y-132000000D03*
D32*
X113000000Y-103462500D03*
X113000000Y-101387500D03*
D18*
X158500000Y-57587500D03*
X158500000Y-59412500D03*
M02*
