G04 #@! TF.GenerationSoftware,KiCad,Pcbnew,8.0.2*
G04 #@! TF.CreationDate,2025-05-08T21:28:10-06:00*
G04 #@! TF.ProjectId,kicad,6b696361-642e-46b6-9963-61645f706362,4*
G04 #@! TF.SameCoordinates,Original*
G04 #@! TF.FileFunction,Copper,L3,Inr*
G04 #@! TF.FilePolarity,Positive*
%FSLAX46Y46*%
G04 Gerber Fmt 4.6, Leading zero omitted, Abs format (unit mm)*
G04 Created by KiCad (PCBNEW 8.0.2) date 2025-05-08 21:28:10*
%MOMM*%
%LPD*%
G01*
G04 APERTURE LIST*
G04 Aperture macros list*
%AMRoundRect*
0 Rectangle with rounded corners*
0 $1 Rounding radius*
0 $2 $3 $4 $5 $6 $7 $8 $9 X,Y pos of 4 corners*
0 Add a 4 corners polygon primitive as box body*
4,1,4,$2,$3,$4,$5,$6,$7,$8,$9,$2,$3,0*
0 Add four circle primitives for the rounded corners*
1,1,$1+$1,$2,$3*
1,1,$1+$1,$4,$5*
1,1,$1+$1,$6,$7*
1,1,$1+$1,$8,$9*
0 Add four rect primitives between the rounded corners*
20,1,$1+$1,$2,$3,$4,$5,0*
20,1,$1+$1,$4,$5,$6,$7,0*
20,1,$1+$1,$6,$7,$8,$9,0*
20,1,$1+$1,$8,$9,$2,$3,0*%
G04 Aperture macros list end*
G04 #@! TA.AperFunction,ComponentPad*
%ADD10RoundRect,0.104167X-0.295833X0.145833X-0.295833X-0.145833X0.295833X-0.145833X0.295833X0.145833X0*%
G04 #@! TD*
G04 #@! TA.AperFunction,ComponentPad*
%ADD11O,0.800000X0.500000*%
G04 #@! TD*
G04 #@! TA.AperFunction,ComponentPad*
%ADD12O,2.100000X1.000000*%
G04 #@! TD*
G04 #@! TA.AperFunction,ComponentPad*
%ADD13O,1.800000X1.000000*%
G04 #@! TD*
G04 #@! TA.AperFunction,ComponentPad*
%ADD14RoundRect,0.250000X-0.625000X0.350000X-0.625000X-0.350000X0.625000X-0.350000X0.625000X0.350000X0*%
G04 #@! TD*
G04 #@! TA.AperFunction,ComponentPad*
%ADD15O,1.750000X1.200000*%
G04 #@! TD*
G04 #@! TA.AperFunction,ComponentPad*
%ADD16R,0.900000X0.500000*%
G04 #@! TD*
G04 #@! TA.AperFunction,ComponentPad*
%ADD17C,1.397000*%
G04 #@! TD*
G04 #@! TA.AperFunction,ViaPad*
%ADD18C,0.450000*%
G04 #@! TD*
G04 APERTURE END LIST*
D10*
X134000000Y-101600000D03*
D11*
X134000000Y-102616000D03*
D12*
X131930000Y-111752500D03*
D13*
X127750000Y-111752500D03*
D12*
X131930000Y-120392500D03*
D13*
X127750000Y-120392500D03*
D14*
X156500000Y-108000000D03*
D15*
X156500000Y-110000000D03*
D16*
X136150000Y-99625000D03*
D17*
X156750000Y-117566020D03*
X156750000Y-114568820D03*
D18*
X136325000Y-115000000D03*
X133567157Y-113182843D03*
X156775000Y-102775000D03*
X152700000Y-129925000D03*
X156830174Y-122991945D03*
X150900000Y-114700000D03*
X151175000Y-117225000D03*
X153750000Y-118300000D03*
X139475000Y-123025000D03*
X151425000Y-123600001D03*
X157740000Y-113320000D03*
X139900000Y-118975000D03*
X139250000Y-105725000D03*
X144725000Y-122850000D03*
X151075000Y-109525000D03*
X134525000Y-129150000D03*
X156500000Y-119700000D03*
X154075000Y-102175000D03*
X134300000Y-123825000D03*
X152200000Y-113250000D03*
X151525000Y-129925000D03*
X152950000Y-116950000D03*
X138775000Y-118900000D03*
X155025000Y-126275000D03*
X136155343Y-118930343D03*
X137875000Y-118975000D03*
X136875000Y-118950000D03*
X152425000Y-123600001D03*
X133725000Y-121350000D03*
X157050000Y-104775000D03*
X133350000Y-119175000D03*
X130500000Y-123750000D03*
X134600000Y-117950000D03*
X137375000Y-106825000D03*
X151301484Y-109130153D03*
X134500000Y-121425000D03*
X131325000Y-129125000D03*
X128225000Y-101225000D03*
X135700000Y-114825000D03*
X135575000Y-102525000D03*
X134000000Y-98625000D03*
X137577380Y-101475000D03*
X141100000Y-101950000D03*
X138974143Y-122900858D03*
X142050000Y-111200000D03*
X153775000Y-113225000D03*
X135525000Y-110075000D03*
X150375000Y-123600001D03*
X151100000Y-108700000D03*
X157100000Y-119725000D03*
X155890000Y-111380000D03*
X153625001Y-103413882D03*
X136075000Y-102100000D03*
X134575000Y-112950000D03*
X151114444Y-105235557D03*
X154875000Y-119500000D03*
X129721209Y-104853791D03*
X133200000Y-110100000D03*
X149830191Y-105294809D03*
X133750000Y-111250000D03*
X149286370Y-123394203D03*
X144715098Y-105353530D03*
X147629290Y-117900000D03*
X146821188Y-106250000D03*
X145150000Y-119200000D03*
X146200000Y-106250000D03*
X145649997Y-106250000D03*
X143319998Y-121050000D03*
X146275000Y-104925000D03*
X148800000Y-123137400D03*
X145304657Y-105329657D03*
X142719998Y-121500000D03*
X137745343Y-103620343D03*
X144250000Y-104575000D03*
X137450000Y-104250000D03*
X147433462Y-108947119D03*
X133814316Y-104250000D03*
X136724656Y-104650000D03*
X134507158Y-104942842D03*
X146908015Y-110035616D03*
X157525000Y-123275000D03*
X132175000Y-99250000D03*
X139225000Y-116650000D03*
X154875000Y-111925000D03*
X152400000Y-102900000D03*
X153800000Y-114900000D03*
X137372618Y-111727383D03*
X140307842Y-115942155D03*
X142784240Y-118794558D03*
X157550000Y-99275000D03*
X157500000Y-128425000D03*
X127450000Y-96300000D03*
X144025000Y-119600000D03*
X127375000Y-128475000D03*
X152725000Y-119400000D03*
X157550000Y-96300000D03*
X130600000Y-126025000D03*
X133325000Y-100495000D03*
X138500000Y-102250000D03*
X134975000Y-122150000D03*
X152025000Y-112000000D03*
X127450000Y-99250000D03*
X137375000Y-111250000D03*
X152875000Y-115475000D03*
X137375000Y-110751114D03*
X146025000Y-115325000D03*
X138900000Y-106450000D03*
X156225000Y-121975000D03*
X141600000Y-106025000D03*
X137400000Y-110300000D03*
X140775000Y-122925000D03*
X141240778Y-123018156D03*
X154225000Y-121025000D03*
X146625000Y-104125000D03*
X143450000Y-104235686D03*
X127400000Y-125500000D03*
X134586895Y-108588105D03*
X135500000Y-100500000D03*
X134495729Y-110142802D03*
X139225000Y-100550000D03*
X136800000Y-111725000D03*
X146850000Y-112800000D03*
X151396440Y-106704999D03*
X149431283Y-106114721D03*
X153016756Y-110925000D03*
X152363569Y-111436430D03*
X150000000Y-115785000D03*
X144139354Y-116444960D03*
X138521416Y-116346416D03*
X137689307Y-115764307D03*
X146600000Y-116700000D03*
X151181100Y-110500000D03*
X153675000Y-109000000D03*
X147708015Y-111025000D03*
X146650000Y-111500000D03*
X134557238Y-107992762D03*
X133000000Y-125350000D03*
X132832843Y-123732843D03*
X130450000Y-111726949D03*
X137275000Y-109600000D03*
X129650000Y-119875000D03*
X147876059Y-129026059D03*
X131332843Y-121667157D03*
X146825000Y-128649500D03*
X129650001Y-112000000D03*
G04 #@! TA.AperFunction,Conductor*
G36*
X134943039Y-94050185D02*
G01*
X134988794Y-94102989D01*
X135000000Y-94154500D01*
X135000000Y-99300000D01*
X135075500Y-99300000D01*
X135142539Y-99319685D01*
X135188294Y-99372489D01*
X135199500Y-99424000D01*
X135199500Y-99763452D01*
X135179815Y-99830491D01*
X135141473Y-99868445D01*
X135044797Y-99929190D01*
X134929192Y-100044795D01*
X134842210Y-100183225D01*
X134788212Y-100337544D01*
X134769909Y-100499996D01*
X134769909Y-100500003D01*
X134788212Y-100662455D01*
X134844511Y-100823349D01*
X134842718Y-100823976D01*
X134852529Y-100883583D01*
X134824802Y-100947715D01*
X134766804Y-100986677D01*
X134696948Y-100988097D01*
X134653974Y-100966811D01*
X134600776Y-100925991D01*
X134600773Y-100925990D01*
X134600771Y-100925988D01*
X134453686Y-100865064D01*
X134453681Y-100865062D01*
X134335469Y-100849500D01*
X134335468Y-100849500D01*
X133664532Y-100849500D01*
X133664531Y-100849500D01*
X133546318Y-100865062D01*
X133546313Y-100865064D01*
X133399228Y-100925988D01*
X133399227Y-100925988D01*
X133272913Y-101022913D01*
X133175988Y-101149227D01*
X133175988Y-101149228D01*
X133115064Y-101296313D01*
X133115062Y-101296318D01*
X133099500Y-101414531D01*
X133099500Y-101785468D01*
X133115062Y-101903681D01*
X133115064Y-101903686D01*
X133175988Y-102050771D01*
X133175990Y-102050775D01*
X133201577Y-102084121D01*
X133226770Y-102149290D01*
X133212731Y-102217735D01*
X133206304Y-102228495D01*
X133184913Y-102260509D01*
X133128343Y-102397082D01*
X133128340Y-102397092D01*
X133099500Y-102542079D01*
X133099500Y-102542082D01*
X133099500Y-102689918D01*
X133099500Y-102689920D01*
X133099499Y-102689920D01*
X133128340Y-102834907D01*
X133128343Y-102834917D01*
X133184912Y-102971488D01*
X133184919Y-102971501D01*
X133267048Y-103094415D01*
X133267051Y-103094419D01*
X133371580Y-103198948D01*
X133371584Y-103198951D01*
X133494498Y-103281080D01*
X133494511Y-103281087D01*
X133602942Y-103326000D01*
X133657346Y-103369840D01*
X133679411Y-103436135D01*
X133662132Y-103503834D01*
X133610995Y-103551445D01*
X133596445Y-103557603D01*
X133497540Y-103592211D01*
X133359111Y-103679192D01*
X133243508Y-103794795D01*
X133156526Y-103933225D01*
X133102528Y-104087544D01*
X133084225Y-104249996D01*
X133084225Y-104250003D01*
X133102528Y-104412455D01*
X133156526Y-104566774D01*
X133243508Y-104705204D01*
X133359112Y-104820808D01*
X133497541Y-104907789D01*
X133651855Y-104961786D01*
X133682573Y-104965247D01*
X133746985Y-104992312D01*
X133786542Y-105049906D01*
X133791910Y-105074580D01*
X133795372Y-105105303D01*
X133804837Y-105132353D01*
X133849368Y-105259616D01*
X133913566Y-105361786D01*
X133936350Y-105398046D01*
X134051954Y-105513650D01*
X134190383Y-105600631D01*
X134344697Y-105654628D01*
X134344700Y-105654628D01*
X134344702Y-105654629D01*
X134507154Y-105672933D01*
X134507158Y-105672933D01*
X134507162Y-105672933D01*
X134669613Y-105654629D01*
X134669614Y-105654628D01*
X134669619Y-105654628D01*
X134823933Y-105600631D01*
X134962362Y-105513650D01*
X135077966Y-105398046D01*
X135164947Y-105259617D01*
X135218944Y-105105303D01*
X135218955Y-105105204D01*
X135237249Y-104942845D01*
X135237249Y-104942838D01*
X135218945Y-104780386D01*
X135218944Y-104780384D01*
X135218944Y-104780381D01*
X135173320Y-104649996D01*
X135994565Y-104649996D01*
X135994565Y-104650003D01*
X136012868Y-104812455D01*
X136066866Y-104966774D01*
X136142699Y-105087461D01*
X136153848Y-105105204D01*
X136269452Y-105220808D01*
X136407881Y-105307789D01*
X136562195Y-105361786D01*
X136562198Y-105361786D01*
X136562200Y-105361787D01*
X136724652Y-105380091D01*
X136724656Y-105380091D01*
X136724660Y-105380091D01*
X136887111Y-105361787D01*
X136887112Y-105361786D01*
X136887117Y-105361786D01*
X137041431Y-105307789D01*
X137179860Y-105220808D01*
X137295464Y-105105204D01*
X137337644Y-105038073D01*
X137389978Y-104991783D01*
X137443036Y-104983056D01*
X137443036Y-104980091D01*
X137450004Y-104980091D01*
X137612455Y-104961787D01*
X137612456Y-104961786D01*
X137612461Y-104961786D01*
X137766775Y-104907789D01*
X137905204Y-104820808D01*
X138020808Y-104705204D01*
X138102623Y-104574996D01*
X143519909Y-104574996D01*
X143519909Y-104575003D01*
X143538212Y-104737455D01*
X143592210Y-104891774D01*
X143638376Y-104965246D01*
X143679192Y-105030204D01*
X143794796Y-105145808D01*
X143928316Y-105229705D01*
X143974607Y-105282039D01*
X143985565Y-105348578D01*
X143985007Y-105353531D01*
X143985007Y-105353533D01*
X144003310Y-105515985D01*
X144057308Y-105670304D01*
X144135532Y-105794796D01*
X144144290Y-105808734D01*
X144259894Y-105924338D01*
X144398323Y-106011319D01*
X144552637Y-106065316D01*
X144552640Y-106065316D01*
X144552642Y-106065317D01*
X144715094Y-106083621D01*
X144715098Y-106083621D01*
X144715100Y-106083621D01*
X144763838Y-106078129D01*
X144787013Y-106075518D01*
X144855835Y-106087572D01*
X144907214Y-106134921D01*
X144924839Y-106202531D01*
X144924117Y-106212621D01*
X144919906Y-106249996D01*
X144919906Y-106250003D01*
X144938209Y-106412455D01*
X144992207Y-106566774D01*
X144992208Y-106566775D01*
X145079189Y-106705204D01*
X145194793Y-106820808D01*
X145333222Y-106907789D01*
X145487536Y-106961786D01*
X145487539Y-106961786D01*
X145487541Y-106961787D01*
X145649993Y-106980091D01*
X145649997Y-106980091D01*
X145650001Y-106980091D01*
X145812452Y-106961787D01*
X145812453Y-106961786D01*
X145812458Y-106961786D01*
X145884046Y-106936735D01*
X145953820Y-106933173D01*
X145965932Y-106936729D01*
X146037539Y-106961786D01*
X146037543Y-106961786D01*
X146037545Y-106961787D01*
X146037542Y-106961787D01*
X146199996Y-106980091D01*
X146200000Y-106980091D01*
X146200004Y-106980091D01*
X146362457Y-106961787D01*
X146362459Y-106961786D01*
X146362461Y-106961786D01*
X146469639Y-106924281D01*
X146539417Y-106920719D01*
X146551547Y-106924281D01*
X146587140Y-106936736D01*
X146658730Y-106961787D01*
X146821184Y-106980091D01*
X146821188Y-106980091D01*
X146821192Y-106980091D01*
X146983643Y-106961787D01*
X146983644Y-106961786D01*
X146983649Y-106961786D01*
X147137963Y-106907789D01*
X147276392Y-106820808D01*
X147391996Y-106705204D01*
X147478977Y-106566775D01*
X147532974Y-106412461D01*
X147535705Y-106388224D01*
X147551279Y-106250003D01*
X147551279Y-106249996D01*
X147536037Y-106114717D01*
X148701192Y-106114717D01*
X148701192Y-106114724D01*
X148719495Y-106277176D01*
X148773493Y-106431495D01*
X148843270Y-106542543D01*
X148860475Y-106569925D01*
X148976079Y-106685529D01*
X149114508Y-106772510D01*
X149268822Y-106826507D01*
X149268825Y-106826507D01*
X149268827Y-106826508D01*
X149431279Y-106844812D01*
X149431283Y-106844812D01*
X149431287Y-106844812D01*
X149593738Y-106826508D01*
X149593739Y-106826507D01*
X149593744Y-106826507D01*
X149748058Y-106772510D01*
X149886487Y-106685529D01*
X150002091Y-106569925D01*
X150089072Y-106431496D01*
X150143069Y-106277182D01*
X150143070Y-106277176D01*
X150161374Y-106114724D01*
X150161374Y-106114720D01*
X150157870Y-106083621D01*
X150152085Y-106032285D01*
X150164139Y-105963466D01*
X150209333Y-105913410D01*
X150285395Y-105865617D01*
X150400999Y-105750013D01*
X150401003Y-105750005D01*
X150404058Y-105746177D01*
X150461247Y-105706037D01*
X150531059Y-105703188D01*
X150588685Y-105735810D01*
X150659240Y-105806365D01*
X150797669Y-105893346D01*
X150896165Y-105927811D01*
X150952941Y-105968533D01*
X150978689Y-106033485D01*
X150965233Y-106102047D01*
X150942893Y-106132534D01*
X150825631Y-106249796D01*
X150738650Y-106388224D01*
X150684652Y-106542543D01*
X150666349Y-106704995D01*
X150666349Y-106705002D01*
X150684652Y-106867454D01*
X150738650Y-107021773D01*
X150814052Y-107141774D01*
X150825632Y-107160203D01*
X150941236Y-107275807D01*
X151079665Y-107362788D01*
X151233979Y-107416785D01*
X151233982Y-107416785D01*
X151233984Y-107416786D01*
X151396436Y-107435090D01*
X151396440Y-107435090D01*
X151396444Y-107435090D01*
X151558895Y-107416786D01*
X151558896Y-107416785D01*
X151558901Y-107416785D01*
X151713215Y-107362788D01*
X151851644Y-107275807D01*
X151967248Y-107160203D01*
X152054229Y-107021774D01*
X152108226Y-106867460D01*
X152110778Y-106844812D01*
X152126531Y-106705002D01*
X152126531Y-106704995D01*
X152108227Y-106542543D01*
X152108226Y-106542541D01*
X152108226Y-106542538D01*
X152054229Y-106388224D01*
X151967248Y-106249795D01*
X151851644Y-106134191D01*
X151713215Y-106047210D01*
X151614716Y-106012743D01*
X151557941Y-105972022D01*
X151532194Y-105907069D01*
X151545650Y-105838507D01*
X151567991Y-105808020D01*
X151569642Y-105806368D01*
X151569648Y-105806365D01*
X151685252Y-105690761D01*
X151772233Y-105552332D01*
X151826230Y-105398018D01*
X151828571Y-105377243D01*
X151844535Y-105235560D01*
X151844535Y-105235553D01*
X151826231Y-105073101D01*
X151826230Y-105073099D01*
X151826230Y-105073096D01*
X151772233Y-104918782D01*
X151685252Y-104780353D01*
X151679895Y-104774996D01*
X156319909Y-104774996D01*
X156319909Y-104775003D01*
X156338212Y-104937455D01*
X156392210Y-105091774D01*
X156426162Y-105145808D01*
X156479192Y-105230204D01*
X156594796Y-105345808D01*
X156733225Y-105432789D01*
X156887539Y-105486786D01*
X156887542Y-105486786D01*
X156887544Y-105486787D01*
X157049996Y-105505091D01*
X157050000Y-105505091D01*
X157050004Y-105505091D01*
X157212455Y-105486787D01*
X157212456Y-105486786D01*
X157212461Y-105486786D01*
X157366775Y-105432789D01*
X157505204Y-105345808D01*
X157620808Y-105230204D01*
X157707789Y-105091775D01*
X157761786Y-104937461D01*
X157763190Y-104925000D01*
X157780091Y-104775003D01*
X157780091Y-104774996D01*
X157761787Y-104612544D01*
X157761786Y-104612542D01*
X157761786Y-104612539D01*
X157707789Y-104458225D01*
X157620808Y-104319796D01*
X157505204Y-104204192D01*
X157490249Y-104194795D01*
X157366774Y-104117210D01*
X157212455Y-104063212D01*
X157050004Y-104044909D01*
X157049996Y-104044909D01*
X156887544Y-104063212D01*
X156733225Y-104117210D01*
X156594795Y-104204192D01*
X156479192Y-104319795D01*
X156392210Y-104458225D01*
X156338212Y-104612544D01*
X156319909Y-104774996D01*
X151679895Y-104774996D01*
X151569648Y-104664749D01*
X151497578Y-104619464D01*
X151431218Y-104577767D01*
X151276899Y-104523769D01*
X151114448Y-104505466D01*
X151114440Y-104505466D01*
X150951988Y-104523769D01*
X150797669Y-104577767D01*
X150659239Y-104664749D01*
X150543634Y-104780354D01*
X150540567Y-104784200D01*
X150483373Y-104824333D01*
X150413561Y-104827173D01*
X150355949Y-104794555D01*
X150285395Y-104724001D01*
X150146965Y-104637019D01*
X149992646Y-104583021D01*
X149830195Y-104564718D01*
X149830187Y-104564718D01*
X149667735Y-104583021D01*
X149513416Y-104637019D01*
X149374986Y-104724001D01*
X149259383Y-104839604D01*
X149172401Y-104978034D01*
X149118403Y-105132353D01*
X149100100Y-105294805D01*
X149100100Y-105294812D01*
X149109387Y-105377243D01*
X149097332Y-105446065D01*
X149052140Y-105496119D01*
X148976081Y-105543911D01*
X148976078Y-105543913D01*
X148860475Y-105659516D01*
X148773493Y-105797946D01*
X148719495Y-105952265D01*
X148701192Y-106114717D01*
X147536037Y-106114717D01*
X147532975Y-106087544D01*
X147532974Y-106087542D01*
X147532974Y-106087539D01*
X147478977Y-105933225D01*
X147391996Y-105794796D01*
X147276392Y-105679192D01*
X147266431Y-105672933D01*
X147137962Y-105592210D01*
X146983643Y-105538212D01*
X146958303Y-105535357D01*
X146893889Y-105508289D01*
X146854336Y-105450693D01*
X146852199Y-105380856D01*
X146867194Y-105346168D01*
X146932789Y-105241775D01*
X146986786Y-105087461D01*
X146986787Y-105087455D01*
X147005091Y-104925003D01*
X147005091Y-104924996D01*
X146986787Y-104762544D01*
X146986786Y-104762542D01*
X146986786Y-104762539D01*
X146932789Y-104608225D01*
X146845808Y-104469796D01*
X146730204Y-104354192D01*
X146675462Y-104319795D01*
X146591774Y-104267210D01*
X146437455Y-104213212D01*
X146275004Y-104194909D01*
X146274996Y-104194909D01*
X146112544Y-104213212D01*
X145958225Y-104267210D01*
X145819795Y-104354192D01*
X145704192Y-104469795D01*
X145704187Y-104469801D01*
X145637800Y-104575456D01*
X145585466Y-104621747D01*
X145516412Y-104632395D01*
X145491853Y-104626526D01*
X145477896Y-104621642D01*
X145467118Y-104617871D01*
X145467117Y-104617870D01*
X145467115Y-104617870D01*
X145304661Y-104599566D01*
X145304653Y-104599566D01*
X145142199Y-104617869D01*
X145142198Y-104617870D01*
X145137642Y-104619464D01*
X145067863Y-104623020D01*
X145007239Y-104588286D01*
X144975016Y-104526290D01*
X144973477Y-104516301D01*
X144970247Y-104487637D01*
X144961786Y-104412539D01*
X144907789Y-104258225D01*
X144820808Y-104119796D01*
X144705204Y-104004192D01*
X144598457Y-103937118D01*
X144566774Y-103917210D01*
X144412455Y-103863212D01*
X144250004Y-103844909D01*
X144249996Y-103844909D01*
X144087544Y-103863212D01*
X143933225Y-103917210D01*
X143794795Y-104004192D01*
X143679192Y-104119795D01*
X143592210Y-104258225D01*
X143538212Y-104412544D01*
X143519909Y-104574996D01*
X138102623Y-104574996D01*
X138107789Y-104566775D01*
X138161786Y-104412461D01*
X138163350Y-104398587D01*
X138180108Y-104249849D01*
X138207174Y-104185435D01*
X138215647Y-104176051D01*
X138249695Y-104142003D01*
X138316151Y-104075547D01*
X138403132Y-103937118D01*
X138457129Y-103782804D01*
X138467102Y-103694290D01*
X138475434Y-103620346D01*
X138475434Y-103620339D01*
X138457130Y-103457887D01*
X138457129Y-103457885D01*
X138457129Y-103457882D01*
X138441731Y-103413878D01*
X152894910Y-103413878D01*
X152894910Y-103413885D01*
X152913213Y-103576337D01*
X152967211Y-103730656D01*
X153049695Y-103861927D01*
X153054193Y-103869086D01*
X153169797Y-103984690D01*
X153308226Y-104071671D01*
X153462540Y-104125668D01*
X153462543Y-104125668D01*
X153462545Y-104125669D01*
X153624997Y-104143973D01*
X153625001Y-104143973D01*
X153625005Y-104143973D01*
X153787456Y-104125669D01*
X153787457Y-104125668D01*
X153787462Y-104125668D01*
X153941776Y-104071671D01*
X154080205Y-103984690D01*
X154195809Y-103869086D01*
X154282790Y-103730657D01*
X154336787Y-103576343D01*
X154336788Y-103576337D01*
X154355092Y-103413885D01*
X154355092Y-103413878D01*
X154336788Y-103251426D01*
X154336787Y-103251424D01*
X154336787Y-103251421D01*
X154282790Y-103097107D01*
X154281099Y-103094416D01*
X154249012Y-103043349D01*
X154230012Y-102976112D01*
X154250380Y-102909277D01*
X154303648Y-102864063D01*
X154313041Y-102860338D01*
X154391775Y-102832789D01*
X154483752Y-102774996D01*
X156044909Y-102774996D01*
X156044909Y-102775003D01*
X156063212Y-102937455D01*
X156117210Y-103091774D01*
X156118870Y-103094416D01*
X156204192Y-103230204D01*
X156319796Y-103345808D01*
X156458225Y-103432789D01*
X156612539Y-103486786D01*
X156612542Y-103486786D01*
X156612544Y-103486787D01*
X156774996Y-103505091D01*
X156775000Y-103505091D01*
X156775004Y-103505091D01*
X156937455Y-103486787D01*
X156937456Y-103486786D01*
X156937461Y-103486786D01*
X157091775Y-103432789D01*
X157230204Y-103345808D01*
X157345808Y-103230204D01*
X157432789Y-103091775D01*
X157486786Y-102937461D01*
X157486787Y-102937455D01*
X157505091Y-102775003D01*
X157505091Y-102774996D01*
X157486787Y-102612544D01*
X157486786Y-102612542D01*
X157486786Y-102612539D01*
X157432789Y-102458225D01*
X157345808Y-102319796D01*
X157230204Y-102204192D01*
X157183750Y-102175003D01*
X157091774Y-102117210D01*
X156937455Y-102063212D01*
X156775004Y-102044909D01*
X156774996Y-102044909D01*
X156612544Y-102063212D01*
X156458225Y-102117210D01*
X156319795Y-102204192D01*
X156204192Y-102319795D01*
X156117210Y-102458225D01*
X156063212Y-102612544D01*
X156044909Y-102774996D01*
X154483752Y-102774996D01*
X154530204Y-102745808D01*
X154645808Y-102630204D01*
X154732789Y-102491775D01*
X154786786Y-102337461D01*
X154786787Y-102337455D01*
X154805091Y-102175003D01*
X154805091Y-102174996D01*
X154786787Y-102012544D01*
X154786786Y-102012542D01*
X154786786Y-102012539D01*
X154732789Y-101858225D01*
X154645808Y-101719796D01*
X154530204Y-101604192D01*
X154391774Y-101517210D01*
X154237455Y-101463212D01*
X154075004Y-101444909D01*
X154074996Y-101444909D01*
X153912544Y-101463212D01*
X153758225Y-101517210D01*
X153619795Y-101604192D01*
X153504192Y-101719795D01*
X153417210Y-101858225D01*
X153363212Y-102012544D01*
X153344909Y-102174996D01*
X153344909Y-102175003D01*
X153363212Y-102337455D01*
X153417211Y-102491776D01*
X153450988Y-102545531D01*
X153469989Y-102612768D01*
X153449622Y-102679603D01*
X153396354Y-102724818D01*
X153386950Y-102728545D01*
X153308228Y-102756091D01*
X153169796Y-102843074D01*
X153054193Y-102958677D01*
X152967211Y-103097107D01*
X152913213Y-103251426D01*
X152894910Y-103413878D01*
X138441731Y-103413878D01*
X138403132Y-103303568D01*
X138316151Y-103165139D01*
X138200547Y-103049535D01*
X138103064Y-102988282D01*
X138062117Y-102962553D01*
X137928282Y-102915722D01*
X137907804Y-102908557D01*
X137907803Y-102908556D01*
X137907798Y-102908555D01*
X137745347Y-102890252D01*
X137745339Y-102890252D01*
X137582887Y-102908555D01*
X137428568Y-102962553D01*
X137290138Y-103049535D01*
X137174535Y-103165138D01*
X137087553Y-103303568D01*
X137033555Y-103457887D01*
X137015234Y-103620494D01*
X136988167Y-103684908D01*
X136979696Y-103694290D01*
X136879191Y-103794796D01*
X136837009Y-103861927D01*
X136784673Y-103908217D01*
X136731619Y-103917001D01*
X136731619Y-103919909D01*
X136724652Y-103919909D01*
X136562200Y-103938212D01*
X136407881Y-103992210D01*
X136269451Y-104079192D01*
X136153848Y-104194795D01*
X136066866Y-104333225D01*
X136012868Y-104487544D01*
X135994565Y-104649996D01*
X135173320Y-104649996D01*
X135164947Y-104626067D01*
X135077966Y-104487638D01*
X134962362Y-104372034D01*
X134879226Y-104319796D01*
X134823932Y-104285052D01*
X134723326Y-104249849D01*
X134669619Y-104231056D01*
X134654252Y-104229324D01*
X134638896Y-104227594D01*
X134574483Y-104200525D01*
X134534929Y-104142930D01*
X134529563Y-104118263D01*
X134526102Y-104087539D01*
X134472105Y-103933225D01*
X134385124Y-103794796D01*
X134269520Y-103679192D01*
X134176103Y-103620494D01*
X134136316Y-103595494D01*
X134090025Y-103543159D01*
X134079377Y-103474105D01*
X134107752Y-103410257D01*
X134166142Y-103371885D01*
X134202288Y-103366500D01*
X134223920Y-103366500D01*
X134327946Y-103345807D01*
X134368913Y-103337658D01*
X134505495Y-103281084D01*
X134628416Y-103198951D01*
X134732951Y-103094416D01*
X134756418Y-103059294D01*
X134803868Y-102988282D01*
X134857480Y-102943476D01*
X134926805Y-102934769D01*
X134989832Y-102964923D01*
X135003914Y-102979855D01*
X135004191Y-102980202D01*
X135004192Y-102980204D01*
X135119796Y-103095808D01*
X135258225Y-103182789D01*
X135412539Y-103236786D01*
X135412542Y-103236786D01*
X135412544Y-103236787D01*
X135574996Y-103255091D01*
X135575000Y-103255091D01*
X135575004Y-103255091D01*
X135737455Y-103236787D01*
X135737456Y-103236786D01*
X135737461Y-103236786D01*
X135891775Y-103182789D01*
X136030204Y-103095808D01*
X136145808Y-102980204D01*
X136232543Y-102842165D01*
X136284875Y-102795877D01*
X136296575Y-102791100D01*
X136391775Y-102757789D01*
X136530204Y-102670808D01*
X136645808Y-102555204D01*
X136732789Y-102416775D01*
X136786786Y-102262461D01*
X136787006Y-102260509D01*
X136805091Y-102100003D01*
X136805091Y-102099997D01*
X136797623Y-102033721D01*
X136809677Y-101964899D01*
X136857026Y-101913520D01*
X136924636Y-101895895D01*
X136991042Y-101917621D01*
X137008524Y-101932156D01*
X137122176Y-102045808D01*
X137260605Y-102132789D01*
X137414919Y-102186786D01*
X137414922Y-102186786D01*
X137414924Y-102186787D01*
X137577376Y-102205091D01*
X137577380Y-102205091D01*
X137577384Y-102205091D01*
X137739835Y-102186787D01*
X137739836Y-102186786D01*
X137739841Y-102186786D01*
X137894155Y-102132789D01*
X138032584Y-102045808D01*
X138128396Y-101949996D01*
X140369909Y-101949996D01*
X140369909Y-101950003D01*
X140388212Y-102112455D01*
X140442210Y-102266774D01*
X140442211Y-102266775D01*
X140529192Y-102405204D01*
X140644796Y-102520808D01*
X140783225Y-102607789D01*
X140937539Y-102661786D01*
X140937542Y-102661786D01*
X140937544Y-102661787D01*
X141099996Y-102680091D01*
X141100000Y-102680091D01*
X141100004Y-102680091D01*
X141262455Y-102661787D01*
X141262456Y-102661786D01*
X141262461Y-102661786D01*
X141416775Y-102607789D01*
X141555204Y-102520808D01*
X141670808Y-102405204D01*
X141757789Y-102266775D01*
X141811786Y-102112461D01*
X141813190Y-102100000D01*
X141830091Y-101950003D01*
X141830091Y-101949996D01*
X141811787Y-101787544D01*
X141811786Y-101787542D01*
X141811786Y-101787539D01*
X141757789Y-101633225D01*
X141670808Y-101494796D01*
X141555204Y-101379192D01*
X141449127Y-101312539D01*
X141416774Y-101292210D01*
X141262455Y-101238212D01*
X141100004Y-101219909D01*
X141099996Y-101219909D01*
X140937544Y-101238212D01*
X140783225Y-101292210D01*
X140644795Y-101379192D01*
X140529192Y-101494795D01*
X140442210Y-101633225D01*
X140388212Y-101787544D01*
X140369909Y-101949996D01*
X138128396Y-101949996D01*
X138148188Y-101930204D01*
X138235169Y-101791775D01*
X138289166Y-101637461D01*
X138289167Y-101637455D01*
X138307471Y-101475003D01*
X138307471Y-101474996D01*
X138289167Y-101312544D01*
X138289166Y-101312542D01*
X138289166Y-101312539D01*
X138235169Y-101158225D01*
X138148188Y-101019796D01*
X138032584Y-100904192D01*
X137999785Y-100883583D01*
X137894154Y-100817210D01*
X137739835Y-100763212D01*
X137577384Y-100744909D01*
X137577376Y-100744909D01*
X137414924Y-100763212D01*
X137260605Y-100817210D01*
X137122175Y-100904192D01*
X137006572Y-101019795D01*
X136919590Y-101158225D01*
X136865592Y-101312544D01*
X136847289Y-101474996D01*
X136847289Y-101475004D01*
X136854756Y-101541279D01*
X136842701Y-101610101D01*
X136795352Y-101661480D01*
X136727741Y-101679104D01*
X136661336Y-101657377D01*
X136643855Y-101642843D01*
X136530204Y-101529192D01*
X136391774Y-101442210D01*
X136237455Y-101388212D01*
X136075004Y-101369909D01*
X136074996Y-101369909D01*
X135912544Y-101388212D01*
X135758225Y-101442210D01*
X135619795Y-101529192D01*
X135504192Y-101644795D01*
X135504190Y-101644798D01*
X135417456Y-101782832D01*
X135365121Y-101829123D01*
X135353419Y-101833900D01*
X135258223Y-101867211D01*
X135258222Y-101867212D01*
X135119795Y-101954192D01*
X135099969Y-101974018D01*
X135038646Y-102007502D01*
X134968954Y-102002516D01*
X134913021Y-101960643D01*
X134888606Y-101895179D01*
X134889350Y-101870156D01*
X134900500Y-101785468D01*
X134900500Y-101414532D01*
X134895847Y-101379192D01*
X134884937Y-101296318D01*
X134884937Y-101296317D01*
X134850559Y-101213323D01*
X134843091Y-101143854D01*
X134874366Y-101081375D01*
X134934455Y-101045723D01*
X135004280Y-101048217D01*
X135042435Y-101068925D01*
X135044795Y-101070807D01*
X135044796Y-101070808D01*
X135183225Y-101157789D01*
X135337539Y-101211786D01*
X135337542Y-101211786D01*
X135337544Y-101211787D01*
X135499996Y-101230091D01*
X135500000Y-101230091D01*
X135500004Y-101230091D01*
X135662455Y-101211787D01*
X135662456Y-101211786D01*
X135662461Y-101211786D01*
X135816775Y-101157789D01*
X135955204Y-101070808D01*
X136070808Y-100955204D01*
X136157789Y-100816775D01*
X136211786Y-100662461D01*
X136222518Y-100567211D01*
X136224458Y-100549996D01*
X138494909Y-100549996D01*
X138494909Y-100550003D01*
X138513212Y-100712455D01*
X138567210Y-100866774D01*
X138593256Y-100908225D01*
X138654192Y-101005204D01*
X138769796Y-101120808D01*
X138908225Y-101207789D01*
X139062539Y-101261786D01*
X139062542Y-101261786D01*
X139062544Y-101261787D01*
X139224996Y-101280091D01*
X139225000Y-101280091D01*
X139225004Y-101280091D01*
X139387455Y-101261787D01*
X139387456Y-101261786D01*
X139387461Y-101261786D01*
X139541775Y-101207789D01*
X139680204Y-101120808D01*
X139795808Y-101005204D01*
X139882789Y-100866775D01*
X139936786Y-100712461D01*
X139942420Y-100662461D01*
X139955091Y-100550003D01*
X139955091Y-100549996D01*
X139936787Y-100387544D01*
X139936786Y-100387542D01*
X139936786Y-100387539D01*
X139882789Y-100233225D01*
X139795808Y-100094796D01*
X139680204Y-99979192D01*
X139600627Y-99929190D01*
X139541774Y-99892210D01*
X139387455Y-99838212D01*
X139225004Y-99819909D01*
X139224996Y-99819909D01*
X139062544Y-99838212D01*
X138908225Y-99892210D01*
X138769795Y-99979192D01*
X138654192Y-100094795D01*
X138567210Y-100233225D01*
X138513212Y-100387544D01*
X138494909Y-100549996D01*
X136224458Y-100549996D01*
X136230091Y-100500003D01*
X136230091Y-100499499D01*
X136230183Y-100499184D01*
X136230871Y-100493081D01*
X136231940Y-100493201D01*
X136249776Y-100432460D01*
X136302580Y-100386705D01*
X136354091Y-100375499D01*
X136647871Y-100375499D01*
X136647872Y-100375499D01*
X136707483Y-100369091D01*
X136842331Y-100318796D01*
X136957546Y-100232546D01*
X137043796Y-100117331D01*
X137094091Y-99982483D01*
X137100500Y-99922873D01*
X137100499Y-99423999D01*
X137120183Y-99356961D01*
X137172987Y-99311206D01*
X137224499Y-99300000D01*
X150600000Y-99300000D01*
X150600000Y-94154500D01*
X150619685Y-94087461D01*
X150672489Y-94041706D01*
X150724000Y-94030500D01*
X157965500Y-94030500D01*
X158032539Y-94050185D01*
X158078294Y-94102989D01*
X158089500Y-94154500D01*
X158089500Y-107406277D01*
X158069815Y-107473316D01*
X158017011Y-107519071D01*
X157947853Y-107529015D01*
X157884297Y-107499990D01*
X157847794Y-107445282D01*
X157831400Y-107395808D01*
X157809814Y-107330666D01*
X157717712Y-107181344D01*
X157593656Y-107057288D01*
X157444334Y-106965186D01*
X157277797Y-106910001D01*
X157277795Y-106910000D01*
X157175010Y-106899500D01*
X155824998Y-106899500D01*
X155824981Y-106899501D01*
X155722203Y-106910000D01*
X155722200Y-106910001D01*
X155555668Y-106965185D01*
X155555663Y-106965187D01*
X155406342Y-107057289D01*
X155282289Y-107181342D01*
X155190187Y-107330663D01*
X155190185Y-107330668D01*
X155179542Y-107362788D01*
X155135001Y-107497203D01*
X155135001Y-107497204D01*
X155135000Y-107497204D01*
X155124500Y-107599983D01*
X155124500Y-108400001D01*
X155124501Y-108400019D01*
X155135000Y-108502796D01*
X155135001Y-108502799D01*
X155163268Y-108588101D01*
X155190186Y-108669334D01*
X155282288Y-108818656D01*
X155406344Y-108942712D01*
X155470543Y-108982310D01*
X155517268Y-109034258D01*
X155528489Y-109103221D01*
X155500646Y-109167303D01*
X155493128Y-109175530D01*
X155385585Y-109283073D01*
X155283768Y-109423211D01*
X155205128Y-109577552D01*
X155151597Y-109742302D01*
X155124500Y-109913389D01*
X155124500Y-110086610D01*
X155144551Y-110213212D01*
X155151598Y-110257701D01*
X155205127Y-110422445D01*
X155283768Y-110576788D01*
X155368495Y-110693405D01*
X155382869Y-110713188D01*
X155406349Y-110778995D01*
X155390524Y-110847049D01*
X155370233Y-110873754D01*
X155319192Y-110924795D01*
X155232210Y-111063225D01*
X155178212Y-111217544D01*
X155159909Y-111379996D01*
X155159909Y-111380003D01*
X155178212Y-111542455D01*
X155232210Y-111696774D01*
X155310146Y-111820807D01*
X155319192Y-111835204D01*
X155434796Y-111950808D01*
X155573225Y-112037789D01*
X155727539Y-112091786D01*
X155727542Y-112091786D01*
X155727544Y-112091787D01*
X155889996Y-112110091D01*
X155890000Y-112110091D01*
X155890004Y-112110091D01*
X156052455Y-112091787D01*
X156052456Y-112091786D01*
X156052461Y-112091786D01*
X156206775Y-112037789D01*
X156345204Y-111950808D01*
X156460808Y-111835204D01*
X156547789Y-111696775D01*
X156601786Y-111542461D01*
X156604680Y-111516775D01*
X156620091Y-111380003D01*
X156620091Y-111379997D01*
X156604135Y-111238384D01*
X156616189Y-111169562D01*
X156663538Y-111118182D01*
X156727355Y-111100500D01*
X156861610Y-111100500D01*
X156861611Y-111100500D01*
X157032701Y-111073402D01*
X157197445Y-111019873D01*
X157351788Y-110941232D01*
X157491928Y-110839414D01*
X157614414Y-110716928D01*
X157716232Y-110576788D01*
X157794873Y-110422445D01*
X157847570Y-110260261D01*
X157887007Y-110202587D01*
X157951365Y-110175389D01*
X158020212Y-110187304D01*
X158071687Y-110234548D01*
X158089500Y-110298581D01*
X158089500Y-112498900D01*
X158069815Y-112565939D01*
X158017011Y-112611694D01*
X157947853Y-112621638D01*
X157924547Y-112615942D01*
X157902456Y-112608212D01*
X157902457Y-112608212D01*
X157740004Y-112589909D01*
X157739996Y-112589909D01*
X157577544Y-112608212D01*
X157423225Y-112662210D01*
X157284795Y-112749192D01*
X157169192Y-112864795D01*
X157082210Y-113003225D01*
X157028212Y-113157544D01*
X157016271Y-113263528D01*
X156989204Y-113327942D01*
X156931609Y-113367497D01*
X156870268Y-113371533D01*
X156861104Y-113369820D01*
X156638896Y-113369820D01*
X156420472Y-113410650D01*
X156370695Y-113429933D01*
X156213272Y-113490919D01*
X156213266Y-113490922D01*
X156024346Y-113607896D01*
X156024344Y-113607898D01*
X155860133Y-113757595D01*
X155726222Y-113934923D01*
X155627180Y-114133825D01*
X155627174Y-114133840D01*
X155566366Y-114347558D01*
X155566365Y-114347560D01*
X155545863Y-114568819D01*
X155545863Y-114568820D01*
X155566365Y-114790079D01*
X155566366Y-114790081D01*
X155627174Y-115003799D01*
X155627180Y-115003814D01*
X155726222Y-115202716D01*
X155860133Y-115380044D01*
X156024344Y-115529741D01*
X156024346Y-115529743D01*
X156213266Y-115646717D01*
X156213272Y-115646720D01*
X156241842Y-115657788D01*
X156420472Y-115726990D01*
X156638896Y-115767820D01*
X156638899Y-115767820D01*
X156861101Y-115767820D01*
X156861104Y-115767820D01*
X157079528Y-115726990D01*
X157286730Y-115646719D01*
X157475655Y-115529742D01*
X157639868Y-115380042D01*
X157773778Y-115202716D01*
X157804123Y-115141775D01*
X157854500Y-115040605D01*
X157902003Y-114989367D01*
X157969666Y-114971946D01*
X158036006Y-114993871D01*
X158079961Y-115048183D01*
X158089500Y-115095876D01*
X158089500Y-117038963D01*
X158069815Y-117106002D01*
X158017011Y-117151757D01*
X157947853Y-117161701D01*
X157884297Y-117132676D01*
X157854500Y-117094235D01*
X157809099Y-117003059D01*
X157773778Y-116932124D01*
X157639868Y-116754798D01*
X157639866Y-116754795D01*
X157475655Y-116605098D01*
X157475653Y-116605096D01*
X157286733Y-116488122D01*
X157286727Y-116488119D01*
X157169715Y-116442789D01*
X157079528Y-116407850D01*
X156861104Y-116367020D01*
X156638896Y-116367020D01*
X156420472Y-116407850D01*
X156383699Y-116422096D01*
X156213272Y-116488119D01*
X156213266Y-116488122D01*
X156024346Y-116605096D01*
X156024344Y-116605098D01*
X155860133Y-116754795D01*
X155726222Y-116932123D01*
X155627180Y-117131025D01*
X155627174Y-117131040D01*
X155566366Y-117344758D01*
X155566365Y-117344760D01*
X155545863Y-117566019D01*
X155545863Y-117566020D01*
X155566365Y-117787279D01*
X155566366Y-117787281D01*
X155627174Y-118000999D01*
X155627180Y-118001014D01*
X155726222Y-118199916D01*
X155860133Y-118377244D01*
X156024344Y-118526941D01*
X156024346Y-118526943D01*
X156213266Y-118643917D01*
X156213272Y-118643920D01*
X156242206Y-118655129D01*
X156420472Y-118724190D01*
X156455764Y-118730787D01*
X156518044Y-118762453D01*
X156553318Y-118822765D01*
X156550385Y-118892573D01*
X156510177Y-118949714D01*
X156446863Y-118975895D01*
X156337544Y-118988212D01*
X156183225Y-119042210D01*
X156044795Y-119129192D01*
X155929192Y-119244795D01*
X155842209Y-119383226D01*
X155832327Y-119411469D01*
X155791605Y-119468244D01*
X155726652Y-119493991D01*
X155658091Y-119480534D01*
X155607688Y-119432147D01*
X155592066Y-119384396D01*
X155586787Y-119337544D01*
X155586786Y-119337542D01*
X155586786Y-119337539D01*
X155532789Y-119183225D01*
X155445808Y-119044796D01*
X155330204Y-118929192D01*
X155283585Y-118899899D01*
X155191774Y-118842210D01*
X155037455Y-118788212D01*
X154875004Y-118769909D01*
X154874996Y-118769909D01*
X154712544Y-118788212D01*
X154558223Y-118842211D01*
X154535592Y-118856431D01*
X154468355Y-118875430D01*
X154401520Y-118855061D01*
X154356307Y-118801792D01*
X154347071Y-118732536D01*
X154364629Y-118685463D01*
X154407789Y-118616775D01*
X154461786Y-118462461D01*
X154463764Y-118444909D01*
X154480091Y-118300003D01*
X154480091Y-118299996D01*
X154461787Y-118137544D01*
X154461786Y-118137542D01*
X154461786Y-118137539D01*
X154407789Y-117983225D01*
X154320808Y-117844796D01*
X154205204Y-117729192D01*
X154127925Y-117680634D01*
X154066774Y-117642210D01*
X153912455Y-117588212D01*
X153750004Y-117569909D01*
X153749996Y-117569909D01*
X153647838Y-117581419D01*
X153579016Y-117569364D01*
X153527637Y-117522015D01*
X153510013Y-117454405D01*
X153528961Y-117392227D01*
X153607789Y-117266775D01*
X153661786Y-117112461D01*
X153662514Y-117106002D01*
X153680091Y-116950003D01*
X153680091Y-116949996D01*
X153661787Y-116787544D01*
X153661786Y-116787542D01*
X153661786Y-116787539D01*
X153607789Y-116633225D01*
X153520808Y-116494796D01*
X153405204Y-116379192D01*
X153266774Y-116292210D01*
X153112455Y-116238212D01*
X152950004Y-116219909D01*
X152949996Y-116219909D01*
X152787544Y-116238212D01*
X152633225Y-116292210D01*
X152494795Y-116379192D01*
X152379192Y-116494795D01*
X152292210Y-116633225D01*
X152238212Y-116787544D01*
X152219909Y-116949996D01*
X152219909Y-116950003D01*
X152238212Y-117112455D01*
X152238213Y-117112460D01*
X152238214Y-117112461D01*
X152244710Y-117131025D01*
X152292210Y-117266774D01*
X152368043Y-117387461D01*
X152379192Y-117405204D01*
X152494796Y-117520808D01*
X152633225Y-117607789D01*
X152787539Y-117661786D01*
X152787542Y-117661786D01*
X152787544Y-117661787D01*
X152949996Y-117680091D01*
X152950000Y-117680091D01*
X152950002Y-117680091D01*
X152993298Y-117675212D01*
X153052161Y-117668580D01*
X153120982Y-117680634D01*
X153172361Y-117727983D01*
X153189986Y-117795593D01*
X153171038Y-117857772D01*
X153092210Y-117983225D01*
X153038212Y-118137544D01*
X153019909Y-118299996D01*
X153019909Y-118300003D01*
X153038212Y-118462455D01*
X153038213Y-118462460D01*
X153038214Y-118462461D01*
X153040820Y-118469909D01*
X153092210Y-118616774D01*
X153163849Y-118730786D01*
X153179192Y-118755204D01*
X153294796Y-118870808D01*
X153433225Y-118957789D01*
X153587539Y-119011786D01*
X153587542Y-119011786D01*
X153587544Y-119011787D01*
X153749996Y-119030091D01*
X153750000Y-119030091D01*
X153750004Y-119030091D01*
X153912455Y-119011787D01*
X153912456Y-119011786D01*
X153912461Y-119011786D01*
X154066775Y-118957789D01*
X154089403Y-118943571D01*
X154156639Y-118924569D01*
X154223475Y-118944935D01*
X154268690Y-118998202D01*
X154277929Y-119067458D01*
X154260371Y-119114534D01*
X154217211Y-119183222D01*
X154163212Y-119337544D01*
X154144909Y-119499996D01*
X154144909Y-119500003D01*
X154163212Y-119662455D01*
X154217210Y-119816774D01*
X154276911Y-119911787D01*
X154304192Y-119955204D01*
X154419796Y-120070808D01*
X154558225Y-120157789D01*
X154712539Y-120211786D01*
X154712542Y-120211786D01*
X154712544Y-120211787D01*
X154874996Y-120230091D01*
X154875000Y-120230091D01*
X154875004Y-120230091D01*
X155037455Y-120211787D01*
X155037456Y-120211786D01*
X155037461Y-120211786D01*
X155191775Y-120157789D01*
X155330204Y-120070808D01*
X155445808Y-119955204D01*
X155532789Y-119816775D01*
X155542671Y-119788531D01*
X155583391Y-119731757D01*
X155648343Y-119706008D01*
X155716905Y-119719463D01*
X155767309Y-119767849D01*
X155782933Y-119815601D01*
X155788212Y-119862455D01*
X155842210Y-120016774D01*
X155876162Y-120070808D01*
X155929192Y-120155204D01*
X156044796Y-120270808D01*
X156183225Y-120357789D01*
X156337539Y-120411786D01*
X156337542Y-120411786D01*
X156337544Y-120411787D01*
X156499996Y-120430091D01*
X156500000Y-120430091D01*
X156500004Y-120430091D01*
X156662455Y-120411787D01*
X156662456Y-120411786D01*
X156662461Y-120411786D01*
X156723323Y-120390488D01*
X156793098Y-120386926D01*
X156805226Y-120390487D01*
X156918406Y-120430091D01*
X156937542Y-120436787D01*
X157099996Y-120455091D01*
X157100000Y-120455091D01*
X157100004Y-120455091D01*
X157262455Y-120436787D01*
X157262456Y-120436786D01*
X157262461Y-120436786D01*
X157416775Y-120382789D01*
X157555204Y-120295808D01*
X157670808Y-120180204D01*
X157757789Y-120041775D01*
X157811786Y-119887461D01*
X157813190Y-119875000D01*
X157830091Y-119725003D01*
X157830091Y-119724996D01*
X157811787Y-119562544D01*
X157811786Y-119562542D01*
X157811786Y-119562539D01*
X157757789Y-119408225D01*
X157670808Y-119269796D01*
X157555204Y-119154192D01*
X157457506Y-119092804D01*
X157416774Y-119067210D01*
X157262455Y-119013212D01*
X157100004Y-118994909D01*
X157099996Y-118994909D01*
X156937540Y-119013213D01*
X156937539Y-119013213D01*
X156876674Y-119034510D01*
X156806895Y-119038071D01*
X156794767Y-119034510D01*
X156782138Y-119030091D01*
X156713464Y-119006060D01*
X156656690Y-118965340D01*
X156630942Y-118900388D01*
X156644398Y-118831826D01*
X156692785Y-118781423D01*
X156754420Y-118765020D01*
X156861101Y-118765020D01*
X156861104Y-118765020D01*
X157079528Y-118724190D01*
X157286730Y-118643919D01*
X157475655Y-118526942D01*
X157639868Y-118377242D01*
X157773778Y-118199916D01*
X157788720Y-118169909D01*
X157854500Y-118037805D01*
X157902003Y-117986567D01*
X157969666Y-117969146D01*
X158036006Y-117991071D01*
X158079961Y-118045383D01*
X158089500Y-118093076D01*
X158089500Y-130665500D01*
X158069815Y-130732539D01*
X158017011Y-130778294D01*
X157965500Y-130789500D01*
X153118210Y-130789500D01*
X153051171Y-130769815D01*
X153005416Y-130717011D01*
X152995472Y-130647853D01*
X153024497Y-130584297D01*
X153052238Y-130560506D01*
X153155204Y-130495808D01*
X153270808Y-130380204D01*
X153357789Y-130241775D01*
X153411786Y-130087461D01*
X153430091Y-129925000D01*
X153422968Y-129861786D01*
X153411787Y-129762544D01*
X153411786Y-129762542D01*
X153411786Y-129762539D01*
X153357789Y-129608225D01*
X153270808Y-129469796D01*
X153155204Y-129354192D01*
X153028046Y-129274293D01*
X153016774Y-129267210D01*
X152862455Y-129213212D01*
X152700004Y-129194909D01*
X152699996Y-129194909D01*
X152537544Y-129213212D01*
X152383225Y-129267210D01*
X152244795Y-129354192D01*
X152200181Y-129398807D01*
X152138858Y-129432292D01*
X152069166Y-129427308D01*
X152024819Y-129398807D01*
X151980204Y-129354192D01*
X151841774Y-129267210D01*
X151687455Y-129213212D01*
X151525004Y-129194909D01*
X151524996Y-129194909D01*
X151362544Y-129213212D01*
X151208225Y-129267210D01*
X151069795Y-129354192D01*
X150954192Y-129469795D01*
X150867210Y-129608225D01*
X150813212Y-129762544D01*
X150794909Y-129924996D01*
X150794909Y-129925003D01*
X150813212Y-130087455D01*
X150867210Y-130241774D01*
X150867211Y-130241775D01*
X150954192Y-130380204D01*
X151069796Y-130495808D01*
X151172762Y-130560506D01*
X151219053Y-130612841D01*
X151229701Y-130681895D01*
X151201326Y-130745743D01*
X151142936Y-130784115D01*
X151106790Y-130789500D01*
X126974500Y-130789500D01*
X126907461Y-130769815D01*
X126861706Y-130717011D01*
X126850500Y-130665500D01*
X126850500Y-129124996D01*
X130594909Y-129124996D01*
X130594909Y-129125003D01*
X130613212Y-129287455D01*
X130667210Y-129441774D01*
X130684817Y-129469795D01*
X130754192Y-129580204D01*
X130869796Y-129695808D01*
X131008225Y-129782789D01*
X131162539Y-129836786D01*
X131162542Y-129836786D01*
X131162544Y-129836787D01*
X131324996Y-129855091D01*
X131325000Y-129855091D01*
X131325004Y-129855091D01*
X131487455Y-129836787D01*
X131487456Y-129836786D01*
X131487461Y-129836786D01*
X131641775Y-129782789D01*
X131780204Y-129695808D01*
X131895808Y-129580204D01*
X131982789Y-129441775D01*
X132036786Y-129287461D01*
X132039068Y-129267210D01*
X132052275Y-129149996D01*
X133794909Y-129149996D01*
X133794909Y-129150003D01*
X133813212Y-129312455D01*
X133813213Y-129312460D01*
X133813214Y-129312461D01*
X133817396Y-129324413D01*
X133867210Y-129466774D01*
X133869109Y-129469796D01*
X133954192Y-129605204D01*
X134069796Y-129720808D01*
X134208225Y-129807789D01*
X134362539Y-129861786D01*
X134362542Y-129861786D01*
X134362544Y-129861787D01*
X134524996Y-129880091D01*
X134525000Y-129880091D01*
X134525004Y-129880091D01*
X134687455Y-129861787D01*
X134687456Y-129861786D01*
X134687461Y-129861786D01*
X134841775Y-129807789D01*
X134980204Y-129720808D01*
X135095808Y-129605204D01*
X135182789Y-129466775D01*
X135236786Y-129312461D01*
X135241087Y-129274293D01*
X135255091Y-129150003D01*
X135255091Y-129149996D01*
X135236787Y-128987544D01*
X135236786Y-128987542D01*
X135236786Y-128987539D01*
X135182789Y-128833225D01*
X135095808Y-128694796D01*
X135050508Y-128649496D01*
X146094909Y-128649496D01*
X146094909Y-128649503D01*
X146113212Y-128811955D01*
X146167210Y-128966274D01*
X146167211Y-128966275D01*
X146254192Y-129104704D01*
X146369796Y-129220308D01*
X146508225Y-129307289D01*
X146662539Y-129361286D01*
X146662542Y-129361286D01*
X146662544Y-129361287D01*
X146824996Y-129379591D01*
X146825000Y-129379591D01*
X146825004Y-129379591D01*
X146987455Y-129361287D01*
X146987456Y-129361286D01*
X146987461Y-129361286D01*
X147092838Y-129324412D01*
X147162613Y-129320850D01*
X147223241Y-129355579D01*
X147238784Y-129375482D01*
X147305251Y-129481263D01*
X147420855Y-129596867D01*
X147559284Y-129683848D01*
X147713598Y-129737845D01*
X147713601Y-129737845D01*
X147713603Y-129737846D01*
X147876055Y-129756150D01*
X147876059Y-129756150D01*
X147876063Y-129756150D01*
X148038514Y-129737846D01*
X148038515Y-129737845D01*
X148038520Y-129737845D01*
X148192834Y-129683848D01*
X148331263Y-129596867D01*
X148446867Y-129481263D01*
X148533848Y-129342834D01*
X148587845Y-129188520D01*
X148595002Y-129125000D01*
X148606150Y-129026062D01*
X148606150Y-129026055D01*
X148587846Y-128863603D01*
X148587845Y-128863601D01*
X148587845Y-128863598D01*
X148533848Y-128709284D01*
X148446867Y-128570855D01*
X148331263Y-128455251D01*
X148235230Y-128394909D01*
X148192833Y-128368269D01*
X148038514Y-128314271D01*
X147876063Y-128295968D01*
X147876055Y-128295968D01*
X147713602Y-128314271D01*
X147608221Y-128351145D01*
X147538443Y-128354706D01*
X147477816Y-128319977D01*
X147462275Y-128300076D01*
X147395809Y-128194297D01*
X147280204Y-128078692D01*
X147141774Y-127991710D01*
X146987455Y-127937712D01*
X146825004Y-127919409D01*
X146824996Y-127919409D01*
X146662544Y-127937712D01*
X146508225Y-127991710D01*
X146369795Y-128078692D01*
X146254192Y-128194295D01*
X146167210Y-128332725D01*
X146113212Y-128487044D01*
X146094909Y-128649496D01*
X135050508Y-128649496D01*
X134980204Y-128579192D01*
X134940417Y-128554192D01*
X134841774Y-128492210D01*
X134687455Y-128438212D01*
X134525004Y-128419909D01*
X134524996Y-128419909D01*
X134362544Y-128438212D01*
X134208225Y-128492210D01*
X134069795Y-128579192D01*
X133954192Y-128694795D01*
X133867210Y-128833225D01*
X133813212Y-128987544D01*
X133794909Y-129149996D01*
X132052275Y-129149996D01*
X132055091Y-129125003D01*
X132055091Y-129124996D01*
X132036787Y-128962544D01*
X132036786Y-128962542D01*
X132036786Y-128962539D01*
X131982789Y-128808225D01*
X131895808Y-128669796D01*
X131780204Y-128554192D01*
X131641774Y-128467210D01*
X131487455Y-128413212D01*
X131325004Y-128394909D01*
X131324996Y-128394909D01*
X131162544Y-128413212D01*
X131008225Y-128467210D01*
X130869795Y-128554192D01*
X130754192Y-128669795D01*
X130667210Y-128808225D01*
X130613212Y-128962544D01*
X130594909Y-129124996D01*
X126850500Y-129124996D01*
X126850500Y-126274996D01*
X154294909Y-126274996D01*
X154294909Y-126275003D01*
X154313212Y-126437455D01*
X154367210Y-126591774D01*
X154367211Y-126591775D01*
X154454192Y-126730204D01*
X154569796Y-126845808D01*
X154708225Y-126932789D01*
X154862539Y-126986786D01*
X154862542Y-126986786D01*
X154862544Y-126986787D01*
X155024996Y-127005091D01*
X155025000Y-127005091D01*
X155025004Y-127005091D01*
X155187455Y-126986787D01*
X155187456Y-126986786D01*
X155187461Y-126986786D01*
X155341775Y-126932789D01*
X155480204Y-126845808D01*
X155595808Y-126730204D01*
X155682789Y-126591775D01*
X155736786Y-126437461D01*
X155755091Y-126275000D01*
X155736786Y-126112539D01*
X155682789Y-125958225D01*
X155595808Y-125819796D01*
X155480204Y-125704192D01*
X155341774Y-125617210D01*
X155187455Y-125563212D01*
X155025004Y-125544909D01*
X155024996Y-125544909D01*
X154862544Y-125563212D01*
X154708225Y-125617210D01*
X154569795Y-125704192D01*
X154454192Y-125819795D01*
X154367210Y-125958225D01*
X154313212Y-126112544D01*
X154294909Y-126274996D01*
X126850500Y-126274996D01*
X126850500Y-123749996D01*
X129769909Y-123749996D01*
X129769909Y-123750003D01*
X129788212Y-123912455D01*
X129842210Y-124066774D01*
X129929192Y-124205204D01*
X130044796Y-124320808D01*
X130183225Y-124407789D01*
X130337539Y-124461786D01*
X130337542Y-124461786D01*
X130337544Y-124461787D01*
X130499996Y-124480091D01*
X130500000Y-124480091D01*
X130500004Y-124480091D01*
X130662455Y-124461787D01*
X130662456Y-124461786D01*
X130662461Y-124461786D01*
X130816775Y-124407789D01*
X130955204Y-124320808D01*
X131070808Y-124205204D01*
X131157789Y-124066775D01*
X131211786Y-123912461D01*
X131213720Y-123895298D01*
X131230091Y-123750003D01*
X131230091Y-123749996D01*
X131228158Y-123732839D01*
X132102752Y-123732839D01*
X132102752Y-123732846D01*
X132121055Y-123895298D01*
X132175053Y-124049617D01*
X132247625Y-124165114D01*
X132262035Y-124188047D01*
X132377639Y-124303651D01*
X132516068Y-124390632D01*
X132670382Y-124444629D01*
X132675433Y-124445198D01*
X132739849Y-124472260D01*
X132779408Y-124529852D01*
X132781550Y-124599689D01*
X132745596Y-124659598D01*
X132702516Y-124685459D01*
X132683228Y-124692208D01*
X132544795Y-124779192D01*
X132429192Y-124894795D01*
X132342210Y-125033225D01*
X132288212Y-125187544D01*
X132269909Y-125349996D01*
X132269909Y-125350003D01*
X132288212Y-125512455D01*
X132342210Y-125666774D01*
X132429192Y-125805204D01*
X132544796Y-125920808D01*
X132683225Y-126007789D01*
X132837539Y-126061786D01*
X132837542Y-126061786D01*
X132837544Y-126061787D01*
X132999996Y-126080091D01*
X133000000Y-126080091D01*
X133000004Y-126080091D01*
X133162455Y-126061787D01*
X133162456Y-126061786D01*
X133162461Y-126061786D01*
X133316775Y-126007789D01*
X133455204Y-125920808D01*
X133570808Y-125805204D01*
X133657789Y-125666775D01*
X133711786Y-125512461D01*
X133730091Y-125350000D01*
X133711786Y-125187539D01*
X133657789Y-125033225D01*
X133570808Y-124894796D01*
X133455204Y-124779192D01*
X133316774Y-124692210D01*
X133162455Y-124638212D01*
X133157400Y-124637643D01*
X133092986Y-124610576D01*
X133053431Y-124552981D01*
X133051294Y-124483144D01*
X133087253Y-124423238D01*
X133130331Y-124397381D01*
X133134829Y-124395807D01*
X133149618Y-124390632D01*
X133288047Y-124303651D01*
X133403651Y-124188047D01*
X133432474Y-124142174D01*
X133484809Y-124095884D01*
X133553862Y-124085236D01*
X133617711Y-124113611D01*
X133642461Y-124142175D01*
X133729187Y-124280198D01*
X133729192Y-124280204D01*
X133844796Y-124395808D01*
X133983225Y-124482789D01*
X134137539Y-124536786D01*
X134137542Y-124536786D01*
X134137544Y-124536787D01*
X134299996Y-124555091D01*
X134300000Y-124555091D01*
X134300004Y-124555091D01*
X134462455Y-124536787D01*
X134462456Y-124536786D01*
X134462461Y-124536786D01*
X134616775Y-124482789D01*
X134755204Y-124395808D01*
X134870808Y-124280204D01*
X134957789Y-124141775D01*
X135011786Y-123987461D01*
X135014727Y-123961359D01*
X135030091Y-123825003D01*
X135030091Y-123824996D01*
X135011787Y-123662544D01*
X135011786Y-123662542D01*
X135011786Y-123662539D01*
X134957789Y-123508225D01*
X134870808Y-123369796D01*
X134755204Y-123254192D01*
X134697021Y-123217633D01*
X134616774Y-123167210D01*
X134462455Y-123113212D01*
X134300004Y-123094909D01*
X134299996Y-123094909D01*
X134137544Y-123113212D01*
X133983225Y-123167210D01*
X133844795Y-123254192D01*
X133729192Y-123369795D01*
X133729188Y-123369800D01*
X133700366Y-123415669D01*
X133648031Y-123461959D01*
X133578977Y-123472606D01*
X133515129Y-123444230D01*
X133490380Y-123415667D01*
X133461557Y-123369795D01*
X133403651Y-123277639D01*
X133288047Y-123162035D01*
X133248841Y-123137400D01*
X133149617Y-123075053D01*
X132995298Y-123021055D01*
X132832847Y-123002752D01*
X132832839Y-123002752D01*
X132670387Y-123021055D01*
X132516068Y-123075053D01*
X132377638Y-123162035D01*
X132262035Y-123277638D01*
X132175053Y-123416068D01*
X132121055Y-123570387D01*
X132102752Y-123732839D01*
X131228158Y-123732839D01*
X131211787Y-123587544D01*
X131211786Y-123587542D01*
X131211786Y-123587539D01*
X131157789Y-123433225D01*
X131070808Y-123294796D01*
X130955204Y-123179192D01*
X130927899Y-123162035D01*
X130816774Y-123092210D01*
X130662455Y-123038212D01*
X130500004Y-123019909D01*
X130499996Y-123019909D01*
X130337544Y-123038212D01*
X130183225Y-123092210D01*
X130044795Y-123179192D01*
X129929192Y-123294795D01*
X129842210Y-123433225D01*
X129788212Y-123587544D01*
X129769909Y-123749996D01*
X126850500Y-123749996D01*
X126850500Y-122900854D01*
X138244052Y-122900854D01*
X138244052Y-122900861D01*
X138262355Y-123063313D01*
X138316353Y-123217632D01*
X138354058Y-123277638D01*
X138403335Y-123356062D01*
X138518939Y-123471666D01*
X138657368Y-123558647D01*
X138811682Y-123612644D01*
X138811685Y-123612644D01*
X138811687Y-123612645D01*
X138974139Y-123630949D01*
X138974143Y-123630949D01*
X138974144Y-123630949D01*
X138984418Y-123629791D01*
X139017159Y-123626102D01*
X139085980Y-123638156D01*
X139097016Y-123644329D01*
X139158225Y-123682789D01*
X139312539Y-123736786D01*
X139312542Y-123736786D01*
X139312544Y-123736787D01*
X139474996Y-123755091D01*
X139475000Y-123755091D01*
X139475004Y-123755091D01*
X139637455Y-123736787D01*
X139637456Y-123736786D01*
X139637461Y-123736786D01*
X139791775Y-123682789D01*
X139930204Y-123595808D01*
X140045808Y-123480204D01*
X140132789Y-123341775D01*
X140186786Y-123187461D01*
X140189651Y-123162035D01*
X140205091Y-123025003D01*
X140205091Y-123024996D01*
X140186787Y-122862544D01*
X140186786Y-122862542D01*
X140186786Y-122862539D01*
X140182397Y-122849996D01*
X143994909Y-122849996D01*
X143994909Y-122850003D01*
X144013212Y-123012455D01*
X144067210Y-123166774D01*
X144099167Y-123217633D01*
X144154192Y-123305204D01*
X144269796Y-123420808D01*
X144408225Y-123507789D01*
X144562539Y-123561786D01*
X144562542Y-123561786D01*
X144562544Y-123561787D01*
X144724996Y-123580091D01*
X144725000Y-123580091D01*
X144725004Y-123580091D01*
X144887455Y-123561787D01*
X144887456Y-123561786D01*
X144887461Y-123561786D01*
X145041775Y-123507789D01*
X145180204Y-123420808D01*
X145295808Y-123305204D01*
X145382789Y-123166775D01*
X145393069Y-123137396D01*
X148069909Y-123137396D01*
X148069909Y-123137403D01*
X148088212Y-123299855D01*
X148142210Y-123454174D01*
X148153201Y-123471666D01*
X148229192Y-123592604D01*
X148344796Y-123708208D01*
X148483225Y-123795189D01*
X148637539Y-123849186D01*
X148682104Y-123854207D01*
X148746516Y-123881272D01*
X148755901Y-123889746D01*
X148831166Y-123965011D01*
X148969595Y-124051992D01*
X149123909Y-124105989D01*
X149123912Y-124105989D01*
X149123914Y-124105990D01*
X149286366Y-124124294D01*
X149286370Y-124124294D01*
X149286374Y-124124294D01*
X149448825Y-124105990D01*
X149448826Y-124105989D01*
X149448831Y-124105989D01*
X149603145Y-124051992D01*
X149641543Y-124027865D01*
X149708780Y-124008864D01*
X149775615Y-124029231D01*
X149798994Y-124050554D01*
X149799268Y-124050281D01*
X149804192Y-124055205D01*
X149919796Y-124170809D01*
X150058225Y-124257790D01*
X150212539Y-124311787D01*
X150212542Y-124311787D01*
X150212544Y-124311788D01*
X150374996Y-124330092D01*
X150375000Y-124330092D01*
X150375004Y-124330092D01*
X150537455Y-124311788D01*
X150537456Y-124311787D01*
X150537461Y-124311787D01*
X150691775Y-124257790D01*
X150830204Y-124170809D01*
X150830206Y-124170806D01*
X150834027Y-124168406D01*
X150901264Y-124149405D01*
X150965973Y-124168406D01*
X150969793Y-124170806D01*
X150969796Y-124170809D01*
X151108225Y-124257790D01*
X151262539Y-124311787D01*
X151262542Y-124311787D01*
X151262544Y-124311788D01*
X151424996Y-124330092D01*
X151425000Y-124330092D01*
X151425004Y-124330092D01*
X151587455Y-124311788D01*
X151587456Y-124311787D01*
X151587461Y-124311787D01*
X151741775Y-124257790D01*
X151859028Y-124184114D01*
X151926264Y-124165114D01*
X151990971Y-124184114D01*
X152108225Y-124257790D01*
X152262539Y-124311787D01*
X152262542Y-124311787D01*
X152262544Y-124311788D01*
X152424996Y-124330092D01*
X152425000Y-124330092D01*
X152425004Y-124330092D01*
X152587455Y-124311788D01*
X152587456Y-124311787D01*
X152587461Y-124311787D01*
X152741775Y-124257790D01*
X152880204Y-124170809D01*
X152995808Y-124055205D01*
X153082789Y-123916776D01*
X153136786Y-123762462D01*
X153140123Y-123732846D01*
X153155091Y-123600004D01*
X153155091Y-123599997D01*
X153136787Y-123437545D01*
X153136786Y-123437543D01*
X153136786Y-123437540D01*
X153082789Y-123283226D01*
X152995808Y-123144797D01*
X152880204Y-123029193D01*
X152867256Y-123021057D01*
X152820918Y-122991941D01*
X156100083Y-122991941D01*
X156100083Y-122991948D01*
X156118386Y-123154400D01*
X156172384Y-123308719D01*
X156172385Y-123308720D01*
X156259366Y-123447149D01*
X156374970Y-123562753D01*
X156513399Y-123649734D01*
X156667713Y-123703731D01*
X156667716Y-123703731D01*
X156667718Y-123703732D01*
X156830170Y-123722036D01*
X156830174Y-123722036D01*
X156830178Y-123722036D01*
X156992629Y-123703732D01*
X156992630Y-123703731D01*
X156992635Y-123703731D01*
X157146949Y-123649734D01*
X157285378Y-123562753D01*
X157400982Y-123447149D01*
X157487963Y-123308720D01*
X157541960Y-123154406D01*
X157543877Y-123137396D01*
X157560265Y-122991948D01*
X157560265Y-122991941D01*
X157541961Y-122829489D01*
X157541960Y-122829487D01*
X157541960Y-122829484D01*
X157487963Y-122675170D01*
X157400982Y-122536741D01*
X157285378Y-122421137D01*
X157243455Y-122394795D01*
X157146948Y-122334155D01*
X156992629Y-122280157D01*
X156830178Y-122261854D01*
X156830170Y-122261854D01*
X156667718Y-122280157D01*
X156513399Y-122334155D01*
X156374969Y-122421137D01*
X156259366Y-122536740D01*
X156172384Y-122675170D01*
X156118386Y-122829489D01*
X156100083Y-122991941D01*
X152820918Y-122991941D01*
X152741774Y-122942211D01*
X152587455Y-122888213D01*
X152425004Y-122869910D01*
X152424996Y-122869910D01*
X152262544Y-122888213D01*
X152108225Y-122942211D01*
X151990972Y-123015887D01*
X151923735Y-123034887D01*
X151859028Y-123015887D01*
X151741774Y-122942211D01*
X151587455Y-122888213D01*
X151425004Y-122869910D01*
X151424996Y-122869910D01*
X151262544Y-122888213D01*
X151108225Y-122942211D01*
X151011876Y-123002752D01*
X150976465Y-123025003D01*
X150965972Y-123031596D01*
X150898736Y-123050596D01*
X150834028Y-123031596D01*
X150823535Y-123025003D01*
X150743860Y-122974939D01*
X150691774Y-122942211D01*
X150537455Y-122888213D01*
X150375004Y-122869910D01*
X150374996Y-122869910D01*
X150212544Y-122888213D01*
X150058223Y-122942212D01*
X150019823Y-122966340D01*
X149952586Y-122985339D01*
X149885751Y-122964970D01*
X149862376Y-122943648D01*
X149862102Y-122943923D01*
X149741574Y-122823395D01*
X149603144Y-122736413D01*
X149448825Y-122682415D01*
X149404262Y-122677394D01*
X149339849Y-122650326D01*
X149330467Y-122641855D01*
X149255204Y-122566592D01*
X149116774Y-122479610D01*
X148962455Y-122425612D01*
X148800004Y-122407309D01*
X148799996Y-122407309D01*
X148637544Y-122425612D01*
X148483225Y-122479610D01*
X148344795Y-122566592D01*
X148229192Y-122682195D01*
X148142210Y-122820625D01*
X148088212Y-122974944D01*
X148069909Y-123137396D01*
X145393069Y-123137396D01*
X145436786Y-123012461D01*
X145437880Y-123002752D01*
X145455091Y-122850003D01*
X145455091Y-122849996D01*
X145436787Y-122687544D01*
X145436786Y-122687542D01*
X145436786Y-122687539D01*
X145382789Y-122533225D01*
X145295808Y-122394796D01*
X145180204Y-122279192D01*
X145114592Y-122237965D01*
X145041774Y-122192210D01*
X144887455Y-122138212D01*
X144725004Y-122119909D01*
X144724996Y-122119909D01*
X144562544Y-122138212D01*
X144408225Y-122192210D01*
X144269795Y-122279192D01*
X144154192Y-122394795D01*
X144067210Y-122533225D01*
X144013212Y-122687544D01*
X143994909Y-122849996D01*
X140182397Y-122849996D01*
X140132789Y-122708225D01*
X140045808Y-122569796D01*
X139930204Y-122454192D01*
X139884723Y-122425614D01*
X139791774Y-122367210D01*
X139637455Y-122313212D01*
X139475004Y-122294909D01*
X139474995Y-122294909D01*
X139431981Y-122299755D01*
X139363159Y-122287700D01*
X139352127Y-122281529D01*
X139290917Y-122243068D01*
X139136598Y-122189070D01*
X138974147Y-122170767D01*
X138974139Y-122170767D01*
X138811687Y-122189070D01*
X138657368Y-122243068D01*
X138518938Y-122330050D01*
X138403335Y-122445653D01*
X138316353Y-122584083D01*
X138262355Y-122738402D01*
X138244052Y-122900854D01*
X126850500Y-122900854D01*
X126850500Y-121667153D01*
X130602752Y-121667153D01*
X130602752Y-121667160D01*
X130621055Y-121829612D01*
X130675053Y-121983931D01*
X130737170Y-122082789D01*
X130762035Y-122122361D01*
X130877639Y-122237965D01*
X131016068Y-122324946D01*
X131170382Y-122378943D01*
X131170385Y-122378943D01*
X131170387Y-122378944D01*
X131332839Y-122397248D01*
X131332843Y-122397248D01*
X131332847Y-122397248D01*
X131495298Y-122378944D01*
X131495299Y-122378943D01*
X131495304Y-122378943D01*
X131649618Y-122324946D01*
X131788047Y-122237965D01*
X131903651Y-122122361D01*
X131990632Y-121983932D01*
X132044629Y-121829618D01*
X132051143Y-121771806D01*
X132062934Y-121667160D01*
X132062934Y-121667153D01*
X132044630Y-121504701D01*
X132044629Y-121504699D01*
X132044629Y-121504696D01*
X131990632Y-121350382D01*
X131990389Y-121349996D01*
X132994909Y-121349996D01*
X132994909Y-121350003D01*
X133013212Y-121512455D01*
X133067210Y-121666774D01*
X133134936Y-121774559D01*
X133154192Y-121805204D01*
X133269796Y-121920808D01*
X133408225Y-122007789D01*
X133562539Y-122061786D01*
X133562542Y-122061786D01*
X133562544Y-122061787D01*
X133724996Y-122080091D01*
X133725000Y-122080091D01*
X133725004Y-122080091D01*
X133887457Y-122061787D01*
X133887459Y-122061786D01*
X133887461Y-122061786D01*
X133999599Y-122022546D01*
X134069375Y-122018984D01*
X134106525Y-122034595D01*
X134149800Y-122061787D01*
X134183225Y-122082789D01*
X134337539Y-122136786D01*
X134337542Y-122136786D01*
X134337544Y-122136787D01*
X134499996Y-122155091D01*
X134500000Y-122155091D01*
X134500004Y-122155091D01*
X134662455Y-122136787D01*
X134662456Y-122136786D01*
X134662461Y-122136786D01*
X134816775Y-122082789D01*
X134955204Y-121995808D01*
X135070808Y-121880204D01*
X135157789Y-121741775D01*
X135211786Y-121587461D01*
X135211787Y-121587455D01*
X135221641Y-121499996D01*
X141989907Y-121499996D01*
X141989907Y-121500003D01*
X142008210Y-121662455D01*
X142062208Y-121816774D01*
X142102064Y-121880204D01*
X142149190Y-121955204D01*
X142264794Y-122070808D01*
X142403223Y-122157789D01*
X142557537Y-122211786D01*
X142557540Y-122211786D01*
X142557542Y-122211787D01*
X142719994Y-122230091D01*
X142719998Y-122230091D01*
X142720002Y-122230091D01*
X142882453Y-122211787D01*
X142882454Y-122211786D01*
X142882459Y-122211786D01*
X143036773Y-122157789D01*
X143175202Y-122070808D01*
X143290806Y-121955204D01*
X143375227Y-121820849D01*
X143427561Y-121774559D01*
X143466338Y-121763602D01*
X143482459Y-121761786D01*
X143482463Y-121761784D01*
X143482466Y-121761784D01*
X143636770Y-121707790D01*
X143636769Y-121707790D01*
X143636773Y-121707789D01*
X143775202Y-121620808D01*
X143890806Y-121505204D01*
X143977787Y-121366775D01*
X144031784Y-121212461D01*
X144031785Y-121212455D01*
X144050089Y-121050003D01*
X144050089Y-121049996D01*
X144031785Y-120887544D01*
X144031784Y-120887542D01*
X144031784Y-120887539D01*
X143977787Y-120733225D01*
X143890806Y-120594796D01*
X143775202Y-120479192D01*
X143707715Y-120436787D01*
X143636772Y-120392210D01*
X143482453Y-120338212D01*
X143320002Y-120319909D01*
X143319994Y-120319909D01*
X143157542Y-120338212D01*
X143003223Y-120392210D01*
X142864793Y-120479192D01*
X142749190Y-120594795D01*
X142664771Y-120729148D01*
X142612436Y-120775439D01*
X142573664Y-120786396D01*
X142557541Y-120788212D01*
X142403223Y-120842210D01*
X142264793Y-120929192D01*
X142149190Y-121044795D01*
X142062208Y-121183225D01*
X142008210Y-121337544D01*
X141989907Y-121499996D01*
X135221641Y-121499996D01*
X135230091Y-121425003D01*
X135230091Y-121424996D01*
X135211787Y-121262544D01*
X135211786Y-121262542D01*
X135211786Y-121262539D01*
X135157789Y-121108225D01*
X135070808Y-120969796D01*
X134955204Y-120854192D01*
X134835843Y-120779192D01*
X134816774Y-120767210D01*
X134662455Y-120713212D01*
X134500004Y-120694909D01*
X134499996Y-120694909D01*
X134337544Y-120713212D01*
X134225401Y-120752453D01*
X134155622Y-120756014D01*
X134118475Y-120740405D01*
X134041774Y-120692210D01*
X133887455Y-120638212D01*
X133725004Y-120619909D01*
X133724996Y-120619909D01*
X133562544Y-120638212D01*
X133408225Y-120692210D01*
X133269797Y-120779191D01*
X133179489Y-120869499D01*
X133135839Y-120893332D01*
X133125780Y-120939576D01*
X133121941Y-120946122D01*
X133067210Y-121033225D01*
X133013212Y-121187544D01*
X132994909Y-121349996D01*
X131990389Y-121349996D01*
X131903651Y-121211953D01*
X131896379Y-121204681D01*
X131862894Y-121143358D01*
X131867878Y-121073666D01*
X131909750Y-121017733D01*
X131975214Y-120993316D01*
X131984060Y-120993000D01*
X132559055Y-120993000D01*
X132559057Y-120993000D01*
X132711784Y-120952077D01*
X132848716Y-120873020D01*
X132929269Y-120792466D01*
X132972916Y-120768633D01*
X132982976Y-120722390D01*
X132984403Y-120719849D01*
X133039577Y-120624284D01*
X133080500Y-120471557D01*
X133080500Y-120313443D01*
X133039577Y-120160716D01*
X132971019Y-120041970D01*
X132954547Y-119974071D01*
X132977400Y-119908044D01*
X133032321Y-119864853D01*
X133101874Y-119858212D01*
X133119356Y-119862927D01*
X133187539Y-119886786D01*
X133187543Y-119886786D01*
X133187545Y-119886787D01*
X133349996Y-119905091D01*
X133350000Y-119905091D01*
X133350004Y-119905091D01*
X133512455Y-119886787D01*
X133512456Y-119886786D01*
X133512461Y-119886786D01*
X133666775Y-119832789D01*
X133805204Y-119745808D01*
X133920808Y-119630204D01*
X134007789Y-119491775D01*
X134061786Y-119337461D01*
X134069410Y-119269795D01*
X134080091Y-119175003D01*
X134080091Y-119174996D01*
X134061787Y-119012544D01*
X134061786Y-119012542D01*
X134061786Y-119012539D01*
X134033023Y-118930339D01*
X135425252Y-118930339D01*
X135425252Y-118930346D01*
X135443555Y-119092798D01*
X135497553Y-119247117D01*
X135557796Y-119342993D01*
X135584535Y-119385547D01*
X135700139Y-119501151D01*
X135838568Y-119588132D01*
X135992882Y-119642129D01*
X135992885Y-119642129D01*
X135992887Y-119642130D01*
X136155339Y-119660434D01*
X136155343Y-119660434D01*
X136155347Y-119660434D01*
X136317800Y-119642130D01*
X136317802Y-119642129D01*
X136317804Y-119642129D01*
X136450967Y-119595532D01*
X136520743Y-119591970D01*
X136551825Y-119605031D01*
X136551952Y-119604769D01*
X136557092Y-119607244D01*
X136557893Y-119607581D01*
X136558223Y-119607788D01*
X136558225Y-119607789D01*
X136712539Y-119661786D01*
X136712542Y-119661786D01*
X136712544Y-119661787D01*
X136874996Y-119680091D01*
X136875000Y-119680091D01*
X136875004Y-119680091D01*
X137037455Y-119661787D01*
X137037456Y-119661786D01*
X137037461Y-119661786D01*
X137191775Y-119607789D01*
X137289135Y-119546613D01*
X137356369Y-119527613D01*
X137421078Y-119546613D01*
X137446423Y-119562539D01*
X137524800Y-119611787D01*
X137558225Y-119632789D01*
X137712539Y-119686786D01*
X137712542Y-119686786D01*
X137712544Y-119686787D01*
X137874996Y-119705091D01*
X137875000Y-119705091D01*
X137875004Y-119705091D01*
X138037455Y-119686787D01*
X138037456Y-119686786D01*
X138037461Y-119686786D01*
X138191775Y-119632789D01*
X138318707Y-119553031D01*
X138385944Y-119534031D01*
X138450651Y-119553031D01*
X138458222Y-119557788D01*
X138458225Y-119557789D01*
X138612539Y-119611786D01*
X138612542Y-119611786D01*
X138612544Y-119611787D01*
X138774996Y-119630091D01*
X138775000Y-119630091D01*
X138775004Y-119630091D01*
X138937455Y-119611787D01*
X138937456Y-119611786D01*
X138937461Y-119611786D01*
X139091775Y-119557789D01*
X139230204Y-119470808D01*
X139230204Y-119470807D01*
X139232201Y-119469553D01*
X139299437Y-119450553D01*
X139366273Y-119470921D01*
X139385854Y-119486866D01*
X139444796Y-119545808D01*
X139583225Y-119632789D01*
X139737539Y-119686786D01*
X139737542Y-119686786D01*
X139737544Y-119686787D01*
X139899996Y-119705091D01*
X139900000Y-119705091D01*
X139900004Y-119705091D01*
X140062455Y-119686787D01*
X140062456Y-119686786D01*
X140062461Y-119686786D01*
X140216775Y-119632789D01*
X140355204Y-119545808D01*
X140470808Y-119430204D01*
X140557789Y-119291775D01*
X140589904Y-119199996D01*
X144419909Y-119199996D01*
X144419909Y-119200003D01*
X144438212Y-119362455D01*
X144492210Y-119516774D01*
X144551911Y-119611787D01*
X144579192Y-119655204D01*
X144694796Y-119770808D01*
X144833225Y-119857789D01*
X144987539Y-119911786D01*
X144987542Y-119911786D01*
X144987544Y-119911787D01*
X145149996Y-119930091D01*
X145150000Y-119930091D01*
X145150004Y-119930091D01*
X145312455Y-119911787D01*
X145312456Y-119911786D01*
X145312461Y-119911786D01*
X145466775Y-119857789D01*
X145605204Y-119770808D01*
X145720808Y-119655204D01*
X145807789Y-119516775D01*
X145861786Y-119362461D01*
X145861787Y-119362455D01*
X145880091Y-119200003D01*
X145880091Y-119199996D01*
X145861787Y-119037544D01*
X145861786Y-119037542D01*
X145861786Y-119037539D01*
X145807789Y-118883225D01*
X145720808Y-118744796D01*
X145605204Y-118629192D01*
X145577503Y-118611786D01*
X145466774Y-118542210D01*
X145312455Y-118488212D01*
X145150004Y-118469909D01*
X145149996Y-118469909D01*
X144987544Y-118488212D01*
X144833225Y-118542210D01*
X144694795Y-118629192D01*
X144579192Y-118744795D01*
X144492210Y-118883225D01*
X144438212Y-119037544D01*
X144419909Y-119199996D01*
X140589904Y-119199996D01*
X140611786Y-119137461D01*
X140612718Y-119129192D01*
X140630091Y-118975003D01*
X140630091Y-118974996D01*
X140611787Y-118812544D01*
X140611786Y-118812542D01*
X140611786Y-118812539D01*
X140557789Y-118658225D01*
X140470808Y-118519796D01*
X140355204Y-118404192D01*
X140312317Y-118377244D01*
X140216774Y-118317210D01*
X140062455Y-118263212D01*
X139900004Y-118244909D01*
X139899996Y-118244909D01*
X139737544Y-118263212D01*
X139583225Y-118317210D01*
X139442799Y-118405447D01*
X139375563Y-118424447D01*
X139308727Y-118404079D01*
X139289146Y-118388134D01*
X139230204Y-118329192D01*
X139091774Y-118242210D01*
X138937455Y-118188212D01*
X138775004Y-118169909D01*
X138774996Y-118169909D01*
X138612544Y-118188212D01*
X138458225Y-118242210D01*
X138331291Y-118321969D01*
X138264054Y-118340969D01*
X138199348Y-118321969D01*
X138191776Y-118317211D01*
X138037455Y-118263212D01*
X137875004Y-118244909D01*
X137874996Y-118244909D01*
X137712544Y-118263212D01*
X137558225Y-118317210D01*
X137460865Y-118378386D01*
X137393628Y-118397386D01*
X137328921Y-118378386D01*
X137327100Y-118377242D01*
X137250630Y-118329192D01*
X137191774Y-118292210D01*
X137037455Y-118238212D01*
X136875004Y-118219909D01*
X136874996Y-118219909D01*
X136712544Y-118238212D01*
X136579375Y-118284810D01*
X136509596Y-118288371D01*
X136478516Y-118275311D01*
X136478390Y-118275574D01*
X136473254Y-118273100D01*
X136472453Y-118272764D01*
X136472119Y-118272554D01*
X136317798Y-118218555D01*
X136155347Y-118200252D01*
X136155339Y-118200252D01*
X135992887Y-118218555D01*
X135838568Y-118272553D01*
X135700138Y-118359535D01*
X135584535Y-118475138D01*
X135497553Y-118613568D01*
X135443555Y-118767887D01*
X135425252Y-118930339D01*
X134033023Y-118930339D01*
X134007789Y-118858225D01*
X133920808Y-118719796D01*
X133805204Y-118604192D01*
X133769892Y-118582004D01*
X133666774Y-118517210D01*
X133512455Y-118463212D01*
X133350004Y-118444909D01*
X133349996Y-118444909D01*
X133187544Y-118463212D01*
X133033225Y-118517210D01*
X132894795Y-118604192D01*
X132779192Y-118719795D01*
X132692210Y-118858225D01*
X132638212Y-119012544D01*
X132619909Y-119174996D01*
X132619909Y-119175003D01*
X132638212Y-119337455D01*
X132638213Y-119337460D01*
X132638214Y-119337461D01*
X132645379Y-119357939D01*
X132692210Y-119491774D01*
X132777909Y-119628162D01*
X132796909Y-119695398D01*
X132776541Y-119762234D01*
X132723274Y-119807448D01*
X132654017Y-119816686D01*
X132640825Y-119813909D01*
X132559057Y-119792000D01*
X131300943Y-119792000D01*
X131148216Y-119832923D01*
X131148209Y-119832926D01*
X131011290Y-119911975D01*
X131011282Y-119911981D01*
X130899481Y-120023782D01*
X130899475Y-120023790D01*
X130820426Y-120160709D01*
X130820423Y-120160716D01*
X130779500Y-120313443D01*
X130779500Y-120471557D01*
X130815281Y-120605091D01*
X130820423Y-120624283D01*
X130820426Y-120624290D01*
X130899475Y-120761209D01*
X130899481Y-120761217D01*
X130986915Y-120848651D01*
X131020400Y-120909974D01*
X131015416Y-120979666D01*
X130973544Y-121035599D01*
X130965207Y-121041325D01*
X130877641Y-121096347D01*
X130877638Y-121096349D01*
X130762035Y-121211952D01*
X130675053Y-121350382D01*
X130621055Y-121504701D01*
X130602752Y-121667153D01*
X126850500Y-121667153D01*
X126850500Y-121012285D01*
X126870185Y-120945246D01*
X126922989Y-120899491D01*
X126992147Y-120889547D01*
X127036497Y-120904896D01*
X127118216Y-120952077D01*
X127270943Y-120993000D01*
X127270945Y-120993000D01*
X128229055Y-120993000D01*
X128229057Y-120993000D01*
X128381784Y-120952077D01*
X128518716Y-120873020D01*
X128630520Y-120761216D01*
X128709577Y-120624284D01*
X128750500Y-120471557D01*
X128750500Y-120313443D01*
X128709577Y-120160716D01*
X128657669Y-120070808D01*
X128630524Y-120023790D01*
X128630518Y-120023782D01*
X128518717Y-119911981D01*
X128518709Y-119911975D01*
X128454659Y-119874996D01*
X128919909Y-119874996D01*
X128919909Y-119875003D01*
X128938212Y-120037455D01*
X128992210Y-120191774D01*
X129041870Y-120270807D01*
X129079192Y-120330204D01*
X129194796Y-120445808D01*
X129333225Y-120532789D01*
X129487539Y-120586786D01*
X129487542Y-120586786D01*
X129487544Y-120586787D01*
X129649996Y-120605091D01*
X129650000Y-120605091D01*
X129650004Y-120605091D01*
X129812455Y-120586787D01*
X129812456Y-120586786D01*
X129812461Y-120586786D01*
X129966775Y-120532789D01*
X130105204Y-120445808D01*
X130220808Y-120330204D01*
X130307789Y-120191775D01*
X130361786Y-120037461D01*
X130361787Y-120037455D01*
X130380091Y-119875003D01*
X130380091Y-119874996D01*
X130361787Y-119712544D01*
X130361786Y-119712542D01*
X130361786Y-119712539D01*
X130307789Y-119558225D01*
X130220808Y-119419796D01*
X130105204Y-119304192D01*
X130050462Y-119269795D01*
X129966774Y-119217210D01*
X129812455Y-119163212D01*
X129650004Y-119144909D01*
X129649996Y-119144909D01*
X129487544Y-119163212D01*
X129333225Y-119217210D01*
X129194795Y-119304192D01*
X129079192Y-119419795D01*
X128992210Y-119558225D01*
X128938212Y-119712544D01*
X128919909Y-119874996D01*
X128454659Y-119874996D01*
X128381790Y-119832926D01*
X128381786Y-119832924D01*
X128381784Y-119832923D01*
X128229057Y-119792000D01*
X127270943Y-119792000D01*
X127118216Y-119832923D01*
X127118215Y-119832923D01*
X127036499Y-119880102D01*
X126968599Y-119896574D01*
X126902572Y-119873721D01*
X126859382Y-119818799D01*
X126850500Y-119772714D01*
X126850500Y-118899899D01*
X130954500Y-118899899D01*
X130954500Y-119025101D01*
X130986905Y-119146036D01*
X131049505Y-119254464D01*
X131138036Y-119342995D01*
X131246464Y-119405595D01*
X131367399Y-119438000D01*
X131367401Y-119438000D01*
X131492599Y-119438000D01*
X131492601Y-119438000D01*
X131613536Y-119405595D01*
X131721964Y-119342995D01*
X131810495Y-119254464D01*
X131873095Y-119146036D01*
X131905500Y-119025101D01*
X131905500Y-118899899D01*
X131873095Y-118778964D01*
X131810495Y-118670536D01*
X131721964Y-118582005D01*
X131613536Y-118519405D01*
X131613537Y-118519405D01*
X131573224Y-118508603D01*
X131492601Y-118487000D01*
X131367399Y-118487000D01*
X131286775Y-118508603D01*
X131246463Y-118519405D01*
X131138037Y-118582004D01*
X131138034Y-118582006D01*
X131049506Y-118670534D01*
X131049504Y-118670537D01*
X130986905Y-118778963D01*
X130986905Y-118778964D01*
X130954500Y-118899899D01*
X126850500Y-118899899D01*
X126850500Y-117949996D01*
X133869909Y-117949996D01*
X133869909Y-117950003D01*
X133888212Y-118112455D01*
X133942210Y-118266774D01*
X134018466Y-118388134D01*
X134029192Y-118405204D01*
X134144796Y-118520808D01*
X134283225Y-118607789D01*
X134437539Y-118661786D01*
X134437542Y-118661786D01*
X134437544Y-118661787D01*
X134599996Y-118680091D01*
X134600000Y-118680091D01*
X134600004Y-118680091D01*
X134762455Y-118661787D01*
X134762456Y-118661786D01*
X134762461Y-118661786D01*
X134916775Y-118607789D01*
X135055204Y-118520808D01*
X135170808Y-118405204D01*
X135257789Y-118266775D01*
X135311786Y-118112461D01*
X135317420Y-118062461D01*
X135330091Y-117950003D01*
X135330091Y-117949996D01*
X135311787Y-117787544D01*
X135311786Y-117787542D01*
X135311786Y-117787539D01*
X135257789Y-117633225D01*
X135170808Y-117494796D01*
X135055204Y-117379192D01*
X134916774Y-117292210D01*
X134762455Y-117238212D01*
X134600004Y-117219909D01*
X134599996Y-117219909D01*
X134437544Y-117238212D01*
X134283225Y-117292210D01*
X134144795Y-117379192D01*
X134029192Y-117494795D01*
X133942210Y-117633225D01*
X133888212Y-117787544D01*
X133869909Y-117949996D01*
X126850500Y-117949996D01*
X126850500Y-114824996D01*
X134969909Y-114824996D01*
X134969909Y-114825003D01*
X134988212Y-114987455D01*
X135042210Y-115141774D01*
X135087714Y-115214192D01*
X135129192Y-115280204D01*
X135244796Y-115395808D01*
X135383225Y-115482789D01*
X135537539Y-115536786D01*
X135537542Y-115536786D01*
X135537544Y-115536787D01*
X135699996Y-115555091D01*
X135700000Y-115555091D01*
X135700001Y-115555091D01*
X135718881Y-115552963D01*
X135780467Y-115546024D01*
X135849288Y-115558078D01*
X135863782Y-115567289D01*
X135863900Y-115567103D01*
X135869795Y-115570807D01*
X135869796Y-115570808D01*
X136008225Y-115657789D01*
X136162539Y-115711786D01*
X136162542Y-115711786D01*
X136162544Y-115711787D01*
X136324996Y-115730091D01*
X136325000Y-115730091D01*
X136325004Y-115730091D01*
X136487455Y-115711787D01*
X136487456Y-115711786D01*
X136487461Y-115711786D01*
X136641775Y-115657789D01*
X136778296Y-115572006D01*
X136845532Y-115553006D01*
X136912367Y-115573373D01*
X136957582Y-115626641D01*
X136967488Y-115690883D01*
X136959216Y-115764302D01*
X136959216Y-115764310D01*
X136977519Y-115926762D01*
X137031517Y-116081081D01*
X137096158Y-116183955D01*
X137118499Y-116219511D01*
X137234103Y-116335115D01*
X137372532Y-116422096D01*
X137526846Y-116476093D01*
X137526849Y-116476093D01*
X137526851Y-116476094D01*
X137689303Y-116494398D01*
X137689305Y-116494398D01*
X137689305Y-116494397D01*
X137689307Y-116494398D01*
X137701924Y-116492976D01*
X137770746Y-116505029D01*
X137822126Y-116552377D01*
X137832851Y-116575239D01*
X137863627Y-116663191D01*
X137950608Y-116801620D01*
X138066212Y-116917224D01*
X138204641Y-117004205D01*
X138358955Y-117058202D01*
X138358958Y-117058202D01*
X138358960Y-117058203D01*
X138521412Y-117076507D01*
X138521416Y-117076507D01*
X138521420Y-117076507D01*
X138683871Y-117058203D01*
X138683872Y-117058202D01*
X138683877Y-117058202D01*
X138838191Y-117004205D01*
X138976620Y-116917224D01*
X139092224Y-116801620D01*
X139179205Y-116663191D01*
X139233202Y-116508877D01*
X139233636Y-116505029D01*
X139240405Y-116444956D01*
X143409263Y-116444956D01*
X143409263Y-116444963D01*
X143427566Y-116607415D01*
X143481564Y-116761734D01*
X143568546Y-116900164D01*
X143684150Y-117015768D01*
X143822579Y-117102749D01*
X143976893Y-117156746D01*
X143976896Y-117156746D01*
X143976898Y-117156747D01*
X144139350Y-117175051D01*
X144139354Y-117175051D01*
X144139358Y-117175051D01*
X144301809Y-117156747D01*
X144301810Y-117156746D01*
X144301815Y-117156746D01*
X144456129Y-117102749D01*
X144594558Y-117015768D01*
X144710162Y-116900164D01*
X144797143Y-116761735D01*
X144818746Y-116699996D01*
X145869909Y-116699996D01*
X145869909Y-116700003D01*
X145888212Y-116862455D01*
X145942210Y-117016774D01*
X145996232Y-117102749D01*
X146029192Y-117155204D01*
X146144796Y-117270808D01*
X146283225Y-117357789D01*
X146437539Y-117411786D01*
X146437542Y-117411786D01*
X146437544Y-117411787D01*
X146599996Y-117430091D01*
X146600000Y-117430091D01*
X146600004Y-117430091D01*
X146762453Y-117411787D01*
X146762453Y-117411786D01*
X146762461Y-117411786D01*
X146834012Y-117386748D01*
X146903789Y-117383188D01*
X146964417Y-117417917D01*
X146996644Y-117479910D01*
X146990239Y-117549486D01*
X146979960Y-117569761D01*
X146971501Y-117583223D01*
X146917502Y-117737544D01*
X146899199Y-117899996D01*
X146899199Y-117900003D01*
X146917502Y-118062455D01*
X146971500Y-118216774D01*
X147058482Y-118355204D01*
X147174086Y-118470808D01*
X147312515Y-118557789D01*
X147466829Y-118611786D01*
X147466832Y-118611786D01*
X147466834Y-118611787D01*
X147629286Y-118630091D01*
X147629290Y-118630091D01*
X147629294Y-118630091D01*
X147791745Y-118611787D01*
X147791746Y-118611786D01*
X147791751Y-118611786D01*
X147946065Y-118557789D01*
X148084494Y-118470808D01*
X148200098Y-118355204D01*
X148287079Y-118216775D01*
X148341076Y-118062461D01*
X148341077Y-118062455D01*
X148359381Y-117900003D01*
X148359381Y-117899996D01*
X148341077Y-117737544D01*
X148341076Y-117737542D01*
X148341076Y-117737539D01*
X148287079Y-117583225D01*
X148200098Y-117444796D01*
X148084494Y-117329192D01*
X147946064Y-117242210D01*
X147896869Y-117224996D01*
X150444909Y-117224996D01*
X150444909Y-117225003D01*
X150463212Y-117387455D01*
X150517210Y-117541774D01*
X150558690Y-117607789D01*
X150604192Y-117680204D01*
X150719796Y-117795808D01*
X150858225Y-117882789D01*
X151012539Y-117936786D01*
X151012542Y-117936786D01*
X151012544Y-117936787D01*
X151174996Y-117955091D01*
X151175000Y-117955091D01*
X151175004Y-117955091D01*
X151337455Y-117936787D01*
X151337456Y-117936786D01*
X151337461Y-117936786D01*
X151491775Y-117882789D01*
X151630204Y-117795808D01*
X151745808Y-117680204D01*
X151832789Y-117541775D01*
X151886786Y-117387461D01*
X151886787Y-117387455D01*
X151905091Y-117225003D01*
X151905091Y-117224996D01*
X151886787Y-117062544D01*
X151886786Y-117062542D01*
X151886786Y-117062539D01*
X151832789Y-116908225D01*
X151745808Y-116769796D01*
X151630204Y-116654192D01*
X151552072Y-116605098D01*
X151491774Y-116567210D01*
X151337455Y-116513212D01*
X151175004Y-116494909D01*
X151174996Y-116494909D01*
X151012544Y-116513212D01*
X150858225Y-116567210D01*
X150719795Y-116654192D01*
X150604192Y-116769795D01*
X150517210Y-116908225D01*
X150463212Y-117062544D01*
X150444909Y-117224996D01*
X147896869Y-117224996D01*
X147791745Y-117188212D01*
X147629294Y-117169909D01*
X147629286Y-117169909D01*
X147466833Y-117188212D01*
X147395277Y-117213250D01*
X147325498Y-117216811D01*
X147264871Y-117182081D01*
X147232645Y-117120087D01*
X147239051Y-117050512D01*
X147249328Y-117030239D01*
X147257789Y-117016775D01*
X147311786Y-116862461D01*
X147323135Y-116761735D01*
X147330091Y-116700003D01*
X147330091Y-116699996D01*
X147311787Y-116537544D01*
X147311786Y-116537542D01*
X147311786Y-116537539D01*
X147257789Y-116383225D01*
X147170808Y-116244796D01*
X147055204Y-116129192D01*
X146978636Y-116081081D01*
X146916774Y-116042210D01*
X146762455Y-115988212D01*
X146600004Y-115969909D01*
X146599996Y-115969909D01*
X146437544Y-115988212D01*
X146283225Y-116042210D01*
X146144795Y-116129192D01*
X146029192Y-116244795D01*
X145942210Y-116383225D01*
X145888212Y-116537544D01*
X145869909Y-116699996D01*
X144818746Y-116699996D01*
X144851140Y-116607421D01*
X144857342Y-116552377D01*
X144869445Y-116444963D01*
X144869445Y-116444956D01*
X144851141Y-116282504D01*
X144851140Y-116282502D01*
X144851140Y-116282499D01*
X144797143Y-116128185D01*
X144710162Y-115989756D01*
X144594558Y-115874152D01*
X144456128Y-115787170D01*
X144449915Y-115784996D01*
X149269909Y-115784996D01*
X149269909Y-115785003D01*
X149288212Y-115947455D01*
X149342210Y-116101774D01*
X149359438Y-116129192D01*
X149429192Y-116240204D01*
X149544796Y-116355808D01*
X149683225Y-116442789D01*
X149837539Y-116496786D01*
X149837542Y-116496786D01*
X149837544Y-116496787D01*
X149999996Y-116515091D01*
X150000000Y-116515091D01*
X150000004Y-116515091D01*
X150162455Y-116496787D01*
X150162456Y-116496786D01*
X150162461Y-116496786D01*
X150316775Y-116442789D01*
X150455204Y-116355808D01*
X150570808Y-116240204D01*
X150657789Y-116101775D01*
X150711786Y-115947461D01*
X150714118Y-115926768D01*
X150730091Y-115785003D01*
X150730091Y-115784996D01*
X150711787Y-115622544D01*
X150711786Y-115622542D01*
X150711786Y-115622539D01*
X150699134Y-115586384D01*
X150695572Y-115516608D01*
X150730301Y-115455980D01*
X150792294Y-115423753D01*
X150830060Y-115422211D01*
X150899997Y-115430091D01*
X150900000Y-115430091D01*
X150900004Y-115430091D01*
X151062455Y-115411787D01*
X151062456Y-115411786D01*
X151062461Y-115411786D01*
X151216775Y-115357789D01*
X151355204Y-115270808D01*
X151470808Y-115155204D01*
X151557789Y-115016775D01*
X151611786Y-114862461D01*
X151611787Y-114862455D01*
X151630091Y-114700003D01*
X151630091Y-114699996D01*
X151611787Y-114537544D01*
X151611786Y-114537542D01*
X151611786Y-114537539D01*
X151557789Y-114383225D01*
X151470808Y-114244796D01*
X151355204Y-114129192D01*
X151300643Y-114094909D01*
X151216774Y-114042210D01*
X151062455Y-113988212D01*
X150900004Y-113969909D01*
X150899996Y-113969909D01*
X150737544Y-113988212D01*
X150583225Y-114042210D01*
X150444795Y-114129192D01*
X150329192Y-114244795D01*
X150242210Y-114383225D01*
X150188212Y-114537544D01*
X150169909Y-114699996D01*
X150169909Y-114700003D01*
X150188212Y-114862455D01*
X150200865Y-114898614D01*
X150204426Y-114968393D01*
X150169697Y-115029020D01*
X150107704Y-115061247D01*
X150069941Y-115062788D01*
X150000005Y-115054909D01*
X149999996Y-115054909D01*
X149837544Y-115073212D01*
X149683225Y-115127210D01*
X149544795Y-115214192D01*
X149429192Y-115329795D01*
X149342210Y-115468225D01*
X149288212Y-115622544D01*
X149269909Y-115784996D01*
X144449915Y-115784996D01*
X144301809Y-115733172D01*
X144139358Y-115714869D01*
X144139350Y-115714869D01*
X143976898Y-115733172D01*
X143822579Y-115787170D01*
X143684149Y-115874152D01*
X143568546Y-115989755D01*
X143481564Y-116128185D01*
X143427566Y-116282504D01*
X143409263Y-116444956D01*
X139240405Y-116444956D01*
X139251507Y-116346419D01*
X139251507Y-116346412D01*
X139233203Y-116183960D01*
X139233202Y-116183958D01*
X139233202Y-116183955D01*
X139179205Y-116029641D01*
X139092224Y-115891212D01*
X138976620Y-115775608D01*
X138909084Y-115733172D01*
X138838190Y-115688626D01*
X138683871Y-115634628D01*
X138521420Y-115616325D01*
X138521416Y-115616325D01*
X138508791Y-115617747D01*
X138439970Y-115605690D01*
X138388592Y-115558339D01*
X138377870Y-115535480D01*
X138375862Y-115529742D01*
X138347096Y-115447532D01*
X138260115Y-115309103D01*
X138144511Y-115193499D01*
X138140426Y-115190932D01*
X138006081Y-115106517D01*
X137851762Y-115052519D01*
X137689311Y-115034216D01*
X137689303Y-115034216D01*
X137526851Y-115052519D01*
X137372532Y-115106517D01*
X137236010Y-115192300D01*
X137168773Y-115211300D01*
X137101938Y-115190932D01*
X137056724Y-115137664D01*
X137046818Y-115073421D01*
X137046842Y-115073214D01*
X137055091Y-115000000D01*
X137054400Y-114993871D01*
X137036787Y-114837544D01*
X137036786Y-114837542D01*
X137036786Y-114837539D01*
X136982789Y-114683225D01*
X136895808Y-114544796D01*
X136780204Y-114429192D01*
X136707048Y-114383225D01*
X136641774Y-114342210D01*
X136487455Y-114288212D01*
X136325004Y-114269909D01*
X136324997Y-114269909D01*
X136244531Y-114278975D01*
X136175709Y-114266920D01*
X136161217Y-114257710D01*
X136161100Y-114257897D01*
X136016774Y-114167210D01*
X135862455Y-114113212D01*
X135700004Y-114094909D01*
X135699996Y-114094909D01*
X135537544Y-114113212D01*
X135383225Y-114167210D01*
X135244795Y-114254192D01*
X135129192Y-114369795D01*
X135042210Y-114508225D01*
X134988212Y-114662544D01*
X134969909Y-114824996D01*
X126850500Y-114824996D01*
X126850500Y-113119899D01*
X130954500Y-113119899D01*
X130954500Y-113245101D01*
X130986905Y-113366036D01*
X131049505Y-113474464D01*
X131138036Y-113562995D01*
X131246464Y-113625595D01*
X131367399Y-113658000D01*
X131367401Y-113658000D01*
X131492599Y-113658000D01*
X131492601Y-113658000D01*
X131613536Y-113625595D01*
X131721964Y-113562995D01*
X131810495Y-113474464D01*
X131873095Y-113366036D01*
X131905500Y-113245101D01*
X131905500Y-113182839D01*
X132837066Y-113182839D01*
X132837066Y-113182846D01*
X132855369Y-113345298D01*
X132909367Y-113499617D01*
X132977404Y-113607896D01*
X132996349Y-113638047D01*
X133111953Y-113753651D01*
X133250382Y-113840632D01*
X133404696Y-113894629D01*
X133404699Y-113894629D01*
X133404701Y-113894630D01*
X133567153Y-113912934D01*
X133567157Y-113912934D01*
X133567161Y-113912934D01*
X133729612Y-113894630D01*
X133729613Y-113894629D01*
X133729618Y-113894629D01*
X133883932Y-113840632D01*
X134022361Y-113753651D01*
X134136462Y-113639549D01*
X134197781Y-113606067D01*
X134265091Y-113610191D01*
X134412539Y-113661786D01*
X134412542Y-113661787D01*
X134574996Y-113680091D01*
X134575000Y-113680091D01*
X134575004Y-113680091D01*
X134737455Y-113661787D01*
X134737456Y-113661786D01*
X134737461Y-113661786D01*
X134891775Y-113607789D01*
X135030204Y-113520808D01*
X135145808Y-113405204D01*
X135232789Y-113266775D01*
X135286786Y-113112461D01*
X135286787Y-113112455D01*
X135305091Y-112950003D01*
X135305091Y-112949996D01*
X135286787Y-112787544D01*
X135286786Y-112787542D01*
X135286786Y-112787539D01*
X135232789Y-112633225D01*
X135145808Y-112494796D01*
X135030204Y-112379192D01*
X134934486Y-112319048D01*
X134891774Y-112292210D01*
X134737455Y-112238212D01*
X134575004Y-112219909D01*
X134574996Y-112219909D01*
X134412544Y-112238212D01*
X134258225Y-112292210D01*
X134119797Y-112379191D01*
X134005698Y-112493290D01*
X133944375Y-112526774D01*
X133877063Y-112522650D01*
X133729612Y-112471055D01*
X133567161Y-112452752D01*
X133567153Y-112452752D01*
X133404701Y-112471055D01*
X133250382Y-112525053D01*
X133111952Y-112612035D01*
X132996349Y-112727638D01*
X132909367Y-112866068D01*
X132855369Y-113020387D01*
X132837066Y-113182839D01*
X131905500Y-113182839D01*
X131905500Y-113119899D01*
X131873095Y-112998964D01*
X131810495Y-112890536D01*
X131721964Y-112802005D01*
X131613536Y-112739405D01*
X131613537Y-112739405D01*
X131569622Y-112727638D01*
X131492601Y-112707000D01*
X131367399Y-112707000D01*
X131290378Y-112727638D01*
X131246463Y-112739405D01*
X131138037Y-112802004D01*
X131138034Y-112802006D01*
X131049506Y-112890534D01*
X131049504Y-112890537D01*
X130986905Y-112998963D01*
X130970702Y-113059431D01*
X130954500Y-113119899D01*
X126850500Y-113119899D01*
X126850500Y-112372285D01*
X126870185Y-112305246D01*
X126922989Y-112259491D01*
X126992147Y-112249547D01*
X127036497Y-112264896D01*
X127118216Y-112312077D01*
X127270943Y-112353000D01*
X127270945Y-112353000D01*
X128229055Y-112353000D01*
X128229057Y-112353000D01*
X128381784Y-112312077D01*
X128518716Y-112233020D01*
X128630520Y-112121216D01*
X128695668Y-112008374D01*
X128746233Y-111960161D01*
X128814840Y-111946937D01*
X128879705Y-111972905D01*
X128920234Y-112029818D01*
X128926274Y-112056492D01*
X128938213Y-112162455D01*
X128938214Y-112162460D01*
X128938215Y-112162461D01*
X128943900Y-112178709D01*
X128992211Y-112316774D01*
X129027091Y-112372285D01*
X129079193Y-112455204D01*
X129194797Y-112570808D01*
X129333226Y-112657789D01*
X129487540Y-112711786D01*
X129487543Y-112711786D01*
X129487545Y-112711787D01*
X129649997Y-112730091D01*
X129650001Y-112730091D01*
X129650005Y-112730091D01*
X129812456Y-112711787D01*
X129812457Y-112711786D01*
X129812462Y-112711786D01*
X129966776Y-112657789D01*
X130105205Y-112570808D01*
X130200145Y-112475867D01*
X130261464Y-112442385D01*
X130301704Y-112440331D01*
X130392301Y-112450538D01*
X130449998Y-112457040D01*
X130450000Y-112457040D01*
X130450004Y-112457040D01*
X130612455Y-112438736D01*
X130612456Y-112438735D01*
X130612461Y-112438735D01*
X130766775Y-112384738D01*
X130905204Y-112297757D01*
X130917789Y-112285170D01*
X130979109Y-112251683D01*
X131048801Y-112256664D01*
X131067473Y-112265460D01*
X131148216Y-112312077D01*
X131300943Y-112353000D01*
X131300945Y-112353000D01*
X132559055Y-112353000D01*
X132559057Y-112353000D01*
X132711784Y-112312077D01*
X132848716Y-112233020D01*
X132960520Y-112121216D01*
X133039577Y-111984284D01*
X133072470Y-111861521D01*
X133108834Y-111801865D01*
X133171680Y-111771335D01*
X133241056Y-111779629D01*
X133279925Y-111805937D01*
X133294796Y-111820808D01*
X133433225Y-111907789D01*
X133587539Y-111961786D01*
X133587542Y-111961786D01*
X133587544Y-111961787D01*
X133749996Y-111980091D01*
X133750000Y-111980091D01*
X133750004Y-111980091D01*
X133912455Y-111961787D01*
X133912456Y-111961786D01*
X133912461Y-111961786D01*
X134066775Y-111907789D01*
X134205204Y-111820808D01*
X134301016Y-111724996D01*
X136069909Y-111724996D01*
X136069909Y-111725003D01*
X136088212Y-111887455D01*
X136142210Y-112041774D01*
X136218043Y-112162461D01*
X136229192Y-112180204D01*
X136344796Y-112295808D01*
X136483225Y-112382789D01*
X136637539Y-112436786D01*
X136637542Y-112436786D01*
X136637544Y-112436787D01*
X136799996Y-112455091D01*
X136800000Y-112455091D01*
X136800004Y-112455091D01*
X136962455Y-112436787D01*
X136962456Y-112436786D01*
X136962461Y-112436786D01*
X137116775Y-112382789D01*
X137255204Y-112295808D01*
X137370808Y-112180204D01*
X137457789Y-112041775D01*
X137511786Y-111887461D01*
X137511787Y-111887455D01*
X137530091Y-111725003D01*
X137530091Y-111724996D01*
X137511787Y-111562544D01*
X137511786Y-111562542D01*
X137511786Y-111562539D01*
X137457789Y-111408225D01*
X137370808Y-111269796D01*
X137301008Y-111199996D01*
X141319909Y-111199996D01*
X141319909Y-111200003D01*
X141338212Y-111362455D01*
X141392210Y-111516774D01*
X141467619Y-111636786D01*
X141479192Y-111655204D01*
X141594796Y-111770808D01*
X141733225Y-111857789D01*
X141887539Y-111911786D01*
X141887542Y-111911786D01*
X141887544Y-111911787D01*
X142049996Y-111930091D01*
X142050000Y-111930091D01*
X142050004Y-111930091D01*
X142212455Y-111911787D01*
X142212456Y-111911786D01*
X142212461Y-111911786D01*
X142366775Y-111857789D01*
X142505204Y-111770808D01*
X142620808Y-111655204D01*
X142707789Y-111516775D01*
X142713660Y-111499996D01*
X145919909Y-111499996D01*
X145919909Y-111500003D01*
X145938212Y-111662455D01*
X145938213Y-111662460D01*
X145938214Y-111662461D01*
X145942057Y-111673443D01*
X145992210Y-111816774D01*
X146051911Y-111911787D01*
X146079192Y-111955204D01*
X146194796Y-112070808D01*
X146283229Y-112126374D01*
X146329520Y-112178709D01*
X146340168Y-112247762D01*
X146311793Y-112311611D01*
X146304940Y-112319048D01*
X146279191Y-112344797D01*
X146192210Y-112483225D01*
X146138212Y-112637544D01*
X146119909Y-112799996D01*
X146119909Y-112800003D01*
X146138212Y-112962455D01*
X146192210Y-113116774D01*
X146260215Y-113225003D01*
X146279192Y-113255204D01*
X146394796Y-113370808D01*
X146533225Y-113457789D01*
X146687539Y-113511786D01*
X146687542Y-113511786D01*
X146687544Y-113511787D01*
X146849996Y-113530091D01*
X146850000Y-113530091D01*
X146850004Y-113530091D01*
X147012455Y-113511787D01*
X147012456Y-113511786D01*
X147012461Y-113511786D01*
X147166775Y-113457789D01*
X147305204Y-113370808D01*
X147420808Y-113255204D01*
X147424080Y-113249996D01*
X151469909Y-113249996D01*
X151469909Y-113250003D01*
X151488212Y-113412455D01*
X151542210Y-113566774D01*
X151601911Y-113661787D01*
X151629192Y-113705204D01*
X151744796Y-113820808D01*
X151883225Y-113907789D01*
X152037539Y-113961786D01*
X152037542Y-113961786D01*
X152037544Y-113961787D01*
X152199996Y-113980091D01*
X152200000Y-113980091D01*
X152200004Y-113980091D01*
X152362455Y-113961787D01*
X152362456Y-113961786D01*
X152362461Y-113961786D01*
X152516775Y-113907789D01*
X152655204Y-113820808D01*
X152770808Y-113705204D01*
X152857789Y-113566775D01*
X152874831Y-113518070D01*
X152915551Y-113461294D01*
X152980503Y-113435545D01*
X153049065Y-113449000D01*
X153099469Y-113497386D01*
X153108914Y-113518066D01*
X153117210Y-113541774D01*
X153190240Y-113658000D01*
X153204192Y-113680204D01*
X153319796Y-113795808D01*
X153458225Y-113882789D01*
X153612539Y-113936786D01*
X153612542Y-113936786D01*
X153612544Y-113936787D01*
X153774996Y-113955091D01*
X153775000Y-113955091D01*
X153775004Y-113955091D01*
X153937455Y-113936787D01*
X153937456Y-113936786D01*
X153937461Y-113936786D01*
X154091775Y-113882789D01*
X154230204Y-113795808D01*
X154345808Y-113680204D01*
X154432789Y-113541775D01*
X154486786Y-113387461D01*
X154488581Y-113371533D01*
X154505091Y-113225003D01*
X154505091Y-113224996D01*
X154486787Y-113062544D01*
X154486786Y-113062542D01*
X154486786Y-113062539D01*
X154432789Y-112908225D01*
X154345808Y-112769796D01*
X154230204Y-112654192D01*
X154157031Y-112608214D01*
X154091774Y-112567210D01*
X153937455Y-112513212D01*
X153775004Y-112494909D01*
X153774996Y-112494909D01*
X153612544Y-112513212D01*
X153458225Y-112567210D01*
X153319795Y-112654192D01*
X153204192Y-112769795D01*
X153117211Y-112908224D01*
X153100168Y-112956931D01*
X153059446Y-113013707D01*
X152994493Y-113039454D01*
X152925931Y-113025998D01*
X152875529Y-112977610D01*
X152866084Y-112956930D01*
X152857789Y-112933225D01*
X152775338Y-112802006D01*
X152770808Y-112794796D01*
X152655204Y-112679192D01*
X152628179Y-112662211D01*
X152516774Y-112592210D01*
X152362455Y-112538212D01*
X152200004Y-112519909D01*
X152199996Y-112519909D01*
X152037544Y-112538212D01*
X151883225Y-112592210D01*
X151744795Y-112679192D01*
X151629192Y-112794795D01*
X151542210Y-112933225D01*
X151488212Y-113087544D01*
X151469909Y-113249996D01*
X147424080Y-113249996D01*
X147507789Y-113116775D01*
X147561786Y-112962461D01*
X147562409Y-112956931D01*
X147580091Y-112800003D01*
X147580091Y-112799996D01*
X147561787Y-112637544D01*
X147561786Y-112637542D01*
X147561786Y-112637539D01*
X147507789Y-112483225D01*
X147420808Y-112344796D01*
X147305204Y-112229192D01*
X147216770Y-112173625D01*
X147170479Y-112121290D01*
X147159831Y-112052236D01*
X147188206Y-111988388D01*
X147195038Y-111980973D01*
X147220808Y-111955204D01*
X147307789Y-111816775D01*
X147317707Y-111788429D01*
X147358426Y-111731656D01*
X147423378Y-111705907D01*
X147475703Y-111712344D01*
X147545557Y-111736787D01*
X147708011Y-111755091D01*
X147708015Y-111755091D01*
X147708019Y-111755091D01*
X147870470Y-111736787D01*
X147870471Y-111736786D01*
X147870476Y-111736786D01*
X148024790Y-111682789D01*
X148163219Y-111595808D01*
X148278823Y-111480204D01*
X148365804Y-111341775D01*
X148419801Y-111187461D01*
X148419802Y-111187455D01*
X148438106Y-111025003D01*
X148438106Y-111024996D01*
X148419802Y-110862544D01*
X148419801Y-110862542D01*
X148419801Y-110862539D01*
X148365804Y-110708225D01*
X148278823Y-110569796D01*
X148163219Y-110454192D01*
X148160327Y-110452375D01*
X148024789Y-110367210D01*
X147870470Y-110313212D01*
X147733353Y-110297763D01*
X147668939Y-110270696D01*
X147629384Y-110213101D01*
X147624017Y-110160659D01*
X147638106Y-110035618D01*
X147638106Y-110035612D01*
X147619802Y-109873158D01*
X147619040Y-109870979D01*
X147591358Y-109791872D01*
X147587797Y-109722095D01*
X147622525Y-109661468D01*
X147667444Y-109633878D01*
X147721972Y-109614798D01*
X147750235Y-109604909D01*
X147758054Y-109599996D01*
X147877416Y-109524996D01*
X150344909Y-109524996D01*
X150344909Y-109525003D01*
X150363212Y-109687455D01*
X150417210Y-109841774D01*
X150504192Y-109980204D01*
X150524351Y-110000363D01*
X150557836Y-110061686D01*
X150552852Y-110131378D01*
X150541665Y-110154015D01*
X150523310Y-110183227D01*
X150469312Y-110337544D01*
X150451009Y-110499996D01*
X150451009Y-110500003D01*
X150469312Y-110662455D01*
X150523310Y-110816774D01*
X150596482Y-110933225D01*
X150610292Y-110955204D01*
X150725896Y-111070808D01*
X150864325Y-111157789D01*
X151018639Y-111211786D01*
X151018642Y-111211786D01*
X151018644Y-111211787D01*
X151181096Y-111230091D01*
X151181100Y-111230091D01*
X151181104Y-111230091D01*
X151343554Y-111211787D01*
X151343554Y-111211786D01*
X151343561Y-111211786D01*
X151485457Y-111162133D01*
X151555235Y-111158573D01*
X151615863Y-111193302D01*
X151648090Y-111255295D01*
X151649631Y-111293059D01*
X151633478Y-111436426D01*
X151633478Y-111436433D01*
X151651781Y-111598885D01*
X151705779Y-111753204D01*
X151758771Y-111837539D01*
X151792761Y-111891634D01*
X151908365Y-112007238D01*
X152046794Y-112094219D01*
X152201108Y-112148216D01*
X152201111Y-112148216D01*
X152201113Y-112148217D01*
X152363565Y-112166521D01*
X152363569Y-112166521D01*
X152363573Y-112166521D01*
X152526024Y-112148217D01*
X152526025Y-112148216D01*
X152526030Y-112148216D01*
X152680344Y-112094219D01*
X152818773Y-112007238D01*
X152934377Y-111891634D01*
X153021358Y-111753205D01*
X153031553Y-111724066D01*
X153072272Y-111667292D01*
X153134709Y-111641800D01*
X153179217Y-111636786D01*
X153333531Y-111582789D01*
X153471960Y-111495808D01*
X153587564Y-111380204D01*
X153674545Y-111241775D01*
X153728542Y-111087461D01*
X153730126Y-111073402D01*
X153746847Y-110925003D01*
X153746847Y-110924996D01*
X153728543Y-110762544D01*
X153728542Y-110762542D01*
X153728542Y-110762539D01*
X153674545Y-110608225D01*
X153587564Y-110469796D01*
X153471960Y-110354192D01*
X153404473Y-110311787D01*
X153333530Y-110267210D01*
X153179211Y-110213212D01*
X153016760Y-110194909D01*
X153016752Y-110194909D01*
X152854300Y-110213212D01*
X152699981Y-110267210D01*
X152561551Y-110354192D01*
X152445948Y-110469795D01*
X152358968Y-110608222D01*
X152348770Y-110637366D01*
X152308047Y-110694141D01*
X152245613Y-110719629D01*
X152201108Y-110724644D01*
X152177834Y-110732788D01*
X152059211Y-110774295D01*
X151989432Y-110777856D01*
X151928805Y-110743127D01*
X151896578Y-110681133D01*
X151895037Y-110643369D01*
X151895714Y-110637366D01*
X151906435Y-110542210D01*
X151911191Y-110500002D01*
X151911191Y-110499996D01*
X151892887Y-110337544D01*
X151892886Y-110337542D01*
X151892886Y-110337539D01*
X151838889Y-110183225D01*
X151751908Y-110044796D01*
X151731748Y-110024636D01*
X151698263Y-109963313D01*
X151703247Y-109893621D01*
X151714430Y-109870992D01*
X151732789Y-109841775D01*
X151786373Y-109688639D01*
X151815731Y-109641916D01*
X151872292Y-109585357D01*
X151959273Y-109446928D01*
X152013270Y-109292614D01*
X152014345Y-109283072D01*
X152031575Y-109130156D01*
X152031575Y-109130149D01*
X152016910Y-108999996D01*
X152944909Y-108999996D01*
X152944909Y-109000003D01*
X152963212Y-109162455D01*
X153017210Y-109316774D01*
X153077492Y-109412711D01*
X153104192Y-109455204D01*
X153219796Y-109570808D01*
X153358225Y-109657789D01*
X153512539Y-109711786D01*
X153512542Y-109711786D01*
X153512544Y-109711787D01*
X153674996Y-109730091D01*
X153675000Y-109730091D01*
X153675004Y-109730091D01*
X153837455Y-109711787D01*
X153837456Y-109711786D01*
X153837461Y-109711786D01*
X153991775Y-109657789D01*
X154130204Y-109570808D01*
X154245808Y-109455204D01*
X154332789Y-109316775D01*
X154386786Y-109162461D01*
X154386787Y-109162455D01*
X154405091Y-109000003D01*
X154405091Y-108999996D01*
X154386787Y-108837544D01*
X154386786Y-108837542D01*
X154386786Y-108837539D01*
X154332789Y-108683225D01*
X154245808Y-108544796D01*
X154130204Y-108429192D01*
X154022685Y-108361633D01*
X153991774Y-108342210D01*
X153837455Y-108288212D01*
X153675004Y-108269909D01*
X153674996Y-108269909D01*
X153512544Y-108288212D01*
X153358225Y-108342210D01*
X153219795Y-108429192D01*
X153104192Y-108544795D01*
X153017210Y-108683225D01*
X152963212Y-108837544D01*
X152944909Y-108999996D01*
X152016910Y-108999996D01*
X152013271Y-108967697D01*
X152013270Y-108967695D01*
X152013270Y-108967692D01*
X151959273Y-108813378D01*
X151872292Y-108674949D01*
X151852232Y-108654889D01*
X151818747Y-108593566D01*
X151816694Y-108581107D01*
X151811786Y-108537539D01*
X151757789Y-108383225D01*
X151670808Y-108244796D01*
X151555204Y-108129192D01*
X151416774Y-108042210D01*
X151262455Y-107988212D01*
X151100004Y-107969909D01*
X151099996Y-107969909D01*
X150937544Y-107988212D01*
X150783225Y-108042210D01*
X150644795Y-108129192D01*
X150529192Y-108244795D01*
X150442210Y-108383225D01*
X150388212Y-108537544D01*
X150369909Y-108699996D01*
X150369909Y-108700003D01*
X150388212Y-108862455D01*
X150388213Y-108862460D01*
X150388214Y-108862461D01*
X150416120Y-108942211D01*
X150442212Y-109016778D01*
X150448406Y-109026637D01*
X150467405Y-109093874D01*
X150448406Y-109158577D01*
X150417210Y-109208226D01*
X150363212Y-109362544D01*
X150344909Y-109524996D01*
X147877416Y-109524996D01*
X147888666Y-109517927D01*
X148004270Y-109402323D01*
X148091251Y-109263894D01*
X148145248Y-109109580D01*
X148145249Y-109109574D01*
X148163553Y-108947122D01*
X148163553Y-108947115D01*
X148145249Y-108784663D01*
X148145248Y-108784661D01*
X148145248Y-108784658D01*
X148091251Y-108630344D01*
X148004270Y-108491915D01*
X147888666Y-108376311D01*
X147865306Y-108361633D01*
X147750236Y-108289329D01*
X147595917Y-108235331D01*
X147433466Y-108217028D01*
X147433458Y-108217028D01*
X147271006Y-108235331D01*
X147116687Y-108289329D01*
X146978257Y-108376311D01*
X146862654Y-108491914D01*
X146775672Y-108630344D01*
X146721674Y-108784663D01*
X146703371Y-108947115D01*
X146703371Y-108947122D01*
X146721674Y-109109575D01*
X146750117Y-109190862D01*
X146753678Y-109260641D01*
X146718948Y-109321268D01*
X146674030Y-109348856D01*
X146591242Y-109377825D01*
X146452810Y-109464808D01*
X146337207Y-109580411D01*
X146250225Y-109718841D01*
X146196227Y-109873160D01*
X146177924Y-110035612D01*
X146177924Y-110035619D01*
X146196227Y-110198071D01*
X146250225Y-110352390D01*
X146337207Y-110490820D01*
X146456936Y-110610549D01*
X146490421Y-110671872D01*
X146485437Y-110741564D01*
X146443565Y-110797497D01*
X146410211Y-110815271D01*
X146333226Y-110842209D01*
X146194795Y-110929192D01*
X146079192Y-111044795D01*
X145992210Y-111183225D01*
X145938212Y-111337544D01*
X145919909Y-111499996D01*
X142713660Y-111499996D01*
X142761786Y-111362461D01*
X142764117Y-111341774D01*
X142780091Y-111200003D01*
X142780091Y-111199996D01*
X142761787Y-111037544D01*
X142761786Y-111037542D01*
X142761786Y-111037539D01*
X142707789Y-110883225D01*
X142620808Y-110744796D01*
X142505204Y-110629192D01*
X142421804Y-110576788D01*
X142366774Y-110542210D01*
X142212455Y-110488212D01*
X142050004Y-110469909D01*
X142049996Y-110469909D01*
X141887544Y-110488212D01*
X141733225Y-110542210D01*
X141594795Y-110629192D01*
X141479192Y-110744795D01*
X141392210Y-110883225D01*
X141338212Y-111037544D01*
X141319909Y-111199996D01*
X137301008Y-111199996D01*
X137255204Y-111154192D01*
X137149135Y-111087544D01*
X137116774Y-111067210D01*
X136962455Y-111013212D01*
X136800004Y-110994909D01*
X136799996Y-110994909D01*
X136637544Y-111013212D01*
X136483225Y-111067210D01*
X136344795Y-111154192D01*
X136229192Y-111269795D01*
X136142210Y-111408225D01*
X136088212Y-111562544D01*
X136069909Y-111724996D01*
X134301016Y-111724996D01*
X134320808Y-111705204D01*
X134407789Y-111566775D01*
X134461786Y-111412461D01*
X134461787Y-111412455D01*
X134480091Y-111250003D01*
X134480091Y-111249996D01*
X134461787Y-111087542D01*
X134455354Y-111069159D01*
X134442169Y-111031479D01*
X134438608Y-110961701D01*
X134473336Y-110901074D01*
X134535330Y-110868846D01*
X134545328Y-110867305D01*
X134658184Y-110854589D01*
X134658185Y-110854588D01*
X134658190Y-110854588D01*
X134812504Y-110800591D01*
X134950933Y-110713610D01*
X134968513Y-110696030D01*
X135029835Y-110662543D01*
X135099527Y-110667526D01*
X135122167Y-110678715D01*
X135145546Y-110693405D01*
X135182985Y-110716930D01*
X135208225Y-110732789D01*
X135362539Y-110786786D01*
X135362542Y-110786786D01*
X135362544Y-110786787D01*
X135524996Y-110805091D01*
X135525000Y-110805091D01*
X135525004Y-110805091D01*
X135687455Y-110786787D01*
X135687456Y-110786786D01*
X135687461Y-110786786D01*
X135841775Y-110732789D01*
X135980204Y-110645808D01*
X136095808Y-110530204D01*
X136182789Y-110391775D01*
X136236786Y-110237461D01*
X136236787Y-110237455D01*
X136255091Y-110075003D01*
X136255091Y-110074996D01*
X136236787Y-109912544D01*
X136236786Y-109912542D01*
X136236786Y-109912539D01*
X136182789Y-109758225D01*
X136095808Y-109619796D01*
X136076008Y-109599996D01*
X136544909Y-109599996D01*
X136544909Y-109600003D01*
X136563212Y-109762455D01*
X136617210Y-109916774D01*
X136617211Y-109916775D01*
X136704192Y-110055204D01*
X136819796Y-110170808D01*
X136958225Y-110257789D01*
X137112539Y-110311786D01*
X137112542Y-110311786D01*
X137112544Y-110311787D01*
X137274996Y-110330091D01*
X137275000Y-110330091D01*
X137275004Y-110330091D01*
X137437455Y-110311787D01*
X137437456Y-110311786D01*
X137437461Y-110311786D01*
X137591775Y-110257789D01*
X137730204Y-110170808D01*
X137845808Y-110055204D01*
X137932789Y-109916775D01*
X137986786Y-109762461D01*
X137986787Y-109762455D01*
X138005091Y-109600003D01*
X138005091Y-109599996D01*
X137986787Y-109437544D01*
X137986786Y-109437542D01*
X137986786Y-109437539D01*
X137932789Y-109283225D01*
X137845808Y-109144796D01*
X137730204Y-109029192D01*
X137683750Y-109000003D01*
X137591774Y-108942210D01*
X137437455Y-108888212D01*
X137275004Y-108869909D01*
X137274996Y-108869909D01*
X137112544Y-108888212D01*
X136958225Y-108942210D01*
X136819795Y-109029192D01*
X136704192Y-109144795D01*
X136617210Y-109283225D01*
X136563212Y-109437544D01*
X136544909Y-109599996D01*
X136076008Y-109599996D01*
X135980204Y-109504192D01*
X135916293Y-109464034D01*
X135841774Y-109417210D01*
X135687455Y-109363212D01*
X135525004Y-109344909D01*
X135524996Y-109344909D01*
X135362544Y-109363212D01*
X135208225Y-109417210D01*
X135069792Y-109504194D01*
X135052211Y-109521775D01*
X134990887Y-109555259D01*
X134921196Y-109550273D01*
X134898559Y-109539085D01*
X134818701Y-109488906D01*
X134772410Y-109436571D01*
X134761763Y-109367518D01*
X134790138Y-109303670D01*
X134843721Y-109266871D01*
X134903668Y-109245895D01*
X134903670Y-109245894D01*
X135042099Y-109158913D01*
X135157703Y-109043309D01*
X135244684Y-108904880D01*
X135298681Y-108750566D01*
X135304378Y-108700003D01*
X135316986Y-108588108D01*
X135316986Y-108588101D01*
X135298682Y-108425647D01*
X135289711Y-108400009D01*
X135250869Y-108289008D01*
X135247308Y-108219231D01*
X135250860Y-108207131D01*
X135269024Y-108155223D01*
X135271957Y-108129192D01*
X135287329Y-107992765D01*
X135287329Y-107992758D01*
X135269025Y-107830306D01*
X135269024Y-107830304D01*
X135269024Y-107830301D01*
X135215027Y-107675987D01*
X135128046Y-107537558D01*
X135012442Y-107421954D01*
X134970831Y-107395808D01*
X134874012Y-107334972D01*
X134719693Y-107280974D01*
X134557242Y-107262671D01*
X134557234Y-107262671D01*
X134394782Y-107280974D01*
X134240463Y-107334972D01*
X134102033Y-107421954D01*
X133986430Y-107537557D01*
X133899448Y-107675987D01*
X133845450Y-107830306D01*
X133827147Y-107992758D01*
X133827147Y-107992765D01*
X133845450Y-108155216D01*
X133845451Y-108155221D01*
X133845452Y-108155223D01*
X133873483Y-108235331D01*
X133893262Y-108291855D01*
X133896823Y-108361633D01*
X133893262Y-108373762D01*
X133875108Y-108425644D01*
X133875108Y-108425645D01*
X133856804Y-108588101D01*
X133856804Y-108588108D01*
X133875107Y-108750560D01*
X133929105Y-108904879D01*
X133999416Y-109016778D01*
X134016087Y-109043309D01*
X134131691Y-109158913D01*
X134210170Y-109208225D01*
X134263921Y-109241999D01*
X134310212Y-109294334D01*
X134320860Y-109363388D01*
X134292485Y-109427236D01*
X134238905Y-109464034D01*
X134178955Y-109485011D01*
X134040526Y-109571993D01*
X133956287Y-109656232D01*
X133894963Y-109689716D01*
X133825272Y-109684732D01*
X133776254Y-109649197D01*
X133775732Y-109649720D01*
X133772452Y-109646440D01*
X133771664Y-109645869D01*
X133770809Y-109644797D01*
X133655204Y-109529192D01*
X133516774Y-109442210D01*
X133362455Y-109388212D01*
X133200004Y-109369909D01*
X133199996Y-109369909D01*
X133037544Y-109388212D01*
X132883225Y-109442210D01*
X132744795Y-109529192D01*
X132629192Y-109644795D01*
X132542210Y-109783225D01*
X132488212Y-109937544D01*
X132469909Y-110099996D01*
X132469909Y-110100003D01*
X132488212Y-110262455D01*
X132542210Y-110416774D01*
X132569105Y-110459577D01*
X132629192Y-110555204D01*
X132744796Y-110670808D01*
X132883225Y-110757789D01*
X132883227Y-110757790D01*
X133007063Y-110801123D01*
X133063839Y-110841844D01*
X133089586Y-110906797D01*
X133083150Y-110959118D01*
X133038212Y-111087544D01*
X133028331Y-111175241D01*
X133001264Y-111239655D01*
X132943669Y-111279210D01*
X132873832Y-111281347D01*
X132843111Y-111268744D01*
X132711786Y-111192924D01*
X132711785Y-111192923D01*
X132711784Y-111192923D01*
X132559057Y-111152000D01*
X131300943Y-111152000D01*
X131148219Y-111192922D01*
X131148217Y-111192922D01*
X131148216Y-111192923D01*
X131148213Y-111192924D01*
X131148210Y-111192926D01*
X131099867Y-111220835D01*
X131031967Y-111237305D01*
X130965940Y-111214451D01*
X130950190Y-111201127D01*
X130905204Y-111156141D01*
X130766774Y-111069159D01*
X130612455Y-111015161D01*
X130450004Y-110996858D01*
X130449996Y-110996858D01*
X130287544Y-111015161D01*
X130133225Y-111069159D01*
X129994797Y-111156140D01*
X129899858Y-111251079D01*
X129838534Y-111284563D01*
X129798294Y-111286617D01*
X129650005Y-111269909D01*
X129649997Y-111269909D01*
X129487545Y-111288212D01*
X129333226Y-111342210D01*
X129194796Y-111429192D01*
X129079193Y-111544795D01*
X128992209Y-111683228D01*
X128989518Y-111690920D01*
X128948795Y-111747695D01*
X128883842Y-111773440D01*
X128815280Y-111759982D01*
X128764879Y-111711593D01*
X128754487Y-111680788D01*
X128752603Y-111681293D01*
X128750500Y-111673443D01*
X128709577Y-111520716D01*
X128707301Y-111516774D01*
X128630524Y-111383790D01*
X128630518Y-111383782D01*
X128518717Y-111271981D01*
X128518709Y-111271975D01*
X128381790Y-111192926D01*
X128381786Y-111192924D01*
X128381784Y-111192923D01*
X128229057Y-111152000D01*
X127270943Y-111152000D01*
X127118216Y-111192923D01*
X127118215Y-111192923D01*
X127048762Y-111233021D01*
X127041344Y-111237305D01*
X127036499Y-111240102D01*
X126968599Y-111256574D01*
X126902572Y-111233721D01*
X126859382Y-111178799D01*
X126850500Y-111132714D01*
X126850500Y-106824996D01*
X136644909Y-106824996D01*
X136644909Y-106825003D01*
X136663212Y-106987455D01*
X136717210Y-107141774D01*
X136742074Y-107181344D01*
X136804192Y-107280204D01*
X136919796Y-107395808D01*
X137058225Y-107482789D01*
X137212539Y-107536786D01*
X137212542Y-107536786D01*
X137212544Y-107536787D01*
X137374996Y-107555091D01*
X137375000Y-107555091D01*
X137375004Y-107555091D01*
X137537455Y-107536787D01*
X137537456Y-107536786D01*
X137537461Y-107536786D01*
X137691775Y-107482789D01*
X137830204Y-107395808D01*
X137945808Y-107280204D01*
X138032789Y-107141775D01*
X138086786Y-106987461D01*
X138086787Y-106987455D01*
X138105091Y-106825003D01*
X138105091Y-106824996D01*
X138086787Y-106662544D01*
X138086786Y-106662542D01*
X138086786Y-106662539D01*
X138032789Y-106508225D01*
X137945808Y-106369796D01*
X137830204Y-106254192D01*
X137823537Y-106250003D01*
X137691774Y-106167210D01*
X137537455Y-106113212D01*
X137375004Y-106094909D01*
X137374996Y-106094909D01*
X137212544Y-106113212D01*
X137058225Y-106167210D01*
X136919795Y-106254192D01*
X136804192Y-106369795D01*
X136717210Y-106508225D01*
X136663212Y-106662544D01*
X136644909Y-106824996D01*
X126850500Y-106824996D01*
X126850500Y-105724996D01*
X138519909Y-105724996D01*
X138519909Y-105725003D01*
X138538212Y-105887455D01*
X138592210Y-106041774D01*
X138638046Y-106114721D01*
X138679192Y-106180204D01*
X138794796Y-106295808D01*
X138933225Y-106382789D01*
X139087539Y-106436786D01*
X139087542Y-106436786D01*
X139087544Y-106436787D01*
X139249996Y-106455091D01*
X139250000Y-106455091D01*
X139250004Y-106455091D01*
X139412455Y-106436787D01*
X139412456Y-106436786D01*
X139412461Y-106436786D01*
X139566775Y-106382789D01*
X139705204Y-106295808D01*
X139820808Y-106180204D01*
X139907789Y-106041775D01*
X139961786Y-105887461D01*
X139964247Y-105865619D01*
X139980091Y-105725003D01*
X139980091Y-105724996D01*
X139961787Y-105562544D01*
X139961786Y-105562542D01*
X139961786Y-105562539D01*
X139907789Y-105408225D01*
X139820808Y-105269796D01*
X139705204Y-105154192D01*
X139627398Y-105105303D01*
X139566774Y-105067210D01*
X139412455Y-105013212D01*
X139250004Y-104994909D01*
X139249996Y-104994909D01*
X139087544Y-105013212D01*
X138933225Y-105067210D01*
X138794795Y-105154192D01*
X138679192Y-105269795D01*
X138592210Y-105408225D01*
X138538212Y-105562544D01*
X138519909Y-105724996D01*
X126850500Y-105724996D01*
X126850500Y-104853787D01*
X128991118Y-104853787D01*
X128991118Y-104853794D01*
X129009421Y-105016246D01*
X129063419Y-105170565D01*
X129133463Y-105282039D01*
X129150401Y-105308995D01*
X129266005Y-105424599D01*
X129404434Y-105511580D01*
X129558748Y-105565577D01*
X129558751Y-105565577D01*
X129558753Y-105565578D01*
X129721205Y-105583882D01*
X129721209Y-105583882D01*
X129721213Y-105583882D01*
X129883664Y-105565578D01*
X129883665Y-105565577D01*
X129883670Y-105565577D01*
X130037984Y-105511580D01*
X130176413Y-105424599D01*
X130292017Y-105308995D01*
X130378998Y-105170566D01*
X130432995Y-105016252D01*
X130432996Y-105016246D01*
X130451300Y-104853794D01*
X130451300Y-104853787D01*
X130432996Y-104691335D01*
X130432995Y-104691333D01*
X130432995Y-104691330D01*
X130378998Y-104537016D01*
X130292017Y-104398587D01*
X130176413Y-104282983D01*
X130151312Y-104267211D01*
X130037983Y-104196001D01*
X129883664Y-104142003D01*
X129721213Y-104123700D01*
X129721205Y-104123700D01*
X129558753Y-104142003D01*
X129404434Y-104196001D01*
X129266004Y-104282983D01*
X129150401Y-104398586D01*
X129063419Y-104537016D01*
X129009421Y-104691335D01*
X128991118Y-104853787D01*
X126850500Y-104853787D01*
X126850500Y-101224996D01*
X127494909Y-101224996D01*
X127494909Y-101225003D01*
X127513212Y-101387455D01*
X127513213Y-101387460D01*
X127513214Y-101387461D01*
X127520379Y-101407939D01*
X127567210Y-101541774D01*
X127567211Y-101541775D01*
X127654192Y-101680204D01*
X127769796Y-101795808D01*
X127908225Y-101882789D01*
X128062539Y-101936786D01*
X128062542Y-101936786D01*
X128062544Y-101936787D01*
X128224996Y-101955091D01*
X128225000Y-101955091D01*
X128225004Y-101955091D01*
X128387455Y-101936787D01*
X128387456Y-101936786D01*
X128387461Y-101936786D01*
X128541775Y-101882789D01*
X128680204Y-101795808D01*
X128795808Y-101680204D01*
X128882789Y-101541775D01*
X128936786Y-101387461D01*
X128945228Y-101312539D01*
X128955091Y-101225003D01*
X128955091Y-101224996D01*
X128936787Y-101062544D01*
X128936786Y-101062542D01*
X128936786Y-101062539D01*
X128882789Y-100908225D01*
X128795808Y-100769796D01*
X128680204Y-100654192D01*
X128541774Y-100567210D01*
X128387455Y-100513212D01*
X128225004Y-100494909D01*
X128224996Y-100494909D01*
X128062544Y-100513212D01*
X127908225Y-100567210D01*
X127769795Y-100654192D01*
X127654192Y-100769795D01*
X127567210Y-100908225D01*
X127513212Y-101062544D01*
X127494909Y-101224996D01*
X126850500Y-101224996D01*
X126850500Y-98624996D01*
X133269909Y-98624996D01*
X133269909Y-98625003D01*
X133288212Y-98787455D01*
X133342210Y-98941774D01*
X133342211Y-98941775D01*
X133429192Y-99080204D01*
X133544796Y-99195808D01*
X133683225Y-99282789D01*
X133837539Y-99336786D01*
X133837542Y-99336786D01*
X133837544Y-99336787D01*
X133999996Y-99355091D01*
X134000000Y-99355091D01*
X134000004Y-99355091D01*
X134162455Y-99336787D01*
X134162456Y-99336786D01*
X134162461Y-99336786D01*
X134316775Y-99282789D01*
X134455204Y-99195808D01*
X134570808Y-99080204D01*
X134657789Y-98941775D01*
X134711786Y-98787461D01*
X134730091Y-98625000D01*
X134711786Y-98462539D01*
X134657789Y-98308225D01*
X134570808Y-98169796D01*
X134455204Y-98054192D01*
X134316774Y-97967210D01*
X134162455Y-97913212D01*
X134000004Y-97894909D01*
X133999996Y-97894909D01*
X133837544Y-97913212D01*
X133683225Y-97967210D01*
X133544795Y-98054192D01*
X133429192Y-98169795D01*
X133342210Y-98308225D01*
X133288212Y-98462544D01*
X133269909Y-98624996D01*
X126850500Y-98624996D01*
X126850500Y-94154500D01*
X126870185Y-94087461D01*
X126922989Y-94041706D01*
X126974500Y-94030500D01*
X134876000Y-94030500D01*
X134943039Y-94050185D01*
G37*
G04 #@! TD.AperFunction*
M02*
