G04 #@! TF.GenerationSoftware,KiCad,Pcbnew,8.0.2*
G04 #@! TF.CreationDate,2025-03-06T10:30:39-07:00*
G04 #@! TF.ProjectId,kicad,6b696361-642e-46b6-9963-61645f706362,4*
G04 #@! TF.SameCoordinates,Original*
G04 #@! TF.FileFunction,Copper,L2,Inr*
G04 #@! TF.FilePolarity,Positive*
%FSLAX46Y46*%
G04 Gerber Fmt 4.6, Leading zero omitted, Abs format (unit mm)*
G04 Created by KiCad (PCBNEW 8.0.2) date 2025-03-06 10:30:39*
%MOMM*%
%LPD*%
G01*
G04 APERTURE LIST*
G04 Aperture macros list*
%AMRoundRect*
0 Rectangle with rounded corners*
0 $1 Rounding radius*
0 $2 $3 $4 $5 $6 $7 $8 $9 X,Y pos of 4 corners*
0 Add a 4 corners polygon primitive as box body*
4,1,4,$2,$3,$4,$5,$6,$7,$8,$9,$2,$3,0*
0 Add four circle primitives for the rounded corners*
1,1,$1+$1,$2,$3*
1,1,$1+$1,$4,$5*
1,1,$1+$1,$6,$7*
1,1,$1+$1,$8,$9*
0 Add four rect primitives between the rounded corners*
20,1,$1+$1,$2,$3,$4,$5,0*
20,1,$1+$1,$4,$5,$6,$7,0*
20,1,$1+$1,$6,$7,$8,$9,0*
20,1,$1+$1,$8,$9,$2,$3,0*%
G04 Aperture macros list end*
G04 #@! TA.AperFunction,ComponentPad*
%ADD10RoundRect,0.104167X-0.295833X0.145833X-0.295833X-0.145833X0.295833X-0.145833X0.295833X0.145833X0*%
G04 #@! TD*
G04 #@! TA.AperFunction,ComponentPad*
%ADD11O,0.800000X0.500000*%
G04 #@! TD*
G04 #@! TA.AperFunction,ComponentPad*
%ADD12O,2.100000X1.000000*%
G04 #@! TD*
G04 #@! TA.AperFunction,ComponentPad*
%ADD13O,1.800000X1.000000*%
G04 #@! TD*
G04 #@! TA.AperFunction,ComponentPad*
%ADD14RoundRect,0.250000X-0.625000X0.350000X-0.625000X-0.350000X0.625000X-0.350000X0.625000X0.350000X0*%
G04 #@! TD*
G04 #@! TA.AperFunction,ComponentPad*
%ADD15O,1.750000X1.200000*%
G04 #@! TD*
G04 #@! TA.AperFunction,ComponentPad*
%ADD16R,0.900000X0.500000*%
G04 #@! TD*
G04 #@! TA.AperFunction,ComponentPad*
%ADD17C,1.397000*%
G04 #@! TD*
G04 #@! TA.AperFunction,ViaPad*
%ADD18C,0.250000*%
G04 #@! TD*
G04 #@! TA.AperFunction,ViaPad*
%ADD19C,0.450000*%
G04 #@! TD*
G04 APERTURE END LIST*
D10*
X134000000Y-101600000D03*
D11*
X134000000Y-102616000D03*
D12*
X131930000Y-111752500D03*
D13*
X127750000Y-111752500D03*
D12*
X131930000Y-120392500D03*
D13*
X127750000Y-120392500D03*
D14*
X156500000Y-108000000D03*
D15*
X156500000Y-110000000D03*
D16*
X136150000Y-99625000D03*
D17*
X156750000Y-117566020D03*
X156750000Y-114568820D03*
D18*
X151485000Y-109000000D03*
D19*
X157300000Y-128400000D03*
X127800000Y-99100000D03*
X157600000Y-96500000D03*
X156700000Y-120800000D03*
D18*
X139200000Y-122900000D03*
X150100000Y-116200000D03*
D19*
X135300000Y-112900000D03*
X136100000Y-102100000D03*
X132000000Y-121300000D03*
X134000000Y-98600000D03*
X142100000Y-111200000D03*
X137500000Y-101575000D03*
X134600000Y-121400000D03*
D18*
X137900000Y-118900000D03*
X135200000Y-110000000D03*
X151200000Y-113950003D03*
D19*
X135200000Y-118000000D03*
D18*
X150656059Y-104256059D03*
D19*
X157600000Y-99200000D03*
D18*
X137500000Y-107000000D03*
X154100000Y-109900000D03*
X153615284Y-103421423D03*
X140300000Y-121400000D03*
X152500000Y-104200000D03*
D19*
X152700000Y-129800000D03*
X141100000Y-101700000D03*
D18*
X150000000Y-109000000D03*
D19*
X132300000Y-129800000D03*
X134500000Y-123900000D03*
D18*
X151100000Y-108800000D03*
X144700000Y-122800000D03*
D19*
X143500000Y-102200000D03*
D18*
X136000000Y-108000000D03*
X146600000Y-103500000D03*
X156917745Y-104717745D03*
X138900000Y-118900000D03*
D19*
X156800000Y-120100000D03*
X157300000Y-123200000D03*
D18*
X147958015Y-111400000D03*
X151300000Y-123600000D03*
X152300000Y-123600000D03*
X151200000Y-109400000D03*
X139900000Y-118900000D03*
X150300000Y-123600000D03*
D19*
X133500000Y-129800000D03*
X133700000Y-121400000D03*
D18*
X139650000Y-106500000D03*
X154000000Y-113200000D03*
D19*
X127800000Y-128100000D03*
D18*
X136900000Y-118900000D03*
D19*
X152950000Y-116900000D03*
D18*
X154100000Y-102000000D03*
X148500000Y-104500000D03*
D19*
X135600000Y-102838559D03*
X127700000Y-96400000D03*
X135500000Y-115200000D03*
X127600000Y-123000000D03*
X151500000Y-129700000D03*
D18*
X133300000Y-119100000D03*
X152100000Y-104200000D03*
D19*
X135900000Y-113500000D03*
X153850000Y-118700000D03*
X133392894Y-113150000D03*
D18*
X136300000Y-118900000D03*
X150685000Y-113100000D03*
X153600000Y-110937200D03*
X150050000Y-106305000D03*
D19*
X129531931Y-105018069D03*
X133650000Y-111350000D03*
X133150000Y-110000000D03*
D18*
X145600000Y-104800000D03*
X149300000Y-123100000D03*
X147700000Y-117900000D03*
X147400000Y-106600000D03*
X145200000Y-118500000D03*
X147221113Y-106242227D03*
X143300000Y-120900000D03*
X147200000Y-105800000D03*
X148800000Y-123100000D03*
X145300000Y-105800000D03*
X142719998Y-121500000D03*
X147200000Y-105399997D03*
X146558016Y-108818801D03*
X139000000Y-102750000D03*
X133800002Y-104235686D03*
X137150000Y-104500000D03*
X147333462Y-110187702D03*
X146708383Y-109189465D03*
X134457154Y-104892840D03*
X136736382Y-104677265D03*
X137343233Y-111756767D03*
X137400000Y-110400000D03*
X137399175Y-111229326D03*
X147908015Y-107775000D03*
X152900000Y-119300000D03*
X157745000Y-102700000D03*
X151500000Y-112100000D03*
X137375001Y-110825454D03*
D19*
X138586081Y-102387821D03*
X127600000Y-102800000D03*
X156800000Y-112100000D03*
X152950000Y-116000000D03*
X152400000Y-126200000D03*
X132200000Y-99300000D03*
X130400000Y-125800000D03*
D18*
X146700000Y-110700000D03*
X155300000Y-120800000D03*
X141584579Y-106164480D03*
D19*
X130400000Y-125100000D03*
X154100000Y-121200000D03*
D18*
X154500000Y-112000000D03*
X147908015Y-112707670D03*
X142900000Y-119600000D03*
X143600000Y-104600000D03*
X144100000Y-119600000D03*
D19*
X133300000Y-100600000D03*
D18*
X152407843Y-102792157D03*
X140800000Y-122800000D03*
X138800000Y-106400000D03*
X140049999Y-115761971D03*
X146900000Y-114600000D03*
D19*
X133600000Y-122300000D03*
D18*
X141200000Y-122900000D03*
D19*
X153500000Y-101500000D03*
D18*
X150500000Y-102800000D03*
D19*
X134406067Y-108477989D03*
X134556931Y-110043069D03*
D18*
X142350000Y-100400000D03*
X135800000Y-100500000D03*
X130781196Y-105418804D03*
X145916431Y-103435687D03*
D19*
X133800000Y-109850000D03*
X136535485Y-111314515D03*
D18*
X154050000Y-107450000D03*
X146558015Y-111600000D03*
X147908015Y-109288114D03*
X151100000Y-108000000D03*
X151570721Y-106879279D03*
X146681714Y-101368513D03*
X137800000Y-115400000D03*
X153709889Y-110552588D03*
X152400000Y-111300000D03*
X147900000Y-113400000D03*
X150221881Y-113732822D03*
X150685000Y-110915002D03*
X153600000Y-109250000D03*
X151485000Y-110650000D03*
X148800000Y-101600000D03*
X140300000Y-116500000D03*
X146100000Y-115800000D03*
X152200000Y-114600000D03*
X148200000Y-102000000D03*
X153500000Y-111800000D03*
X132832843Y-123817157D03*
X130450000Y-112450000D03*
X135900000Y-109300000D03*
X133017157Y-125132843D03*
X136450000Y-109600000D03*
X129650000Y-119000000D03*
X146985086Y-128649500D03*
X131232843Y-121567157D03*
X147826059Y-129076059D03*
X129650001Y-111770710D03*
X144200000Y-115850000D03*
X150279657Y-114429657D03*
X152313173Y-113913173D03*
X147408015Y-113750000D03*
X149900000Y-106900000D03*
X149900000Y-110958710D03*
G04 #@! TA.AperFunction,Conductor*
G36*
X134943039Y-94050185D02*
G01*
X134988794Y-94102989D01*
X135000000Y-94154500D01*
X135000000Y-99300000D01*
X135075500Y-99300000D01*
X135142539Y-99319685D01*
X135188294Y-99372489D01*
X135199500Y-99424000D01*
X135199500Y-99922870D01*
X135199501Y-99922876D01*
X135205908Y-99982483D01*
X135250566Y-100102217D01*
X135255550Y-100171909D01*
X135244185Y-100203168D01*
X135242079Y-100207180D01*
X135199749Y-100318797D01*
X135188215Y-100349209D01*
X135169906Y-100500000D01*
X135188215Y-100650791D01*
X135242079Y-100792819D01*
X135328368Y-100917830D01*
X135442066Y-101018557D01*
X135576566Y-101089148D01*
X135650308Y-101107324D01*
X135724050Y-101125500D01*
X135724051Y-101125500D01*
X135875950Y-101125500D01*
X135925110Y-101113382D01*
X136023434Y-101089148D01*
X136157934Y-101018557D01*
X136271632Y-100917830D01*
X136357921Y-100792819D01*
X136411785Y-100650791D01*
X136430094Y-100500000D01*
X136430094Y-100499999D01*
X136430094Y-100499499D01*
X136430198Y-100499144D01*
X136430998Y-100492554D01*
X136432094Y-100492687D01*
X136449779Y-100432460D01*
X136487240Y-100400000D01*
X141719906Y-100400000D01*
X141738215Y-100550791D01*
X141792079Y-100692819D01*
X141878368Y-100817830D01*
X141992066Y-100918557D01*
X142126566Y-100989148D01*
X142200308Y-101007324D01*
X142274050Y-101025500D01*
X142274051Y-101025500D01*
X142425950Y-101025500D01*
X142485382Y-101010851D01*
X142573434Y-100989148D01*
X142707934Y-100918557D01*
X142821632Y-100817830D01*
X142907921Y-100692819D01*
X142961785Y-100550791D01*
X142980094Y-100400000D01*
X142961785Y-100249209D01*
X142907921Y-100107181D01*
X142821632Y-99982170D01*
X142707934Y-99881443D01*
X142573434Y-99810852D01*
X142573433Y-99810851D01*
X142573432Y-99810851D01*
X142425950Y-99774500D01*
X142425949Y-99774500D01*
X142274051Y-99774500D01*
X142274050Y-99774500D01*
X142126567Y-99810851D01*
X141992067Y-99881442D01*
X141878367Y-99982171D01*
X141792080Y-100107179D01*
X141792079Y-100107180D01*
X141777814Y-100144796D01*
X141738215Y-100249209D01*
X141719906Y-100400000D01*
X136487240Y-100400000D01*
X136502583Y-100386705D01*
X136554094Y-100375499D01*
X136647871Y-100375499D01*
X136647872Y-100375499D01*
X136707483Y-100369091D01*
X136842331Y-100318796D01*
X136957546Y-100232546D01*
X137043796Y-100117331D01*
X137094091Y-99982483D01*
X137100500Y-99922873D01*
X137100499Y-99423999D01*
X137120183Y-99356961D01*
X137172987Y-99311206D01*
X137224499Y-99300000D01*
X150600000Y-99300000D01*
X150600000Y-94154500D01*
X150619685Y-94087461D01*
X150672489Y-94041706D01*
X150724000Y-94030500D01*
X157965500Y-94030500D01*
X158032539Y-94050185D01*
X158078294Y-94102989D01*
X158089500Y-94154500D01*
X158089500Y-101982417D01*
X158069815Y-102049456D01*
X158017011Y-102095211D01*
X157947853Y-102105155D01*
X157935825Y-102102814D01*
X157820950Y-102074500D01*
X157820949Y-102074500D01*
X157669051Y-102074500D01*
X157669050Y-102074500D01*
X157521567Y-102110851D01*
X157387067Y-102181442D01*
X157273367Y-102282171D01*
X157187080Y-102407179D01*
X157187079Y-102407180D01*
X157144840Y-102518557D01*
X157133215Y-102549209D01*
X157114906Y-102700000D01*
X157133215Y-102850791D01*
X157187079Y-102992819D01*
X157273368Y-103117830D01*
X157387066Y-103218557D01*
X157521566Y-103289148D01*
X157566625Y-103300254D01*
X157669050Y-103325500D01*
X157669051Y-103325500D01*
X157820948Y-103325500D01*
X157820949Y-103325500D01*
X157935826Y-103297185D01*
X158005626Y-103300254D01*
X158062689Y-103340573D01*
X158088894Y-103405342D01*
X158089500Y-103417582D01*
X158089500Y-107406277D01*
X158069815Y-107473316D01*
X158017011Y-107519071D01*
X157947853Y-107529015D01*
X157884297Y-107499990D01*
X157847794Y-107445282D01*
X157830210Y-107392218D01*
X157809814Y-107330666D01*
X157717712Y-107181344D01*
X157593656Y-107057288D01*
X157444334Y-106965186D01*
X157277797Y-106910001D01*
X157277795Y-106910000D01*
X157175010Y-106899500D01*
X155824998Y-106899500D01*
X155824981Y-106899501D01*
X155722203Y-106910000D01*
X155722200Y-106910001D01*
X155555668Y-106965185D01*
X155555663Y-106965187D01*
X155406342Y-107057289D01*
X155282289Y-107181342D01*
X155190187Y-107330663D01*
X155190185Y-107330668D01*
X155181403Y-107357170D01*
X155135001Y-107497203D01*
X155135001Y-107497204D01*
X155135000Y-107497204D01*
X155124500Y-107599983D01*
X155124500Y-108400001D01*
X155124501Y-108400019D01*
X155135000Y-108502796D01*
X155135001Y-108502799D01*
X155152205Y-108554716D01*
X155190186Y-108669334D01*
X155282288Y-108818656D01*
X155406344Y-108942712D01*
X155470981Y-108982580D01*
X155517705Y-109034526D01*
X155528928Y-109103489D01*
X155501085Y-109167571D01*
X155493566Y-109175799D01*
X155385964Y-109283401D01*
X155284195Y-109423475D01*
X155205591Y-109577744D01*
X155152085Y-109742415D01*
X155150884Y-109749999D01*
X155150885Y-109750000D01*
X156219670Y-109750000D01*
X156199925Y-109769745D01*
X156150556Y-109855255D01*
X156125000Y-109950630D01*
X156125000Y-110049370D01*
X156150556Y-110144745D01*
X156199925Y-110230255D01*
X156219670Y-110250000D01*
X155150885Y-110250000D01*
X155152085Y-110257584D01*
X155205591Y-110422255D01*
X155284195Y-110576524D01*
X155385967Y-110716602D01*
X155508397Y-110839032D01*
X155648475Y-110940804D01*
X155802742Y-111019408D01*
X155967415Y-111072914D01*
X156138429Y-111100000D01*
X156250000Y-111100000D01*
X156250000Y-110280330D01*
X156269745Y-110300075D01*
X156355255Y-110349444D01*
X156450630Y-110375000D01*
X156549370Y-110375000D01*
X156644745Y-110349444D01*
X156730255Y-110300075D01*
X156750000Y-110280330D01*
X156750000Y-111100000D01*
X156861571Y-111100000D01*
X157032584Y-111072914D01*
X157197257Y-111019408D01*
X157351524Y-110940804D01*
X157491602Y-110839032D01*
X157614032Y-110716602D01*
X157715804Y-110576524D01*
X157794408Y-110422255D01*
X157847569Y-110258647D01*
X157887007Y-110200971D01*
X157951365Y-110173773D01*
X158020212Y-110185688D01*
X158071687Y-110232932D01*
X158089500Y-110296965D01*
X158089500Y-114041763D01*
X158069815Y-114108802D01*
X158017011Y-114154557D01*
X157947853Y-114164501D01*
X157884297Y-114135476D01*
X157854500Y-114097035D01*
X157808823Y-114005305D01*
X157773778Y-113934924D01*
X157685353Y-113817830D01*
X157639866Y-113757595D01*
X157475655Y-113607898D01*
X157475653Y-113607896D01*
X157286733Y-113490922D01*
X157286727Y-113490919D01*
X157155296Y-113440003D01*
X157079528Y-113410650D01*
X156861104Y-113369820D01*
X156638896Y-113369820D01*
X156420472Y-113410650D01*
X156370695Y-113429933D01*
X156213272Y-113490919D01*
X156213266Y-113490922D01*
X156024346Y-113607896D01*
X156024344Y-113607898D01*
X155860133Y-113757595D01*
X155726222Y-113934923D01*
X155627180Y-114133825D01*
X155627174Y-114133840D01*
X155566366Y-114347558D01*
X155566365Y-114347560D01*
X155545863Y-114568819D01*
X155545863Y-114568820D01*
X155566365Y-114790079D01*
X155566366Y-114790081D01*
X155627174Y-115003799D01*
X155627180Y-115003814D01*
X155726222Y-115202716D01*
X155860133Y-115380044D01*
X156024344Y-115529741D01*
X156024346Y-115529743D01*
X156213266Y-115646717D01*
X156213272Y-115646720D01*
X156219697Y-115649209D01*
X156420472Y-115726990D01*
X156638896Y-115767820D01*
X156638899Y-115767820D01*
X156861101Y-115767820D01*
X156861104Y-115767820D01*
X157079528Y-115726990D01*
X157286730Y-115646719D01*
X157475655Y-115529742D01*
X157639868Y-115380042D01*
X157773778Y-115202716D01*
X157776795Y-115196657D01*
X157854500Y-115040605D01*
X157902003Y-114989367D01*
X157969666Y-114971946D01*
X158036006Y-114993871D01*
X158079961Y-115048183D01*
X158089500Y-115095876D01*
X158089500Y-117038963D01*
X158069815Y-117106002D01*
X158017011Y-117151757D01*
X157947853Y-117161701D01*
X157884297Y-117132676D01*
X157854500Y-117094235D01*
X157809099Y-117003059D01*
X157773778Y-116932124D01*
X157639868Y-116754798D01*
X157639866Y-116754795D01*
X157475655Y-116605098D01*
X157475653Y-116605096D01*
X157286733Y-116488122D01*
X157286727Y-116488119D01*
X157160317Y-116439148D01*
X157079528Y-116407850D01*
X156861104Y-116367020D01*
X156638896Y-116367020D01*
X156420472Y-116407850D01*
X156374912Y-116425500D01*
X156213272Y-116488119D01*
X156213266Y-116488122D01*
X156024346Y-116605096D01*
X156024344Y-116605098D01*
X155860133Y-116754795D01*
X155726222Y-116932123D01*
X155627180Y-117131025D01*
X155627174Y-117131040D01*
X155566366Y-117344758D01*
X155566365Y-117344760D01*
X155545863Y-117566019D01*
X155545863Y-117566020D01*
X155566365Y-117787279D01*
X155566366Y-117787281D01*
X155627174Y-118000999D01*
X155627180Y-118001014D01*
X155726222Y-118199916D01*
X155860133Y-118377244D01*
X156024344Y-118526941D01*
X156024346Y-118526943D01*
X156213266Y-118643917D01*
X156213272Y-118643920D01*
X156242206Y-118655129D01*
X156420472Y-118724190D01*
X156638896Y-118765020D01*
X156638899Y-118765020D01*
X156861101Y-118765020D01*
X156861104Y-118765020D01*
X157079528Y-118724190D01*
X157286730Y-118643919D01*
X157475655Y-118526942D01*
X157639868Y-118377242D01*
X157773778Y-118199916D01*
X157832408Y-118082171D01*
X157854500Y-118037805D01*
X157902003Y-117986567D01*
X157969666Y-117969146D01*
X158036006Y-117991071D01*
X158079961Y-118045383D01*
X158089500Y-118093076D01*
X158089500Y-130665500D01*
X158069815Y-130732539D01*
X158017011Y-130778294D01*
X157965500Y-130789500D01*
X126974500Y-130789500D01*
X126907461Y-130769815D01*
X126861706Y-130717011D01*
X126850500Y-130665500D01*
X126850500Y-128649500D01*
X146354992Y-128649500D01*
X146373301Y-128800291D01*
X146427165Y-128942319D01*
X146513454Y-129067330D01*
X146627152Y-129168057D01*
X146761652Y-129238648D01*
X146835394Y-129256824D01*
X146909136Y-129275000D01*
X146909137Y-129275000D01*
X147061037Y-129275000D01*
X147061039Y-129274999D01*
X147111211Y-129262633D01*
X147181013Y-129265701D01*
X147238075Y-129306020D01*
X147256828Y-129339056D01*
X147268138Y-129368878D01*
X147354427Y-129493889D01*
X147468125Y-129594616D01*
X147602625Y-129665207D01*
X147676367Y-129683383D01*
X147750109Y-129701559D01*
X147750110Y-129701559D01*
X147902009Y-129701559D01*
X147951169Y-129689441D01*
X148049493Y-129665207D01*
X148183993Y-129594616D01*
X148297691Y-129493889D01*
X148383980Y-129368878D01*
X148437844Y-129226850D01*
X148456153Y-129076059D01*
X148437844Y-128925268D01*
X148383980Y-128783240D01*
X148297691Y-128658229D01*
X148183993Y-128557502D01*
X148049493Y-128486911D01*
X148049492Y-128486910D01*
X148049491Y-128486910D01*
X147902009Y-128450559D01*
X147902008Y-128450559D01*
X147750110Y-128450559D01*
X147750108Y-128450559D01*
X147699931Y-128462926D01*
X147630129Y-128459856D01*
X147573067Y-128419536D01*
X147554318Y-128386506D01*
X147543007Y-128356681D01*
X147456718Y-128231670D01*
X147343020Y-128130943D01*
X147208520Y-128060352D01*
X147208519Y-128060351D01*
X147208518Y-128060351D01*
X147061036Y-128024000D01*
X147061035Y-128024000D01*
X146909137Y-128024000D01*
X146909136Y-128024000D01*
X146761653Y-128060351D01*
X146627153Y-128130942D01*
X146513453Y-128231671D01*
X146427166Y-128356679D01*
X146427165Y-128356680D01*
X146377776Y-128486910D01*
X146373301Y-128498709D01*
X146354992Y-128649500D01*
X126850500Y-128649500D01*
X126850500Y-125099996D01*
X129669909Y-125099996D01*
X129669909Y-125100003D01*
X129688212Y-125262455D01*
X129739506Y-125409046D01*
X129743067Y-125478825D01*
X129739506Y-125490954D01*
X129688212Y-125637544D01*
X129669909Y-125799996D01*
X129669909Y-125800003D01*
X129688212Y-125962455D01*
X129742210Y-126116774D01*
X129742211Y-126116775D01*
X129829192Y-126255204D01*
X129944796Y-126370808D01*
X130083225Y-126457789D01*
X130237539Y-126511786D01*
X130237542Y-126511786D01*
X130237544Y-126511787D01*
X130399996Y-126530091D01*
X130400000Y-126530091D01*
X130400004Y-126530091D01*
X130562455Y-126511787D01*
X130562456Y-126511786D01*
X130562461Y-126511786D01*
X130716775Y-126457789D01*
X130855204Y-126370808D01*
X130970808Y-126255204D01*
X131005498Y-126199996D01*
X151669909Y-126199996D01*
X151669909Y-126200003D01*
X151688212Y-126362455D01*
X151742210Y-126516774D01*
X151742211Y-126516775D01*
X151829192Y-126655204D01*
X151944796Y-126770808D01*
X152083225Y-126857789D01*
X152237539Y-126911786D01*
X152237542Y-126911786D01*
X152237544Y-126911787D01*
X152399996Y-126930091D01*
X152400000Y-126930091D01*
X152400004Y-126930091D01*
X152562455Y-126911787D01*
X152562456Y-126911786D01*
X152562461Y-126911786D01*
X152716775Y-126857789D01*
X152855204Y-126770808D01*
X152970808Y-126655204D01*
X153057789Y-126516775D01*
X153111786Y-126362461D01*
X153130091Y-126200000D01*
X153111786Y-126037539D01*
X153057789Y-125883225D01*
X152970808Y-125744796D01*
X152855204Y-125629192D01*
X152716774Y-125542210D01*
X152562455Y-125488212D01*
X152400004Y-125469909D01*
X152399996Y-125469909D01*
X152237544Y-125488212D01*
X152083225Y-125542210D01*
X151944795Y-125629192D01*
X151829192Y-125744795D01*
X151742210Y-125883225D01*
X151688212Y-126037544D01*
X151669909Y-126199996D01*
X131005498Y-126199996D01*
X131057789Y-126116775D01*
X131111786Y-125962461D01*
X131130091Y-125800000D01*
X131130091Y-125799996D01*
X131111787Y-125637542D01*
X131078429Y-125542211D01*
X131060492Y-125490952D01*
X131056930Y-125421177D01*
X131060488Y-125409060D01*
X131111786Y-125262461D01*
X131111786Y-125262459D01*
X131111787Y-125262457D01*
X131130091Y-125100003D01*
X131130091Y-125099996D01*
X131111787Y-124937544D01*
X131111786Y-124937542D01*
X131111786Y-124937539D01*
X131057789Y-124783225D01*
X130970808Y-124644796D01*
X130855204Y-124529192D01*
X130811804Y-124501922D01*
X130716774Y-124442210D01*
X130562455Y-124388212D01*
X130400004Y-124369909D01*
X130399996Y-124369909D01*
X130237544Y-124388212D01*
X130083225Y-124442210D01*
X129944795Y-124529192D01*
X129829192Y-124644795D01*
X129742210Y-124783225D01*
X129688212Y-124937544D01*
X129669909Y-125099996D01*
X126850500Y-125099996D01*
X126850500Y-123817157D01*
X132202749Y-123817157D01*
X132221058Y-123967948D01*
X132274922Y-124109976D01*
X132361211Y-124234987D01*
X132474909Y-124335714D01*
X132609409Y-124406305D01*
X132609411Y-124406305D01*
X132609412Y-124406306D01*
X132616427Y-124408967D01*
X132615273Y-124412007D01*
X132662964Y-124439727D01*
X132694799Y-124501922D01*
X132687955Y-124571456D01*
X132655199Y-124617850D01*
X132545526Y-124715011D01*
X132459237Y-124840022D01*
X132459236Y-124840023D01*
X132422252Y-124937544D01*
X132405372Y-124982052D01*
X132387063Y-125132843D01*
X132405372Y-125283634D01*
X132459236Y-125425662D01*
X132545525Y-125550673D01*
X132659223Y-125651400D01*
X132793723Y-125721991D01*
X132867465Y-125740167D01*
X132941207Y-125758343D01*
X132941208Y-125758343D01*
X133093107Y-125758343D01*
X133148072Y-125744795D01*
X133240591Y-125721991D01*
X133375091Y-125651400D01*
X133488789Y-125550673D01*
X133575078Y-125425662D01*
X133628942Y-125283634D01*
X133647251Y-125132843D01*
X133628942Y-124982052D01*
X133575078Y-124840024D01*
X133488789Y-124715013D01*
X133375091Y-124614286D01*
X133240591Y-124543695D01*
X133240590Y-124543694D01*
X133240587Y-124543693D01*
X133233573Y-124541033D01*
X133234716Y-124538018D01*
X133186919Y-124510150D01*
X133155169Y-124447911D01*
X133162107Y-124378386D01*
X133194798Y-124332150D01*
X133304475Y-124234987D01*
X133390764Y-124109976D01*
X133444628Y-123967948D01*
X133462937Y-123817157D01*
X133444628Y-123666366D01*
X133390764Y-123524338D01*
X133304475Y-123399327D01*
X133190777Y-123298600D01*
X133056277Y-123228009D01*
X133056276Y-123228008D01*
X133056275Y-123228008D01*
X132908793Y-123191657D01*
X132908792Y-123191657D01*
X132756894Y-123191657D01*
X132756893Y-123191657D01*
X132609410Y-123228008D01*
X132474910Y-123298599D01*
X132361210Y-123399328D01*
X132274923Y-123524336D01*
X132274922Y-123524337D01*
X132239190Y-123618557D01*
X132221058Y-123666366D01*
X132202749Y-123817157D01*
X126850500Y-123817157D01*
X126850500Y-122299996D01*
X132869909Y-122299996D01*
X132869909Y-122300003D01*
X132888212Y-122462455D01*
X132942210Y-122616774D01*
X132983302Y-122682171D01*
X133029192Y-122755204D01*
X133144796Y-122870808D01*
X133283225Y-122957789D01*
X133437539Y-123011786D01*
X133437542Y-123011786D01*
X133437544Y-123011787D01*
X133599996Y-123030091D01*
X133600000Y-123030091D01*
X133600004Y-123030091D01*
X133762455Y-123011787D01*
X133762456Y-123011786D01*
X133762461Y-123011786D01*
X133916775Y-122957789D01*
X134055204Y-122870808D01*
X134126012Y-122800000D01*
X140169906Y-122800000D01*
X140188215Y-122950791D01*
X140242079Y-123092819D01*
X140328368Y-123217830D01*
X140442066Y-123318557D01*
X140576566Y-123389148D01*
X140617864Y-123399327D01*
X140724050Y-123425500D01*
X140724051Y-123425500D01*
X140824731Y-123425500D01*
X140882356Y-123439703D01*
X140914833Y-123456748D01*
X140976566Y-123489148D01*
X141050308Y-123507324D01*
X141124050Y-123525500D01*
X141124051Y-123525500D01*
X141275950Y-123525500D01*
X141325110Y-123513382D01*
X141423434Y-123489148D01*
X141557934Y-123418557D01*
X141671632Y-123317830D01*
X141757921Y-123192819D01*
X141793123Y-123100000D01*
X148169906Y-123100000D01*
X148188215Y-123250791D01*
X148242079Y-123392819D01*
X148328368Y-123517830D01*
X148442066Y-123618557D01*
X148576566Y-123689148D01*
X148650308Y-123707324D01*
X148724050Y-123725500D01*
X148724051Y-123725500D01*
X148875948Y-123725500D01*
X148875949Y-123725500D01*
X149020326Y-123689914D01*
X149079674Y-123689914D01*
X149224051Y-123725500D01*
X149224052Y-123725500D01*
X149375950Y-123725500D01*
X149425110Y-123713382D01*
X149523434Y-123689148D01*
X149657934Y-123618557D01*
X149771632Y-123517830D01*
X149857921Y-123392819D01*
X149911785Y-123250791D01*
X149930094Y-123100000D01*
X149911785Y-122949209D01*
X149857921Y-122807181D01*
X149771632Y-122682170D01*
X149657934Y-122581443D01*
X149523434Y-122510852D01*
X149523433Y-122510851D01*
X149523432Y-122510851D01*
X149375950Y-122474500D01*
X149375949Y-122474500D01*
X149224051Y-122474500D01*
X149224050Y-122474500D01*
X149079675Y-122510085D01*
X149020325Y-122510085D01*
X148875950Y-122474500D01*
X148875949Y-122474500D01*
X148724051Y-122474500D01*
X148724050Y-122474500D01*
X148576567Y-122510851D01*
X148442067Y-122581442D01*
X148328367Y-122682171D01*
X148242080Y-122807179D01*
X148242079Y-122807180D01*
X148217949Y-122870808D01*
X148188215Y-122949209D01*
X148169906Y-123100000D01*
X141793123Y-123100000D01*
X141811785Y-123050791D01*
X141830094Y-122900000D01*
X141811785Y-122749209D01*
X141757921Y-122607181D01*
X141671632Y-122482170D01*
X141557934Y-122381443D01*
X141423434Y-122310852D01*
X141423433Y-122310851D01*
X141423432Y-122310851D01*
X141275950Y-122274500D01*
X141275949Y-122274500D01*
X141175269Y-122274500D01*
X141117644Y-122260297D01*
X141023432Y-122210851D01*
X140875950Y-122174500D01*
X140875949Y-122174500D01*
X140724051Y-122174500D01*
X140724050Y-122174500D01*
X140576567Y-122210851D01*
X140442067Y-122281442D01*
X140328367Y-122382171D01*
X140242080Y-122507179D01*
X140242079Y-122507180D01*
X140200516Y-122616775D01*
X140188215Y-122649209D01*
X140169906Y-122800000D01*
X134126012Y-122800000D01*
X134170808Y-122755204D01*
X134257789Y-122616775D01*
X134311786Y-122462461D01*
X134320915Y-122381442D01*
X134330091Y-122300003D01*
X134330091Y-122299996D01*
X134311787Y-122137544D01*
X134311786Y-122137542D01*
X134311786Y-122137539D01*
X134257789Y-121983225D01*
X134170808Y-121844796D01*
X134055204Y-121729192D01*
X134037309Y-121717948D01*
X133916774Y-121642210D01*
X133762455Y-121588212D01*
X133600004Y-121569909D01*
X133599996Y-121569909D01*
X133437544Y-121588212D01*
X133283225Y-121642210D01*
X133144795Y-121729192D01*
X133029192Y-121844795D01*
X132942210Y-121983225D01*
X132888212Y-122137544D01*
X132869909Y-122299996D01*
X126850500Y-122299996D01*
X126850500Y-121453571D01*
X126870185Y-121386532D01*
X126922989Y-121340777D01*
X126992147Y-121330833D01*
X127021955Y-121339011D01*
X127058309Y-121354070D01*
X127058318Y-121354072D01*
X127251504Y-121392499D01*
X127251508Y-121392500D01*
X127500000Y-121392500D01*
X127500000Y-120692500D01*
X128000000Y-120692500D01*
X128000000Y-121392500D01*
X128248492Y-121392500D01*
X128248495Y-121392499D01*
X128441681Y-121354072D01*
X128441693Y-121354069D01*
X128623671Y-121278692D01*
X128623684Y-121278685D01*
X128787462Y-121169251D01*
X128787466Y-121169248D01*
X128926748Y-121029966D01*
X128926751Y-121029962D01*
X129036185Y-120866184D01*
X129036192Y-120866171D01*
X129111569Y-120684192D01*
X129111569Y-120684190D01*
X129119862Y-120642500D01*
X128316988Y-120642500D01*
X128334205Y-120632560D01*
X128390060Y-120576705D01*
X128429556Y-120508296D01*
X128450000Y-120431996D01*
X128450000Y-120353004D01*
X128429556Y-120276704D01*
X128390060Y-120208295D01*
X128334205Y-120152440D01*
X128316988Y-120142500D01*
X129119862Y-120142500D01*
X130410138Y-120142500D01*
X131213012Y-120142500D01*
X131195795Y-120152440D01*
X131139940Y-120208295D01*
X131100444Y-120276704D01*
X131080000Y-120353004D01*
X131080000Y-120431996D01*
X131100444Y-120508296D01*
X131139940Y-120576705D01*
X131195795Y-120632560D01*
X131213012Y-120642500D01*
X130410138Y-120642500D01*
X130418430Y-120684190D01*
X130418430Y-120684192D01*
X130493807Y-120866171D01*
X130493814Y-120866184D01*
X130603248Y-121029962D01*
X130603251Y-121029966D01*
X130672374Y-121099089D01*
X130705859Y-121160412D01*
X130700875Y-121230104D01*
X130686746Y-121257206D01*
X130674923Y-121274335D01*
X130674922Y-121274337D01*
X130621058Y-121416365D01*
X130612221Y-121489148D01*
X130602749Y-121567157D01*
X130621058Y-121717948D01*
X130674922Y-121859976D01*
X130761211Y-121984987D01*
X130874909Y-122085714D01*
X131009409Y-122156305D01*
X131083151Y-122174481D01*
X131156893Y-122192657D01*
X131156894Y-122192657D01*
X131308793Y-122192657D01*
X131382457Y-122174500D01*
X131456277Y-122156305D01*
X131590777Y-122085714D01*
X131704475Y-121984987D01*
X131790764Y-121859976D01*
X131844628Y-121717948D01*
X131862937Y-121567157D01*
X131854783Y-121500000D01*
X142089904Y-121500000D01*
X142108213Y-121650791D01*
X142162077Y-121792819D01*
X142248366Y-121917830D01*
X142362064Y-122018557D01*
X142496564Y-122089148D01*
X142570306Y-122107324D01*
X142644048Y-122125500D01*
X142644049Y-122125500D01*
X142795948Y-122125500D01*
X142845108Y-122113382D01*
X142943432Y-122089148D01*
X143077932Y-122018557D01*
X143191630Y-121917830D01*
X143277919Y-121792819D01*
X143331783Y-121650791D01*
X143335785Y-121617825D01*
X143363405Y-121553648D01*
X143421338Y-121514590D01*
X143429198Y-121512375D01*
X143523434Y-121489148D01*
X143657934Y-121418557D01*
X143771632Y-121317830D01*
X143852967Y-121199996D01*
X153369909Y-121199996D01*
X153369909Y-121200003D01*
X153388212Y-121362455D01*
X153442210Y-121516774D01*
X153442211Y-121516775D01*
X153529192Y-121655204D01*
X153644796Y-121770808D01*
X153783225Y-121857789D01*
X153937539Y-121911786D01*
X153937542Y-121911786D01*
X153937544Y-121911787D01*
X154099996Y-121930091D01*
X154100000Y-121930091D01*
X154100004Y-121930091D01*
X154262455Y-121911787D01*
X154262456Y-121911786D01*
X154262461Y-121911786D01*
X154416775Y-121857789D01*
X154555204Y-121770808D01*
X154670808Y-121655204D01*
X154757789Y-121516775D01*
X154797527Y-121403208D01*
X154838247Y-121346435D01*
X154903200Y-121320687D01*
X154971762Y-121334143D01*
X154971967Y-121334250D01*
X155025707Y-121362455D01*
X155076566Y-121389148D01*
X155224050Y-121425500D01*
X155224051Y-121425500D01*
X155375950Y-121425500D01*
X155466378Y-121403211D01*
X155523434Y-121389148D01*
X155657934Y-121318557D01*
X155771632Y-121217830D01*
X155857921Y-121092819D01*
X155911785Y-120950791D01*
X155930094Y-120800000D01*
X155911785Y-120649209D01*
X155857921Y-120507181D01*
X155771632Y-120382170D01*
X155657934Y-120281443D01*
X155523434Y-120210852D01*
X155523433Y-120210851D01*
X155523432Y-120210851D01*
X155375950Y-120174500D01*
X155375949Y-120174500D01*
X155224051Y-120174500D01*
X155224050Y-120174500D01*
X155076567Y-120210851D01*
X154942067Y-120281442D01*
X154828367Y-120382171D01*
X154742080Y-120507179D01*
X154742078Y-120507182D01*
X154722444Y-120558951D01*
X154680265Y-120614653D01*
X154614667Y-120638709D01*
X154546477Y-120623481D01*
X154540531Y-120619972D01*
X154416774Y-120542210D01*
X154262455Y-120488212D01*
X154100004Y-120469909D01*
X154099996Y-120469909D01*
X153937544Y-120488212D01*
X153783225Y-120542210D01*
X153644795Y-120629192D01*
X153529192Y-120744795D01*
X153442210Y-120883225D01*
X153388212Y-121037544D01*
X153369909Y-121199996D01*
X143852967Y-121199996D01*
X143857921Y-121192819D01*
X143911785Y-121050791D01*
X143930094Y-120900000D01*
X143911785Y-120749209D01*
X143857921Y-120607181D01*
X143771632Y-120482170D01*
X143657934Y-120381443D01*
X143523434Y-120310852D01*
X143523433Y-120310851D01*
X143523432Y-120310851D01*
X143375308Y-120274342D01*
X143314927Y-120239186D01*
X143283139Y-120176966D01*
X143290035Y-120107438D01*
X143322757Y-120061129D01*
X143371632Y-120017830D01*
X143397950Y-119979702D01*
X143452232Y-119935711D01*
X143521681Y-119928051D01*
X143584246Y-119959154D01*
X143602050Y-119979702D01*
X143628365Y-120017827D01*
X143628367Y-120017829D01*
X143628368Y-120017830D01*
X143742066Y-120118557D01*
X143876566Y-120189148D01*
X143950308Y-120207324D01*
X144024050Y-120225500D01*
X144024051Y-120225500D01*
X144175950Y-120225500D01*
X144245752Y-120208295D01*
X144323434Y-120189148D01*
X144457934Y-120118557D01*
X144571632Y-120017830D01*
X144657921Y-119892819D01*
X144711785Y-119750791D01*
X144730094Y-119600000D01*
X144711785Y-119449209D01*
X144657921Y-119307181D01*
X144652964Y-119300000D01*
X152269906Y-119300000D01*
X152288215Y-119450791D01*
X152342079Y-119592819D01*
X152428368Y-119717830D01*
X152542066Y-119818557D01*
X152676566Y-119889148D01*
X152750308Y-119907324D01*
X152824050Y-119925500D01*
X152824051Y-119925500D01*
X152975950Y-119925500D01*
X153025110Y-119913382D01*
X153123434Y-119889148D01*
X153257934Y-119818557D01*
X153371632Y-119717830D01*
X153457921Y-119592819D01*
X153511785Y-119450791D01*
X153530094Y-119300000D01*
X153511785Y-119149209D01*
X153457921Y-119007181D01*
X153371632Y-118882170D01*
X153257934Y-118781443D01*
X153123434Y-118710852D01*
X153123433Y-118710851D01*
X153123432Y-118710851D01*
X152975950Y-118674500D01*
X152975949Y-118674500D01*
X152824051Y-118674500D01*
X152824050Y-118674500D01*
X152676567Y-118710851D01*
X152542067Y-118781442D01*
X152428367Y-118882171D01*
X152342080Y-119007179D01*
X152342079Y-119007180D01*
X152297207Y-119125500D01*
X152288215Y-119149209D01*
X152269906Y-119300000D01*
X144652964Y-119300000D01*
X144571632Y-119182170D01*
X144457934Y-119081443D01*
X144323434Y-119010852D01*
X144323433Y-119010851D01*
X144323432Y-119010851D01*
X144175950Y-118974500D01*
X144175949Y-118974500D01*
X144024051Y-118974500D01*
X144024050Y-118974500D01*
X143876567Y-119010851D01*
X143742067Y-119081442D01*
X143628367Y-119182171D01*
X143602050Y-119220298D01*
X143547767Y-119264288D01*
X143478318Y-119271948D01*
X143415753Y-119240844D01*
X143397950Y-119220298D01*
X143394618Y-119215471D01*
X143371632Y-119182170D01*
X143257934Y-119081443D01*
X143123434Y-119010852D01*
X143123433Y-119010851D01*
X143123432Y-119010851D01*
X142975950Y-118974500D01*
X142975949Y-118974500D01*
X142824051Y-118974500D01*
X142824050Y-118974500D01*
X142676567Y-119010851D01*
X142542067Y-119081442D01*
X142428367Y-119182171D01*
X142342080Y-119307179D01*
X142342079Y-119307180D01*
X142289306Y-119446333D01*
X142288215Y-119449209D01*
X142269906Y-119600000D01*
X142288215Y-119750791D01*
X142342079Y-119892819D01*
X142428368Y-120017830D01*
X142542066Y-120118557D01*
X142676566Y-120189148D01*
X142824051Y-120225500D01*
X142824054Y-120225500D01*
X142824691Y-120225657D01*
X142885071Y-120260813D01*
X142916860Y-120323032D01*
X142909964Y-120392561D01*
X142877244Y-120438869D01*
X142828367Y-120482170D01*
X142742080Y-120607179D01*
X142742079Y-120607180D01*
X142688215Y-120749207D01*
X142684212Y-120782176D01*
X142656590Y-120846354D01*
X142598656Y-120885410D01*
X142590792Y-120887626D01*
X142496565Y-120910851D01*
X142362065Y-120981442D01*
X142248365Y-121082171D01*
X142162078Y-121207179D01*
X142162077Y-121207180D01*
X142108213Y-121349208D01*
X142106605Y-121362455D01*
X142089904Y-121500000D01*
X131854783Y-121500000D01*
X131844628Y-121416366D01*
X131790764Y-121274338D01*
X131704475Y-121149327D01*
X131704474Y-121149326D01*
X131701950Y-121145669D01*
X131680067Y-121079315D01*
X131680000Y-121075229D01*
X131680000Y-120692500D01*
X132180000Y-120692500D01*
X132180000Y-121392500D01*
X132578492Y-121392500D01*
X132578495Y-121392499D01*
X132771681Y-121354072D01*
X132771693Y-121354069D01*
X132953671Y-121278692D01*
X132953684Y-121278685D01*
X133117462Y-121169251D01*
X133117466Y-121169248D01*
X133256748Y-121029966D01*
X133256751Y-121029962D01*
X133366185Y-120866184D01*
X133366192Y-120866171D01*
X133441569Y-120684192D01*
X133441569Y-120684190D01*
X133449862Y-120642500D01*
X132646988Y-120642500D01*
X132664205Y-120632560D01*
X132720060Y-120576705D01*
X132759556Y-120508296D01*
X132780000Y-120431996D01*
X132780000Y-120353004D01*
X132759556Y-120276704D01*
X132720060Y-120208295D01*
X132664205Y-120152440D01*
X132646988Y-120142500D01*
X133449862Y-120142500D01*
X133441569Y-120100809D01*
X133441569Y-120100807D01*
X133366192Y-119918828D01*
X133366185Y-119918815D01*
X133256751Y-119755037D01*
X133256748Y-119755033D01*
X133117466Y-119615751D01*
X133117462Y-119615748D01*
X132953684Y-119506314D01*
X132953671Y-119506307D01*
X132771693Y-119430930D01*
X132771681Y-119430927D01*
X132578495Y-119392500D01*
X132180000Y-119392500D01*
X132180000Y-120092500D01*
X131680000Y-120092500D01*
X131680000Y-119436321D01*
X131699685Y-119369282D01*
X131716319Y-119348640D01*
X131757780Y-119307179D01*
X131810495Y-119254464D01*
X131873095Y-119146036D01*
X131905500Y-119025101D01*
X131905500Y-118899899D01*
X131873095Y-118778964D01*
X131810495Y-118670536D01*
X131721964Y-118582005D01*
X131613536Y-118519405D01*
X131613537Y-118519405D01*
X131573224Y-118508603D01*
X131541117Y-118500000D01*
X144569906Y-118500000D01*
X144588215Y-118650791D01*
X144642079Y-118792819D01*
X144728368Y-118917830D01*
X144842066Y-119018557D01*
X144976566Y-119089148D01*
X145050308Y-119107324D01*
X145124050Y-119125500D01*
X145124051Y-119125500D01*
X145275950Y-119125500D01*
X145325110Y-119113382D01*
X145423434Y-119089148D01*
X145557934Y-119018557D01*
X145671632Y-118917830D01*
X145757921Y-118792819D01*
X145811785Y-118650791D01*
X145830094Y-118500000D01*
X145811785Y-118349209D01*
X145757921Y-118207181D01*
X145671632Y-118082170D01*
X145557934Y-117981443D01*
X145423434Y-117910852D01*
X145423433Y-117910851D01*
X145423432Y-117910851D01*
X145379408Y-117900000D01*
X147069906Y-117900000D01*
X147088215Y-118050791D01*
X147142079Y-118192819D01*
X147228368Y-118317830D01*
X147342066Y-118418557D01*
X147476566Y-118489148D01*
X147520594Y-118500000D01*
X147624050Y-118525500D01*
X147624051Y-118525500D01*
X147775950Y-118525500D01*
X147825110Y-118513382D01*
X147923434Y-118489148D01*
X148057934Y-118418557D01*
X148171632Y-118317830D01*
X148257921Y-118192819D01*
X148311785Y-118050791D01*
X148330094Y-117900000D01*
X148311785Y-117749209D01*
X148257921Y-117607181D01*
X148171632Y-117482170D01*
X148057934Y-117381443D01*
X147923434Y-117310852D01*
X147923433Y-117310851D01*
X147923432Y-117310851D01*
X147775950Y-117274500D01*
X147775949Y-117274500D01*
X147624051Y-117274500D01*
X147624050Y-117274500D01*
X147476567Y-117310851D01*
X147342067Y-117381442D01*
X147228367Y-117482171D01*
X147142080Y-117607179D01*
X147142079Y-117607180D01*
X147088215Y-117749208D01*
X147083592Y-117787280D01*
X147069906Y-117900000D01*
X145379408Y-117900000D01*
X145275950Y-117874500D01*
X145275949Y-117874500D01*
X145124051Y-117874500D01*
X145124050Y-117874500D01*
X144976567Y-117910851D01*
X144842067Y-117981442D01*
X144728367Y-118082171D01*
X144642080Y-118207179D01*
X144642079Y-118207180D01*
X144642079Y-118207181D01*
X144588215Y-118349209D01*
X144569906Y-118500000D01*
X131541117Y-118500000D01*
X131492601Y-118487000D01*
X131367399Y-118487000D01*
X131286775Y-118508603D01*
X131246463Y-118519405D01*
X131138037Y-118582004D01*
X131138034Y-118582006D01*
X131049506Y-118670534D01*
X131049504Y-118670537D01*
X130986905Y-118778963D01*
X130983192Y-118792819D01*
X130954500Y-118899899D01*
X130954500Y-119025101D01*
X130969597Y-119081442D01*
X130986905Y-119146036D01*
X131049504Y-119254462D01*
X131049506Y-119254465D01*
X131054426Y-119259385D01*
X131087911Y-119320708D01*
X131082927Y-119390400D01*
X131041055Y-119446333D01*
X131014198Y-119461627D01*
X130906325Y-119506309D01*
X130906315Y-119506314D01*
X130742537Y-119615748D01*
X130742533Y-119615751D01*
X130603251Y-119755033D01*
X130603248Y-119755037D01*
X130493814Y-119918815D01*
X130493807Y-119918828D01*
X130418430Y-120100807D01*
X130418430Y-120100809D01*
X130410138Y-120142500D01*
X129119862Y-120142500D01*
X129111569Y-120100809D01*
X129111569Y-120100807D01*
X129036192Y-119918828D01*
X129036185Y-119918815D01*
X128926751Y-119755037D01*
X128926748Y-119755033D01*
X128787466Y-119615751D01*
X128787462Y-119615748D01*
X128623684Y-119506314D01*
X128623671Y-119506307D01*
X128441693Y-119430930D01*
X128441681Y-119430927D01*
X128248495Y-119392500D01*
X128000000Y-119392500D01*
X128000000Y-120092500D01*
X127500000Y-120092500D01*
X127500000Y-119392500D01*
X127251504Y-119392500D01*
X127058318Y-119430927D01*
X127058306Y-119430930D01*
X127021952Y-119445989D01*
X126952483Y-119453458D01*
X126890004Y-119422183D01*
X126854352Y-119362094D01*
X126850500Y-119331428D01*
X126850500Y-119000000D01*
X129019906Y-119000000D01*
X129038215Y-119150791D01*
X129092079Y-119292819D01*
X129178368Y-119417830D01*
X129292066Y-119518557D01*
X129426566Y-119589148D01*
X129470594Y-119600000D01*
X129574050Y-119625500D01*
X129574051Y-119625500D01*
X129725950Y-119625500D01*
X129775110Y-119613382D01*
X129873434Y-119589148D01*
X130007934Y-119518557D01*
X130121632Y-119417830D01*
X130207921Y-119292819D01*
X130261785Y-119150791D01*
X130280094Y-119000000D01*
X130261785Y-118849209D01*
X130207921Y-118707181D01*
X130121632Y-118582170D01*
X130007934Y-118481443D01*
X129873434Y-118410852D01*
X129873433Y-118410851D01*
X129873432Y-118410851D01*
X129725950Y-118374500D01*
X129725949Y-118374500D01*
X129574051Y-118374500D01*
X129574050Y-118374500D01*
X129426567Y-118410851D01*
X129292067Y-118481442D01*
X129292066Y-118481443D01*
X129178556Y-118582004D01*
X129178367Y-118582171D01*
X129092080Y-118707179D01*
X129092079Y-118707180D01*
X129059601Y-118792819D01*
X129038215Y-118849209D01*
X129019906Y-119000000D01*
X126850500Y-119000000D01*
X126850500Y-115400000D01*
X137169906Y-115400000D01*
X137188215Y-115550791D01*
X137242079Y-115692819D01*
X137328368Y-115817830D01*
X137442066Y-115918557D01*
X137576566Y-115989148D01*
X137650308Y-116007324D01*
X137724050Y-116025500D01*
X137724051Y-116025500D01*
X137875950Y-116025500D01*
X137925110Y-116013382D01*
X138023434Y-115989148D01*
X138157934Y-115918557D01*
X138271632Y-115817830D01*
X138310189Y-115761971D01*
X139419905Y-115761971D01*
X139438214Y-115912762D01*
X139492078Y-116054790D01*
X139518329Y-116092820D01*
X139578368Y-116179802D01*
X139647404Y-116240963D01*
X139684531Y-116300152D01*
X139688273Y-116348724D01*
X139671348Y-116488121D01*
X139669906Y-116500000D01*
X139688215Y-116650791D01*
X139742079Y-116792819D01*
X139828368Y-116917830D01*
X139942066Y-117018557D01*
X140076566Y-117089148D01*
X140097205Y-117094235D01*
X140224050Y-117125500D01*
X140224051Y-117125500D01*
X140375950Y-117125500D01*
X140425110Y-117113382D01*
X140523434Y-117089148D01*
X140657934Y-117018557D01*
X140771632Y-116917830D01*
X140857921Y-116792819D01*
X140911785Y-116650791D01*
X140930094Y-116500000D01*
X140911785Y-116349209D01*
X140857921Y-116207181D01*
X140771632Y-116082170D01*
X140771630Y-116082168D01*
X140702594Y-116021007D01*
X140665467Y-115961818D01*
X140661725Y-115913246D01*
X140661784Y-115912762D01*
X140669405Y-115850000D01*
X143569906Y-115850000D01*
X143588215Y-116000791D01*
X143642079Y-116142819D01*
X143728368Y-116267830D01*
X143842066Y-116368557D01*
X143976566Y-116439148D01*
X144041707Y-116455204D01*
X144124050Y-116475500D01*
X144124051Y-116475500D01*
X144275950Y-116475500D01*
X144325110Y-116463382D01*
X144423434Y-116439148D01*
X144557934Y-116368557D01*
X144671632Y-116267830D01*
X144757921Y-116142819D01*
X144811785Y-116000791D01*
X144830094Y-115850000D01*
X144824023Y-115800000D01*
X145469906Y-115800000D01*
X145488215Y-115950791D01*
X145542079Y-116092819D01*
X145628368Y-116217830D01*
X145742066Y-116318557D01*
X145876566Y-116389148D01*
X145950308Y-116407324D01*
X146024050Y-116425500D01*
X146024051Y-116425500D01*
X146175950Y-116425500D01*
X146247557Y-116407850D01*
X146323434Y-116389148D01*
X146457934Y-116318557D01*
X146571632Y-116217830D01*
X146657921Y-116092819D01*
X146693124Y-115999996D01*
X152219909Y-115999996D01*
X152219909Y-116000003D01*
X152238212Y-116162455D01*
X152292210Y-116316774D01*
X152323782Y-116367020D01*
X152379192Y-116455204D01*
X152494796Y-116570808D01*
X152633225Y-116657789D01*
X152787539Y-116711786D01*
X152787542Y-116711786D01*
X152787544Y-116711787D01*
X152949996Y-116730091D01*
X152950000Y-116730091D01*
X152950004Y-116730091D01*
X153112455Y-116711787D01*
X153112456Y-116711786D01*
X153112461Y-116711786D01*
X153266775Y-116657789D01*
X153405204Y-116570808D01*
X153520808Y-116455204D01*
X153607789Y-116316775D01*
X153661786Y-116162461D01*
X153680091Y-116000000D01*
X153678868Y-115989148D01*
X153661787Y-115837544D01*
X153661786Y-115837542D01*
X153661786Y-115837539D01*
X153607789Y-115683225D01*
X153520808Y-115544796D01*
X153405204Y-115429192D01*
X153382503Y-115414928D01*
X153266774Y-115342210D01*
X153112455Y-115288212D01*
X152950004Y-115269909D01*
X152949996Y-115269909D01*
X152787544Y-115288212D01*
X152686639Y-115323520D01*
X152616860Y-115327081D01*
X152574001Y-115302530D01*
X152561944Y-115366352D01*
X152517495Y-115414928D01*
X152494800Y-115429188D01*
X152494795Y-115429192D01*
X152379192Y-115544795D01*
X152292210Y-115683225D01*
X152238212Y-115837544D01*
X152219909Y-115999996D01*
X146693124Y-115999996D01*
X146711785Y-115950791D01*
X146730094Y-115800000D01*
X146711785Y-115649209D01*
X146657921Y-115507181D01*
X146575307Y-115387494D01*
X146553424Y-115321140D01*
X146570889Y-115253488D01*
X146622157Y-115206018D01*
X146690950Y-115193801D01*
X146707025Y-115196655D01*
X146824051Y-115225500D01*
X146824052Y-115225500D01*
X146975950Y-115225500D01*
X147035382Y-115210851D01*
X147123434Y-115189148D01*
X147257934Y-115118557D01*
X147371632Y-115017830D01*
X147457921Y-114892819D01*
X147511785Y-114750791D01*
X147530094Y-114600000D01*
X147515528Y-114480035D01*
X147526989Y-114411113D01*
X147573893Y-114359327D01*
X147608945Y-114344694D01*
X147631449Y-114339148D01*
X147765949Y-114268557D01*
X147879647Y-114167830D01*
X147951575Y-114063624D01*
X148005855Y-114019636D01*
X148023945Y-114013669D01*
X148123434Y-113989148D01*
X148257934Y-113918557D01*
X148371632Y-113817830D01*
X148457921Y-113692819D01*
X148511785Y-113550791D01*
X148530094Y-113400000D01*
X148511785Y-113249209D01*
X148457921Y-113107181D01*
X148457920Y-113107180D01*
X148457583Y-113106290D01*
X148452216Y-113036627D01*
X148463731Y-113004689D01*
X148465931Y-113000495D01*
X148465936Y-113000489D01*
X148519800Y-112858461D01*
X148538109Y-112707670D01*
X148519800Y-112556879D01*
X148465936Y-112414851D01*
X148379647Y-112289840D01*
X148265949Y-112189113D01*
X148131449Y-112118522D01*
X148131448Y-112118521D01*
X148131447Y-112118521D01*
X147983965Y-112082170D01*
X147983964Y-112082170D01*
X147832066Y-112082170D01*
X147832065Y-112082170D01*
X147684582Y-112118521D01*
X147550082Y-112189112D01*
X147550081Y-112189113D01*
X147467295Y-112262455D01*
X147436382Y-112289841D01*
X147350095Y-112414849D01*
X147350094Y-112414850D01*
X147296230Y-112556878D01*
X147277921Y-112707670D01*
X147296230Y-112858461D01*
X147341930Y-112978963D01*
X147347297Y-113048626D01*
X147314149Y-113110132D01*
X147255664Y-113143331D01*
X147184582Y-113160851D01*
X147050082Y-113231442D01*
X146936382Y-113332171D01*
X146850095Y-113457179D01*
X146850094Y-113457180D01*
X146796230Y-113599208D01*
X146777921Y-113750000D01*
X146792486Y-113869964D01*
X146781025Y-113938887D01*
X146734121Y-113990673D01*
X146699067Y-114005305D01*
X146676570Y-114010850D01*
X146676569Y-114010850D01*
X146542067Y-114081442D01*
X146428367Y-114182171D01*
X146342080Y-114307179D01*
X146342079Y-114307180D01*
X146288215Y-114449208D01*
X146269906Y-114600000D01*
X146288215Y-114750791D01*
X146342079Y-114892819D01*
X146342080Y-114892820D01*
X146424692Y-115012505D01*
X146446575Y-115078860D01*
X146429110Y-115146511D01*
X146377842Y-115193981D01*
X146309048Y-115206198D01*
X146292967Y-115203342D01*
X146175950Y-115174500D01*
X146175949Y-115174500D01*
X146024051Y-115174500D01*
X146024050Y-115174500D01*
X145876567Y-115210851D01*
X145742067Y-115281442D01*
X145628367Y-115382171D01*
X145542080Y-115507179D01*
X145542079Y-115507180D01*
X145502638Y-115611179D01*
X145488215Y-115649209D01*
X145469906Y-115800000D01*
X144824023Y-115800000D01*
X144811785Y-115699209D01*
X144757921Y-115557181D01*
X144671632Y-115432170D01*
X144557934Y-115331443D01*
X144423434Y-115260852D01*
X144423433Y-115260851D01*
X144423432Y-115260851D01*
X144275950Y-115224500D01*
X144275949Y-115224500D01*
X144124051Y-115224500D01*
X144124050Y-115224500D01*
X143976567Y-115260851D01*
X143842067Y-115331442D01*
X143842066Y-115331443D01*
X143731730Y-115429192D01*
X143728367Y-115432171D01*
X143642080Y-115557179D01*
X143642079Y-115557180D01*
X143607178Y-115649208D01*
X143588215Y-115699209D01*
X143569906Y-115850000D01*
X140669405Y-115850000D01*
X140680093Y-115761971D01*
X140661784Y-115611180D01*
X140607920Y-115469152D01*
X140521631Y-115344141D01*
X140407933Y-115243414D01*
X140273433Y-115172823D01*
X140273432Y-115172822D01*
X140273431Y-115172822D01*
X140125949Y-115136471D01*
X140125948Y-115136471D01*
X139974050Y-115136471D01*
X139974049Y-115136471D01*
X139826566Y-115172822D01*
X139692066Y-115243413D01*
X139672381Y-115260852D01*
X139601644Y-115323520D01*
X139578366Y-115344142D01*
X139492079Y-115469150D01*
X139492078Y-115469151D01*
X139438214Y-115611179D01*
X139424152Y-115726990D01*
X139419905Y-115761971D01*
X138310189Y-115761971D01*
X138357921Y-115692819D01*
X138411785Y-115550791D01*
X138430094Y-115400000D01*
X138411785Y-115249209D01*
X138357921Y-115107181D01*
X138271632Y-114982170D01*
X138157934Y-114881443D01*
X138023434Y-114810852D01*
X138023433Y-114810851D01*
X138023432Y-114810851D01*
X137875950Y-114774500D01*
X137875949Y-114774500D01*
X137724051Y-114774500D01*
X137724050Y-114774500D01*
X137576567Y-114810851D01*
X137442067Y-114881442D01*
X137328367Y-114982171D01*
X137242080Y-115107179D01*
X137242079Y-115107180D01*
X137190413Y-115243414D01*
X137188215Y-115249209D01*
X137169906Y-115400000D01*
X126850500Y-115400000D01*
X126850500Y-112813571D01*
X126870185Y-112746532D01*
X126922989Y-112700777D01*
X126992147Y-112690833D01*
X127021955Y-112699011D01*
X127058309Y-112714070D01*
X127058318Y-112714072D01*
X127251504Y-112752499D01*
X127251508Y-112752500D01*
X127500000Y-112752500D01*
X127500000Y-112052500D01*
X128000000Y-112052500D01*
X128000000Y-112752500D01*
X128248492Y-112752500D01*
X128248495Y-112752499D01*
X128441681Y-112714072D01*
X128441693Y-112714069D01*
X128623671Y-112638692D01*
X128623684Y-112638685D01*
X128787462Y-112529251D01*
X128787466Y-112529248D01*
X128926751Y-112389963D01*
X129025900Y-112241576D01*
X129079512Y-112196771D01*
X129148837Y-112188064D01*
X129211228Y-112217650D01*
X129292067Y-112289267D01*
X129426567Y-112359858D01*
X129500309Y-112378034D01*
X129574051Y-112396210D01*
X129703520Y-112396210D01*
X129770559Y-112415895D01*
X129816314Y-112468699D01*
X129826616Y-112505264D01*
X129827295Y-112510852D01*
X129838215Y-112600791D01*
X129892079Y-112742819D01*
X129978368Y-112867830D01*
X130092066Y-112968557D01*
X130226566Y-113039148D01*
X130300308Y-113057324D01*
X130374050Y-113075500D01*
X130374051Y-113075500D01*
X130525950Y-113075500D01*
X130673430Y-113039149D01*
X130673430Y-113039148D01*
X130673434Y-113039148D01*
X130775003Y-112985840D01*
X130843509Y-112972116D01*
X130908562Y-112997609D01*
X130949506Y-113054224D01*
X130952652Y-113111459D01*
X130955561Y-113111842D01*
X130954500Y-113119898D01*
X130954500Y-113119899D01*
X130954500Y-113245101D01*
X130986905Y-113366036D01*
X131049505Y-113474464D01*
X131138036Y-113562995D01*
X131246464Y-113625595D01*
X131367399Y-113658000D01*
X131367401Y-113658000D01*
X131492599Y-113658000D01*
X131492601Y-113658000D01*
X131613536Y-113625595D01*
X131721964Y-113562995D01*
X131810495Y-113474464D01*
X131873095Y-113366036D01*
X131905500Y-113245101D01*
X131905500Y-113119899D01*
X131873095Y-112998964D01*
X131810495Y-112890536D01*
X131721964Y-112802005D01*
X131716319Y-112796360D01*
X131682834Y-112735037D01*
X131680000Y-112708679D01*
X131680000Y-112052500D01*
X132180000Y-112052500D01*
X132180000Y-112752500D01*
X132578492Y-112752500D01*
X132578495Y-112752499D01*
X132771681Y-112714072D01*
X132771693Y-112714069D01*
X132953671Y-112638692D01*
X132953684Y-112638685D01*
X133117462Y-112529251D01*
X133117466Y-112529248D01*
X133256748Y-112389966D01*
X133256751Y-112389962D01*
X133366186Y-112226182D01*
X133400943Y-112142270D01*
X133444784Y-112087866D01*
X133511077Y-112065800D01*
X133529383Y-112066500D01*
X133604592Y-112074974D01*
X133649998Y-112080091D01*
X133650000Y-112080091D01*
X133650004Y-112080091D01*
X133812455Y-112061787D01*
X133812456Y-112061786D01*
X133812461Y-112061786D01*
X133966775Y-112007789D01*
X134105204Y-111920808D01*
X134220808Y-111805204D01*
X134307789Y-111666775D01*
X134361786Y-111512461D01*
X134361787Y-111512455D01*
X134380091Y-111350003D01*
X134380091Y-111349996D01*
X134361787Y-111187544D01*
X134361786Y-111187542D01*
X134361786Y-111187539D01*
X134307789Y-111033225D01*
X134299107Y-111019408D01*
X134247689Y-110937576D01*
X134228689Y-110870339D01*
X134249057Y-110803504D01*
X134302325Y-110758290D01*
X134371581Y-110749053D01*
X134393639Y-110754564D01*
X134394470Y-110754855D01*
X134394476Y-110754855D01*
X134394477Y-110754856D01*
X134556927Y-110773160D01*
X134556931Y-110773160D01*
X134556935Y-110773160D01*
X134719386Y-110754856D01*
X134719387Y-110754855D01*
X134719392Y-110754855D01*
X134873706Y-110700858D01*
X135012135Y-110613877D01*
X135127739Y-110498273D01*
X135214720Y-110359844D01*
X135268717Y-110205530D01*
X135273570Y-110162461D01*
X135287022Y-110043072D01*
X135287022Y-110043065D01*
X135268719Y-109880622D01*
X135268718Y-109880618D01*
X135268717Y-109880608D01*
X135268713Y-109880598D01*
X135267614Y-109875782D01*
X135271879Y-109806042D01*
X135313171Y-109749679D01*
X135378379Y-109724588D01*
X135446802Y-109738734D01*
X135470727Y-109755356D01*
X135542066Y-109818557D01*
X135676566Y-109889148D01*
X135699834Y-109894883D01*
X135824050Y-109925500D01*
X135824051Y-109925500D01*
X135849557Y-109925500D01*
X135916596Y-109945185D01*
X135951606Y-109979059D01*
X135978368Y-110017830D01*
X136092066Y-110118557D01*
X136226566Y-110189148D01*
X136287602Y-110204192D01*
X136374050Y-110225500D01*
X136374051Y-110225500D01*
X136525948Y-110225500D01*
X136525949Y-110225500D01*
X136624849Y-110201123D01*
X136694651Y-110204192D01*
X136751713Y-110244511D01*
X136777918Y-110309281D01*
X136777620Y-110336466D01*
X136769906Y-110399999D01*
X136776952Y-110458030D01*
X136765491Y-110526953D01*
X136718587Y-110578739D01*
X136651132Y-110596946D01*
X136639973Y-110596196D01*
X136535489Y-110584424D01*
X136535481Y-110584424D01*
X136373029Y-110602727D01*
X136218710Y-110656725D01*
X136080280Y-110743707D01*
X135964677Y-110859310D01*
X135877695Y-110997740D01*
X135823697Y-111152059D01*
X135805394Y-111314511D01*
X135805394Y-111314518D01*
X135823697Y-111476970D01*
X135877695Y-111631289D01*
X135929040Y-111713004D01*
X135964677Y-111769719D01*
X136080281Y-111885323D01*
X136218710Y-111972304D01*
X136373024Y-112026301D01*
X136373027Y-112026301D01*
X136373029Y-112026302D01*
X136535481Y-112044606D01*
X136535485Y-112044606D01*
X136535487Y-112044606D01*
X136611826Y-112036004D01*
X136690329Y-112027159D01*
X136759151Y-112039213D01*
X136806263Y-112079939D01*
X136820110Y-112100000D01*
X136871601Y-112174597D01*
X136985299Y-112275324D01*
X137119799Y-112345915D01*
X137176368Y-112359858D01*
X137267283Y-112382267D01*
X137267284Y-112382267D01*
X137419183Y-112382267D01*
X137510098Y-112359858D01*
X137566667Y-112345915D01*
X137701167Y-112275324D01*
X137814865Y-112174597D01*
X137901154Y-112049586D01*
X137955018Y-111907558D01*
X137973327Y-111756767D01*
X137955018Y-111605976D01*
X137955017Y-111605973D01*
X137953545Y-111600000D01*
X145927921Y-111600000D01*
X145946230Y-111750791D01*
X146000094Y-111892819D01*
X146086383Y-112017830D01*
X146200081Y-112118557D01*
X146334581Y-112189148D01*
X146365509Y-112196771D01*
X146482065Y-112225500D01*
X146482066Y-112225500D01*
X146633965Y-112225500D01*
X146683125Y-112213382D01*
X146781449Y-112189148D01*
X146915949Y-112118557D01*
X147029647Y-112017830D01*
X147115936Y-111892819D01*
X147169800Y-111750791D01*
X147188109Y-111600000D01*
X147169800Y-111449209D01*
X147115936Y-111307181D01*
X147115934Y-111307178D01*
X147112449Y-111300537D01*
X147114635Y-111299389D01*
X147096488Y-111244341D01*
X147113960Y-111176691D01*
X147138190Y-111147456D01*
X147171632Y-111117830D01*
X147257921Y-110992819D01*
X147270857Y-110958710D01*
X149269906Y-110958710D01*
X149288215Y-111109501D01*
X149342079Y-111251529D01*
X149428368Y-111376540D01*
X149542066Y-111477267D01*
X149676566Y-111547858D01*
X149750308Y-111566034D01*
X149824050Y-111584210D01*
X149824051Y-111584210D01*
X149975950Y-111584210D01*
X150040798Y-111568226D01*
X150123434Y-111547858D01*
X150257934Y-111477267D01*
X150257941Y-111477260D01*
X150262071Y-111474411D01*
X150328425Y-111452526D01*
X150390138Y-111466661D01*
X150461566Y-111504150D01*
X150495200Y-111512440D01*
X150609050Y-111540502D01*
X150609051Y-111540502D01*
X150760948Y-111540502D01*
X150760949Y-111540502D01*
X150883567Y-111510279D01*
X150953365Y-111513348D01*
X151010428Y-111553667D01*
X151036633Y-111618436D01*
X151023662Y-111687091D01*
X151015290Y-111701115D01*
X150942079Y-111807180D01*
X150888215Y-111949208D01*
X150869906Y-112100000D01*
X150888215Y-112250791D01*
X150911148Y-112311261D01*
X150916515Y-112380924D01*
X150883368Y-112442430D01*
X150822229Y-112476252D01*
X150765533Y-112475629D01*
X150760953Y-112474500D01*
X150760949Y-112474500D01*
X150609051Y-112474500D01*
X150609050Y-112474500D01*
X150461567Y-112510851D01*
X150327067Y-112581442D01*
X150213367Y-112682171D01*
X150127080Y-112807179D01*
X150127079Y-112807180D01*
X150073215Y-112949207D01*
X150060929Y-113050393D01*
X150033307Y-113114571D01*
X149995458Y-113145243D01*
X149863948Y-113214264D01*
X149750248Y-113314993D01*
X149663961Y-113440001D01*
X149663960Y-113440002D01*
X149610096Y-113582030D01*
X149591787Y-113732822D01*
X149610096Y-113883613D01*
X149663960Y-114025641D01*
X149663963Y-114025647D01*
X149691495Y-114065534D01*
X149713378Y-114131888D01*
X149705387Y-114179943D01*
X149667872Y-114278862D01*
X149667872Y-114278864D01*
X149660104Y-114342839D01*
X149649563Y-114429657D01*
X149667872Y-114580448D01*
X149721736Y-114722476D01*
X149808025Y-114847487D01*
X149921723Y-114948214D01*
X150056223Y-115018805D01*
X150129965Y-115036981D01*
X150203707Y-115055157D01*
X150203708Y-115055157D01*
X150355607Y-115055157D01*
X150414645Y-115040605D01*
X150503091Y-115018805D01*
X150637591Y-114948214D01*
X150751289Y-114847487D01*
X150837578Y-114722476D01*
X150884027Y-114600000D01*
X151569906Y-114600000D01*
X151588215Y-114750791D01*
X151642079Y-114892819D01*
X151728368Y-115017830D01*
X151842066Y-115118557D01*
X151976566Y-115189148D01*
X152031605Y-115202714D01*
X152124050Y-115225500D01*
X152124051Y-115225500D01*
X152275948Y-115225500D01*
X152275949Y-115225500D01*
X152421847Y-115189539D01*
X152491648Y-115192608D01*
X152525292Y-115216380D01*
X152530412Y-115160782D01*
X152563455Y-115113665D01*
X152671632Y-115017830D01*
X152757921Y-114892819D01*
X152811785Y-114750791D01*
X152830094Y-114600000D01*
X152811785Y-114449209D01*
X152796362Y-114408544D01*
X152790994Y-114338883D01*
X152810251Y-114294136D01*
X152871094Y-114205992D01*
X152924958Y-114063964D01*
X152943267Y-113913173D01*
X152924958Y-113762382D01*
X152871094Y-113620354D01*
X152784805Y-113495343D01*
X152671107Y-113394616D01*
X152536607Y-113324025D01*
X152536606Y-113324024D01*
X152536605Y-113324024D01*
X152389123Y-113287673D01*
X152389122Y-113287673D01*
X152237224Y-113287673D01*
X152237223Y-113287673D01*
X152089740Y-113324024D01*
X151955240Y-113394615D01*
X151955239Y-113394616D01*
X151846533Y-113490921D01*
X151841540Y-113495344D01*
X151755253Y-113620352D01*
X151755252Y-113620353D01*
X151701388Y-113762381D01*
X151683079Y-113913173D01*
X151701387Y-114063960D01*
X151701389Y-114063969D01*
X151716810Y-114104630D01*
X151722177Y-114174293D01*
X151702918Y-114219040D01*
X151642080Y-114307179D01*
X151642079Y-114307180D01*
X151588216Y-114449207D01*
X151588215Y-114449209D01*
X151569906Y-114600000D01*
X150884027Y-114600000D01*
X150891442Y-114580448D01*
X150909751Y-114429657D01*
X150891442Y-114278866D01*
X150837578Y-114136838D01*
X150810042Y-114096945D01*
X150788159Y-114030590D01*
X150796149Y-113982536D01*
X150833666Y-113883613D01*
X150845951Y-113782429D01*
X150873572Y-113718252D01*
X150911419Y-113687581D01*
X151042934Y-113618557D01*
X151156632Y-113517830D01*
X151242921Y-113392819D01*
X151296785Y-113250791D01*
X151315094Y-113100000D01*
X151296785Y-112949209D01*
X151273850Y-112888736D01*
X151268484Y-112819076D01*
X151301631Y-112757569D01*
X151362769Y-112723748D01*
X151419470Y-112724370D01*
X151424051Y-112725500D01*
X151424053Y-112725500D01*
X151575950Y-112725500D01*
X151644194Y-112708679D01*
X151723434Y-112689148D01*
X151857934Y-112618557D01*
X151971632Y-112517830D01*
X152057921Y-112392819D01*
X152111785Y-112250791D01*
X152130094Y-112100000D01*
X152123922Y-112049169D01*
X152135382Y-111980247D01*
X152182286Y-111928461D01*
X152249742Y-111910254D01*
X152276689Y-111913826D01*
X152324051Y-111925500D01*
X152324052Y-111925500D01*
X152475950Y-111925500D01*
X152549691Y-111907324D01*
X152623434Y-111889148D01*
X152706248Y-111845683D01*
X152774755Y-111831958D01*
X152839809Y-111857450D01*
X152880753Y-111914066D01*
X152886969Y-111940530D01*
X152888215Y-111950792D01*
X152925683Y-112049586D01*
X152942079Y-112092819D01*
X153028368Y-112217830D01*
X153142066Y-112318557D01*
X153276566Y-112389148D01*
X153350308Y-112407324D01*
X153424050Y-112425500D01*
X153424051Y-112425500D01*
X153575950Y-112425500D01*
X153649691Y-112407324D01*
X153723434Y-112389148D01*
X153835472Y-112330345D01*
X153903979Y-112316620D01*
X153969033Y-112342112D01*
X153995146Y-112369701D01*
X154028366Y-112417828D01*
X154028367Y-112417829D01*
X154028368Y-112417830D01*
X154142066Y-112518557D01*
X154276566Y-112589148D01*
X154350308Y-112607324D01*
X154424050Y-112625500D01*
X154424051Y-112625500D01*
X154575950Y-112625500D01*
X154625110Y-112613382D01*
X154723434Y-112589148D01*
X154857934Y-112518557D01*
X154971632Y-112417830D01*
X155057921Y-112292819D01*
X155111785Y-112150791D01*
X155117953Y-112099996D01*
X156069909Y-112099996D01*
X156069909Y-112100003D01*
X156088212Y-112262455D01*
X156142210Y-112416774D01*
X156201323Y-112510851D01*
X156229192Y-112555204D01*
X156344796Y-112670808D01*
X156483225Y-112757789D01*
X156637539Y-112811786D01*
X156637542Y-112811786D01*
X156637544Y-112811787D01*
X156799996Y-112830091D01*
X156800000Y-112830091D01*
X156800004Y-112830091D01*
X156962455Y-112811787D01*
X156962456Y-112811786D01*
X156962461Y-112811786D01*
X157116775Y-112757789D01*
X157255204Y-112670808D01*
X157370808Y-112555204D01*
X157457789Y-112416775D01*
X157511786Y-112262461D01*
X157513101Y-112250791D01*
X157530091Y-112100003D01*
X157530091Y-112099996D01*
X157511787Y-111937544D01*
X157511786Y-111937542D01*
X157511786Y-111937539D01*
X157457789Y-111783225D01*
X157370808Y-111644796D01*
X157255204Y-111529192D01*
X157228567Y-111512455D01*
X157116774Y-111442210D01*
X156962455Y-111388212D01*
X156800004Y-111369909D01*
X156799996Y-111369909D01*
X156637544Y-111388212D01*
X156483225Y-111442210D01*
X156344795Y-111529192D01*
X156229192Y-111644795D01*
X156142210Y-111783225D01*
X156088212Y-111937544D01*
X156069909Y-112099996D01*
X155117953Y-112099996D01*
X155130094Y-112000000D01*
X155111785Y-111849209D01*
X155057921Y-111707181D01*
X154971632Y-111582170D01*
X154857934Y-111481443D01*
X154723434Y-111410852D01*
X154723433Y-111410851D01*
X154723432Y-111410851D01*
X154575950Y-111374500D01*
X154575949Y-111374500D01*
X154424051Y-111374500D01*
X154424050Y-111374500D01*
X154298792Y-111405373D01*
X154228990Y-111402304D01*
X154171928Y-111361984D01*
X154145722Y-111297214D01*
X154156970Y-111237680D01*
X154155261Y-111237032D01*
X154157921Y-111230019D01*
X154211785Y-111087991D01*
X154230094Y-110937200D01*
X154230093Y-110937199D01*
X154230998Y-110929754D01*
X154232657Y-110929955D01*
X154249779Y-110871648D01*
X154252045Y-110868246D01*
X154258213Y-110859310D01*
X154267810Y-110845407D01*
X154321674Y-110703379D01*
X154339983Y-110552588D01*
X154321674Y-110401797D01*
X154267810Y-110259769D01*
X154181521Y-110134758D01*
X154067823Y-110034031D01*
X154067821Y-110034030D01*
X154067820Y-110034029D01*
X153968543Y-109981924D01*
X153918331Y-109933340D01*
X153902356Y-109865321D01*
X153925691Y-109799463D01*
X153955737Y-109770073D01*
X153957925Y-109768561D01*
X153957934Y-109768557D01*
X154071632Y-109667830D01*
X154157921Y-109542819D01*
X154211785Y-109400791D01*
X154230094Y-109250000D01*
X154211785Y-109099209D01*
X154157921Y-108957181D01*
X154071632Y-108832170D01*
X153957934Y-108731443D01*
X153823434Y-108660852D01*
X153823433Y-108660851D01*
X153823432Y-108660851D01*
X153675950Y-108624500D01*
X153675949Y-108624500D01*
X153524051Y-108624500D01*
X153524050Y-108624500D01*
X153376567Y-108660851D01*
X153242067Y-108731442D01*
X153128367Y-108832171D01*
X153042080Y-108957179D01*
X153042079Y-108957180D01*
X152988215Y-109099208D01*
X152976923Y-109192210D01*
X152969906Y-109250000D01*
X152988215Y-109400791D01*
X153042079Y-109542819D01*
X153128368Y-109667830D01*
X153242066Y-109768557D01*
X153341346Y-109820663D01*
X153391557Y-109869247D01*
X153407532Y-109937266D01*
X153384197Y-110003124D01*
X153354165Y-110032505D01*
X153351959Y-110034027D01*
X153238256Y-110134759D01*
X153151969Y-110259767D01*
X153151968Y-110259768D01*
X153098104Y-110401796D01*
X153078891Y-110560033D01*
X153077230Y-110559831D01*
X153060110Y-110618138D01*
X153057846Y-110621538D01*
X153046336Y-110638214D01*
X153042079Y-110644381D01*
X153023940Y-110692211D01*
X152995414Y-110767426D01*
X152953236Y-110823128D01*
X152887638Y-110847185D01*
X152819448Y-110831958D01*
X152797245Y-110816269D01*
X152757935Y-110781443D01*
X152623432Y-110710851D01*
X152475950Y-110674500D01*
X152475949Y-110674500D01*
X152324051Y-110674500D01*
X152324050Y-110674500D01*
X152259954Y-110690298D01*
X152190151Y-110687229D01*
X152133089Y-110646909D01*
X152107183Y-110584847D01*
X152107102Y-110584182D01*
X152096785Y-110499209D01*
X152042921Y-110357181D01*
X151956632Y-110232170D01*
X151842934Y-110131443D01*
X151708434Y-110060852D01*
X151708433Y-110060851D01*
X151708432Y-110060851D01*
X151560950Y-110024500D01*
X151560949Y-110024500D01*
X151409051Y-110024500D01*
X151409050Y-110024500D01*
X151261567Y-110060851D01*
X151127067Y-110131442D01*
X151013366Y-110232171D01*
X150991466Y-110263898D01*
X150937181Y-110307887D01*
X150867732Y-110315544D01*
X150859743Y-110313852D01*
X150760950Y-110289502D01*
X150760949Y-110289502D01*
X150609051Y-110289502D01*
X150609050Y-110289502D01*
X150461567Y-110325853D01*
X150327063Y-110396446D01*
X150322917Y-110399308D01*
X150256560Y-110421185D01*
X150194860Y-110407049D01*
X150123432Y-110369561D01*
X149975950Y-110333210D01*
X149975949Y-110333210D01*
X149824051Y-110333210D01*
X149824050Y-110333210D01*
X149676567Y-110369561D01*
X149542067Y-110440152D01*
X149542066Y-110440153D01*
X149444089Y-110526953D01*
X149428367Y-110540881D01*
X149342080Y-110665889D01*
X149342079Y-110665890D01*
X149288215Y-110807918D01*
X149281125Y-110866314D01*
X149269906Y-110958710D01*
X147270857Y-110958710D01*
X147295690Y-110893229D01*
X147337868Y-110837528D01*
X147403466Y-110813471D01*
X147408586Y-110813302D01*
X147409410Y-110813202D01*
X147409411Y-110813202D01*
X147556896Y-110776850D01*
X147691396Y-110706259D01*
X147805094Y-110605532D01*
X147891383Y-110480521D01*
X147945247Y-110338493D01*
X147963556Y-110187702D01*
X147945247Y-110036911D01*
X147945246Y-110036908D01*
X147945077Y-110035516D01*
X147956537Y-109966592D01*
X148003441Y-109914806D01*
X148038495Y-109900173D01*
X148131449Y-109877262D01*
X148265949Y-109806671D01*
X148379647Y-109705944D01*
X148465936Y-109580933D01*
X148519800Y-109438905D01*
X148538109Y-109288114D01*
X148519800Y-109137323D01*
X148465936Y-108995295D01*
X148379647Y-108870284D01*
X148265949Y-108769557D01*
X148131449Y-108698966D01*
X148131448Y-108698965D01*
X148131447Y-108698965D01*
X147983965Y-108662614D01*
X147983964Y-108662614D01*
X147832066Y-108662614D01*
X147832065Y-108662614D01*
X147684582Y-108698965D01*
X147550082Y-108769556D01*
X147436377Y-108870289D01*
X147435504Y-108871275D01*
X147434685Y-108871788D01*
X147430769Y-108875258D01*
X147430191Y-108874606D01*
X147376310Y-108908395D01*
X147306445Y-108907619D01*
X147248090Y-108869195D01*
X147240653Y-108859485D01*
X147200249Y-108800949D01*
X147179204Y-108745456D01*
X147169801Y-108668009D01*
X147149372Y-108614145D01*
X147115937Y-108525982D01*
X147029648Y-108400971D01*
X146915950Y-108300244D01*
X146781450Y-108229653D01*
X146781449Y-108229652D01*
X146781448Y-108229652D01*
X146633966Y-108193301D01*
X146633965Y-108193301D01*
X146482067Y-108193301D01*
X146482066Y-108193301D01*
X146334583Y-108229652D01*
X146200083Y-108300243D01*
X146086383Y-108400972D01*
X146000096Y-108525980D01*
X146000095Y-108525981D01*
X145946231Y-108668009D01*
X145933901Y-108769556D01*
X145927922Y-108818801D01*
X145946231Y-108969592D01*
X146000095Y-109111620D01*
X146003148Y-109116043D01*
X146066147Y-109207313D01*
X146087193Y-109262805D01*
X146096598Y-109340257D01*
X146137918Y-109449208D01*
X146150462Y-109482284D01*
X146236751Y-109607295D01*
X146350449Y-109708022D01*
X146484949Y-109778613D01*
X146632434Y-109814965D01*
X146639878Y-109815869D01*
X146639513Y-109818872D01*
X146693244Y-109834650D01*
X146738999Y-109887454D01*
X146748943Y-109956612D01*
X146742146Y-109982939D01*
X146737771Y-109994474D01*
X146695591Y-110050176D01*
X146629993Y-110074231D01*
X146624875Y-110074399D01*
X146624051Y-110074499D01*
X146476567Y-110110851D01*
X146342067Y-110181442D01*
X146314884Y-110205524D01*
X146270877Y-110244511D01*
X146228367Y-110282171D01*
X146142080Y-110407179D01*
X146142079Y-110407180D01*
X146088215Y-110549208D01*
X146069906Y-110700000D01*
X146088215Y-110850791D01*
X146142079Y-110992819D01*
X146145566Y-110999463D01*
X146143380Y-111000610D01*
X146161526Y-111055668D01*
X146144049Y-111123317D01*
X146119821Y-111152545D01*
X146086384Y-111182167D01*
X146000095Y-111307179D01*
X146000094Y-111307180D01*
X145946230Y-111449208D01*
X145938551Y-111512455D01*
X145927921Y-111600000D01*
X137953545Y-111600000D01*
X137953223Y-111598691D01*
X137955862Y-111598040D01*
X137951461Y-111541146D01*
X137956836Y-111522827D01*
X137957093Y-111522149D01*
X137957096Y-111522145D01*
X138010960Y-111380117D01*
X138029269Y-111229326D01*
X138010960Y-111078535D01*
X137994078Y-111034023D01*
X137986924Y-110975106D01*
X138005095Y-110825454D01*
X137986786Y-110674663D01*
X137985882Y-110667217D01*
X137987817Y-110666981D01*
X137990444Y-110607251D01*
X137991820Y-110603433D01*
X138011785Y-110550791D01*
X138030094Y-110400000D01*
X138011785Y-110249209D01*
X137957921Y-110107181D01*
X137871632Y-109982170D01*
X137757934Y-109881443D01*
X137623434Y-109810852D01*
X137623433Y-109810851D01*
X137623432Y-109810851D01*
X137475950Y-109774500D01*
X137475949Y-109774500D01*
X137324051Y-109774500D01*
X137324049Y-109774500D01*
X137225149Y-109798876D01*
X137155347Y-109795807D01*
X137098285Y-109755486D01*
X137072080Y-109690717D01*
X137072378Y-109663540D01*
X137080094Y-109600000D01*
X137061785Y-109449209D01*
X137007921Y-109307181D01*
X136921632Y-109182170D01*
X136807934Y-109081443D01*
X136673434Y-109010852D01*
X136673433Y-109010851D01*
X136673432Y-109010851D01*
X136525950Y-108974500D01*
X136525949Y-108974500D01*
X136500443Y-108974500D01*
X136433404Y-108954815D01*
X136398393Y-108920940D01*
X136381624Y-108896646D01*
X136371632Y-108882170D01*
X136257934Y-108781443D01*
X136123434Y-108710852D01*
X136123433Y-108710851D01*
X136123432Y-108710851D01*
X135975950Y-108674500D01*
X135975949Y-108674500D01*
X135824051Y-108674500D01*
X135824050Y-108674500D01*
X135676567Y-108710851D01*
X135542067Y-108781442D01*
X135542066Y-108781443D01*
X135441784Y-108870285D01*
X135428367Y-108882171D01*
X135342080Y-109007179D01*
X135342079Y-109007180D01*
X135288215Y-109149208D01*
X135269906Y-109300000D01*
X135286023Y-109432746D01*
X135274562Y-109501669D01*
X135227658Y-109553455D01*
X135160202Y-109571661D01*
X135093611Y-109550508D01*
X135075246Y-109535372D01*
X135012135Y-109472261D01*
X134873705Y-109385279D01*
X134764797Y-109347171D01*
X134708021Y-109306449D01*
X134682273Y-109241496D01*
X134695729Y-109172935D01*
X134739777Y-109125136D01*
X134861271Y-109048797D01*
X134976875Y-108933193D01*
X135063856Y-108794764D01*
X135117853Y-108640450D01*
X135117854Y-108640444D01*
X135136158Y-108477992D01*
X135136158Y-108477985D01*
X135117854Y-108315533D01*
X135117853Y-108315531D01*
X135117853Y-108315528D01*
X135063856Y-108161214D01*
X134976875Y-108022785D01*
X134861271Y-107907181D01*
X134722841Y-107820199D01*
X134568522Y-107766201D01*
X134406071Y-107747898D01*
X134406063Y-107747898D01*
X134243611Y-107766201D01*
X134089292Y-107820199D01*
X133950862Y-107907181D01*
X133835259Y-108022784D01*
X133748277Y-108161214D01*
X133694279Y-108315533D01*
X133675976Y-108477985D01*
X133675976Y-108477992D01*
X133694279Y-108640444D01*
X133748277Y-108794763D01*
X133837498Y-108936757D01*
X133856498Y-109003994D01*
X133836130Y-109070829D01*
X133782862Y-109116043D01*
X133746388Y-109125949D01*
X133637544Y-109138212D01*
X133483224Y-109192210D01*
X133364443Y-109266846D01*
X133297206Y-109285846D01*
X133284588Y-109285072D01*
X133150004Y-109269909D01*
X133149996Y-109269909D01*
X132987544Y-109288212D01*
X132833225Y-109342210D01*
X132694795Y-109429192D01*
X132579192Y-109544795D01*
X132492210Y-109683225D01*
X132438212Y-109837544D01*
X132419909Y-109999996D01*
X132419909Y-110000003D01*
X132438212Y-110162455D01*
X132492210Y-110316774D01*
X132579192Y-110455204D01*
X132664807Y-110540819D01*
X132698292Y-110602142D01*
X132693308Y-110671834D01*
X132651436Y-110727767D01*
X132585972Y-110752184D01*
X132577126Y-110752500D01*
X132180000Y-110752500D01*
X132180000Y-111452500D01*
X131680000Y-111452500D01*
X131680000Y-110752500D01*
X131281504Y-110752500D01*
X131088318Y-110790927D01*
X131088306Y-110790930D01*
X130906328Y-110866307D01*
X130906315Y-110866314D01*
X130742537Y-110975748D01*
X130742533Y-110975751D01*
X130603251Y-111115033D01*
X130603248Y-111115037D01*
X130493814Y-111278815D01*
X130493809Y-111278825D01*
X130422247Y-111451592D01*
X130378406Y-111505995D01*
X130312112Y-111528060D01*
X130244412Y-111510781D01*
X130205636Y-111474579D01*
X130188124Y-111449209D01*
X130121633Y-111352880D01*
X130007935Y-111252153D01*
X129873435Y-111181562D01*
X129873434Y-111181561D01*
X129873433Y-111181561D01*
X129725951Y-111145210D01*
X129725950Y-111145210D01*
X129574052Y-111145210D01*
X129574051Y-111145210D01*
X129426568Y-111181561D01*
X129292068Y-111252152D01*
X129292067Y-111252153D01*
X129237453Y-111300537D01*
X129226297Y-111310420D01*
X129163063Y-111340141D01*
X129093800Y-111330957D01*
X129040497Y-111285785D01*
X129037704Y-111281088D01*
X128926751Y-111115037D01*
X128926748Y-111115033D01*
X128787466Y-110975751D01*
X128787462Y-110975748D01*
X128623684Y-110866314D01*
X128623671Y-110866307D01*
X128441693Y-110790930D01*
X128441681Y-110790927D01*
X128248495Y-110752500D01*
X128000000Y-110752500D01*
X128000000Y-111452500D01*
X127500000Y-111452500D01*
X127500000Y-110752500D01*
X127251504Y-110752500D01*
X127058318Y-110790927D01*
X127058306Y-110790930D01*
X127021952Y-110805989D01*
X126952483Y-110813458D01*
X126890004Y-110782183D01*
X126854352Y-110722094D01*
X126850500Y-110691428D01*
X126850500Y-106400000D01*
X138169906Y-106400000D01*
X138188215Y-106550791D01*
X138242079Y-106692819D01*
X138328368Y-106817830D01*
X138442066Y-106918557D01*
X138576566Y-106989148D01*
X138650308Y-107007324D01*
X138724050Y-107025500D01*
X138724051Y-107025500D01*
X138875950Y-107025500D01*
X138925110Y-107013382D01*
X139023434Y-106989148D01*
X139157934Y-106918557D01*
X139271632Y-106817830D01*
X139357921Y-106692819D01*
X139411785Y-106550791D01*
X139430094Y-106400000D01*
X139411785Y-106249209D01*
X139379652Y-106164480D01*
X140954485Y-106164480D01*
X140972794Y-106315271D01*
X141026658Y-106457299D01*
X141112947Y-106582310D01*
X141226645Y-106683037D01*
X141361145Y-106753628D01*
X141434887Y-106771804D01*
X141508629Y-106789980D01*
X141508630Y-106789980D01*
X141660529Y-106789980D01*
X141709689Y-106777862D01*
X141808013Y-106753628D01*
X141942513Y-106683037D01*
X142056211Y-106582310D01*
X142142500Y-106457299D01*
X142196364Y-106315271D01*
X142214673Y-106164480D01*
X142196364Y-106013689D01*
X142142500Y-105871661D01*
X142093036Y-105800000D01*
X144669906Y-105800000D01*
X144688215Y-105950791D01*
X144742079Y-106092819D01*
X144828368Y-106217830D01*
X144942066Y-106318557D01*
X145076566Y-106389148D01*
X145120594Y-106400000D01*
X145224050Y-106425500D01*
X145224051Y-106425500D01*
X145375950Y-106425500D01*
X145425110Y-106413382D01*
X145523434Y-106389148D01*
X145657934Y-106318557D01*
X145771632Y-106217830D01*
X145857921Y-106092819D01*
X145911785Y-105950791D01*
X145930094Y-105800000D01*
X145911785Y-105649209D01*
X145857921Y-105507181D01*
X145857920Y-105507179D01*
X145855261Y-105500168D01*
X145857351Y-105499375D01*
X145845803Y-105441740D01*
X145862160Y-105399997D01*
X146569906Y-105399997D01*
X146588214Y-105550785D01*
X146588214Y-105550787D01*
X146588215Y-105550788D01*
X146590201Y-105556025D01*
X146595570Y-105625687D01*
X146590203Y-105643966D01*
X146588216Y-105649204D01*
X146588214Y-105649212D01*
X146569906Y-105800000D01*
X146588215Y-105950791D01*
X146608765Y-106004977D01*
X146614132Y-106074640D01*
X146609995Y-106088729D01*
X146609327Y-106091439D01*
X146591019Y-106242227D01*
X146609328Y-106393018D01*
X146663192Y-106535046D01*
X146663193Y-106535047D01*
X146749482Y-106660059D01*
X146754455Y-106665672D01*
X146752342Y-106667543D01*
X146782473Y-106715608D01*
X146786205Y-106734250D01*
X146788213Y-106750783D01*
X146788215Y-106750794D01*
X146836944Y-106879279D01*
X146842079Y-106892819D01*
X146928368Y-107017830D01*
X147042066Y-107118557D01*
X147176566Y-107189148D01*
X147283454Y-107215493D01*
X147323296Y-107225314D01*
X147383677Y-107260470D01*
X147415465Y-107322690D01*
X147408569Y-107392218D01*
X147395671Y-107416151D01*
X147350095Y-107482179D01*
X147350094Y-107482180D01*
X147305415Y-107599991D01*
X147296230Y-107624209D01*
X147277921Y-107775000D01*
X147296230Y-107925791D01*
X147350094Y-108067819D01*
X147436383Y-108192830D01*
X147550081Y-108293557D01*
X147684581Y-108364148D01*
X147758323Y-108382324D01*
X147832065Y-108400500D01*
X147832066Y-108400500D01*
X147983965Y-108400500D01*
X148033125Y-108388382D01*
X148131449Y-108364148D01*
X148265949Y-108293557D01*
X148379647Y-108192830D01*
X148465936Y-108067819D01*
X148491656Y-108000000D01*
X150469906Y-108000000D01*
X150488215Y-108150791D01*
X150542079Y-108292819D01*
X150628368Y-108417830D01*
X150742066Y-108518557D01*
X150876566Y-108589148D01*
X150950308Y-108607324D01*
X151024050Y-108625500D01*
X151024051Y-108625500D01*
X151175950Y-108625500D01*
X151225110Y-108613382D01*
X151323434Y-108589148D01*
X151457934Y-108518557D01*
X151571632Y-108417830D01*
X151657921Y-108292819D01*
X151711785Y-108150791D01*
X151730094Y-108000000D01*
X151711785Y-107849209D01*
X151657921Y-107707181D01*
X151638940Y-107679682D01*
X151617057Y-107613327D01*
X151634523Y-107545676D01*
X151685790Y-107498206D01*
X151711312Y-107488846D01*
X151794155Y-107468427D01*
X151829265Y-107450000D01*
X153419906Y-107450000D01*
X153438215Y-107600791D01*
X153492079Y-107742819D01*
X153578368Y-107867830D01*
X153692066Y-107968557D01*
X153826566Y-108039148D01*
X153900308Y-108057324D01*
X153974050Y-108075500D01*
X153974051Y-108075500D01*
X154125950Y-108075500D01*
X154175110Y-108063382D01*
X154273434Y-108039148D01*
X154407934Y-107968557D01*
X154521632Y-107867830D01*
X154607921Y-107742819D01*
X154661785Y-107600791D01*
X154680094Y-107450000D01*
X154661785Y-107299209D01*
X154607921Y-107157181D01*
X154521632Y-107032170D01*
X154407934Y-106931443D01*
X154273434Y-106860852D01*
X154273433Y-106860851D01*
X154273432Y-106860851D01*
X154125950Y-106824500D01*
X154125949Y-106824500D01*
X153974051Y-106824500D01*
X153974050Y-106824500D01*
X153826567Y-106860851D01*
X153692067Y-106931442D01*
X153692066Y-106931443D01*
X153580739Y-107030070D01*
X153578367Y-107032171D01*
X153492080Y-107157179D01*
X153492079Y-107157180D01*
X153438215Y-107299208D01*
X153434395Y-107330668D01*
X153419906Y-107450000D01*
X151829265Y-107450000D01*
X151928655Y-107397836D01*
X152042353Y-107297109D01*
X152128642Y-107172098D01*
X152182506Y-107030070D01*
X152200815Y-106879279D01*
X152182506Y-106728488D01*
X152128642Y-106586460D01*
X152042353Y-106461449D01*
X151928655Y-106360722D01*
X151794155Y-106290131D01*
X151794154Y-106290130D01*
X151794153Y-106290130D01*
X151646671Y-106253779D01*
X151646670Y-106253779D01*
X151494772Y-106253779D01*
X151494771Y-106253779D01*
X151347288Y-106290130D01*
X151212788Y-106360721D01*
X151212787Y-106360722D01*
X151103774Y-106457299D01*
X151099088Y-106461450D01*
X151012801Y-106586458D01*
X151012800Y-106586459D01*
X150958936Y-106728487D01*
X150940627Y-106879279D01*
X150958936Y-107030070D01*
X151012800Y-107172098D01*
X151031781Y-107199597D01*
X151053663Y-107265952D01*
X151036197Y-107333603D01*
X150984929Y-107381072D01*
X150959406Y-107390432D01*
X150876572Y-107410849D01*
X150876569Y-107410850D01*
X150742067Y-107481442D01*
X150724275Y-107497204D01*
X150669562Y-107545676D01*
X150628367Y-107582171D01*
X150542080Y-107707179D01*
X150542079Y-107707180D01*
X150499217Y-107820200D01*
X150488215Y-107849209D01*
X150469906Y-108000000D01*
X148491656Y-108000000D01*
X148519800Y-107925791D01*
X148538109Y-107775000D01*
X148519800Y-107624209D01*
X148465936Y-107482181D01*
X148379647Y-107357170D01*
X148265949Y-107256443D01*
X148131449Y-107185852D01*
X148131448Y-107185851D01*
X148131447Y-107185851D01*
X147984717Y-107149685D01*
X147924337Y-107114528D01*
X147892549Y-107052308D01*
X147899445Y-106982780D01*
X147912337Y-106958857D01*
X147952964Y-106900000D01*
X149269906Y-106900000D01*
X149288215Y-107050791D01*
X149342079Y-107192819D01*
X149428368Y-107317830D01*
X149542066Y-107418557D01*
X149676566Y-107489148D01*
X149739983Y-107504779D01*
X149824050Y-107525500D01*
X149824051Y-107525500D01*
X149975950Y-107525500D01*
X150025110Y-107513382D01*
X150123434Y-107489148D01*
X150257934Y-107418557D01*
X150371632Y-107317830D01*
X150457921Y-107192819D01*
X150511785Y-107050791D01*
X150530094Y-106900000D01*
X150516202Y-106785590D01*
X150527662Y-106716669D01*
X150537248Y-106700206D01*
X150542347Y-106692819D01*
X150607921Y-106597819D01*
X150661785Y-106455791D01*
X150680094Y-106305000D01*
X150661785Y-106154209D01*
X150607921Y-106012181D01*
X150521632Y-105887170D01*
X150407934Y-105786443D01*
X150273434Y-105715852D01*
X150273433Y-105715851D01*
X150273432Y-105715851D01*
X150125950Y-105679500D01*
X150125949Y-105679500D01*
X149974051Y-105679500D01*
X149974050Y-105679500D01*
X149826567Y-105715851D01*
X149692067Y-105786442D01*
X149692066Y-105786443D01*
X149584833Y-105881443D01*
X149578367Y-105887171D01*
X149492080Y-106012179D01*
X149492079Y-106012180D01*
X149438215Y-106154208D01*
X149419906Y-106305000D01*
X149433797Y-106419408D01*
X149422336Y-106488332D01*
X149412751Y-106504794D01*
X149342080Y-106607179D01*
X149342079Y-106607180D01*
X149288215Y-106749208D01*
X149287678Y-106753628D01*
X149269906Y-106900000D01*
X147952964Y-106900000D01*
X147957921Y-106892819D01*
X148011785Y-106750791D01*
X148030094Y-106600000D01*
X148011785Y-106449209D01*
X147957921Y-106307181D01*
X147871632Y-106182170D01*
X147871630Y-106182167D01*
X147866654Y-106176550D01*
X147868771Y-106174674D01*
X147838647Y-106126647D01*
X147834905Y-106107967D01*
X147834809Y-106107180D01*
X147832898Y-106091436D01*
X147812346Y-106037248D01*
X147806980Y-105967586D01*
X147811121Y-105953483D01*
X147811785Y-105950791D01*
X147813416Y-105937361D01*
X147830094Y-105800000D01*
X147811785Y-105649209D01*
X147809797Y-105643966D01*
X147804429Y-105574309D01*
X147809798Y-105556026D01*
X147811785Y-105550788D01*
X147830094Y-105399997D01*
X147811785Y-105249206D01*
X147757921Y-105107178D01*
X147671632Y-104982167D01*
X147557934Y-104881440D01*
X147423434Y-104810849D01*
X147423433Y-104810848D01*
X147423432Y-104810848D01*
X147275950Y-104774497D01*
X147275949Y-104774497D01*
X147124051Y-104774497D01*
X147124050Y-104774497D01*
X146976567Y-104810848D01*
X146842067Y-104881439D01*
X146728367Y-104982168D01*
X146642080Y-105107176D01*
X146642079Y-105107177D01*
X146588215Y-105249205D01*
X146569906Y-105399997D01*
X145862160Y-105399997D01*
X145871294Y-105376686D01*
X145911698Y-105342823D01*
X145957934Y-105318557D01*
X146071632Y-105217830D01*
X146157921Y-105092819D01*
X146211785Y-104950791D01*
X146230094Y-104800000D01*
X146211785Y-104649209D01*
X146157921Y-104507181D01*
X146071632Y-104382170D01*
X145957934Y-104281443D01*
X145957932Y-104281442D01*
X145952320Y-104276470D01*
X145953301Y-104275362D01*
X145914616Y-104227616D01*
X145906962Y-104158167D01*
X145938071Y-104095605D01*
X145998064Y-104059793D01*
X145999228Y-104059498D01*
X146139865Y-104024835D01*
X146274365Y-103954244D01*
X146388063Y-103853517D01*
X146474352Y-103728506D01*
X146528216Y-103586478D01*
X146546525Y-103435687D01*
X146528216Y-103284896D01*
X146474352Y-103142868D01*
X146388063Y-103017857D01*
X146274365Y-102917130D01*
X146139865Y-102846539D01*
X146139864Y-102846538D01*
X146139863Y-102846538D01*
X145992381Y-102810187D01*
X145992380Y-102810187D01*
X145840482Y-102810187D01*
X145840481Y-102810187D01*
X145692998Y-102846538D01*
X145558498Y-102917129D01*
X145444798Y-103017858D01*
X145358511Y-103142866D01*
X145358510Y-103142867D01*
X145304646Y-103284895D01*
X145298059Y-103339148D01*
X145286337Y-103435687D01*
X145304646Y-103586478D01*
X145358510Y-103728506D01*
X145444799Y-103853517D01*
X145558497Y-103954244D01*
X145558498Y-103954244D01*
X145564111Y-103959217D01*
X145563128Y-103960325D01*
X145601813Y-104008065D01*
X145609469Y-104077514D01*
X145578363Y-104140078D01*
X145518370Y-104175892D01*
X145517056Y-104176224D01*
X145376567Y-104210851D01*
X145242067Y-104281442D01*
X145128367Y-104382171D01*
X145042080Y-104507179D01*
X145042079Y-104507180D01*
X144988215Y-104649208D01*
X144976942Y-104742049D01*
X144969906Y-104800000D01*
X144988215Y-104950791D01*
X145023424Y-105043631D01*
X145044739Y-105099832D01*
X145042650Y-105100624D01*
X145054195Y-105158272D01*
X145028697Y-105223323D01*
X144988301Y-105257176D01*
X144942067Y-105281442D01*
X144828367Y-105382171D01*
X144742080Y-105507179D01*
X144742079Y-105507180D01*
X144688215Y-105649208D01*
X144684979Y-105675858D01*
X144669906Y-105800000D01*
X142093036Y-105800000D01*
X142056211Y-105746650D01*
X141942513Y-105645923D01*
X141808013Y-105575332D01*
X141808012Y-105575331D01*
X141808011Y-105575331D01*
X141660529Y-105538980D01*
X141660528Y-105538980D01*
X141508630Y-105538980D01*
X141508629Y-105538980D01*
X141361146Y-105575331D01*
X141226646Y-105645922D01*
X141112946Y-105746651D01*
X141026659Y-105871659D01*
X141026658Y-105871660D01*
X140973367Y-106012179D01*
X140972794Y-106013689D01*
X140954485Y-106164480D01*
X139379652Y-106164480D01*
X139357921Y-106107181D01*
X139271632Y-105982170D01*
X139157934Y-105881443D01*
X139023434Y-105810852D01*
X139023433Y-105810851D01*
X139023432Y-105810851D01*
X138875950Y-105774500D01*
X138875949Y-105774500D01*
X138724051Y-105774500D01*
X138724050Y-105774500D01*
X138576567Y-105810851D01*
X138442067Y-105881442D01*
X138328367Y-105982171D01*
X138242080Y-106107179D01*
X138242079Y-106107180D01*
X138213641Y-106182167D01*
X138188215Y-106249209D01*
X138169906Y-106400000D01*
X126850500Y-106400000D01*
X126850500Y-105018065D01*
X128801840Y-105018065D01*
X128801840Y-105018072D01*
X128820143Y-105180524D01*
X128874141Y-105334843D01*
X128926898Y-105418804D01*
X128961123Y-105473273D01*
X129076727Y-105588877D01*
X129215156Y-105675858D01*
X129369470Y-105729855D01*
X129369473Y-105729855D01*
X129369475Y-105729856D01*
X129531927Y-105748160D01*
X129531931Y-105748160D01*
X129531935Y-105748160D01*
X129694386Y-105729856D01*
X129694387Y-105729855D01*
X129694392Y-105729855D01*
X129848706Y-105675858D01*
X129987135Y-105588877D01*
X129988975Y-105587036D01*
X129990457Y-105586227D01*
X129992578Y-105584536D01*
X129992874Y-105584907D01*
X130050292Y-105553550D01*
X130119984Y-105558529D01*
X130175921Y-105600396D01*
X130192600Y-105630741D01*
X130211092Y-105679500D01*
X130223276Y-105711625D01*
X130235860Y-105729856D01*
X130309564Y-105836634D01*
X130423262Y-105937361D01*
X130557762Y-106007952D01*
X130574912Y-106012179D01*
X130705246Y-106044304D01*
X130705247Y-106044304D01*
X130857146Y-106044304D01*
X130906306Y-106032186D01*
X131004630Y-106007952D01*
X131139130Y-105937361D01*
X131252828Y-105836634D01*
X131339117Y-105711623D01*
X131392981Y-105569595D01*
X131411290Y-105418804D01*
X131392981Y-105268013D01*
X131339117Y-105125985D01*
X131252828Y-105000974D01*
X131139130Y-104900247D01*
X131004630Y-104829656D01*
X131004629Y-104829655D01*
X131004628Y-104829655D01*
X130857146Y-104793304D01*
X130857145Y-104793304D01*
X130705247Y-104793304D01*
X130705246Y-104793304D01*
X130557763Y-104829655D01*
X130416620Y-104903733D01*
X130415757Y-104902089D01*
X130358657Y-104920919D01*
X130291006Y-104903452D01*
X130243538Y-104852182D01*
X130237537Y-104837949D01*
X130189720Y-104701294D01*
X130102739Y-104562865D01*
X129987135Y-104447261D01*
X129848705Y-104360279D01*
X129696955Y-104307180D01*
X129694392Y-104306283D01*
X129694391Y-104306282D01*
X129694386Y-104306281D01*
X129531935Y-104287978D01*
X129531927Y-104287978D01*
X129369475Y-104306281D01*
X129215156Y-104360279D01*
X129076726Y-104447261D01*
X128961123Y-104562864D01*
X128874141Y-104701294D01*
X128820143Y-104855613D01*
X128801840Y-105018065D01*
X126850500Y-105018065D01*
X126850500Y-104235686D01*
X133169908Y-104235686D01*
X133188217Y-104386477D01*
X133242081Y-104528505D01*
X133328370Y-104653516D01*
X133442068Y-104754243D01*
X133576568Y-104824834D01*
X133724053Y-104861186D01*
X133724058Y-104861186D01*
X133728250Y-104861695D01*
X133731109Y-104862925D01*
X133731335Y-104862981D01*
X133731325Y-104863018D01*
X133792430Y-104889311D01*
X133831492Y-104947241D01*
X133836410Y-104969846D01*
X133845369Y-105043631D01*
X133899233Y-105185659D01*
X133985522Y-105310670D01*
X134099220Y-105411397D01*
X134233720Y-105481988D01*
X134304261Y-105499375D01*
X134381204Y-105518340D01*
X134381205Y-105518340D01*
X134533104Y-105518340D01*
X134606829Y-105500168D01*
X134680588Y-105481988D01*
X134815088Y-105411397D01*
X134928786Y-105310670D01*
X135015075Y-105185659D01*
X135068939Y-105043631D01*
X135087248Y-104892840D01*
X135068939Y-104742049D01*
X135044370Y-104677265D01*
X136106288Y-104677265D01*
X136124597Y-104828056D01*
X136178461Y-104970084D01*
X136264750Y-105095095D01*
X136378448Y-105195822D01*
X136512948Y-105266413D01*
X136573923Y-105281442D01*
X136660432Y-105302765D01*
X136660433Y-105302765D01*
X136812332Y-105302765D01*
X136861492Y-105290647D01*
X136959816Y-105266413D01*
X137094316Y-105195822D01*
X137100154Y-105190649D01*
X137138495Y-105156684D01*
X137201728Y-105126963D01*
X137220721Y-105125500D01*
X137225950Y-105125500D01*
X137275110Y-105113382D01*
X137373434Y-105089148D01*
X137507934Y-105018557D01*
X137621632Y-104917830D01*
X137707921Y-104792819D01*
X137761785Y-104650791D01*
X137767952Y-104600000D01*
X142969906Y-104600000D01*
X142988215Y-104750791D01*
X143042079Y-104892819D01*
X143128368Y-105017830D01*
X143242066Y-105118557D01*
X143376566Y-105189148D01*
X143424465Y-105200954D01*
X143524050Y-105225500D01*
X143524051Y-105225500D01*
X143675950Y-105225500D01*
X143735378Y-105210852D01*
X143823434Y-105189148D01*
X143957934Y-105118557D01*
X144071632Y-105017830D01*
X144157921Y-104892819D01*
X144211785Y-104750791D01*
X144230094Y-104600000D01*
X144211785Y-104449209D01*
X144157921Y-104307181D01*
X144071632Y-104182170D01*
X143957934Y-104081443D01*
X143823434Y-104010852D01*
X143823433Y-104010851D01*
X143823432Y-104010851D01*
X143675950Y-103974500D01*
X143675949Y-103974500D01*
X143524051Y-103974500D01*
X143524050Y-103974500D01*
X143376567Y-104010851D01*
X143242067Y-104081442D01*
X143226080Y-104095605D01*
X143135455Y-104175892D01*
X143128367Y-104182171D01*
X143042080Y-104307179D01*
X143042079Y-104307180D01*
X142988215Y-104449208D01*
X142978587Y-104528505D01*
X142969906Y-104600000D01*
X137767952Y-104600000D01*
X137780094Y-104500000D01*
X137761785Y-104349209D01*
X137707921Y-104207181D01*
X137621632Y-104082170D01*
X137507934Y-103981443D01*
X137373434Y-103910852D01*
X137373433Y-103910851D01*
X137373432Y-103910851D01*
X137225950Y-103874500D01*
X137225949Y-103874500D01*
X137074051Y-103874500D01*
X137074050Y-103874500D01*
X136926567Y-103910851D01*
X136792064Y-103981443D01*
X136747887Y-104020581D01*
X136684654Y-104050302D01*
X136665661Y-104051765D01*
X136660432Y-104051765D01*
X136512949Y-104088116D01*
X136378449Y-104158707D01*
X136378448Y-104158708D01*
X136300667Y-104227616D01*
X136264749Y-104259436D01*
X136178462Y-104384444D01*
X136178461Y-104384445D01*
X136124597Y-104526473D01*
X136120178Y-104562865D01*
X136106288Y-104677265D01*
X135044370Y-104677265D01*
X135015075Y-104600021D01*
X134928786Y-104475010D01*
X134815088Y-104374283D01*
X134680588Y-104303692D01*
X134680587Y-104303691D01*
X134680586Y-104303691D01*
X134533102Y-104267339D01*
X134528896Y-104266829D01*
X134526035Y-104265597D01*
X134525821Y-104265545D01*
X134525829Y-104265509D01*
X134464718Y-104239208D01*
X134425661Y-104181275D01*
X134420746Y-104158685D01*
X134411787Y-104084895D01*
X134410477Y-104081442D01*
X134372553Y-103981443D01*
X134357923Y-103942867D01*
X134271634Y-103817856D01*
X134157936Y-103717129D01*
X134023436Y-103646538D01*
X134023435Y-103646537D01*
X134023434Y-103646537D01*
X133878836Y-103610897D01*
X133822561Y-103578131D01*
X133818250Y-103584111D01*
X133753232Y-103609693D01*
X133742180Y-103610186D01*
X133724052Y-103610186D01*
X133576569Y-103646537D01*
X133442069Y-103717128D01*
X133328369Y-103817857D01*
X133242082Y-103942865D01*
X133242081Y-103942866D01*
X133188217Y-104084894D01*
X133181517Y-104140078D01*
X133169908Y-104235686D01*
X126850500Y-104235686D01*
X126850500Y-103375874D01*
X126870185Y-103308835D01*
X126922989Y-103263080D01*
X126992147Y-103253136D01*
X127055703Y-103282161D01*
X127062181Y-103288193D01*
X127144796Y-103370808D01*
X127283225Y-103457789D01*
X127437539Y-103511786D01*
X127437542Y-103511786D01*
X127437544Y-103511787D01*
X127599996Y-103530091D01*
X127600000Y-103530091D01*
X127600004Y-103530091D01*
X127762455Y-103511787D01*
X127762456Y-103511786D01*
X127762461Y-103511786D01*
X127916775Y-103457789D01*
X128055204Y-103370808D01*
X128170808Y-103255204D01*
X128257789Y-103116775D01*
X128311786Y-102962461D01*
X128318735Y-102900791D01*
X128330091Y-102800003D01*
X128330091Y-102799996D01*
X128311787Y-102637544D01*
X128311786Y-102637542D01*
X128311786Y-102637539D01*
X128257789Y-102483225D01*
X128170808Y-102344796D01*
X128055204Y-102229192D01*
X127979211Y-102181442D01*
X127916774Y-102142210D01*
X127762455Y-102088212D01*
X127600004Y-102069909D01*
X127599996Y-102069909D01*
X127437544Y-102088212D01*
X127283225Y-102142210D01*
X127144795Y-102229192D01*
X127062181Y-102311807D01*
X127000858Y-102345292D01*
X126931166Y-102340308D01*
X126875233Y-102298436D01*
X126850816Y-102232972D01*
X126850500Y-102224126D01*
X126850500Y-100599996D01*
X132569909Y-100599996D01*
X132569909Y-100600003D01*
X132588212Y-100762455D01*
X132642210Y-100916774D01*
X132678482Y-100974500D01*
X132729192Y-101055204D01*
X132844796Y-101170808D01*
X132919459Y-101217722D01*
X132983227Y-101257790D01*
X133018965Y-101270296D01*
X133075741Y-101311017D01*
X133101488Y-101375970D01*
X133100950Y-101403516D01*
X133099501Y-101414531D01*
X133099500Y-101414535D01*
X133099500Y-101785468D01*
X133115062Y-101903681D01*
X133115064Y-101903686D01*
X133175988Y-102050771D01*
X133175990Y-102050775D01*
X133201577Y-102084121D01*
X133226770Y-102149290D01*
X133212731Y-102217735D01*
X133206304Y-102228495D01*
X133184913Y-102260509D01*
X133128343Y-102397082D01*
X133128340Y-102397092D01*
X133099500Y-102542079D01*
X133099500Y-102542082D01*
X133099500Y-102689918D01*
X133099500Y-102689920D01*
X133099499Y-102689920D01*
X133128340Y-102834907D01*
X133128343Y-102834917D01*
X133184912Y-102971488D01*
X133184919Y-102971501D01*
X133267048Y-103094415D01*
X133267051Y-103094419D01*
X133371580Y-103198948D01*
X133371584Y-103198951D01*
X133494498Y-103281080D01*
X133494511Y-103281087D01*
X133601735Y-103325500D01*
X133631087Y-103337658D01*
X133631091Y-103337658D01*
X133631092Y-103337659D01*
X133766372Y-103364569D01*
X133828283Y-103396954D01*
X133829349Y-103398827D01*
X133836954Y-103389230D01*
X133903065Y-103366620D01*
X133908511Y-103366500D01*
X134223920Y-103366500D01*
X134321462Y-103347096D01*
X134368913Y-103337658D01*
X134496292Y-103284896D01*
X134505488Y-103281087D01*
X134505488Y-103281086D01*
X134505495Y-103281084D01*
X134628416Y-103198951D01*
X134732951Y-103094416D01*
X134815084Y-102971495D01*
X134818829Y-102962455D01*
X134866842Y-102846539D01*
X134871658Y-102834913D01*
X134888549Y-102750000D01*
X134900500Y-102689920D01*
X134900500Y-102542079D01*
X134871659Y-102397092D01*
X134871658Y-102397091D01*
X134871658Y-102397087D01*
X134867818Y-102387817D01*
X137855990Y-102387817D01*
X137855990Y-102387824D01*
X137874293Y-102550276D01*
X137928291Y-102704595D01*
X137988240Y-102800003D01*
X138015273Y-102843025D01*
X138130877Y-102958629D01*
X138269306Y-103045610D01*
X138423620Y-103099607D01*
X138423626Y-103099607D01*
X138423628Y-103099608D01*
X138430040Y-103100331D01*
X138494454Y-103127397D01*
X138518207Y-103153110D01*
X138528366Y-103167828D01*
X138528367Y-103167829D01*
X138528368Y-103167830D01*
X138642066Y-103268557D01*
X138776566Y-103339148D01*
X138850308Y-103357324D01*
X138924050Y-103375500D01*
X138924051Y-103375500D01*
X139075950Y-103375500D01*
X139125110Y-103363382D01*
X139223434Y-103339148D01*
X139357934Y-103268557D01*
X139471632Y-103167830D01*
X139557921Y-103042819D01*
X139611785Y-102900791D01*
X139624023Y-102800000D01*
X149869906Y-102800000D01*
X149888215Y-102950791D01*
X149942079Y-103092819D01*
X150028368Y-103217830D01*
X150142066Y-103318557D01*
X150276566Y-103389148D01*
X150315835Y-103398827D01*
X150424050Y-103425500D01*
X150424051Y-103425500D01*
X150575950Y-103425500D01*
X150625110Y-103413382D01*
X150723434Y-103389148D01*
X150857934Y-103318557D01*
X150971632Y-103217830D01*
X151057921Y-103092819D01*
X151111785Y-102950791D01*
X151130094Y-102800000D01*
X151129142Y-102792157D01*
X151777749Y-102792157D01*
X151796058Y-102942948D01*
X151849922Y-103084976D01*
X151936211Y-103209987D01*
X152049909Y-103310714D01*
X152184409Y-103381305D01*
X152216562Y-103389230D01*
X152331893Y-103417657D01*
X152331894Y-103417657D01*
X152483793Y-103417657D01*
X152533756Y-103405342D01*
X152631277Y-103381305D01*
X152765777Y-103310714D01*
X152879475Y-103209987D01*
X152965764Y-103084976D01*
X153019628Y-102942948D01*
X153037937Y-102792157D01*
X153019628Y-102641366D01*
X152965764Y-102499338D01*
X152879475Y-102374327D01*
X152765777Y-102273600D01*
X152631277Y-102203009D01*
X152631276Y-102203008D01*
X152631275Y-102203008D01*
X152483793Y-102166657D01*
X152483792Y-102166657D01*
X152331894Y-102166657D01*
X152331893Y-102166657D01*
X152184410Y-102203008D01*
X152049910Y-102273599D01*
X151936210Y-102374328D01*
X151849923Y-102499336D01*
X151849922Y-102499337D01*
X151815862Y-102589148D01*
X151796058Y-102641366D01*
X151777749Y-102792157D01*
X151129142Y-102792157D01*
X151111785Y-102649209D01*
X151057921Y-102507181D01*
X150971632Y-102382170D01*
X150857934Y-102281443D01*
X150723434Y-102210852D01*
X150723433Y-102210851D01*
X150723432Y-102210851D01*
X150575950Y-102174500D01*
X150575949Y-102174500D01*
X150424051Y-102174500D01*
X150424050Y-102174500D01*
X150276567Y-102210851D01*
X150142067Y-102281442D01*
X150028367Y-102382171D01*
X149942080Y-102507179D01*
X149942079Y-102507180D01*
X149891190Y-102641365D01*
X149888215Y-102649209D01*
X149869906Y-102800000D01*
X139624023Y-102800000D01*
X139630094Y-102750000D01*
X139611785Y-102599209D01*
X139557921Y-102457181D01*
X139471632Y-102332170D01*
X139357934Y-102231443D01*
X139330233Y-102216904D01*
X139280023Y-102168321D01*
X139270819Y-102148063D01*
X139268771Y-102142211D01*
X139243870Y-102071046D01*
X139199229Y-102000000D01*
X147569906Y-102000000D01*
X147588215Y-102150791D01*
X147642079Y-102292819D01*
X147728368Y-102417830D01*
X147842066Y-102518557D01*
X147976566Y-102589148D01*
X148017381Y-102599208D01*
X148124050Y-102625500D01*
X148124051Y-102625500D01*
X148275950Y-102625500D01*
X148325110Y-102613382D01*
X148423434Y-102589148D01*
X148557934Y-102518557D01*
X148671632Y-102417830D01*
X148757921Y-102292819D01*
X148757923Y-102292812D01*
X148758414Y-102291879D01*
X148758958Y-102291316D01*
X148762182Y-102286646D01*
X148762958Y-102287181D01*
X148806996Y-102241664D01*
X148868213Y-102225500D01*
X148875950Y-102225500D01*
X148925110Y-102213382D01*
X149023434Y-102189148D01*
X149157934Y-102118557D01*
X149271632Y-102017830D01*
X149357921Y-101892819D01*
X149411785Y-101750791D01*
X149430094Y-101600000D01*
X149417952Y-101499996D01*
X152769909Y-101499996D01*
X152769909Y-101500003D01*
X152788212Y-101662455D01*
X152842210Y-101816774D01*
X152886380Y-101887070D01*
X152929192Y-101955204D01*
X153044796Y-102070808D01*
X153183225Y-102157789D01*
X153337539Y-102211786D01*
X153337542Y-102211786D01*
X153337544Y-102211787D01*
X153499996Y-102230091D01*
X153500000Y-102230091D01*
X153500004Y-102230091D01*
X153662455Y-102211787D01*
X153662456Y-102211786D01*
X153662461Y-102211786D01*
X153816775Y-102157789D01*
X153955204Y-102070808D01*
X154070808Y-101955204D01*
X154157789Y-101816775D01*
X154211786Y-101662461D01*
X154211913Y-101661333D01*
X154230091Y-101500003D01*
X154230091Y-101499996D01*
X154211787Y-101337544D01*
X154211786Y-101337542D01*
X154211786Y-101337539D01*
X154157789Y-101183225D01*
X154070808Y-101044796D01*
X153955204Y-100929192D01*
X153935441Y-100916774D01*
X153816774Y-100842210D01*
X153662455Y-100788212D01*
X153500004Y-100769909D01*
X153499996Y-100769909D01*
X153337544Y-100788212D01*
X153183225Y-100842210D01*
X153044795Y-100929192D01*
X152929192Y-101044795D01*
X152842210Y-101183225D01*
X152788212Y-101337544D01*
X152769909Y-101499996D01*
X149417952Y-101499996D01*
X149411785Y-101449209D01*
X149357921Y-101307181D01*
X149271632Y-101182170D01*
X149157934Y-101081443D01*
X149023434Y-101010852D01*
X149023433Y-101010851D01*
X149023432Y-101010851D01*
X148875950Y-100974500D01*
X148875949Y-100974500D01*
X148724051Y-100974500D01*
X148724050Y-100974500D01*
X148576567Y-101010851D01*
X148442067Y-101081442D01*
X148328367Y-101182171D01*
X148242080Y-101307178D01*
X148241586Y-101308121D01*
X148241041Y-101308683D01*
X148237818Y-101313354D01*
X148237041Y-101312818D01*
X148193004Y-101358336D01*
X148131787Y-101374500D01*
X148124050Y-101374500D01*
X147976567Y-101410851D01*
X147842067Y-101481442D01*
X147728367Y-101582171D01*
X147642080Y-101707179D01*
X147642079Y-101707180D01*
X147600516Y-101816775D01*
X147588215Y-101849209D01*
X147569906Y-102000000D01*
X139199229Y-102000000D01*
X139156889Y-101932617D01*
X139041285Y-101817013D01*
X138935894Y-101750791D01*
X138902855Y-101730031D01*
X138748536Y-101676033D01*
X138586085Y-101657730D01*
X138586077Y-101657730D01*
X138423625Y-101676033D01*
X138269306Y-101730031D01*
X138130876Y-101817013D01*
X138015273Y-101932616D01*
X137928291Y-102071046D01*
X137874293Y-102225365D01*
X137855990Y-102387817D01*
X134867818Y-102387817D01*
X134850204Y-102345292D01*
X134815087Y-102260511D01*
X134815080Y-102260498D01*
X134793697Y-102228496D01*
X134772819Y-102161818D01*
X134791304Y-102094438D01*
X134798413Y-102084131D01*
X134824009Y-102050776D01*
X134884937Y-101903683D01*
X134900500Y-101785468D01*
X134900500Y-101414532D01*
X134900015Y-101410851D01*
X134894441Y-101368513D01*
X146051620Y-101368513D01*
X146069929Y-101519304D01*
X146123793Y-101661332D01*
X146210082Y-101786343D01*
X146323780Y-101887070D01*
X146458280Y-101957661D01*
X146532022Y-101975837D01*
X146605764Y-101994013D01*
X146605765Y-101994013D01*
X146757664Y-101994013D01*
X146806824Y-101981895D01*
X146905148Y-101957661D01*
X147039648Y-101887070D01*
X147153346Y-101786343D01*
X147239635Y-101661332D01*
X147293499Y-101519304D01*
X147311808Y-101368513D01*
X147293499Y-101217722D01*
X147239635Y-101075694D01*
X147153346Y-100950683D01*
X147039648Y-100849956D01*
X146905148Y-100779365D01*
X146905147Y-100779364D01*
X146905146Y-100779364D01*
X146757664Y-100743013D01*
X146757663Y-100743013D01*
X146605765Y-100743013D01*
X146605764Y-100743013D01*
X146458281Y-100779364D01*
X146323781Y-100849955D01*
X146323780Y-100849956D01*
X146234341Y-100929192D01*
X146210081Y-100950684D01*
X146123794Y-101075692D01*
X146123793Y-101075693D01*
X146069929Y-101217721D01*
X146058601Y-101311017D01*
X146051620Y-101368513D01*
X134894441Y-101368513D01*
X134892718Y-101355424D01*
X134884937Y-101296317D01*
X134837656Y-101182170D01*
X134824011Y-101149228D01*
X134824011Y-101149227D01*
X134824009Y-101149224D01*
X134727087Y-101022913D01*
X134600776Y-100925991D01*
X134600773Y-100925990D01*
X134600771Y-100925988D01*
X134453686Y-100865064D01*
X134453681Y-100865062D01*
X134335469Y-100849500D01*
X134335468Y-100849500D01*
X134140735Y-100849500D01*
X134073696Y-100829815D01*
X134027941Y-100777011D01*
X134017515Y-100711616D01*
X134030091Y-100600002D01*
X134030091Y-100599996D01*
X134011787Y-100437544D01*
X134011786Y-100437542D01*
X134011786Y-100437539D01*
X133957789Y-100283225D01*
X133870808Y-100144796D01*
X133755204Y-100029192D01*
X133680872Y-99982486D01*
X133616774Y-99942210D01*
X133462455Y-99888212D01*
X133300004Y-99869909D01*
X133299996Y-99869909D01*
X133137544Y-99888212D01*
X132983225Y-99942210D01*
X132840361Y-100031978D01*
X132827688Y-100035559D01*
X132818490Y-100055169D01*
X132813292Y-100060696D01*
X132729191Y-100144797D01*
X132642210Y-100283225D01*
X132588212Y-100437544D01*
X132569909Y-100599996D01*
X126850500Y-100599996D01*
X126850500Y-99299996D01*
X131469909Y-99299996D01*
X131469909Y-99300000D01*
X131488212Y-99462455D01*
X131542210Y-99616774D01*
X131542211Y-99616775D01*
X131629192Y-99755204D01*
X131744796Y-99870808D01*
X131883225Y-99957789D01*
X132037539Y-100011786D01*
X132037542Y-100011786D01*
X132037544Y-100011787D01*
X132199996Y-100030091D01*
X132200000Y-100030091D01*
X132200004Y-100030091D01*
X132362455Y-100011787D01*
X132362456Y-100011786D01*
X132362461Y-100011786D01*
X132516775Y-99957789D01*
X132655204Y-99870808D01*
X132655205Y-99870806D01*
X132659637Y-99868022D01*
X132672310Y-99864440D01*
X132681509Y-99844830D01*
X132686676Y-99839335D01*
X132770808Y-99755204D01*
X132857789Y-99616775D01*
X132911786Y-99462461D01*
X132921924Y-99372489D01*
X132930091Y-99300000D01*
X132930091Y-99299996D01*
X132911787Y-99137544D01*
X132911786Y-99137542D01*
X132911786Y-99137539D01*
X132857789Y-98983225D01*
X132770808Y-98844796D01*
X132655204Y-98729192D01*
X132516774Y-98642210D01*
X132362455Y-98588212D01*
X132200004Y-98569909D01*
X132199996Y-98569909D01*
X132037544Y-98588212D01*
X131883225Y-98642210D01*
X131744795Y-98729192D01*
X131629192Y-98844795D01*
X131542210Y-98983225D01*
X131488212Y-99137544D01*
X131469909Y-99299996D01*
X126850500Y-99299996D01*
X126850500Y-94154500D01*
X126870185Y-94087461D01*
X126922989Y-94041706D01*
X126974500Y-94030500D01*
X134876000Y-94030500D01*
X134943039Y-94050185D01*
G37*
G04 #@! TD.AperFunction*
M02*
