G04 #@! TF.GenerationSoftware,KiCad,Pcbnew,8.0.2*
G04 #@! TF.CreationDate,2024-10-09T18:55:05-06:00*
G04 #@! TF.ProjectId,kicad,6b696361-642e-46b6-9963-61645f706362,rev?*
G04 #@! TF.SameCoordinates,Original*
G04 #@! TF.FileFunction,Copper,L2,Bot*
G04 #@! TF.FilePolarity,Positive*
%FSLAX46Y46*%
G04 Gerber Fmt 4.6, Leading zero omitted, Abs format (unit mm)*
G04 Created by KiCad (PCBNEW 8.0.2) date 2024-10-09 18:55:05*
%MOMM*%
%LPD*%
G01*
G04 APERTURE LIST*
G04 Aperture macros list*
%AMRoundRect*
0 Rectangle with rounded corners*
0 $1 Rounding radius*
0 $2 $3 $4 $5 $6 $7 $8 $9 X,Y pos of 4 corners*
0 Add a 4 corners polygon primitive as box body*
4,1,4,$2,$3,$4,$5,$6,$7,$8,$9,$2,$3,0*
0 Add four circle primitives for the rounded corners*
1,1,$1+$1,$2,$3*
1,1,$1+$1,$4,$5*
1,1,$1+$1,$6,$7*
1,1,$1+$1,$8,$9*
0 Add four rect primitives between the rounded corners*
20,1,$1+$1,$2,$3,$4,$5,0*
20,1,$1+$1,$4,$5,$6,$7,0*
20,1,$1+$1,$6,$7,$8,$9,0*
20,1,$1+$1,$8,$9,$2,$3,0*%
G04 Aperture macros list end*
G04 #@! TA.AperFunction,ComponentPad*
%ADD10O,1.000000X1.800000*%
G04 #@! TD*
G04 #@! TA.AperFunction,ComponentPad*
%ADD11O,1.000000X2.100000*%
G04 #@! TD*
G04 #@! TA.AperFunction,ComponentPad*
%ADD12RoundRect,0.250000X0.350000X0.625000X-0.350000X0.625000X-0.350000X-0.625000X0.350000X-0.625000X0*%
G04 #@! TD*
G04 #@! TA.AperFunction,ComponentPad*
%ADD13O,1.200000X1.750000*%
G04 #@! TD*
G04 #@! TA.AperFunction,ComponentPad*
%ADD14RoundRect,0.250000X-0.600000X-0.725000X0.600000X-0.725000X0.600000X0.725000X-0.600000X0.725000X0*%
G04 #@! TD*
G04 #@! TA.AperFunction,ComponentPad*
%ADD15O,1.700000X1.950000*%
G04 #@! TD*
G04 #@! TA.AperFunction,ComponentPad*
%ADD16RoundRect,0.250000X0.725000X-0.600000X0.725000X0.600000X-0.725000X0.600000X-0.725000X-0.600000X0*%
G04 #@! TD*
G04 #@! TA.AperFunction,ComponentPad*
%ADD17O,1.950000X1.700000*%
G04 #@! TD*
G04 #@! TA.AperFunction,ComponentPad*
%ADD18RoundRect,0.250000X-0.600000X-0.750000X0.600000X-0.750000X0.600000X0.750000X-0.600000X0.750000X0*%
G04 #@! TD*
G04 #@! TA.AperFunction,ComponentPad*
%ADD19O,1.700000X2.000000*%
G04 #@! TD*
G04 #@! TA.AperFunction,ComponentPad*
%ADD20RoundRect,0.250000X0.600000X0.725000X-0.600000X0.725000X-0.600000X-0.725000X0.600000X-0.725000X0*%
G04 #@! TD*
G04 #@! TA.AperFunction,ComponentPad*
%ADD21RoundRect,0.250000X-0.725000X0.600000X-0.725000X-0.600000X0.725000X-0.600000X0.725000X0.600000X0*%
G04 #@! TD*
G04 #@! TA.AperFunction,ViaPad*
%ADD22C,0.600000*%
G04 #@! TD*
G04 #@! TA.AperFunction,Conductor*
%ADD23C,0.200000*%
G04 #@! TD*
G04 APERTURE END LIST*
D10*
X181680000Y-49500000D03*
D11*
X181680000Y-53680000D03*
D10*
X190320000Y-49500000D03*
D11*
X190320000Y-53680000D03*
D12*
X161500000Y-54500000D03*
D13*
X159500000Y-54500000D03*
D14*
X116500000Y-51000000D03*
D15*
X119000000Y-51000000D03*
X121500000Y-51000000D03*
D16*
X97000000Y-89500000D03*
D17*
X97000000Y-87000000D03*
X97000000Y-84500000D03*
X97000000Y-82000000D03*
X97000000Y-79500000D03*
X97000000Y-77000000D03*
D18*
X97000000Y-51000000D03*
D19*
X99500000Y-51000000D03*
D18*
X173500000Y-50975000D03*
D19*
X176000000Y-50975000D03*
D20*
X142500000Y-143000000D03*
D15*
X140000000Y-143000000D03*
X137500000Y-143000000D03*
X135000000Y-143000000D03*
X132500000Y-143000000D03*
X130000000Y-143000000D03*
D21*
X189500000Y-110500000D03*
D17*
X189500000Y-113000000D03*
X189500000Y-115500000D03*
X189500000Y-118000000D03*
D14*
X140750000Y-50975000D03*
D15*
X143250000Y-50975000D03*
X145750000Y-50975000D03*
X148250000Y-50975000D03*
D20*
X109500000Y-143000000D03*
D15*
X107000000Y-143000000D03*
X104500000Y-143000000D03*
X102000000Y-143000000D03*
X99500000Y-143000000D03*
X97000000Y-143000000D03*
D22*
X176000000Y-58500000D03*
X174750001Y-58250000D03*
X143880459Y-70619541D03*
X164435387Y-62435386D03*
X165685387Y-61185387D03*
X167199265Y-55300735D03*
X167199265Y-58699265D03*
X136000000Y-57000000D03*
X134000000Y-57000000D03*
X152000000Y-64000000D03*
X152000000Y-68500000D03*
X152000000Y-66500000D03*
X148000000Y-70500000D03*
X140000000Y-62000000D03*
X141000000Y-57500000D03*
X142000000Y-63500000D03*
X143000000Y-63000000D03*
X162500000Y-65500000D03*
X158000000Y-61000000D03*
X187500000Y-60000000D03*
X108000000Y-107000000D03*
X99000000Y-98500000D03*
X185056947Y-58045804D03*
X129000000Y-78000000D03*
X120000000Y-62000000D03*
X108000000Y-113000000D03*
X108000000Y-81000000D03*
X112000000Y-90500000D03*
X124000000Y-62000000D03*
X96000000Y-62000000D03*
X190500000Y-57000000D03*
X113000000Y-104500000D03*
X183500000Y-137500000D03*
X99500000Y-110899999D03*
X99500000Y-52500000D03*
X133500000Y-133000000D03*
X156500000Y-64000000D03*
X116000000Y-62000000D03*
X119500000Y-104500000D03*
X147000000Y-68500000D03*
X171500000Y-137500000D03*
X108000000Y-132000000D03*
X108000000Y-104000000D03*
X146000000Y-68500000D03*
X134000000Y-134500000D03*
X126500000Y-70500000D03*
X117375000Y-104000000D03*
X171500000Y-128000000D03*
X99310735Y-108810735D03*
X99500000Y-135000000D03*
X183500000Y-128000000D03*
X183000000Y-55500000D03*
X108000000Y-110000000D03*
X190500000Y-55500000D03*
X158000000Y-64000000D03*
X130000000Y-78000000D03*
X134500000Y-135500000D03*
X171500000Y-60500000D03*
X105000000Y-98100000D03*
X105000000Y-96900000D03*
X105000000Y-92000000D03*
X108309264Y-91190733D03*
X101700000Y-92000000D03*
X107210735Y-91789263D03*
X111559265Y-94440735D03*
X101637500Y-100000000D03*
X110710736Y-95289264D03*
X104100000Y-97500000D03*
X114500000Y-82500000D03*
X100437500Y-101500000D03*
X104500000Y-95500000D03*
X111893595Y-83901395D03*
X131175734Y-136524263D03*
X132000000Y-136500000D03*
X163350735Y-60850735D03*
X164350735Y-59850735D03*
D23*
X164435387Y-61935387D02*
X163350735Y-60850735D01*
X164435387Y-62435386D02*
X164435387Y-61935387D01*
X165685387Y-61185387D02*
X164350735Y-59850735D01*
X167199265Y-58699265D02*
X167199265Y-55300735D01*
X105000000Y-98100000D02*
X105000000Y-96900000D01*
X107710734Y-91789263D02*
X108309264Y-91190733D01*
X107210735Y-91789263D02*
X107710734Y-91789263D01*
X101700000Y-92000000D02*
X105000000Y-92000000D01*
X110710736Y-95289264D02*
X111559265Y-94440735D01*
X101637500Y-100000000D02*
X104100000Y-97537500D01*
X104100000Y-97537500D02*
X104100000Y-97500000D01*
X114000000Y-83000000D02*
X112794990Y-83000000D01*
X112794990Y-83000000D02*
X111893595Y-83901395D01*
X104500000Y-96251471D02*
X104500000Y-95500000D01*
X100437500Y-100313971D02*
X100437500Y-101500000D01*
X100437500Y-100313971D02*
X104500000Y-96251471D01*
X114500000Y-82500000D02*
X114000000Y-83000000D01*
X132900000Y-135900000D02*
X140000000Y-143000000D01*
X131751471Y-135900000D02*
X132900000Y-135900000D01*
X131175734Y-136475737D02*
X131751471Y-135900000D01*
X131175734Y-136524263D02*
X131175734Y-136475737D01*
X132000000Y-136500000D02*
X137500000Y-142000000D01*
X137500000Y-142000000D02*
X137500000Y-143000000D01*
G04 #@! TA.AperFunction,Conductor*
G36*
X192442539Y-47520185D02*
G01*
X192488294Y-47572989D01*
X192499500Y-47624500D01*
X192499500Y-146375500D01*
X192479815Y-146442539D01*
X192427011Y-146488294D01*
X192375500Y-146499500D01*
X93624500Y-146499500D01*
X93557461Y-146479815D01*
X93511706Y-146427011D01*
X93500500Y-146375500D01*
X93500500Y-142768713D01*
X95649500Y-142768713D01*
X95649500Y-143231286D01*
X95682753Y-143441239D01*
X95748444Y-143643414D01*
X95844951Y-143832820D01*
X95969890Y-144004786D01*
X96120213Y-144155109D01*
X96292179Y-144280048D01*
X96292181Y-144280049D01*
X96292184Y-144280051D01*
X96481588Y-144376557D01*
X96683757Y-144442246D01*
X96893713Y-144475500D01*
X96893714Y-144475500D01*
X97106286Y-144475500D01*
X97106287Y-144475500D01*
X97316243Y-144442246D01*
X97518412Y-144376557D01*
X97707816Y-144280051D01*
X97729789Y-144264086D01*
X97879786Y-144155109D01*
X97879788Y-144155106D01*
X97879792Y-144155104D01*
X98030104Y-144004792D01*
X98149683Y-143840204D01*
X98205011Y-143797540D01*
X98274624Y-143791561D01*
X98336420Y-143824166D01*
X98350313Y-143840199D01*
X98453925Y-143982809D01*
X98469896Y-144004792D01*
X98620213Y-144155109D01*
X98792179Y-144280048D01*
X98792181Y-144280049D01*
X98792184Y-144280051D01*
X98981588Y-144376557D01*
X99183757Y-144442246D01*
X99393713Y-144475500D01*
X99393714Y-144475500D01*
X99606286Y-144475500D01*
X99606287Y-144475500D01*
X99816243Y-144442246D01*
X100018412Y-144376557D01*
X100207816Y-144280051D01*
X100229789Y-144264086D01*
X100379786Y-144155109D01*
X100379788Y-144155106D01*
X100379792Y-144155104D01*
X100530104Y-144004792D01*
X100649683Y-143840204D01*
X100705011Y-143797540D01*
X100774624Y-143791561D01*
X100836420Y-143824166D01*
X100850313Y-143840199D01*
X100953925Y-143982809D01*
X100969896Y-144004792D01*
X101120213Y-144155109D01*
X101292179Y-144280048D01*
X101292181Y-144280049D01*
X101292184Y-144280051D01*
X101481588Y-144376557D01*
X101683757Y-144442246D01*
X101893713Y-144475500D01*
X101893714Y-144475500D01*
X102106286Y-144475500D01*
X102106287Y-144475500D01*
X102316243Y-144442246D01*
X102518412Y-144376557D01*
X102707816Y-144280051D01*
X102729789Y-144264086D01*
X102879786Y-144155109D01*
X102879788Y-144155106D01*
X102879792Y-144155104D01*
X103030104Y-144004792D01*
X103149683Y-143840204D01*
X103205011Y-143797540D01*
X103274624Y-143791561D01*
X103336420Y-143824166D01*
X103350313Y-143840199D01*
X103453925Y-143982809D01*
X103469896Y-144004792D01*
X103620213Y-144155109D01*
X103792179Y-144280048D01*
X103792181Y-144280049D01*
X103792184Y-144280051D01*
X103981588Y-144376557D01*
X104183757Y-144442246D01*
X104393713Y-144475500D01*
X104393714Y-144475500D01*
X104606286Y-144475500D01*
X104606287Y-144475500D01*
X104816243Y-144442246D01*
X105018412Y-144376557D01*
X105207816Y-144280051D01*
X105229789Y-144264086D01*
X105379786Y-144155109D01*
X105379788Y-144155106D01*
X105379792Y-144155104D01*
X105530104Y-144004792D01*
X105649683Y-143840204D01*
X105705011Y-143797540D01*
X105774624Y-143791561D01*
X105836420Y-143824166D01*
X105850313Y-143840199D01*
X105953925Y-143982809D01*
X105969896Y-144004792D01*
X106120213Y-144155109D01*
X106292179Y-144280048D01*
X106292181Y-144280049D01*
X106292184Y-144280051D01*
X106481588Y-144376557D01*
X106683757Y-144442246D01*
X106893713Y-144475500D01*
X106893714Y-144475500D01*
X107106286Y-144475500D01*
X107106287Y-144475500D01*
X107316243Y-144442246D01*
X107518412Y-144376557D01*
X107707816Y-144280051D01*
X107879792Y-144155104D01*
X108018604Y-144016291D01*
X108079923Y-143982809D01*
X108149615Y-143987793D01*
X108205549Y-144029664D01*
X108211821Y-144038878D01*
X108215185Y-144044333D01*
X108215186Y-144044334D01*
X108307288Y-144193656D01*
X108431344Y-144317712D01*
X108580666Y-144409814D01*
X108747203Y-144464999D01*
X108849991Y-144475500D01*
X110150008Y-144475499D01*
X110252797Y-144464999D01*
X110419334Y-144409814D01*
X110568656Y-144317712D01*
X110692712Y-144193656D01*
X110784814Y-144044334D01*
X110839999Y-143877797D01*
X110850500Y-143775009D01*
X110850499Y-142768713D01*
X128649500Y-142768713D01*
X128649500Y-143231286D01*
X128682753Y-143441239D01*
X128748444Y-143643414D01*
X128844951Y-143832820D01*
X128969890Y-144004786D01*
X129120213Y-144155109D01*
X129292179Y-144280048D01*
X129292181Y-144280049D01*
X129292184Y-144280051D01*
X129481588Y-144376557D01*
X129683757Y-144442246D01*
X129893713Y-144475500D01*
X129893714Y-144475500D01*
X130106286Y-144475500D01*
X130106287Y-144475500D01*
X130316243Y-144442246D01*
X130518412Y-144376557D01*
X130707816Y-144280051D01*
X130729789Y-144264086D01*
X130879786Y-144155109D01*
X130879788Y-144155106D01*
X130879792Y-144155104D01*
X131030104Y-144004792D01*
X131149683Y-143840204D01*
X131205011Y-143797540D01*
X131274624Y-143791561D01*
X131336420Y-143824166D01*
X131350313Y-143840199D01*
X131453925Y-143982809D01*
X131469896Y-144004792D01*
X131620213Y-144155109D01*
X131792179Y-144280048D01*
X131792181Y-144280049D01*
X131792184Y-144280051D01*
X131981588Y-144376557D01*
X132183757Y-144442246D01*
X132393713Y-144475500D01*
X132393714Y-144475500D01*
X132606286Y-144475500D01*
X132606287Y-144475500D01*
X132816243Y-144442246D01*
X133018412Y-144376557D01*
X133207816Y-144280051D01*
X133229789Y-144264086D01*
X133379786Y-144155109D01*
X133379788Y-144155106D01*
X133379792Y-144155104D01*
X133530104Y-144004792D01*
X133649683Y-143840204D01*
X133705011Y-143797540D01*
X133774624Y-143791561D01*
X133836420Y-143824166D01*
X133850313Y-143840199D01*
X133953925Y-143982809D01*
X133969896Y-144004792D01*
X134120213Y-144155109D01*
X134292179Y-144280048D01*
X134292181Y-144280049D01*
X134292184Y-144280051D01*
X134481588Y-144376557D01*
X134683757Y-144442246D01*
X134893713Y-144475500D01*
X134893714Y-144475500D01*
X135106286Y-144475500D01*
X135106287Y-144475500D01*
X135316243Y-144442246D01*
X135518412Y-144376557D01*
X135707816Y-144280051D01*
X135729789Y-144264086D01*
X135879786Y-144155109D01*
X135879788Y-144155106D01*
X135879792Y-144155104D01*
X136030104Y-144004792D01*
X136149683Y-143840204D01*
X136205011Y-143797540D01*
X136274624Y-143791561D01*
X136336420Y-143824166D01*
X136350313Y-143840199D01*
X136453925Y-143982809D01*
X136469896Y-144004792D01*
X136620213Y-144155109D01*
X136792179Y-144280048D01*
X136792181Y-144280049D01*
X136792184Y-144280051D01*
X136981588Y-144376557D01*
X137183757Y-144442246D01*
X137393713Y-144475500D01*
X137393714Y-144475500D01*
X137606286Y-144475500D01*
X137606287Y-144475500D01*
X137816243Y-144442246D01*
X138018412Y-144376557D01*
X138207816Y-144280051D01*
X138229789Y-144264086D01*
X138379786Y-144155109D01*
X138379788Y-144155106D01*
X138379792Y-144155104D01*
X138530104Y-144004792D01*
X138649683Y-143840204D01*
X138705011Y-143797540D01*
X138774624Y-143791561D01*
X138836420Y-143824166D01*
X138850313Y-143840199D01*
X138953925Y-143982809D01*
X138969896Y-144004792D01*
X139120213Y-144155109D01*
X139292179Y-144280048D01*
X139292181Y-144280049D01*
X139292184Y-144280051D01*
X139481588Y-144376557D01*
X139683757Y-144442246D01*
X139893713Y-144475500D01*
X139893714Y-144475500D01*
X140106286Y-144475500D01*
X140106287Y-144475500D01*
X140316243Y-144442246D01*
X140518412Y-144376557D01*
X140707816Y-144280051D01*
X140879792Y-144155104D01*
X141018604Y-144016291D01*
X141079923Y-143982809D01*
X141149615Y-143987793D01*
X141205549Y-144029664D01*
X141211821Y-144038878D01*
X141215185Y-144044333D01*
X141215186Y-144044334D01*
X141307288Y-144193656D01*
X141431344Y-144317712D01*
X141580666Y-144409814D01*
X141747203Y-144464999D01*
X141849991Y-144475500D01*
X143150008Y-144475499D01*
X143252797Y-144464999D01*
X143419334Y-144409814D01*
X143568656Y-144317712D01*
X143692712Y-144193656D01*
X143784814Y-144044334D01*
X143839999Y-143877797D01*
X143850500Y-143775009D01*
X143850499Y-142224992D01*
X143839999Y-142122203D01*
X143784814Y-141955666D01*
X143692712Y-141806344D01*
X143568656Y-141682288D01*
X143473253Y-141623443D01*
X143419336Y-141590187D01*
X143419331Y-141590185D01*
X143417862Y-141589698D01*
X143252797Y-141535001D01*
X143252795Y-141535000D01*
X143150010Y-141524500D01*
X141849998Y-141524500D01*
X141849981Y-141524501D01*
X141747203Y-141535000D01*
X141747200Y-141535001D01*
X141580668Y-141590185D01*
X141580663Y-141590187D01*
X141431342Y-141682289D01*
X141307289Y-141806342D01*
X141211821Y-141961121D01*
X141159873Y-142007845D01*
X141090910Y-142019068D01*
X141026828Y-141991224D01*
X141018601Y-141983705D01*
X140879786Y-141844890D01*
X140707820Y-141719951D01*
X140518414Y-141623444D01*
X140518413Y-141623443D01*
X140518412Y-141623443D01*
X140316243Y-141557754D01*
X140316241Y-141557753D01*
X140316240Y-141557753D01*
X140154957Y-141532208D01*
X140106287Y-141524500D01*
X139893713Y-141524500D01*
X139845042Y-141532208D01*
X139683760Y-141557753D01*
X139683757Y-141557754D01*
X139547129Y-141602147D01*
X139477290Y-141604142D01*
X139421132Y-141571897D01*
X133387590Y-135538355D01*
X133387588Y-135538352D01*
X133268717Y-135419481D01*
X133268716Y-135419480D01*
X133181904Y-135369360D01*
X133181904Y-135369359D01*
X133181900Y-135369358D01*
X133131785Y-135340423D01*
X132979057Y-135299499D01*
X132820943Y-135299499D01*
X132813347Y-135299499D01*
X132813331Y-135299500D01*
X131830528Y-135299500D01*
X131672414Y-135299500D01*
X131519686Y-135340423D01*
X131519685Y-135340423D01*
X131519683Y-135340424D01*
X131519680Y-135340425D01*
X131469567Y-135369359D01*
X131469566Y-135369360D01*
X131426160Y-135394420D01*
X131382756Y-135419479D01*
X131382753Y-135419481D01*
X131270951Y-135531284D01*
X131270949Y-135531286D01*
X131102511Y-135699724D01*
X131041188Y-135733208D01*
X131028717Y-135735262D01*
X131010909Y-135737268D01*
X130996479Y-135738895D01*
X130996478Y-135738895D01*
X130826212Y-135798473D01*
X130673471Y-135894447D01*
X130545918Y-136022000D01*
X130449945Y-136174739D01*
X130390365Y-136345008D01*
X130390364Y-136345013D01*
X130370169Y-136524259D01*
X130370169Y-136524266D01*
X130390364Y-136703512D01*
X130390365Y-136703517D01*
X130449945Y-136873786D01*
X130545918Y-137026525D01*
X130673472Y-137154079D01*
X130826212Y-137250052D01*
X130996479Y-137309631D01*
X130996484Y-137309632D01*
X131175730Y-137329828D01*
X131175734Y-137329828D01*
X131175738Y-137329828D01*
X131354983Y-137309632D01*
X131354986Y-137309631D01*
X131354989Y-137309631D01*
X131525256Y-137250052D01*
X131544284Y-137238095D01*
X131611519Y-137219094D01*
X131651211Y-137226045D01*
X131820745Y-137285368D01*
X131907669Y-137295161D01*
X131972080Y-137322226D01*
X131981465Y-137330700D01*
X136470252Y-141819487D01*
X136503737Y-141880810D01*
X136498753Y-141950502D01*
X136472643Y-141991139D01*
X136473064Y-141991498D01*
X136470436Y-141994575D01*
X136470275Y-141994826D01*
X136469910Y-141995190D01*
X136469895Y-141995208D01*
X136350318Y-142159793D01*
X136294988Y-142202459D01*
X136225375Y-142208438D01*
X136163580Y-142175832D01*
X136149682Y-142159793D01*
X136030109Y-141995214D01*
X136030105Y-141995209D01*
X135879786Y-141844890D01*
X135707820Y-141719951D01*
X135518414Y-141623444D01*
X135518413Y-141623443D01*
X135518412Y-141623443D01*
X135316243Y-141557754D01*
X135316241Y-141557753D01*
X135316240Y-141557753D01*
X135154957Y-141532208D01*
X135106287Y-141524500D01*
X134893713Y-141524500D01*
X134845042Y-141532208D01*
X134683760Y-141557753D01*
X134481585Y-141623444D01*
X134292179Y-141719951D01*
X134120213Y-141844890D01*
X133969894Y-141995209D01*
X133969890Y-141995214D01*
X133850318Y-142159793D01*
X133794989Y-142202459D01*
X133725375Y-142208438D01*
X133663580Y-142175833D01*
X133649682Y-142159793D01*
X133530109Y-141995214D01*
X133530105Y-141995209D01*
X133379786Y-141844890D01*
X133207820Y-141719951D01*
X133018414Y-141623444D01*
X133018413Y-141623443D01*
X133018412Y-141623443D01*
X132816243Y-141557754D01*
X132816241Y-141557753D01*
X132816240Y-141557753D01*
X132654957Y-141532208D01*
X132606287Y-141524500D01*
X132393713Y-141524500D01*
X132345042Y-141532208D01*
X132183760Y-141557753D01*
X131981585Y-141623444D01*
X131792179Y-141719951D01*
X131620213Y-141844890D01*
X131469894Y-141995209D01*
X131469890Y-141995214D01*
X131350318Y-142159793D01*
X131294989Y-142202459D01*
X131225375Y-142208438D01*
X131163580Y-142175833D01*
X131149682Y-142159793D01*
X131030109Y-141995214D01*
X131030105Y-141995209D01*
X130879786Y-141844890D01*
X130707820Y-141719951D01*
X130518414Y-141623444D01*
X130518413Y-141623443D01*
X130518412Y-141623443D01*
X130316243Y-141557754D01*
X130316241Y-141557753D01*
X130316240Y-141557753D01*
X130154957Y-141532208D01*
X130106287Y-141524500D01*
X129893713Y-141524500D01*
X129845042Y-141532208D01*
X129683760Y-141557753D01*
X129481585Y-141623444D01*
X129292179Y-141719951D01*
X129120213Y-141844890D01*
X128969890Y-141995213D01*
X128844951Y-142167179D01*
X128748444Y-142356585D01*
X128682753Y-142558760D01*
X128649500Y-142768713D01*
X110850499Y-142768713D01*
X110850499Y-142224992D01*
X110839999Y-142122203D01*
X110784814Y-141955666D01*
X110692712Y-141806344D01*
X110568656Y-141682288D01*
X110473253Y-141623443D01*
X110419336Y-141590187D01*
X110419331Y-141590185D01*
X110417862Y-141589698D01*
X110252797Y-141535001D01*
X110252795Y-141535000D01*
X110150010Y-141524500D01*
X108849998Y-141524500D01*
X108849981Y-141524501D01*
X108747203Y-141535000D01*
X108747200Y-141535001D01*
X108580668Y-141590185D01*
X108580663Y-141590187D01*
X108431342Y-141682289D01*
X108307289Y-141806342D01*
X108211821Y-141961121D01*
X108159873Y-142007845D01*
X108090910Y-142019068D01*
X108026828Y-141991224D01*
X108018601Y-141983705D01*
X107879786Y-141844890D01*
X107707820Y-141719951D01*
X107518414Y-141623444D01*
X107518413Y-141623443D01*
X107518412Y-141623443D01*
X107316243Y-141557754D01*
X107316241Y-141557753D01*
X107316240Y-141557753D01*
X107154957Y-141532208D01*
X107106287Y-141524500D01*
X106893713Y-141524500D01*
X106845042Y-141532208D01*
X106683760Y-141557753D01*
X106481585Y-141623444D01*
X106292179Y-141719951D01*
X106120213Y-141844890D01*
X105969894Y-141995209D01*
X105969890Y-141995214D01*
X105850318Y-142159793D01*
X105794989Y-142202459D01*
X105725375Y-142208438D01*
X105663580Y-142175833D01*
X105649682Y-142159793D01*
X105530109Y-141995214D01*
X105530105Y-141995209D01*
X105379786Y-141844890D01*
X105207820Y-141719951D01*
X105018414Y-141623444D01*
X105018413Y-141623443D01*
X105018412Y-141623443D01*
X104816243Y-141557754D01*
X104816241Y-141557753D01*
X104816240Y-141557753D01*
X104654957Y-141532208D01*
X104606287Y-141524500D01*
X104393713Y-141524500D01*
X104345042Y-141532208D01*
X104183760Y-141557753D01*
X103981585Y-141623444D01*
X103792179Y-141719951D01*
X103620213Y-141844890D01*
X103469894Y-141995209D01*
X103469890Y-141995214D01*
X103350318Y-142159793D01*
X103294989Y-142202459D01*
X103225375Y-142208438D01*
X103163580Y-142175833D01*
X103149682Y-142159793D01*
X103030109Y-141995214D01*
X103030105Y-141995209D01*
X102879786Y-141844890D01*
X102707820Y-141719951D01*
X102518414Y-141623444D01*
X102518413Y-141623443D01*
X102518412Y-141623443D01*
X102316243Y-141557754D01*
X102316241Y-141557753D01*
X102316240Y-141557753D01*
X102154957Y-141532208D01*
X102106287Y-141524500D01*
X101893713Y-141524500D01*
X101845042Y-141532208D01*
X101683760Y-141557753D01*
X101481585Y-141623444D01*
X101292179Y-141719951D01*
X101120213Y-141844890D01*
X100969894Y-141995209D01*
X100969890Y-141995214D01*
X100850318Y-142159793D01*
X100794989Y-142202459D01*
X100725375Y-142208438D01*
X100663580Y-142175833D01*
X100649682Y-142159793D01*
X100530109Y-141995214D01*
X100530105Y-141995209D01*
X100379786Y-141844890D01*
X100207820Y-141719951D01*
X100018414Y-141623444D01*
X100018413Y-141623443D01*
X100018412Y-141623443D01*
X99816243Y-141557754D01*
X99816241Y-141557753D01*
X99816240Y-141557753D01*
X99654957Y-141532208D01*
X99606287Y-141524500D01*
X99393713Y-141524500D01*
X99345042Y-141532208D01*
X99183760Y-141557753D01*
X98981585Y-141623444D01*
X98792179Y-141719951D01*
X98620213Y-141844890D01*
X98469894Y-141995209D01*
X98469890Y-141995214D01*
X98350318Y-142159793D01*
X98294989Y-142202459D01*
X98225375Y-142208438D01*
X98163580Y-142175833D01*
X98149682Y-142159793D01*
X98030109Y-141995214D01*
X98030105Y-141995209D01*
X97879786Y-141844890D01*
X97707820Y-141719951D01*
X97518414Y-141623444D01*
X97518413Y-141623443D01*
X97518412Y-141623443D01*
X97316243Y-141557754D01*
X97316241Y-141557753D01*
X97316240Y-141557753D01*
X97154957Y-141532208D01*
X97106287Y-141524500D01*
X96893713Y-141524500D01*
X96845042Y-141532208D01*
X96683760Y-141557753D01*
X96481585Y-141623444D01*
X96292179Y-141719951D01*
X96120213Y-141844890D01*
X95969890Y-141995213D01*
X95844951Y-142167179D01*
X95748444Y-142356585D01*
X95682753Y-142558760D01*
X95649500Y-142768713D01*
X93500500Y-142768713D01*
X93500500Y-109849983D01*
X188024500Y-109849983D01*
X188024500Y-111150001D01*
X188024501Y-111150018D01*
X188035000Y-111252796D01*
X188035001Y-111252799D01*
X188090185Y-111419331D01*
X188090187Y-111419336D01*
X188182289Y-111568657D01*
X188306344Y-111692712D01*
X188461120Y-111788178D01*
X188507845Y-111840126D01*
X188519068Y-111909088D01*
X188491224Y-111973171D01*
X188483706Y-111981398D01*
X188344889Y-112120215D01*
X188219951Y-112292179D01*
X188123444Y-112481585D01*
X188057753Y-112683760D01*
X188024500Y-112893713D01*
X188024500Y-113106286D01*
X188057753Y-113316239D01*
X188123444Y-113518414D01*
X188219951Y-113707820D01*
X188344890Y-113879786D01*
X188495209Y-114030105D01*
X188495214Y-114030109D01*
X188659793Y-114149682D01*
X188702459Y-114205011D01*
X188708438Y-114274625D01*
X188675833Y-114336420D01*
X188659793Y-114350318D01*
X188495214Y-114469890D01*
X188495209Y-114469894D01*
X188344890Y-114620213D01*
X188219951Y-114792179D01*
X188123444Y-114981585D01*
X188057753Y-115183760D01*
X188024500Y-115393713D01*
X188024500Y-115606286D01*
X188057753Y-115816239D01*
X188123444Y-116018414D01*
X188219951Y-116207820D01*
X188344890Y-116379786D01*
X188495209Y-116530105D01*
X188495214Y-116530109D01*
X188659793Y-116649682D01*
X188702459Y-116705011D01*
X188708438Y-116774625D01*
X188675833Y-116836420D01*
X188659793Y-116850318D01*
X188495214Y-116969890D01*
X188495209Y-116969894D01*
X188344890Y-117120213D01*
X188219951Y-117292179D01*
X188123444Y-117481585D01*
X188057753Y-117683760D01*
X188024500Y-117893713D01*
X188024500Y-118106286D01*
X188057753Y-118316239D01*
X188123444Y-118518414D01*
X188219951Y-118707820D01*
X188344890Y-118879786D01*
X188495213Y-119030109D01*
X188667179Y-119155048D01*
X188667181Y-119155049D01*
X188667184Y-119155051D01*
X188856588Y-119251557D01*
X189058757Y-119317246D01*
X189268713Y-119350500D01*
X189268714Y-119350500D01*
X189731286Y-119350500D01*
X189731287Y-119350500D01*
X189941243Y-119317246D01*
X190143412Y-119251557D01*
X190332816Y-119155051D01*
X190354789Y-119139086D01*
X190504786Y-119030109D01*
X190504788Y-119030106D01*
X190504792Y-119030104D01*
X190655104Y-118879792D01*
X190655106Y-118879788D01*
X190655109Y-118879786D01*
X190780048Y-118707820D01*
X190780047Y-118707820D01*
X190780051Y-118707816D01*
X190876557Y-118518412D01*
X190942246Y-118316243D01*
X190975500Y-118106287D01*
X190975500Y-117893713D01*
X190942246Y-117683757D01*
X190876557Y-117481588D01*
X190780051Y-117292184D01*
X190780049Y-117292181D01*
X190780048Y-117292179D01*
X190655109Y-117120213D01*
X190504792Y-116969896D01*
X190504784Y-116969890D01*
X190340204Y-116850316D01*
X190297540Y-116794989D01*
X190291561Y-116725376D01*
X190324166Y-116663580D01*
X190340199Y-116649686D01*
X190504792Y-116530104D01*
X190655104Y-116379792D01*
X190655106Y-116379788D01*
X190655109Y-116379786D01*
X190780048Y-116207820D01*
X190780047Y-116207820D01*
X190780051Y-116207816D01*
X190876557Y-116018412D01*
X190942246Y-115816243D01*
X190975500Y-115606287D01*
X190975500Y-115393713D01*
X190942246Y-115183757D01*
X190876557Y-114981588D01*
X190780051Y-114792184D01*
X190780049Y-114792181D01*
X190780048Y-114792179D01*
X190655109Y-114620213D01*
X190504792Y-114469896D01*
X190504784Y-114469890D01*
X190340204Y-114350316D01*
X190297540Y-114294989D01*
X190291561Y-114225376D01*
X190324166Y-114163580D01*
X190340199Y-114149686D01*
X190504792Y-114030104D01*
X190655104Y-113879792D01*
X190655106Y-113879788D01*
X190655109Y-113879786D01*
X190780048Y-113707820D01*
X190780047Y-113707820D01*
X190780051Y-113707816D01*
X190876557Y-113518412D01*
X190942246Y-113316243D01*
X190975500Y-113106287D01*
X190975500Y-112893713D01*
X190942246Y-112683757D01*
X190876557Y-112481588D01*
X190780051Y-112292184D01*
X190780049Y-112292181D01*
X190780048Y-112292179D01*
X190655109Y-112120213D01*
X190516294Y-111981398D01*
X190482809Y-111920075D01*
X190487793Y-111850383D01*
X190529665Y-111794450D01*
X190538879Y-111788178D01*
X190544331Y-111784814D01*
X190544334Y-111784814D01*
X190693656Y-111692712D01*
X190817712Y-111568656D01*
X190909814Y-111419334D01*
X190964999Y-111252797D01*
X190975500Y-111150009D01*
X190975499Y-109849992D01*
X190964999Y-109747203D01*
X190909814Y-109580666D01*
X190817712Y-109431344D01*
X190693656Y-109307288D01*
X190544334Y-109215186D01*
X190377797Y-109160001D01*
X190377795Y-109160000D01*
X190275010Y-109149500D01*
X188724998Y-109149500D01*
X188724981Y-109149501D01*
X188622203Y-109160000D01*
X188622200Y-109160001D01*
X188455668Y-109215185D01*
X188455663Y-109215187D01*
X188306342Y-109307289D01*
X188182289Y-109431342D01*
X188090187Y-109580663D01*
X188090186Y-109580666D01*
X188035001Y-109747203D01*
X188035001Y-109747204D01*
X188035000Y-109747204D01*
X188024500Y-109849983D01*
X93500500Y-109849983D01*
X93500500Y-101499996D01*
X99631935Y-101499996D01*
X99631935Y-101500003D01*
X99652130Y-101679249D01*
X99652131Y-101679254D01*
X99711711Y-101849523D01*
X99807684Y-102002262D01*
X99935238Y-102129816D01*
X100087978Y-102225789D01*
X100258245Y-102285368D01*
X100258250Y-102285369D01*
X100437496Y-102305565D01*
X100437500Y-102305565D01*
X100437504Y-102305565D01*
X100616749Y-102285369D01*
X100616752Y-102285368D01*
X100616755Y-102285368D01*
X100787022Y-102225789D01*
X100939762Y-102129816D01*
X101067316Y-102002262D01*
X101163289Y-101849522D01*
X101222868Y-101679255D01*
X101243065Y-101500000D01*
X101222868Y-101320745D01*
X101163289Y-101150478D01*
X101067316Y-100997738D01*
X101067314Y-100997736D01*
X101067313Y-100997734D01*
X101065050Y-100994896D01*
X101064159Y-100992715D01*
X101063611Y-100991842D01*
X101063764Y-100991745D01*
X101038644Y-100930209D01*
X101038000Y-100917587D01*
X101038000Y-100793078D01*
X101057685Y-100726039D01*
X101110489Y-100680284D01*
X101179647Y-100670340D01*
X101227971Y-100688084D01*
X101243958Y-100698129D01*
X101287975Y-100725788D01*
X101458245Y-100785368D01*
X101458250Y-100785369D01*
X101637496Y-100805565D01*
X101637500Y-100805565D01*
X101637504Y-100805565D01*
X101816749Y-100785369D01*
X101816752Y-100785368D01*
X101816755Y-100785368D01*
X101987022Y-100725789D01*
X102139762Y-100629816D01*
X102267316Y-100502262D01*
X102363289Y-100349522D01*
X102422868Y-100179255D01*
X102432661Y-100092329D01*
X102459726Y-100027918D01*
X102468190Y-100018543D01*
X104073602Y-98413131D01*
X104134923Y-98379648D01*
X104204615Y-98384632D01*
X104260548Y-98426504D01*
X104272997Y-98447004D01*
X104274206Y-98449516D01*
X104370184Y-98602262D01*
X104497738Y-98729816D01*
X104650478Y-98825789D01*
X104820745Y-98885368D01*
X104820750Y-98885369D01*
X104999996Y-98905565D01*
X105000000Y-98905565D01*
X105000004Y-98905565D01*
X105179249Y-98885369D01*
X105179252Y-98885368D01*
X105179255Y-98885368D01*
X105349522Y-98825789D01*
X105502262Y-98729816D01*
X105629816Y-98602262D01*
X105725789Y-98449522D01*
X105785368Y-98279255D01*
X105805565Y-98100000D01*
X105785368Y-97920745D01*
X105725789Y-97750478D01*
X105629816Y-97597738D01*
X105629814Y-97597736D01*
X105629813Y-97597734D01*
X105627550Y-97594896D01*
X105626659Y-97592715D01*
X105626111Y-97591842D01*
X105626264Y-97591745D01*
X105601144Y-97530209D01*
X105600500Y-97517587D01*
X105600500Y-97482412D01*
X105620185Y-97415373D01*
X105627555Y-97405097D01*
X105629810Y-97402267D01*
X105629816Y-97402262D01*
X105725789Y-97249522D01*
X105785368Y-97079255D01*
X105805565Y-96900000D01*
X105785368Y-96720745D01*
X105725789Y-96550478D01*
X105629816Y-96397738D01*
X105502262Y-96270184D01*
X105349521Y-96174210D01*
X105227612Y-96131553D01*
X105170836Y-96090831D01*
X105145088Y-96025879D01*
X105158544Y-95957317D01*
X105163573Y-95948538D01*
X105225788Y-95849524D01*
X105225789Y-95849522D01*
X105285368Y-95679255D01*
X105305565Y-95500000D01*
X105302017Y-95468513D01*
X105285369Y-95320750D01*
X105285368Y-95320745D01*
X105274351Y-95289260D01*
X109905171Y-95289260D01*
X109905171Y-95289267D01*
X109925366Y-95468513D01*
X109925367Y-95468518D01*
X109984947Y-95638787D01*
X110010375Y-95679255D01*
X110080920Y-95791526D01*
X110208474Y-95919080D01*
X110236717Y-95936826D01*
X110343723Y-96004063D01*
X110361214Y-96015053D01*
X110408440Y-96031578D01*
X110531481Y-96074632D01*
X110531486Y-96074633D01*
X110710732Y-96094829D01*
X110710736Y-96094829D01*
X110710740Y-96094829D01*
X110889985Y-96074633D01*
X110889988Y-96074632D01*
X110889991Y-96074632D01*
X111060258Y-96015053D01*
X111212998Y-95919080D01*
X111340552Y-95791526D01*
X111436525Y-95638786D01*
X111496104Y-95468519D01*
X111505897Y-95381593D01*
X111532962Y-95317182D01*
X111541426Y-95307807D01*
X111577800Y-95271433D01*
X111639121Y-95237950D01*
X111651576Y-95235898D01*
X111738520Y-95226103D01*
X111908787Y-95166524D01*
X112061527Y-95070551D01*
X112189081Y-94942997D01*
X112285054Y-94790257D01*
X112344633Y-94619990D01*
X112359049Y-94492047D01*
X112364830Y-94440738D01*
X112364830Y-94440731D01*
X112344634Y-94261485D01*
X112344633Y-94261480D01*
X112285053Y-94091211D01*
X112189080Y-93938472D01*
X112061527Y-93810919D01*
X111908788Y-93714946D01*
X111738519Y-93655366D01*
X111738514Y-93655365D01*
X111559269Y-93635170D01*
X111559261Y-93635170D01*
X111380015Y-93655365D01*
X111380010Y-93655366D01*
X111209741Y-93714946D01*
X111057002Y-93810919D01*
X110929449Y-93938472D01*
X110833475Y-94091213D01*
X110773895Y-94261485D01*
X110764102Y-94348403D01*
X110737035Y-94412817D01*
X110728563Y-94422200D01*
X110692201Y-94458562D01*
X110630878Y-94492047D01*
X110618404Y-94494101D01*
X110531486Y-94503894D01*
X110361214Y-94563474D01*
X110208473Y-94659448D01*
X110080920Y-94787001D01*
X109984947Y-94939740D01*
X109925367Y-95110009D01*
X109925366Y-95110014D01*
X109905171Y-95289260D01*
X105274351Y-95289260D01*
X105252251Y-95226102D01*
X105225789Y-95150478D01*
X105129816Y-94997738D01*
X105002262Y-94870184D01*
X104875061Y-94790258D01*
X104849523Y-94774211D01*
X104679254Y-94714631D01*
X104679249Y-94714630D01*
X104500004Y-94694435D01*
X104499996Y-94694435D01*
X104320750Y-94714630D01*
X104320745Y-94714631D01*
X104150476Y-94774211D01*
X103997737Y-94870184D01*
X103870184Y-94997737D01*
X103774211Y-95150476D01*
X103714631Y-95320745D01*
X103714630Y-95320750D01*
X103694435Y-95499996D01*
X103694435Y-95500003D01*
X103714630Y-95679249D01*
X103714631Y-95679254D01*
X103774211Y-95849523D01*
X103829067Y-95936826D01*
X103848067Y-96004063D01*
X103827699Y-96070898D01*
X103811754Y-96090479D01*
X100068786Y-99833449D01*
X99956981Y-99945253D01*
X99956980Y-99945255D01*
X99914674Y-100018533D01*
X99906861Y-100032065D01*
X99906859Y-100032067D01*
X99877925Y-100082180D01*
X99877924Y-100082181D01*
X99877923Y-100082186D01*
X99836999Y-100234914D01*
X99836999Y-100234916D01*
X99836999Y-100403017D01*
X99837000Y-100403030D01*
X99837000Y-100917587D01*
X99817315Y-100984626D01*
X99809950Y-100994896D01*
X99807686Y-100997734D01*
X99711711Y-101150476D01*
X99652131Y-101320745D01*
X99652130Y-101320750D01*
X99631935Y-101499996D01*
X93500500Y-101499996D01*
X93500500Y-91999996D01*
X100894435Y-91999996D01*
X100894435Y-92000003D01*
X100914630Y-92179249D01*
X100914631Y-92179254D01*
X100974211Y-92349523D01*
X101070184Y-92502262D01*
X101197738Y-92629816D01*
X101350478Y-92725789D01*
X101520745Y-92785368D01*
X101520750Y-92785369D01*
X101699996Y-92805565D01*
X101700000Y-92805565D01*
X101700004Y-92805565D01*
X101879249Y-92785369D01*
X101879252Y-92785368D01*
X101879255Y-92785368D01*
X102049522Y-92725789D01*
X102202262Y-92629816D01*
X102202267Y-92629810D01*
X102205097Y-92627555D01*
X102207275Y-92626665D01*
X102208158Y-92626111D01*
X102208255Y-92626265D01*
X102269783Y-92601145D01*
X102282412Y-92600500D01*
X104417588Y-92600500D01*
X104484627Y-92620185D01*
X104494903Y-92627555D01*
X104497736Y-92629814D01*
X104497738Y-92629816D01*
X104650478Y-92725789D01*
X104820745Y-92785368D01*
X104820750Y-92785369D01*
X104999996Y-92805565D01*
X105000000Y-92805565D01*
X105000004Y-92805565D01*
X105179249Y-92785369D01*
X105179252Y-92785368D01*
X105179255Y-92785368D01*
X105349522Y-92725789D01*
X105502262Y-92629816D01*
X105629816Y-92502262D01*
X105725789Y-92349522D01*
X105785368Y-92179255D01*
X105785369Y-92179249D01*
X105805565Y-92000003D01*
X105805565Y-91999996D01*
X105785369Y-91820750D01*
X105785368Y-91820745D01*
X105774351Y-91789259D01*
X106405170Y-91789259D01*
X106405170Y-91789266D01*
X106425365Y-91968512D01*
X106425366Y-91968517D01*
X106484946Y-92138786D01*
X106580919Y-92291525D01*
X106708473Y-92419079D01*
X106861213Y-92515052D01*
X107031480Y-92574631D01*
X107031485Y-92574632D01*
X107210731Y-92594828D01*
X107210735Y-92594828D01*
X107210739Y-92594828D01*
X107389984Y-92574632D01*
X107389987Y-92574631D01*
X107389990Y-92574631D01*
X107560257Y-92515052D01*
X107712997Y-92419079D01*
X107713001Y-92419074D01*
X107715832Y-92416818D01*
X107718010Y-92415928D01*
X107718893Y-92415374D01*
X107718990Y-92415528D01*
X107780519Y-92390409D01*
X107787660Y-92390044D01*
X107789788Y-92389764D01*
X107789791Y-92389764D01*
X107942519Y-92348840D01*
X107992638Y-92319902D01*
X108079450Y-92269783D01*
X108191254Y-92157979D01*
X108191254Y-92157977D01*
X108201462Y-92147770D01*
X108201464Y-92147767D01*
X108327799Y-92021431D01*
X108389120Y-91987948D01*
X108401575Y-91985896D01*
X108488519Y-91976101D01*
X108658786Y-91916522D01*
X108811526Y-91820549D01*
X108939080Y-91692995D01*
X109035053Y-91540255D01*
X109094632Y-91369988D01*
X109094633Y-91369982D01*
X109114829Y-91190736D01*
X109114829Y-91190729D01*
X109094633Y-91011483D01*
X109094632Y-91011478D01*
X109038303Y-90850499D01*
X109035053Y-90841211D01*
X109034291Y-90839999D01*
X108995846Y-90778813D01*
X108939080Y-90688471D01*
X108811526Y-90560917D01*
X108658787Y-90464944D01*
X108488518Y-90405364D01*
X108488513Y-90405363D01*
X108309268Y-90385168D01*
X108309260Y-90385168D01*
X108130014Y-90405363D01*
X108130009Y-90405364D01*
X107959740Y-90464944D01*
X107807001Y-90560917D01*
X107679448Y-90688470D01*
X107583473Y-90841213D01*
X107552606Y-90929425D01*
X107511884Y-90986201D01*
X107446932Y-91011948D01*
X107394616Y-91005513D01*
X107389995Y-91003896D01*
X107389981Y-91003893D01*
X107210739Y-90983698D01*
X107210731Y-90983698D01*
X107031485Y-91003893D01*
X107031480Y-91003894D01*
X106861211Y-91063474D01*
X106708472Y-91159447D01*
X106580919Y-91287000D01*
X106484946Y-91439739D01*
X106425366Y-91610008D01*
X106425365Y-91610013D01*
X106405170Y-91789259D01*
X105774351Y-91789259D01*
X105725788Y-91650476D01*
X105629815Y-91497737D01*
X105502262Y-91370184D01*
X105349523Y-91274211D01*
X105179254Y-91214631D01*
X105179249Y-91214630D01*
X105000004Y-91194435D01*
X104999996Y-91194435D01*
X104820750Y-91214630D01*
X104820745Y-91214631D01*
X104650476Y-91274211D01*
X104497736Y-91370185D01*
X104494903Y-91372445D01*
X104492724Y-91373334D01*
X104491842Y-91373889D01*
X104491744Y-91373734D01*
X104430217Y-91398855D01*
X104417588Y-91399500D01*
X102282412Y-91399500D01*
X102215373Y-91379815D01*
X102205097Y-91372445D01*
X102202263Y-91370185D01*
X102202262Y-91370184D01*
X102145496Y-91334515D01*
X102049523Y-91274211D01*
X101879254Y-91214631D01*
X101879249Y-91214630D01*
X101700004Y-91194435D01*
X101699996Y-91194435D01*
X101520750Y-91214630D01*
X101520745Y-91214631D01*
X101350476Y-91274211D01*
X101197737Y-91370184D01*
X101070184Y-91497737D01*
X100974211Y-91650476D01*
X100914631Y-91820745D01*
X100914630Y-91820750D01*
X100894435Y-91999996D01*
X93500500Y-91999996D01*
X93500500Y-76893713D01*
X95524500Y-76893713D01*
X95524500Y-77106286D01*
X95557753Y-77316239D01*
X95623444Y-77518414D01*
X95719951Y-77707820D01*
X95844890Y-77879786D01*
X95995209Y-78030105D01*
X95995214Y-78030109D01*
X96159793Y-78149682D01*
X96202459Y-78205011D01*
X96208438Y-78274625D01*
X96175833Y-78336420D01*
X96159793Y-78350318D01*
X95995214Y-78469890D01*
X95995209Y-78469894D01*
X95844890Y-78620213D01*
X95719951Y-78792179D01*
X95623444Y-78981585D01*
X95557753Y-79183760D01*
X95524500Y-79393713D01*
X95524500Y-79606286D01*
X95557753Y-79816239D01*
X95623444Y-80018414D01*
X95719951Y-80207820D01*
X95844890Y-80379786D01*
X95995209Y-80530105D01*
X95995214Y-80530109D01*
X96159793Y-80649682D01*
X96202459Y-80705011D01*
X96208438Y-80774625D01*
X96175833Y-80836420D01*
X96159793Y-80850318D01*
X95995214Y-80969890D01*
X95995209Y-80969894D01*
X95844890Y-81120213D01*
X95719951Y-81292179D01*
X95623444Y-81481585D01*
X95557753Y-81683760D01*
X95543427Y-81774211D01*
X95524500Y-81893713D01*
X95524500Y-82106287D01*
X95557754Y-82316243D01*
X95617459Y-82499996D01*
X95623444Y-82518414D01*
X95719951Y-82707820D01*
X95844890Y-82879786D01*
X95995209Y-83030105D01*
X95995214Y-83030109D01*
X96159793Y-83149682D01*
X96202459Y-83205011D01*
X96208438Y-83274625D01*
X96175833Y-83336420D01*
X96159793Y-83350318D01*
X95995214Y-83469890D01*
X95995209Y-83469894D01*
X95844890Y-83620213D01*
X95719951Y-83792179D01*
X95623444Y-83981585D01*
X95557753Y-84183760D01*
X95524500Y-84393713D01*
X95524500Y-84606286D01*
X95557753Y-84816239D01*
X95623444Y-85018414D01*
X95719951Y-85207820D01*
X95844890Y-85379786D01*
X95995209Y-85530105D01*
X95995214Y-85530109D01*
X96159793Y-85649682D01*
X96202459Y-85705011D01*
X96208438Y-85774625D01*
X96175833Y-85836420D01*
X96159793Y-85850318D01*
X95995214Y-85969890D01*
X95995209Y-85969894D01*
X95844890Y-86120213D01*
X95719951Y-86292179D01*
X95623444Y-86481585D01*
X95557753Y-86683760D01*
X95524500Y-86893713D01*
X95524500Y-87106286D01*
X95557753Y-87316239D01*
X95623444Y-87518414D01*
X95719951Y-87707820D01*
X95844890Y-87879786D01*
X95983705Y-88018601D01*
X96017190Y-88079924D01*
X96012206Y-88149616D01*
X95970334Y-88205549D01*
X95961121Y-88211821D01*
X95806342Y-88307289D01*
X95682289Y-88431342D01*
X95590187Y-88580663D01*
X95590186Y-88580666D01*
X95535001Y-88747203D01*
X95535001Y-88747204D01*
X95535000Y-88747204D01*
X95524500Y-88849983D01*
X95524500Y-90150001D01*
X95524501Y-90150018D01*
X95535000Y-90252796D01*
X95535001Y-90252799D01*
X95578864Y-90385168D01*
X95590186Y-90419334D01*
X95682288Y-90568656D01*
X95806344Y-90692712D01*
X95955666Y-90784814D01*
X96122203Y-90839999D01*
X96224991Y-90850500D01*
X97775008Y-90850499D01*
X97877797Y-90839999D01*
X98044334Y-90784814D01*
X98193656Y-90692712D01*
X98317712Y-90568656D01*
X98409814Y-90419334D01*
X98464999Y-90252797D01*
X98475500Y-90150009D01*
X98475499Y-88849992D01*
X98464999Y-88747203D01*
X98409814Y-88580666D01*
X98317712Y-88431344D01*
X98193656Y-88307288D01*
X98044334Y-88215186D01*
X98044333Y-88215185D01*
X98038878Y-88211821D01*
X97992154Y-88159873D01*
X97980931Y-88090910D01*
X98008775Y-88026828D01*
X98016272Y-88018623D01*
X98155104Y-87879792D01*
X98280051Y-87707816D01*
X98376557Y-87518412D01*
X98442246Y-87316243D01*
X98475500Y-87106287D01*
X98475500Y-86893713D01*
X98442246Y-86683757D01*
X98376557Y-86481588D01*
X98280051Y-86292184D01*
X98280049Y-86292181D01*
X98280048Y-86292179D01*
X98155109Y-86120213D01*
X98004792Y-85969896D01*
X98004784Y-85969890D01*
X97840204Y-85850316D01*
X97797540Y-85794989D01*
X97791561Y-85725376D01*
X97824166Y-85663580D01*
X97840199Y-85649686D01*
X98004792Y-85530104D01*
X98155104Y-85379792D01*
X98155106Y-85379788D01*
X98155109Y-85379786D01*
X98280048Y-85207820D01*
X98280047Y-85207820D01*
X98280051Y-85207816D01*
X98376557Y-85018412D01*
X98442246Y-84816243D01*
X98475500Y-84606287D01*
X98475500Y-84393713D01*
X98442246Y-84183757D01*
X98376557Y-83981588D01*
X98335695Y-83901391D01*
X111088030Y-83901391D01*
X111088030Y-83901398D01*
X111108225Y-84080644D01*
X111108226Y-84080649D01*
X111167806Y-84250918D01*
X111257531Y-84393713D01*
X111263779Y-84403657D01*
X111391333Y-84531211D01*
X111481675Y-84587977D01*
X111510815Y-84606287D01*
X111544073Y-84627184D01*
X111714340Y-84686763D01*
X111714345Y-84686764D01*
X111893591Y-84706960D01*
X111893595Y-84706960D01*
X111893599Y-84706960D01*
X112072844Y-84686764D01*
X112072847Y-84686763D01*
X112072850Y-84686763D01*
X112243117Y-84627184D01*
X112395857Y-84531211D01*
X112523411Y-84403657D01*
X112619384Y-84250917D01*
X112678963Y-84080650D01*
X112688756Y-83993724D01*
X112715821Y-83929313D01*
X112724275Y-83919948D01*
X113007407Y-83636816D01*
X113068729Y-83603334D01*
X113095087Y-83600500D01*
X113913331Y-83600500D01*
X113913347Y-83600501D01*
X113920943Y-83600501D01*
X114079054Y-83600501D01*
X114079057Y-83600501D01*
X114231785Y-83559577D01*
X114281904Y-83530639D01*
X114368716Y-83480520D01*
X114480520Y-83368716D01*
X114480521Y-83368714D01*
X114512815Y-83336420D01*
X114518535Y-83330700D01*
X114579858Y-83297215D01*
X114592315Y-83295163D01*
X114679255Y-83285368D01*
X114849522Y-83225789D01*
X115002262Y-83129816D01*
X115129816Y-83002262D01*
X115225789Y-82849522D01*
X115285368Y-82679255D01*
X115303370Y-82519480D01*
X115305565Y-82500003D01*
X115305565Y-82499996D01*
X115285369Y-82320750D01*
X115285368Y-82320745D01*
X115225788Y-82150476D01*
X115129815Y-81997737D01*
X115002262Y-81870184D01*
X114849523Y-81774211D01*
X114679254Y-81714631D01*
X114679249Y-81714630D01*
X114500004Y-81694435D01*
X114499996Y-81694435D01*
X114320750Y-81714630D01*
X114320745Y-81714631D01*
X114150476Y-81774211D01*
X113997737Y-81870184D01*
X113870184Y-81997737D01*
X113774211Y-82150477D01*
X113716133Y-82316455D01*
X113675411Y-82373231D01*
X113610458Y-82398978D01*
X113599091Y-82399500D01*
X112881659Y-82399500D01*
X112881643Y-82399499D01*
X112874047Y-82399499D01*
X112715933Y-82399499D01*
X112636000Y-82420917D01*
X112563206Y-82440422D01*
X112525705Y-82462074D01*
X112525704Y-82462073D01*
X112426277Y-82519477D01*
X112426272Y-82519481D01*
X112314468Y-82631286D01*
X111875060Y-83070693D01*
X111813737Y-83104178D01*
X111801263Y-83106232D01*
X111714345Y-83116025D01*
X111544073Y-83175605D01*
X111391332Y-83271579D01*
X111263779Y-83399132D01*
X111167806Y-83551871D01*
X111108226Y-83722140D01*
X111108225Y-83722145D01*
X111088030Y-83901391D01*
X98335695Y-83901391D01*
X98280051Y-83792184D01*
X98280049Y-83792181D01*
X98280048Y-83792179D01*
X98155109Y-83620213D01*
X98004792Y-83469896D01*
X97907394Y-83399133D01*
X97840204Y-83350316D01*
X97797540Y-83294989D01*
X97791561Y-83225376D01*
X97824166Y-83163580D01*
X97840199Y-83149686D01*
X98004792Y-83030104D01*
X98155104Y-82879792D01*
X98155106Y-82879788D01*
X98155109Y-82879786D01*
X98280048Y-82707820D01*
X98280047Y-82707820D01*
X98280051Y-82707816D01*
X98376557Y-82518412D01*
X98442246Y-82316243D01*
X98475500Y-82106287D01*
X98475500Y-81893713D01*
X98442246Y-81683757D01*
X98376557Y-81481588D01*
X98280051Y-81292184D01*
X98280049Y-81292181D01*
X98280048Y-81292179D01*
X98155109Y-81120213D01*
X98004792Y-80969896D01*
X98004784Y-80969890D01*
X97840204Y-80850316D01*
X97797540Y-80794989D01*
X97791561Y-80725376D01*
X97824166Y-80663580D01*
X97840199Y-80649686D01*
X98004792Y-80530104D01*
X98155104Y-80379792D01*
X98155106Y-80379788D01*
X98155109Y-80379786D01*
X98280048Y-80207820D01*
X98280047Y-80207820D01*
X98280051Y-80207816D01*
X98376557Y-80018412D01*
X98442246Y-79816243D01*
X98475500Y-79606287D01*
X98475500Y-79393713D01*
X98442246Y-79183757D01*
X98376557Y-78981588D01*
X98280051Y-78792184D01*
X98280049Y-78792181D01*
X98280048Y-78792179D01*
X98155109Y-78620213D01*
X98004792Y-78469896D01*
X98004784Y-78469890D01*
X97840204Y-78350316D01*
X97797540Y-78294989D01*
X97791561Y-78225376D01*
X97824166Y-78163580D01*
X97840199Y-78149686D01*
X98004792Y-78030104D01*
X98155104Y-77879792D01*
X98155106Y-77879788D01*
X98155109Y-77879786D01*
X98280048Y-77707820D01*
X98280047Y-77707820D01*
X98280051Y-77707816D01*
X98376557Y-77518412D01*
X98442246Y-77316243D01*
X98475500Y-77106287D01*
X98475500Y-76893713D01*
X98442246Y-76683757D01*
X98376557Y-76481588D01*
X98280051Y-76292184D01*
X98280049Y-76292181D01*
X98280048Y-76292179D01*
X98155109Y-76120213D01*
X98004786Y-75969890D01*
X97832820Y-75844951D01*
X97643414Y-75748444D01*
X97643413Y-75748443D01*
X97643412Y-75748443D01*
X97441243Y-75682754D01*
X97441241Y-75682753D01*
X97441240Y-75682753D01*
X97279957Y-75657208D01*
X97231287Y-75649500D01*
X96768713Y-75649500D01*
X96720042Y-75657208D01*
X96558760Y-75682753D01*
X96356585Y-75748444D01*
X96167179Y-75844951D01*
X95995213Y-75969890D01*
X95844890Y-76120213D01*
X95719951Y-76292179D01*
X95623444Y-76481585D01*
X95557753Y-76683760D01*
X95524500Y-76893713D01*
X93500500Y-76893713D01*
X93500500Y-60850731D01*
X162545170Y-60850731D01*
X162545170Y-60850738D01*
X162565365Y-61029984D01*
X162565366Y-61029989D01*
X162624946Y-61200258D01*
X162646526Y-61234602D01*
X162720919Y-61352997D01*
X162848473Y-61480551D01*
X163001213Y-61576524D01*
X163171480Y-61636103D01*
X163258404Y-61645896D01*
X163322815Y-61672961D01*
X163332200Y-61681435D01*
X163661510Y-62010746D01*
X163694995Y-62072069D01*
X163690871Y-62139381D01*
X163650019Y-62256128D01*
X163650017Y-62256136D01*
X163629822Y-62435382D01*
X163629822Y-62435389D01*
X163650017Y-62614635D01*
X163650018Y-62614640D01*
X163709598Y-62784909D01*
X163805571Y-62937648D01*
X163933125Y-63065202D01*
X164085865Y-63161175D01*
X164256132Y-63220754D01*
X164256137Y-63220755D01*
X164435383Y-63240951D01*
X164435387Y-63240951D01*
X164435391Y-63240951D01*
X164614636Y-63220755D01*
X164614639Y-63220754D01*
X164614642Y-63220754D01*
X164784909Y-63161175D01*
X164937649Y-63065202D01*
X165065203Y-62937648D01*
X165161176Y-62784908D01*
X165220755Y-62614641D01*
X165240952Y-62435386D01*
X165220755Y-62256131D01*
X165161176Y-62085864D01*
X165161174Y-62085861D01*
X165161174Y-62085860D01*
X165154885Y-62075851D01*
X165135883Y-62008615D01*
X165156249Y-61941779D01*
X165209516Y-61896564D01*
X165278773Y-61887325D01*
X165325848Y-61904883D01*
X165335861Y-61911174D01*
X165335862Y-61911174D01*
X165335865Y-61911176D01*
X165506132Y-61970755D01*
X165506137Y-61970756D01*
X165685383Y-61990952D01*
X165685387Y-61990952D01*
X165685391Y-61990952D01*
X165864636Y-61970756D01*
X165864639Y-61970755D01*
X165864642Y-61970755D01*
X166034909Y-61911176D01*
X166187649Y-61815203D01*
X166315203Y-61687649D01*
X166411176Y-61534909D01*
X166470755Y-61364642D01*
X166485407Y-61234602D01*
X166490952Y-61185390D01*
X166490952Y-61185383D01*
X166470756Y-61006137D01*
X166470755Y-61006132D01*
X166411175Y-60835863D01*
X166315202Y-60683124D01*
X166187649Y-60555571D01*
X166034908Y-60459597D01*
X165864636Y-60400017D01*
X165777717Y-60390224D01*
X165713303Y-60363157D01*
X165703920Y-60354685D01*
X165181435Y-59832200D01*
X165147950Y-59770877D01*
X165145898Y-59758421D01*
X165136103Y-59671480D01*
X165076524Y-59501213D01*
X164980551Y-59348473D01*
X164852997Y-59220919D01*
X164822135Y-59201527D01*
X164700258Y-59124946D01*
X164529989Y-59065366D01*
X164529984Y-59065365D01*
X164350739Y-59045170D01*
X164350731Y-59045170D01*
X164171485Y-59065365D01*
X164171480Y-59065366D01*
X164001211Y-59124946D01*
X163848472Y-59220919D01*
X163720919Y-59348472D01*
X163624946Y-59501211D01*
X163565366Y-59671480D01*
X163565365Y-59671485D01*
X163545170Y-59850731D01*
X163545170Y-59850739D01*
X163552449Y-59915346D01*
X163540394Y-59984168D01*
X163493045Y-60035547D01*
X163425434Y-60053171D01*
X163415346Y-60052449D01*
X163350739Y-60045170D01*
X163350731Y-60045170D01*
X163171485Y-60065365D01*
X163171480Y-60065366D01*
X163001211Y-60124946D01*
X162848472Y-60220919D01*
X162720919Y-60348472D01*
X162624946Y-60501211D01*
X162565366Y-60671480D01*
X162565365Y-60671485D01*
X162545170Y-60850731D01*
X93500500Y-60850731D01*
X93500500Y-54138428D01*
X158400000Y-54138428D01*
X158400000Y-54250000D01*
X159219670Y-54250000D01*
X159199925Y-54269745D01*
X159150556Y-54355255D01*
X159125000Y-54450630D01*
X159125000Y-54549370D01*
X159150556Y-54644745D01*
X159199925Y-54730255D01*
X159219670Y-54750000D01*
X158400000Y-54750000D01*
X158400000Y-54861571D01*
X158427085Y-55032584D01*
X158480591Y-55197257D01*
X158559195Y-55351524D01*
X158660967Y-55491602D01*
X158783397Y-55614032D01*
X158923475Y-55715804D01*
X159077744Y-55794408D01*
X159242415Y-55847914D01*
X159242414Y-55847914D01*
X159249999Y-55849115D01*
X159250000Y-55849114D01*
X159250000Y-54780330D01*
X159269745Y-54800075D01*
X159355255Y-54849444D01*
X159450630Y-54875000D01*
X159549370Y-54875000D01*
X159644745Y-54849444D01*
X159730255Y-54800075D01*
X159750000Y-54780330D01*
X159750000Y-55849115D01*
X159757584Y-55847914D01*
X159922255Y-55794408D01*
X160076524Y-55715804D01*
X160216598Y-55614035D01*
X160324199Y-55506434D01*
X160385522Y-55472949D01*
X160455214Y-55477933D01*
X160511148Y-55519804D01*
X160517418Y-55529016D01*
X160557288Y-55593656D01*
X160681344Y-55717712D01*
X160830666Y-55809814D01*
X160997203Y-55864999D01*
X161099991Y-55875500D01*
X161900008Y-55875499D01*
X161900016Y-55875498D01*
X161900019Y-55875498D01*
X161956302Y-55869748D01*
X162002797Y-55864999D01*
X162169334Y-55809814D01*
X162318656Y-55717712D01*
X162442712Y-55593656D01*
X162534814Y-55444334D01*
X162582399Y-55300731D01*
X166393700Y-55300731D01*
X166393700Y-55300738D01*
X166413895Y-55479984D01*
X166413896Y-55479989D01*
X166473476Y-55650258D01*
X166569450Y-55802998D01*
X166571710Y-55805832D01*
X166572599Y-55808010D01*
X166573154Y-55808893D01*
X166572999Y-55808990D01*
X166598120Y-55870518D01*
X166598765Y-55883147D01*
X166598765Y-58116852D01*
X166579080Y-58183891D01*
X166571715Y-58194161D01*
X166569451Y-58196999D01*
X166473476Y-58349741D01*
X166413896Y-58520010D01*
X166413895Y-58520015D01*
X166393700Y-58699261D01*
X166393700Y-58699268D01*
X166413895Y-58878514D01*
X166413896Y-58878519D01*
X166473476Y-59048788D01*
X166521330Y-59124946D01*
X166569449Y-59201527D01*
X166697003Y-59329081D01*
X166849743Y-59425054D01*
X167020010Y-59484633D01*
X167020015Y-59484634D01*
X167199261Y-59504830D01*
X167199265Y-59504830D01*
X167199269Y-59504830D01*
X167378514Y-59484634D01*
X167378517Y-59484633D01*
X167378520Y-59484633D01*
X167548787Y-59425054D01*
X167701527Y-59329081D01*
X167829081Y-59201527D01*
X167925054Y-59048787D01*
X167984633Y-58878520D01*
X168004830Y-58699265D01*
X167984633Y-58520010D01*
X167925054Y-58349743D01*
X167829081Y-58197003D01*
X167829079Y-58197001D01*
X167829078Y-58196999D01*
X167826815Y-58194161D01*
X167825924Y-58191980D01*
X167825376Y-58191107D01*
X167825529Y-58191010D01*
X167800409Y-58129474D01*
X167799765Y-58116852D01*
X167799765Y-55883147D01*
X167819450Y-55816108D01*
X167826820Y-55805832D01*
X167829075Y-55803002D01*
X167829081Y-55802997D01*
X167925054Y-55650257D01*
X167984633Y-55479990D01*
X167984865Y-55477933D01*
X168004830Y-55300738D01*
X168004830Y-55300731D01*
X167984634Y-55121485D01*
X167984633Y-55121480D01*
X167953527Y-55032584D01*
X167925054Y-54951213D01*
X167829081Y-54798473D01*
X167701527Y-54670919D01*
X167548788Y-54574946D01*
X167378519Y-54515366D01*
X167378514Y-54515365D01*
X167199269Y-54495170D01*
X167199261Y-54495170D01*
X167020015Y-54515365D01*
X167020010Y-54515366D01*
X166849741Y-54574946D01*
X166697002Y-54670919D01*
X166569449Y-54798472D01*
X166473476Y-54951211D01*
X166413896Y-55121480D01*
X166413895Y-55121485D01*
X166393700Y-55300731D01*
X162582399Y-55300731D01*
X162589999Y-55277797D01*
X162600500Y-55175009D01*
X162600499Y-53824992D01*
X162589999Y-53722203D01*
X162534814Y-53555666D01*
X162442712Y-53406344D01*
X162318656Y-53282288D01*
X162169334Y-53190186D01*
X162002797Y-53135001D01*
X162002795Y-53135000D01*
X161900010Y-53124500D01*
X161099998Y-53124500D01*
X161099980Y-53124501D01*
X160997203Y-53135000D01*
X160997200Y-53135001D01*
X160830668Y-53190185D01*
X160830663Y-53190187D01*
X160681342Y-53282289D01*
X160557289Y-53406342D01*
X160517420Y-53470981D01*
X160465472Y-53517705D01*
X160396509Y-53528928D01*
X160332427Y-53501084D01*
X160324200Y-53493565D01*
X160216602Y-53385967D01*
X160076524Y-53284195D01*
X159922257Y-53205591D01*
X159757589Y-53152087D01*
X159757581Y-53152085D01*
X159750000Y-53150884D01*
X159750000Y-54219670D01*
X159730255Y-54199925D01*
X159644745Y-54150556D01*
X159549370Y-54125000D01*
X159450630Y-54125000D01*
X159355255Y-54150556D01*
X159269745Y-54199925D01*
X159250000Y-54219670D01*
X159250000Y-53150884D01*
X159249999Y-53150884D01*
X159242418Y-53152085D01*
X159242410Y-53152087D01*
X159077742Y-53205591D01*
X158923475Y-53284195D01*
X158783397Y-53385967D01*
X158660967Y-53508397D01*
X158559195Y-53648475D01*
X158480591Y-53802742D01*
X158427085Y-53967415D01*
X158400000Y-54138428D01*
X93500500Y-54138428D01*
X93500500Y-53031504D01*
X180680000Y-53031504D01*
X180680000Y-53430000D01*
X181380000Y-53430000D01*
X181380000Y-53930000D01*
X180680000Y-53930000D01*
X180680000Y-54328495D01*
X180718427Y-54521681D01*
X180718430Y-54521693D01*
X180793807Y-54703671D01*
X180793814Y-54703684D01*
X180903248Y-54867462D01*
X180903251Y-54867466D01*
X181042533Y-55006748D01*
X181042537Y-55006751D01*
X181206315Y-55116185D01*
X181206328Y-55116192D01*
X181388308Y-55191569D01*
X181430000Y-55199862D01*
X181430000Y-54396988D01*
X181439940Y-54414205D01*
X181495795Y-54470060D01*
X181564204Y-54509556D01*
X181640504Y-54530000D01*
X181719496Y-54530000D01*
X181795796Y-54509556D01*
X181864205Y-54470060D01*
X181920060Y-54414205D01*
X181930000Y-54396988D01*
X181930000Y-55199862D01*
X181971690Y-55191569D01*
X181971692Y-55191569D01*
X182153671Y-55116192D01*
X182153684Y-55116185D01*
X182317462Y-55006751D01*
X182317466Y-55006748D01*
X182456748Y-54867466D01*
X182456751Y-54867462D01*
X182566185Y-54703684D01*
X182566192Y-54703671D01*
X182641569Y-54521693D01*
X182641572Y-54521681D01*
X182679999Y-54328495D01*
X182680000Y-54328492D01*
X182680000Y-53930000D01*
X181980000Y-53930000D01*
X181980000Y-53430000D01*
X182575950Y-53430000D01*
X182642989Y-53449685D01*
X182683337Y-53491999D01*
X182689492Y-53502661D01*
X182689495Y-53502665D01*
X182787335Y-53600505D01*
X182907164Y-53669688D01*
X183040817Y-53705500D01*
X183040819Y-53705500D01*
X183179181Y-53705500D01*
X183179183Y-53705500D01*
X183312836Y-53669688D01*
X183432665Y-53600505D01*
X183530505Y-53502665D01*
X183599688Y-53382836D01*
X183635500Y-53249183D01*
X183635500Y-53110817D01*
X188364500Y-53110817D01*
X188364500Y-53249183D01*
X188373882Y-53284195D01*
X188400312Y-53382835D01*
X188400313Y-53382838D01*
X188469492Y-53502661D01*
X188469494Y-53502664D01*
X188469495Y-53502665D01*
X188567335Y-53600505D01*
X188687164Y-53669688D01*
X188820817Y-53705500D01*
X188820819Y-53705500D01*
X188959181Y-53705500D01*
X188959183Y-53705500D01*
X189092836Y-53669688D01*
X189212665Y-53600505D01*
X189310505Y-53502665D01*
X189316663Y-53491999D01*
X189367231Y-53443784D01*
X189424050Y-53430000D01*
X190020000Y-53430000D01*
X190020000Y-53930000D01*
X189320000Y-53930000D01*
X189320000Y-54328495D01*
X189358427Y-54521681D01*
X189358430Y-54521693D01*
X189433807Y-54703671D01*
X189433814Y-54703684D01*
X189543248Y-54867462D01*
X189543251Y-54867466D01*
X189682533Y-55006748D01*
X189682537Y-55006751D01*
X189846315Y-55116185D01*
X189846328Y-55116192D01*
X190028308Y-55191569D01*
X190070000Y-55199862D01*
X190070000Y-54396988D01*
X190079940Y-54414205D01*
X190135795Y-54470060D01*
X190204204Y-54509556D01*
X190280504Y-54530000D01*
X190359496Y-54530000D01*
X190435796Y-54509556D01*
X190504205Y-54470060D01*
X190560060Y-54414205D01*
X190570000Y-54396988D01*
X190570000Y-55199862D01*
X190611690Y-55191569D01*
X190611692Y-55191569D01*
X190793671Y-55116192D01*
X190793684Y-55116185D01*
X190957462Y-55006751D01*
X190957466Y-55006748D01*
X191096748Y-54867466D01*
X191096751Y-54867462D01*
X191206185Y-54703684D01*
X191206192Y-54703671D01*
X191281569Y-54521693D01*
X191281572Y-54521681D01*
X191319999Y-54328495D01*
X191320000Y-54328492D01*
X191320000Y-53930000D01*
X190620000Y-53930000D01*
X190620000Y-53430000D01*
X191320000Y-53430000D01*
X191320000Y-53031508D01*
X191319999Y-53031504D01*
X191281572Y-52838318D01*
X191281569Y-52838306D01*
X191206192Y-52656328D01*
X191206185Y-52656315D01*
X191096751Y-52492537D01*
X191096748Y-52492533D01*
X190957466Y-52353251D01*
X190957462Y-52353248D01*
X190793684Y-52243814D01*
X190793671Y-52243807D01*
X190611691Y-52168429D01*
X190611683Y-52168427D01*
X190570000Y-52160135D01*
X190570000Y-52963011D01*
X190560060Y-52945795D01*
X190504205Y-52889940D01*
X190435796Y-52850444D01*
X190359496Y-52830000D01*
X190280504Y-52830000D01*
X190204204Y-52850444D01*
X190135795Y-52889940D01*
X190079940Y-52945795D01*
X190070000Y-52963011D01*
X190070000Y-52160136D01*
X190069999Y-52160135D01*
X190028316Y-52168427D01*
X190028308Y-52168429D01*
X189846328Y-52243807D01*
X189846315Y-52243814D01*
X189682537Y-52353248D01*
X189682533Y-52353251D01*
X189543251Y-52492533D01*
X189543248Y-52492537D01*
X189433814Y-52656315D01*
X189433807Y-52656328D01*
X189409838Y-52714197D01*
X189365997Y-52768601D01*
X189299703Y-52790666D01*
X189232004Y-52773387D01*
X189219624Y-52763770D01*
X189219110Y-52764441D01*
X189212661Y-52759492D01*
X189092838Y-52690313D01*
X189092837Y-52690312D01*
X189092836Y-52690312D01*
X188959183Y-52654500D01*
X188820817Y-52654500D01*
X188687164Y-52690312D01*
X188687161Y-52690313D01*
X188567338Y-52759492D01*
X188567333Y-52759496D01*
X188469496Y-52857333D01*
X188469492Y-52857338D01*
X188400313Y-52977161D01*
X188400312Y-52977164D01*
X188364500Y-53110817D01*
X183635500Y-53110817D01*
X183599688Y-52977164D01*
X183565096Y-52917249D01*
X183530507Y-52857338D01*
X183530503Y-52857333D01*
X183432666Y-52759496D01*
X183432661Y-52759492D01*
X183312838Y-52690313D01*
X183312837Y-52690312D01*
X183312836Y-52690312D01*
X183179183Y-52654500D01*
X183040817Y-52654500D01*
X182907164Y-52690312D01*
X182907161Y-52690313D01*
X182787338Y-52759492D01*
X182780890Y-52764441D01*
X182778883Y-52761825D01*
X182730991Y-52787931D01*
X182661303Y-52782895D01*
X182605400Y-52740982D01*
X182590160Y-52714196D01*
X182566189Y-52656322D01*
X182566185Y-52656315D01*
X182456751Y-52492537D01*
X182456748Y-52492533D01*
X182317466Y-52353251D01*
X182317462Y-52353248D01*
X182153684Y-52243814D01*
X182153671Y-52243807D01*
X181971691Y-52168429D01*
X181971683Y-52168427D01*
X181930000Y-52160135D01*
X181930000Y-52963011D01*
X181920060Y-52945795D01*
X181864205Y-52889940D01*
X181795796Y-52850444D01*
X181719496Y-52830000D01*
X181640504Y-52830000D01*
X181564204Y-52850444D01*
X181495795Y-52889940D01*
X181439940Y-52945795D01*
X181430000Y-52963011D01*
X181430000Y-52160136D01*
X181429999Y-52160135D01*
X181388316Y-52168427D01*
X181388308Y-52168429D01*
X181206328Y-52243807D01*
X181206315Y-52243814D01*
X181042537Y-52353248D01*
X181042533Y-52353251D01*
X180903251Y-52492533D01*
X180903248Y-52492537D01*
X180793814Y-52656315D01*
X180793807Y-52656328D01*
X180718430Y-52838306D01*
X180718427Y-52838318D01*
X180680000Y-53031504D01*
X93500500Y-53031504D01*
X93500500Y-50199983D01*
X95649500Y-50199983D01*
X95649500Y-51800001D01*
X95649501Y-51800018D01*
X95660000Y-51902796D01*
X95660001Y-51902799D01*
X95698618Y-52019336D01*
X95715186Y-52069334D01*
X95807288Y-52218656D01*
X95931344Y-52342712D01*
X96080666Y-52434814D01*
X96247203Y-52489999D01*
X96349991Y-52500500D01*
X97650008Y-52500499D01*
X97752797Y-52489999D01*
X97919334Y-52434814D01*
X98068656Y-52342712D01*
X98192712Y-52218656D01*
X98284814Y-52069334D01*
X98284814Y-52069331D01*
X98288448Y-52063441D01*
X98340395Y-52016716D01*
X98409358Y-52005493D01*
X98473440Y-52033336D01*
X98481668Y-52040856D01*
X98620535Y-52179723D01*
X98620540Y-52179727D01*
X98792442Y-52304620D01*
X98981782Y-52401095D01*
X99183871Y-52466757D01*
X99250000Y-52477231D01*
X99250000Y-51433012D01*
X99307007Y-51465925D01*
X99434174Y-51500000D01*
X99565826Y-51500000D01*
X99692993Y-51465925D01*
X99750000Y-51433012D01*
X99750000Y-52477230D01*
X99816126Y-52466757D01*
X99816129Y-52466757D01*
X100018217Y-52401095D01*
X100207557Y-52304620D01*
X100379459Y-52179727D01*
X100379464Y-52179723D01*
X100529723Y-52029464D01*
X100529727Y-52029459D01*
X100654620Y-51857557D01*
X100751095Y-51668217D01*
X100816757Y-51466130D01*
X100816757Y-51466127D01*
X100850000Y-51256246D01*
X100850000Y-51250000D01*
X99933012Y-51250000D01*
X99965925Y-51192993D01*
X100000000Y-51065826D01*
X100000000Y-50934174D01*
X99965925Y-50807007D01*
X99933012Y-50750000D01*
X100850000Y-50750000D01*
X100850000Y-50743753D01*
X100816757Y-50533872D01*
X100816757Y-50533869D01*
X100751095Y-50331782D01*
X100696677Y-50224983D01*
X115149500Y-50224983D01*
X115149500Y-51775001D01*
X115149501Y-51775018D01*
X115160000Y-51877796D01*
X115160001Y-51877799D01*
X115215185Y-52044331D01*
X115215186Y-52044334D01*
X115307288Y-52193656D01*
X115431344Y-52317712D01*
X115580666Y-52409814D01*
X115747203Y-52464999D01*
X115849991Y-52475500D01*
X117150008Y-52475499D01*
X117252797Y-52464999D01*
X117419334Y-52409814D01*
X117568656Y-52317712D01*
X117692712Y-52193656D01*
X117784814Y-52044334D01*
X117784814Y-52044331D01*
X117788178Y-52038879D01*
X117840126Y-51992154D01*
X117909088Y-51980931D01*
X117973170Y-52008774D01*
X117981398Y-52016294D01*
X118120213Y-52155109D01*
X118292179Y-52280048D01*
X118292181Y-52280049D01*
X118292184Y-52280051D01*
X118481588Y-52376557D01*
X118683757Y-52442246D01*
X118893713Y-52475500D01*
X118893714Y-52475500D01*
X119106286Y-52475500D01*
X119106287Y-52475500D01*
X119316243Y-52442246D01*
X119518412Y-52376557D01*
X119707816Y-52280051D01*
X119757702Y-52243807D01*
X119879786Y-52155109D01*
X119879788Y-52155106D01*
X119879792Y-52155104D01*
X120030104Y-52004792D01*
X120149683Y-51840204D01*
X120205011Y-51797540D01*
X120274624Y-51791561D01*
X120336420Y-51824166D01*
X120350313Y-51840199D01*
X120434397Y-51955931D01*
X120469896Y-52004792D01*
X120620213Y-52155109D01*
X120792179Y-52280048D01*
X120792181Y-52280049D01*
X120792184Y-52280051D01*
X120981588Y-52376557D01*
X121183757Y-52442246D01*
X121393713Y-52475500D01*
X121393714Y-52475500D01*
X121606286Y-52475500D01*
X121606287Y-52475500D01*
X121816243Y-52442246D01*
X122018412Y-52376557D01*
X122207816Y-52280051D01*
X122257702Y-52243807D01*
X122379786Y-52155109D01*
X122379788Y-52155106D01*
X122379792Y-52155104D01*
X122530104Y-52004792D01*
X122530106Y-52004788D01*
X122530109Y-52004786D01*
X122655048Y-51832820D01*
X122655047Y-51832820D01*
X122655051Y-51832816D01*
X122751557Y-51643412D01*
X122817246Y-51441243D01*
X122850500Y-51231287D01*
X122850500Y-50768713D01*
X122817246Y-50558757D01*
X122751557Y-50356588D01*
X122671763Y-50199983D01*
X139399500Y-50199983D01*
X139399500Y-51750001D01*
X139399501Y-51750018D01*
X139410000Y-51852796D01*
X139410001Y-51852799D01*
X139461687Y-52008774D01*
X139465186Y-52019334D01*
X139557288Y-52168656D01*
X139681344Y-52292712D01*
X139830666Y-52384814D01*
X139997203Y-52439999D01*
X140099991Y-52450500D01*
X141400008Y-52450499D01*
X141502797Y-52439999D01*
X141669334Y-52384814D01*
X141818656Y-52292712D01*
X141942712Y-52168656D01*
X142034814Y-52019334D01*
X142034814Y-52019331D01*
X142038178Y-52013879D01*
X142090126Y-51967154D01*
X142159088Y-51955931D01*
X142223170Y-51983774D01*
X142231398Y-51991294D01*
X142370213Y-52130109D01*
X142542179Y-52255048D01*
X142542181Y-52255049D01*
X142542184Y-52255051D01*
X142731588Y-52351557D01*
X142933757Y-52417246D01*
X143143713Y-52450500D01*
X143143714Y-52450500D01*
X143356286Y-52450500D01*
X143356287Y-52450500D01*
X143566243Y-52417246D01*
X143768412Y-52351557D01*
X143957816Y-52255051D01*
X143979789Y-52239086D01*
X144129786Y-52130109D01*
X144129788Y-52130106D01*
X144129792Y-52130104D01*
X144280104Y-51979792D01*
X144399683Y-51815204D01*
X144455011Y-51772540D01*
X144524624Y-51766561D01*
X144586420Y-51799166D01*
X144600313Y-51815199D01*
X144663958Y-51902799D01*
X144719896Y-51979792D01*
X144870213Y-52130109D01*
X145042179Y-52255048D01*
X145042181Y-52255049D01*
X145042184Y-52255051D01*
X145231588Y-52351557D01*
X145433757Y-52417246D01*
X145643713Y-52450500D01*
X145643714Y-52450500D01*
X145856286Y-52450500D01*
X145856287Y-52450500D01*
X146066243Y-52417246D01*
X146268412Y-52351557D01*
X146457816Y-52255051D01*
X146479789Y-52239086D01*
X146629786Y-52130109D01*
X146629788Y-52130106D01*
X146629792Y-52130104D01*
X146780104Y-51979792D01*
X146899683Y-51815204D01*
X146955011Y-51772540D01*
X147024624Y-51766561D01*
X147086420Y-51799166D01*
X147100313Y-51815199D01*
X147163958Y-51902799D01*
X147219896Y-51979792D01*
X147370213Y-52130109D01*
X147542179Y-52255048D01*
X147542181Y-52255049D01*
X147542184Y-52255051D01*
X147731588Y-52351557D01*
X147933757Y-52417246D01*
X148143713Y-52450500D01*
X148143714Y-52450500D01*
X148356286Y-52450500D01*
X148356287Y-52450500D01*
X148566243Y-52417246D01*
X148768412Y-52351557D01*
X148957816Y-52255051D01*
X148979789Y-52239086D01*
X149129786Y-52130109D01*
X149129788Y-52130106D01*
X149129792Y-52130104D01*
X149280104Y-51979792D01*
X149280106Y-51979788D01*
X149280109Y-51979786D01*
X149405048Y-51807820D01*
X149405047Y-51807820D01*
X149405051Y-51807816D01*
X149501557Y-51618412D01*
X149567246Y-51416243D01*
X149600500Y-51206287D01*
X149600500Y-50743713D01*
X149567246Y-50533757D01*
X149501557Y-50331588D01*
X149421763Y-50174983D01*
X172149500Y-50174983D01*
X172149500Y-51775001D01*
X172149501Y-51775018D01*
X172160000Y-51877796D01*
X172160001Y-51877799D01*
X172215185Y-52044331D01*
X172215186Y-52044334D01*
X172307288Y-52193656D01*
X172431344Y-52317712D01*
X172580666Y-52409814D01*
X172747203Y-52464999D01*
X172849991Y-52475500D01*
X174150008Y-52475499D01*
X174252797Y-52464999D01*
X174419334Y-52409814D01*
X174568656Y-52317712D01*
X174692712Y-52193656D01*
X174784814Y-52044334D01*
X174784814Y-52044331D01*
X174788178Y-52038879D01*
X174840126Y-51992154D01*
X174909088Y-51980931D01*
X174973170Y-52008774D01*
X174981398Y-52016294D01*
X175120213Y-52155109D01*
X175292179Y-52280048D01*
X175292181Y-52280049D01*
X175292184Y-52280051D01*
X175481588Y-52376557D01*
X175683757Y-52442246D01*
X175893713Y-52475500D01*
X175893714Y-52475500D01*
X176106286Y-52475500D01*
X176106287Y-52475500D01*
X176316243Y-52442246D01*
X176518412Y-52376557D01*
X176707816Y-52280051D01*
X176757702Y-52243807D01*
X176879786Y-52155109D01*
X176879788Y-52155106D01*
X176879792Y-52155104D01*
X177030104Y-52004792D01*
X177030106Y-52004788D01*
X177030109Y-52004786D01*
X177155048Y-51832820D01*
X177155047Y-51832820D01*
X177155051Y-51832816D01*
X177251557Y-51643412D01*
X177317246Y-51441243D01*
X177350500Y-51231287D01*
X177350500Y-50718713D01*
X177317246Y-50508757D01*
X177251557Y-50306588D01*
X177155051Y-50117184D01*
X177155049Y-50117181D01*
X177155048Y-50117179D01*
X177030109Y-49945213D01*
X176879786Y-49794890D01*
X176707820Y-49669951D01*
X176518414Y-49573444D01*
X176518413Y-49573443D01*
X176518412Y-49573443D01*
X176316243Y-49507754D01*
X176316241Y-49507753D01*
X176316240Y-49507753D01*
X176154957Y-49482208D01*
X176106287Y-49474500D01*
X175893713Y-49474500D01*
X175845042Y-49482208D01*
X175683760Y-49507753D01*
X175481585Y-49573444D01*
X175292179Y-49669951D01*
X175120215Y-49794889D01*
X174981398Y-49933706D01*
X174920075Y-49967190D01*
X174850383Y-49962206D01*
X174794450Y-49920334D01*
X174788178Y-49911120D01*
X174692712Y-49756344D01*
X174568657Y-49632289D01*
X174568656Y-49632288D01*
X174459864Y-49565185D01*
X174419336Y-49540187D01*
X174419331Y-49540185D01*
X174398375Y-49533241D01*
X174252797Y-49485001D01*
X174252795Y-49485000D01*
X174150010Y-49474500D01*
X172849998Y-49474500D01*
X172849981Y-49474501D01*
X172747203Y-49485000D01*
X172747200Y-49485001D01*
X172580668Y-49540185D01*
X172580663Y-49540187D01*
X172431342Y-49632289D01*
X172307289Y-49756342D01*
X172215187Y-49905663D01*
X172215185Y-49905668D01*
X172193689Y-49970540D01*
X172160001Y-50072203D01*
X172160001Y-50072204D01*
X172160000Y-50072204D01*
X172149500Y-50174983D01*
X149421763Y-50174983D01*
X149405051Y-50142184D01*
X149405049Y-50142181D01*
X149405048Y-50142179D01*
X149280109Y-49970213D01*
X149129786Y-49819890D01*
X148957820Y-49694951D01*
X148768414Y-49598444D01*
X148768413Y-49598443D01*
X148768412Y-49598443D01*
X148566243Y-49532754D01*
X148566241Y-49532753D01*
X148566240Y-49532753D01*
X148404957Y-49507208D01*
X148356287Y-49499500D01*
X148143713Y-49499500D01*
X148095042Y-49507208D01*
X147933760Y-49532753D01*
X147731585Y-49598444D01*
X147542179Y-49694951D01*
X147370213Y-49819890D01*
X147219894Y-49970209D01*
X147219890Y-49970214D01*
X147100318Y-50134793D01*
X147044989Y-50177459D01*
X146975375Y-50183438D01*
X146913580Y-50150833D01*
X146899682Y-50134793D01*
X146780109Y-49970214D01*
X146780105Y-49970209D01*
X146629786Y-49819890D01*
X146457820Y-49694951D01*
X146268414Y-49598444D01*
X146268413Y-49598443D01*
X146268412Y-49598443D01*
X146066243Y-49532754D01*
X146066241Y-49532753D01*
X146066240Y-49532753D01*
X145904957Y-49507208D01*
X145856287Y-49499500D01*
X145643713Y-49499500D01*
X145595042Y-49507208D01*
X145433760Y-49532753D01*
X145231585Y-49598444D01*
X145042179Y-49694951D01*
X144870213Y-49819890D01*
X144719894Y-49970209D01*
X144719890Y-49970214D01*
X144600318Y-50134793D01*
X144544989Y-50177459D01*
X144475375Y-50183438D01*
X144413580Y-50150833D01*
X144399682Y-50134793D01*
X144280109Y-49970214D01*
X144280105Y-49970209D01*
X144129786Y-49819890D01*
X143957820Y-49694951D01*
X143768414Y-49598444D01*
X143768413Y-49598443D01*
X143768412Y-49598443D01*
X143566243Y-49532754D01*
X143566241Y-49532753D01*
X143566240Y-49532753D01*
X143404957Y-49507208D01*
X143356287Y-49499500D01*
X143143713Y-49499500D01*
X143095042Y-49507208D01*
X142933760Y-49532753D01*
X142731585Y-49598444D01*
X142542179Y-49694951D01*
X142370215Y-49819889D01*
X142231398Y-49958706D01*
X142170075Y-49992190D01*
X142100383Y-49987206D01*
X142044450Y-49945334D01*
X142038178Y-49936120D01*
X141942712Y-49781344D01*
X141818657Y-49657289D01*
X141818656Y-49657288D01*
X141709864Y-49590185D01*
X141669336Y-49565187D01*
X141669331Y-49565185D01*
X141667862Y-49564698D01*
X141502797Y-49510001D01*
X141502795Y-49510000D01*
X141400010Y-49499500D01*
X140099998Y-49499500D01*
X140099981Y-49499501D01*
X139997203Y-49510000D01*
X139997200Y-49510001D01*
X139830668Y-49565185D01*
X139830663Y-49565187D01*
X139681342Y-49657289D01*
X139557289Y-49781342D01*
X139465187Y-49930663D01*
X139465185Y-49930668D01*
X139443797Y-49995213D01*
X139410001Y-50097203D01*
X139410001Y-50097204D01*
X139410000Y-50097204D01*
X139399500Y-50199983D01*
X122671763Y-50199983D01*
X122655051Y-50167184D01*
X122655049Y-50167181D01*
X122655048Y-50167179D01*
X122530109Y-49995213D01*
X122379786Y-49844890D01*
X122207820Y-49719951D01*
X122018414Y-49623444D01*
X122018413Y-49623443D01*
X122018412Y-49623443D01*
X121816243Y-49557754D01*
X121816241Y-49557753D01*
X121816240Y-49557753D01*
X121654957Y-49532208D01*
X121606287Y-49524500D01*
X121393713Y-49524500D01*
X121345042Y-49532208D01*
X121183760Y-49557753D01*
X120981585Y-49623444D01*
X120792179Y-49719951D01*
X120620213Y-49844890D01*
X120469894Y-49995209D01*
X120469890Y-49995214D01*
X120350318Y-50159793D01*
X120294989Y-50202459D01*
X120225375Y-50208438D01*
X120163580Y-50175833D01*
X120149682Y-50159793D01*
X120030109Y-49995214D01*
X120030105Y-49995209D01*
X119879786Y-49844890D01*
X119707820Y-49719951D01*
X119518414Y-49623444D01*
X119518413Y-49623443D01*
X119518412Y-49623443D01*
X119316243Y-49557754D01*
X119316241Y-49557753D01*
X119316240Y-49557753D01*
X119154957Y-49532208D01*
X119106287Y-49524500D01*
X118893713Y-49524500D01*
X118845042Y-49532208D01*
X118683760Y-49557753D01*
X118481585Y-49623444D01*
X118292179Y-49719951D01*
X118120215Y-49844889D01*
X117981398Y-49983706D01*
X117920075Y-50017190D01*
X117850383Y-50012206D01*
X117794450Y-49970334D01*
X117788178Y-49961120D01*
X117692712Y-49806344D01*
X117568657Y-49682289D01*
X117568656Y-49682288D01*
X117433467Y-49598903D01*
X117419336Y-49590187D01*
X117419331Y-49590185D01*
X117417862Y-49589698D01*
X117252797Y-49535001D01*
X117252795Y-49535000D01*
X117150010Y-49524500D01*
X115849998Y-49524500D01*
X115849981Y-49524501D01*
X115747203Y-49535000D01*
X115747200Y-49535001D01*
X115580668Y-49590185D01*
X115580663Y-49590187D01*
X115431342Y-49682289D01*
X115307289Y-49806342D01*
X115215187Y-49955663D01*
X115215185Y-49955668D01*
X115203083Y-49992190D01*
X115160001Y-50122203D01*
X115160001Y-50122204D01*
X115160000Y-50122204D01*
X115149500Y-50224983D01*
X100696677Y-50224983D01*
X100654620Y-50142442D01*
X100529727Y-49970540D01*
X100529723Y-49970535D01*
X100379464Y-49820276D01*
X100379459Y-49820272D01*
X100207557Y-49695379D01*
X100018215Y-49598903D01*
X99816124Y-49533241D01*
X99750000Y-49522768D01*
X99750000Y-50566988D01*
X99692993Y-50534075D01*
X99565826Y-50500000D01*
X99434174Y-50500000D01*
X99307007Y-50534075D01*
X99250000Y-50566988D01*
X99250000Y-49522768D01*
X99249999Y-49522768D01*
X99183875Y-49533241D01*
X98981784Y-49598903D01*
X98792442Y-49695379D01*
X98620541Y-49820271D01*
X98481668Y-49959144D01*
X98420345Y-49992628D01*
X98350653Y-49987644D01*
X98294720Y-49945772D01*
X98288448Y-49936558D01*
X98192712Y-49781344D01*
X98068657Y-49657289D01*
X98068656Y-49657288D01*
X97959864Y-49590185D01*
X97919336Y-49565187D01*
X97919331Y-49565185D01*
X97917862Y-49564698D01*
X97752797Y-49510001D01*
X97752795Y-49510000D01*
X97650010Y-49499500D01*
X96349998Y-49499500D01*
X96349981Y-49499501D01*
X96247203Y-49510000D01*
X96247200Y-49510001D01*
X96080668Y-49565185D01*
X96080663Y-49565187D01*
X95931342Y-49657289D01*
X95807289Y-49781342D01*
X95715187Y-49930663D01*
X95715185Y-49930668D01*
X95693797Y-49995213D01*
X95660001Y-50097203D01*
X95660001Y-50097204D01*
X95660000Y-50097204D01*
X95649500Y-50199983D01*
X93500500Y-50199983D01*
X93500500Y-49001504D01*
X180680000Y-49001504D01*
X180680000Y-49250000D01*
X181380000Y-49250000D01*
X181380000Y-49750000D01*
X180680000Y-49750000D01*
X180680000Y-49998495D01*
X180718427Y-50191681D01*
X180718430Y-50191693D01*
X180793807Y-50373671D01*
X180793814Y-50373684D01*
X180903248Y-50537462D01*
X180903251Y-50537466D01*
X181042533Y-50676748D01*
X181042537Y-50676751D01*
X181206315Y-50786185D01*
X181206328Y-50786192D01*
X181388308Y-50861569D01*
X181430000Y-50869862D01*
X181430000Y-50066988D01*
X181439940Y-50084205D01*
X181495795Y-50140060D01*
X181564204Y-50179556D01*
X181640504Y-50200000D01*
X181719496Y-50200000D01*
X181795796Y-50179556D01*
X181864205Y-50140060D01*
X181920060Y-50084205D01*
X181930000Y-50066988D01*
X181930000Y-50869862D01*
X181971690Y-50861569D01*
X181971692Y-50861569D01*
X182153671Y-50786192D01*
X182153684Y-50786185D01*
X182317462Y-50676751D01*
X182317466Y-50676748D01*
X182456748Y-50537466D01*
X182456751Y-50537462D01*
X182566185Y-50373684D01*
X182566192Y-50373671D01*
X182641569Y-50191693D01*
X182641572Y-50191681D01*
X182679999Y-49998495D01*
X182680000Y-49998492D01*
X182680000Y-49750000D01*
X181980000Y-49750000D01*
X181980000Y-49250000D01*
X182680000Y-49250000D01*
X182680000Y-49001508D01*
X182679999Y-49001504D01*
X189320000Y-49001504D01*
X189320000Y-49250000D01*
X190020000Y-49250000D01*
X190020000Y-49750000D01*
X189320000Y-49750000D01*
X189320000Y-49998495D01*
X189358427Y-50191681D01*
X189358430Y-50191693D01*
X189433807Y-50373671D01*
X189433814Y-50373684D01*
X189543248Y-50537462D01*
X189543251Y-50537466D01*
X189682533Y-50676748D01*
X189682537Y-50676751D01*
X189846315Y-50786185D01*
X189846328Y-50786192D01*
X190028308Y-50861569D01*
X190070000Y-50869862D01*
X190070000Y-50066988D01*
X190079940Y-50084205D01*
X190135795Y-50140060D01*
X190204204Y-50179556D01*
X190280504Y-50200000D01*
X190359496Y-50200000D01*
X190435796Y-50179556D01*
X190504205Y-50140060D01*
X190560060Y-50084205D01*
X190570000Y-50066988D01*
X190570000Y-50869862D01*
X190611690Y-50861569D01*
X190611692Y-50861569D01*
X190793671Y-50786192D01*
X190793684Y-50786185D01*
X190957462Y-50676751D01*
X190957466Y-50676748D01*
X191096748Y-50537466D01*
X191096751Y-50537462D01*
X191206185Y-50373684D01*
X191206192Y-50373671D01*
X191281569Y-50191693D01*
X191281572Y-50191681D01*
X191319999Y-49998495D01*
X191320000Y-49998492D01*
X191320000Y-49750000D01*
X190620000Y-49750000D01*
X190620000Y-49250000D01*
X191320000Y-49250000D01*
X191320000Y-49001508D01*
X191319999Y-49001504D01*
X191281572Y-48808318D01*
X191281569Y-48808306D01*
X191206192Y-48626328D01*
X191206185Y-48626315D01*
X191096751Y-48462537D01*
X191096748Y-48462533D01*
X190957466Y-48323251D01*
X190957462Y-48323248D01*
X190793684Y-48213814D01*
X190793671Y-48213807D01*
X190611691Y-48138429D01*
X190611683Y-48138427D01*
X190570000Y-48130135D01*
X190570000Y-48933011D01*
X190560060Y-48915795D01*
X190504205Y-48859940D01*
X190435796Y-48820444D01*
X190359496Y-48800000D01*
X190280504Y-48800000D01*
X190204204Y-48820444D01*
X190135795Y-48859940D01*
X190079940Y-48915795D01*
X190070000Y-48933011D01*
X190070000Y-48130136D01*
X190069999Y-48130135D01*
X190028316Y-48138427D01*
X190028308Y-48138429D01*
X189846328Y-48213807D01*
X189846315Y-48213814D01*
X189682537Y-48323248D01*
X189682533Y-48323251D01*
X189543251Y-48462533D01*
X189543248Y-48462537D01*
X189433814Y-48626315D01*
X189433807Y-48626328D01*
X189358430Y-48808306D01*
X189358427Y-48808318D01*
X189320000Y-49001504D01*
X182679999Y-49001504D01*
X182641572Y-48808318D01*
X182641569Y-48808306D01*
X182566192Y-48626328D01*
X182566185Y-48626315D01*
X182456751Y-48462537D01*
X182456748Y-48462533D01*
X182317466Y-48323251D01*
X182317462Y-48323248D01*
X182153684Y-48213814D01*
X182153671Y-48213807D01*
X181971691Y-48138429D01*
X181971683Y-48138427D01*
X181930000Y-48130135D01*
X181930000Y-48933011D01*
X181920060Y-48915795D01*
X181864205Y-48859940D01*
X181795796Y-48820444D01*
X181719496Y-48800000D01*
X181640504Y-48800000D01*
X181564204Y-48820444D01*
X181495795Y-48859940D01*
X181439940Y-48915795D01*
X181430000Y-48933011D01*
X181430000Y-48130136D01*
X181429999Y-48130135D01*
X181388316Y-48138427D01*
X181388308Y-48138429D01*
X181206328Y-48213807D01*
X181206315Y-48213814D01*
X181042537Y-48323248D01*
X181042533Y-48323251D01*
X180903251Y-48462533D01*
X180903248Y-48462537D01*
X180793814Y-48626315D01*
X180793807Y-48626328D01*
X180718430Y-48808306D01*
X180718427Y-48808318D01*
X180680000Y-49001504D01*
X93500500Y-49001504D01*
X93500500Y-47624500D01*
X93520185Y-47557461D01*
X93572989Y-47511706D01*
X93624500Y-47500500D01*
X192375500Y-47500500D01*
X192442539Y-47520185D01*
G37*
G04 #@! TD.AperFunction*
M02*
