G04 #@! TF.GenerationSoftware,KiCad,Pcbnew,8.0.2*
G04 #@! TF.CreationDate,2025-03-06T10:36:10-07:00*
G04 #@! TF.ProjectId,kicad,6b696361-642e-46b6-9963-61645f706362,4*
G04 #@! TF.SameCoordinates,Original*
G04 #@! TF.FileFunction,Copper,L4,Bot*
G04 #@! TF.FilePolarity,Positive*
%FSLAX46Y46*%
G04 Gerber Fmt 4.6, Leading zero omitted, Abs format (unit mm)*
G04 Created by KiCad (PCBNEW 8.0.2) date 2025-03-06 10:36:10*
%MOMM*%
%LPD*%
G01*
G04 APERTURE LIST*
G04 Aperture macros list*
%AMRoundRect*
0 Rectangle with rounded corners*
0 $1 Rounding radius*
0 $2 $3 $4 $5 $6 $7 $8 $9 X,Y pos of 4 corners*
0 Add a 4 corners polygon primitive as box body*
4,1,4,$2,$3,$4,$5,$6,$7,$8,$9,$2,$3,0*
0 Add four circle primitives for the rounded corners*
1,1,$1+$1,$2,$3*
1,1,$1+$1,$4,$5*
1,1,$1+$1,$6,$7*
1,1,$1+$1,$8,$9*
0 Add four rect primitives between the rounded corners*
20,1,$1+$1,$2,$3,$4,$5,0*
20,1,$1+$1,$4,$5,$6,$7,0*
20,1,$1+$1,$6,$7,$8,$9,0*
20,1,$1+$1,$8,$9,$2,$3,0*%
G04 Aperture macros list end*
G04 #@! TA.AperFunction,ComponentPad*
%ADD10RoundRect,0.104167X-0.295833X0.145833X-0.295833X-0.145833X0.295833X-0.145833X0.295833X0.145833X0*%
G04 #@! TD*
G04 #@! TA.AperFunction,ComponentPad*
%ADD11O,0.800000X0.500000*%
G04 #@! TD*
G04 #@! TA.AperFunction,ComponentPad*
%ADD12O,2.100000X1.000000*%
G04 #@! TD*
G04 #@! TA.AperFunction,ComponentPad*
%ADD13O,1.800000X1.000000*%
G04 #@! TD*
G04 #@! TA.AperFunction,ComponentPad*
%ADD14RoundRect,0.250000X-0.625000X0.350000X-0.625000X-0.350000X0.625000X-0.350000X0.625000X0.350000X0*%
G04 #@! TD*
G04 #@! TA.AperFunction,ComponentPad*
%ADD15O,1.750000X1.200000*%
G04 #@! TD*
G04 #@! TA.AperFunction,ComponentPad*
%ADD16R,0.900000X0.500000*%
G04 #@! TD*
G04 #@! TA.AperFunction,ComponentPad*
%ADD17C,1.397000*%
G04 #@! TD*
G04 #@! TA.AperFunction,ViaPad*
%ADD18C,0.250000*%
G04 #@! TD*
G04 #@! TA.AperFunction,ViaPad*
%ADD19C,0.450000*%
G04 #@! TD*
G04 #@! TA.AperFunction,Conductor*
%ADD20C,0.150000*%
G04 #@! TD*
G04 APERTURE END LIST*
D10*
X134000000Y-101600000D03*
D11*
X134000000Y-102616000D03*
D12*
X131930000Y-111752500D03*
D13*
X127750000Y-111752500D03*
D12*
X131930000Y-120392500D03*
D13*
X127750000Y-120392500D03*
D14*
X156500000Y-108000000D03*
D15*
X156500000Y-110000000D03*
D16*
X136150000Y-99625000D03*
D17*
X156750000Y-117566020D03*
X156750000Y-114568820D03*
D18*
X151485000Y-109000000D03*
D19*
X157300000Y-128400000D03*
X127800000Y-99100000D03*
X157600000Y-96500000D03*
X156700000Y-120800000D03*
D18*
X139200000Y-122900000D03*
X150100000Y-116200000D03*
D19*
X135300000Y-112900000D03*
X136100000Y-102100000D03*
X132000000Y-121300000D03*
X134000000Y-98600000D03*
X142100000Y-111200000D03*
X137500000Y-101575000D03*
X134600000Y-121400000D03*
D18*
X137900000Y-118900000D03*
X135200000Y-110000000D03*
X151200000Y-113950003D03*
D19*
X135200000Y-118000000D03*
D18*
X150656059Y-104256059D03*
D19*
X157600000Y-99200000D03*
D18*
X137500000Y-107000000D03*
X154100000Y-109900000D03*
X153615284Y-103421423D03*
X140300000Y-121400000D03*
X152500000Y-104200000D03*
D19*
X152700000Y-129800000D03*
X141100000Y-101700000D03*
D18*
X150000000Y-109000000D03*
D19*
X132300000Y-129800000D03*
X134500000Y-123900000D03*
D18*
X151100000Y-108800000D03*
X144700000Y-122800000D03*
D19*
X143500000Y-102200000D03*
D18*
X136000000Y-108000000D03*
X146600000Y-103500000D03*
X156917745Y-104717745D03*
X138900000Y-118900000D03*
D19*
X156800000Y-120100000D03*
X157300000Y-123200000D03*
D18*
X147958015Y-111400000D03*
X151300000Y-123600000D03*
X152300000Y-123600000D03*
X151200000Y-109400000D03*
X139900000Y-118900000D03*
X150300000Y-123600000D03*
D19*
X133500000Y-129800000D03*
X133700000Y-121400000D03*
D18*
X139650000Y-106500000D03*
X154000000Y-113200000D03*
D19*
X127800000Y-128100000D03*
D18*
X136900000Y-118900000D03*
D19*
X152950000Y-116900000D03*
D18*
X154100000Y-102000000D03*
X148500000Y-104500000D03*
D19*
X135600000Y-102838559D03*
X127700000Y-96400000D03*
X135500000Y-115200000D03*
X127600000Y-123000000D03*
X151500000Y-129700000D03*
D18*
X133300000Y-119100000D03*
X152100000Y-104200000D03*
D19*
X135900000Y-113500000D03*
X153850000Y-118700000D03*
X133392894Y-113150000D03*
D18*
X136300000Y-118900000D03*
X150685000Y-113100000D03*
X153600000Y-110937200D03*
X150050000Y-106305000D03*
D19*
X129531931Y-105018069D03*
X133650000Y-111350000D03*
X133150000Y-110000000D03*
D18*
X145600000Y-104800000D03*
X149300000Y-123100000D03*
X147700000Y-117900000D03*
X147400000Y-106600000D03*
X145200000Y-118500000D03*
X147221113Y-106242227D03*
X143300000Y-120900000D03*
X147200000Y-105800000D03*
X148800000Y-123100000D03*
X145300000Y-105800000D03*
X142719998Y-121500000D03*
X147200000Y-105399997D03*
X146558016Y-108818801D03*
X139000000Y-102750000D03*
X133800002Y-104235686D03*
X137150000Y-104500000D03*
X147333462Y-110187702D03*
X146708383Y-109189465D03*
X134457154Y-104892840D03*
X136736382Y-104677265D03*
X137343233Y-111756767D03*
X137400000Y-110400000D03*
X137399175Y-111229326D03*
X147908015Y-107775000D03*
X152900000Y-119300000D03*
X157745000Y-102700000D03*
X151500000Y-112100000D03*
X137375001Y-110825454D03*
D19*
X138586081Y-102387821D03*
X127600000Y-102800000D03*
X156800000Y-112100000D03*
X152950000Y-116000000D03*
X152400000Y-126200000D03*
X132200000Y-99300000D03*
X130400000Y-125800000D03*
D18*
X146700000Y-110700000D03*
X155300000Y-120800000D03*
X141584579Y-106164480D03*
D19*
X130400000Y-125100000D03*
X154100000Y-121200000D03*
D18*
X154500000Y-112000000D03*
X147908015Y-112707670D03*
X142900000Y-119600000D03*
X143600000Y-104600000D03*
X144100000Y-119600000D03*
D19*
X133300000Y-100600000D03*
D18*
X152407843Y-102792157D03*
X140800000Y-122800000D03*
X138800000Y-106400000D03*
X140049999Y-115761971D03*
X146900000Y-114600000D03*
D19*
X133600000Y-122300000D03*
D18*
X141200000Y-122900000D03*
D19*
X153500000Y-101500000D03*
D18*
X150500000Y-102800000D03*
D19*
X134406067Y-108477989D03*
X134556931Y-110043069D03*
D18*
X142350000Y-100400000D03*
X135800000Y-100500000D03*
X130781196Y-105418804D03*
X145916431Y-103435687D03*
D19*
X133800000Y-109850000D03*
X136535485Y-111314515D03*
D18*
X154050000Y-107450000D03*
X146558015Y-111600000D03*
X147908015Y-109288114D03*
X151100000Y-108000000D03*
X151570721Y-106879279D03*
X146681714Y-101368513D03*
X137800000Y-115400000D03*
X153709889Y-110552588D03*
X152400000Y-111300000D03*
X147900000Y-113400000D03*
X150221881Y-113732822D03*
X150685000Y-110915002D03*
X153600000Y-109250000D03*
X151485000Y-110650000D03*
X148800000Y-101600000D03*
X140300000Y-116500000D03*
X146100000Y-115800000D03*
X152200000Y-114600000D03*
X148200000Y-102000000D03*
X153500000Y-111800000D03*
X132832843Y-123817157D03*
X130450000Y-112450000D03*
X135900000Y-109300000D03*
X133017157Y-125132843D03*
X136450000Y-109600000D03*
X129650000Y-119000000D03*
X146985086Y-128649500D03*
X131232843Y-121567157D03*
X147826059Y-129076059D03*
X129650001Y-111770710D03*
X144200000Y-115850000D03*
X150279657Y-114429657D03*
X152313173Y-113913173D03*
X147408015Y-113750000D03*
X149900000Y-106900000D03*
X149900000Y-110958710D03*
D20*
X153600000Y-111150686D02*
X153600000Y-110937200D01*
X150685000Y-113100000D02*
X151650686Y-113100000D01*
X151650686Y-113100000D02*
X153600000Y-111150686D01*
X149802500Y-105054985D02*
X149802500Y-106057500D01*
X133475000Y-101075000D02*
X129531931Y-105018069D01*
X133150000Y-110850000D02*
X133650000Y-111350000D01*
X133150000Y-110000000D02*
X133150000Y-110850000D01*
X149802500Y-105054985D02*
X145822515Y-101075000D01*
X145822515Y-101075000D02*
X133475000Y-101075000D01*
X149802500Y-106057500D02*
X150050000Y-106305000D01*
X149600000Y-106849124D02*
X147550876Y-104800000D01*
X147550876Y-104800000D02*
X145600000Y-104800000D01*
X149300000Y-123100000D02*
X149600000Y-122800000D01*
X149600000Y-122800000D02*
X149600000Y-106849124D01*
X147700000Y-117900000D02*
X148258015Y-117341985D01*
X148258015Y-107458015D02*
X147400000Y-106600000D01*
X148258015Y-117341985D02*
X148258015Y-107458015D01*
X148600000Y-117494975D02*
X148600000Y-107263340D01*
X145200000Y-118500000D02*
X147594975Y-118500000D01*
X148600000Y-107263340D02*
X147578887Y-106242227D01*
X147578887Y-106242227D02*
X147221113Y-106242227D01*
X147594975Y-118500000D02*
X148600000Y-117494975D01*
X148850000Y-117598529D02*
X148850000Y-107159786D01*
X145548529Y-120900000D02*
X148850000Y-117598529D01*
X148850000Y-107159786D02*
X147490214Y-105800000D01*
X143300000Y-120900000D02*
X145548529Y-120900000D01*
X147490214Y-105800000D02*
X147200000Y-105800000D01*
X147447319Y-105049997D02*
X149350000Y-106952678D01*
X149350000Y-122550000D02*
X148800000Y-123100000D01*
X145300000Y-105800000D02*
X146050003Y-105049997D01*
X149350000Y-106952678D02*
X149350000Y-122550000D01*
X146050003Y-105049997D02*
X147447319Y-105049997D01*
X147443765Y-105399997D02*
X147200000Y-105399997D01*
X149100000Y-117702082D02*
X149100000Y-107056232D01*
X149100000Y-107056232D02*
X147443765Y-105399997D01*
X146051041Y-120751041D02*
X149100000Y-117702082D01*
X142719998Y-121500000D02*
X145302082Y-121500000D01*
X145302082Y-121500000D02*
X146051041Y-120751041D01*
X133400002Y-104070000D02*
X133400002Y-104401372D01*
X147887626Y-104130061D02*
X145094375Y-104130061D01*
X133400002Y-104401372D02*
X137817431Y-108818801D01*
X146507565Y-102750000D02*
X147887626Y-104130061D01*
X145094375Y-104130061D02*
X144800000Y-103835686D01*
X139000000Y-102750000D02*
X146507565Y-102750000D01*
X137817431Y-108818801D02*
X146558016Y-108818801D01*
X133634316Y-103835686D02*
X133400002Y-104070000D01*
X144800000Y-103835686D02*
X133634316Y-103835686D01*
X147308015Y-110162255D02*
X147308015Y-107008015D01*
X142273623Y-104250000D02*
X144673623Y-106650000D01*
X144673623Y-106650000D02*
X146950000Y-106650000D01*
X133800002Y-104235686D02*
X133814316Y-104250000D01*
X136650000Y-104250000D02*
X136900000Y-104250000D01*
X136650000Y-104250000D02*
X142273623Y-104250000D01*
X133814316Y-104250000D02*
X136650000Y-104250000D01*
X146950000Y-106650000D02*
X147308015Y-107008015D01*
X136900000Y-104250000D02*
X137150000Y-104500000D01*
X147333462Y-110187702D02*
X147308015Y-110162255D01*
X146958015Y-108939833D02*
X146958015Y-107200000D01*
X144700000Y-107000000D02*
X144528649Y-107000000D01*
X146758015Y-107000000D02*
X144700000Y-107000000D01*
X137009117Y-104950000D02*
X136736382Y-104677265D01*
X137009117Y-104950000D02*
X134514314Y-104950000D01*
X144400000Y-107000000D02*
X142350000Y-104950000D01*
X146958015Y-107200000D02*
X146758015Y-107000000D01*
X144700000Y-107000000D02*
X144400000Y-107000000D01*
X134514314Y-104950000D02*
X134457154Y-104892840D01*
X142350000Y-104950000D02*
X137009117Y-104950000D01*
X146708383Y-109189465D02*
X146958015Y-108939833D01*
X134406067Y-108477989D02*
X134300000Y-108584056D01*
X135900000Y-100400000D02*
X135800000Y-100500000D01*
X134300000Y-109786138D02*
X134556931Y-110043069D01*
X142350000Y-100400000D02*
X135900000Y-100400000D01*
X134300000Y-108584056D02*
X134300000Y-109786138D01*
X136535485Y-111314515D02*
X135121270Y-111314515D01*
X145819303Y-103338559D02*
X145916431Y-103435687D01*
X133800000Y-109993245D02*
X133800000Y-109850000D01*
X145700000Y-103338559D02*
X133636468Y-103338559D01*
X135121270Y-111314515D02*
X133800000Y-109993245D01*
X131556223Y-105418804D02*
X130781196Y-105418804D01*
X133636468Y-103338559D02*
X131556223Y-105418804D01*
X145700000Y-103338559D02*
X145819303Y-103338559D01*
X151100000Y-108000000D02*
X153500000Y-108000000D01*
X153500000Y-108000000D02*
X154050000Y-107450000D01*
X147908015Y-110461897D02*
X147908015Y-109288114D01*
X146769912Y-111600000D02*
X147908015Y-110461897D01*
X146558015Y-111600000D02*
X146769912Y-111600000D01*
X151570721Y-106257520D02*
X146681714Y-101368513D01*
X151570721Y-106879279D02*
X151570721Y-106257520D01*
X153709889Y-110552588D02*
X153489637Y-110552588D01*
X150300000Y-113205025D02*
X150300000Y-112805025D01*
X150221881Y-113732822D02*
X150350000Y-113604703D01*
X151805025Y-111300000D02*
X152400000Y-111300000D01*
X137800000Y-115400000D02*
X139800000Y-113400000D01*
X153489637Y-110552588D02*
X152742225Y-111300000D01*
X150350000Y-113255025D02*
X150300000Y-113205025D01*
X152742225Y-111300000D02*
X152400000Y-111300000D01*
X150350000Y-113604703D02*
X150350000Y-113255025D01*
X139800000Y-113400000D02*
X147900000Y-113400000D01*
X150300000Y-112805025D02*
X151805025Y-111300000D01*
X150950002Y-110650000D02*
X152200000Y-110650000D01*
X152200000Y-110650000D02*
X153600000Y-109250000D01*
X150950002Y-110650000D02*
X150685000Y-110915002D01*
X151485000Y-110650000D02*
X150950002Y-110650000D01*
X152663173Y-112936827D02*
X152663173Y-114136827D01*
X153350000Y-112250000D02*
X152663173Y-112936827D01*
X146100000Y-115800000D02*
X145400000Y-116500000D01*
X153600000Y-112250000D02*
X153350000Y-112250000D01*
X149794975Y-101600000D02*
X150850000Y-102655025D01*
X152663173Y-114136827D02*
X152200000Y-114600000D01*
X151450000Y-102655025D02*
X154650000Y-105855025D01*
X154650000Y-105855025D02*
X154650000Y-111200000D01*
X148800000Y-101600000D02*
X149794975Y-101600000D01*
X150850000Y-102655025D02*
X151450000Y-102655025D01*
X154650000Y-111200000D02*
X153600000Y-112250000D01*
X145400000Y-116500000D02*
X140300000Y-116500000D01*
X149094975Y-102000000D02*
X148200000Y-102000000D01*
X154400000Y-107305025D02*
X149094975Y-102000000D01*
X154400000Y-110900000D02*
X154400000Y-107305025D01*
X153500000Y-111800000D02*
X154400000Y-110900000D01*
X134627989Y-107977989D02*
X135900000Y-109250000D01*
X133017157Y-124001471D02*
X132832843Y-123817157D01*
X130450000Y-112450000D02*
X130450000Y-111726949D01*
X133017157Y-125132843D02*
X133017157Y-124001471D01*
X135900000Y-109250000D02*
X135900000Y-109300000D01*
X134198960Y-107977989D02*
X134627989Y-107977989D01*
X130450000Y-111726949D02*
X134198960Y-107977989D01*
X130705000Y-121039314D02*
X130705000Y-120055000D01*
X147826059Y-129076059D02*
X147411645Y-129076059D01*
X131232843Y-121567157D02*
X130705000Y-121039314D01*
X130705000Y-120055000D02*
X129650000Y-119000000D01*
X147411645Y-129076059D02*
X146985086Y-128649500D01*
X136450000Y-109284314D02*
X136450000Y-109600000D01*
X134793675Y-107627989D02*
X136450000Y-109284314D01*
X129650001Y-111770710D02*
X133792722Y-107627989D01*
X133792722Y-107627989D02*
X134793675Y-107627989D01*
X150287157Y-114437157D02*
X150279657Y-114429657D01*
X151789189Y-114437157D02*
X152313173Y-113913173D01*
X144607471Y-115850000D02*
X146707471Y-113750000D01*
X151789189Y-114437157D02*
X150287157Y-114437157D01*
X146707471Y-113750000D02*
X147408015Y-113750000D01*
X144200000Y-115850000D02*
X144607471Y-115850000D01*
X149900000Y-110958710D02*
X150300000Y-110558710D01*
X150300000Y-110558710D02*
X150300000Y-107300000D01*
X150300000Y-107300000D02*
X149900000Y-106900000D01*
G04 #@! TA.AperFunction,Conductor*
G36*
X137184606Y-109009500D02*
G01*
X137218106Y-109033356D01*
X137356916Y-109172166D01*
X137464066Y-109279316D01*
X137595296Y-109355082D01*
X137741665Y-109394301D01*
X146031504Y-109394301D01*
X146098543Y-109413986D01*
X146144298Y-109466790D01*
X146147438Y-109474312D01*
X146150462Y-109482284D01*
X146236751Y-109607295D01*
X146350449Y-109708022D01*
X146484949Y-109778613D01*
X146632434Y-109814965D01*
X146632437Y-109814965D01*
X146638190Y-109816383D01*
X146698570Y-109851539D01*
X146730359Y-109913758D01*
X146732515Y-109936780D01*
X146732515Y-109951475D01*
X146712830Y-110018514D01*
X146660026Y-110064269D01*
X146631252Y-110072376D01*
X146631333Y-110072705D01*
X146476567Y-110110851D01*
X146342067Y-110181442D01*
X146314884Y-110205524D01*
X146270877Y-110244511D01*
X146228367Y-110282171D01*
X146142080Y-110407179D01*
X146142079Y-110407180D01*
X146088215Y-110549208D01*
X146069906Y-110700000D01*
X146088215Y-110850791D01*
X146142079Y-110992819D01*
X146145566Y-110999463D01*
X146143380Y-111000610D01*
X146161526Y-111055668D01*
X146144049Y-111123317D01*
X146119821Y-111152545D01*
X146086384Y-111182167D01*
X146000095Y-111307179D01*
X146000094Y-111307180D01*
X145946230Y-111449208D01*
X145930643Y-111577585D01*
X145927921Y-111600000D01*
X145946230Y-111750791D01*
X146000094Y-111892819D01*
X146086383Y-112017830D01*
X146200081Y-112118557D01*
X146334581Y-112189148D01*
X146365509Y-112196771D01*
X146482065Y-112225500D01*
X146482066Y-112225500D01*
X146633965Y-112225500D01*
X146750521Y-112196771D01*
X146781449Y-112189148D01*
X146781451Y-112189146D01*
X146788457Y-112186490D01*
X146788881Y-112187609D01*
X146838016Y-112175500D01*
X146845676Y-112175500D01*
X146845678Y-112175500D01*
X146992047Y-112136281D01*
X147123277Y-112060515D01*
X147470834Y-111712958D01*
X147532157Y-111679473D01*
X147601849Y-111684457D01*
X147657782Y-111726329D01*
X147682199Y-111791793D01*
X147682515Y-111800639D01*
X147682515Y-112044645D01*
X147662830Y-112111684D01*
X147616141Y-112154441D01*
X147550083Y-112189110D01*
X147436382Y-112289841D01*
X147350095Y-112414849D01*
X147350094Y-112414850D01*
X147296230Y-112556878D01*
X147277017Y-112715115D01*
X147273746Y-112714717D01*
X147258236Y-112767539D01*
X147205432Y-112813294D01*
X147153921Y-112824500D01*
X139724233Y-112824500D01*
X139577863Y-112863719D01*
X139446635Y-112939485D01*
X139446632Y-112939487D01*
X137587178Y-114798940D01*
X137557123Y-114821055D01*
X137442068Y-114881440D01*
X137328367Y-114982171D01*
X137242080Y-115107179D01*
X137242079Y-115107180D01*
X137190413Y-115243414D01*
X137188215Y-115249209D01*
X137169906Y-115400000D01*
X137188215Y-115550791D01*
X137242079Y-115692819D01*
X137328368Y-115817830D01*
X137442066Y-115918557D01*
X137576566Y-115989148D01*
X137650308Y-116007324D01*
X137724050Y-116025500D01*
X137724051Y-116025500D01*
X137875950Y-116025500D01*
X137925110Y-116013382D01*
X138023434Y-115989148D01*
X138157934Y-115918557D01*
X138271632Y-115817830D01*
X138357921Y-115692819D01*
X138371001Y-115658327D01*
X138399261Y-115614617D01*
X140002061Y-114011819D01*
X140063384Y-113978334D01*
X140089742Y-113975500D01*
X145368729Y-113975500D01*
X145435768Y-113995185D01*
X145481523Y-114047989D01*
X145491467Y-114117147D01*
X145462442Y-114180703D01*
X145456410Y-114187181D01*
X144440238Y-115203351D01*
X144378915Y-115236836D01*
X144322884Y-115236067D01*
X144275952Y-115224500D01*
X144275949Y-115224500D01*
X144124051Y-115224500D01*
X144124050Y-115224500D01*
X143976567Y-115260851D01*
X143842067Y-115331442D01*
X143842066Y-115331443D01*
X143731730Y-115429192D01*
X143728367Y-115432171D01*
X143642080Y-115557179D01*
X143642079Y-115557180D01*
X143590639Y-115692818D01*
X143588215Y-115699209D01*
X143580595Y-115761971D01*
X143574102Y-115815446D01*
X143546481Y-115879624D01*
X143488547Y-115918681D01*
X143451006Y-115924500D01*
X140800326Y-115924500D01*
X140733287Y-115904815D01*
X140687532Y-115852011D01*
X140677230Y-115785556D01*
X140680093Y-115761973D01*
X140680093Y-115761971D01*
X140661784Y-115611180D01*
X140607920Y-115469152D01*
X140521631Y-115344141D01*
X140407933Y-115243414D01*
X140273433Y-115172823D01*
X140273432Y-115172822D01*
X140273431Y-115172822D01*
X140125949Y-115136471D01*
X140125948Y-115136471D01*
X139974050Y-115136471D01*
X139974049Y-115136471D01*
X139826566Y-115172822D01*
X139692066Y-115243413D01*
X139672381Y-115260852D01*
X139601644Y-115323520D01*
X139578366Y-115344142D01*
X139492079Y-115469150D01*
X139492078Y-115469151D01*
X139438214Y-115611179D01*
X139424152Y-115726990D01*
X139419905Y-115761971D01*
X139438214Y-115912762D01*
X139492078Y-116054790D01*
X139518329Y-116092820D01*
X139578368Y-116179802D01*
X139647404Y-116240963D01*
X139684531Y-116300152D01*
X139688273Y-116348724D01*
X139671348Y-116488121D01*
X139669906Y-116500000D01*
X139688215Y-116650791D01*
X139742079Y-116792819D01*
X139828368Y-116917830D01*
X139942066Y-117018557D01*
X140076566Y-117089148D01*
X140097205Y-117094235D01*
X140224050Y-117125500D01*
X140224051Y-117125500D01*
X140375950Y-117125500D01*
X140502795Y-117094235D01*
X140523434Y-117089148D01*
X140523436Y-117089146D01*
X140530442Y-117086490D01*
X140530866Y-117087609D01*
X140580001Y-117075500D01*
X145475764Y-117075500D01*
X145475766Y-117075500D01*
X145622135Y-117036281D01*
X145753365Y-116960515D01*
X146312822Y-116401056D01*
X146342870Y-116378946D01*
X146457934Y-116318557D01*
X146571632Y-116217830D01*
X146657921Y-116092819D01*
X146711785Y-115950791D01*
X146730094Y-115800000D01*
X146711785Y-115649209D01*
X146657921Y-115507181D01*
X146575307Y-115387494D01*
X146553424Y-115321140D01*
X146570889Y-115253488D01*
X146622157Y-115206018D01*
X146690950Y-115193801D01*
X146707025Y-115196655D01*
X146824051Y-115225500D01*
X146824052Y-115225500D01*
X146975950Y-115225500D01*
X147054990Y-115206018D01*
X147123434Y-115189148D01*
X147257934Y-115118557D01*
X147371632Y-115017830D01*
X147456465Y-114894927D01*
X147510748Y-114850938D01*
X147580196Y-114843278D01*
X147642761Y-114874381D01*
X147678579Y-114934372D01*
X147682515Y-114965368D01*
X147682515Y-117052242D01*
X147662830Y-117119281D01*
X147646196Y-117139924D01*
X147487178Y-117298941D01*
X147457123Y-117321055D01*
X147342068Y-117381440D01*
X147228367Y-117482171D01*
X147142080Y-117607179D01*
X147142079Y-117607180D01*
X147088214Y-117749208D01*
X147080173Y-117815445D01*
X147052552Y-117879624D01*
X146994618Y-117918681D01*
X146957077Y-117924500D01*
X145480001Y-117924500D01*
X145430866Y-117912390D01*
X145430442Y-117913510D01*
X145423433Y-117910851D01*
X145275950Y-117874500D01*
X145275949Y-117874500D01*
X145124051Y-117874500D01*
X145124050Y-117874500D01*
X144976567Y-117910851D01*
X144842067Y-117981442D01*
X144728367Y-118082171D01*
X144642080Y-118207179D01*
X144642079Y-118207180D01*
X144642079Y-118207181D01*
X144588215Y-118349209D01*
X144569906Y-118500000D01*
X144588215Y-118650791D01*
X144642079Y-118792819D01*
X144728368Y-118917830D01*
X144842066Y-119018557D01*
X144976566Y-119089148D01*
X145050308Y-119107324D01*
X145124050Y-119125500D01*
X145124051Y-119125500D01*
X145275950Y-119125500D01*
X145349691Y-119107324D01*
X145423434Y-119089148D01*
X145423436Y-119089146D01*
X145430442Y-119086490D01*
X145430866Y-119087609D01*
X145480001Y-119075500D01*
X146259787Y-119075500D01*
X146326826Y-119095185D01*
X146372581Y-119147989D01*
X146382525Y-119217147D01*
X146353500Y-119280703D01*
X146347468Y-119287181D01*
X145346468Y-120288181D01*
X145285145Y-120321666D01*
X145258787Y-120324500D01*
X144552434Y-120324500D01*
X144485395Y-120304815D01*
X144439640Y-120252011D01*
X144429696Y-120182853D01*
X144458721Y-120119297D01*
X144470207Y-120107685D01*
X144523667Y-120060322D01*
X144571632Y-120017830D01*
X144657921Y-119892819D01*
X144711785Y-119750791D01*
X144730094Y-119600000D01*
X144711785Y-119449209D01*
X144657921Y-119307181D01*
X144571632Y-119182170D01*
X144457934Y-119081443D01*
X144323434Y-119010852D01*
X144323433Y-119010851D01*
X144323432Y-119010851D01*
X144175950Y-118974500D01*
X144175949Y-118974500D01*
X144024051Y-118974500D01*
X144024050Y-118974500D01*
X143876567Y-119010851D01*
X143742067Y-119081442D01*
X143628367Y-119182171D01*
X143602050Y-119220298D01*
X143547767Y-119264288D01*
X143478318Y-119271948D01*
X143415753Y-119240844D01*
X143397950Y-119220298D01*
X143394618Y-119215471D01*
X143371632Y-119182170D01*
X143257934Y-119081443D01*
X143123434Y-119010852D01*
X143123433Y-119010851D01*
X143123432Y-119010851D01*
X142975950Y-118974500D01*
X142975949Y-118974500D01*
X142824051Y-118974500D01*
X142824050Y-118974500D01*
X142676567Y-119010851D01*
X142542067Y-119081442D01*
X142428367Y-119182171D01*
X142342080Y-119307179D01*
X142342079Y-119307180D01*
X142293103Y-119436321D01*
X142288215Y-119449209D01*
X142269906Y-119600000D01*
X142288215Y-119750791D01*
X142342079Y-119892819D01*
X142428368Y-120017830D01*
X142542066Y-120118557D01*
X142676566Y-120189148D01*
X142824051Y-120225500D01*
X142824054Y-120225500D01*
X142824691Y-120225657D01*
X142885071Y-120260813D01*
X142916860Y-120323032D01*
X142909964Y-120392561D01*
X142877244Y-120438869D01*
X142828367Y-120482170D01*
X142742080Y-120607179D01*
X142742079Y-120607180D01*
X142688215Y-120749207D01*
X142684212Y-120782176D01*
X142656590Y-120846354D01*
X142598656Y-120885410D01*
X142590792Y-120887626D01*
X142496565Y-120910851D01*
X142362065Y-120981442D01*
X142248365Y-121082171D01*
X142162078Y-121207179D01*
X142162077Y-121207180D01*
X142108213Y-121349208D01*
X142106605Y-121362455D01*
X142089904Y-121500000D01*
X142108213Y-121650791D01*
X142162077Y-121792819D01*
X142248366Y-121917830D01*
X142362064Y-122018557D01*
X142496564Y-122089148D01*
X142570306Y-122107324D01*
X142644048Y-122125500D01*
X142644049Y-122125500D01*
X142795948Y-122125500D01*
X142869689Y-122107324D01*
X142943432Y-122089148D01*
X142943434Y-122089146D01*
X142950440Y-122086490D01*
X142950864Y-122087609D01*
X142999999Y-122075500D01*
X145377846Y-122075500D01*
X145377848Y-122075500D01*
X145524217Y-122036281D01*
X145655447Y-121960515D01*
X146511556Y-121104406D01*
X146511556Y-121104405D01*
X148562819Y-119053142D01*
X148624142Y-119019657D01*
X148693834Y-119024641D01*
X148749767Y-119066513D01*
X148774184Y-119131977D01*
X148774500Y-119140823D01*
X148774500Y-122260257D01*
X148754815Y-122327296D01*
X148738181Y-122347939D01*
X148587178Y-122498941D01*
X148557123Y-122521055D01*
X148442068Y-122581440D01*
X148328367Y-122682171D01*
X148242080Y-122807179D01*
X148242079Y-122807180D01*
X148216068Y-122875767D01*
X148188215Y-122949209D01*
X148169906Y-123100000D01*
X148188215Y-123250791D01*
X148242079Y-123392819D01*
X148328368Y-123517830D01*
X148442066Y-123618557D01*
X148576566Y-123689148D01*
X148650308Y-123707324D01*
X148724050Y-123725500D01*
X148724051Y-123725500D01*
X148875948Y-123725500D01*
X148875949Y-123725500D01*
X149020326Y-123689914D01*
X149079674Y-123689914D01*
X149224051Y-123725500D01*
X149224052Y-123725500D01*
X149375950Y-123725500D01*
X149425110Y-123713382D01*
X149523434Y-123689148D01*
X149657934Y-123618557D01*
X149771632Y-123517830D01*
X149857921Y-123392819D01*
X149871001Y-123358327D01*
X149899261Y-123314617D01*
X150060515Y-123153365D01*
X150136281Y-123022135D01*
X150175500Y-122875767D01*
X150175500Y-122724234D01*
X150175500Y-121199996D01*
X153369909Y-121199996D01*
X153369909Y-121200003D01*
X153388212Y-121362455D01*
X153442210Y-121516774D01*
X153442211Y-121516775D01*
X153529192Y-121655204D01*
X153644796Y-121770808D01*
X153783225Y-121857789D01*
X153937539Y-121911786D01*
X153937542Y-121911786D01*
X153937544Y-121911787D01*
X154099996Y-121930091D01*
X154100000Y-121930091D01*
X154100004Y-121930091D01*
X154262455Y-121911787D01*
X154262456Y-121911786D01*
X154262461Y-121911786D01*
X154416775Y-121857789D01*
X154555204Y-121770808D01*
X154670808Y-121655204D01*
X154757789Y-121516775D01*
X154797527Y-121403208D01*
X154838247Y-121346435D01*
X154903200Y-121320687D01*
X154971762Y-121334143D01*
X154971967Y-121334250D01*
X155025707Y-121362455D01*
X155076566Y-121389148D01*
X155224050Y-121425500D01*
X155224051Y-121425500D01*
X155375950Y-121425500D01*
X155466378Y-121403211D01*
X155523434Y-121389148D01*
X155657934Y-121318557D01*
X155771632Y-121217830D01*
X155857921Y-121092819D01*
X155911785Y-120950791D01*
X155930094Y-120800000D01*
X155911785Y-120649209D01*
X155857921Y-120507181D01*
X155771632Y-120382170D01*
X155657934Y-120281443D01*
X155523434Y-120210852D01*
X155523433Y-120210851D01*
X155523432Y-120210851D01*
X155375950Y-120174500D01*
X155375949Y-120174500D01*
X155224051Y-120174500D01*
X155224050Y-120174500D01*
X155076567Y-120210851D01*
X154942067Y-120281442D01*
X154828367Y-120382171D01*
X154742080Y-120507179D01*
X154742078Y-120507182D01*
X154722444Y-120558951D01*
X154680265Y-120614653D01*
X154614667Y-120638709D01*
X154546477Y-120623481D01*
X154540531Y-120619972D01*
X154416774Y-120542210D01*
X154262455Y-120488212D01*
X154100004Y-120469909D01*
X154099996Y-120469909D01*
X153937544Y-120488212D01*
X153783225Y-120542210D01*
X153644795Y-120629192D01*
X153529192Y-120744795D01*
X153442210Y-120883225D01*
X153388212Y-121037544D01*
X153369909Y-121199996D01*
X150175500Y-121199996D01*
X150175500Y-119300000D01*
X152269906Y-119300000D01*
X152288215Y-119450791D01*
X152342079Y-119592819D01*
X152428368Y-119717830D01*
X152542066Y-119818557D01*
X152676566Y-119889148D01*
X152750308Y-119907324D01*
X152824050Y-119925500D01*
X152824051Y-119925500D01*
X152975950Y-119925500D01*
X153025110Y-119913382D01*
X153123434Y-119889148D01*
X153257934Y-119818557D01*
X153371632Y-119717830D01*
X153457921Y-119592819D01*
X153511785Y-119450791D01*
X153530094Y-119300000D01*
X153511785Y-119149209D01*
X153457921Y-119007181D01*
X153371632Y-118882170D01*
X153257934Y-118781443D01*
X153123434Y-118710852D01*
X153123433Y-118710851D01*
X153123432Y-118710851D01*
X152975950Y-118674500D01*
X152975949Y-118674500D01*
X152824051Y-118674500D01*
X152824050Y-118674500D01*
X152676567Y-118710851D01*
X152542067Y-118781442D01*
X152428367Y-118882171D01*
X152342080Y-119007179D01*
X152342079Y-119007180D01*
X152288678Y-119147989D01*
X152288215Y-119149209D01*
X152269906Y-119300000D01*
X150175500Y-119300000D01*
X150175500Y-115999996D01*
X152219909Y-115999996D01*
X152219909Y-116000003D01*
X152238212Y-116162455D01*
X152292210Y-116316774D01*
X152323782Y-116367020D01*
X152379192Y-116455204D01*
X152494796Y-116570808D01*
X152633225Y-116657789D01*
X152787539Y-116711786D01*
X152787542Y-116711786D01*
X152787544Y-116711787D01*
X152949996Y-116730091D01*
X152950000Y-116730091D01*
X152950004Y-116730091D01*
X153112455Y-116711787D01*
X153112456Y-116711786D01*
X153112461Y-116711786D01*
X153266775Y-116657789D01*
X153405204Y-116570808D01*
X153520808Y-116455204D01*
X153607789Y-116316775D01*
X153661786Y-116162461D01*
X153680091Y-116000000D01*
X153678868Y-115989148D01*
X153661787Y-115837544D01*
X153661786Y-115837542D01*
X153661786Y-115837539D01*
X153607789Y-115683225D01*
X153520808Y-115544796D01*
X153405204Y-115429192D01*
X153382503Y-115414928D01*
X153266774Y-115342210D01*
X153112455Y-115288212D01*
X152950004Y-115269909D01*
X152949996Y-115269909D01*
X152787544Y-115288212D01*
X152686639Y-115323520D01*
X152616860Y-115327081D01*
X152574001Y-115302530D01*
X152561944Y-115366352D01*
X152517495Y-115414928D01*
X152494800Y-115429188D01*
X152494795Y-115429192D01*
X152379192Y-115544795D01*
X152292210Y-115683225D01*
X152238212Y-115837544D01*
X152219909Y-115999996D01*
X150175500Y-115999996D01*
X150175500Y-115179157D01*
X150195185Y-115112118D01*
X150247989Y-115066363D01*
X150299500Y-115055157D01*
X150355607Y-115055157D01*
X150510374Y-115017010D01*
X150510715Y-115018396D01*
X150542026Y-115012657D01*
X151675502Y-115012657D01*
X151742541Y-115032342D01*
X151757725Y-115043838D01*
X151842066Y-115118557D01*
X151976566Y-115189148D01*
X152045010Y-115206018D01*
X152124050Y-115225500D01*
X152124051Y-115225500D01*
X152275948Y-115225500D01*
X152275949Y-115225500D01*
X152421847Y-115189539D01*
X152491648Y-115192608D01*
X152525292Y-115216380D01*
X152530412Y-115160782D01*
X152563455Y-115113665D01*
X152671632Y-115017830D01*
X152757921Y-114892819D01*
X152771001Y-114858327D01*
X152799259Y-114814619D01*
X153123688Y-114490192D01*
X153147029Y-114449764D01*
X153199454Y-114358962D01*
X153238673Y-114212593D01*
X153238673Y-113226569D01*
X153258358Y-113159530D01*
X153274992Y-113138888D01*
X153552061Y-112861819D01*
X153613384Y-112828334D01*
X153639742Y-112825500D01*
X153675764Y-112825500D01*
X153675766Y-112825500D01*
X153822135Y-112786281D01*
X153953365Y-112710515D01*
X154079684Y-112584194D01*
X154141006Y-112550709D01*
X154210697Y-112555693D01*
X154224991Y-112562079D01*
X154276566Y-112589148D01*
X154424050Y-112625500D01*
X154424051Y-112625500D01*
X154575950Y-112625500D01*
X154625110Y-112613382D01*
X154723434Y-112589148D01*
X154857934Y-112518557D01*
X154971632Y-112417830D01*
X155057921Y-112292819D01*
X155111785Y-112150791D01*
X155117953Y-112099996D01*
X156069909Y-112099996D01*
X156069909Y-112100003D01*
X156088212Y-112262455D01*
X156142210Y-112416774D01*
X156206165Y-112518557D01*
X156229192Y-112555204D01*
X156344796Y-112670808D01*
X156483225Y-112757789D01*
X156637539Y-112811786D01*
X156637542Y-112811786D01*
X156637544Y-112811787D01*
X156799996Y-112830091D01*
X156800000Y-112830091D01*
X156800004Y-112830091D01*
X156962455Y-112811787D01*
X156962456Y-112811786D01*
X156962461Y-112811786D01*
X157116775Y-112757789D01*
X157255204Y-112670808D01*
X157370808Y-112555204D01*
X157457789Y-112416775D01*
X157511786Y-112262461D01*
X157511787Y-112262455D01*
X157530091Y-112100003D01*
X157530091Y-112099996D01*
X157511787Y-111937544D01*
X157511786Y-111937542D01*
X157511786Y-111937539D01*
X157457789Y-111783225D01*
X157370808Y-111644796D01*
X157255204Y-111529192D01*
X157245074Y-111522827D01*
X157116774Y-111442210D01*
X156962455Y-111388212D01*
X156800004Y-111369909D01*
X156799996Y-111369909D01*
X156637544Y-111388212D01*
X156483225Y-111442210D01*
X156344795Y-111529192D01*
X156229192Y-111644795D01*
X156142210Y-111783225D01*
X156088212Y-111937544D01*
X156069909Y-112099996D01*
X155117953Y-112099996D01*
X155130094Y-112000000D01*
X155111785Y-111849209D01*
X155058516Y-111708751D01*
X155053150Y-111639091D01*
X155086297Y-111577585D01*
X155086659Y-111577220D01*
X155110515Y-111553365D01*
X155186281Y-111422135D01*
X155195888Y-111386281D01*
X155225500Y-111275767D01*
X155225500Y-111124234D01*
X155225500Y-110855497D01*
X155245185Y-110788458D01*
X155297989Y-110742703D01*
X155367147Y-110732759D01*
X155430703Y-110761784D01*
X155437181Y-110767816D01*
X155508397Y-110839032D01*
X155648475Y-110940804D01*
X155802742Y-111019408D01*
X155967415Y-111072914D01*
X156138429Y-111100000D01*
X156250000Y-111100000D01*
X156250000Y-110280330D01*
X156269745Y-110300075D01*
X156355255Y-110349444D01*
X156450630Y-110375000D01*
X156549370Y-110375000D01*
X156644745Y-110349444D01*
X156730255Y-110300075D01*
X156750000Y-110280330D01*
X156750000Y-111100000D01*
X156861571Y-111100000D01*
X157032584Y-111072914D01*
X157197257Y-111019408D01*
X157351524Y-110940804D01*
X157491602Y-110839032D01*
X157614032Y-110716602D01*
X157715804Y-110576524D01*
X157794408Y-110422255D01*
X157847569Y-110258647D01*
X157887007Y-110200971D01*
X157951365Y-110173773D01*
X158020212Y-110185688D01*
X158071687Y-110232932D01*
X158089500Y-110296965D01*
X158089500Y-114041763D01*
X158069815Y-114108802D01*
X158017011Y-114154557D01*
X157947853Y-114164501D01*
X157884297Y-114135476D01*
X157854500Y-114097035D01*
X157803784Y-113995185D01*
X157773778Y-113934924D01*
X157709530Y-113849846D01*
X157639866Y-113757595D01*
X157475655Y-113607898D01*
X157475653Y-113607896D01*
X157286733Y-113490922D01*
X157286727Y-113490919D01*
X157179080Y-113449217D01*
X157079528Y-113410650D01*
X156861104Y-113369820D01*
X156638896Y-113369820D01*
X156420472Y-113410650D01*
X156370695Y-113429933D01*
X156213272Y-113490919D01*
X156213266Y-113490922D01*
X156024346Y-113607896D01*
X156024344Y-113607898D01*
X155860133Y-113757595D01*
X155726222Y-113934923D01*
X155627180Y-114133825D01*
X155627174Y-114133840D01*
X155566366Y-114347558D01*
X155566365Y-114347560D01*
X155545863Y-114568819D01*
X155545863Y-114568820D01*
X155566365Y-114790079D01*
X155566366Y-114790081D01*
X155627174Y-115003799D01*
X155627180Y-115003814D01*
X155726222Y-115202716D01*
X155860133Y-115380044D01*
X156024344Y-115529741D01*
X156024346Y-115529743D01*
X156213266Y-115646717D01*
X156213272Y-115646720D01*
X156219697Y-115649209D01*
X156420472Y-115726990D01*
X156638896Y-115767820D01*
X156638899Y-115767820D01*
X156861101Y-115767820D01*
X156861104Y-115767820D01*
X157079528Y-115726990D01*
X157286730Y-115646719D01*
X157475655Y-115529742D01*
X157639868Y-115380042D01*
X157773778Y-115202716D01*
X157788663Y-115172823D01*
X157854500Y-115040605D01*
X157902003Y-114989367D01*
X157969666Y-114971946D01*
X158036006Y-114993871D01*
X158079961Y-115048183D01*
X158089500Y-115095876D01*
X158089500Y-117038963D01*
X158069815Y-117106002D01*
X158017011Y-117151757D01*
X157947853Y-117161701D01*
X157884297Y-117132676D01*
X157854500Y-117094235D01*
X157787913Y-116960512D01*
X157773778Y-116932124D01*
X157639868Y-116754798D01*
X157639866Y-116754795D01*
X157475655Y-116605098D01*
X157475653Y-116605096D01*
X157286733Y-116488122D01*
X157286727Y-116488119D01*
X157179080Y-116446417D01*
X157079528Y-116407850D01*
X156861104Y-116367020D01*
X156638896Y-116367020D01*
X156420472Y-116407850D01*
X156370695Y-116427133D01*
X156213272Y-116488119D01*
X156213266Y-116488122D01*
X156024346Y-116605096D01*
X156024344Y-116605098D01*
X155860133Y-116754795D01*
X155726222Y-116932123D01*
X155627180Y-117131025D01*
X155627174Y-117131040D01*
X155566366Y-117344758D01*
X155566365Y-117344760D01*
X155545863Y-117566019D01*
X155545863Y-117566020D01*
X155566365Y-117787279D01*
X155566366Y-117787281D01*
X155627174Y-118000999D01*
X155627180Y-118001014D01*
X155726222Y-118199916D01*
X155860133Y-118377244D01*
X156024344Y-118526941D01*
X156024346Y-118526943D01*
X156213266Y-118643917D01*
X156213272Y-118643920D01*
X156242206Y-118655129D01*
X156420472Y-118724190D01*
X156638896Y-118765020D01*
X156638899Y-118765020D01*
X156861101Y-118765020D01*
X156861104Y-118765020D01*
X157079528Y-118724190D01*
X157286730Y-118643919D01*
X157475655Y-118526942D01*
X157639868Y-118377242D01*
X157773778Y-118199916D01*
X157832408Y-118082171D01*
X157854500Y-118037805D01*
X157902003Y-117986567D01*
X157969666Y-117969146D01*
X158036006Y-117991071D01*
X158079961Y-118045383D01*
X158089500Y-118093076D01*
X158089500Y-130665500D01*
X158069815Y-130732539D01*
X158017011Y-130778294D01*
X157965500Y-130789500D01*
X126974500Y-130789500D01*
X126907461Y-130769815D01*
X126861706Y-130717011D01*
X126850500Y-130665500D01*
X126850500Y-128649500D01*
X146354992Y-128649500D01*
X146373301Y-128800291D01*
X146427165Y-128942319D01*
X146513454Y-129067330D01*
X146627152Y-129168057D01*
X146742213Y-129228445D01*
X146772266Y-129250560D01*
X146951130Y-129429424D01*
X147058280Y-129536574D01*
X147189510Y-129612340D01*
X147335879Y-129651559D01*
X147487412Y-129651559D01*
X147546058Y-129651559D01*
X147595192Y-129663668D01*
X147595617Y-129662549D01*
X147602625Y-129665207D01*
X147750109Y-129701559D01*
X147750110Y-129701559D01*
X147902009Y-129701559D01*
X147951169Y-129689441D01*
X148049493Y-129665207D01*
X148183993Y-129594616D01*
X148297691Y-129493889D01*
X148383980Y-129368878D01*
X148437844Y-129226850D01*
X148456153Y-129076059D01*
X148437844Y-128925268D01*
X148383980Y-128783240D01*
X148297691Y-128658229D01*
X148183993Y-128557502D01*
X148049493Y-128486911D01*
X148049492Y-128486910D01*
X148049491Y-128486910D01*
X147902009Y-128450559D01*
X147902008Y-128450559D01*
X147750110Y-128450559D01*
X147750106Y-128450559D01*
X147699930Y-128462926D01*
X147630128Y-128459856D01*
X147573067Y-128419536D01*
X147554316Y-128386501D01*
X147543007Y-128356681D01*
X147456718Y-128231670D01*
X147343020Y-128130943D01*
X147208520Y-128060352D01*
X147208519Y-128060351D01*
X147208518Y-128060351D01*
X147061036Y-128024000D01*
X147061035Y-128024000D01*
X146909137Y-128024000D01*
X146909136Y-128024000D01*
X146761653Y-128060351D01*
X146627153Y-128130942D01*
X146513453Y-128231671D01*
X146427166Y-128356679D01*
X146427165Y-128356680D01*
X146377776Y-128486910D01*
X146373301Y-128498709D01*
X146354992Y-128649500D01*
X126850500Y-128649500D01*
X126850500Y-125099996D01*
X129669909Y-125099996D01*
X129669909Y-125100003D01*
X129688212Y-125262455D01*
X129739506Y-125409046D01*
X129743067Y-125478825D01*
X129739506Y-125490954D01*
X129688212Y-125637544D01*
X129669909Y-125799996D01*
X129669909Y-125800003D01*
X129688212Y-125962455D01*
X129742210Y-126116774D01*
X129742211Y-126116775D01*
X129829192Y-126255204D01*
X129944796Y-126370808D01*
X130083225Y-126457789D01*
X130237539Y-126511786D01*
X130237542Y-126511786D01*
X130237544Y-126511787D01*
X130399996Y-126530091D01*
X130400000Y-126530091D01*
X130400004Y-126530091D01*
X130562455Y-126511787D01*
X130562456Y-126511786D01*
X130562461Y-126511786D01*
X130716775Y-126457789D01*
X130855204Y-126370808D01*
X130970808Y-126255204D01*
X131005498Y-126199996D01*
X151669909Y-126199996D01*
X151669909Y-126200003D01*
X151688212Y-126362455D01*
X151742210Y-126516774D01*
X151742211Y-126516775D01*
X151829192Y-126655204D01*
X151944796Y-126770808D01*
X152083225Y-126857789D01*
X152237539Y-126911786D01*
X152237542Y-126911786D01*
X152237544Y-126911787D01*
X152399996Y-126930091D01*
X152400000Y-126930091D01*
X152400004Y-126930091D01*
X152562455Y-126911787D01*
X152562456Y-126911786D01*
X152562461Y-126911786D01*
X152716775Y-126857789D01*
X152855204Y-126770808D01*
X152970808Y-126655204D01*
X153057789Y-126516775D01*
X153111786Y-126362461D01*
X153130091Y-126200000D01*
X153111786Y-126037539D01*
X153057789Y-125883225D01*
X152970808Y-125744796D01*
X152855204Y-125629192D01*
X152716774Y-125542210D01*
X152562455Y-125488212D01*
X152400004Y-125469909D01*
X152399996Y-125469909D01*
X152237544Y-125488212D01*
X152083225Y-125542210D01*
X151944795Y-125629192D01*
X151829192Y-125744795D01*
X151742210Y-125883225D01*
X151688212Y-126037544D01*
X151669909Y-126199996D01*
X131005498Y-126199996D01*
X131057789Y-126116775D01*
X131111786Y-125962461D01*
X131130091Y-125800000D01*
X131130091Y-125799996D01*
X131111787Y-125637542D01*
X131078429Y-125542211D01*
X131060492Y-125490952D01*
X131056930Y-125421177D01*
X131060488Y-125409060D01*
X131111786Y-125262461D01*
X131111786Y-125262459D01*
X131111787Y-125262457D01*
X131130091Y-125100003D01*
X131130091Y-125099996D01*
X131111787Y-124937544D01*
X131111786Y-124937542D01*
X131111786Y-124937539D01*
X131057789Y-124783225D01*
X130970808Y-124644796D01*
X130855204Y-124529192D01*
X130716774Y-124442210D01*
X130562455Y-124388212D01*
X130400004Y-124369909D01*
X130399996Y-124369909D01*
X130237544Y-124388212D01*
X130083225Y-124442210D01*
X129944795Y-124529192D01*
X129829192Y-124644795D01*
X129742210Y-124783225D01*
X129688212Y-124937544D01*
X129669909Y-125099996D01*
X126850500Y-125099996D01*
X126850500Y-123817157D01*
X132202749Y-123817157D01*
X132221058Y-123967948D01*
X132274922Y-124109976D01*
X132274923Y-124109977D01*
X132361211Y-124234988D01*
X132399883Y-124269247D01*
X132437010Y-124328436D01*
X132441657Y-124362063D01*
X132441657Y-124863652D01*
X132433599Y-124907623D01*
X132422252Y-124937544D01*
X132405372Y-124982052D01*
X132387063Y-125132843D01*
X132405372Y-125283634D01*
X132459236Y-125425662D01*
X132545525Y-125550673D01*
X132659223Y-125651400D01*
X132793723Y-125721991D01*
X132867465Y-125740167D01*
X132941207Y-125758343D01*
X132941208Y-125758343D01*
X133093107Y-125758343D01*
X133148072Y-125744795D01*
X133240591Y-125721991D01*
X133375091Y-125651400D01*
X133488789Y-125550673D01*
X133575078Y-125425662D01*
X133628942Y-125283634D01*
X133647251Y-125132843D01*
X133628942Y-124982052D01*
X133600715Y-124907623D01*
X133592657Y-124863652D01*
X133592657Y-123925707D01*
X133592657Y-123925705D01*
X133553438Y-123779336D01*
X133477672Y-123648106D01*
X133432105Y-123602539D01*
X133403843Y-123558826D01*
X133390765Y-123524340D01*
X133390764Y-123524338D01*
X133366474Y-123489148D01*
X133304475Y-123399327D01*
X133190777Y-123298600D01*
X133056277Y-123228009D01*
X133056276Y-123228008D01*
X133056275Y-123228008D01*
X132908793Y-123191657D01*
X132908792Y-123191657D01*
X132756894Y-123191657D01*
X132756893Y-123191657D01*
X132609410Y-123228008D01*
X132474910Y-123298599D01*
X132361210Y-123399328D01*
X132274923Y-123524336D01*
X132274922Y-123524337D01*
X132221058Y-123666365D01*
X132202749Y-123817157D01*
X126850500Y-123817157D01*
X126850500Y-122299996D01*
X132869909Y-122299996D01*
X132869909Y-122300003D01*
X132888212Y-122462455D01*
X132942210Y-122616774D01*
X132983302Y-122682171D01*
X133029192Y-122755204D01*
X133144796Y-122870808D01*
X133283225Y-122957789D01*
X133437539Y-123011786D01*
X133437542Y-123011786D01*
X133437544Y-123011787D01*
X133599996Y-123030091D01*
X133600000Y-123030091D01*
X133600004Y-123030091D01*
X133762455Y-123011787D01*
X133762456Y-123011786D01*
X133762461Y-123011786D01*
X133916775Y-122957789D01*
X134055204Y-122870808D01*
X134126012Y-122800000D01*
X140169906Y-122800000D01*
X140188215Y-122950791D01*
X140242079Y-123092819D01*
X140328368Y-123217830D01*
X140442066Y-123318557D01*
X140576566Y-123389148D01*
X140617864Y-123399327D01*
X140724050Y-123425500D01*
X140724051Y-123425500D01*
X140824731Y-123425500D01*
X140882356Y-123439703D01*
X140914833Y-123456748D01*
X140976566Y-123489148D01*
X141050308Y-123507324D01*
X141124050Y-123525500D01*
X141124051Y-123525500D01*
X141275950Y-123525500D01*
X141325110Y-123513382D01*
X141423434Y-123489148D01*
X141557934Y-123418557D01*
X141671632Y-123317830D01*
X141757921Y-123192819D01*
X141811785Y-123050791D01*
X141830094Y-122900000D01*
X141811785Y-122749209D01*
X141757921Y-122607181D01*
X141671632Y-122482170D01*
X141557934Y-122381443D01*
X141423434Y-122310852D01*
X141423433Y-122310851D01*
X141423432Y-122310851D01*
X141275950Y-122274500D01*
X141275949Y-122274500D01*
X141175269Y-122274500D01*
X141117644Y-122260297D01*
X141023432Y-122210851D01*
X140875950Y-122174500D01*
X140875949Y-122174500D01*
X140724051Y-122174500D01*
X140724050Y-122174500D01*
X140576567Y-122210851D01*
X140442067Y-122281442D01*
X140328367Y-122382171D01*
X140242080Y-122507179D01*
X140242079Y-122507180D01*
X140200516Y-122616775D01*
X140188215Y-122649209D01*
X140169906Y-122800000D01*
X134126012Y-122800000D01*
X134170808Y-122755204D01*
X134257789Y-122616775D01*
X134311786Y-122462461D01*
X134324690Y-122347939D01*
X134330091Y-122300003D01*
X134330091Y-122299996D01*
X134311787Y-122137544D01*
X134311786Y-122137542D01*
X134311786Y-122137539D01*
X134257789Y-121983225D01*
X134170808Y-121844796D01*
X134055204Y-121729192D01*
X134037309Y-121717948D01*
X133916774Y-121642210D01*
X133762455Y-121588212D01*
X133600004Y-121569909D01*
X133599996Y-121569909D01*
X133437544Y-121588212D01*
X133283225Y-121642210D01*
X133144795Y-121729192D01*
X133029192Y-121844795D01*
X132942210Y-121983225D01*
X132888212Y-122137544D01*
X132869909Y-122299996D01*
X126850500Y-122299996D01*
X126850500Y-121453571D01*
X126870185Y-121386532D01*
X126922989Y-121340777D01*
X126992147Y-121330833D01*
X127021955Y-121339011D01*
X127058309Y-121354070D01*
X127058318Y-121354072D01*
X127251504Y-121392499D01*
X127251508Y-121392500D01*
X127500000Y-121392500D01*
X127500000Y-120692500D01*
X128000000Y-120692500D01*
X128000000Y-121392500D01*
X128248492Y-121392500D01*
X128248495Y-121392499D01*
X128441681Y-121354072D01*
X128441693Y-121354069D01*
X128623671Y-121278692D01*
X128623684Y-121278685D01*
X128787462Y-121169251D01*
X128787466Y-121169248D01*
X128926748Y-121029966D01*
X128926751Y-121029962D01*
X129036185Y-120866184D01*
X129036192Y-120866171D01*
X129111569Y-120684192D01*
X129111569Y-120684190D01*
X129119862Y-120642500D01*
X128316988Y-120642500D01*
X128334205Y-120632560D01*
X128390060Y-120576705D01*
X128429556Y-120508296D01*
X128450000Y-120431996D01*
X128450000Y-120353004D01*
X128429556Y-120276704D01*
X128390060Y-120208295D01*
X128334205Y-120152440D01*
X128316988Y-120142500D01*
X129119862Y-120142500D01*
X129111569Y-120100809D01*
X129111569Y-120100807D01*
X129036192Y-119918828D01*
X129036185Y-119918815D01*
X128926751Y-119755037D01*
X128926748Y-119755033D01*
X128787466Y-119615751D01*
X128787462Y-119615748D01*
X128623684Y-119506314D01*
X128623671Y-119506307D01*
X128441693Y-119430930D01*
X128441681Y-119430927D01*
X128248495Y-119392500D01*
X128000000Y-119392500D01*
X128000000Y-120092500D01*
X127500000Y-120092500D01*
X127500000Y-119392500D01*
X127251504Y-119392500D01*
X127058318Y-119430927D01*
X127058306Y-119430930D01*
X127021952Y-119445989D01*
X126952483Y-119453458D01*
X126890004Y-119422183D01*
X126854352Y-119362094D01*
X126850500Y-119331428D01*
X126850500Y-119000000D01*
X129019906Y-119000000D01*
X129038215Y-119150791D01*
X129092079Y-119292819D01*
X129178368Y-119417830D01*
X129292066Y-119518557D01*
X129407127Y-119578945D01*
X129437180Y-119601060D01*
X130093181Y-120257061D01*
X130126666Y-120318384D01*
X130129500Y-120344742D01*
X130129500Y-121115079D01*
X130168719Y-121261450D01*
X130176160Y-121274338D01*
X130244485Y-121392679D01*
X130244487Y-121392681D01*
X130633579Y-121781773D01*
X130661839Y-121825481D01*
X130674921Y-121859974D01*
X130674922Y-121859976D01*
X130761211Y-121984987D01*
X130874909Y-122085714D01*
X131009409Y-122156305D01*
X131083151Y-122174481D01*
X131156893Y-122192657D01*
X131156894Y-122192657D01*
X131308793Y-122192657D01*
X131382457Y-122174500D01*
X131456277Y-122156305D01*
X131590777Y-122085714D01*
X131704475Y-121984987D01*
X131790764Y-121859976D01*
X131844628Y-121717948D01*
X131862937Y-121567157D01*
X131844628Y-121416366D01*
X131790764Y-121274338D01*
X131704475Y-121149327D01*
X131704474Y-121149326D01*
X131701950Y-121145669D01*
X131680067Y-121079315D01*
X131680000Y-121075229D01*
X131680000Y-120692500D01*
X132180000Y-120692500D01*
X132180000Y-121392500D01*
X132578492Y-121392500D01*
X132578495Y-121392499D01*
X132771681Y-121354072D01*
X132771693Y-121354069D01*
X132953671Y-121278692D01*
X132953684Y-121278685D01*
X133117462Y-121169251D01*
X133117466Y-121169248D01*
X133256748Y-121029966D01*
X133256751Y-121029962D01*
X133366185Y-120866184D01*
X133366192Y-120866171D01*
X133441569Y-120684192D01*
X133441569Y-120684190D01*
X133449862Y-120642500D01*
X132646988Y-120642500D01*
X132664205Y-120632560D01*
X132720060Y-120576705D01*
X132759556Y-120508296D01*
X132780000Y-120431996D01*
X132780000Y-120353004D01*
X132759556Y-120276704D01*
X132720060Y-120208295D01*
X132664205Y-120152440D01*
X132646988Y-120142500D01*
X133449862Y-120142500D01*
X133441569Y-120100809D01*
X133441569Y-120100807D01*
X133366192Y-119918828D01*
X133366185Y-119918815D01*
X133256751Y-119755037D01*
X133256748Y-119755033D01*
X133117466Y-119615751D01*
X133117462Y-119615748D01*
X132953684Y-119506314D01*
X132953671Y-119506307D01*
X132771693Y-119430930D01*
X132771681Y-119430927D01*
X132578495Y-119392500D01*
X132180000Y-119392500D01*
X132180000Y-120092500D01*
X131680000Y-120092500D01*
X131680000Y-119436321D01*
X131699685Y-119369282D01*
X131716319Y-119348640D01*
X131757780Y-119307179D01*
X131810495Y-119254464D01*
X131873095Y-119146036D01*
X131905500Y-119025101D01*
X131905500Y-118899899D01*
X131873095Y-118778964D01*
X131810495Y-118670536D01*
X131721964Y-118582005D01*
X131613536Y-118519405D01*
X131613537Y-118519405D01*
X131573224Y-118508603D01*
X131492601Y-118487000D01*
X131367399Y-118487000D01*
X131286775Y-118508603D01*
X131246463Y-118519405D01*
X131138037Y-118582004D01*
X131138034Y-118582006D01*
X131049506Y-118670534D01*
X131049504Y-118670537D01*
X130986905Y-118778963D01*
X130985185Y-118785382D01*
X130954500Y-118899899D01*
X130954500Y-119025101D01*
X130981402Y-119125500D01*
X130986905Y-119146036D01*
X131030944Y-119222315D01*
X131047415Y-119290215D01*
X131024563Y-119356242D01*
X130969641Y-119399432D01*
X130900088Y-119406073D01*
X130837985Y-119374056D01*
X130835875Y-119371995D01*
X130249262Y-118785382D01*
X130221000Y-118741669D01*
X130207922Y-118707183D01*
X130207921Y-118707181D01*
X130182625Y-118670534D01*
X130121632Y-118582170D01*
X130007934Y-118481443D01*
X129873434Y-118410852D01*
X129873433Y-118410851D01*
X129873432Y-118410851D01*
X129725950Y-118374500D01*
X129725949Y-118374500D01*
X129574051Y-118374500D01*
X129574050Y-118374500D01*
X129426567Y-118410851D01*
X129292067Y-118481442D01*
X129292066Y-118481443D01*
X129178556Y-118582004D01*
X129178367Y-118582171D01*
X129092080Y-118707179D01*
X129092079Y-118707180D01*
X129059601Y-118792819D01*
X129038215Y-118849209D01*
X129019906Y-119000000D01*
X126850500Y-119000000D01*
X126850500Y-112813571D01*
X126870185Y-112746532D01*
X126922989Y-112700777D01*
X126992147Y-112690833D01*
X127021955Y-112699011D01*
X127058309Y-112714070D01*
X127058318Y-112714072D01*
X127251504Y-112752499D01*
X127251508Y-112752500D01*
X127500000Y-112752500D01*
X127500000Y-112052500D01*
X128000000Y-112052500D01*
X128000000Y-112752500D01*
X128248492Y-112752500D01*
X128248495Y-112752499D01*
X128441681Y-112714072D01*
X128441693Y-112714069D01*
X128623671Y-112638692D01*
X128623684Y-112638685D01*
X128787462Y-112529251D01*
X128787466Y-112529248D01*
X128926751Y-112389963D01*
X129025900Y-112241576D01*
X129079512Y-112196771D01*
X129148837Y-112188064D01*
X129211228Y-112217650D01*
X129292067Y-112289267D01*
X129426567Y-112359858D01*
X129500309Y-112378034D01*
X129574051Y-112396210D01*
X129703520Y-112396210D01*
X129770559Y-112415895D01*
X129816314Y-112468699D01*
X129826616Y-112505264D01*
X129838215Y-112600791D01*
X129892079Y-112742819D01*
X129978368Y-112867830D01*
X130092066Y-112968557D01*
X130226566Y-113039148D01*
X130300308Y-113057324D01*
X130374050Y-113075500D01*
X130374051Y-113075500D01*
X130525950Y-113075500D01*
X130673430Y-113039149D01*
X130673430Y-113039148D01*
X130673434Y-113039148D01*
X130775003Y-112985840D01*
X130843509Y-112972116D01*
X130908562Y-112997609D01*
X130949506Y-113054224D01*
X130952652Y-113111459D01*
X130955561Y-113111842D01*
X130954500Y-113119898D01*
X130954500Y-113119899D01*
X130954500Y-113245101D01*
X130986905Y-113366036D01*
X131049505Y-113474464D01*
X131138036Y-113562995D01*
X131246464Y-113625595D01*
X131367399Y-113658000D01*
X131367401Y-113658000D01*
X131492599Y-113658000D01*
X131492601Y-113658000D01*
X131613536Y-113625595D01*
X131721964Y-113562995D01*
X131810495Y-113474464D01*
X131873095Y-113366036D01*
X131905500Y-113245101D01*
X131905500Y-113119899D01*
X131873095Y-112998964D01*
X131810495Y-112890536D01*
X131721964Y-112802005D01*
X131716319Y-112796360D01*
X131682834Y-112735037D01*
X131680000Y-112708679D01*
X131680000Y-112052500D01*
X132180000Y-112052500D01*
X132180000Y-112752500D01*
X132578492Y-112752500D01*
X132578495Y-112752499D01*
X132771681Y-112714072D01*
X132771693Y-112714069D01*
X132953671Y-112638692D01*
X132953684Y-112638685D01*
X133117462Y-112529251D01*
X133117466Y-112529248D01*
X133256748Y-112389966D01*
X133256751Y-112389962D01*
X133366186Y-112226182D01*
X133400943Y-112142270D01*
X133444784Y-112087866D01*
X133511077Y-112065800D01*
X133529383Y-112066500D01*
X133604592Y-112074974D01*
X133649998Y-112080091D01*
X133650000Y-112080091D01*
X133650004Y-112080091D01*
X133812455Y-112061787D01*
X133812456Y-112061786D01*
X133812461Y-112061786D01*
X133966775Y-112007789D01*
X134105204Y-111920808D01*
X134220808Y-111805204D01*
X134307789Y-111666775D01*
X134333817Y-111592389D01*
X134374537Y-111535616D01*
X134439489Y-111509867D01*
X134508051Y-111523322D01*
X134538539Y-111545664D01*
X134767905Y-111775030D01*
X134899135Y-111850796D01*
X135045504Y-111890015D01*
X135197037Y-111890015D01*
X136052024Y-111890015D01*
X136117995Y-111909020D01*
X136218710Y-111972304D01*
X136373024Y-112026301D01*
X136373027Y-112026301D01*
X136373029Y-112026302D01*
X136535481Y-112044606D01*
X136535485Y-112044606D01*
X136535487Y-112044606D01*
X136611826Y-112036004D01*
X136690329Y-112027159D01*
X136759151Y-112039213D01*
X136806263Y-112079939D01*
X136820110Y-112100000D01*
X136871601Y-112174597D01*
X136985299Y-112275324D01*
X137119799Y-112345915D01*
X137176368Y-112359858D01*
X137267283Y-112382267D01*
X137267284Y-112382267D01*
X137419183Y-112382267D01*
X137510098Y-112359858D01*
X137566667Y-112345915D01*
X137701167Y-112275324D01*
X137814865Y-112174597D01*
X137901154Y-112049586D01*
X137955018Y-111907558D01*
X137973327Y-111756767D01*
X137955018Y-111605976D01*
X137955017Y-111605973D01*
X137953223Y-111598691D01*
X137955862Y-111598040D01*
X137951461Y-111541146D01*
X137956836Y-111522827D01*
X137957093Y-111522149D01*
X137957096Y-111522145D01*
X138010960Y-111380117D01*
X138029269Y-111229326D01*
X138010960Y-111078535D01*
X137994078Y-111034023D01*
X137986924Y-110975106D01*
X138005095Y-110825454D01*
X137986786Y-110674663D01*
X137985882Y-110667217D01*
X137987817Y-110666981D01*
X137990444Y-110607251D01*
X137991820Y-110603433D01*
X138011785Y-110550791D01*
X138030094Y-110400000D01*
X138011785Y-110249209D01*
X137957921Y-110107181D01*
X137871632Y-109982170D01*
X137757934Y-109881443D01*
X137623434Y-109810852D01*
X137623433Y-109810851D01*
X137623432Y-109810851D01*
X137475950Y-109774500D01*
X137475949Y-109774500D01*
X137324051Y-109774500D01*
X137324049Y-109774500D01*
X137225149Y-109798876D01*
X137155347Y-109795807D01*
X137098285Y-109755486D01*
X137072080Y-109690717D01*
X137072378Y-109663540D01*
X137080094Y-109600000D01*
X137061785Y-109449209D01*
X137033558Y-109374780D01*
X137025500Y-109330809D01*
X137025500Y-109208549D01*
X137025500Y-109208548D01*
X137020409Y-109189549D01*
X137010650Y-109153127D01*
X137012313Y-109083281D01*
X137051475Y-109025418D01*
X137115704Y-108997914D01*
X137184606Y-109009500D01*
G37*
G04 #@! TD.AperFunction*
G04 #@! TA.AperFunction,Conductor*
G36*
X134943039Y-94050185D02*
G01*
X134988794Y-94102989D01*
X135000000Y-94154500D01*
X135000000Y-99300000D01*
X135075500Y-99300000D01*
X135142539Y-99319685D01*
X135188294Y-99372489D01*
X135199500Y-99424000D01*
X135199500Y-99922870D01*
X135199501Y-99922876D01*
X135205908Y-99982483D01*
X135250566Y-100102217D01*
X135255550Y-100171909D01*
X135244185Y-100203168D01*
X135242079Y-100207180D01*
X135188215Y-100349208D01*
X135183208Y-100390446D01*
X135155586Y-100454624D01*
X135097652Y-100493681D01*
X135060112Y-100499500D01*
X134121450Y-100499500D01*
X134054411Y-100479815D01*
X134008656Y-100427011D01*
X134004408Y-100416454D01*
X133957789Y-100283225D01*
X133910007Y-100207181D01*
X133870808Y-100144796D01*
X133755204Y-100029192D01*
X133727503Y-100011786D01*
X133616774Y-99942210D01*
X133462455Y-99888212D01*
X133300004Y-99869909D01*
X133299996Y-99869909D01*
X133137544Y-99888212D01*
X132983225Y-99942210D01*
X132840361Y-100031978D01*
X132827688Y-100035559D01*
X132818490Y-100055169D01*
X132813292Y-100060696D01*
X132729191Y-100144797D01*
X132642210Y-100283225D01*
X132588212Y-100437544D01*
X132569909Y-100599996D01*
X132569909Y-100600003D01*
X132588212Y-100762455D01*
X132618829Y-100849955D01*
X132642211Y-100916775D01*
X132657951Y-100941825D01*
X132676952Y-101009061D01*
X132656585Y-101075896D01*
X132640639Y-101095479D01*
X129468182Y-104267936D01*
X129406859Y-104301421D01*
X129394389Y-104303475D01*
X129369470Y-104306283D01*
X129215156Y-104360279D01*
X129076726Y-104447261D01*
X128961123Y-104562864D01*
X128874141Y-104701294D01*
X128820143Y-104855613D01*
X128801840Y-105018065D01*
X128801840Y-105018072D01*
X128820143Y-105180524D01*
X128820144Y-105180529D01*
X128820145Y-105180530D01*
X128827310Y-105201008D01*
X128874141Y-105334843D01*
X128909373Y-105390914D01*
X128961123Y-105473273D01*
X129076727Y-105588877D01*
X129215156Y-105675858D01*
X129369470Y-105729855D01*
X129369473Y-105729855D01*
X129369475Y-105729856D01*
X129531927Y-105748160D01*
X129531931Y-105748160D01*
X129531935Y-105748160D01*
X129694386Y-105729856D01*
X129694387Y-105729855D01*
X129694392Y-105729855D01*
X129848706Y-105675858D01*
X129987135Y-105588877D01*
X129988975Y-105587036D01*
X129990457Y-105586227D01*
X129992578Y-105584536D01*
X129992874Y-105584907D01*
X130050292Y-105553550D01*
X130119984Y-105558529D01*
X130175921Y-105600396D01*
X130192600Y-105630741D01*
X130217251Y-105695740D01*
X130223276Y-105711625D01*
X130245265Y-105743481D01*
X130309564Y-105836634D01*
X130423262Y-105937361D01*
X130557762Y-106007952D01*
X130581034Y-106013688D01*
X130705246Y-106044304D01*
X130705247Y-106044304D01*
X130857146Y-106044304D01*
X130981358Y-106013688D01*
X131004630Y-106007952D01*
X131004632Y-106007950D01*
X131011638Y-106005294D01*
X131012062Y-106006413D01*
X131061197Y-105994304D01*
X131631987Y-105994304D01*
X131631989Y-105994304D01*
X131778358Y-105955085D01*
X131909588Y-105879319D01*
X132899147Y-104889758D01*
X132960470Y-104856274D01*
X133030161Y-104861258D01*
X133074509Y-104889759D01*
X135044632Y-106859882D01*
X135078117Y-106921205D01*
X135073133Y-106990897D01*
X135031261Y-107046830D01*
X134965797Y-107071247D01*
X134924859Y-107067338D01*
X134869441Y-107052489D01*
X133868488Y-107052489D01*
X133716955Y-107052489D01*
X133599280Y-107084019D01*
X133599279Y-107084020D01*
X133570587Y-107091708D01*
X133570586Y-107091708D01*
X133570584Y-107091709D01*
X133439357Y-107167474D01*
X133439354Y-107167476D01*
X133332205Y-107274626D01*
X129437179Y-111169650D01*
X129407124Y-111191765D01*
X129292069Y-111252150D01*
X129226297Y-111310420D01*
X129163063Y-111340141D01*
X129093800Y-111330957D01*
X129040497Y-111285785D01*
X129037704Y-111281088D01*
X128926751Y-111115037D01*
X128926748Y-111115033D01*
X128787466Y-110975751D01*
X128787462Y-110975748D01*
X128623684Y-110866314D01*
X128623671Y-110866307D01*
X128441693Y-110790930D01*
X128441681Y-110790927D01*
X128248495Y-110752500D01*
X128000000Y-110752500D01*
X128000000Y-111452500D01*
X127500000Y-111452500D01*
X127500000Y-110752500D01*
X127251504Y-110752500D01*
X127058318Y-110790927D01*
X127058306Y-110790930D01*
X127021952Y-110805989D01*
X126952483Y-110813458D01*
X126890004Y-110782183D01*
X126854352Y-110722094D01*
X126850500Y-110691428D01*
X126850500Y-103375874D01*
X126870185Y-103308835D01*
X126922989Y-103263080D01*
X126992147Y-103253136D01*
X127055703Y-103282161D01*
X127062181Y-103288193D01*
X127144796Y-103370808D01*
X127283225Y-103457789D01*
X127437539Y-103511786D01*
X127437542Y-103511786D01*
X127437544Y-103511787D01*
X127599996Y-103530091D01*
X127600000Y-103530091D01*
X127600004Y-103530091D01*
X127762455Y-103511787D01*
X127762456Y-103511786D01*
X127762461Y-103511786D01*
X127916775Y-103457789D01*
X128055204Y-103370808D01*
X128170808Y-103255204D01*
X128257789Y-103116775D01*
X128311786Y-102962461D01*
X128319016Y-102898297D01*
X128330091Y-102800003D01*
X128330091Y-102799996D01*
X128311787Y-102637544D01*
X128311786Y-102637542D01*
X128311786Y-102637539D01*
X128257789Y-102483225D01*
X128170808Y-102344796D01*
X128055204Y-102229192D01*
X128013533Y-102203008D01*
X127916774Y-102142210D01*
X127762455Y-102088212D01*
X127600004Y-102069909D01*
X127599996Y-102069909D01*
X127437544Y-102088212D01*
X127283225Y-102142210D01*
X127144795Y-102229192D01*
X127062181Y-102311807D01*
X127000858Y-102345292D01*
X126931166Y-102340308D01*
X126875233Y-102298436D01*
X126850816Y-102232972D01*
X126850500Y-102224126D01*
X126850500Y-99299996D01*
X131469909Y-99299996D01*
X131469909Y-99300000D01*
X131488212Y-99462455D01*
X131542210Y-99616774D01*
X131542211Y-99616775D01*
X131629192Y-99755204D01*
X131744796Y-99870808D01*
X131883225Y-99957789D01*
X132037539Y-100011786D01*
X132037542Y-100011786D01*
X132037544Y-100011787D01*
X132199996Y-100030091D01*
X132200000Y-100030091D01*
X132200004Y-100030091D01*
X132362455Y-100011787D01*
X132362456Y-100011786D01*
X132362461Y-100011786D01*
X132516775Y-99957789D01*
X132655204Y-99870808D01*
X132655205Y-99870806D01*
X132659637Y-99868022D01*
X132672310Y-99864440D01*
X132681509Y-99844830D01*
X132686676Y-99839335D01*
X132770808Y-99755204D01*
X132857789Y-99616775D01*
X132911786Y-99462461D01*
X132921924Y-99372489D01*
X132930091Y-99300000D01*
X132930091Y-99299996D01*
X132911787Y-99137544D01*
X132911786Y-99137542D01*
X132911786Y-99137539D01*
X132857789Y-98983225D01*
X132770808Y-98844796D01*
X132655204Y-98729192D01*
X132516774Y-98642210D01*
X132362455Y-98588212D01*
X132200004Y-98569909D01*
X132199996Y-98569909D01*
X132037544Y-98588212D01*
X131883225Y-98642210D01*
X131744795Y-98729192D01*
X131629192Y-98844795D01*
X131542210Y-98983225D01*
X131488212Y-99137544D01*
X131469909Y-99299996D01*
X126850500Y-99299996D01*
X126850500Y-94154500D01*
X126870185Y-94087461D01*
X126922989Y-94041706D01*
X126974500Y-94030500D01*
X134876000Y-94030500D01*
X134943039Y-94050185D01*
G37*
G04 #@! TD.AperFunction*
G04 #@! TA.AperFunction,Conductor*
G36*
X135446802Y-109738734D02*
G01*
X135470727Y-109755356D01*
X135542066Y-109818557D01*
X135676566Y-109889148D01*
X135750308Y-109907324D01*
X135824050Y-109925500D01*
X135824051Y-109925500D01*
X135849557Y-109925500D01*
X135916596Y-109945185D01*
X135951606Y-109979059D01*
X135978368Y-110017830D01*
X136092066Y-110118557D01*
X136226566Y-110189148D01*
X136287602Y-110204192D01*
X136374050Y-110225500D01*
X136374051Y-110225500D01*
X136525948Y-110225500D01*
X136525949Y-110225500D01*
X136624849Y-110201123D01*
X136694651Y-110204192D01*
X136751713Y-110244511D01*
X136777918Y-110309281D01*
X136777620Y-110336466D01*
X136769906Y-110399999D01*
X136776952Y-110458030D01*
X136765491Y-110526953D01*
X136718587Y-110578739D01*
X136651132Y-110596946D01*
X136639973Y-110596196D01*
X136535489Y-110584424D01*
X136535481Y-110584424D01*
X136373029Y-110602727D01*
X136218710Y-110656725D01*
X136163482Y-110691428D01*
X136119077Y-110719330D01*
X136117996Y-110720009D01*
X136052024Y-110739015D01*
X135411012Y-110739015D01*
X135343973Y-110719330D01*
X135323331Y-110702696D01*
X135194255Y-110573620D01*
X135160770Y-110512297D01*
X135165754Y-110442605D01*
X135176943Y-110419966D01*
X135214719Y-110359845D01*
X135214720Y-110359844D01*
X135268717Y-110205530D01*
X135279385Y-110110851D01*
X135287022Y-110043072D01*
X135287022Y-110043065D01*
X135268719Y-109880622D01*
X135268718Y-109880618D01*
X135268717Y-109880608D01*
X135268713Y-109880598D01*
X135267614Y-109875782D01*
X135271879Y-109806042D01*
X135313171Y-109749679D01*
X135378379Y-109724588D01*
X135446802Y-109738734D01*
G37*
G04 #@! TD.AperFunction*
G04 #@! TA.AperFunction,Conductor*
G36*
X153158167Y-108595185D02*
G01*
X153203922Y-108647989D01*
X153213866Y-108717147D01*
X153184841Y-108780703D01*
X153173361Y-108792309D01*
X153137817Y-108823799D01*
X153128367Y-108832171D01*
X153042078Y-108957181D01*
X153028996Y-108991675D01*
X153000736Y-109035382D01*
X151997939Y-110038181D01*
X151936616Y-110071666D01*
X151910258Y-110074500D01*
X151765001Y-110074500D01*
X151715866Y-110062390D01*
X151715442Y-110063510D01*
X151708433Y-110060851D01*
X151560950Y-110024500D01*
X151560949Y-110024500D01*
X151409051Y-110024500D01*
X151409050Y-110024500D01*
X151261566Y-110060851D01*
X151254558Y-110063510D01*
X151254133Y-110062390D01*
X151204999Y-110074500D01*
X150999500Y-110074500D01*
X150932461Y-110054815D01*
X150886706Y-110002011D01*
X150875500Y-109950500D01*
X150875500Y-108747160D01*
X150895185Y-108680121D01*
X150947989Y-108634366D01*
X151017147Y-108624422D01*
X151020421Y-108625059D01*
X151024049Y-108625500D01*
X151024051Y-108625500D01*
X151175950Y-108625500D01*
X151249691Y-108607324D01*
X151323434Y-108589148D01*
X151323436Y-108589146D01*
X151330442Y-108586490D01*
X151330866Y-108587609D01*
X151380001Y-108575500D01*
X153091128Y-108575500D01*
X153158167Y-108595185D01*
G37*
G04 #@! TD.AperFunction*
G04 #@! TA.AperFunction,Conductor*
G36*
X141102652Y-105545185D02*
G01*
X141148407Y-105597989D01*
X141158351Y-105667147D01*
X141129326Y-105730703D01*
X141117838Y-105742317D01*
X141112947Y-105746649D01*
X141026659Y-105871659D01*
X141026658Y-105871660D01*
X140972794Y-106013688D01*
X140963115Y-106093405D01*
X140954485Y-106164480D01*
X140972794Y-106315271D01*
X141026658Y-106457299D01*
X141112947Y-106582310D01*
X141226645Y-106683037D01*
X141361145Y-106753628D01*
X141434887Y-106771804D01*
X141508629Y-106789980D01*
X141508630Y-106789980D01*
X141660529Y-106789980D01*
X141709689Y-106777862D01*
X141808013Y-106753628D01*
X141942513Y-106683037D01*
X142056211Y-106582310D01*
X142142500Y-106457299D01*
X142196364Y-106315271D01*
X142214673Y-106164480D01*
X142196364Y-106013689D01*
X142154714Y-105903869D01*
X142149348Y-105834207D01*
X142182495Y-105772701D01*
X142243633Y-105738879D01*
X142313351Y-105743481D01*
X142358338Y-105772218D01*
X143939485Y-107353365D01*
X144046635Y-107460515D01*
X144177865Y-107536281D01*
X144324234Y-107575500D01*
X144452883Y-107575500D01*
X144624234Y-107575500D01*
X146258515Y-107575500D01*
X146325554Y-107595185D01*
X146371309Y-107647989D01*
X146382515Y-107699500D01*
X146382515Y-108119301D01*
X146362830Y-108186340D01*
X146310026Y-108232095D01*
X146258515Y-108243301D01*
X138107173Y-108243301D01*
X138040134Y-108223616D01*
X138019492Y-108206982D01*
X136212510Y-106400000D01*
X138169906Y-106400000D01*
X138188215Y-106550791D01*
X138242079Y-106692819D01*
X138328368Y-106817830D01*
X138442066Y-106918557D01*
X138576566Y-106989148D01*
X138604662Y-106996073D01*
X138724050Y-107025500D01*
X138724051Y-107025500D01*
X138875950Y-107025500D01*
X138925110Y-107013382D01*
X139023434Y-106989148D01*
X139157934Y-106918557D01*
X139271632Y-106817830D01*
X139357921Y-106692819D01*
X139411785Y-106550791D01*
X139430094Y-106400000D01*
X139411785Y-106249209D01*
X139357921Y-106107181D01*
X139271632Y-105982170D01*
X139157934Y-105881443D01*
X139023434Y-105810852D01*
X139023433Y-105810851D01*
X139023432Y-105810851D01*
X138875950Y-105774500D01*
X138875949Y-105774500D01*
X138724051Y-105774500D01*
X138724050Y-105774500D01*
X138576567Y-105810851D01*
X138442067Y-105881442D01*
X138328367Y-105982171D01*
X138242080Y-106107179D01*
X138242079Y-106107180D01*
X138213796Y-106181758D01*
X138188215Y-106249209D01*
X138169906Y-106400000D01*
X136212510Y-106400000D01*
X135549691Y-105737181D01*
X135516206Y-105675858D01*
X135521190Y-105606166D01*
X135563062Y-105550233D01*
X135628526Y-105525816D01*
X135637372Y-105525500D01*
X136933351Y-105525500D01*
X141035613Y-105525500D01*
X141102652Y-105545185D01*
G37*
G04 #@! TD.AperFunction*
G04 #@! TA.AperFunction,Conductor*
G36*
X158032539Y-94050185D02*
G01*
X158078294Y-94102989D01*
X158089500Y-94154500D01*
X158089500Y-101982417D01*
X158069815Y-102049456D01*
X158017011Y-102095211D01*
X157947853Y-102105155D01*
X157935825Y-102102814D01*
X157820950Y-102074500D01*
X157820949Y-102074500D01*
X157669051Y-102074500D01*
X157669050Y-102074500D01*
X157521567Y-102110851D01*
X157387067Y-102181442D01*
X157387066Y-102181443D01*
X157281612Y-102274867D01*
X157273367Y-102282171D01*
X157187080Y-102407179D01*
X157187079Y-102407180D01*
X157133215Y-102549208D01*
X157130023Y-102575500D01*
X157114906Y-102700000D01*
X157133215Y-102850791D01*
X157187079Y-102992819D01*
X157273368Y-103117830D01*
X157387066Y-103218557D01*
X157521566Y-103289148D01*
X157566625Y-103300254D01*
X157669050Y-103325500D01*
X157669051Y-103325500D01*
X157820948Y-103325500D01*
X157820949Y-103325500D01*
X157935826Y-103297185D01*
X158005626Y-103300254D01*
X158062689Y-103340573D01*
X158088894Y-103405342D01*
X158089500Y-103417582D01*
X158089500Y-107406277D01*
X158069815Y-107473316D01*
X158017011Y-107519071D01*
X157947853Y-107529015D01*
X157884297Y-107499990D01*
X157847794Y-107445282D01*
X157809814Y-107330666D01*
X157717712Y-107181344D01*
X157593656Y-107057288D01*
X157494410Y-106996073D01*
X157444336Y-106965187D01*
X157444331Y-106965185D01*
X157442862Y-106964698D01*
X157277797Y-106910001D01*
X157277795Y-106910000D01*
X157175010Y-106899500D01*
X155824998Y-106899500D01*
X155824981Y-106899501D01*
X155722203Y-106910000D01*
X155722200Y-106910001D01*
X155555668Y-106965185D01*
X155555659Y-106965189D01*
X155414596Y-107052198D01*
X155347204Y-107070638D01*
X155280541Y-107049715D01*
X155235771Y-106996073D01*
X155225500Y-106946659D01*
X155225500Y-105779259D01*
X155223600Y-105772169D01*
X155186281Y-105632890D01*
X155142669Y-105557352D01*
X155110515Y-105501660D01*
X155003365Y-105394510D01*
X152927787Y-103318932D01*
X152894302Y-103257609D01*
X152899286Y-103187917D01*
X152913419Y-103160810D01*
X152965762Y-103084979D01*
X152965762Y-103084978D01*
X152965764Y-103084976D01*
X153019628Y-102942948D01*
X153037937Y-102792157D01*
X153019628Y-102641366D01*
X152965764Y-102499338D01*
X152879475Y-102374327D01*
X152765777Y-102273600D01*
X152631277Y-102203009D01*
X152631276Y-102203008D01*
X152631275Y-102203008D01*
X152483793Y-102166657D01*
X152483792Y-102166657D01*
X152331894Y-102166657D01*
X152331893Y-102166657D01*
X152184410Y-102203008D01*
X152049906Y-102273601D01*
X152049903Y-102273603D01*
X152048477Y-102274867D01*
X152047211Y-102275461D01*
X152043737Y-102277860D01*
X152043337Y-102277281D01*
X151985241Y-102304582D01*
X151915978Y-102295391D01*
X151878579Y-102269724D01*
X151803367Y-102194512D01*
X151803365Y-102194510D01*
X151712781Y-102142211D01*
X151672136Y-102118744D01*
X151598950Y-102099134D01*
X151525766Y-102079525D01*
X151525765Y-102079525D01*
X151139742Y-102079525D01*
X151072703Y-102059840D01*
X151052061Y-102043206D01*
X150508851Y-101499996D01*
X152769909Y-101499996D01*
X152769909Y-101500003D01*
X152788212Y-101662455D01*
X152842210Y-101816774D01*
X152896818Y-101903681D01*
X152929192Y-101955204D01*
X153044796Y-102070808D01*
X153183225Y-102157789D01*
X153337539Y-102211786D01*
X153337542Y-102211786D01*
X153337544Y-102211787D01*
X153499996Y-102230091D01*
X153500000Y-102230091D01*
X153500004Y-102230091D01*
X153662455Y-102211787D01*
X153662456Y-102211786D01*
X153662461Y-102211786D01*
X153816775Y-102157789D01*
X153955204Y-102070808D01*
X154070808Y-101955204D01*
X154157789Y-101816775D01*
X154211786Y-101662461D01*
X154213134Y-101650500D01*
X154230091Y-101500003D01*
X154230091Y-101499996D01*
X154211787Y-101337544D01*
X154211786Y-101337542D01*
X154211786Y-101337539D01*
X154157789Y-101183225D01*
X154070808Y-101044796D01*
X153955204Y-100929192D01*
X153935439Y-100916773D01*
X153816774Y-100842210D01*
X153682939Y-100795379D01*
X153662461Y-100788214D01*
X153662460Y-100788213D01*
X153662455Y-100788212D01*
X153500004Y-100769909D01*
X153499996Y-100769909D01*
X153337544Y-100788212D01*
X153183225Y-100842210D01*
X153044795Y-100929192D01*
X152929192Y-101044795D01*
X152842210Y-101183225D01*
X152788212Y-101337544D01*
X152769909Y-101499996D01*
X150508851Y-101499996D01*
X150148342Y-101139487D01*
X150148340Y-101139485D01*
X150047809Y-101081443D01*
X150017111Y-101063719D01*
X149943925Y-101044109D01*
X149870741Y-101024500D01*
X149870740Y-101024500D01*
X149080001Y-101024500D01*
X149030866Y-101012390D01*
X149030442Y-101013510D01*
X149023433Y-101010851D01*
X148875950Y-100974500D01*
X148875949Y-100974500D01*
X148724051Y-100974500D01*
X148724050Y-100974500D01*
X148576567Y-101010851D01*
X148442067Y-101081442D01*
X148328367Y-101182171D01*
X148242080Y-101307178D01*
X148241586Y-101308121D01*
X148241041Y-101308683D01*
X148237818Y-101313354D01*
X148237041Y-101312818D01*
X148193004Y-101358336D01*
X148131787Y-101374500D01*
X148124050Y-101374500D01*
X147976567Y-101410851D01*
X147842064Y-101481443D01*
X147805599Y-101513748D01*
X147742365Y-101543468D01*
X147673102Y-101534283D01*
X147635693Y-101508612D01*
X147280976Y-101153895D01*
X147252714Y-101110182D01*
X147239636Y-101075696D01*
X147239635Y-101075694D01*
X147231369Y-101063719D01*
X147153346Y-100950683D01*
X147039648Y-100849956D01*
X146905148Y-100779365D01*
X146905147Y-100779364D01*
X146905146Y-100779364D01*
X146757664Y-100743013D01*
X146757663Y-100743013D01*
X146605765Y-100743013D01*
X146605764Y-100743013D01*
X146458278Y-100779365D01*
X146451268Y-100782024D01*
X146450401Y-100779739D01*
X146393469Y-100791136D01*
X146328420Y-100765632D01*
X146316692Y-100755297D01*
X146175882Y-100614487D01*
X146175880Y-100614485D01*
X146110265Y-100576602D01*
X146044651Y-100538719D01*
X145971465Y-100519109D01*
X145898281Y-100499500D01*
X145898280Y-100499500D01*
X143102030Y-100499500D01*
X143034991Y-100479815D01*
X142989236Y-100427011D01*
X142978934Y-100390446D01*
X142965915Y-100283225D01*
X142961785Y-100249209D01*
X142907921Y-100107181D01*
X142821632Y-99982170D01*
X142707934Y-99881443D01*
X142573434Y-99810852D01*
X142573433Y-99810851D01*
X142573432Y-99810851D01*
X142425950Y-99774500D01*
X142425949Y-99774500D01*
X142274051Y-99774500D01*
X142274050Y-99774500D01*
X142126566Y-99810851D01*
X142119558Y-99813510D01*
X142119133Y-99812390D01*
X142069999Y-99824500D01*
X137224500Y-99824500D01*
X137157461Y-99804815D01*
X137111706Y-99752011D01*
X137100500Y-99700500D01*
X137100499Y-99424000D01*
X137120183Y-99356961D01*
X137172987Y-99311206D01*
X137224499Y-99300000D01*
X150600000Y-99300000D01*
X150600000Y-94154500D01*
X150619685Y-94087461D01*
X150672489Y-94041706D01*
X150724000Y-94030500D01*
X157965500Y-94030500D01*
X158032539Y-94050185D01*
G37*
G04 #@! TD.AperFunction*
G04 #@! TA.AperFunction,Conductor*
G36*
X148425941Y-104508149D02*
G01*
X148470282Y-104536647D01*
X149190681Y-105257046D01*
X149224166Y-105318369D01*
X149227000Y-105344727D01*
X149227000Y-105362882D01*
X149207315Y-105429921D01*
X149154511Y-105475676D01*
X149085353Y-105485620D01*
X149021797Y-105456595D01*
X149015319Y-105450563D01*
X148285842Y-104721086D01*
X148252357Y-104659763D01*
X148257341Y-104590071D01*
X148285845Y-104545721D01*
X148294925Y-104536642D01*
X148356250Y-104503160D01*
X148425941Y-104508149D01*
G37*
G04 #@! TD.AperFunction*
G04 #@! TA.AperFunction,Conductor*
G36*
X138065067Y-101670185D02*
G01*
X138110822Y-101722989D01*
X138120766Y-101792147D01*
X138091741Y-101855703D01*
X138085709Y-101862181D01*
X138015273Y-101932616D01*
X137928291Y-102071046D01*
X137874293Y-102225365D01*
X137855990Y-102387817D01*
X137855990Y-102387824D01*
X137874293Y-102550278D01*
X137891029Y-102598104D01*
X137894592Y-102667883D01*
X137859863Y-102728510D01*
X137797870Y-102760738D01*
X137773988Y-102763059D01*
X135024500Y-102763059D01*
X134957461Y-102743374D01*
X134911706Y-102690570D01*
X134900500Y-102639059D01*
X134900500Y-102542079D01*
X134871659Y-102397092D01*
X134871658Y-102397091D01*
X134871658Y-102397087D01*
X134850204Y-102345292D01*
X134815087Y-102260511D01*
X134815080Y-102260498D01*
X134793697Y-102228496D01*
X134772819Y-102161818D01*
X134791304Y-102094438D01*
X134798413Y-102084131D01*
X134824009Y-102050776D01*
X134884937Y-101903683D01*
X134900500Y-101785468D01*
X134900500Y-101774500D01*
X134920185Y-101707461D01*
X134972989Y-101661706D01*
X135024500Y-101650500D01*
X137998028Y-101650500D01*
X138065067Y-101670185D01*
G37*
G04 #@! TD.AperFunction*
G04 #@! TA.AperFunction,Conductor*
G36*
X145599812Y-101670185D02*
G01*
X145620454Y-101686819D01*
X145896454Y-101962819D01*
X145929939Y-102024142D01*
X145924955Y-102093834D01*
X145883083Y-102149767D01*
X145817619Y-102174184D01*
X145808773Y-102174500D01*
X139368053Y-102174500D01*
X139301014Y-102154815D01*
X139255259Y-102102011D01*
X139251011Y-102091454D01*
X139246837Y-102079525D01*
X139243870Y-102071046D01*
X139243720Y-102070808D01*
X139208336Y-102014494D01*
X139156889Y-101932617D01*
X139086453Y-101862181D01*
X139052968Y-101800858D01*
X139057952Y-101731166D01*
X139099824Y-101675233D01*
X139165288Y-101650816D01*
X139174134Y-101650500D01*
X145532773Y-101650500D01*
X145599812Y-101670185D01*
G37*
G04 #@! TD.AperFunction*
M02*
