M48
; DRILL file {KiCad 8.0.2} date 2024-10-06T19:59:31-0600
; FORMAT={-:-/ absolute / metric / decimal}
; #@! TF.CreationDate,2024-10-06T19:59:31-06:00
; #@! TF.GenerationSoftware,Kicad,Pcbnew,8.0.2
; #@! TF.FileFunction,Plated,1,2,PTH
FMAT,2
METRIC
; #@! TA.AperFunction,Plated,PTH,ViaDrill
T1C0.300
; #@! TA.AperFunction,Plated,PTH,ComponentDrill
T2C0.600
; #@! TA.AperFunction,Plated,PTH,ComponentDrill
T3C0.750
; #@! TA.AperFunction,Plated,PTH,ComponentDrill
T4C0.950
; #@! TA.AperFunction,Plated,PTH,ComponentDrill
T5C1.000
%
G90
G05
T1
X96.0Y-62.0
X99.0Y-98.5
X99.311Y-108.811
X99.5Y-52.5
X99.5Y-110.9
X99.5Y-135.0
X100.438Y-101.5
X101.637Y-100.0
X101.7Y-92.0
X104.1Y-97.5
X104.5Y-95.5
X105.0Y-92.0
X105.0Y-96.9
X105.0Y-98.1
X107.211Y-91.789
X108.0Y-81.0
X108.0Y-104.0
X108.0Y-107.0
X108.0Y-110.0
X108.0Y-113.0
X108.0Y-132.0
X108.309Y-91.191
X110.711Y-95.289
X111.559Y-94.441
X111.894Y-83.901
X112.0Y-90.5
X113.0Y-104.5
X114.5Y-82.5
X116.0Y-62.0
X117.375Y-104.0
X119.5Y-104.5
X120.0Y-62.0
X124.0Y-62.0
X126.5Y-70.5
X129.0Y-78.0
X130.0Y-78.0
X131.176Y-136.524
X132.0Y-136.5
X133.0Y-61.5
X133.5Y-133.0
X134.0Y-134.5
X134.5Y-135.5
X137.0Y-61.5
X138.862Y-58.0
X142.425Y-57.5
X144.075Y-57.5
X144.925Y-59.0
X146.5Y-62.5
X150.0Y-60.55
X150.381Y-62.5
X150.381Y-64.694
X151.966Y-65.612
X152.262Y-60.262
X153.0Y-58.225
X154.0Y-57.5
X154.0Y-64.462
X154.5Y-63.5
X154.525Y-56.5
X155.275Y-60.588
X156.0Y-56.0
X156.5Y-57.0
X157.0Y-60.175
X159.0Y-63.5
X159.5Y-60.0
X160.0Y-53.0
X161.0Y-61.5
X162.0Y-66.0
X171.5Y-60.5
X171.5Y-128.0
X171.5Y-137.5
X174.0Y-57.5
X176.0Y-57.5
X183.0Y-55.5
X183.5Y-128.0
X183.5Y-137.5
X185.057Y-58.046
X187.5Y-60.0
X190.5Y-55.5
X190.5Y-57.0
T3
X154.0Y-54.5
X156.0Y-54.5
T4
X97.0Y-77.0
X97.0Y-79.5
X97.0Y-82.0
X97.0Y-84.5
X97.0Y-87.0
X97.0Y-89.5
X97.0Y-143.0
X99.5Y-143.0
X102.0Y-143.0
X104.5Y-143.0
X107.0Y-143.0
X109.5Y-143.0
X116.5Y-51.0
X119.0Y-51.0
X121.5Y-51.0
X130.0Y-143.0
X132.5Y-143.0
X135.0Y-143.0
X137.5Y-143.0
X138.0Y-50.5
X140.0Y-143.0
X140.5Y-50.5
X142.5Y-143.0
X143.0Y-50.5
X145.5Y-50.5
X189.5Y-110.5
X189.5Y-113.0
X189.5Y-115.5
X189.5Y-118.0
T5
X97.0Y-51.0
X99.5Y-51.0
X173.5Y-50.0
X176.0Y-50.0
T2
X181.68Y-49.9G85X181.68Y-49.1
G05
X181.68Y-54.23G85X181.68Y-53.13
G05
X190.32Y-49.9G85X190.32Y-49.1
G05
X190.32Y-54.23G85X190.32Y-53.13
G05
M30
