G04 #@! TF.GenerationSoftware,KiCad,Pcbnew,8.0.2*
G04 #@! TF.CreationDate,2025-05-08T21:28:10-06:00*
G04 #@! TF.ProjectId,kicad,6b696361-642e-46b6-9963-61645f706362,4*
G04 #@! TF.SameCoordinates,Original*
G04 #@! TF.FileFunction,Legend,Top*
G04 #@! TF.FilePolarity,Positive*
%FSLAX46Y46*%
G04 Gerber Fmt 4.6, Leading zero omitted, Abs format (unit mm)*
G04 Created by KiCad (PCBNEW 8.0.2) date 2025-05-08 21:28:10*
%MOMM*%
%LPD*%
G01*
G04 APERTURE LIST*
G04 Aperture macros list*
%AMRoundRect*
0 Rectangle with rounded corners*
0 $1 Rounding radius*
0 $2 $3 $4 $5 $6 $7 $8 $9 X,Y pos of 4 corners*
0 Add a 4 corners polygon primitive as box body*
4,1,4,$2,$3,$4,$5,$6,$7,$8,$9,$2,$3,0*
0 Add four circle primitives for the rounded corners*
1,1,$1+$1,$2,$3*
1,1,$1+$1,$4,$5*
1,1,$1+$1,$6,$7*
1,1,$1+$1,$8,$9*
0 Add four rect primitives between the rounded corners*
20,1,$1+$1,$2,$3,$4,$5,0*
20,1,$1+$1,$4,$5,$6,$7,0*
20,1,$1+$1,$6,$7,$8,$9,0*
20,1,$1+$1,$8,$9,$2,$3,0*%
G04 Aperture macros list end*
%ADD10C,0.100000*%
%ADD11C,0.200000*%
%ADD12C,0.150000*%
%ADD13C,0.152400*%
%ADD14C,0.120000*%
%ADD15C,0.325000*%
%ADD16C,0.000000*%
%ADD17C,0.508000*%
%ADD18C,0.010000*%
%ADD19R,1.000000X1.550000*%
%ADD20R,0.990600X2.692400*%
%ADD21RoundRect,0.140000X-0.170000X0.140000X-0.170000X-0.140000X0.170000X-0.140000X0.170000X0.140000X0*%
%ADD22RoundRect,0.218750X0.256250X-0.218750X0.256250X0.218750X-0.256250X0.218750X-0.256250X-0.218750X0*%
%ADD23RoundRect,0.135000X0.185000X-0.135000X0.185000X0.135000X-0.185000X0.135000X-0.185000X-0.135000X0*%
%ADD24RoundRect,0.140000X0.170000X-0.140000X0.170000X0.140000X-0.170000X0.140000X-0.170000X-0.140000X0*%
%ADD25RoundRect,0.150000X-0.200000X0.150000X-0.200000X-0.150000X0.200000X-0.150000X0.200000X0.150000X0*%
%ADD26RoundRect,0.104167X-0.295833X0.145833X-0.295833X-0.145833X0.295833X-0.145833X0.295833X0.145833X0*%
%ADD27O,0.800000X0.500000*%
%ADD28C,0.650000*%
%ADD29O,2.304000X1.204000*%
%ADD30O,2.004000X1.204000*%
%ADD31RoundRect,0.250000X-0.625000X0.350000X-0.625000X-0.350000X0.625000X-0.350000X0.625000X0.350000X0*%
%ADD32O,1.750000X1.200000*%
%ADD33RoundRect,0.062500X0.400000X0.062500X-0.400000X0.062500X-0.400000X-0.062500X0.400000X-0.062500X0*%
%ADD34RoundRect,0.062500X0.062500X0.400000X-0.062500X0.400000X-0.062500X-0.400000X0.062500X-0.400000X0*%
%ADD35R,6.400000X6.400000*%
%ADD36RoundRect,0.250000X-0.250000X-0.475000X0.250000X-0.475000X0.250000X0.475000X-0.250000X0.475000X0*%
%ADD37RoundRect,0.140000X-0.140000X-0.170000X0.140000X-0.170000X0.140000X0.170000X-0.140000X0.170000X0*%
%ADD38RoundRect,0.225000X0.375000X-0.225000X0.375000X0.225000X-0.375000X0.225000X-0.375000X-0.225000X0*%
%ADD39RoundRect,0.135000X-0.185000X0.135000X-0.185000X-0.135000X0.185000X-0.135000X0.185000X0.135000X0*%
%ADD40RoundRect,0.225000X0.225000X0.375000X-0.225000X0.375000X-0.225000X-0.375000X0.225000X-0.375000X0*%
%ADD41RoundRect,0.140000X0.140000X0.170000X-0.140000X0.170000X-0.140000X-0.170000X0.140000X-0.170000X0*%
%ADD42RoundRect,0.147500X-0.147500X-0.172500X0.147500X-0.172500X0.147500X0.172500X-0.147500X0.172500X0*%
%ADD43RoundRect,0.135000X-0.135000X-0.185000X0.135000X-0.185000X0.135000X0.185000X-0.135000X0.185000X0*%
%ADD44RoundRect,0.135000X0.135000X0.185000X-0.135000X0.185000X-0.135000X-0.185000X0.135000X-0.185000X0*%
%ADD45R,0.950000X0.350000*%
%ADD46R,0.350000X0.950000*%
%ADD47RoundRect,0.150000X-0.512500X-0.150000X0.512500X-0.150000X0.512500X0.150000X-0.512500X0.150000X0*%
%ADD48RoundRect,0.250000X0.250000X0.475000X-0.250000X0.475000X-0.250000X-0.475000X0.250000X-0.475000X0*%
%ADD49RoundRect,0.112500X0.237500X-0.112500X0.237500X0.112500X-0.237500X0.112500X-0.237500X-0.112500X0*%
%ADD50R,0.304800X0.254000*%
%ADD51R,1.498600X0.711200*%
%ADD52R,0.812800X0.990600*%
%ADD53C,1.397000*%
%ADD54R,0.203200X0.762000*%
%ADD55R,1.600200X0.990600*%
%ADD56RoundRect,0.150000X0.200000X-0.150000X0.200000X0.150000X-0.200000X0.150000X-0.200000X-0.150000X0*%
%ADD57R,0.330200X0.812800*%
%ADD58R,0.406400X0.812800*%
%ADD59R,1.100000X0.600000*%
%ADD60RoundRect,0.102000X0.375000X-0.425000X0.375000X0.425000X-0.375000X0.425000X-0.375000X-0.425000X0*%
G04 APERTURE END LIST*
D10*
X134750000Y-106500000D02*
G75*
G02*
X126750000Y-106500000I-4000000J0D01*
G01*
X126750000Y-106500000D02*
G75*
G02*
X134750000Y-106500000I4000000J0D01*
G01*
X135000000Y-94000000D02*
X150400000Y-94000000D01*
X150400000Y-100000000D01*
X135000000Y-100000000D01*
X135000000Y-94000000D01*
G36*
X136539078Y-94747739D02*
G01*
X136380809Y-94747739D01*
X136232554Y-95167592D01*
X136082588Y-94747739D01*
X135920167Y-94747739D01*
X135881088Y-95670000D01*
X136025191Y-95670000D01*
X136047662Y-94954856D01*
X136214235Y-95426489D01*
X136243789Y-95426489D01*
X136408897Y-94947773D01*
X136431367Y-95670000D01*
X136578401Y-95670000D01*
X136539078Y-94747739D01*
G37*
G36*
X137128915Y-94983884D02*
G01*
X137182400Y-94992477D01*
X137232014Y-95008017D01*
X137277343Y-95030108D01*
X137317971Y-95058349D01*
X137353485Y-95092343D01*
X137383470Y-95131691D01*
X137407513Y-95175995D01*
X137425200Y-95224855D01*
X137436115Y-95277875D01*
X137439846Y-95334654D01*
X137438144Y-95372687D01*
X137429409Y-95426718D01*
X137413636Y-95476769D01*
X137391255Y-95522437D01*
X137362697Y-95563321D01*
X137328392Y-95599018D01*
X137288768Y-95629127D01*
X137244257Y-95653244D01*
X137195288Y-95670969D01*
X137142290Y-95681898D01*
X137085694Y-95685631D01*
X137048090Y-95684008D01*
X136994605Y-95675639D01*
X136944991Y-95660447D01*
X136899663Y-95638768D01*
X136859035Y-95610934D01*
X136823521Y-95577281D01*
X136793535Y-95538143D01*
X136769492Y-95493855D01*
X136751805Y-95444751D01*
X136740890Y-95391165D01*
X136737159Y-95333433D01*
X136899337Y-95333433D01*
X136899550Y-95346555D01*
X136904571Y-95395355D01*
X136919815Y-95447806D01*
X136944381Y-95490367D01*
X136985198Y-95527795D01*
X137037261Y-95549652D01*
X137088381Y-95555450D01*
X137098915Y-95555231D01*
X137148000Y-95547611D01*
X137198105Y-95524164D01*
X137237217Y-95485217D01*
X137260346Y-95440996D01*
X137273960Y-95386146D01*
X137277424Y-95334654D01*
X137272205Y-95274198D01*
X137256995Y-95222404D01*
X137232465Y-95179921D01*
X137191671Y-95142146D01*
X137139581Y-95119833D01*
X137088381Y-95113859D01*
X137077996Y-95114085D01*
X137029396Y-95121941D01*
X136979407Y-95145852D01*
X136940096Y-95185091D01*
X136916706Y-95229136D01*
X136902871Y-95283186D01*
X136899337Y-95333433D01*
X136737159Y-95333433D01*
X136738845Y-95296121D01*
X136747506Y-95242820D01*
X136763164Y-95193134D01*
X136785409Y-95147535D01*
X136813835Y-95106492D01*
X136848032Y-95070475D01*
X136887593Y-95039953D01*
X136932109Y-95015396D01*
X136981174Y-94997273D01*
X137034377Y-94986055D01*
X137091311Y-94982212D01*
X137128915Y-94983884D01*
G37*
G36*
X138259525Y-95478757D02*
G01*
X138254859Y-95428003D01*
X138233936Y-95378570D01*
X138198116Y-95343533D01*
X138152570Y-95318805D01*
X138104176Y-95301566D01*
X138043859Y-95286294D01*
X137913677Y-95258695D01*
X137862241Y-95243681D01*
X137819758Y-95216863D01*
X137811339Y-95185910D01*
X137839595Y-95143061D01*
X137892947Y-95128345D01*
X137948511Y-95124161D01*
X137971074Y-95123872D01*
X138024649Y-95125870D01*
X138074450Y-95130253D01*
X138130492Y-95137196D01*
X138182890Y-95145242D01*
X138210432Y-95150006D01*
X138225819Y-95021779D01*
X138174682Y-95013856D01*
X138123368Y-95007444D01*
X138073760Y-95002609D01*
X138020554Y-94999052D01*
X137975226Y-94997843D01*
X137913862Y-94999949D01*
X137859584Y-95006115D01*
X137797841Y-95020255D01*
X137747744Y-95040660D01*
X137700671Y-95074148D01*
X137669885Y-95115515D01*
X137654321Y-95163697D01*
X137651849Y-95195436D01*
X137656226Y-95244257D01*
X137676200Y-95292258D01*
X137718479Y-95331680D01*
X137765998Y-95355206D01*
X137816254Y-95371561D01*
X137861898Y-95382526D01*
X137994766Y-95409881D01*
X138041884Y-95422880D01*
X138087004Y-95448763D01*
X138099790Y-95486817D01*
X138076855Y-95531988D01*
X138026996Y-95552455D01*
X137974197Y-95559630D01*
X137929064Y-95561067D01*
X137878121Y-95559254D01*
X137822223Y-95554612D01*
X137767596Y-95548277D01*
X137718365Y-95541285D01*
X137666592Y-95532695D01*
X137656001Y-95530781D01*
X137639148Y-95659497D01*
X137695457Y-95668530D01*
X137748864Y-95675601D01*
X137800848Y-95680760D01*
X137852887Y-95684055D01*
X137906459Y-95685533D01*
X137924912Y-95685631D01*
X137985877Y-95683254D01*
X138040503Y-95676356D01*
X138088864Y-95665282D01*
X138143730Y-95644620D01*
X138187769Y-95617972D01*
X138227865Y-95577497D01*
X138251668Y-95530557D01*
X138259525Y-95478757D01*
G37*
G36*
X138820998Y-94998621D02*
G01*
X138875047Y-95002747D01*
X138935864Y-95013922D01*
X138984634Y-95031788D01*
X139030004Y-95063874D01*
X139059661Y-95107210D01*
X139075332Y-95162238D01*
X139078960Y-95214975D01*
X139078960Y-95480711D01*
X139085303Y-95525225D01*
X139130739Y-95546901D01*
X139193754Y-95552519D01*
X139181297Y-95670000D01*
X139093126Y-95664626D01*
X139068673Y-95662843D01*
X139014353Y-95652792D01*
X138966584Y-95629562D01*
X138936078Y-95590621D01*
X138922156Y-95590621D01*
X138907612Y-95601831D01*
X138862519Y-95631432D01*
X138815120Y-95654825D01*
X138765270Y-95671798D01*
X138712826Y-95682137D01*
X138657641Y-95685631D01*
X138604629Y-95680714D01*
X138558034Y-95665976D01*
X138512072Y-95635348D01*
X138478681Y-95590629D01*
X138461767Y-95542620D01*
X138455896Y-95484863D01*
X138455933Y-95483642D01*
X138608548Y-95483642D01*
X138614070Y-95518794D01*
X138646898Y-95557161D01*
X138698185Y-95568150D01*
X138732694Y-95565689D01*
X138782719Y-95553147D01*
X138832785Y-95531240D01*
X138882255Y-95502668D01*
X138929239Y-95470942D01*
X138929239Y-95356636D01*
X138727494Y-95383503D01*
X138710018Y-95386130D01*
X138656507Y-95401533D01*
X138618266Y-95435369D01*
X138608548Y-95483642D01*
X138455933Y-95483642D01*
X138456571Y-95462394D01*
X138464658Y-95412585D01*
X138488180Y-95364134D01*
X138529266Y-95327065D01*
X138578823Y-95304131D01*
X138629594Y-95290565D01*
X138691102Y-95280921D01*
X138929239Y-95256252D01*
X138929239Y-95216196D01*
X138918841Y-95164629D01*
X138878971Y-95134475D01*
X138826557Y-95124623D01*
X138773900Y-95122651D01*
X138748287Y-95123158D01*
X138697180Y-95126136D01*
X138643319Y-95131023D01*
X138591203Y-95136981D01*
X138534298Y-95144633D01*
X138518911Y-95020314D01*
X138570444Y-95013215D01*
X138627544Y-95006689D01*
X138679074Y-95002125D01*
X138731585Y-94998984D01*
X138780739Y-94997843D01*
X138820998Y-94998621D01*
G37*
G36*
X139674424Y-94845680D02*
G01*
X139725867Y-94838963D01*
X139769185Y-94815893D01*
X139795722Y-94772063D01*
X139799232Y-94743342D01*
X139789073Y-94693816D01*
X139754734Y-94656489D01*
X139704120Y-94640076D01*
X139675889Y-94638318D01*
X139624816Y-94646259D01*
X139582148Y-94671717D01*
X139556204Y-94715667D01*
X139552791Y-94742121D01*
X139563620Y-94792004D01*
X139598714Y-94828469D01*
X139647950Y-94844045D01*
X139674424Y-94845680D01*
G37*
G36*
X139380600Y-95537131D02*
G01*
X139380600Y-95670000D01*
X139992428Y-95670000D01*
X139992428Y-95537131D01*
X139764061Y-95537131D01*
X139764061Y-95013475D01*
X139408443Y-95013475D01*
X139408443Y-95146587D01*
X139607257Y-95146587D01*
X139607257Y-95537131D01*
X139380600Y-95537131D01*
G37*
G36*
X140558583Y-95129490D02*
G01*
X140609701Y-95133015D01*
X140660310Y-95145892D01*
X140713452Y-95168851D01*
X140758788Y-95193918D01*
X140789637Y-95213021D01*
X140862421Y-95101646D01*
X140814162Y-95071871D01*
X140769899Y-95048230D01*
X140719229Y-95026287D01*
X140672589Y-95011585D01*
X140620208Y-95001663D01*
X140569734Y-94998040D01*
X140552965Y-94997843D01*
X140494937Y-95001760D01*
X140440184Y-95013132D01*
X140389236Y-95031388D01*
X140342626Y-95055958D01*
X140300885Y-95086272D01*
X140264544Y-95121762D01*
X140234133Y-95161855D01*
X140210186Y-95205984D01*
X140193232Y-95253577D01*
X140183803Y-95304065D01*
X140181960Y-95339050D01*
X140185694Y-95396644D01*
X140196634Y-95449850D01*
X140214385Y-95498389D01*
X140238555Y-95541983D01*
X140280085Y-95591933D01*
X140331392Y-95631934D01*
X140375728Y-95655008D01*
X140424644Y-95671835D01*
X140477749Y-95682136D01*
X140534647Y-95685631D01*
X140592516Y-95683044D01*
X140649631Y-95674310D01*
X140698450Y-95661283D01*
X140749918Y-95642131D01*
X140805478Y-95616008D01*
X140853842Y-95589525D01*
X140866573Y-95582072D01*
X140797941Y-95476071D01*
X140746364Y-95502227D01*
X140701183Y-95522121D01*
X140653685Y-95538780D01*
X140604862Y-95549907D01*
X140553642Y-95554183D01*
X140547348Y-95554228D01*
X140495803Y-95548245D01*
X140449689Y-95530837D01*
X140403428Y-95496007D01*
X140374026Y-95456316D01*
X140354384Y-95407794D01*
X140345856Y-95351250D01*
X140345603Y-95339050D01*
X140351789Y-95284629D01*
X140369616Y-95236441D01*
X140397988Y-95195710D01*
X140435811Y-95163661D01*
X140481987Y-95141518D01*
X140535422Y-95130505D01*
X140558583Y-95129490D01*
G37*
G36*
X141941486Y-94747739D02*
G01*
X141941486Y-95670000D01*
X142578471Y-95670000D01*
X142578471Y-95539818D01*
X142099511Y-95539818D01*
X142099511Y-94747739D01*
X141941486Y-94747739D01*
G37*
G36*
X143114787Y-94998621D02*
G01*
X143168837Y-95002747D01*
X143229653Y-95013922D01*
X143278423Y-95031788D01*
X143323793Y-95063874D01*
X143353450Y-95107210D01*
X143369121Y-95162238D01*
X143372749Y-95214975D01*
X143372749Y-95480711D01*
X143379093Y-95525225D01*
X143424528Y-95546901D01*
X143487543Y-95552519D01*
X143475087Y-95670000D01*
X143386915Y-95664626D01*
X143362462Y-95662843D01*
X143308143Y-95652792D01*
X143260374Y-95629562D01*
X143229867Y-95590621D01*
X143215945Y-95590621D01*
X143201401Y-95601831D01*
X143156308Y-95631432D01*
X143108909Y-95654825D01*
X143059060Y-95671798D01*
X143006615Y-95682137D01*
X142951430Y-95685631D01*
X142898418Y-95680714D01*
X142851824Y-95665976D01*
X142805861Y-95635348D01*
X142772470Y-95590629D01*
X142755557Y-95542620D01*
X142749685Y-95484863D01*
X142749722Y-95483642D01*
X142902337Y-95483642D01*
X142907859Y-95518794D01*
X142940688Y-95557161D01*
X142991974Y-95568150D01*
X143026483Y-95565689D01*
X143076509Y-95553147D01*
X143126575Y-95531240D01*
X143176044Y-95502668D01*
X143223028Y-95470942D01*
X143223028Y-95356636D01*
X143021284Y-95383503D01*
X143003807Y-95386130D01*
X142950297Y-95401533D01*
X142912055Y-95435369D01*
X142902337Y-95483642D01*
X142749722Y-95483642D01*
X142750360Y-95462394D01*
X142758448Y-95412585D01*
X142781970Y-95364134D01*
X142823055Y-95327065D01*
X142872612Y-95304131D01*
X142923384Y-95290565D01*
X142984891Y-95280921D01*
X143223028Y-95256252D01*
X143223028Y-95216196D01*
X143212630Y-95164629D01*
X143172760Y-95134475D01*
X143120347Y-95124623D01*
X143067690Y-95122651D01*
X143042076Y-95123158D01*
X142990969Y-95126136D01*
X142937108Y-95131023D01*
X142884992Y-95136981D01*
X142828087Y-95144633D01*
X142812700Y-95020314D01*
X142864233Y-95013215D01*
X142921334Y-95006689D01*
X142972864Y-95002125D01*
X143025375Y-94998984D01*
X143074528Y-94997843D01*
X143114787Y-94998621D01*
G37*
G36*
X143804570Y-95096029D02*
G01*
X143831219Y-95071684D01*
X143877791Y-95038067D01*
X143925109Y-95015138D01*
X143974142Y-95002021D01*
X144025854Y-94997843D01*
X144069855Y-95001100D01*
X144125257Y-95015323D01*
X144175842Y-95040390D01*
X144220428Y-95075812D01*
X144257834Y-95121100D01*
X144286878Y-95175764D01*
X144302461Y-95222620D01*
X144312177Y-95274268D01*
X144315526Y-95330502D01*
X144313916Y-95367173D01*
X144305574Y-95419986D01*
X144290343Y-95469659D01*
X144268468Y-95515623D01*
X144240198Y-95557308D01*
X144205780Y-95594143D01*
X144165463Y-95625559D01*
X144119492Y-95650985D01*
X144068116Y-95669853D01*
X144011583Y-95681592D01*
X143950139Y-95685631D01*
X143900020Y-95682933D01*
X143850519Y-95674487D01*
X143801796Y-95659768D01*
X143754012Y-95638248D01*
X143675610Y-95670000D01*
X143647766Y-95670000D01*
X143647766Y-95209602D01*
X143804570Y-95209602D01*
X143804570Y-95514661D01*
X143834898Y-95531500D01*
X143883705Y-95549412D01*
X143934752Y-95555450D01*
X143960750Y-95554270D01*
X144018757Y-95541695D01*
X144066630Y-95517067D01*
X144104186Y-95482511D01*
X144131240Y-95440151D01*
X144147608Y-95392111D01*
X144153105Y-95340516D01*
X144151083Y-95304748D01*
X144139259Y-95251608D01*
X144112666Y-95199313D01*
X144074585Y-95160585D01*
X144027178Y-95136533D01*
X143972609Y-95128269D01*
X143938962Y-95131147D01*
X143889830Y-95147637D01*
X143846858Y-95174291D01*
X143804570Y-95209602D01*
X143647766Y-95209602D01*
X143647766Y-94669581D01*
X143804570Y-94669581D01*
X143804570Y-95096029D01*
G37*
G36*
X145129588Y-95478757D02*
G01*
X145124922Y-95428003D01*
X145103999Y-95378570D01*
X145068179Y-95343533D01*
X145022632Y-95318805D01*
X144974239Y-95301566D01*
X144913921Y-95286294D01*
X144783740Y-95258695D01*
X144732304Y-95243681D01*
X144689820Y-95216863D01*
X144681402Y-95185910D01*
X144709658Y-95143061D01*
X144763010Y-95128345D01*
X144818574Y-95124161D01*
X144841137Y-95123872D01*
X144894712Y-95125870D01*
X144944513Y-95130253D01*
X145000554Y-95137196D01*
X145052953Y-95145242D01*
X145080495Y-95150006D01*
X145095882Y-95021779D01*
X145044745Y-95013856D01*
X144993430Y-95007444D01*
X144943823Y-95002609D01*
X144890617Y-94999052D01*
X144845289Y-94997843D01*
X144783925Y-94999949D01*
X144729647Y-95006115D01*
X144667904Y-95020255D01*
X144617806Y-95040660D01*
X144570734Y-95074148D01*
X144539947Y-95115515D01*
X144524384Y-95163697D01*
X144521912Y-95195436D01*
X144526289Y-95244257D01*
X144546262Y-95292258D01*
X144588542Y-95331680D01*
X144636060Y-95355206D01*
X144686317Y-95371561D01*
X144731960Y-95382526D01*
X144864829Y-95409881D01*
X144911947Y-95422880D01*
X144957067Y-95448763D01*
X144969853Y-95486817D01*
X144946918Y-95531988D01*
X144897059Y-95552455D01*
X144844260Y-95559630D01*
X144799127Y-95561067D01*
X144748183Y-95559254D01*
X144692285Y-95554612D01*
X144637659Y-95548277D01*
X144588428Y-95541285D01*
X144536655Y-95532695D01*
X144526064Y-95530781D01*
X144509211Y-95659497D01*
X144565520Y-95668530D01*
X144618927Y-95675601D01*
X144670911Y-95680760D01*
X144722950Y-95684055D01*
X144776522Y-95685533D01*
X144794975Y-95685631D01*
X144855940Y-95683254D01*
X144910566Y-95676356D01*
X144958927Y-95665282D01*
X145013793Y-95644620D01*
X145057832Y-95617972D01*
X145097927Y-95577497D01*
X145121730Y-95530557D01*
X145129588Y-95478757D01*
G37*
G36*
X136281683Y-96428025D02*
G01*
X136333339Y-96432271D01*
X136394219Y-96445587D01*
X136445906Y-96467267D01*
X136488337Y-96496890D01*
X136521448Y-96534034D01*
X136545177Y-96578280D01*
X136559460Y-96629206D01*
X136564235Y-96686392D01*
X136560956Y-96735419D01*
X136546367Y-96791536D01*
X136517939Y-96841319D01*
X136483657Y-96876156D01*
X136437818Y-96906204D01*
X136379224Y-96931138D01*
X136326187Y-96946285D01*
X136264794Y-96958234D01*
X136264794Y-96966782D01*
X136309265Y-96990187D01*
X136349929Y-97019626D01*
X136387860Y-97056395D01*
X136420132Y-97093545D01*
X136626029Y-97344382D01*
X136626029Y-97350000D01*
X136428436Y-97350000D01*
X136257711Y-97117480D01*
X136252157Y-97109858D01*
X136216601Y-97065121D01*
X136178332Y-97030163D01*
X136129207Y-97007076D01*
X136079902Y-96997801D01*
X136079902Y-97350000D01*
X135923098Y-97350000D01*
X135923098Y-96889357D01*
X136079902Y-96889357D01*
X136130216Y-96882274D01*
X136151336Y-96879409D01*
X136208413Y-96869677D01*
X136270816Y-96854083D01*
X136319079Y-96835542D01*
X136368583Y-96802307D01*
X136398281Y-96755508D01*
X136406210Y-96700314D01*
X136398644Y-96644582D01*
X136375414Y-96601556D01*
X136335722Y-96571880D01*
X136287994Y-96557557D01*
X136238171Y-96553768D01*
X136079902Y-96553768D01*
X136079902Y-96889357D01*
X135923098Y-96889357D01*
X135923098Y-96427739D01*
X136263328Y-96427739D01*
X136281683Y-96428025D01*
G37*
G36*
X137103482Y-96678621D02*
G01*
X137157532Y-96682747D01*
X137218348Y-96693922D01*
X137267119Y-96711788D01*
X137312488Y-96743874D01*
X137342145Y-96787210D01*
X137357816Y-96842238D01*
X137361444Y-96894975D01*
X137361444Y-97160711D01*
X137367788Y-97205225D01*
X137413224Y-97226901D01*
X137476238Y-97232519D01*
X137463782Y-97350000D01*
X137375610Y-97344626D01*
X137351157Y-97342843D01*
X137296838Y-97332792D01*
X137249069Y-97309562D01*
X137218562Y-97270621D01*
X137204640Y-97270621D01*
X137190096Y-97281831D01*
X137145003Y-97311432D01*
X137097604Y-97334825D01*
X137047755Y-97351798D01*
X136995310Y-97362137D01*
X136940125Y-97365631D01*
X136887113Y-97360714D01*
X136840519Y-97345976D01*
X136794556Y-97315348D01*
X136761165Y-97270629D01*
X136744252Y-97222620D01*
X136738381Y-97164863D01*
X136738418Y-97163642D01*
X136891032Y-97163642D01*
X136896554Y-97198794D01*
X136929383Y-97237161D01*
X136980669Y-97248150D01*
X137015178Y-97245689D01*
X137065204Y-97233147D01*
X137115270Y-97211240D01*
X137164739Y-97182668D01*
X137211723Y-97150942D01*
X137211723Y-97036636D01*
X137009979Y-97063503D01*
X136992503Y-97066130D01*
X136938992Y-97081533D01*
X136900750Y-97115369D01*
X136891032Y-97163642D01*
X136738418Y-97163642D01*
X136739055Y-97142394D01*
X136747143Y-97092585D01*
X136770665Y-97044134D01*
X136811750Y-97007065D01*
X136861307Y-96984131D01*
X136912079Y-96970565D01*
X136973586Y-96960921D01*
X137211723Y-96936252D01*
X137211723Y-96896196D01*
X137201325Y-96844629D01*
X137161455Y-96814475D01*
X137109042Y-96804623D01*
X137056385Y-96802651D01*
X137030771Y-96803158D01*
X136979664Y-96806136D01*
X136925803Y-96811023D01*
X136873687Y-96816981D01*
X136816782Y-96824633D01*
X136801395Y-96700314D01*
X136852928Y-96693215D01*
X136910029Y-96686689D01*
X136961559Y-96682125D01*
X137014070Y-96678984D01*
X137063224Y-96677843D01*
X137103482Y-96678621D01*
G37*
G36*
X137581751Y-96693475D02*
G01*
X137852128Y-97350000D01*
X138043859Y-97350000D01*
X138312770Y-96693475D01*
X138147418Y-96693475D01*
X137951535Y-97212979D01*
X137755408Y-96693475D01*
X137581751Y-96693475D01*
G37*
G36*
X138836892Y-96662580D02*
G01*
X138889215Y-96668056D01*
X138937475Y-96679937D01*
X138995008Y-96705417D01*
X139044135Y-96741499D01*
X139084180Y-96787734D01*
X139114467Y-96843673D01*
X139130373Y-96891724D01*
X139140126Y-96944792D01*
X139143440Y-97002686D01*
X139143037Y-97019723D01*
X139136357Y-97069853D01*
X138623935Y-97069853D01*
X138625681Y-97080664D01*
X138643553Y-97137246D01*
X138675557Y-97180418D01*
X138723691Y-97211273D01*
X138777568Y-97228363D01*
X138830512Y-97236846D01*
X138892847Y-97241067D01*
X139015945Y-97243998D01*
X139010327Y-97365631D01*
X138842288Y-97362944D01*
X138794276Y-97360823D01*
X138729105Y-97352648D01*
X138671918Y-97338570D01*
X138622448Y-97318686D01*
X138568038Y-97283312D01*
X138526253Y-97238023D01*
X138496465Y-97183050D01*
X138481620Y-97135605D01*
X138472908Y-97082941D01*
X138470062Y-97025157D01*
X138471685Y-96987230D01*
X138475986Y-96959211D01*
X138625401Y-96959211D01*
X138990788Y-96959211D01*
X138989841Y-96948325D01*
X138980216Y-96899108D01*
X138958558Y-96851496D01*
X138920709Y-96811695D01*
X138870931Y-96788811D01*
X138820062Y-96782623D01*
X138792756Y-96784269D01*
X138742533Y-96797258D01*
X138699234Y-96822793D01*
X138664145Y-96860409D01*
X138638550Y-96909643D01*
X138625401Y-96959211D01*
X138475986Y-96959211D01*
X138480041Y-96932796D01*
X138495189Y-96881790D01*
X138516777Y-96834754D01*
X138544453Y-96792230D01*
X138577863Y-96754761D01*
X138616656Y-96722889D01*
X138660478Y-96697156D01*
X138708977Y-96678104D01*
X138761801Y-96666275D01*
X138818597Y-96662212D01*
X138836892Y-96662580D01*
G37*
G36*
X139492463Y-96693475D02*
G01*
X139358129Y-96693475D01*
X139358129Y-97350000D01*
X139514933Y-97350000D01*
X139514933Y-96951395D01*
X139551749Y-96919259D01*
X139592574Y-96886311D01*
X139635125Y-96856670D01*
X139683472Y-96832455D01*
X139730600Y-96823656D01*
X139779312Y-96833146D01*
X139812139Y-96869848D01*
X139820237Y-96921842D01*
X139820237Y-97350000D01*
X139977041Y-97350000D01*
X139977041Y-96893754D01*
X139974126Y-96844646D01*
X139962170Y-96791654D01*
X139935352Y-96740847D01*
X139894581Y-96704568D01*
X139839491Y-96683436D01*
X139782379Y-96677843D01*
X139726598Y-96683585D01*
X139679117Y-96698552D01*
X139629635Y-96724017D01*
X139585298Y-96754093D01*
X139546888Y-96784432D01*
X139505163Y-96820725D01*
X139492463Y-96693475D01*
G37*
G36*
X141001395Y-96427739D02*
G01*
X141287159Y-97350000D01*
X141478890Y-97350000D01*
X141763189Y-96427739D01*
X141607606Y-96427739D01*
X141386566Y-97170969D01*
X141165282Y-96427739D01*
X141001395Y-96427739D01*
G37*
G36*
X141921702Y-97350000D02*
G01*
X142582623Y-97350000D01*
X142582623Y-97218597D01*
X142123447Y-97218597D01*
X142123447Y-97214200D01*
X142334717Y-97008548D01*
X142383535Y-96960719D01*
X142424749Y-96918270D01*
X142458969Y-96880460D01*
X142494776Y-96835988D01*
X142525793Y-96787482D01*
X142546601Y-96735149D01*
X142554130Y-96683639D01*
X142554535Y-96665631D01*
X142549164Y-96609718D01*
X142533595Y-96559866D01*
X142508644Y-96516506D01*
X142475126Y-96480068D01*
X142433857Y-96450979D01*
X142385653Y-96429670D01*
X142331329Y-96416569D01*
X142271702Y-96412107D01*
X142215800Y-96415707D01*
X142162111Y-96427313D01*
X142108557Y-96448131D01*
X142064413Y-96472230D01*
X142017958Y-96503616D01*
X141968130Y-96542908D01*
X141927903Y-96577937D01*
X141899476Y-96604082D01*
X141986182Y-96709106D01*
X142023141Y-96675396D01*
X142066632Y-96637814D01*
X142113402Y-96601614D01*
X142161518Y-96572042D01*
X142211786Y-96553451D01*
X142261933Y-96548150D01*
X142313082Y-96554917D01*
X142356766Y-96577935D01*
X142386473Y-96620690D01*
X142395045Y-96671249D01*
X142386489Y-96725443D01*
X142361645Y-96773373D01*
X142329685Y-96815972D01*
X142293544Y-96857478D01*
X142259377Y-96893994D01*
X142218520Y-96935879D01*
X142203314Y-96951151D01*
X141921702Y-97233984D01*
X141921702Y-97350000D01*
G37*
G36*
X143098464Y-97365631D02*
G01*
X143153294Y-97359078D01*
X143201076Y-97335932D01*
X143231713Y-97296719D01*
X143243877Y-97242105D01*
X143244033Y-97234228D01*
X143237345Y-97184025D01*
X143213000Y-97141305D01*
X143170315Y-97114567D01*
X143117487Y-97104570D01*
X143099685Y-97104047D01*
X143044449Y-97111065D01*
X142997157Y-97135200D01*
X142967370Y-97174769D01*
X142955729Y-97227938D01*
X142955582Y-97235450D01*
X142962419Y-97285653D01*
X142986977Y-97328373D01*
X143029395Y-97355111D01*
X143081162Y-97365108D01*
X143098464Y-97365631D01*
G37*
G36*
X143998982Y-96413946D02*
G01*
X144053441Y-96423614D01*
X144102787Y-96441599D01*
X144146875Y-96467931D01*
X144185559Y-96502638D01*
X144218692Y-96545749D01*
X144246128Y-96597293D01*
X144267722Y-96657299D01*
X144283328Y-96725796D01*
X144290332Y-96776193D01*
X144294566Y-96830385D01*
X144295987Y-96888381D01*
X144295623Y-96917728D01*
X144292731Y-96973633D01*
X144286997Y-97025815D01*
X144273177Y-97097109D01*
X144253249Y-97160024D01*
X144227385Y-97214558D01*
X144195758Y-97260709D01*
X144158541Y-97298475D01*
X144115906Y-97327852D01*
X144068026Y-97348839D01*
X144015074Y-97361433D01*
X143957222Y-97365631D01*
X143918350Y-97363811D01*
X143864098Y-97354236D01*
X143814859Y-97336406D01*
X143770798Y-97310274D01*
X143732079Y-97275796D01*
X143698867Y-97232924D01*
X143671324Y-97181614D01*
X143649617Y-97121819D01*
X143642555Y-97091102D01*
X143794801Y-97091102D01*
X143800336Y-97108921D01*
X143824658Y-97160861D01*
X143861851Y-97201516D01*
X143909021Y-97223888D01*
X143958443Y-97229832D01*
X144002284Y-97225354D01*
X144048777Y-97206423D01*
X144086073Y-97171407D01*
X144114212Y-97118939D01*
X144130157Y-97063484D01*
X144138298Y-97013571D01*
X144143176Y-96956197D01*
X144144801Y-96891067D01*
X144144173Y-96853507D01*
X144141870Y-96803628D01*
X143794801Y-97091102D01*
X143642555Y-97091102D01*
X143633908Y-97053494D01*
X143626849Y-97003181D01*
X143622578Y-96949044D01*
X143621144Y-96891067D01*
X143621177Y-96888381D01*
X143772330Y-96888381D01*
X143773029Y-96930435D01*
X143775017Y-96979972D01*
X144123796Y-96691032D01*
X144115199Y-96664087D01*
X144093793Y-96619302D01*
X144056404Y-96577407D01*
X144008733Y-96554303D01*
X143958443Y-96548150D01*
X143914262Y-96552682D01*
X143867625Y-96571800D01*
X143830406Y-96607093D01*
X143802472Y-96659874D01*
X143786719Y-96715574D01*
X143778706Y-96765651D01*
X143773919Y-96823158D01*
X143772330Y-96888381D01*
X143621177Y-96888381D01*
X143621508Y-96861822D01*
X143624400Y-96806055D01*
X143630134Y-96753928D01*
X143643954Y-96682587D01*
X143663882Y-96619499D01*
X143689746Y-96564701D01*
X143721373Y-96518231D01*
X143758590Y-96480126D01*
X143801225Y-96450424D01*
X143849105Y-96429162D01*
X143902057Y-96416377D01*
X143959909Y-96412107D01*
X143998982Y-96413946D01*
G37*
G36*
X144815980Y-97365631D02*
G01*
X144870809Y-97359078D01*
X144918591Y-97335932D01*
X144949229Y-97296719D01*
X144961393Y-97242105D01*
X144961549Y-97234228D01*
X144954861Y-97184025D01*
X144930516Y-97141305D01*
X144887830Y-97114567D01*
X144835003Y-97104570D01*
X144817201Y-97104047D01*
X144761965Y-97111065D01*
X144714672Y-97135200D01*
X144684886Y-97174769D01*
X144673245Y-97227938D01*
X144673098Y-97235450D01*
X144679935Y-97285653D01*
X144704493Y-97328373D01*
X144746911Y-97355111D01*
X144798678Y-97365108D01*
X144815980Y-97365631D01*
G37*
G36*
X145356734Y-97350000D02*
G01*
X146017655Y-97350000D01*
X146017655Y-97218597D01*
X145558478Y-97218597D01*
X145558478Y-97214200D01*
X145769748Y-97008548D01*
X145818567Y-96960719D01*
X145859780Y-96918270D01*
X145894000Y-96880460D01*
X145929807Y-96835988D01*
X145960825Y-96787482D01*
X145981633Y-96735149D01*
X145989162Y-96683639D01*
X145989567Y-96665631D01*
X145984196Y-96609718D01*
X145968627Y-96559866D01*
X145943675Y-96516506D01*
X145910157Y-96480068D01*
X145868888Y-96450979D01*
X145820684Y-96429670D01*
X145766361Y-96416569D01*
X145706734Y-96412107D01*
X145650831Y-96415707D01*
X145597143Y-96427313D01*
X145543588Y-96448131D01*
X145499444Y-96472230D01*
X145452990Y-96503616D01*
X145403161Y-96542908D01*
X145362934Y-96577937D01*
X145334508Y-96604082D01*
X145421214Y-96709106D01*
X145458172Y-96675396D01*
X145501664Y-96637814D01*
X145548434Y-96601614D01*
X145596549Y-96572042D01*
X145646818Y-96553451D01*
X145696964Y-96548150D01*
X145748114Y-96554917D01*
X145791798Y-96577935D01*
X145821505Y-96620690D01*
X145830076Y-96671249D01*
X145821520Y-96725443D01*
X145796676Y-96773373D01*
X145764716Y-96815972D01*
X145728575Y-96857478D01*
X145694409Y-96893994D01*
X145653551Y-96935879D01*
X145638346Y-96951151D01*
X145356734Y-97233984D01*
X145356734Y-97350000D01*
G37*
G36*
X135930181Y-98107739D02*
G01*
X135930181Y-99030000D01*
X136567166Y-99030000D01*
X136567166Y-98899818D01*
X136088206Y-98899818D01*
X136088206Y-98107739D01*
X135930181Y-98107739D01*
G37*
G36*
X137395150Y-99030000D02*
G01*
X137395150Y-98373475D01*
X137238346Y-98373475D01*
X137238346Y-98771346D01*
X137192927Y-98810521D01*
X137153161Y-98841827D01*
X137111645Y-98869715D01*
X137064277Y-98891903D01*
X137022679Y-98898841D01*
X136973967Y-98889351D01*
X136941140Y-98852649D01*
X136933042Y-98800655D01*
X136933042Y-98373475D01*
X136776238Y-98373475D01*
X136776238Y-98830209D01*
X136780784Y-98890068D01*
X136794576Y-98940888D01*
X136823652Y-98989303D01*
X136866767Y-99023265D01*
X136913707Y-99039964D01*
X136970900Y-99045631D01*
X137026567Y-99039920D01*
X137073959Y-99025010D01*
X137123265Y-98999613D01*
X137167328Y-98969588D01*
X137215389Y-98930778D01*
X137246650Y-98902993D01*
X137256420Y-99030000D01*
X137395150Y-99030000D01*
G37*
G36*
X137982309Y-98489490D02*
G01*
X138033427Y-98493015D01*
X138084037Y-98505892D01*
X138137178Y-98528851D01*
X138182515Y-98553918D01*
X138213363Y-98573021D01*
X138286147Y-98461646D01*
X138237888Y-98431871D01*
X138193625Y-98408230D01*
X138142956Y-98386287D01*
X138096316Y-98371585D01*
X138043935Y-98361663D01*
X137993460Y-98358040D01*
X137976692Y-98357843D01*
X137918664Y-98361760D01*
X137863910Y-98373132D01*
X137812963Y-98391388D01*
X137766353Y-98415958D01*
X137724611Y-98446272D01*
X137688270Y-98481762D01*
X137657860Y-98521855D01*
X137633912Y-98565984D01*
X137616958Y-98613577D01*
X137607530Y-98664065D01*
X137605687Y-98699050D01*
X137609421Y-98756644D01*
X137620360Y-98809850D01*
X137638112Y-98858389D01*
X137662282Y-98901983D01*
X137703811Y-98951933D01*
X137755119Y-98991934D01*
X137799454Y-99015008D01*
X137848371Y-99031835D01*
X137901475Y-99042136D01*
X137958374Y-99045631D01*
X138016242Y-99043044D01*
X138073358Y-99034310D01*
X138122176Y-99021283D01*
X138173644Y-99002131D01*
X138229205Y-98976008D01*
X138277569Y-98949525D01*
X138290300Y-98942072D01*
X138221667Y-98836071D01*
X138170090Y-98862227D01*
X138124909Y-98882121D01*
X138077411Y-98898780D01*
X138028588Y-98909907D01*
X137977368Y-98914183D01*
X137971074Y-98914228D01*
X137919529Y-98908245D01*
X137873416Y-98890837D01*
X137827154Y-98856007D01*
X137797752Y-98816316D01*
X137778111Y-98767794D01*
X137769583Y-98711250D01*
X137769330Y-98699050D01*
X137775515Y-98644629D01*
X137793342Y-98596441D01*
X137821715Y-98555710D01*
X137859537Y-98523661D01*
X137905714Y-98501518D01*
X137959148Y-98490505D01*
X137982309Y-98489490D01*
G37*
G36*
X138820998Y-98358621D02*
G01*
X138875047Y-98362747D01*
X138935864Y-98373922D01*
X138984634Y-98391788D01*
X139030004Y-98423874D01*
X139059661Y-98467210D01*
X139075332Y-98522238D01*
X139078960Y-98574975D01*
X139078960Y-98840711D01*
X139085303Y-98885225D01*
X139130739Y-98906901D01*
X139193754Y-98912519D01*
X139181297Y-99030000D01*
X139093126Y-99024626D01*
X139068673Y-99022843D01*
X139014353Y-99012792D01*
X138966584Y-98989562D01*
X138936078Y-98950621D01*
X138922156Y-98950621D01*
X138907612Y-98961831D01*
X138862519Y-98991432D01*
X138815120Y-99014825D01*
X138765270Y-99031798D01*
X138712826Y-99042137D01*
X138657641Y-99045631D01*
X138604629Y-99040714D01*
X138558034Y-99025976D01*
X138512072Y-98995348D01*
X138478681Y-98950629D01*
X138461767Y-98902620D01*
X138455896Y-98844863D01*
X138455933Y-98843642D01*
X138608548Y-98843642D01*
X138614070Y-98878794D01*
X138646898Y-98917161D01*
X138698185Y-98928150D01*
X138732694Y-98925689D01*
X138782719Y-98913147D01*
X138832785Y-98891240D01*
X138882255Y-98862668D01*
X138929239Y-98830942D01*
X138929239Y-98716636D01*
X138727494Y-98743503D01*
X138710018Y-98746130D01*
X138656507Y-98761533D01*
X138618266Y-98795369D01*
X138608548Y-98843642D01*
X138455933Y-98843642D01*
X138456571Y-98822394D01*
X138464658Y-98772585D01*
X138488180Y-98724134D01*
X138529266Y-98687065D01*
X138578823Y-98664131D01*
X138629594Y-98650565D01*
X138691102Y-98640921D01*
X138929239Y-98616252D01*
X138929239Y-98576196D01*
X138918841Y-98524629D01*
X138878971Y-98494475D01*
X138826557Y-98484623D01*
X138773900Y-98482651D01*
X138748287Y-98483158D01*
X138697180Y-98486136D01*
X138643319Y-98491023D01*
X138591203Y-98496981D01*
X138534298Y-98504633D01*
X138518911Y-98380314D01*
X138570444Y-98373215D01*
X138627544Y-98366689D01*
X138679074Y-98362125D01*
X138731585Y-98358984D01*
X138780739Y-98357843D01*
X138820998Y-98358621D01*
G37*
G36*
X139977041Y-98838757D02*
G01*
X139972375Y-98788003D01*
X139951452Y-98738570D01*
X139915632Y-98703533D01*
X139870085Y-98678805D01*
X139821692Y-98661566D01*
X139761374Y-98646294D01*
X139631193Y-98618695D01*
X139579757Y-98603681D01*
X139537273Y-98576863D01*
X139528855Y-98545910D01*
X139557111Y-98503061D01*
X139610463Y-98488345D01*
X139666027Y-98484161D01*
X139688590Y-98483872D01*
X139742165Y-98485870D01*
X139791966Y-98490253D01*
X139848007Y-98497196D01*
X139900406Y-98505242D01*
X139927948Y-98510006D01*
X139943335Y-98381779D01*
X139892198Y-98373856D01*
X139840883Y-98367444D01*
X139791276Y-98362609D01*
X139738070Y-98359052D01*
X139692742Y-98357843D01*
X139631378Y-98359949D01*
X139577100Y-98366115D01*
X139515356Y-98380255D01*
X139465259Y-98400660D01*
X139418187Y-98434148D01*
X139387400Y-98475515D01*
X139371837Y-98523697D01*
X139369364Y-98555436D01*
X139373742Y-98604257D01*
X139393715Y-98652258D01*
X139435995Y-98691680D01*
X139483513Y-98715206D01*
X139533770Y-98731561D01*
X139579413Y-98742526D01*
X139712281Y-98769881D01*
X139759400Y-98782880D01*
X139804520Y-98808763D01*
X139817306Y-98846817D01*
X139794371Y-98891988D01*
X139744512Y-98912455D01*
X139691713Y-98919630D01*
X139646580Y-98921067D01*
X139595636Y-98919254D01*
X139539738Y-98914612D01*
X139485112Y-98908277D01*
X139435881Y-98901285D01*
X139384108Y-98892695D01*
X139373517Y-98890781D01*
X139356664Y-99019497D01*
X139412972Y-99028530D01*
X139466380Y-99035601D01*
X139518364Y-99040760D01*
X139570403Y-99044055D01*
X139623975Y-99045533D01*
X139642428Y-99045631D01*
X139703393Y-99043254D01*
X139758018Y-99036356D01*
X139806379Y-99025282D01*
X139861245Y-99004620D01*
X139905285Y-98977972D01*
X139945380Y-98937497D01*
X139969183Y-98890557D01*
X139977041Y-98838757D01*
G37*
G36*
X141691625Y-98107739D02*
G01*
X141533356Y-98107739D01*
X141385101Y-98527592D01*
X141235136Y-98107739D01*
X141072714Y-98107739D01*
X141033635Y-99030000D01*
X141177739Y-99030000D01*
X141200209Y-98314856D01*
X141366782Y-98786489D01*
X141396336Y-98786489D01*
X141561444Y-98307773D01*
X141583914Y-99030000D01*
X141730949Y-99030000D01*
X141691625Y-98107739D01*
G37*
G36*
X142271923Y-98342580D02*
G01*
X142324247Y-98348056D01*
X142372507Y-98359937D01*
X142430040Y-98385417D01*
X142479166Y-98421499D01*
X142519211Y-98467734D01*
X142549498Y-98523673D01*
X142565404Y-98571724D01*
X142575157Y-98624792D01*
X142578471Y-98682686D01*
X142578068Y-98699723D01*
X142571388Y-98749853D01*
X142058967Y-98749853D01*
X142060712Y-98760664D01*
X142078585Y-98817246D01*
X142110588Y-98860418D01*
X142158723Y-98891273D01*
X142212599Y-98908363D01*
X142265543Y-98916846D01*
X142327878Y-98921067D01*
X142450976Y-98923998D01*
X142445359Y-99045631D01*
X142277320Y-99042944D01*
X142229307Y-99040823D01*
X142164137Y-99032648D01*
X142106949Y-99018570D01*
X142057480Y-98998686D01*
X142003070Y-98963312D01*
X141961284Y-98918023D01*
X141931496Y-98863050D01*
X141916652Y-98815605D01*
X141907939Y-98762941D01*
X141905094Y-98705157D01*
X141906716Y-98667230D01*
X141911017Y-98639211D01*
X142060432Y-98639211D01*
X142425819Y-98639211D01*
X142424873Y-98628325D01*
X142415248Y-98579108D01*
X142393589Y-98531496D01*
X142355740Y-98491695D01*
X142305963Y-98468811D01*
X142255094Y-98462623D01*
X142227787Y-98464269D01*
X142177564Y-98477258D01*
X142134266Y-98502793D01*
X142099177Y-98540409D01*
X142073582Y-98589643D01*
X142060432Y-98639211D01*
X141911017Y-98639211D01*
X141915072Y-98612796D01*
X141930220Y-98561790D01*
X141951808Y-98514754D01*
X141979484Y-98472230D01*
X142012894Y-98434761D01*
X142051687Y-98402889D01*
X142095509Y-98377156D01*
X142144009Y-98358104D01*
X142196833Y-98346275D01*
X142253628Y-98342212D01*
X142271923Y-98342580D01*
G37*
G36*
X142744068Y-98897131D02*
G01*
X142744068Y-99030000D01*
X143253803Y-99030000D01*
X143253803Y-98897131D01*
X143059141Y-98897131D01*
X143059141Y-98706622D01*
X143094582Y-98665954D01*
X143134473Y-98622415D01*
X143175800Y-98582815D01*
X143218924Y-98552737D01*
X143270329Y-98534574D01*
X143324386Y-98527078D01*
X143334891Y-98526127D01*
X143460921Y-98516113D01*
X143449685Y-98357843D01*
X143319504Y-98367857D01*
X143267002Y-98375228D01*
X143216753Y-98395867D01*
X143170220Y-98430828D01*
X143135131Y-98465917D01*
X143095280Y-98512357D01*
X143061487Y-98555630D01*
X143049371Y-98571800D01*
X143041067Y-98373475D01*
X142772156Y-98373475D01*
X142772156Y-98506587D01*
X142902337Y-98506587D01*
X142902337Y-98897131D01*
X142744068Y-98897131D01*
G37*
G36*
X143602826Y-98897131D02*
G01*
X143602826Y-99030000D01*
X144112561Y-99030000D01*
X144112561Y-98897131D01*
X143917899Y-98897131D01*
X143917899Y-98706622D01*
X143953340Y-98665954D01*
X143993230Y-98622415D01*
X144034557Y-98582815D01*
X144077682Y-98552737D01*
X144129087Y-98534574D01*
X144183144Y-98527078D01*
X144193649Y-98526127D01*
X144319678Y-98516113D01*
X144308443Y-98357843D01*
X144178262Y-98367857D01*
X144125760Y-98375228D01*
X144075511Y-98395867D01*
X144028978Y-98430828D01*
X143993889Y-98465917D01*
X143954037Y-98512357D01*
X143920245Y-98555630D01*
X143908129Y-98571800D01*
X143899825Y-98373475D01*
X143630914Y-98373475D01*
X143630914Y-98506587D01*
X143761095Y-98506587D01*
X143761095Y-98897131D01*
X143602826Y-98897131D01*
G37*
G36*
X144826971Y-98205680D02*
G01*
X144878415Y-98198963D01*
X144921732Y-98175893D01*
X144948269Y-98132063D01*
X144951779Y-98103342D01*
X144941620Y-98053816D01*
X144907281Y-98016489D01*
X144856667Y-98000076D01*
X144828436Y-97998318D01*
X144777363Y-98006259D01*
X144734695Y-98031717D01*
X144708751Y-98075667D01*
X144705338Y-98102121D01*
X144716167Y-98152004D01*
X144751262Y-98188469D01*
X144800497Y-98204045D01*
X144826971Y-98205680D01*
G37*
G36*
X144533147Y-98897131D02*
G01*
X144533147Y-99030000D01*
X145144975Y-99030000D01*
X145144975Y-98897131D01*
X144916608Y-98897131D01*
X144916608Y-98373475D01*
X144560990Y-98373475D01*
X144560990Y-98506587D01*
X144759804Y-98506587D01*
X144759804Y-98897131D01*
X144533147Y-98897131D01*
G37*
G36*
X145538939Y-98774521D02*
G01*
X145540304Y-98825938D01*
X145546938Y-98883833D01*
X145564518Y-98940609D01*
X145594433Y-98982059D01*
X145638840Y-99010323D01*
X145686250Y-99024881D01*
X145745421Y-99033466D01*
X145779762Y-99035861D01*
X145995184Y-99045631D01*
X146006420Y-98911297D01*
X145816154Y-98900062D01*
X145763236Y-98892182D01*
X145720228Y-98866051D01*
X145699825Y-98815462D01*
X145695818Y-98764701D01*
X145695743Y-98754738D01*
X145695743Y-98506587D01*
X145970027Y-98506587D01*
X145970027Y-98373475D01*
X145692812Y-98373475D01*
X145692812Y-98138269D01*
X145540160Y-98138269D01*
X145540160Y-98373475D01*
X145325959Y-98373475D01*
X145325959Y-98506587D01*
X145538939Y-98506587D01*
X145538939Y-98774521D01*
G37*
G36*
X146397697Y-98774521D02*
G01*
X146399062Y-98825938D01*
X146405696Y-98883833D01*
X146423276Y-98940609D01*
X146453191Y-98982059D01*
X146497598Y-99010323D01*
X146545008Y-99024881D01*
X146604179Y-99033466D01*
X146638520Y-99035861D01*
X146853942Y-99045631D01*
X146865177Y-98911297D01*
X146674912Y-98900062D01*
X146621994Y-98892182D01*
X146578986Y-98866051D01*
X146558582Y-98815462D01*
X146554576Y-98764701D01*
X146554501Y-98754738D01*
X146554501Y-98506587D01*
X146828785Y-98506587D01*
X146828785Y-98373475D01*
X146551570Y-98373475D01*
X146551570Y-98138269D01*
X146398918Y-98138269D01*
X146398918Y-98373475D01*
X146184717Y-98373475D01*
X146184717Y-98506587D01*
X146397697Y-98506587D01*
X146397697Y-98774521D01*
G37*
G36*
X154592323Y-108359211D02*
G01*
X154856838Y-108359211D01*
X154856838Y-108639357D01*
X155001186Y-108639357D01*
X155001186Y-108359211D01*
X155267166Y-108359211D01*
X155267166Y-108231960D01*
X155001186Y-108231960D01*
X155001186Y-107953279D01*
X154856838Y-107953279D01*
X154856838Y-108231960D01*
X154592323Y-108231960D01*
X154592323Y-108359211D01*
G37*
G36*
X154667794Y-109898527D02*
G01*
X154667794Y-110052644D01*
X155191451Y-110052644D01*
X155191451Y-109898527D01*
X154667794Y-109898527D01*
G37*
D11*
X134607768Y-119054361D02*
X134703006Y-119149600D01*
X134703006Y-119149600D02*
X134607768Y-119244838D01*
X134607768Y-119244838D02*
X134512530Y-119149600D01*
X134512530Y-119149600D02*
X134607768Y-119054361D01*
X134607768Y-119054361D02*
X134607768Y-119244838D01*
D10*
G36*
X134746161Y-101779605D02*
G01*
X134878419Y-101779605D01*
X134878419Y-101919678D01*
X134950593Y-101919678D01*
X134950593Y-101779605D01*
X135083583Y-101779605D01*
X135083583Y-101715980D01*
X134950593Y-101715980D01*
X134950593Y-101576639D01*
X134878419Y-101576639D01*
X134878419Y-101715980D01*
X134746161Y-101715980D01*
X134746161Y-101779605D01*
G37*
G36*
X134783897Y-102549263D02*
G01*
X134783897Y-102626322D01*
X135045725Y-102626322D01*
X135045725Y-102549263D01*
X134783897Y-102549263D01*
G37*
D11*
X136407768Y-113554361D02*
X136503006Y-113649600D01*
X136503006Y-113649600D02*
X136407768Y-113744838D01*
X136407768Y-113744838D02*
X136312530Y-113649600D01*
X136312530Y-113649600D02*
X136407768Y-113554361D01*
X136407768Y-113554361D02*
X136407768Y-113744838D01*
D12*
X157850000Y-120287279D02*
X157850000Y-120525374D01*
X157611905Y-120430136D02*
X157850000Y-120525374D01*
X157850000Y-120525374D02*
X158088095Y-120430136D01*
X157707143Y-120715850D02*
X157850000Y-120525374D01*
X157850000Y-120525374D02*
X157992857Y-120715850D01*
X157849999Y-121377640D02*
X157849999Y-121139545D01*
X158088094Y-121234783D02*
X157849999Y-121139545D01*
X157849999Y-121139545D02*
X157611904Y-121234783D01*
X157992856Y-120949069D02*
X157849999Y-121139545D01*
X157849999Y-121139545D02*
X157707142Y-120949069D01*
D10*
X155098000Y-130619500D02*
X158252000Y-130619500D01*
X157490000Y-129374500D02*
X157998000Y-129628500D01*
X157490000Y-129882500D02*
X157490000Y-129374500D01*
X157998000Y-129628500D02*
X157490000Y-129882500D01*
X158252000Y-123405500D02*
X155098000Y-123405500D01*
X158316000Y-125488500D02*
X159205000Y-125488500D01*
X158316000Y-126758500D02*
X158824000Y-127012500D01*
X158316000Y-127266500D02*
X158316000Y-126758500D01*
X158316000Y-128536500D02*
X159205000Y-128536500D01*
X158824000Y-127012500D02*
X158316000Y-127266500D01*
D13*
X150244135Y-121076400D02*
X151355865Y-121076400D01*
X151355865Y-117723600D02*
X150244135Y-117723600D01*
D14*
X151940000Y-116372164D02*
X151940000Y-116587836D01*
X152660000Y-116372164D02*
X152660000Y-116587836D01*
X130565000Y-128324500D02*
X130565000Y-130609500D01*
X130565000Y-130609500D02*
X132035000Y-130609500D01*
X132035000Y-130609500D02*
X132035000Y-128324500D01*
X150120000Y-105413641D02*
X150120000Y-105106359D01*
X150880000Y-105413641D02*
X150880000Y-105106359D01*
X148965000Y-113307836D02*
X148965000Y-113092164D01*
X149685000Y-113307836D02*
X149685000Y-113092164D01*
X134000000Y-112250000D02*
X134000000Y-114210000D01*
X134000000Y-114210000D02*
X135200000Y-114210000D01*
X135200000Y-112250000D02*
X135200000Y-114210000D01*
D11*
X125150000Y-120542500D02*
X126430000Y-120542500D01*
X126430000Y-111602500D02*
X125150000Y-111602500D01*
X130400000Y-111602500D02*
X129150000Y-111602500D01*
X130400000Y-120542500D02*
X129150000Y-120542500D01*
X133850000Y-111246500D02*
G75*
G02*
X133650000Y-111246500I-100000J0D01*
G01*
X133650000Y-111246500D02*
G75*
G02*
X133850000Y-111246500I100000J0D01*
G01*
D14*
X137940000Y-107090000D02*
X137940000Y-107615000D01*
X137940000Y-115310000D02*
X137940000Y-114785000D01*
X138465000Y-107090000D02*
X137940000Y-107090000D01*
X138465000Y-115310000D02*
X137940000Y-115310000D01*
X145635000Y-107090000D02*
X146160000Y-107090000D01*
X145635000Y-115310000D02*
X145860000Y-115310000D01*
X146160000Y-107090000D02*
X146160000Y-107615000D01*
X146160000Y-114785000D02*
X146160000Y-115070000D01*
X146400000Y-115640000D02*
X145920000Y-115640000D01*
X146160000Y-115310000D01*
X146400000Y-115640000D01*
G36*
X146400000Y-115640000D02*
G01*
X145920000Y-115640000D01*
X146160000Y-115310000D01*
X146400000Y-115640000D01*
G37*
X152790000Y-103507836D02*
X152790000Y-103292164D01*
X153510000Y-103507836D02*
X153510000Y-103292164D01*
X135800000Y-114300000D02*
X135800000Y-116260000D01*
X135800000Y-116260000D02*
X137000000Y-116260000D01*
X137000000Y-114300000D02*
X137000000Y-116260000D01*
X149703000Y-128324500D02*
X149703000Y-130609500D01*
X149703000Y-130609500D02*
X151173000Y-130609500D01*
X151173000Y-130609500D02*
X151173000Y-128324500D01*
X155988748Y-121265000D02*
X156511252Y-121265000D01*
X155988748Y-122735000D02*
X156511252Y-122735000D01*
X150862164Y-113090000D02*
X151077836Y-113090000D01*
X150862164Y-113810000D02*
X151077836Y-113810000D01*
X140600000Y-121160000D02*
X140600000Y-117150000D01*
X140600000Y-121160000D02*
X142600000Y-121160000D01*
X142600000Y-121160000D02*
X142600000Y-117150000D01*
X144120000Y-119446359D02*
X144120000Y-119753641D01*
X144880000Y-119446359D02*
X144880000Y-119753641D01*
X133420000Y-120046359D02*
X133420000Y-120353641D01*
X134180000Y-120046359D02*
X134180000Y-120353641D01*
X140360000Y-116730000D02*
X136350000Y-116730000D01*
X140360000Y-118730000D02*
X136350000Y-118730000D01*
X140360000Y-118730000D02*
X140360000Y-116730000D01*
X135520000Y-119892164D02*
X135520000Y-120107836D01*
X136240000Y-119892164D02*
X136240000Y-120107836D01*
X137907836Y-100240000D02*
X137692164Y-100240000D01*
X137907836Y-100960000D02*
X137692164Y-100960000D01*
X152080000Y-122316359D02*
X152080000Y-122623641D01*
X152840000Y-122316359D02*
X152840000Y-122623641D01*
X137540000Y-119892164D02*
X137540000Y-120107836D01*
X138260000Y-119892164D02*
X138260000Y-120107836D01*
X140590000Y-105687836D02*
X140590000Y-105472164D01*
X141310000Y-105687836D02*
X141310000Y-105472164D01*
X134346359Y-114370000D02*
X134653641Y-114370000D01*
X134346359Y-115130000D02*
X134653641Y-115130000D01*
X155357836Y-101640000D02*
X155142164Y-101640000D01*
X155357836Y-102360000D02*
X155142164Y-102360000D01*
X151870000Y-127346359D02*
X151870000Y-127653641D01*
X152630000Y-127346359D02*
X152630000Y-127653641D01*
X136520000Y-119892164D02*
X136520000Y-120107836D01*
X137240000Y-119892164D02*
X137240000Y-120107836D01*
X132620000Y-126336359D02*
X132620000Y-126643641D01*
X133380000Y-126336359D02*
X133380000Y-126643641D01*
X150903641Y-126620000D02*
X150596359Y-126620000D01*
X150903641Y-127380000D02*
X150596359Y-127380000D01*
X130220000Y-100996359D02*
X130220000Y-101303641D01*
X130980000Y-100996359D02*
X130980000Y-101303641D01*
X151370000Y-105403641D02*
X151370000Y-105096359D01*
X152130000Y-105403641D02*
X152130000Y-105096359D01*
D15*
X139287000Y-105625000D02*
G75*
G02*
X138962000Y-105625000I-162500J0D01*
G01*
X138962000Y-105625000D02*
G75*
G02*
X139287000Y-105625000I162500J0D01*
G01*
D14*
X147992164Y-106940000D02*
X148207836Y-106940000D01*
X147992164Y-107660000D02*
X148207836Y-107660000D01*
X130870000Y-124403641D02*
X130870000Y-124096359D01*
X131630000Y-124403641D02*
X131630000Y-124096359D01*
X148640000Y-110107836D02*
X148640000Y-109892164D01*
X149360000Y-110107836D02*
X149360000Y-109892164D01*
X153596359Y-125870000D02*
X153903641Y-125870000D01*
X153596359Y-126630000D02*
X153903641Y-126630000D01*
X155750000Y-102940000D02*
X154950000Y-102940000D01*
X155750000Y-102940000D02*
X156550000Y-102940000D01*
X155750000Y-106060000D02*
X154950000Y-106060000D01*
X155750000Y-106060000D02*
X156550000Y-106060000D01*
X154450000Y-102990000D02*
X154210000Y-102660000D01*
X154690000Y-102660000D01*
X154450000Y-102990000D01*
G36*
X154450000Y-102990000D02*
G01*
X154210000Y-102660000D01*
X154690000Y-102660000D01*
X154450000Y-102990000D01*
G37*
X142570000Y-105096359D02*
X142570000Y-105403641D01*
X143330000Y-105096359D02*
X143330000Y-105403641D01*
D16*
G36*
X153767406Y-95462320D02*
G01*
X153849943Y-95475225D01*
X153920612Y-95499652D01*
X153986251Y-95537509D01*
X154010355Y-95555090D01*
X154046985Y-95579995D01*
X154086957Y-95599266D01*
X154137870Y-95615878D01*
X154207325Y-95632809D01*
X154210750Y-95633569D01*
X154283077Y-95652184D01*
X154353222Y-95674772D01*
X154410884Y-95697895D01*
X154426094Y-95705416D01*
X154466360Y-95729774D01*
X154512449Y-95762050D01*
X154559189Y-95798018D01*
X154601410Y-95833453D01*
X154633938Y-95864131D01*
X154651603Y-95885825D01*
X154653348Y-95891078D01*
X154640919Y-95895466D01*
X154607260Y-95898903D01*
X154557817Y-95900994D01*
X154509940Y-95901431D01*
X154362934Y-95909704D01*
X154234612Y-95935619D01*
X154125446Y-95978941D01*
X154035907Y-96039433D01*
X153966467Y-96116859D01*
X153923997Y-96194852D01*
X153917526Y-96210798D01*
X153912740Y-96226076D01*
X153909669Y-96244180D01*
X153908342Y-96268604D01*
X153908788Y-96302841D01*
X153911035Y-96350383D01*
X153915113Y-96414726D01*
X153921052Y-96499362D01*
X153927235Y-96585052D01*
X153926749Y-96729777D01*
X153906444Y-96884872D01*
X153867933Y-97044818D01*
X153812826Y-97204091D01*
X153742736Y-97357169D01*
X153661625Y-97495013D01*
X153605213Y-97572233D01*
X153534016Y-97658333D01*
X153454521Y-97746093D01*
X153373216Y-97828291D01*
X153310641Y-97885703D01*
X153252585Y-97937466D01*
X153211429Y-97978954D01*
X153182958Y-98016198D01*
X153162955Y-98055230D01*
X153147204Y-98102084D01*
X153139568Y-98130474D01*
X153130675Y-98165569D01*
X153126064Y-98193157D01*
X153127853Y-98217288D01*
X153138159Y-98242009D01*
X153159101Y-98271370D01*
X153192797Y-98309420D01*
X153241364Y-98360207D01*
X153281191Y-98401226D01*
X153359350Y-98477298D01*
X153426125Y-98532905D01*
X153477749Y-98565723D01*
X153546278Y-98606080D01*
X153590306Y-98648182D01*
X153611933Y-98695850D01*
X153613259Y-98752904D01*
X153604394Y-98796213D01*
X153593545Y-98821755D01*
X153581701Y-98820752D01*
X153568726Y-98793159D01*
X153565535Y-98782935D01*
X153541665Y-98744137D01*
X153497077Y-98708729D01*
X153437720Y-98680891D01*
X153407563Y-98671895D01*
X153369078Y-98662349D01*
X153377211Y-98720943D01*
X153380058Y-98769827D01*
X153376847Y-98816931D01*
X153375240Y-98825680D01*
X153365137Y-98871822D01*
X153328531Y-98809359D01*
X153281508Y-98748222D01*
X153221357Y-98705693D01*
X153144477Y-98679834D01*
X153069195Y-98669896D01*
X152955573Y-98670332D01*
X152857682Y-98687786D01*
X152778053Y-98721735D01*
X152759996Y-98733673D01*
X152705659Y-98773034D01*
X152705659Y-98738281D01*
X152713693Y-98692276D01*
X152734236Y-98646723D01*
X152761949Y-98611413D01*
X152781946Y-98598335D01*
X152815941Y-98590526D01*
X152860414Y-98586331D01*
X152872191Y-98586102D01*
X152930619Y-98582289D01*
X152964006Y-98570914D01*
X152972466Y-98556144D01*
X152964020Y-98538815D01*
X152941296Y-98506735D01*
X152908218Y-98464663D01*
X152868710Y-98417358D01*
X152826694Y-98369579D01*
X152786094Y-98326083D01*
X152766825Y-98306719D01*
X152706080Y-98247452D01*
X152655844Y-98273020D01*
X152622295Y-98290030D01*
X152599249Y-98301596D01*
X152595602Y-98303384D01*
X152588010Y-98295985D01*
X152585596Y-98276685D01*
X152573183Y-98230929D01*
X152539303Y-98191754D01*
X152490157Y-98163385D01*
X152841007Y-98163385D01*
X152842945Y-98205386D01*
X152864646Y-98252776D01*
X152881502Y-98275475D01*
X152930063Y-98330940D01*
X152983394Y-98388053D01*
X153037280Y-98442692D01*
X153087503Y-98490734D01*
X153129850Y-98528056D01*
X153160104Y-98550534D01*
X153165901Y-98553637D01*
X153205640Y-98568892D01*
X153230830Y-98569844D01*
X153249394Y-98556572D01*
X153251175Y-98554484D01*
X153255770Y-98539748D01*
X153247761Y-98516954D01*
X153225034Y-98481387D01*
X153207810Y-98457767D01*
X153146541Y-98380624D01*
X153094586Y-98326419D01*
X153050303Y-98293762D01*
X153012053Y-98281264D01*
X152999785Y-98281395D01*
X152975004Y-98282269D01*
X152959229Y-98274475D01*
X152946653Y-98252212D01*
X152933243Y-98214929D01*
X152913130Y-98161678D01*
X152895798Y-98131892D01*
X152878841Y-98122862D01*
X152859855Y-98131883D01*
X152859639Y-98132062D01*
X152841007Y-98163385D01*
X152490157Y-98163385D01*
X152489001Y-98162718D01*
X152427321Y-98147377D01*
X152400151Y-98145871D01*
X152360886Y-98143068D01*
X152347703Y-98134697D01*
X152360617Y-98120822D01*
X152388826Y-98106214D01*
X152414621Y-98092503D01*
X152416494Y-98084487D01*
X152408837Y-98081968D01*
X152388612Y-98068667D01*
X152389952Y-98043863D01*
X152412442Y-98011173D01*
X152417602Y-98005825D01*
X152449713Y-97973714D01*
X152314215Y-97981056D01*
X152178716Y-97988398D01*
X152126600Y-98050459D01*
X152077256Y-98106339D01*
X152015058Y-98172280D01*
X151943004Y-98245493D01*
X151864091Y-98323190D01*
X151781316Y-98402582D01*
X151697674Y-98480880D01*
X151616163Y-98555295D01*
X151539780Y-98623038D01*
X151471521Y-98681321D01*
X151414383Y-98727353D01*
X151371363Y-98758348D01*
X151356569Y-98767085D01*
X151317443Y-98787318D01*
X151338257Y-98737503D01*
X151369780Y-98672212D01*
X151415981Y-98590415D01*
X151474216Y-98495901D01*
X151541841Y-98392456D01*
X151616215Y-98283871D01*
X151694693Y-98173932D01*
X151774632Y-98066429D01*
X151853389Y-97965149D01*
X151928321Y-97873881D01*
X151988914Y-97804947D01*
X152023723Y-97765710D01*
X152049465Y-97734275D01*
X152062370Y-97715364D01*
X152062971Y-97712181D01*
X152051064Y-97718483D01*
X152020830Y-97740479D01*
X151974249Y-97776559D01*
X151913298Y-97825112D01*
X151839960Y-97884528D01*
X151756212Y-97953195D01*
X151664036Y-98029504D01*
X151565410Y-98111843D01*
X151462314Y-98198603D01*
X151394576Y-98255981D01*
X151268457Y-98362738D01*
X151161380Y-98452590D01*
X151072395Y-98526300D01*
X151000552Y-98584629D01*
X150944899Y-98628341D01*
X150904486Y-98658196D01*
X150878363Y-98674959D01*
X150866498Y-98679485D01*
X150855570Y-98667955D01*
X150852480Y-98637719D01*
X150856401Y-98595304D01*
X150866509Y-98547240D01*
X150881978Y-98500054D01*
X150892009Y-98477747D01*
X150934450Y-98407304D01*
X150994926Y-98325811D01*
X151069671Y-98237599D01*
X151154918Y-98146999D01*
X151246901Y-98058340D01*
X151291262Y-98018684D01*
X151338005Y-97977118D01*
X151376283Y-97941471D01*
X151402147Y-97915536D01*
X151411647Y-97903105D01*
X151399750Y-97896606D01*
X151369788Y-97892809D01*
X151354165Y-97892405D01*
X151312376Y-97888410D01*
X151278879Y-97878454D01*
X151272556Y-97874763D01*
X151257378Y-97860681D01*
X151256673Y-97844454D01*
X151269656Y-97816070D01*
X151291115Y-97783858D01*
X151324474Y-97748653D01*
X151371457Y-97709300D01*
X151433786Y-97664641D01*
X151513185Y-97613522D01*
X151611377Y-97554785D01*
X151730085Y-97487273D01*
X151871034Y-97409832D01*
X151891899Y-97398532D01*
X152123585Y-97270899D01*
X152351683Y-97140265D01*
X152585774Y-97001087D01*
X152713599Y-96923161D01*
X152811338Y-96863459D01*
X152888014Y-96817719D01*
X152945071Y-96785573D01*
X152983949Y-96766650D01*
X153006092Y-96760582D01*
X153012941Y-96766999D01*
X153005937Y-96785531D01*
X152986524Y-96815808D01*
X152956143Y-96857461D01*
X152952858Y-96861838D01*
X152916573Y-96904626D01*
X152866836Y-96956024D01*
X152811320Y-97008346D01*
X152776098Y-97038935D01*
X152692205Y-97106374D01*
X152606586Y-97169518D01*
X152516188Y-97230087D01*
X152417959Y-97289799D01*
X152308844Y-97350376D01*
X152185789Y-97413535D01*
X152045742Y-97480995D01*
X151885649Y-97554478D01*
X151765166Y-97608150D01*
X151707505Y-97633754D01*
X151672197Y-97650287D01*
X151657149Y-97659367D01*
X151660267Y-97662611D01*
X151679459Y-97661634D01*
X151698531Y-97659616D01*
X151746611Y-97652124D01*
X151814663Y-97638592D01*
X151897034Y-97620415D01*
X151988072Y-97598987D01*
X152082127Y-97575704D01*
X152173544Y-97551961D01*
X152256672Y-97529152D01*
X152325860Y-97508671D01*
X152370306Y-97493837D01*
X152438617Y-97466370D01*
X152513512Y-97432528D01*
X152579563Y-97399308D01*
X152583668Y-97397071D01*
X152685482Y-97341192D01*
X152642209Y-97390477D01*
X152617160Y-97420224D01*
X152601537Y-97441119D01*
X152598937Y-97446310D01*
X152608846Y-97447603D01*
X152635729Y-97435478D01*
X152675321Y-97412668D01*
X152723354Y-97381901D01*
X152775564Y-97345908D01*
X152827685Y-97307419D01*
X152874541Y-97269929D01*
X152910196Y-97240748D01*
X152937429Y-97219949D01*
X152950317Y-97212048D01*
X152951799Y-97223193D01*
X152946222Y-97250436D01*
X152945082Y-97254520D01*
X152938581Y-97285304D01*
X152939143Y-97303096D01*
X152939588Y-97303680D01*
X152952729Y-97299213D01*
X152979108Y-97277241D01*
X153015529Y-97241279D01*
X153058799Y-97194841D01*
X153105723Y-97141442D01*
X153153106Y-97084598D01*
X153197754Y-97027824D01*
X153229269Y-96984939D01*
X153252617Y-96951911D01*
X153244780Y-97005273D01*
X153238131Y-97046779D01*
X153231775Y-97080782D01*
X153230776Y-97085315D01*
X153231266Y-97098390D01*
X153242120Y-97091813D01*
X153260699Y-97069225D01*
X153284361Y-97034268D01*
X153310465Y-96990585D01*
X153336368Y-96941817D01*
X153339612Y-96935236D01*
X153362956Y-96890269D01*
X153383180Y-96856431D01*
X153396764Y-96839464D01*
X153398913Y-96838518D01*
X153408394Y-96850197D01*
X153415250Y-96878637D01*
X153415629Y-96881874D01*
X153420251Y-96925231D01*
X153437768Y-96865679D01*
X153446880Y-96816287D01*
X153451130Y-96752397D01*
X153450616Y-96703338D01*
X153446610Y-96646363D01*
X153439028Y-96606391D01*
X153425162Y-96573759D01*
X153405977Y-96543954D01*
X153371117Y-96503353D01*
X153325944Y-96461771D01*
X153299499Y-96441663D01*
X153232991Y-96395966D01*
X153039362Y-96400997D01*
X152962359Y-96403291D01*
X152905104Y-96406334D01*
X152860668Y-96411318D01*
X152822123Y-96419436D01*
X152782540Y-96431881D01*
X152734989Y-96449846D01*
X152719000Y-96456148D01*
X152652555Y-96484274D01*
X152583840Y-96516384D01*
X152524262Y-96547052D01*
X152505554Y-96557694D01*
X152459572Y-96586252D01*
X152407809Y-96620433D01*
X152354665Y-96657062D01*
X152304541Y-96692962D01*
X152261839Y-96724957D01*
X152230957Y-96749871D01*
X152216296Y-96764529D01*
X152215899Y-96766755D01*
X152229374Y-96763631D01*
X152261585Y-96750989D01*
X152307282Y-96730997D01*
X152346723Y-96712733D01*
X152414186Y-96683042D01*
X152487229Y-96654430D01*
X152553731Y-96631536D01*
X152576528Y-96624814D01*
X152647826Y-96608969D01*
X152721168Y-96598993D01*
X152792269Y-96594690D01*
X152856841Y-96595866D01*
X152910599Y-96602326D01*
X152949257Y-96613874D01*
X152968528Y-96630317D01*
X152968937Y-96642652D01*
X152953936Y-96660945D01*
X152918546Y-96690254D01*
X152865115Y-96729191D01*
X152795992Y-96776369D01*
X152713524Y-96830400D01*
X152620058Y-96889897D01*
X152517943Y-96953473D01*
X152409527Y-97019741D01*
X152297157Y-97087312D01*
X152183181Y-97154800D01*
X152069947Y-97220817D01*
X151959804Y-97283976D01*
X151855098Y-97342890D01*
X151758178Y-97396171D01*
X151671391Y-97442432D01*
X151597086Y-97480285D01*
X151537609Y-97508343D01*
X151495310Y-97525219D01*
X151472536Y-97529526D01*
X151470043Y-97528357D01*
X151467486Y-97519344D01*
X151473826Y-97503617D01*
X151490856Y-97478925D01*
X151520368Y-97443012D01*
X151564156Y-97393626D01*
X151624012Y-97328513D01*
X151657967Y-97292090D01*
X151718868Y-97224496D01*
X151781294Y-97150958D01*
X151839309Y-97078744D01*
X151886978Y-97015121D01*
X151902604Y-96992534D01*
X152012489Y-96846769D01*
X152142567Y-96705856D01*
X152286381Y-96575870D01*
X152437471Y-96462891D01*
X152521535Y-96410086D01*
X152567068Y-96380662D01*
X152608763Y-96346614D01*
X152649637Y-96304368D01*
X152692710Y-96250352D01*
X152741000Y-96180993D01*
X152797525Y-96092718D01*
X152818943Y-96058109D01*
X152912655Y-95912750D01*
X153001317Y-95791214D01*
X153087427Y-95691732D01*
X153173486Y-95612538D01*
X153261993Y-95551864D01*
X153355449Y-95507943D01*
X153456351Y-95479006D01*
X153567202Y-95463287D01*
X153666164Y-95459028D01*
X153767406Y-95462320D01*
G37*
D14*
X132220000Y-100996359D02*
X132220000Y-101303641D01*
X132980000Y-100996359D02*
X132980000Y-101303641D01*
X151660000Y-115300000D02*
X147650000Y-115300000D01*
X151660000Y-117300000D02*
X147650000Y-117300000D01*
X151660000Y-117300000D02*
X151660000Y-115300000D01*
D10*
X155098000Y-101398000D02*
X158252000Y-101398000D01*
X157490000Y-100153000D02*
X157998000Y-100407000D01*
X157490000Y-100661000D02*
X157490000Y-100153000D01*
X157998000Y-100407000D02*
X157490000Y-100661000D01*
X158252000Y-94184000D02*
X155098000Y-94184000D01*
X158316000Y-96267000D02*
X159205000Y-96267000D01*
X158316000Y-97537000D02*
X158824000Y-97791000D01*
X158316000Y-98045000D02*
X158316000Y-97537000D01*
X158316000Y-99315000D02*
X159205000Y-99315000D01*
X158824000Y-97791000D02*
X158316000Y-98045000D01*
D14*
X144861252Y-116765000D02*
X144338748Y-116765000D01*
X144861252Y-118235000D02*
X144338748Y-118235000D01*
X147992164Y-107890000D02*
X148207836Y-107890000D01*
X147992164Y-108610000D02*
X148207836Y-108610000D01*
X146170000Y-119400000D02*
X146170000Y-118740000D01*
X146170000Y-121060000D02*
X146170000Y-120400000D01*
X147580000Y-118740000D02*
X146170000Y-118740000D01*
X147580000Y-121060000D02*
X146170000Y-121060000D01*
X148190000Y-121370000D02*
X147710000Y-121370000D01*
X147950000Y-121040000D01*
X148190000Y-121370000D01*
G36*
X148190000Y-121370000D02*
G01*
X147710000Y-121370000D01*
X147950000Y-121040000D01*
X148190000Y-121370000D01*
G37*
X157403641Y-101620000D02*
X157096359Y-101620000D01*
X157403641Y-102380000D02*
X157096359Y-102380000D01*
X150040000Y-122617836D02*
X150040000Y-122402164D01*
X150760000Y-122617836D02*
X150760000Y-122402164D01*
X134390000Y-120357836D02*
X134390000Y-120142164D01*
X135110000Y-120357836D02*
X135110000Y-120142164D01*
D10*
X126116000Y-97766000D02*
X126624000Y-97512000D01*
X126624000Y-96242000D02*
X125735000Y-96242000D01*
X126624000Y-97512000D02*
X126624000Y-98020000D01*
X126624000Y-98020000D02*
X126116000Y-97766000D01*
X126624000Y-99290000D02*
X125735000Y-99290000D01*
X126688000Y-101373000D02*
X129842000Y-101373000D01*
X126942000Y-95150000D02*
X127450000Y-94896000D01*
X127450000Y-94896000D02*
X127450000Y-95404000D01*
X127450000Y-95404000D02*
X126942000Y-95150000D01*
X129842000Y-94159000D02*
X126688000Y-94159000D01*
D13*
X139511400Y-102626001D02*
G75*
G02*
X139308200Y-102626001I-101600J0D01*
G01*
X139308200Y-102626001D02*
G75*
G02*
X139511400Y-102626001I101600J0D01*
G01*
D14*
X151120000Y-112153641D02*
X151120000Y-111846359D01*
X151880000Y-112153641D02*
X151880000Y-111846359D01*
X149890000Y-110127836D02*
X149890000Y-109912164D01*
X150610000Y-110127836D02*
X150610000Y-109912164D01*
D13*
X155327600Y-116019160D02*
X155327600Y-117626980D01*
X156389140Y-119552300D02*
X157110860Y-119552300D01*
X157110860Y-112592700D02*
X156389140Y-112592700D01*
X158172400Y-115196200D02*
X158172400Y-113250560D01*
X158172400Y-116948800D02*
X159467802Y-116948800D01*
X158172400Y-118894440D02*
X158172400Y-116948800D01*
X159467802Y-115196200D02*
X158172400Y-115196200D01*
X159467802Y-116948800D02*
X159467802Y-115196200D01*
X151318900Y-108180697D02*
X151318900Y-109419503D01*
X153681100Y-109419503D02*
X153681100Y-108180697D01*
X151801500Y-110813050D02*
G75*
G02*
X151598300Y-110813050I-101600J0D01*
G01*
X151598300Y-110813050D02*
G75*
G02*
X151801500Y-110813050I101600J0D01*
G01*
D10*
X126114000Y-126987500D02*
X126622000Y-126733500D01*
X126622000Y-125463500D02*
X125733000Y-125463500D01*
X126622000Y-126733500D02*
X126622000Y-127241500D01*
X126622000Y-127241500D02*
X126114000Y-126987500D01*
X126622000Y-128511500D02*
X125733000Y-128511500D01*
X126686000Y-130594500D02*
X129840000Y-130594500D01*
X126940000Y-124371500D02*
X127448000Y-124117500D01*
X127448000Y-124117500D02*
X127448000Y-124625500D01*
X127448000Y-124625500D02*
X126940000Y-124371500D01*
X129840000Y-123380500D02*
X126686000Y-123380500D01*
D14*
X148607836Y-111440000D02*
X148392164Y-111440000D01*
X148607836Y-112160000D02*
X148392164Y-112160000D01*
X127596359Y-101620000D02*
X127903641Y-101620000D01*
X127596359Y-102380000D02*
X127903641Y-102380000D01*
X133412164Y-99040000D02*
X133627836Y-99040000D01*
X133412164Y-99760000D02*
X133627836Y-99760000D01*
X136477836Y-110240000D02*
X136262164Y-110240000D01*
X136477836Y-110960000D02*
X136262164Y-110960000D01*
X134000000Y-118600000D02*
X134000000Y-116640000D01*
X135200000Y-116640000D02*
X134000000Y-116640000D01*
X135200000Y-118600000D02*
X135200000Y-116640000D01*
X130870000Y-126346359D02*
X130870000Y-126653641D01*
X131630000Y-126346359D02*
X131630000Y-126653641D01*
X153840000Y-111972164D02*
X153840000Y-112187836D01*
X154560000Y-111972164D02*
X154560000Y-112187836D01*
X150140000Y-111892164D02*
X150140000Y-112107836D01*
X150860000Y-111892164D02*
X150860000Y-112107836D01*
X153840000Y-120057836D02*
X153840000Y-119842164D01*
X154560000Y-120057836D02*
X154560000Y-119842164D01*
X131220000Y-100996359D02*
X131220000Y-101303641D01*
X131980000Y-100996359D02*
X131980000Y-101303641D01*
X147640000Y-109872164D02*
X147640000Y-110087836D01*
X148360000Y-109872164D02*
X148360000Y-110087836D01*
X133940000Y-122552164D02*
X133940000Y-122767836D01*
X134660000Y-122552164D02*
X134660000Y-122767836D01*
X143120000Y-119456359D02*
X143120000Y-119763641D01*
X143880000Y-119456359D02*
X143880000Y-119763641D01*
D13*
X135345300Y-122099000D02*
X135345300Y-123964462D01*
X135345300Y-125401000D02*
X149594700Y-125401000D01*
X136222159Y-122099000D02*
X135345300Y-122099000D01*
X149594700Y-122099000D02*
X148717839Y-122099000D01*
X149594700Y-123964462D02*
X149594700Y-122099000D01*
D17*
X133948300Y-122156000D02*
G75*
G02*
X133186300Y-122156000I-381000J0D01*
G01*
X133186300Y-122156000D02*
G75*
G02*
X133948300Y-122156000I381000J0D01*
G01*
D14*
X133765000Y-128324500D02*
X133765000Y-130609500D01*
X133765000Y-130609500D02*
X135235000Y-130609500D01*
X135235000Y-130609500D02*
X135235000Y-128324500D01*
X152903000Y-128324500D02*
X152903000Y-130609500D01*
X152903000Y-130609500D02*
X154373000Y-130609500D01*
X154373000Y-130609500D02*
X154373000Y-128324500D01*
X151080000Y-122643641D02*
X151080000Y-122336359D01*
X151840000Y-122643641D02*
X151840000Y-122336359D01*
X147075000Y-112475000D02*
X147075000Y-114875000D01*
X147075000Y-114875000D02*
X148675000Y-114875000D01*
X148675000Y-114875000D02*
X148675000Y-112475000D01*
D11*
X136750000Y-109500000D02*
G75*
G02*
X136550000Y-109500000I-100000J0D01*
G01*
X136550000Y-109500000D02*
G75*
G02*
X136750000Y-109500000I100000J0D01*
G01*
D14*
X138540000Y-119892164D02*
X138540000Y-120107836D01*
X139260000Y-119892164D02*
X139260000Y-120107836D01*
X149622164Y-114290000D02*
X149837836Y-114290000D01*
X149622164Y-115010000D02*
X149837836Y-115010000D01*
X149890000Y-107892164D02*
X149890000Y-108107836D01*
X150610000Y-107892164D02*
X150610000Y-108107836D01*
X139540000Y-119892164D02*
X139540000Y-120107836D01*
X140260000Y-119892164D02*
X140260000Y-120107836D01*
X152620000Y-105403641D02*
X152620000Y-105096359D01*
X153380000Y-105403641D02*
X153380000Y-105096359D01*
%LPC*%
D18*
X133130000Y-113222500D02*
X131880000Y-113222500D01*
X131880000Y-112522500D01*
X133130000Y-112522500D01*
X133130000Y-113222500D01*
G36*
X133130000Y-113222500D02*
G01*
X131880000Y-113222500D01*
X131880000Y-112522500D01*
X133130000Y-112522500D01*
X133130000Y-113222500D01*
G37*
X133130000Y-114022500D02*
X131880000Y-114022500D01*
X131880000Y-113322500D01*
X133130000Y-113322500D01*
X133130000Y-114022500D01*
G36*
X133130000Y-114022500D02*
G01*
X131880000Y-114022500D01*
X131880000Y-113322500D01*
X133130000Y-113322500D01*
X133130000Y-114022500D01*
G37*
X133130000Y-114522500D02*
X131880000Y-114522500D01*
X131880000Y-114122500D01*
X133130000Y-114122500D01*
X133130000Y-114522500D01*
G36*
X133130000Y-114522500D02*
G01*
X131880000Y-114522500D01*
X131880000Y-114122500D01*
X133130000Y-114122500D01*
X133130000Y-114522500D01*
G37*
X133130000Y-115022500D02*
X131880000Y-115022500D01*
X131880000Y-114622500D01*
X133130000Y-114622500D01*
X133130000Y-115022500D01*
G36*
X133130000Y-115022500D02*
G01*
X131880000Y-115022500D01*
X131880000Y-114622500D01*
X133130000Y-114622500D01*
X133130000Y-115022500D01*
G37*
X133130000Y-115522500D02*
X131880000Y-115522500D01*
X131880000Y-115122500D01*
X133130000Y-115122500D01*
X133130000Y-115522500D01*
G36*
X133130000Y-115522500D02*
G01*
X131880000Y-115522500D01*
X131880000Y-115122500D01*
X133130000Y-115122500D01*
X133130000Y-115522500D01*
G37*
X133130000Y-116022500D02*
X131880000Y-116022500D01*
X131880000Y-115622500D01*
X133130000Y-115622500D01*
X133130000Y-116022500D01*
G36*
X133130000Y-116022500D02*
G01*
X131880000Y-116022500D01*
X131880000Y-115622500D01*
X133130000Y-115622500D01*
X133130000Y-116022500D01*
G37*
X133130000Y-116522500D02*
X131880000Y-116522500D01*
X131880000Y-116122500D01*
X133130000Y-116122500D01*
X133130000Y-116522500D01*
G36*
X133130000Y-116522500D02*
G01*
X131880000Y-116522500D01*
X131880000Y-116122500D01*
X133130000Y-116122500D01*
X133130000Y-116522500D01*
G37*
X133130000Y-117022500D02*
X131880000Y-117022500D01*
X131880000Y-116622500D01*
X133130000Y-116622500D01*
X133130000Y-117022500D01*
G36*
X133130000Y-117022500D02*
G01*
X131880000Y-117022500D01*
X131880000Y-116622500D01*
X133130000Y-116622500D01*
X133130000Y-117022500D01*
G37*
X133130000Y-117522500D02*
X131880000Y-117522500D01*
X131880000Y-117122500D01*
X133130000Y-117122500D01*
X133130000Y-117522500D01*
G36*
X133130000Y-117522500D02*
G01*
X131880000Y-117522500D01*
X131880000Y-117122500D01*
X133130000Y-117122500D01*
X133130000Y-117522500D01*
G37*
X133130000Y-118022500D02*
X131880000Y-118022500D01*
X131880000Y-117622500D01*
X133130000Y-117622500D01*
X133130000Y-118022500D01*
G36*
X133130000Y-118022500D02*
G01*
X131880000Y-118022500D01*
X131880000Y-117622500D01*
X133130000Y-117622500D01*
X133130000Y-118022500D01*
G37*
X133130000Y-118822500D02*
X131880000Y-118822500D01*
X131880000Y-118122500D01*
X133130000Y-118122500D01*
X133130000Y-118822500D01*
G36*
X133130000Y-118822500D02*
G01*
X131880000Y-118822500D01*
X131880000Y-118122500D01*
X133130000Y-118122500D01*
X133130000Y-118822500D01*
G37*
X133130000Y-119622500D02*
X131880000Y-119622500D01*
X131880000Y-118922500D01*
X133130000Y-118922500D01*
X133130000Y-119622500D01*
G36*
X133130000Y-119622500D02*
G01*
X131880000Y-119622500D01*
X131880000Y-118922500D01*
X133130000Y-118922500D01*
X133130000Y-119622500D01*
G37*
D19*
X157539000Y-129628500D03*
X157539000Y-124378500D03*
X155839000Y-129628500D03*
X155839000Y-124378500D03*
D20*
X149707800Y-119400000D03*
X151892200Y-119400000D03*
D21*
X152300000Y-116000000D03*
X152300000Y-116960000D03*
D22*
X131300000Y-129912000D03*
X131300000Y-128337000D03*
D23*
X150500000Y-105770000D03*
X150500000Y-104750000D03*
D24*
X149325000Y-113680000D03*
X149325000Y-112720000D03*
D25*
X134600000Y-113650000D03*
X134600000Y-112250000D03*
D26*
X134000000Y-101600000D03*
D27*
X134000000Y-102616000D03*
D28*
X131430000Y-113182500D03*
X131430000Y-118962500D03*
D29*
X131930000Y-111752500D03*
D30*
X127750000Y-111752500D03*
D29*
X131930000Y-120392500D03*
D30*
X127750000Y-120392500D03*
D31*
X156500000Y-108000000D03*
D32*
X156500000Y-110000000D03*
D33*
X145937500Y-114400000D03*
X145937500Y-114000000D03*
X145937500Y-113600000D03*
X145937500Y-113200000D03*
X145937500Y-112800000D03*
X145937500Y-112400000D03*
X145937500Y-112000000D03*
X145937500Y-111600000D03*
X145937500Y-111200000D03*
X145937500Y-110800000D03*
X145937500Y-110400000D03*
X145937500Y-110000000D03*
X145937500Y-109600000D03*
X145937500Y-109200000D03*
X145937500Y-108800000D03*
X145937500Y-108400000D03*
X145937500Y-108000000D03*
D34*
X145250000Y-107312500D03*
X144850000Y-107312500D03*
X144450000Y-107312500D03*
X144050000Y-107312500D03*
X143650000Y-107312500D03*
X143250000Y-107312500D03*
X142850000Y-107312500D03*
X142450000Y-107312500D03*
X142050000Y-107312500D03*
X141650000Y-107312500D03*
X141250000Y-107312500D03*
X140850000Y-107312500D03*
X140450000Y-107312500D03*
X140050000Y-107312500D03*
X139650000Y-107312500D03*
X139250000Y-107312500D03*
X138850000Y-107312500D03*
D33*
X138162500Y-108000000D03*
X138162500Y-108400000D03*
X138162500Y-108800000D03*
X138162500Y-109200000D03*
X138162500Y-109600000D03*
X138162500Y-110000000D03*
X138162500Y-110400000D03*
X138162500Y-110800000D03*
X138162500Y-111200000D03*
X138162500Y-111600000D03*
X138162500Y-112000000D03*
X138162500Y-112400000D03*
X138162500Y-112800000D03*
X138162500Y-113200000D03*
X138162500Y-113600000D03*
X138162500Y-114000000D03*
X138162500Y-114400000D03*
D34*
X138850000Y-115087500D03*
X139250000Y-115087500D03*
X139650000Y-115087500D03*
X140050000Y-115087500D03*
X140450000Y-115087500D03*
X140850000Y-115087500D03*
X141250000Y-115087500D03*
X141650000Y-115087500D03*
X142050000Y-115087500D03*
X142450000Y-115087500D03*
X142850000Y-115087500D03*
X143250000Y-115087500D03*
X143650000Y-115087500D03*
X144050000Y-115087500D03*
X144450000Y-115087500D03*
X144850000Y-115087500D03*
X145250000Y-115087500D03*
D35*
X142050000Y-111200000D03*
D24*
X153150000Y-103880000D03*
X153150000Y-102920000D03*
D25*
X136400000Y-115700000D03*
X136400000Y-114300000D03*
D22*
X150438000Y-129912000D03*
X150438000Y-128337000D03*
D36*
X155300000Y-122000000D03*
X157200000Y-122000000D03*
D37*
X150490000Y-113450000D03*
X151450000Y-113450000D03*
D38*
X141600000Y-120450000D03*
X141600000Y-117150000D03*
D39*
X144500000Y-119090000D03*
X144500000Y-120110000D03*
X133800000Y-119690000D03*
X133800000Y-120710000D03*
D40*
X139650000Y-117730000D03*
X136350000Y-117730000D03*
D21*
X135880000Y-119520000D03*
X135880000Y-120480000D03*
D41*
X138280000Y-100600000D03*
X137320000Y-100600000D03*
D42*
X139315000Y-101400000D03*
X140285000Y-101400000D03*
D39*
X152460000Y-121960000D03*
X152460000Y-122980000D03*
D21*
X137900000Y-119520000D03*
X137900000Y-120480000D03*
D24*
X140950000Y-106060000D03*
X140950000Y-105100000D03*
D43*
X133990000Y-114750000D03*
X135010000Y-114750000D03*
D41*
X155730000Y-102000000D03*
X154770000Y-102000000D03*
D39*
X152250000Y-126990000D03*
X152250000Y-128010000D03*
D21*
X136880000Y-119520000D03*
X136880000Y-120480000D03*
D39*
X133000000Y-125980000D03*
X133000000Y-127000000D03*
D44*
X151260000Y-127000000D03*
X150240000Y-127000000D03*
D39*
X130600000Y-100640000D03*
X130600000Y-101660000D03*
D23*
X151750000Y-105760000D03*
X151750000Y-104740000D03*
D45*
X138650000Y-104650000D03*
X138650000Y-104000000D03*
X138650000Y-103350000D03*
D46*
X137900000Y-102600000D03*
X137250000Y-102600000D03*
X136600000Y-102600000D03*
D45*
X135850000Y-103350000D03*
X135850000Y-104000000D03*
X135850000Y-104650000D03*
D46*
X136600000Y-105400000D03*
X137250000Y-105400000D03*
X137900000Y-105400000D03*
D37*
X147620000Y-107300000D03*
X148580000Y-107300000D03*
D23*
X131250000Y-124760000D03*
X131250000Y-123740000D03*
D24*
X149000000Y-110480000D03*
X149000000Y-109520000D03*
D43*
X153240000Y-126250000D03*
X154260000Y-126250000D03*
D47*
X154612500Y-103550000D03*
X154612500Y-104500000D03*
X154612500Y-105450000D03*
X156887500Y-105450000D03*
X156887500Y-103550000D03*
D39*
X142950000Y-104740000D03*
X142950000Y-105760000D03*
X132600000Y-100640000D03*
X132600000Y-101660000D03*
D40*
X150950000Y-116300000D03*
X147650000Y-116300000D03*
D19*
X157539000Y-100407000D03*
X157539000Y-95157000D03*
X155839000Y-100407000D03*
X155839000Y-95157000D03*
D48*
X145550000Y-117500000D03*
X143650000Y-117500000D03*
D37*
X147620000Y-108250000D03*
X148580000Y-108250000D03*
D49*
X147900000Y-120550000D03*
X147900000Y-119250000D03*
X145900000Y-119900000D03*
D44*
X157760000Y-102000000D03*
X156740000Y-102000000D03*
D24*
X150400000Y-122990000D03*
X150400000Y-122030000D03*
X134750000Y-120730000D03*
X134750000Y-119770000D03*
D19*
X127401000Y-95150000D03*
X127401000Y-100400000D03*
X129101000Y-95150000D03*
X129101000Y-100400000D03*
D50*
X140200000Y-102626002D03*
X140200000Y-103213001D03*
X140200000Y-103800000D03*
X140708000Y-103800000D03*
X140708000Y-103213001D03*
X140708000Y-102626002D03*
D23*
X151500000Y-112510000D03*
X151500000Y-111490000D03*
D24*
X150250000Y-110500000D03*
X150250000Y-109540000D03*
D51*
X155040400Y-118315320D03*
X155040400Y-115330820D03*
X155040400Y-113832220D03*
D52*
X157850000Y-119722480D03*
X157850000Y-112422520D03*
X155650000Y-119722480D03*
X155650000Y-112422520D03*
D53*
X156750000Y-117566020D03*
X156750000Y-114568820D03*
D54*
X151699900Y-109981200D03*
X152099950Y-109981200D03*
X152500000Y-109981200D03*
X152900050Y-109981200D03*
X153300100Y-109981200D03*
X153300100Y-107619000D03*
X152900050Y-107619000D03*
X152500000Y-107619000D03*
X152099950Y-107619000D03*
X151699900Y-107619000D03*
D55*
X152500000Y-108800100D03*
D19*
X127399000Y-124371500D03*
X127399000Y-129621500D03*
X129099000Y-124371500D03*
X129099000Y-129621500D03*
D41*
X148980000Y-111800000D03*
X148020000Y-111800000D03*
D43*
X127240000Y-102000000D03*
X128260000Y-102000000D03*
D37*
X133040000Y-99400000D03*
X134000000Y-99400000D03*
D41*
X136850000Y-110600000D03*
X135890000Y-110600000D03*
D56*
X134600000Y-117200000D03*
X134600000Y-118600000D03*
D39*
X131250000Y-125990000D03*
X131250000Y-127010000D03*
D21*
X154200000Y-111600000D03*
X154200000Y-112560000D03*
X150500000Y-111520000D03*
X150500000Y-112480000D03*
D24*
X154200000Y-120430000D03*
X154200000Y-119470000D03*
D39*
X131600000Y-100640000D03*
X131600000Y-101660000D03*
D21*
X148000000Y-109500000D03*
X148000000Y-110460000D03*
X134300000Y-122180000D03*
X134300000Y-123140000D03*
D39*
X143500000Y-119100000D03*
X143500000Y-120120000D03*
D57*
X148219999Y-122156000D03*
X147719998Y-122156000D03*
X147219999Y-122156000D03*
X146719997Y-122156000D03*
X146219998Y-122156000D03*
X145719999Y-122156000D03*
X145219998Y-122156000D03*
X144719999Y-122156000D03*
X144219997Y-122156000D03*
X143719998Y-122156000D03*
X143219999Y-122156000D03*
X142719998Y-122156000D03*
X142219998Y-122156000D03*
X141719997Y-122156000D03*
X141219998Y-122156000D03*
X140719999Y-122156000D03*
X140219997Y-122156000D03*
X139719998Y-122156000D03*
X139219997Y-122156000D03*
X138719998Y-122156000D03*
X138219999Y-122156000D03*
X137719997Y-122156000D03*
X137219998Y-122156000D03*
X136719999Y-122156000D03*
D58*
X135720001Y-124656000D03*
X149219999Y-124656000D03*
D22*
X134500000Y-129912000D03*
X134500000Y-128337000D03*
X153638000Y-129912000D03*
X153638000Y-128337000D03*
D23*
X151460000Y-123000000D03*
X151460000Y-121980000D03*
D59*
X147875000Y-114375000D03*
X147875000Y-112975000D03*
D60*
X136725000Y-108475000D03*
X136725000Y-107125000D03*
X135675000Y-107125000D03*
X135675000Y-108475000D03*
D21*
X138900000Y-119520000D03*
X138900000Y-120480000D03*
D37*
X149250000Y-114650000D03*
X150210000Y-114650000D03*
D21*
X150250000Y-107520000D03*
X150250000Y-108480000D03*
X139900000Y-119520000D03*
X139900000Y-120480000D03*
D23*
X153000000Y-105760000D03*
X153000000Y-104740000D03*
%LPD*%
M02*
