G04 #@! TF.GenerationSoftware,KiCad,Pcbnew,8.0.2*
G04 #@! TF.CreationDate,2025-05-08T21:28:10-06:00*
G04 #@! TF.ProjectId,kicad,6b696361-642e-46b6-9963-61645f706362,4*
G04 #@! TF.SameCoordinates,Original*
G04 #@! TF.FileFunction,Copper,L1,Top*
G04 #@! TF.FilePolarity,Positive*
%FSLAX46Y46*%
G04 Gerber Fmt 4.6, Leading zero omitted, Abs format (unit mm)*
G04 Created by KiCad (PCBNEW 8.0.2) date 2025-05-08 21:28:10*
%MOMM*%
%LPD*%
G01*
G04 APERTURE LIST*
G04 Aperture macros list*
%AMRoundRect*
0 Rectangle with rounded corners*
0 $1 Rounding radius*
0 $2 $3 $4 $5 $6 $7 $8 $9 X,Y pos of 4 corners*
0 Add a 4 corners polygon primitive as box body*
4,1,4,$2,$3,$4,$5,$6,$7,$8,$9,$2,$3,0*
0 Add four circle primitives for the rounded corners*
1,1,$1+$1,$2,$3*
1,1,$1+$1,$4,$5*
1,1,$1+$1,$6,$7*
1,1,$1+$1,$8,$9*
0 Add four rect primitives between the rounded corners*
20,1,$1+$1,$2,$3,$4,$5,0*
20,1,$1+$1,$4,$5,$6,$7,0*
20,1,$1+$1,$6,$7,$8,$9,0*
20,1,$1+$1,$8,$9,$2,$3,0*%
G04 Aperture macros list end*
G04 #@! TA.AperFunction,EtchedComponent*
%ADD10C,0.000000*%
G04 #@! TD*
G04 #@! TA.AperFunction,SMDPad,CuDef*
%ADD11R,1.000000X1.550000*%
G04 #@! TD*
G04 #@! TA.AperFunction,SMDPad,CuDef*
%ADD12R,0.990600X2.692400*%
G04 #@! TD*
G04 #@! TA.AperFunction,SMDPad,CuDef*
%ADD13RoundRect,0.140000X-0.170000X0.140000X-0.170000X-0.140000X0.170000X-0.140000X0.170000X0.140000X0*%
G04 #@! TD*
G04 #@! TA.AperFunction,SMDPad,CuDef*
%ADD14RoundRect,0.218750X0.256250X-0.218750X0.256250X0.218750X-0.256250X0.218750X-0.256250X-0.218750X0*%
G04 #@! TD*
G04 #@! TA.AperFunction,SMDPad,CuDef*
%ADD15RoundRect,0.135000X0.185000X-0.135000X0.185000X0.135000X-0.185000X0.135000X-0.185000X-0.135000X0*%
G04 #@! TD*
G04 #@! TA.AperFunction,SMDPad,CuDef*
%ADD16RoundRect,0.140000X0.170000X-0.140000X0.170000X0.140000X-0.170000X0.140000X-0.170000X-0.140000X0*%
G04 #@! TD*
G04 #@! TA.AperFunction,SMDPad,CuDef*
%ADD17RoundRect,0.150000X-0.200000X0.150000X-0.200000X-0.150000X0.200000X-0.150000X0.200000X0.150000X0*%
G04 #@! TD*
G04 #@! TA.AperFunction,ComponentPad*
%ADD18RoundRect,0.104167X-0.295833X0.145833X-0.295833X-0.145833X0.295833X-0.145833X0.295833X0.145833X0*%
G04 #@! TD*
G04 #@! TA.AperFunction,ComponentPad*
%ADD19O,0.800000X0.500000*%
G04 #@! TD*
G04 #@! TA.AperFunction,SMDPad,CuDef*
%ADD20R,1.150000X0.600000*%
G04 #@! TD*
G04 #@! TA.AperFunction,SMDPad,CuDef*
%ADD21R,1.150000X0.300000*%
G04 #@! TD*
G04 #@! TA.AperFunction,ComponentPad*
%ADD22O,2.100000X1.000000*%
G04 #@! TD*
G04 #@! TA.AperFunction,ComponentPad*
%ADD23O,1.800000X1.000000*%
G04 #@! TD*
G04 #@! TA.AperFunction,ComponentPad*
%ADD24RoundRect,0.250000X-0.625000X0.350000X-0.625000X-0.350000X0.625000X-0.350000X0.625000X0.350000X0*%
G04 #@! TD*
G04 #@! TA.AperFunction,ComponentPad*
%ADD25O,1.750000X1.200000*%
G04 #@! TD*
G04 #@! TA.AperFunction,SMDPad,CuDef*
%ADD26RoundRect,0.062500X0.400000X0.062500X-0.400000X0.062500X-0.400000X-0.062500X0.400000X-0.062500X0*%
G04 #@! TD*
G04 #@! TA.AperFunction,SMDPad,CuDef*
%ADD27RoundRect,0.062500X0.062500X0.400000X-0.062500X0.400000X-0.062500X-0.400000X0.062500X-0.400000X0*%
G04 #@! TD*
G04 #@! TA.AperFunction,HeatsinkPad*
%ADD28R,6.400000X6.400000*%
G04 #@! TD*
G04 #@! TA.AperFunction,SMDPad,CuDef*
%ADD29RoundRect,0.250000X-0.250000X-0.475000X0.250000X-0.475000X0.250000X0.475000X-0.250000X0.475000X0*%
G04 #@! TD*
G04 #@! TA.AperFunction,SMDPad,CuDef*
%ADD30RoundRect,0.140000X-0.140000X-0.170000X0.140000X-0.170000X0.140000X0.170000X-0.140000X0.170000X0*%
G04 #@! TD*
G04 #@! TA.AperFunction,SMDPad,CuDef*
%ADD31RoundRect,0.225000X0.375000X-0.225000X0.375000X0.225000X-0.375000X0.225000X-0.375000X-0.225000X0*%
G04 #@! TD*
G04 #@! TA.AperFunction,SMDPad,CuDef*
%ADD32RoundRect,0.135000X-0.185000X0.135000X-0.185000X-0.135000X0.185000X-0.135000X0.185000X0.135000X0*%
G04 #@! TD*
G04 #@! TA.AperFunction,SMDPad,CuDef*
%ADD33RoundRect,0.225000X0.225000X0.375000X-0.225000X0.375000X-0.225000X-0.375000X0.225000X-0.375000X0*%
G04 #@! TD*
G04 #@! TA.AperFunction,SMDPad,CuDef*
%ADD34RoundRect,0.140000X0.140000X0.170000X-0.140000X0.170000X-0.140000X-0.170000X0.140000X-0.170000X0*%
G04 #@! TD*
G04 #@! TA.AperFunction,SMDPad,CuDef*
%ADD35RoundRect,0.147500X-0.147500X-0.172500X0.147500X-0.172500X0.147500X0.172500X-0.147500X0.172500X0*%
G04 #@! TD*
G04 #@! TA.AperFunction,SMDPad,CuDef*
%ADD36RoundRect,0.135000X-0.135000X-0.185000X0.135000X-0.185000X0.135000X0.185000X-0.135000X0.185000X0*%
G04 #@! TD*
G04 #@! TA.AperFunction,SMDPad,CuDef*
%ADD37RoundRect,0.135000X0.135000X0.185000X-0.135000X0.185000X-0.135000X-0.185000X0.135000X-0.185000X0*%
G04 #@! TD*
G04 #@! TA.AperFunction,SMDPad,CuDef*
%ADD38R,0.950000X0.350000*%
G04 #@! TD*
G04 #@! TA.AperFunction,SMDPad,CuDef*
%ADD39R,0.350000X0.950000*%
G04 #@! TD*
G04 #@! TA.AperFunction,ConnectorPad*
%ADD40R,0.500000X0.500000*%
G04 #@! TD*
G04 #@! TA.AperFunction,ComponentPad*
%ADD41R,0.900000X0.500000*%
G04 #@! TD*
G04 #@! TA.AperFunction,SMDPad,CuDef*
%ADD42RoundRect,0.150000X-0.512500X-0.150000X0.512500X-0.150000X0.512500X0.150000X-0.512500X0.150000X0*%
G04 #@! TD*
G04 #@! TA.AperFunction,SMDPad,CuDef*
%ADD43RoundRect,0.250000X0.250000X0.475000X-0.250000X0.475000X-0.250000X-0.475000X0.250000X-0.475000X0*%
G04 #@! TD*
G04 #@! TA.AperFunction,SMDPad,CuDef*
%ADD44RoundRect,0.112500X0.237500X-0.112500X0.237500X0.112500X-0.237500X0.112500X-0.237500X-0.112500X0*%
G04 #@! TD*
G04 #@! TA.AperFunction,SMDPad,CuDef*
%ADD45R,0.304800X0.254000*%
G04 #@! TD*
G04 #@! TA.AperFunction,SMDPad,CuDef*
%ADD46R,1.498600X0.711200*%
G04 #@! TD*
G04 #@! TA.AperFunction,SMDPad,CuDef*
%ADD47R,0.812800X0.990600*%
G04 #@! TD*
G04 #@! TA.AperFunction,ComponentPad*
%ADD48C,1.397000*%
G04 #@! TD*
G04 #@! TA.AperFunction,SMDPad,CuDef*
%ADD49R,0.203200X0.762000*%
G04 #@! TD*
G04 #@! TA.AperFunction,SMDPad,CuDef*
%ADD50R,1.600200X0.990600*%
G04 #@! TD*
G04 #@! TA.AperFunction,SMDPad,CuDef*
%ADD51RoundRect,0.150000X0.200000X-0.150000X0.200000X0.150000X-0.200000X0.150000X-0.200000X-0.150000X0*%
G04 #@! TD*
G04 #@! TA.AperFunction,SMDPad,CuDef*
%ADD52R,0.330200X0.812800*%
G04 #@! TD*
G04 #@! TA.AperFunction,SMDPad,CuDef*
%ADD53R,0.406400X0.812800*%
G04 #@! TD*
G04 #@! TA.AperFunction,SMDPad,CuDef*
%ADD54R,1.100000X0.600000*%
G04 #@! TD*
G04 #@! TA.AperFunction,SMDPad,CuDef*
%ADD55R,0.750000X0.850000*%
G04 #@! TD*
G04 #@! TA.AperFunction,ViaPad*
%ADD56C,0.450000*%
G04 #@! TD*
G04 #@! TA.AperFunction,Conductor*
%ADD57C,0.150000*%
G04 #@! TD*
G04 #@! TA.AperFunction,Conductor*
%ADD58C,0.100000*%
G04 #@! TD*
G04 APERTURE END LIST*
D10*
G04 #@! TA.AperFunction,EtchedComponent*
G36*
X140700000Y-97115000D02*
G01*
X142700000Y-97115000D01*
X142700000Y-94475000D01*
X145400000Y-94475000D01*
X145400000Y-97115000D01*
X147400000Y-97115000D01*
X147400000Y-94475000D01*
X150100000Y-94475000D01*
X150100000Y-98915000D01*
X149600000Y-98915000D01*
X149600000Y-94975000D01*
X147900000Y-94975000D01*
X147900000Y-97615000D01*
X144900000Y-97615000D01*
X144900000Y-94975000D01*
X143200000Y-94975000D01*
X143200000Y-97615000D01*
X140200000Y-97615000D01*
X140200000Y-94975000D01*
X138500000Y-94975000D01*
X138500000Y-99875000D01*
X138000000Y-99875000D01*
X138000000Y-94975000D01*
X136600000Y-94975000D01*
X136600000Y-99875000D01*
X135700000Y-99875000D01*
X135700000Y-99631785D01*
X136002417Y-99631785D01*
X136012258Y-99679395D01*
X136036326Y-99721797D01*
X136074269Y-99754581D01*
X136082181Y-99758935D01*
X136124844Y-99771043D01*
X136173363Y-99770300D01*
X136218878Y-99757400D01*
X136237489Y-99746787D01*
X136271132Y-99711553D01*
X136291691Y-99666368D01*
X136298222Y-99616842D01*
X136289782Y-99568583D01*
X136272888Y-99536357D01*
X136237628Y-99503687D01*
X136192318Y-99483592D01*
X136142733Y-99477018D01*
X136094647Y-99484908D01*
X136061755Y-99501814D01*
X136026815Y-99538584D01*
X136007153Y-99583378D01*
X136002417Y-99631785D01*
X135700000Y-99631785D01*
X135700000Y-94475000D01*
X140700000Y-94475000D01*
X140700000Y-97115000D01*
G37*
G04 #@! TD.AperFunction*
D11*
X157539000Y-129628500D03*
X157539000Y-124378500D03*
X155839000Y-129628500D03*
X155839000Y-124378500D03*
D12*
X149707800Y-119400000D03*
X151892200Y-119400000D03*
D13*
X152300000Y-116000000D03*
X152300000Y-116960000D03*
D14*
X131300000Y-129912000D03*
X131300000Y-128337000D03*
D15*
X150500000Y-105770000D03*
X150500000Y-104750000D03*
D16*
X149325000Y-113680000D03*
X149325000Y-112720000D03*
D17*
X134600000Y-113650000D03*
X134600000Y-112250000D03*
D18*
X134000000Y-101600000D03*
D19*
X134000000Y-102616000D03*
D20*
X132505000Y-112872500D03*
X132505000Y-113672500D03*
D21*
X132505000Y-114822500D03*
X132505000Y-115822500D03*
X132505000Y-116322500D03*
X132505000Y-117322500D03*
D20*
X132505000Y-118472500D03*
X132505000Y-119272500D03*
X132505000Y-119272500D03*
X132505000Y-118472500D03*
D21*
X132505000Y-117822500D03*
X132505000Y-116822500D03*
X132505000Y-115322500D03*
X132505000Y-114322500D03*
D20*
X132505000Y-113672500D03*
X132505000Y-112872500D03*
D22*
X131930000Y-111752500D03*
D23*
X127750000Y-111752500D03*
D22*
X131930000Y-120392500D03*
D23*
X127750000Y-120392500D03*
D24*
X156500000Y-108000000D03*
D25*
X156500000Y-110000000D03*
D26*
X145937500Y-114400000D03*
X145937500Y-114000000D03*
X145937500Y-113600000D03*
X145937500Y-113200000D03*
X145937500Y-112800000D03*
X145937500Y-112400000D03*
X145937500Y-112000000D03*
X145937500Y-111600000D03*
X145937500Y-111200000D03*
X145937500Y-110800000D03*
X145937500Y-110400000D03*
X145937500Y-110000000D03*
X145937500Y-109600000D03*
X145937500Y-109200000D03*
X145937500Y-108800000D03*
X145937500Y-108400000D03*
X145937500Y-108000000D03*
D27*
X145250000Y-107312500D03*
X144850000Y-107312500D03*
X144450000Y-107312500D03*
X144050000Y-107312500D03*
X143650000Y-107312500D03*
X143250000Y-107312500D03*
X142850000Y-107312500D03*
X142450000Y-107312500D03*
X142050000Y-107312500D03*
X141650000Y-107312500D03*
X141250000Y-107312500D03*
X140850000Y-107312500D03*
X140450000Y-107312500D03*
X140050000Y-107312500D03*
X139650000Y-107312500D03*
X139250000Y-107312500D03*
X138850000Y-107312500D03*
D26*
X138162500Y-108000000D03*
X138162500Y-108400000D03*
X138162500Y-108800000D03*
X138162500Y-109200000D03*
X138162500Y-109600000D03*
X138162500Y-110000000D03*
X138162500Y-110400000D03*
X138162500Y-110800000D03*
X138162500Y-111200000D03*
X138162500Y-111600000D03*
X138162500Y-112000000D03*
X138162500Y-112400000D03*
X138162500Y-112800000D03*
X138162500Y-113200000D03*
X138162500Y-113600000D03*
X138162500Y-114000000D03*
X138162500Y-114400000D03*
D27*
X138850000Y-115087500D03*
X139250000Y-115087500D03*
X139650000Y-115087500D03*
X140050000Y-115087500D03*
X140450000Y-115087500D03*
X140850000Y-115087500D03*
X141250000Y-115087500D03*
X141650000Y-115087500D03*
X142050000Y-115087500D03*
X142450000Y-115087500D03*
X142850000Y-115087500D03*
X143250000Y-115087500D03*
X143650000Y-115087500D03*
X144050000Y-115087500D03*
X144450000Y-115087500D03*
X144850000Y-115087500D03*
X145250000Y-115087500D03*
D28*
X142050000Y-111200000D03*
D16*
X153150000Y-103880000D03*
X153150000Y-102920000D03*
D17*
X136400000Y-115700000D03*
X136400000Y-114300000D03*
D14*
X150438000Y-129912000D03*
X150438000Y-128337000D03*
D29*
X155300000Y-122000000D03*
X157200000Y-122000000D03*
D30*
X150490000Y-113450000D03*
X151450000Y-113450000D03*
D31*
X141600000Y-120450000D03*
X141600000Y-117150000D03*
D32*
X144500000Y-119090000D03*
X144500000Y-120110000D03*
X133800000Y-119690000D03*
X133800000Y-120710000D03*
D33*
X139650000Y-117730000D03*
X136350000Y-117730000D03*
D13*
X135880000Y-119520000D03*
X135880000Y-120480000D03*
D34*
X138280000Y-100600000D03*
X137320000Y-100600000D03*
D35*
X139315000Y-101400000D03*
X140285000Y-101400000D03*
D32*
X152460000Y-121960000D03*
X152460000Y-122980000D03*
D13*
X137900000Y-119520000D03*
X137900000Y-120480000D03*
D16*
X140950000Y-106060000D03*
X140950000Y-105100000D03*
D36*
X133990000Y-114750000D03*
X135010000Y-114750000D03*
D34*
X155730000Y-102000000D03*
X154770000Y-102000000D03*
D32*
X152250000Y-126990000D03*
X152250000Y-128010000D03*
D13*
X136880000Y-119520000D03*
X136880000Y-120480000D03*
D32*
X133000000Y-125980000D03*
X133000000Y-127000000D03*
D37*
X151260000Y-127000000D03*
X150240000Y-127000000D03*
D32*
X130600000Y-100640000D03*
X130600000Y-101660000D03*
D15*
X151750000Y-105760000D03*
X151750000Y-104740000D03*
D38*
X138650000Y-104650000D03*
X138650000Y-104000000D03*
X138650000Y-103350000D03*
D39*
X137900000Y-102600000D03*
X137250000Y-102600000D03*
X136600000Y-102600000D03*
D38*
X135850000Y-103350000D03*
X135850000Y-104000000D03*
X135850000Y-104650000D03*
D39*
X136600000Y-105400000D03*
X137250000Y-105400000D03*
X137900000Y-105400000D03*
D30*
X147620000Y-107300000D03*
X148580000Y-107300000D03*
D15*
X131250000Y-124760000D03*
X131250000Y-123740000D03*
D40*
X138250000Y-99625000D03*
D41*
X136150000Y-99625000D03*
D16*
X149000000Y-110480000D03*
X149000000Y-109520000D03*
D36*
X153240000Y-126250000D03*
X154260000Y-126250000D03*
D42*
X154612500Y-103550000D03*
X154612500Y-104500000D03*
X154612500Y-105450000D03*
X156887500Y-105450000D03*
X156887500Y-103550000D03*
D32*
X142950000Y-104740000D03*
X142950000Y-105760000D03*
X132600000Y-100640000D03*
X132600000Y-101660000D03*
D33*
X150950000Y-116300000D03*
X147650000Y-116300000D03*
D11*
X157539000Y-100407000D03*
X157539000Y-95157000D03*
X155839000Y-100407000D03*
X155839000Y-95157000D03*
D43*
X145550000Y-117500000D03*
X143650000Y-117500000D03*
D30*
X147620000Y-108250000D03*
X148580000Y-108250000D03*
D44*
X147900000Y-120550000D03*
X147900000Y-119250000D03*
X145900000Y-119900000D03*
D37*
X157760000Y-102000000D03*
X156740000Y-102000000D03*
D16*
X150400000Y-122990000D03*
X150400000Y-122030000D03*
X134750000Y-120730000D03*
X134750000Y-119770000D03*
D11*
X127401000Y-95150000D03*
X127401000Y-100400000D03*
X129101000Y-95150000D03*
X129101000Y-100400000D03*
D45*
X140200000Y-102626002D03*
X140200000Y-103213001D03*
X140200000Y-103800000D03*
X140708000Y-103800000D03*
X140708000Y-103213001D03*
X140708000Y-102626002D03*
D15*
X151500000Y-112510000D03*
X151500000Y-111490000D03*
D16*
X150250000Y-110500000D03*
X150250000Y-109540000D03*
D46*
X155040400Y-118315320D03*
X155040400Y-115330820D03*
X155040400Y-113832220D03*
D47*
X157850000Y-119722480D03*
X157850000Y-112422520D03*
X155650000Y-119722480D03*
X155650000Y-112422520D03*
D48*
X156750000Y-117566020D03*
X156750000Y-114568820D03*
D49*
X151699900Y-109981200D03*
X152099950Y-109981200D03*
X152500000Y-109981200D03*
X152900050Y-109981200D03*
X153300100Y-109981200D03*
X153300100Y-107619000D03*
X152900050Y-107619000D03*
X152500000Y-107619000D03*
X152099950Y-107619000D03*
X151699900Y-107619000D03*
D50*
X152500000Y-108800100D03*
D11*
X127399000Y-124371500D03*
X127399000Y-129621500D03*
X129099000Y-124371500D03*
X129099000Y-129621500D03*
D34*
X148980000Y-111800000D03*
X148020000Y-111800000D03*
D36*
X127240000Y-102000000D03*
X128260000Y-102000000D03*
D30*
X133040000Y-99400000D03*
X134000000Y-99400000D03*
D34*
X136850000Y-110600000D03*
X135890000Y-110600000D03*
D51*
X134600000Y-117200000D03*
X134600000Y-118600000D03*
D32*
X131250000Y-125990000D03*
X131250000Y-127010000D03*
D13*
X154200000Y-111600000D03*
X154200000Y-112560000D03*
X150500000Y-111520000D03*
X150500000Y-112480000D03*
D16*
X154200000Y-120430000D03*
X154200000Y-119470000D03*
D32*
X131600000Y-100640000D03*
X131600000Y-101660000D03*
D13*
X148000000Y-109500000D03*
X148000000Y-110460000D03*
X134300000Y-122180000D03*
X134300000Y-123140000D03*
D32*
X143500000Y-119100000D03*
X143500000Y-120120000D03*
D52*
X148219999Y-122156000D03*
X147719998Y-122156000D03*
X147219999Y-122156000D03*
X146719997Y-122156000D03*
X146219998Y-122156000D03*
X145719999Y-122156000D03*
X145219998Y-122156000D03*
X144719999Y-122156000D03*
X144219997Y-122156000D03*
X143719998Y-122156000D03*
X143219999Y-122156000D03*
X142719998Y-122156000D03*
X142219998Y-122156000D03*
X141719997Y-122156000D03*
X141219998Y-122156000D03*
X140719999Y-122156000D03*
X140219997Y-122156000D03*
X139719998Y-122156000D03*
X139219997Y-122156000D03*
X138719998Y-122156000D03*
X138219999Y-122156000D03*
X137719997Y-122156000D03*
X137219998Y-122156000D03*
X136719999Y-122156000D03*
D53*
X135720001Y-124656000D03*
X149219999Y-124656000D03*
D14*
X134500000Y-129912000D03*
X134500000Y-128337000D03*
X153638000Y-129912000D03*
X153638000Y-128337000D03*
D15*
X151460000Y-123000000D03*
X151460000Y-121980000D03*
D54*
X147875000Y-114375000D03*
X147875000Y-112975000D03*
D55*
X136725000Y-108475000D03*
X136725000Y-107125000D03*
X135675000Y-107125000D03*
X135675000Y-108475000D03*
D13*
X138900000Y-119520000D03*
X138900000Y-120480000D03*
D30*
X149250000Y-114650000D03*
X150210000Y-114650000D03*
D13*
X150250000Y-107520000D03*
X150250000Y-108480000D03*
X139900000Y-119520000D03*
X139900000Y-120480000D03*
D15*
X153000000Y-105760000D03*
X153000000Y-104740000D03*
D56*
X136325000Y-115000000D03*
X133567157Y-113182843D03*
X156775000Y-102775000D03*
X152700000Y-129925000D03*
X156830174Y-122991945D03*
X150900000Y-114700000D03*
X151175000Y-117225000D03*
X153750000Y-118300000D03*
X139475000Y-123025000D03*
X151425000Y-123600001D03*
X157740000Y-113320000D03*
X139900000Y-118975000D03*
X139250000Y-105725000D03*
X144725000Y-122850000D03*
X151075000Y-109525000D03*
X134525000Y-129150000D03*
X156500000Y-119700000D03*
X154075000Y-102175000D03*
X134300000Y-123825000D03*
X152200000Y-113250000D03*
X151525000Y-129925000D03*
X152950000Y-116950000D03*
X138775000Y-118900000D03*
X155025000Y-126275000D03*
X136155343Y-118930343D03*
X137875000Y-118975000D03*
X136875000Y-118950000D03*
X152425000Y-123600001D03*
X133725000Y-121350000D03*
X157050000Y-104775000D03*
X133350000Y-119175000D03*
X130500000Y-123750000D03*
X134600000Y-117950000D03*
X137375000Y-106825000D03*
X151301484Y-109130153D03*
X134500000Y-121425000D03*
X131325000Y-129125000D03*
X128225000Y-101225000D03*
X135700000Y-114825000D03*
X135575000Y-102525000D03*
X134000000Y-98625000D03*
X137577380Y-101475000D03*
X141100000Y-101950000D03*
X138974143Y-122900858D03*
X142050000Y-111200000D03*
X153775000Y-113225000D03*
X135525000Y-110075000D03*
X150375000Y-123600001D03*
X151100000Y-108700000D03*
X157100000Y-119725000D03*
X155890000Y-111380000D03*
X153625001Y-103413882D03*
X136075000Y-102100000D03*
X134575000Y-112950000D03*
X151114444Y-105235557D03*
X154875000Y-119500000D03*
X129721209Y-104853791D03*
X133200000Y-110100000D03*
X149830191Y-105294809D03*
X133750000Y-111250000D03*
X149286370Y-123394203D03*
X144715098Y-105353530D03*
X147629290Y-117900000D03*
X146821188Y-106250000D03*
X145150000Y-119200000D03*
X146200000Y-106250000D03*
X145649997Y-106250000D03*
X143319998Y-121050000D03*
X146275000Y-104925000D03*
X148800000Y-123137400D03*
X145304657Y-105329657D03*
X142719998Y-121500000D03*
X137745343Y-103620343D03*
X144250000Y-104575000D03*
X137450000Y-104250000D03*
X147433462Y-108947119D03*
X133814316Y-104250000D03*
X136724656Y-104650000D03*
X134507158Y-104942842D03*
X146908015Y-110035616D03*
X157525000Y-123275000D03*
X132175000Y-99250000D03*
X139225000Y-116650000D03*
X154875000Y-111925000D03*
X152400000Y-102900000D03*
X153800000Y-114900000D03*
X137372618Y-111727383D03*
X140307842Y-115942155D03*
X142784240Y-118794558D03*
X157550000Y-99275000D03*
X157500000Y-128425000D03*
X127450000Y-96300000D03*
X144025000Y-119600000D03*
X127375000Y-128475000D03*
X152725000Y-119400000D03*
X157550000Y-96300000D03*
X130600000Y-126025000D03*
X133325000Y-100495000D03*
X138500000Y-102250000D03*
X134975000Y-122150000D03*
X152025000Y-112000000D03*
X127450000Y-99250000D03*
X137375000Y-111250000D03*
X152875000Y-115475000D03*
X137375000Y-110751114D03*
X146025000Y-115325000D03*
X138900000Y-106450000D03*
X156225000Y-121975000D03*
X141600000Y-106025000D03*
X137400000Y-110300000D03*
X140775000Y-122925000D03*
X141240778Y-123018156D03*
X154225000Y-121025000D03*
X146625000Y-104125000D03*
X143450000Y-104235686D03*
X127400000Y-125500000D03*
X134586895Y-108588105D03*
X135500000Y-100500000D03*
X134495729Y-110142802D03*
X139225000Y-100550000D03*
X136800000Y-111725000D03*
X146850000Y-112800000D03*
X151396440Y-106704999D03*
X149431283Y-106114721D03*
X153016756Y-110925000D03*
X152363569Y-111436430D03*
X150000000Y-115785000D03*
X144139354Y-116444960D03*
X138521416Y-116346416D03*
X137689307Y-115764307D03*
X146600000Y-116700000D03*
X151181100Y-110500000D03*
X153675000Y-109000000D03*
X147708015Y-111025000D03*
X146650000Y-111500000D03*
X134557238Y-107992762D03*
X133000000Y-125350000D03*
X132832843Y-123732843D03*
X130450000Y-111726949D03*
X137275000Y-109600000D03*
X129650000Y-119875000D03*
X147876059Y-129026059D03*
X131332843Y-121667157D03*
X146825000Y-128649500D03*
X129650001Y-112000000D03*
D57*
X155650000Y-112422520D02*
X155650000Y-111620000D01*
X150880000Y-108480000D02*
X151100000Y-108700000D01*
X152500000Y-108800100D02*
X151631537Y-108800100D01*
X135850000Y-102800000D02*
X135575000Y-102525000D01*
X136400000Y-114925000D02*
X136325000Y-115000000D01*
X150438000Y-129912000D02*
X151512000Y-129912000D01*
X150250000Y-108480000D02*
X150880000Y-108480000D01*
X151060000Y-109540000D02*
X151075000Y-109525000D01*
X141650000Y-110800000D02*
X142050000Y-111200000D01*
X151631537Y-108800100D02*
X151301484Y-109130153D01*
X140708000Y-103800000D02*
X140708000Y-103213001D01*
X151512000Y-129912000D02*
X151525000Y-129925000D01*
X133256814Y-112872500D02*
X133567157Y-113182843D01*
X136600000Y-102600000D02*
X136575000Y-102600000D01*
X134600000Y-118600000D02*
X134600000Y-117950000D01*
X150950000Y-116300000D02*
X150950000Y-117000000D01*
X151450000Y-113450000D02*
X151450000Y-113430000D01*
X135625000Y-114750000D02*
X135700000Y-114825000D01*
X134500000Y-129912000D02*
X134500000Y-129175000D01*
X134750000Y-121175000D02*
X134500000Y-121425000D01*
X136400000Y-114300000D02*
X136400000Y-114925000D01*
X148580000Y-108250000D02*
X148580000Y-107300000D01*
X154372500Y-104740000D02*
X154612500Y-104500000D01*
X152900050Y-109200150D02*
X152500000Y-108800100D01*
X154200000Y-112560000D02*
X154200000Y-112800000D01*
X136880000Y-119520000D02*
X136880000Y-118955000D01*
X154200000Y-119470000D02*
X154845000Y-119470000D01*
X131300000Y-129912000D02*
X131300000Y-129150000D01*
X135880000Y-119205686D02*
X136155343Y-118930343D01*
X154612500Y-104500000D02*
X153770000Y-104500000D01*
X140950000Y-105100000D02*
X140950000Y-104042000D01*
X140708000Y-103213001D02*
X140708000Y-102626002D01*
X148580000Y-108250000D02*
X148580000Y-109100000D01*
X157102520Y-119722480D02*
X157100000Y-119725000D01*
X151450000Y-113450000D02*
X152000000Y-113450000D01*
X157200000Y-122622119D02*
X156830174Y-122991945D01*
X137320000Y-101217620D02*
X137577380Y-101475000D01*
X148000000Y-109500000D02*
X148980000Y-109500000D01*
X135890000Y-110440000D02*
X135525000Y-110075000D01*
X156887500Y-105450000D02*
X156887500Y-104937500D01*
X140200000Y-103213001D02*
X140708000Y-103213001D01*
X153770000Y-104500000D02*
X153150000Y-103880000D01*
X155650000Y-111620000D02*
X155890000Y-111380000D01*
X131300000Y-129150000D02*
X131325000Y-129125000D01*
X140219997Y-122712400D02*
X139907397Y-123025000D01*
X139900000Y-119520000D02*
X139900000Y-118975000D01*
X151610001Y-104740000D02*
X151114444Y-105235557D01*
X152900050Y-109981200D02*
X152900050Y-109200150D01*
X140708000Y-102626002D02*
X140708000Y-102342000D01*
X154770000Y-102000000D02*
X154250000Y-102000000D01*
X152460000Y-123565001D02*
X152425000Y-123600001D01*
X139219997Y-122655004D02*
X138974143Y-122900858D01*
X140157599Y-103213001D02*
X139650000Y-103720600D01*
X157200000Y-122000000D02*
X157200000Y-122622119D01*
X152940000Y-116960000D02*
X152950000Y-116950000D01*
X152000000Y-113450000D02*
X152200000Y-113250000D01*
X150500000Y-112480000D02*
X149565000Y-112480000D01*
X148020000Y-111800000D02*
X148940000Y-112720000D01*
X133800000Y-120710000D02*
X133800000Y-121275000D01*
X148580000Y-109100000D02*
X149000000Y-109520000D01*
X135890000Y-110600000D02*
X135890000Y-110440000D01*
X156740000Y-102000000D02*
X156740000Y-102740000D01*
X157850000Y-112422520D02*
X157850000Y-113210000D01*
X152300000Y-116960000D02*
X152940000Y-116960000D01*
X151460000Y-123565001D02*
X151425000Y-123600001D01*
X155040400Y-118315320D02*
X153765320Y-118315320D01*
X137320000Y-100600000D02*
X137320000Y-101217620D01*
X139907397Y-123025000D02*
X139475000Y-123025000D01*
X134000000Y-99400000D02*
X134000000Y-98625000D01*
X153638000Y-129912000D02*
X152713000Y-129912000D01*
X148940000Y-112720000D02*
X149325000Y-112720000D01*
X154845000Y-119470000D02*
X154875000Y-119500000D01*
X140950000Y-104042000D02*
X140708000Y-103800000D01*
X131250000Y-123740000D02*
X130510000Y-123740000D01*
X152500000Y-109181100D02*
X153300100Y-109981200D01*
X136575000Y-102600000D02*
X136075000Y-102100000D01*
X144719999Y-122156000D02*
X144719999Y-122844999D01*
X139650000Y-106225000D02*
X139650000Y-107312500D01*
X153000000Y-104740000D02*
X154372500Y-104740000D01*
X139650000Y-103720600D02*
X139650000Y-106225000D01*
X152460000Y-122980000D02*
X152460000Y-123565001D01*
X152500000Y-108800100D02*
X152500000Y-109181100D01*
X150850000Y-114650000D02*
X150900000Y-114700000D01*
X154260000Y-126250000D02*
X155000000Y-126250000D01*
X134300000Y-123140000D02*
X134300000Y-123825000D01*
X148980000Y-109500000D02*
X149000000Y-109520000D01*
X150500000Y-104750000D02*
X150628887Y-104750000D01*
X150250000Y-109540000D02*
X151060000Y-109540000D01*
X135675000Y-108475000D02*
X135675000Y-108175000D01*
X153158883Y-103880000D02*
X153625001Y-103413882D01*
X152713000Y-129912000D02*
X152700000Y-129925000D01*
X150400000Y-123575001D02*
X150375000Y-123600001D01*
X152900050Y-109981200D02*
X153300100Y-109981200D01*
X139650000Y-106125000D02*
X139250000Y-105725000D01*
X150400000Y-122990000D02*
X150400000Y-123575001D01*
X138162500Y-110800000D02*
X141650000Y-110800000D01*
X138900000Y-119025000D02*
X138775000Y-118900000D01*
X157850000Y-113210000D02*
X157740000Y-113320000D01*
X149000000Y-109520000D02*
X150230000Y-109520000D01*
X155650000Y-119722480D02*
X156477520Y-119722480D01*
X128260000Y-102000000D02*
X128260000Y-101260000D01*
X140708000Y-102342000D02*
X141100000Y-101950000D01*
X150628887Y-104750000D02*
X151114444Y-105235557D01*
X134600000Y-112925000D02*
X134575000Y-112950000D01*
X135675000Y-108175000D02*
X136725000Y-107125000D01*
X132505000Y-112872500D02*
X133256814Y-112872500D01*
X140219997Y-122156000D02*
X140219997Y-122712400D01*
X151450000Y-113430000D02*
X150500000Y-112480000D01*
X150210000Y-114650000D02*
X150250000Y-114650000D01*
X154250000Y-102000000D02*
X154075000Y-102175000D01*
X133252500Y-119272500D02*
X133350000Y-119175000D01*
X140200000Y-103213001D02*
X140157599Y-103213001D01*
X150950000Y-117000000D02*
X151175000Y-117225000D01*
X135010000Y-114750000D02*
X135625000Y-114750000D01*
X156477520Y-119722480D02*
X156500000Y-119700000D01*
X135850000Y-103350000D02*
X135850000Y-102800000D01*
X154200000Y-112800000D02*
X153775000Y-113225000D01*
X150250000Y-114650000D02*
X151450000Y-113450000D01*
X138900000Y-119520000D02*
X138900000Y-119025000D01*
X132505000Y-119272500D02*
X133252500Y-119272500D01*
X136725000Y-107125000D02*
X137075000Y-107125000D01*
X135880000Y-119520000D02*
X135880000Y-119205686D01*
X139219997Y-122156000D02*
X139219997Y-122655004D01*
X133800000Y-121275000D02*
X133725000Y-121350000D01*
X130510000Y-123740000D02*
X130500000Y-123750000D01*
X142050000Y-111200000D02*
X142100000Y-111200000D01*
X156740000Y-102740000D02*
X156775000Y-102775000D01*
X134500000Y-129175000D02*
X134525000Y-129150000D01*
X156887500Y-104937500D02*
X157050000Y-104775000D01*
X150210000Y-114650000D02*
X150850000Y-114650000D01*
X151750000Y-104740000D02*
X151610001Y-104740000D01*
X134600000Y-112250000D02*
X134600000Y-112925000D01*
X149565000Y-112480000D02*
X149325000Y-112720000D01*
X139650000Y-106225000D02*
X139650000Y-106125000D01*
X150230000Y-109520000D02*
X150250000Y-109540000D01*
X157850000Y-119722480D02*
X157102520Y-119722480D01*
X134750000Y-120730000D02*
X134750000Y-121175000D01*
X136880000Y-118955000D02*
X136875000Y-118950000D01*
X137075000Y-107125000D02*
X137375000Y-106825000D01*
X144719999Y-122844999D02*
X144725000Y-122850000D01*
X137900000Y-119000000D02*
X137875000Y-118975000D01*
X155000000Y-126250000D02*
X155025000Y-126275000D01*
X137900000Y-119520000D02*
X137900000Y-119000000D01*
X128260000Y-101260000D02*
X128225000Y-101225000D01*
X151460000Y-123000000D02*
X151460000Y-123565001D01*
X153765320Y-118315320D02*
X153750000Y-118300000D01*
X153150000Y-103880000D02*
X153158883Y-103880000D01*
X154899075Y-109600925D02*
X156500000Y-108000000D01*
X152396425Y-110950000D02*
X152419625Y-110926800D01*
X152419625Y-110926800D02*
X152817825Y-111325000D01*
X152099950Y-109981200D02*
X152099950Y-110607125D01*
X153675000Y-111325000D02*
X153675000Y-111324075D01*
X152099950Y-110607125D02*
X152419625Y-110926800D01*
X150500000Y-111520000D02*
X150707852Y-111520000D01*
X153675000Y-111324075D02*
X154899075Y-110100000D01*
X154899075Y-110100000D02*
X154899075Y-109600925D01*
X150707852Y-111520000D02*
X151277852Y-110950000D01*
X152817825Y-111325000D02*
X153675000Y-111325000D01*
X151277852Y-110950000D02*
X152396425Y-110950000D01*
X157725000Y-104387500D02*
X156887500Y-103550000D01*
X155040400Y-113832220D02*
X155434100Y-113832220D01*
X157725000Y-110475000D02*
X157725000Y-104387500D01*
X157096016Y-112170304D02*
X157096016Y-111103984D01*
X155434100Y-113832220D02*
X157096016Y-112170304D01*
X156887500Y-103550000D02*
X155730000Y-102392500D01*
X155730000Y-102392500D02*
X155730000Y-102000000D01*
X157096016Y-111103984D02*
X157725000Y-110475000D01*
X139900000Y-120480000D02*
X139445000Y-120025000D01*
X138219999Y-121619999D02*
X138219999Y-122156000D01*
X137415000Y-120815000D02*
X138219999Y-121619999D01*
X139445000Y-120025000D02*
X137595642Y-120025000D01*
X141600000Y-120450000D02*
X139930000Y-120450000D01*
X139930000Y-120450000D02*
X139900000Y-120480000D01*
X137595642Y-120025000D02*
X137415000Y-120205642D01*
X137415000Y-120205642D02*
X137415000Y-120815000D01*
X142850000Y-118400000D02*
X141600000Y-117150000D01*
X149707800Y-119400000D02*
X147807800Y-117500000D01*
X145550000Y-119550000D02*
X145550000Y-117500000D01*
X144650000Y-118400000D02*
X142850000Y-118400000D01*
X145900000Y-119900000D02*
X145550000Y-119550000D01*
X147807800Y-117500000D02*
X145550000Y-117500000D01*
X145550000Y-117500000D02*
X144650000Y-118400000D01*
X142675000Y-116525000D02*
X143650000Y-117500000D01*
X144850000Y-116300000D02*
X143650000Y-117500000D01*
X140855000Y-116525000D02*
X142675000Y-116525000D01*
X147650000Y-116300000D02*
X144850000Y-116300000D01*
X139650000Y-117730000D02*
X140855000Y-116525000D01*
X135390398Y-120410398D02*
X134750000Y-119770000D01*
X137219998Y-122577501D02*
X137060099Y-122737400D01*
X137060099Y-122737400D02*
X136379899Y-122737400D01*
X135390398Y-121747899D02*
X135390398Y-120410398D01*
X136379899Y-122737400D02*
X135390398Y-121747899D01*
X137219998Y-122156000D02*
X137219998Y-122577501D01*
X136350000Y-118170000D02*
X134750000Y-119770000D01*
X136350000Y-117730000D02*
X136350000Y-118170000D01*
X138900000Y-120480000D02*
X139719998Y-121299998D01*
X139719998Y-121299998D02*
X139719998Y-122156000D01*
X138719998Y-121299998D02*
X138719998Y-122156000D01*
X137900000Y-120480000D02*
X138719998Y-121299998D01*
X136880000Y-120480000D02*
X136880000Y-120633553D01*
X137719997Y-121473550D02*
X137719997Y-122156000D01*
X136880000Y-120633553D02*
X137719997Y-121473550D01*
X136719999Y-122156000D02*
X136719999Y-121319999D01*
X136719999Y-121319999D02*
X135880000Y-120480000D01*
X146219998Y-122712400D02*
X146219998Y-122156000D01*
X150400000Y-122030000D02*
X149692600Y-122737400D01*
X146244998Y-122737400D02*
X146219998Y-122712400D01*
X149692600Y-122737400D02*
X146244998Y-122737400D01*
X131250000Y-127010000D02*
X131250000Y-128287000D01*
X131250000Y-128287000D02*
X131300000Y-128337000D01*
X133163000Y-127000000D02*
X134500000Y-128337000D01*
X133000000Y-127000000D02*
X133163000Y-127000000D01*
X150438000Y-128337000D02*
X150438000Y-127198000D01*
X150438000Y-127198000D02*
X150240000Y-127000000D01*
X133750000Y-112800000D02*
X133850000Y-112900000D01*
X132505000Y-118472500D02*
X131780000Y-118472500D01*
X150250000Y-106505000D02*
X150050000Y-106305000D01*
X129700000Y-106550000D02*
X129700000Y-104875000D01*
X132527500Y-113650000D02*
X132505000Y-113672500D01*
X150050000Y-106305000D02*
X150100000Y-106355000D01*
X133100000Y-109950000D02*
X133100000Y-110000000D01*
X150250000Y-107520000D02*
X150173015Y-107520000D01*
X150250000Y-107520000D02*
X150250000Y-106505000D01*
X131555000Y-118247500D02*
X131555000Y-114197500D01*
X131780000Y-118472500D02*
X131555000Y-118247500D01*
X131555000Y-114197500D02*
X132080000Y-113672500D01*
X133100000Y-109950000D02*
X133150000Y-110000000D01*
X151699900Y-107574145D02*
X151699900Y-107619000D01*
X133100000Y-110000000D02*
X133200000Y-110100000D01*
X133850000Y-112900000D02*
X134600000Y-113650000D01*
X149830191Y-106085191D02*
X149830191Y-105294809D01*
X150100000Y-106355000D02*
X150480755Y-106355000D01*
X134600000Y-113650000D02*
X132527500Y-113650000D01*
X133750000Y-111250000D02*
X133750000Y-112800000D01*
X150480755Y-106355000D02*
X151699900Y-107574145D01*
X129700000Y-106550000D02*
X133100000Y-109950000D01*
X129700000Y-104875000D02*
X129721209Y-104853791D01*
X132080000Y-113672500D02*
X132505000Y-113672500D01*
X150050000Y-106305000D02*
X149830191Y-106085191D01*
X138250000Y-100570000D02*
X138280000Y-100600000D01*
X138515000Y-100600000D02*
X139315000Y-101400000D01*
X138280000Y-100600000D02*
X138515000Y-100600000D01*
X138250000Y-99625000D02*
X138250000Y-100570000D01*
D58*
X139250000Y-115087500D02*
X139175000Y-115162500D01*
X133492501Y-116697500D02*
X133367501Y-116822500D01*
X131780000Y-115872500D02*
X131830000Y-115822500D01*
X139022964Y-115750000D02*
X138587500Y-115750000D01*
X133367501Y-116822500D02*
X132505000Y-116822500D01*
X131830000Y-115822500D02*
X132505000Y-115822500D01*
X137640000Y-116697500D02*
X133492501Y-116697500D01*
D57*
X134600000Y-117200000D02*
X134222500Y-116822500D01*
D58*
X131830000Y-116822500D02*
X131780000Y-116772500D01*
X132505000Y-116822500D02*
X131830000Y-116822500D01*
X138587500Y-115750000D02*
X137640000Y-116697500D01*
X131780000Y-116772500D02*
X131780000Y-115872500D01*
X139175000Y-115162500D02*
X139175000Y-115597964D01*
X139175000Y-115597964D02*
X139022964Y-115750000D01*
D57*
X134222500Y-116822500D02*
X132505000Y-116822500D01*
X144715098Y-105353530D02*
X143650000Y-106418628D01*
X142544997Y-123537400D02*
X149143173Y-123537400D01*
X141719997Y-122712400D02*
X142544997Y-123537400D01*
X141719997Y-122156000D02*
X141719997Y-122712400D01*
X149143173Y-123537400D02*
X149286370Y-123394203D01*
X143650000Y-106418628D02*
X143650000Y-107312500D01*
X146425000Y-120134704D02*
X146259704Y-120300000D01*
X145937500Y-107133688D02*
X146821188Y-106250000D01*
X145654499Y-120300000D02*
X144219997Y-121734502D01*
X144219997Y-121734502D02*
X144219997Y-122156000D01*
X146259704Y-120300000D02*
X145654499Y-120300000D01*
X146425000Y-119104290D02*
X146425000Y-120134704D01*
X145937500Y-108000000D02*
X145937500Y-107133688D01*
X147629290Y-117900000D02*
X146425000Y-119104290D01*
X143719998Y-120890002D02*
X144500000Y-120110000D01*
X144500000Y-120110000D02*
X145150000Y-119460000D01*
X143719998Y-122156000D02*
X143719998Y-120890002D01*
X146200000Y-106362500D02*
X145250000Y-107312500D01*
X145150000Y-119460000D02*
X145150000Y-119200000D01*
X146200000Y-106250000D02*
X146200000Y-106362500D01*
X147719998Y-121734501D02*
X147719998Y-122156000D01*
X151460000Y-121980000D02*
X151055000Y-121575000D01*
X151055000Y-121575000D02*
X150095642Y-121575000D01*
X147879899Y-121574600D02*
X147719998Y-121734501D01*
X147900000Y-120550000D02*
X147719998Y-120730002D01*
X150095642Y-121575000D02*
X150095242Y-121574600D01*
X150095242Y-121574600D02*
X147879899Y-121574600D01*
X147719998Y-120730002D02*
X147719998Y-122156000D01*
X143219999Y-121149999D02*
X143319998Y-121050000D01*
X145649997Y-106250000D02*
X145450001Y-106250000D01*
X143219999Y-122156000D02*
X143219999Y-121149999D01*
X144850000Y-106850001D02*
X144850000Y-107312500D01*
X145450001Y-106250000D02*
X144850000Y-106850001D01*
X146275000Y-104925000D02*
X144450000Y-106750000D01*
X142219998Y-122156000D02*
X142219998Y-122712400D01*
X148687400Y-123250000D02*
X148800000Y-123137400D01*
X142219998Y-122712400D02*
X142757598Y-123250000D01*
X144450000Y-106750000D02*
X144450000Y-107312500D01*
X142757598Y-123250000D02*
X148687400Y-123250000D01*
D58*
X137536446Y-116447500D02*
X133492501Y-116447500D01*
X133492501Y-116447500D02*
X133367501Y-116322500D01*
X138850000Y-115133946D02*
X137536446Y-116447500D01*
X138850000Y-115087500D02*
X138850000Y-115133946D01*
X133180000Y-115322500D02*
X132505000Y-115322500D01*
D57*
X133413932Y-116322500D02*
X132505000Y-116322500D01*
X134036432Y-115700000D02*
X133413932Y-116322500D01*
D58*
X132505000Y-116322500D02*
X133180000Y-116322500D01*
X133367501Y-116322500D02*
X132505000Y-116322500D01*
X133180000Y-116322500D02*
X133230000Y-116272500D01*
D57*
X136400000Y-115700000D02*
X134036432Y-115700000D01*
D58*
X133230000Y-116272500D02*
X133230000Y-115372500D01*
X133230000Y-115372500D02*
X133180000Y-115322500D01*
D57*
X142719998Y-120900002D02*
X142719998Y-122156000D01*
X145304657Y-105329657D02*
X144050000Y-106584314D01*
X144050000Y-106584314D02*
X144050000Y-107312500D01*
X143500000Y-120120000D02*
X142719998Y-120900002D01*
X142719998Y-122156000D02*
X142719998Y-121500000D01*
X147219999Y-122156000D02*
X147219999Y-119930001D01*
X147900000Y-119783700D02*
X147900000Y-119250000D01*
X151824600Y-121324600D02*
X149440900Y-121324600D01*
X149440900Y-121324600D02*
X147900000Y-119783700D01*
X152460000Y-121960000D02*
X151824600Y-121324600D01*
X147219999Y-119930001D02*
X147900000Y-119250000D01*
X144300000Y-104525000D02*
X144250000Y-104575000D01*
X137745343Y-103620343D02*
X138379657Y-103620343D01*
X146775000Y-106900000D02*
X147221188Y-106453812D01*
X145937500Y-108800000D02*
X146399999Y-108800000D01*
X146775000Y-108424999D02*
X146775000Y-106900000D01*
X146440686Y-104525000D02*
X144300000Y-104525000D01*
X147221188Y-105305502D02*
X146440686Y-104525000D01*
X146399999Y-108800000D02*
X146775000Y-108424999D01*
X138379657Y-103620343D02*
X138650000Y-103350000D01*
X147221188Y-106453812D02*
X147221188Y-105305502D01*
X137250000Y-104450000D02*
X137450000Y-104250000D01*
X131600000Y-101660000D02*
X131600000Y-102200000D01*
X131600000Y-102200000D02*
X133650000Y-104250000D01*
X147308015Y-112241985D02*
X147308015Y-109072566D01*
X133650000Y-104250000D02*
X133814316Y-104250000D01*
X147308015Y-112241985D02*
X147150000Y-112400000D01*
X147308015Y-109072566D02*
X147433462Y-108947119D01*
X137250000Y-105400000D02*
X137250000Y-104450000D01*
X147150000Y-112400000D02*
X145937500Y-112400000D01*
X132600000Y-102469999D02*
X136180001Y-106050000D01*
X137550000Y-106050000D02*
X137900000Y-105700000D01*
X136180001Y-106050000D02*
X137550000Y-106050000D01*
X132600000Y-101660000D02*
X132600000Y-102469999D01*
X137900000Y-105700000D02*
X137900000Y-105400000D01*
X147050000Y-110555025D02*
X147050000Y-111900000D01*
X134507158Y-104942842D02*
X133847867Y-104942842D01*
X146479030Y-112000000D02*
X145937500Y-112000000D01*
X136600000Y-105400000D02*
X136600000Y-104774656D01*
X147050000Y-111900000D02*
X146900000Y-112050000D01*
X146908015Y-110413040D02*
X147050000Y-110555025D01*
X133847867Y-104942842D02*
X130600000Y-101694975D01*
X146900000Y-112050000D02*
X146529030Y-112050000D01*
X146529030Y-112050000D02*
X146479030Y-112000000D01*
X146908015Y-110035616D02*
X146908015Y-110413040D01*
X136600000Y-104774656D02*
X136724656Y-104650000D01*
X130600000Y-101694975D02*
X130600000Y-101660000D01*
X140450000Y-106560000D02*
X140450000Y-107312500D01*
X146353553Y-109200000D02*
X145937500Y-109200000D01*
X145937500Y-114400000D02*
X145250000Y-115087500D01*
X127401000Y-99299000D02*
X127450000Y-99250000D01*
X147620000Y-105120000D02*
X146625000Y-104125000D01*
X136850000Y-110600000D02*
X137050000Y-110400000D01*
X136150000Y-104650000D02*
X137900000Y-102900000D01*
X142950000Y-104740000D02*
X142950000Y-104735686D01*
X137050000Y-110400000D02*
X138162500Y-110400000D01*
X141219998Y-122156000D02*
X141219998Y-122997376D01*
X127399000Y-125499000D02*
X127400000Y-125500000D01*
X137900000Y-102900000D02*
X137900000Y-102600000D01*
X130635000Y-125990000D02*
X130600000Y-126025000D01*
X127401000Y-95150000D02*
X127401000Y-96251000D01*
X157539000Y-95157000D02*
X157539000Y-96289000D01*
X157539000Y-124378500D02*
X157539000Y-123289000D01*
X145937500Y-109200000D02*
X145937500Y-109600000D01*
X133180000Y-100640000D02*
X133325000Y-100495000D01*
X132600000Y-100640000D02*
X133180000Y-100640000D01*
X145937500Y-114400000D02*
X145937500Y-115237500D01*
X131250000Y-125990000D02*
X130635000Y-125990000D01*
X157539000Y-123289000D02*
X157525000Y-123275000D01*
X151300000Y-114503554D02*
X152153554Y-113650000D01*
X127399000Y-129621500D02*
X127399000Y-128499000D01*
X140050000Y-115087500D02*
X140050000Y-115684313D01*
X127399000Y-128499000D02*
X127375000Y-128475000D01*
X144500000Y-119125000D02*
X144025000Y-119600000D01*
X127401000Y-100400000D02*
X127401000Y-99299000D01*
X144500000Y-119090000D02*
X144500000Y-119125000D01*
X149755000Y-114185000D02*
X149755000Y-115030000D01*
X149155000Y-111975000D02*
X150965000Y-111975000D01*
X138162500Y-111600000D02*
X137725000Y-111600000D01*
X149755000Y-115030000D02*
X149860000Y-115135000D01*
X155300000Y-122000000D02*
X156200000Y-122000000D01*
X132300000Y-99400000D02*
X132200000Y-99300000D01*
X133040000Y-99400000D02*
X132300000Y-99400000D01*
X141219998Y-122997376D02*
X141240778Y-123018156D01*
X138162500Y-110400000D02*
X137500000Y-110400000D01*
X157539000Y-96289000D02*
X157550000Y-96300000D01*
X134945000Y-122180000D02*
X134975000Y-122150000D01*
X138162500Y-111600000D02*
X138162500Y-112000000D01*
X136850000Y-110600000D02*
X136850000Y-111204765D01*
X139250000Y-106800000D02*
X138900000Y-106450000D01*
X137900000Y-102600000D02*
X138150000Y-102600000D01*
X136850000Y-111204765D02*
X137372618Y-111727383D01*
X152300000Y-116000000D02*
X152350000Y-116000000D01*
X149860000Y-115135000D02*
X151030686Y-115135000D01*
X138150000Y-102600000D02*
X138500000Y-102250000D01*
X151892200Y-119400000D02*
X152725000Y-119400000D01*
X154200000Y-120430000D02*
X154200000Y-121000000D01*
X138162500Y-112000000D02*
X137645235Y-112000000D01*
X151515000Y-112510000D02*
X152025000Y-112000000D01*
X152350000Y-116000000D02*
X152875000Y-115475000D01*
X127399000Y-124371500D02*
X127399000Y-125499000D01*
X145937500Y-115237500D02*
X146025000Y-115325000D01*
X153150000Y-102920000D02*
X152420000Y-102920000D01*
X156200000Y-122000000D02*
X156225000Y-121975000D01*
X147303553Y-108250000D02*
X146353553Y-109200000D01*
X137700001Y-111200000D02*
X137375000Y-110874999D01*
X154550000Y-111600000D02*
X154875000Y-111925000D01*
X155040400Y-115330820D02*
X154230820Y-115330820D01*
X132600000Y-100640000D02*
X131600000Y-100640000D01*
X154230820Y-115330820D02*
X153800000Y-114900000D01*
X127401000Y-96251000D02*
X127450000Y-96300000D01*
X148980000Y-111800000D02*
X149155000Y-111975000D01*
X143089682Y-119100000D02*
X142784240Y-118794558D01*
X154200000Y-111600000D02*
X154550000Y-111600000D01*
X137645235Y-112000000D02*
X137372618Y-111727383D01*
X137375000Y-110874999D02*
X137375000Y-110751114D01*
X132200000Y-99275000D02*
X132175000Y-99250000D01*
X152025686Y-112510000D02*
X151500000Y-112510000D01*
X139250000Y-107312500D02*
X139250000Y-106800000D01*
X157539000Y-100407000D02*
X157539000Y-99286000D01*
X157539000Y-129628500D02*
X157539000Y-128464000D01*
X152365686Y-113650000D02*
X152600000Y-113415686D01*
X131600000Y-100640000D02*
X130600000Y-100640000D01*
X150965000Y-111975000D02*
X151500000Y-112510000D01*
X147620000Y-108250000D02*
X147620000Y-107300000D01*
X147620000Y-107300000D02*
X147620000Y-105120000D01*
X132200000Y-99300000D02*
X132200000Y-99275000D01*
X152600000Y-113415686D02*
X152600000Y-113084314D01*
X137500000Y-110400000D02*
X137400000Y-110300000D01*
X157539000Y-99286000D02*
X157550000Y-99275000D01*
X152420000Y-102920000D02*
X152400000Y-102900000D01*
X151030686Y-115135000D02*
X151300000Y-114865686D01*
X142950000Y-104735686D02*
X143450000Y-104235686D01*
X154200000Y-121000000D02*
X154225000Y-121025000D01*
X150490000Y-113450000D02*
X149755000Y-114185000D01*
X137725000Y-111600000D02*
X137375000Y-111250000D01*
X135850000Y-104650000D02*
X136150000Y-104650000D01*
X140950000Y-106060000D02*
X140450000Y-106560000D01*
X147620000Y-108250000D02*
X147303553Y-108250000D01*
X140719999Y-122156000D02*
X140719999Y-122869999D01*
X138162500Y-111600000D02*
X138162500Y-111200000D01*
X138162500Y-111200000D02*
X137700001Y-111200000D01*
X143500000Y-119100000D02*
X143089682Y-119100000D01*
X157539000Y-128464000D02*
X157500000Y-128425000D01*
X151500000Y-112510000D02*
X151515000Y-112510000D01*
X141565000Y-106060000D02*
X141600000Y-106025000D01*
X140050000Y-115684313D02*
X140307842Y-115942155D01*
X152600000Y-113084314D02*
X152025686Y-112510000D01*
X152153554Y-113650000D02*
X152365686Y-113650000D01*
X140950000Y-106060000D02*
X141565000Y-106060000D01*
X151300000Y-114865686D02*
X151300000Y-114503554D01*
X140719999Y-122869999D02*
X140775000Y-122925000D01*
X134300000Y-122180000D02*
X134945000Y-122180000D01*
X142357000Y-100407000D02*
X139368000Y-100407000D01*
X138162500Y-112800000D02*
X137152927Y-112800000D01*
X130020712Y-104021922D02*
X130020712Y-100315720D01*
X137152927Y-112800000D02*
X134495729Y-110142802D01*
X130020712Y-100315720D02*
X130241432Y-100095000D01*
X130020712Y-104021922D02*
X134586895Y-108588105D01*
X157502148Y-102000000D02*
X157760000Y-102000000D01*
X135500000Y-100500000D02*
X134119224Y-100500000D01*
X155909148Y-100407000D02*
X157502148Y-102000000D01*
X134119224Y-100500000D02*
X133714224Y-100095000D01*
X155839000Y-100407000D02*
X142357000Y-100407000D01*
X139368000Y-100407000D02*
X139225000Y-100550000D01*
X133714224Y-100095000D02*
X130241432Y-100095000D01*
X155839000Y-100407000D02*
X155909148Y-100407000D01*
X137000170Y-113200000D02*
X134505196Y-110705025D01*
X129099000Y-111756025D02*
X129099000Y-124371500D01*
X134300171Y-110500000D02*
X130355025Y-110500000D01*
X138162500Y-113200000D02*
X137000170Y-113200000D01*
X131250000Y-124760000D02*
X129487500Y-124760000D01*
X130355025Y-110500000D02*
X129099000Y-111756025D01*
X129487500Y-124760000D02*
X129099000Y-124371500D01*
X134505196Y-110705025D02*
X134300171Y-110500000D01*
X135499358Y-109450000D02*
X134883104Y-109450000D01*
X145937500Y-112800000D02*
X146850000Y-112800000D01*
X134883104Y-109450000D02*
X129191552Y-103758448D01*
X129191552Y-103758448D02*
X127433104Y-102000000D01*
X136345000Y-111270000D02*
X136345000Y-110295642D01*
X136345000Y-110295642D02*
X135499358Y-109450000D01*
X137475000Y-112400000D02*
X136800000Y-111725000D01*
X129101000Y-100400000D02*
X129101000Y-103667896D01*
X136800000Y-111725000D02*
X136345000Y-111270000D01*
X138162500Y-112400000D02*
X137475000Y-112400000D01*
X127433104Y-102000000D02*
X127240000Y-102000000D01*
X129101000Y-103667896D02*
X129191552Y-103758448D01*
X147286932Y-129049500D02*
X150086432Y-126250000D01*
X155839000Y-124378500D02*
X155111500Y-124378500D01*
X130500000Y-110850000D02*
X130050000Y-111300000D01*
X155111500Y-124378500D02*
X153240000Y-126250000D01*
X138162500Y-113600000D02*
X136905196Y-113600000D01*
X130050000Y-121600000D02*
X137499500Y-129049500D01*
X134155196Y-110850000D02*
X130500000Y-110850000D01*
X150086432Y-126250000D02*
X153240000Y-126250000D01*
X130050000Y-111300000D02*
X130050000Y-121600000D01*
X136905196Y-113600000D02*
X134155196Y-110850000D01*
X137499500Y-129049500D02*
X147286932Y-129049500D01*
X132505000Y-117822500D02*
X133230000Y-117822500D01*
X133800000Y-118392500D02*
X133800000Y-119690000D01*
X133230000Y-117822500D02*
X133800000Y-118392500D01*
X133990000Y-114750000D02*
X132577500Y-114750000D01*
X132577500Y-114750000D02*
X132505000Y-114822500D01*
X149250000Y-114650000D02*
X148150000Y-114650000D01*
X147100000Y-113600000D02*
X145937500Y-113600000D01*
X148150000Y-114650000D02*
X147875000Y-114375000D01*
X147875000Y-114375000D02*
X147100000Y-113600000D01*
X152099950Y-107088000D02*
X151716949Y-106704999D01*
X142950000Y-105760000D02*
X143700000Y-105010000D01*
X143700000Y-104559314D02*
X144534314Y-103725000D01*
X142850000Y-105860000D02*
X142950000Y-105760000D01*
X151716949Y-106704999D02*
X151396440Y-106704999D01*
X142850000Y-107312500D02*
X142850000Y-105860000D01*
X152099950Y-107619000D02*
X152099950Y-107088000D01*
X143700000Y-105010000D02*
X143700000Y-104559314D01*
X144534314Y-103725000D02*
X147041562Y-103725000D01*
X147041562Y-103725000D02*
X149431283Y-106114721D01*
X152500000Y-110408244D02*
X153016756Y-110925000D01*
X148710000Y-117075000D02*
X146975000Y-117075000D01*
X143969394Y-116275000D02*
X140550000Y-116275000D01*
X137825000Y-115628614D02*
X137825000Y-114737500D01*
X138617832Y-116250000D02*
X138521416Y-116346416D01*
X137689307Y-115764307D02*
X137825000Y-115628614D01*
X152363569Y-111436430D02*
X151553570Y-111436430D01*
X144139354Y-116444960D02*
X143969394Y-116275000D01*
X152500000Y-109981200D02*
X152500000Y-110408244D01*
X137825000Y-114737500D02*
X138162500Y-114400000D01*
X151553570Y-111436430D02*
X151500000Y-111490000D01*
X146975000Y-117075000D02*
X146600000Y-116700000D01*
X140470343Y-116354657D02*
X139495343Y-116354657D01*
X150000000Y-115785000D02*
X148710000Y-117075000D01*
X139495343Y-116354657D02*
X139390686Y-116250000D01*
X140550000Y-116275000D02*
X140470343Y-116354657D01*
X139390686Y-116250000D02*
X138617832Y-116250000D01*
X149000000Y-110480000D02*
X150230000Y-110480000D01*
X150230000Y-110480000D02*
X150250000Y-110500000D01*
X155450000Y-105274999D02*
X155450000Y-104211224D01*
X155450000Y-104211224D02*
X154788776Y-103550000D01*
X154788776Y-103550000D02*
X154612500Y-103550000D01*
X154612500Y-105450000D02*
X155274999Y-105450000D01*
X150250000Y-110500000D02*
X151181100Y-110500000D01*
X151181100Y-110500000D02*
X151699900Y-109981200D01*
X155274999Y-105450000D02*
X155450000Y-105274999D01*
X154612500Y-105450000D02*
X153675000Y-106387500D01*
X153675000Y-106387500D02*
X153675000Y-109000000D01*
X152900050Y-106910050D02*
X152900050Y-107619000D01*
X151750000Y-105760000D02*
X152900050Y-106910050D01*
X152500000Y-107091526D02*
X152500000Y-107619000D01*
X150500000Y-105770000D02*
X151035000Y-106305000D01*
X151713474Y-106305000D02*
X152500000Y-107091526D01*
X151035000Y-106305000D02*
X151713474Y-106305000D01*
X147650000Y-113200000D02*
X145937500Y-113200000D01*
X147875000Y-112975000D02*
X148620000Y-112975000D01*
X147875000Y-112975000D02*
X147650000Y-113200000D01*
X148620000Y-112975000D02*
X149325000Y-113680000D01*
X147708015Y-111025000D02*
X147708015Y-110751985D01*
X147708015Y-110751985D02*
X148000000Y-110460000D01*
X146550000Y-111600000D02*
X146650000Y-111500000D01*
X145937500Y-111600000D02*
X146550000Y-111600000D01*
X152577000Y-128337000D02*
X152250000Y-128010000D01*
X153638000Y-128337000D02*
X152577000Y-128337000D01*
X140200000Y-101485000D02*
X140200000Y-102626002D01*
X140285000Y-101400000D02*
X140200000Y-101485000D01*
X134557238Y-107992762D02*
X134986895Y-108422419D01*
X134986895Y-108836895D02*
X135350000Y-109200000D01*
X130450000Y-121350000D02*
X130450000Y-111726949D01*
X134986895Y-108422419D02*
X134986895Y-108836895D01*
X135350000Y-109200000D02*
X138162500Y-109200000D01*
X132832843Y-123732843D02*
X130450000Y-121350000D01*
X133000000Y-125980000D02*
X133000000Y-125350000D01*
X151260000Y-127000000D02*
X151260000Y-128694330D01*
X151260000Y-128694330D02*
X150878271Y-129076059D01*
X147876059Y-129026059D02*
X147926059Y-129076059D01*
X129650000Y-119000000D02*
X129650001Y-118999999D01*
X138315186Y-128649500D02*
X146825000Y-128649500D01*
X147926059Y-129076059D02*
X150878271Y-129076059D01*
X138162500Y-109600000D02*
X137275000Y-109600000D01*
X129650000Y-119875000D02*
X129650000Y-119000000D01*
X129650001Y-118999999D02*
X129650001Y-112000000D01*
X138315186Y-128649500D02*
X131332843Y-121667157D01*
X129650001Y-112000000D02*
X129650001Y-111770710D01*
X155052500Y-126990000D02*
X152250000Y-126990000D01*
X153350000Y-114936658D02*
X153350000Y-121274100D01*
X152150000Y-114369240D02*
X151134240Y-115385000D01*
X146286054Y-115725000D02*
X144287392Y-115725000D01*
X154204700Y-122469200D02*
X155064000Y-123328500D01*
X155064000Y-123328500D02*
X156414000Y-123328500D01*
X156414000Y-123328500D02*
X156614000Y-123528500D01*
X146626054Y-115385000D02*
X146286054Y-115725000D01*
X156614000Y-123528500D02*
X156614000Y-125428500D01*
X152150000Y-114075000D02*
X152150000Y-114369240D01*
X154204700Y-122128800D02*
X154204700Y-122469200D01*
X153350000Y-114936658D02*
X152488342Y-114075000D01*
X144287392Y-115725000D02*
X144050000Y-115487608D01*
X144050000Y-115487608D02*
X144050000Y-115087500D01*
X153350000Y-121274100D02*
X154204700Y-122128800D01*
X152488342Y-114075000D02*
X152150000Y-114075000D01*
X156614000Y-125428500D02*
X155052500Y-126990000D01*
X151134240Y-115385000D02*
X146626054Y-115385000D01*
X140200000Y-103800000D02*
X140050000Y-103950000D01*
X140050000Y-103950000D02*
X140050000Y-107312500D01*
X135675000Y-106550000D02*
X135800000Y-106425000D01*
X135675000Y-107125000D02*
X135675000Y-106550000D01*
X137962500Y-106425000D02*
X138850000Y-107312500D01*
X135800000Y-106425000D02*
X137962500Y-106425000D01*
X137200000Y-108000000D02*
X138162500Y-108000000D01*
X136725000Y-108475000D02*
X137200000Y-108000000D01*
X153300100Y-107619000D02*
X153300100Y-106060100D01*
X153300100Y-106060100D02*
X153000000Y-105760000D01*
X135384000Y-104000000D02*
X135850000Y-104000000D01*
X134000000Y-102616000D02*
X135384000Y-104000000D01*
X136550000Y-101600000D02*
X134000000Y-101600000D01*
X137250000Y-102300000D02*
X136550000Y-101600000D01*
X137250000Y-102600000D02*
X137250000Y-102300000D01*
M02*
