G04 #@! TF.GenerationSoftware,KiCad,Pcbnew,8.0.2*
G04 #@! TF.CreationDate,2024-10-06T19:59:24-06:00*
G04 #@! TF.ProjectId,kicad,6b696361-642e-46b6-9963-61645f706362,rev?*
G04 #@! TF.SameCoordinates,Original*
G04 #@! TF.FileFunction,Soldermask,Top*
G04 #@! TF.FilePolarity,Negative*
%FSLAX46Y46*%
G04 Gerber Fmt 4.6, Leading zero omitted, Abs format (unit mm)*
G04 Created by KiCad (PCBNEW 8.0.2) date 2024-10-06 19:59:24*
%MOMM*%
%LPD*%
G01*
G04 APERTURE LIST*
G04 Aperture macros list*
%AMRoundRect*
0 Rectangle with rounded corners*
0 $1 Rounding radius*
0 $2 $3 $4 $5 $6 $7 $8 $9 X,Y pos of 4 corners*
0 Add a 4 corners polygon primitive as box body*
4,1,4,$2,$3,$4,$5,$6,$7,$8,$9,$2,$3,0*
0 Add four circle primitives for the rounded corners*
1,1,$1+$1,$2,$3*
1,1,$1+$1,$4,$5*
1,1,$1+$1,$6,$7*
1,1,$1+$1,$8,$9*
0 Add four rect primitives between the rounded corners*
20,1,$1+$1,$2,$3,$4,$5,0*
20,1,$1+$1,$4,$5,$6,$7,0*
20,1,$1+$1,$6,$7,$8,$9,0*
20,1,$1+$1,$8,$9,$2,$3,0*%
%AMFreePoly0*
4,1,6,1.000000,0.000000,0.500000,-0.750000,-0.500000,-0.750000,-0.500000,0.750000,0.500000,0.750000,1.000000,0.000000,1.000000,0.000000,$1*%
%AMFreePoly1*
4,1,6,0.500000,-0.750000,-0.650000,-0.750000,-0.150000,0.000000,-0.650000,0.750000,0.500000,0.750000,0.500000,-0.750000,0.500000,-0.750000,$1*%
G04 Aperture macros list end*
%ADD10C,0.010000*%
%ADD11R,1.000000X1.800000*%
%ADD12R,0.990600X2.692400*%
%ADD13RoundRect,0.237500X0.237500X-0.287500X0.237500X0.287500X-0.237500X0.287500X-0.237500X-0.287500X0*%
%ADD14RoundRect,0.237500X0.237500X-0.250000X0.237500X0.250000X-0.237500X0.250000X-0.237500X-0.250000X0*%
%ADD15C,1.500000*%
%ADD16RoundRect,0.150000X0.200000X-0.150000X0.200000X0.150000X-0.200000X0.150000X-0.200000X-0.150000X0*%
%ADD17RoundRect,0.237500X-0.237500X0.250000X-0.237500X-0.250000X0.237500X-0.250000X0.237500X0.250000X0*%
%ADD18C,0.650000*%
%ADD19O,1.204000X2.304000*%
%ADD20O,1.204000X2.004000*%
%ADD21RoundRect,0.237500X-0.237500X0.300000X-0.237500X-0.300000X0.237500X-0.300000X0.237500X0.300000X0*%
%ADD22RoundRect,0.250000X0.350000X0.625000X-0.350000X0.625000X-0.350000X-0.625000X0.350000X-0.625000X0*%
%ADD23O,1.200000X1.750000*%
%ADD24RoundRect,0.237500X0.250000X0.237500X-0.250000X0.237500X-0.250000X-0.237500X0.250000X-0.237500X0*%
%ADD25FreePoly0,270.000000*%
%ADD26FreePoly1,270.000000*%
%ADD27RoundRect,0.250000X-0.475000X0.337500X-0.475000X-0.337500X0.475000X-0.337500X0.475000X0.337500X0*%
%ADD28RoundRect,0.225000X0.375000X-0.225000X0.375000X0.225000X-0.375000X0.225000X-0.375000X-0.225000X0*%
%ADD29RoundRect,0.225000X-0.375000X0.225000X-0.375000X-0.225000X0.375000X-0.225000X0.375000X0.225000X0*%
%ADD30RoundRect,0.250000X-0.600000X-0.725000X0.600000X-0.725000X0.600000X0.725000X-0.600000X0.725000X0*%
%ADD31O,1.700000X1.950000*%
%ADD32RoundRect,0.250000X0.337500X0.475000X-0.337500X0.475000X-0.337500X-0.475000X0.337500X-0.475000X0*%
%ADD33R,1.500000X1.500000*%
%ADD34FreePoly0,0.000000*%
%ADD35FreePoly0,180.000000*%
%ADD36RoundRect,0.237500X-0.300000X-0.237500X0.300000X-0.237500X0.300000X0.237500X-0.300000X0.237500X0*%
%ADD37RoundRect,0.250000X0.725000X-0.600000X0.725000X0.600000X-0.725000X0.600000X-0.725000X-0.600000X0*%
%ADD38O,1.950000X1.700000*%
%ADD39RoundRect,0.250000X-0.600000X-0.750000X0.600000X-0.750000X0.600000X0.750000X-0.600000X0.750000X0*%
%ADD40O,1.700000X2.000000*%
%ADD41RoundRect,0.237500X-0.250000X-0.237500X0.250000X-0.237500X0.250000X0.237500X-0.250000X0.237500X0*%
%ADD42R,0.350000X0.950000*%
%ADD43R,0.950000X0.350000*%
%ADD44FreePoly1,180.000000*%
%ADD45RoundRect,0.250000X0.600000X0.725000X-0.600000X0.725000X-0.600000X-0.725000X0.600000X-0.725000X0*%
%ADD46RoundRect,0.250000X-0.725000X0.600000X-0.725000X-0.600000X0.725000X-0.600000X0.725000X0.600000X0*%
%ADD47RoundRect,0.250000X-0.337500X-0.475000X0.337500X-0.475000X0.337500X0.475000X-0.337500X0.475000X0*%
%ADD48RoundRect,0.250000X0.475000X-0.337500X0.475000X0.337500X-0.475000X0.337500X-0.475000X-0.337500X0*%
%ADD49RoundRect,0.112500X-0.112500X-0.637500X0.112500X-0.637500X0.112500X0.637500X-0.112500X0.637500X0*%
%ADD50C,0.230000*%
%ADD51RoundRect,0.150000X-0.825000X-0.150000X0.825000X-0.150000X0.825000X0.150000X-0.825000X0.150000X0*%
%ADD52RoundRect,0.150000X0.512500X0.150000X-0.512500X0.150000X-0.512500X-0.150000X0.512500X-0.150000X0*%
%ADD53R,0.838200X0.355600*%
%ADD54R,0.838200X0.406400*%
G04 APERTURE END LIST*
D10*
X183150000Y-54880000D02*
X182450000Y-54880000D01*
X182450000Y-53630000D01*
X183150000Y-53630000D01*
X183150000Y-54880000D01*
G36*
X183150000Y-54880000D02*
G01*
X182450000Y-54880000D01*
X182450000Y-53630000D01*
X183150000Y-53630000D01*
X183150000Y-54880000D01*
G37*
X183950000Y-54880000D02*
X183250000Y-54880000D01*
X183250000Y-53630000D01*
X183950000Y-53630000D01*
X183950000Y-54880000D01*
G36*
X183950000Y-54880000D02*
G01*
X183250000Y-54880000D01*
X183250000Y-53630000D01*
X183950000Y-53630000D01*
X183950000Y-54880000D01*
G37*
X184450000Y-54880000D02*
X184050000Y-54880000D01*
X184050000Y-53630000D01*
X184450000Y-53630000D01*
X184450000Y-54880000D01*
G36*
X184450000Y-54880000D02*
G01*
X184050000Y-54880000D01*
X184050000Y-53630000D01*
X184450000Y-53630000D01*
X184450000Y-54880000D01*
G37*
X184950000Y-54880000D02*
X184550000Y-54880000D01*
X184550000Y-53630000D01*
X184950000Y-53630000D01*
X184950000Y-54880000D01*
G36*
X184950000Y-54880000D02*
G01*
X184550000Y-54880000D01*
X184550000Y-53630000D01*
X184950000Y-53630000D01*
X184950000Y-54880000D01*
G37*
X185450000Y-54880000D02*
X185050000Y-54880000D01*
X185050000Y-53630000D01*
X185450000Y-53630000D01*
X185450000Y-54880000D01*
G36*
X185450000Y-54880000D02*
G01*
X185050000Y-54880000D01*
X185050000Y-53630000D01*
X185450000Y-53630000D01*
X185450000Y-54880000D01*
G37*
X185950000Y-54880000D02*
X185550000Y-54880000D01*
X185550000Y-53630000D01*
X185950000Y-53630000D01*
X185950000Y-54880000D01*
G36*
X185950000Y-54880000D02*
G01*
X185550000Y-54880000D01*
X185550000Y-53630000D01*
X185950000Y-53630000D01*
X185950000Y-54880000D01*
G37*
X186450000Y-54880000D02*
X186050000Y-54880000D01*
X186050000Y-53630000D01*
X186450000Y-53630000D01*
X186450000Y-54880000D01*
G36*
X186450000Y-54880000D02*
G01*
X186050000Y-54880000D01*
X186050000Y-53630000D01*
X186450000Y-53630000D01*
X186450000Y-54880000D01*
G37*
X186950000Y-54880000D02*
X186550000Y-54880000D01*
X186550000Y-53630000D01*
X186950000Y-53630000D01*
X186950000Y-54880000D01*
G36*
X186950000Y-54880000D02*
G01*
X186550000Y-54880000D01*
X186550000Y-53630000D01*
X186950000Y-53630000D01*
X186950000Y-54880000D01*
G37*
X187450000Y-54880000D02*
X187050000Y-54880000D01*
X187050000Y-53630000D01*
X187450000Y-53630000D01*
X187450000Y-54880000D01*
G36*
X187450000Y-54880000D02*
G01*
X187050000Y-54880000D01*
X187050000Y-53630000D01*
X187450000Y-53630000D01*
X187450000Y-54880000D01*
G37*
X187950000Y-54880000D02*
X187550000Y-54880000D01*
X187550000Y-53630000D01*
X187950000Y-53630000D01*
X187950000Y-54880000D01*
G36*
X187950000Y-54880000D02*
G01*
X187550000Y-54880000D01*
X187550000Y-53630000D01*
X187950000Y-53630000D01*
X187950000Y-54880000D01*
G37*
X188750000Y-54880000D02*
X188050000Y-54880000D01*
X188050000Y-53630000D01*
X188750000Y-53630000D01*
X188750000Y-54880000D01*
G36*
X188750000Y-54880000D02*
G01*
X188050000Y-54880000D01*
X188050000Y-53630000D01*
X188750000Y-53630000D01*
X188750000Y-54880000D01*
G37*
X189550000Y-54880000D02*
X188850000Y-54880000D01*
X188850000Y-53630000D01*
X189550000Y-53630000D01*
X189550000Y-54880000D01*
G36*
X189550000Y-54880000D02*
G01*
X188850000Y-54880000D01*
X188850000Y-53630000D01*
X189550000Y-53630000D01*
X189550000Y-54880000D01*
G37*
X145320000Y-131485000D02*
X145320000Y-131488000D01*
X145320000Y-131490000D01*
X145321000Y-131493000D01*
X145321000Y-131495000D01*
X145322000Y-131498000D01*
X145322000Y-131500000D01*
X145323000Y-131503000D01*
X145324000Y-131505000D01*
X145325000Y-131508000D01*
X145327000Y-131510000D01*
X145328000Y-131512000D01*
X145330000Y-131514000D01*
X145331000Y-131516000D01*
X145333000Y-131518000D01*
X145335000Y-131520000D01*
X145337000Y-131522000D01*
X145339000Y-131524000D01*
X145341000Y-131525000D01*
X145343000Y-131527000D01*
X145345000Y-131528000D01*
X145347000Y-131530000D01*
X145350000Y-131531000D01*
X145352000Y-131532000D01*
X145355000Y-131533000D01*
X145357000Y-131533000D01*
X145360000Y-131534000D01*
X145362000Y-131534000D01*
X145365000Y-131535000D01*
X145367000Y-131535000D01*
X145370000Y-131535000D01*
X145420000Y-131535000D01*
X145423000Y-131535000D01*
X145425000Y-131535000D01*
X145428000Y-131534000D01*
X145430000Y-131534000D01*
X145433000Y-131533000D01*
X145435000Y-131533000D01*
X145438000Y-131532000D01*
X145440000Y-131531000D01*
X145443000Y-131530000D01*
X145445000Y-131528000D01*
X145447000Y-131527000D01*
X145449000Y-131525000D01*
X145451000Y-131524000D01*
X145453000Y-131522000D01*
X145455000Y-131520000D01*
X145457000Y-131518000D01*
X145459000Y-131516000D01*
X145460000Y-131514000D01*
X145462000Y-131512000D01*
X145463000Y-131510000D01*
X145465000Y-131508000D01*
X145466000Y-131505000D01*
X145467000Y-131503000D01*
X145468000Y-131500000D01*
X145468000Y-131498000D01*
X145469000Y-131495000D01*
X145469000Y-131493000D01*
X145470000Y-131490000D01*
X145470000Y-131488000D01*
X145470000Y-131485000D01*
X145470000Y-131325000D01*
X146610000Y-131325000D01*
X146610000Y-132675000D01*
X145470000Y-132675000D01*
X145470000Y-132515000D01*
X145470000Y-132512000D01*
X145470000Y-132510000D01*
X145469000Y-132507000D01*
X145469000Y-132505000D01*
X145468000Y-132502000D01*
X145468000Y-132500000D01*
X145467000Y-132497000D01*
X145466000Y-132495000D01*
X145465000Y-132492000D01*
X145463000Y-132490000D01*
X145462000Y-132488000D01*
X145460000Y-132486000D01*
X145459000Y-132484000D01*
X145457000Y-132482000D01*
X145455000Y-132480000D01*
X145453000Y-132478000D01*
X145451000Y-132476000D01*
X145449000Y-132475000D01*
X145447000Y-132473000D01*
X145445000Y-132472000D01*
X145443000Y-132470000D01*
X145440000Y-132469000D01*
X145438000Y-132468000D01*
X145435000Y-132467000D01*
X145433000Y-132467000D01*
X145430000Y-132466000D01*
X145428000Y-132466000D01*
X145425000Y-132465000D01*
X145423000Y-132465000D01*
X145420000Y-132465000D01*
X145370000Y-132465000D01*
X145367000Y-132465000D01*
X145365000Y-132465000D01*
X145362000Y-132466000D01*
X145360000Y-132466000D01*
X145357000Y-132467000D01*
X145355000Y-132467000D01*
X145352000Y-132468000D01*
X145350000Y-132469000D01*
X145347000Y-132470000D01*
X145345000Y-132472000D01*
X145343000Y-132473000D01*
X145341000Y-132475000D01*
X145339000Y-132476000D01*
X145337000Y-132478000D01*
X145335000Y-132480000D01*
X145333000Y-132482000D01*
X145331000Y-132484000D01*
X145330000Y-132486000D01*
X145328000Y-132488000D01*
X145327000Y-132490000D01*
X145325000Y-132492000D01*
X145324000Y-132495000D01*
X145323000Y-132497000D01*
X145322000Y-132500000D01*
X145322000Y-132502000D01*
X145321000Y-132505000D01*
X145321000Y-132507000D01*
X145320000Y-132510000D01*
X145320000Y-132512000D01*
X145320000Y-132515000D01*
X145320000Y-132675000D01*
X143970000Y-132675000D01*
X143970000Y-131325000D01*
X145320000Y-131325000D01*
X145320000Y-131485000D01*
G36*
X145320000Y-131485000D02*
G01*
X145320000Y-131488000D01*
X145320000Y-131490000D01*
X145321000Y-131493000D01*
X145321000Y-131495000D01*
X145322000Y-131498000D01*
X145322000Y-131500000D01*
X145323000Y-131503000D01*
X145324000Y-131505000D01*
X145325000Y-131508000D01*
X145327000Y-131510000D01*
X145328000Y-131512000D01*
X145330000Y-131514000D01*
X145331000Y-131516000D01*
X145333000Y-131518000D01*
X145335000Y-131520000D01*
X145337000Y-131522000D01*
X145339000Y-131524000D01*
X145341000Y-131525000D01*
X145343000Y-131527000D01*
X145345000Y-131528000D01*
X145347000Y-131530000D01*
X145350000Y-131531000D01*
X145352000Y-131532000D01*
X145355000Y-131533000D01*
X145357000Y-131533000D01*
X145360000Y-131534000D01*
X145362000Y-131534000D01*
X145365000Y-131535000D01*
X145367000Y-131535000D01*
X145370000Y-131535000D01*
X145420000Y-131535000D01*
X145423000Y-131535000D01*
X145425000Y-131535000D01*
X145428000Y-131534000D01*
X145430000Y-131534000D01*
X145433000Y-131533000D01*
X145435000Y-131533000D01*
X145438000Y-131532000D01*
X145440000Y-131531000D01*
X145443000Y-131530000D01*
X145445000Y-131528000D01*
X145447000Y-131527000D01*
X145449000Y-131525000D01*
X145451000Y-131524000D01*
X145453000Y-131522000D01*
X145455000Y-131520000D01*
X145457000Y-131518000D01*
X145459000Y-131516000D01*
X145460000Y-131514000D01*
X145462000Y-131512000D01*
X145463000Y-131510000D01*
X145465000Y-131508000D01*
X145466000Y-131505000D01*
X145467000Y-131503000D01*
X145468000Y-131500000D01*
X145468000Y-131498000D01*
X145469000Y-131495000D01*
X145469000Y-131493000D01*
X145470000Y-131490000D01*
X145470000Y-131488000D01*
X145470000Y-131485000D01*
X145470000Y-131325000D01*
X146610000Y-131325000D01*
X146610000Y-132675000D01*
X145470000Y-132675000D01*
X145470000Y-132515000D01*
X145470000Y-132512000D01*
X145470000Y-132510000D01*
X145469000Y-132507000D01*
X145469000Y-132505000D01*
X145468000Y-132502000D01*
X145468000Y-132500000D01*
X145467000Y-132497000D01*
X145466000Y-132495000D01*
X145465000Y-132492000D01*
X145463000Y-132490000D01*
X145462000Y-132488000D01*
X145460000Y-132486000D01*
X145459000Y-132484000D01*
X145457000Y-132482000D01*
X145455000Y-132480000D01*
X145453000Y-132478000D01*
X145451000Y-132476000D01*
X145449000Y-132475000D01*
X145447000Y-132473000D01*
X145445000Y-132472000D01*
X145443000Y-132470000D01*
X145440000Y-132469000D01*
X145438000Y-132468000D01*
X145435000Y-132467000D01*
X145433000Y-132467000D01*
X145430000Y-132466000D01*
X145428000Y-132466000D01*
X145425000Y-132465000D01*
X145423000Y-132465000D01*
X145420000Y-132465000D01*
X145370000Y-132465000D01*
X145367000Y-132465000D01*
X145365000Y-132465000D01*
X145362000Y-132466000D01*
X145360000Y-132466000D01*
X145357000Y-132467000D01*
X145355000Y-132467000D01*
X145352000Y-132468000D01*
X145350000Y-132469000D01*
X145347000Y-132470000D01*
X145345000Y-132472000D01*
X145343000Y-132473000D01*
X145341000Y-132475000D01*
X145339000Y-132476000D01*
X145337000Y-132478000D01*
X145335000Y-132480000D01*
X145333000Y-132482000D01*
X145331000Y-132484000D01*
X145330000Y-132486000D01*
X145328000Y-132488000D01*
X145327000Y-132490000D01*
X145325000Y-132492000D01*
X145324000Y-132495000D01*
X145323000Y-132497000D01*
X145322000Y-132500000D01*
X145322000Y-132502000D01*
X145321000Y-132505000D01*
X145321000Y-132507000D01*
X145320000Y-132510000D01*
X145320000Y-132512000D01*
X145320000Y-132515000D01*
X145320000Y-132675000D01*
X143970000Y-132675000D01*
X143970000Y-131325000D01*
X145320000Y-131325000D01*
X145320000Y-131485000D01*
G37*
X145320000Y-133985000D02*
X145320000Y-133988000D01*
X145320000Y-133990000D01*
X145321000Y-133993000D01*
X145321000Y-133995000D01*
X145322000Y-133998000D01*
X145322000Y-134000000D01*
X145323000Y-134003000D01*
X145324000Y-134005000D01*
X145325000Y-134008000D01*
X145327000Y-134010000D01*
X145328000Y-134012000D01*
X145330000Y-134014000D01*
X145331000Y-134016000D01*
X145333000Y-134018000D01*
X145335000Y-134020000D01*
X145337000Y-134022000D01*
X145339000Y-134024000D01*
X145341000Y-134025000D01*
X145343000Y-134027000D01*
X145345000Y-134028000D01*
X145347000Y-134030000D01*
X145350000Y-134031000D01*
X145352000Y-134032000D01*
X145355000Y-134033000D01*
X145357000Y-134033000D01*
X145360000Y-134034000D01*
X145362000Y-134034000D01*
X145365000Y-134035000D01*
X145367000Y-134035000D01*
X145370000Y-134035000D01*
X145420000Y-134035000D01*
X145423000Y-134035000D01*
X145425000Y-134035000D01*
X145428000Y-134034000D01*
X145430000Y-134034000D01*
X145433000Y-134033000D01*
X145435000Y-134033000D01*
X145438000Y-134032000D01*
X145440000Y-134031000D01*
X145443000Y-134030000D01*
X145445000Y-134028000D01*
X145447000Y-134027000D01*
X145449000Y-134025000D01*
X145451000Y-134024000D01*
X145453000Y-134022000D01*
X145455000Y-134020000D01*
X145457000Y-134018000D01*
X145459000Y-134016000D01*
X145460000Y-134014000D01*
X145462000Y-134012000D01*
X145463000Y-134010000D01*
X145465000Y-134008000D01*
X145466000Y-134005000D01*
X145467000Y-134003000D01*
X145468000Y-134000000D01*
X145468000Y-133998000D01*
X145469000Y-133995000D01*
X145469000Y-133993000D01*
X145470000Y-133990000D01*
X145470000Y-133988000D01*
X145470000Y-133985000D01*
X145470000Y-133825000D01*
X146610000Y-133825000D01*
X146610000Y-135175000D01*
X145470000Y-135175000D01*
X145470000Y-135015000D01*
X145470000Y-135012000D01*
X145470000Y-135010000D01*
X145469000Y-135007000D01*
X145469000Y-135005000D01*
X145468000Y-135002000D01*
X145468000Y-135000000D01*
X145467000Y-134997000D01*
X145466000Y-134995000D01*
X145465000Y-134992000D01*
X145463000Y-134990000D01*
X145462000Y-134988000D01*
X145460000Y-134986000D01*
X145459000Y-134984000D01*
X145457000Y-134982000D01*
X145455000Y-134980000D01*
X145453000Y-134978000D01*
X145451000Y-134976000D01*
X145449000Y-134975000D01*
X145447000Y-134973000D01*
X145445000Y-134972000D01*
X145443000Y-134970000D01*
X145440000Y-134969000D01*
X145438000Y-134968000D01*
X145435000Y-134967000D01*
X145433000Y-134967000D01*
X145430000Y-134966000D01*
X145428000Y-134966000D01*
X145425000Y-134965000D01*
X145423000Y-134965000D01*
X145420000Y-134965000D01*
X145370000Y-134965000D01*
X145367000Y-134965000D01*
X145365000Y-134965000D01*
X145362000Y-134966000D01*
X145360000Y-134966000D01*
X145357000Y-134967000D01*
X145355000Y-134967000D01*
X145352000Y-134968000D01*
X145350000Y-134969000D01*
X145347000Y-134970000D01*
X145345000Y-134972000D01*
X145343000Y-134973000D01*
X145341000Y-134975000D01*
X145339000Y-134976000D01*
X145337000Y-134978000D01*
X145335000Y-134980000D01*
X145333000Y-134982000D01*
X145331000Y-134984000D01*
X145330000Y-134986000D01*
X145328000Y-134988000D01*
X145327000Y-134990000D01*
X145325000Y-134992000D01*
X145324000Y-134995000D01*
X145323000Y-134997000D01*
X145322000Y-135000000D01*
X145322000Y-135002000D01*
X145321000Y-135005000D01*
X145321000Y-135007000D01*
X145320000Y-135010000D01*
X145320000Y-135012000D01*
X145320000Y-135015000D01*
X145320000Y-135175000D01*
X143970000Y-135175000D01*
X143970000Y-133825000D01*
X145320000Y-133825000D01*
X145320000Y-133985000D01*
G36*
X145320000Y-133985000D02*
G01*
X145320000Y-133988000D01*
X145320000Y-133990000D01*
X145321000Y-133993000D01*
X145321000Y-133995000D01*
X145322000Y-133998000D01*
X145322000Y-134000000D01*
X145323000Y-134003000D01*
X145324000Y-134005000D01*
X145325000Y-134008000D01*
X145327000Y-134010000D01*
X145328000Y-134012000D01*
X145330000Y-134014000D01*
X145331000Y-134016000D01*
X145333000Y-134018000D01*
X145335000Y-134020000D01*
X145337000Y-134022000D01*
X145339000Y-134024000D01*
X145341000Y-134025000D01*
X145343000Y-134027000D01*
X145345000Y-134028000D01*
X145347000Y-134030000D01*
X145350000Y-134031000D01*
X145352000Y-134032000D01*
X145355000Y-134033000D01*
X145357000Y-134033000D01*
X145360000Y-134034000D01*
X145362000Y-134034000D01*
X145365000Y-134035000D01*
X145367000Y-134035000D01*
X145370000Y-134035000D01*
X145420000Y-134035000D01*
X145423000Y-134035000D01*
X145425000Y-134035000D01*
X145428000Y-134034000D01*
X145430000Y-134034000D01*
X145433000Y-134033000D01*
X145435000Y-134033000D01*
X145438000Y-134032000D01*
X145440000Y-134031000D01*
X145443000Y-134030000D01*
X145445000Y-134028000D01*
X145447000Y-134027000D01*
X145449000Y-134025000D01*
X145451000Y-134024000D01*
X145453000Y-134022000D01*
X145455000Y-134020000D01*
X145457000Y-134018000D01*
X145459000Y-134016000D01*
X145460000Y-134014000D01*
X145462000Y-134012000D01*
X145463000Y-134010000D01*
X145465000Y-134008000D01*
X145466000Y-134005000D01*
X145467000Y-134003000D01*
X145468000Y-134000000D01*
X145468000Y-133998000D01*
X145469000Y-133995000D01*
X145469000Y-133993000D01*
X145470000Y-133990000D01*
X145470000Y-133988000D01*
X145470000Y-133985000D01*
X145470000Y-133825000D01*
X146610000Y-133825000D01*
X146610000Y-135175000D01*
X145470000Y-135175000D01*
X145470000Y-135015000D01*
X145470000Y-135012000D01*
X145470000Y-135010000D01*
X145469000Y-135007000D01*
X145469000Y-135005000D01*
X145468000Y-135002000D01*
X145468000Y-135000000D01*
X145467000Y-134997000D01*
X145466000Y-134995000D01*
X145465000Y-134992000D01*
X145463000Y-134990000D01*
X145462000Y-134988000D01*
X145460000Y-134986000D01*
X145459000Y-134984000D01*
X145457000Y-134982000D01*
X145455000Y-134980000D01*
X145453000Y-134978000D01*
X145451000Y-134976000D01*
X145449000Y-134975000D01*
X145447000Y-134973000D01*
X145445000Y-134972000D01*
X145443000Y-134970000D01*
X145440000Y-134969000D01*
X145438000Y-134968000D01*
X145435000Y-134967000D01*
X145433000Y-134967000D01*
X145430000Y-134966000D01*
X145428000Y-134966000D01*
X145425000Y-134965000D01*
X145423000Y-134965000D01*
X145420000Y-134965000D01*
X145370000Y-134965000D01*
X145367000Y-134965000D01*
X145365000Y-134965000D01*
X145362000Y-134966000D01*
X145360000Y-134966000D01*
X145357000Y-134967000D01*
X145355000Y-134967000D01*
X145352000Y-134968000D01*
X145350000Y-134969000D01*
X145347000Y-134970000D01*
X145345000Y-134972000D01*
X145343000Y-134973000D01*
X145341000Y-134975000D01*
X145339000Y-134976000D01*
X145337000Y-134978000D01*
X145335000Y-134980000D01*
X145333000Y-134982000D01*
X145331000Y-134984000D01*
X145330000Y-134986000D01*
X145328000Y-134988000D01*
X145327000Y-134990000D01*
X145325000Y-134992000D01*
X145324000Y-134995000D01*
X145323000Y-134997000D01*
X145322000Y-135000000D01*
X145322000Y-135002000D01*
X145321000Y-135005000D01*
X145321000Y-135007000D01*
X145320000Y-135010000D01*
X145320000Y-135012000D01*
X145320000Y-135015000D01*
X145320000Y-135175000D01*
X143970000Y-135175000D01*
X143970000Y-133825000D01*
X145320000Y-133825000D01*
X145320000Y-133985000D01*
G37*
D11*
X184800000Y-142500000D03*
X184800000Y-137500000D03*
X186500000Y-142500000D03*
X186500000Y-137500000D03*
D12*
X112592200Y-80000000D03*
X110407800Y-80000000D03*
D13*
X171500000Y-59375000D03*
X171500000Y-57625000D03*
X115000000Y-62000000D03*
X115000000Y-60250000D03*
D14*
X138000000Y-57412500D03*
X138000000Y-55587500D03*
D15*
X191500000Y-64000000D03*
X151400000Y-70000000D03*
D16*
X189250000Y-55800000D03*
X189250000Y-57200000D03*
D17*
X131815000Y-55837500D03*
X131815000Y-57662500D03*
D18*
X188890000Y-53180000D03*
X183110000Y-53180000D03*
D19*
X190320000Y-53680000D03*
D20*
X190320000Y-49500000D03*
D19*
X181680000Y-53680000D03*
D20*
X181680000Y-49500000D03*
D17*
X119040000Y-56087500D03*
X119040000Y-57912500D03*
D21*
X153000000Y-62500000D03*
X153000000Y-64225000D03*
D22*
X156000000Y-54500000D03*
D23*
X154000000Y-54500000D03*
D15*
X121500000Y-85500000D03*
D24*
X102912500Y-127000000D03*
X101087500Y-127000000D03*
D25*
X125500000Y-127050000D03*
D26*
X125500000Y-128500000D03*
D16*
X174000000Y-55000000D03*
X174000000Y-56400000D03*
D13*
X123000000Y-62000000D03*
X123000000Y-60250000D03*
D27*
X107000000Y-78962500D03*
X107000000Y-81037500D03*
D28*
X113000000Y-99075000D03*
X113000000Y-95775000D03*
D17*
X94500000Y-68500000D03*
X94500000Y-70325000D03*
X184000000Y-57000000D03*
X184000000Y-58825000D03*
D29*
X119000000Y-95775000D03*
X119000000Y-99075000D03*
D30*
X116500000Y-51000000D03*
D31*
X119000000Y-51000000D03*
X121500000Y-51000000D03*
D32*
X107075000Y-113000000D03*
X105000000Y-113000000D03*
D24*
X133000000Y-78000000D03*
X131175000Y-78000000D03*
D32*
X107075000Y-106980000D03*
X105000000Y-106980000D03*
D33*
X128500000Y-70500000D03*
X130900000Y-70500000D03*
D34*
X127700000Y-70500000D03*
D35*
X131700000Y-70500000D03*
D15*
X146000000Y-126000000D03*
D11*
X187000000Y-95500000D03*
X187000000Y-90500000D03*
X188700000Y-95500000D03*
X188700000Y-90500000D03*
D36*
X143525000Y-62645000D03*
X145250000Y-62645000D03*
D17*
X187510000Y-57175000D03*
X187510000Y-59000000D03*
D15*
X107500000Y-55000000D03*
D14*
X145500000Y-57412500D03*
X145500000Y-55587500D03*
D13*
X95000000Y-62000000D03*
X95000000Y-60250000D03*
D32*
X107075000Y-109990000D03*
X105000000Y-109990000D03*
D37*
X97000000Y-89500000D03*
D38*
X97000000Y-87000000D03*
X97000000Y-84500000D03*
X97000000Y-82000000D03*
X97000000Y-79500000D03*
X97000000Y-77000000D03*
D39*
X97000000Y-51000000D03*
D40*
X99500000Y-51000000D03*
D15*
X107500000Y-49950000D03*
X161500000Y-70000000D03*
X191500000Y-59000000D03*
X156450000Y-70000000D03*
D41*
X122087500Y-133500000D03*
X123912500Y-133500000D03*
D30*
X138000000Y-50500000D03*
D31*
X140500000Y-50500000D03*
X143000000Y-50500000D03*
X145500000Y-50500000D03*
D42*
X130950000Y-137550000D03*
X131600000Y-137550000D03*
X132250000Y-137550000D03*
D43*
X133000000Y-136800000D03*
X133000000Y-136150000D03*
X133000000Y-135500000D03*
D42*
X132250000Y-134750000D03*
X131600000Y-134750000D03*
X130950000Y-134750000D03*
D43*
X130200000Y-135500000D03*
X130200000Y-136150000D03*
X130200000Y-136800000D03*
D14*
X173500000Y-133500000D03*
X173500000Y-131675000D03*
D41*
X168087500Y-59500000D03*
X169912500Y-59500000D03*
D21*
X161500000Y-63137500D03*
X161500000Y-64862500D03*
D39*
X173500000Y-50000000D03*
D40*
X176000000Y-50000000D03*
D14*
X181500000Y-143000000D03*
X181500000Y-141175000D03*
D17*
X99500000Y-68587500D03*
X99500000Y-70412500D03*
D21*
X158000000Y-61775000D03*
X158000000Y-63500000D03*
D15*
X121500000Y-75400000D03*
D35*
X131500000Y-64000000D03*
D44*
X130050000Y-64000000D03*
D15*
X143000000Y-126000000D03*
D45*
X142500000Y-143000000D03*
D31*
X140000000Y-143000000D03*
X137500000Y-143000000D03*
X135000000Y-143000000D03*
X132500000Y-143000000D03*
X130000000Y-143000000D03*
D33*
X128475000Y-75500000D03*
X130875000Y-75500000D03*
D34*
X127675000Y-75500000D03*
D35*
X131675000Y-75500000D03*
D41*
X122087500Y-140000000D03*
X123912500Y-140000000D03*
D28*
X115925000Y-104075000D03*
X115925000Y-100775000D03*
D25*
X109500000Y-127000000D03*
D26*
X109500000Y-128450000D03*
D11*
X184800000Y-133000000D03*
X184800000Y-128000000D03*
X186500000Y-133000000D03*
X186500000Y-128000000D03*
D27*
X116000000Y-95925000D03*
X116000000Y-98000000D03*
D46*
X189500000Y-110500000D03*
D38*
X189500000Y-113000000D03*
X189500000Y-115500000D03*
X189500000Y-118000000D03*
D17*
X123040000Y-56087500D03*
X123040000Y-57912500D03*
D14*
X181500000Y-133500000D03*
X181500000Y-131675000D03*
D47*
X98962500Y-97000000D03*
X101037500Y-97000000D03*
D48*
X119000000Y-103500000D03*
X119000000Y-101425000D03*
D15*
X121500000Y-80450000D03*
D11*
X170200000Y-137500000D03*
X170200000Y-142500000D03*
X168500000Y-137500000D03*
X168500000Y-142500000D03*
D49*
X106850000Y-89830000D03*
X108150000Y-89830000D03*
X107500000Y-87170000D03*
D17*
X95040000Y-56337500D03*
X95040000Y-58162500D03*
D27*
X161000000Y-58462500D03*
X161000000Y-60537500D03*
D35*
X169500000Y-57000000D03*
D44*
X168050000Y-57000000D03*
D41*
X143475000Y-60135000D03*
X145300000Y-60135000D03*
D50*
X154300000Y-58400001D03*
X154699999Y-58400001D03*
X155100001Y-58400001D03*
X155500000Y-58400001D03*
X154300000Y-58800000D03*
X154699999Y-58800000D03*
X155100001Y-58800000D03*
X155500000Y-58800000D03*
X154300000Y-59200002D03*
X154699999Y-59200002D03*
X155100001Y-59200002D03*
X155500000Y-59200002D03*
X154300000Y-59600001D03*
X154699999Y-59600001D03*
X155100001Y-59600001D03*
X155500000Y-59600001D03*
X154300000Y-60000000D03*
X154699999Y-60000000D03*
X155100001Y-60000000D03*
X155500000Y-60000000D03*
D25*
X161500000Y-124050000D03*
D26*
X161500000Y-125500000D03*
D14*
X140500000Y-57412500D03*
X140500000Y-55587500D03*
D11*
X170200000Y-128000000D03*
X170200000Y-133000000D03*
X168500000Y-128000000D03*
X168500000Y-133000000D03*
D27*
X156000000Y-61962500D03*
X156000000Y-64037500D03*
D14*
X173500000Y-143000000D03*
X173500000Y-141175000D03*
D36*
X130637500Y-133000000D03*
X132362500Y-133000000D03*
D51*
X99525000Y-130095000D03*
X99525000Y-131365000D03*
X99525000Y-132635000D03*
X99525000Y-133905000D03*
X104475000Y-133905000D03*
X104475000Y-132635000D03*
X104475000Y-131365000D03*
X104475000Y-130095000D03*
D16*
X176000000Y-55000000D03*
X176000000Y-56400000D03*
D15*
X121500000Y-70350000D03*
D17*
X115040000Y-56087500D03*
X115040000Y-57912500D03*
D45*
X109500000Y-143000000D03*
D31*
X107000000Y-143000000D03*
X104500000Y-143000000D03*
X102000000Y-143000000D03*
X99500000Y-143000000D03*
X97000000Y-143000000D03*
D11*
X187000000Y-87000000D03*
X187000000Y-82000000D03*
X188700000Y-87000000D03*
X188700000Y-82000000D03*
D41*
X122087500Y-136500000D03*
X123912500Y-136500000D03*
D27*
X160000000Y-49462500D03*
X160000000Y-51537500D03*
D41*
X126175000Y-78000000D03*
X128000000Y-78000000D03*
D52*
X140775000Y-62450000D03*
X140775000Y-60550000D03*
X138500000Y-61500000D03*
D13*
X131775000Y-61500000D03*
X131775000Y-59750000D03*
D53*
X97590014Y-101999998D03*
X97590014Y-102499999D03*
X97590014Y-102999998D03*
X97590014Y-103500000D03*
X97590014Y-103999999D03*
X97590014Y-104499998D03*
X97590014Y-104999999D03*
X97590014Y-105499998D03*
X97590014Y-106000000D03*
X97590014Y-106499999D03*
X97590014Y-106999998D03*
X97590014Y-107499999D03*
X97590014Y-107999999D03*
X97590014Y-108500000D03*
X97590014Y-108999999D03*
X97590014Y-109499998D03*
X97590014Y-110000000D03*
X97590014Y-110499999D03*
X97590014Y-111000000D03*
X97590014Y-111499999D03*
X97590014Y-111999998D03*
X97590014Y-112500000D03*
X97590014Y-112999999D03*
X97590014Y-113499998D03*
D54*
X95090014Y-101000000D03*
X95090014Y-114499998D03*
D13*
X119000000Y-62000000D03*
X119000000Y-60250000D03*
D14*
X113000000Y-90412500D03*
X113000000Y-88587500D03*
D25*
X106000000Y-69775000D03*
D26*
X106000000Y-71225000D03*
D32*
X107075000Y-103970000D03*
X105000000Y-103970000D03*
D11*
X187150000Y-104000000D03*
X187150000Y-99000000D03*
X188850000Y-104000000D03*
X188850000Y-99000000D03*
D21*
X107000000Y-130275000D03*
X107000000Y-132000000D03*
D48*
X113000000Y-103462500D03*
X113000000Y-101387500D03*
D17*
X158500000Y-57587500D03*
X158500000Y-59412500D03*
M02*
