M48
; DRILL file {KiCad 8.0.2} date 2025-03-06T10:36:18-0700
; FORMAT={-:-/ absolute / metric / decimal}
; #@! TF.CreationDate,2025-03-06T10:36:18-07:00
; #@! TF.GenerationSoftware,Kicad,Pcbnew,8.0.2
; #@! TF.FileFunction,Plated,1,4,PTH
FMAT,2
METRIC
; #@! TA.AperFunction,Plated,PTH,ViaDrill
T1C0.150
; #@! TA.AperFunction,Plated,PTH,ViaDrill
T2C0.300
; #@! TA.AperFunction,Plated,PTH,ComponentDrill
T3C0.300
; #@! TA.AperFunction,Plated,PTH,ComponentDrill
T4C0.600
; #@! TA.AperFunction,Plated,PTH,ComponentDrill
T5C0.750
; #@! TA.AperFunction,Plated,PTH,ComponentDrill
T6C0.889
%
G90
G05
T1
X129.65Y-119.0
X129.65Y-111.771
X130.45Y-112.45
X130.781Y-105.419
X131.233Y-121.567
X132.833Y-123.817
X133.017Y-125.133
X133.3Y-119.1
X133.8Y-104.236
X134.457Y-104.893
X135.2Y-110.0
X135.8Y-100.5
X135.9Y-109.3
X136.0Y-108.0
X136.3Y-118.9
X136.45Y-109.6
X136.736Y-104.677
X136.9Y-118.9
X137.15Y-104.5
X137.343Y-111.757
X137.375Y-110.825
X137.399Y-111.229
X137.4Y-110.4
X137.5Y-107.0
X137.8Y-115.4
X137.9Y-118.9
X138.8Y-106.4
X138.9Y-118.9
X139.0Y-102.75
X139.2Y-122.9
X139.65Y-106.5
X139.9Y-118.9
X140.05Y-115.762
X140.3Y-116.5
X140.3Y-121.4
X140.8Y-122.8
X141.2Y-122.9
X141.585Y-106.164
X142.35Y-100.4
X142.72Y-121.5
X142.9Y-119.6
X143.3Y-120.9
X143.6Y-104.6
X144.1Y-119.6
X144.2Y-115.85
X144.7Y-122.8
X145.2Y-118.5
X145.3Y-105.8
X145.6Y-104.8
X145.916Y-103.436
X146.1Y-115.8
X146.558Y-111.6
X146.558Y-108.819
X146.6Y-103.5
X146.682Y-101.369
X146.7Y-110.7
X146.708Y-109.189
X146.9Y-114.6
X146.985Y-128.649
X147.2Y-105.4
X147.2Y-105.8
X147.221Y-106.242
X147.333Y-110.188
X147.4Y-106.6
X147.408Y-113.75
X147.7Y-117.9
X147.826Y-129.076
X147.9Y-113.4
X147.908Y-107.775
X147.908Y-109.288
X147.908Y-112.708
X147.958Y-111.4
X148.2Y-102.0
X148.5Y-104.5
X148.8Y-101.6
X148.8Y-123.1
X149.3Y-123.1
X149.9Y-106.9
X149.9Y-110.959
X150.0Y-109.0
X150.05Y-106.305
X150.1Y-116.2
X150.222Y-113.733
X150.28Y-114.43
X150.3Y-123.6
X150.5Y-102.8
X150.656Y-104.256
X150.685Y-110.915
X150.685Y-113.1
X151.1Y-108.0
X151.1Y-108.8
X151.2Y-109.4
X151.2Y-113.95
X151.3Y-123.6
X151.485Y-109.0
X151.485Y-110.65
X151.5Y-112.1
X151.571Y-106.879
X152.1Y-104.2
X152.2Y-114.6
X152.3Y-123.6
X152.313Y-113.913
X152.4Y-111.3
X152.408Y-102.792
X152.5Y-104.2
X152.9Y-119.3
X153.5Y-111.8
X153.6Y-109.25
X153.6Y-110.937
X153.615Y-103.421
X153.71Y-110.553
X154.0Y-113.2
X154.05Y-107.45
X154.1Y-102.0
X154.1Y-109.9
X154.5Y-112.0
X155.3Y-120.8
X156.918Y-104.718
X157.745Y-102.7
T2
X127.6Y-102.8
X127.6Y-123.0
X127.7Y-96.4
X127.8Y-99.1
X127.8Y-128.1
X129.532Y-105.018
X130.4Y-125.1
X130.4Y-125.8
X132.0Y-121.3
X132.2Y-99.3
X132.3Y-129.8
X133.15Y-110.0
X133.3Y-100.6
X133.393Y-113.15
X133.5Y-129.8
X133.6Y-122.3
X133.65Y-111.35
X133.7Y-121.4
X133.8Y-109.85
X134.0Y-98.6
X134.406Y-108.478
X134.5Y-123.9
X134.557Y-110.043
X134.6Y-121.4
X135.2Y-118.0
X135.3Y-112.9
X135.5Y-115.2
X135.6Y-102.839
X135.9Y-113.5
X136.1Y-102.1
X136.535Y-111.315
X137.5Y-101.575
X138.586Y-102.388
X141.1Y-101.7
X142.1Y-111.2
X143.5Y-102.2
X151.5Y-129.7
X152.4Y-126.2
X152.7Y-129.8
X152.95Y-116.0
X152.95Y-116.9
X153.5Y-101.5
X153.85Y-118.7
X154.1Y-121.2
X156.7Y-120.8
X156.8Y-112.1
X156.8Y-120.1
X157.3Y-123.2
X157.3Y-128.4
X157.6Y-96.5
X157.6Y-99.2
T3
X134.0Y-101.6
X134.0Y-102.616
X136.15Y-99.625
T5
X156.5Y-108.0
X156.5Y-110.0
T6
X156.75Y-114.569
X156.75Y-117.566
T4
X128.15Y-111.752G85X127.35Y-111.752
G05
X128.15Y-120.392G85X127.35Y-120.392
G05
X132.48Y-111.752G85X131.38Y-111.752
G05
X132.48Y-120.392G85X131.38Y-120.392
G05
M30
