G04 #@! TF.GenerationSoftware,KiCad,Pcbnew,8.0.2*
G04 #@! TF.CreationDate,2025-03-06T21:25:23-07:00*
G04 #@! TF.ProjectId,kicad,6b696361-642e-46b6-9963-61645f706362,4*
G04 #@! TF.SameCoordinates,Original*
G04 #@! TF.FileFunction,Copper,L2,Inr*
G04 #@! TF.FilePolarity,Positive*
%FSLAX46Y46*%
G04 Gerber Fmt 4.6, Leading zero omitted, Abs format (unit mm)*
G04 Created by KiCad (PCBNEW 8.0.2) date 2025-03-06 21:25:23*
%MOMM*%
%LPD*%
G01*
G04 APERTURE LIST*
G04 Aperture macros list*
%AMRoundRect*
0 Rectangle with rounded corners*
0 $1 Rounding radius*
0 $2 $3 $4 $5 $6 $7 $8 $9 X,Y pos of 4 corners*
0 Add a 4 corners polygon primitive as box body*
4,1,4,$2,$3,$4,$5,$6,$7,$8,$9,$2,$3,0*
0 Add four circle primitives for the rounded corners*
1,1,$1+$1,$2,$3*
1,1,$1+$1,$4,$5*
1,1,$1+$1,$6,$7*
1,1,$1+$1,$8,$9*
0 Add four rect primitives between the rounded corners*
20,1,$1+$1,$2,$3,$4,$5,0*
20,1,$1+$1,$4,$5,$6,$7,0*
20,1,$1+$1,$6,$7,$8,$9,0*
20,1,$1+$1,$8,$9,$2,$3,0*%
G04 Aperture macros list end*
G04 #@! TA.AperFunction,ComponentPad*
%ADD10RoundRect,0.104167X-0.295833X0.145833X-0.295833X-0.145833X0.295833X-0.145833X0.295833X0.145833X0*%
G04 #@! TD*
G04 #@! TA.AperFunction,ComponentPad*
%ADD11O,0.800000X0.500000*%
G04 #@! TD*
G04 #@! TA.AperFunction,ComponentPad*
%ADD12O,2.100000X1.000000*%
G04 #@! TD*
G04 #@! TA.AperFunction,ComponentPad*
%ADD13O,1.800000X1.000000*%
G04 #@! TD*
G04 #@! TA.AperFunction,ComponentPad*
%ADD14RoundRect,0.250000X-0.625000X0.350000X-0.625000X-0.350000X0.625000X-0.350000X0.625000X0.350000X0*%
G04 #@! TD*
G04 #@! TA.AperFunction,ComponentPad*
%ADD15O,1.750000X1.200000*%
G04 #@! TD*
G04 #@! TA.AperFunction,ComponentPad*
%ADD16R,0.900000X0.500000*%
G04 #@! TD*
G04 #@! TA.AperFunction,ComponentPad*
%ADD17C,1.397000*%
G04 #@! TD*
G04 #@! TA.AperFunction,ViaPad*
%ADD18C,0.450000*%
G04 #@! TD*
G04 APERTURE END LIST*
D10*
X134000000Y-101600000D03*
D11*
X134000000Y-102616000D03*
D12*
X131930000Y-111752500D03*
D13*
X127750000Y-111752500D03*
D12*
X131930000Y-120392500D03*
D13*
X127750000Y-120392500D03*
D14*
X156500000Y-108000000D03*
D15*
X156500000Y-110000000D03*
D16*
X136150000Y-99625000D03*
D17*
X156750000Y-117566020D03*
X156750000Y-114568820D03*
D18*
X133567157Y-113182843D03*
X130781196Y-105348092D03*
X149830191Y-105294809D03*
X146908015Y-110035616D03*
X138900000Y-106450000D03*
X139250000Y-105725000D03*
X141600000Y-106025000D03*
X133814316Y-104250000D03*
X134507158Y-104942842D03*
X137450000Y-104250000D03*
X136724656Y-104650000D03*
X139225000Y-116650000D03*
X140307842Y-115942155D03*
X140300000Y-116500000D03*
X138275000Y-115050000D03*
X146633462Y-109425000D03*
X147876059Y-129026059D03*
X146825000Y-128649500D03*
X157500000Y-128425000D03*
X152700000Y-129925000D03*
X151525000Y-129925000D03*
X152425000Y-123600001D03*
X151425000Y-123600001D03*
X150375000Y-123600001D03*
X152400000Y-102765000D03*
X157550000Y-99275000D03*
X157550000Y-96300000D03*
X139225000Y-100550000D03*
X148025000Y-100825000D03*
X149385082Y-102050000D03*
X148382183Y-101767127D03*
X151396440Y-106704999D03*
X147628183Y-102314981D03*
X154075000Y-108000000D03*
X151100000Y-108000000D03*
X153675000Y-109000000D03*
X151181100Y-110500000D03*
X153450000Y-111725000D03*
X154875000Y-111925000D03*
X153775000Y-113225000D03*
X152150000Y-114625003D03*
X152150000Y-114075000D03*
X150000000Y-114062500D03*
X154875000Y-119500000D03*
X157525000Y-123275000D03*
X156830174Y-122991945D03*
X157100000Y-119725000D03*
X156225000Y-121975000D03*
X154225000Y-121025000D03*
X152725000Y-119400000D03*
X152950000Y-116950000D03*
X152875000Y-115475000D03*
X151175000Y-117225000D03*
X150750000Y-113500000D03*
X152025000Y-112000000D03*
X147523702Y-113400000D03*
X152363569Y-111436430D03*
X153016756Y-110925000D03*
X150741690Y-110020543D03*
X147858015Y-112675000D03*
X146700000Y-114687500D03*
X146701054Y-113800000D03*
X144075000Y-115875000D03*
X145803293Y-115900000D03*
X147629290Y-117900000D03*
X145150000Y-119200000D03*
X144025000Y-119600000D03*
X143319998Y-121050000D03*
X142719998Y-121500000D03*
X133350000Y-119175000D03*
X139900000Y-118975000D03*
X138775000Y-118900000D03*
X137875000Y-118975000D03*
X136875000Y-118950000D03*
X136155343Y-118930343D03*
X149286370Y-123394203D03*
X148800000Y-123137400D03*
X144725000Y-122850000D03*
X139475000Y-123025000D03*
X138974143Y-122900858D03*
X141240778Y-123018156D03*
X140775000Y-122925000D03*
X130600000Y-126025000D03*
X130500000Y-124800000D03*
X137275000Y-109600000D03*
X134557238Y-107992762D03*
X137400000Y-110300000D03*
X137375000Y-110751114D03*
X137375000Y-111250000D03*
X137372618Y-111727383D03*
X137375000Y-106825000D03*
X134586895Y-108588105D03*
X134495729Y-110142802D03*
X134997806Y-109918257D03*
X136256967Y-111177418D03*
X135525000Y-110075000D03*
X134575000Y-112950000D03*
X133200000Y-110100000D03*
X133750000Y-111250000D03*
X136325000Y-115000000D03*
X135700000Y-114825000D03*
X134600000Y-117950000D03*
X129650001Y-112000000D03*
X130450000Y-111726949D03*
X129650000Y-119875000D03*
X131332843Y-121667157D03*
X134500000Y-121425000D03*
X133725000Y-121350000D03*
X134975000Y-122150000D03*
X134300000Y-123825000D03*
X133000000Y-125350000D03*
X132832843Y-123732843D03*
X134525000Y-129150000D03*
X131325000Y-129125000D03*
X127400000Y-125500000D03*
X127375000Y-128475000D03*
X151301484Y-109130153D03*
X151075000Y-109525000D03*
X151100000Y-108700000D03*
X147858015Y-108885000D03*
X146650000Y-111500000D03*
X147433462Y-109803511D03*
X146558016Y-107618801D03*
X142050000Y-111200000D03*
X144715098Y-105353530D03*
X145304657Y-105329657D03*
X146275000Y-104925000D03*
X145649997Y-106250000D03*
X146200000Y-106250000D03*
X146821188Y-106250000D03*
X143450000Y-104235686D03*
X157050000Y-104775000D03*
X157775000Y-102750000D03*
X154075000Y-102175000D03*
X151625000Y-100925000D03*
X153625001Y-103413882D03*
X151114444Y-105235557D03*
X148450000Y-104675000D03*
X145072784Y-103543129D03*
X146075000Y-103150000D03*
X143500000Y-101900000D03*
X141100000Y-101950000D03*
X138500000Y-102250000D03*
X138975862Y-102775859D03*
X135575000Y-102525000D03*
X136075000Y-102100000D03*
X137577380Y-101475000D03*
X135500000Y-100500000D03*
X127450000Y-96300000D03*
X127450000Y-99250000D03*
X134000000Y-98625000D03*
X132175000Y-99250000D03*
X133325000Y-100495000D03*
X127300000Y-102700000D03*
X156800000Y-112100000D03*
X152400000Y-126200000D03*
X129721209Y-104853791D03*
X142784240Y-118794558D03*
X149042853Y-105445000D03*
G04 #@! TA.AperFunction,Conductor*
G36*
X134943039Y-94050185D02*
G01*
X134988794Y-94102989D01*
X135000000Y-94154500D01*
X135000000Y-99300000D01*
X135075500Y-99300000D01*
X135142539Y-99319685D01*
X135188294Y-99372489D01*
X135199500Y-99424000D01*
X135199500Y-99763452D01*
X135179815Y-99830491D01*
X135141473Y-99868445D01*
X135044797Y-99929190D01*
X134929192Y-100044795D01*
X134842210Y-100183225D01*
X134788212Y-100337544D01*
X134769909Y-100499996D01*
X134769909Y-100500003D01*
X134788212Y-100662455D01*
X134844511Y-100823349D01*
X134842718Y-100823976D01*
X134852529Y-100883583D01*
X134824802Y-100947715D01*
X134766804Y-100986677D01*
X134696948Y-100988097D01*
X134653974Y-100966811D01*
X134600776Y-100925991D01*
X134600773Y-100925990D01*
X134600771Y-100925988D01*
X134453686Y-100865064D01*
X134453681Y-100865062D01*
X134335469Y-100849500D01*
X134335468Y-100849500D01*
X134144350Y-100849500D01*
X134077311Y-100829815D01*
X134031556Y-100777011D01*
X134021612Y-100707853D01*
X134027306Y-100684550D01*
X134036786Y-100657461D01*
X134048894Y-100550000D01*
X134055091Y-100495003D01*
X134055091Y-100494996D01*
X134036787Y-100332544D01*
X134036786Y-100332542D01*
X134036786Y-100332539D01*
X133982789Y-100178225D01*
X133895808Y-100039796D01*
X133780204Y-99924192D01*
X133729305Y-99892210D01*
X133641774Y-99837210D01*
X133487455Y-99783212D01*
X133325004Y-99764909D01*
X133324996Y-99764909D01*
X133162544Y-99783212D01*
X133008225Y-99837210D01*
X132878814Y-99918525D01*
X132811577Y-99937525D01*
X132807844Y-99936387D01*
X132809709Y-99950365D01*
X132780038Y-100013622D01*
X132774840Y-100019148D01*
X132754191Y-100039797D01*
X132667210Y-100178225D01*
X132613212Y-100332544D01*
X132594909Y-100494996D01*
X132594909Y-100495003D01*
X132613212Y-100657455D01*
X132613213Y-100657460D01*
X132613214Y-100657461D01*
X132614964Y-100662461D01*
X132667210Y-100811774D01*
X132700694Y-100865063D01*
X132754192Y-100950204D01*
X132869796Y-101065808D01*
X132935563Y-101107132D01*
X133008226Y-101152790D01*
X133033279Y-101161556D01*
X133090056Y-101202277D01*
X133115804Y-101267229D01*
X133115265Y-101294783D01*
X133099500Y-101414531D01*
X133099500Y-101785468D01*
X133115062Y-101903681D01*
X133115064Y-101903686D01*
X133175988Y-102050771D01*
X133175990Y-102050775D01*
X133201577Y-102084121D01*
X133226770Y-102149290D01*
X133212731Y-102217735D01*
X133206304Y-102228495D01*
X133184913Y-102260509D01*
X133128343Y-102397082D01*
X133128340Y-102397092D01*
X133099500Y-102542079D01*
X133099500Y-102542082D01*
X133099500Y-102689918D01*
X133099500Y-102689920D01*
X133099499Y-102689920D01*
X133128340Y-102834907D01*
X133128343Y-102834917D01*
X133184912Y-102971488D01*
X133184919Y-102971501D01*
X133267048Y-103094415D01*
X133267051Y-103094419D01*
X133371580Y-103198948D01*
X133371584Y-103198951D01*
X133494498Y-103281080D01*
X133494511Y-103281087D01*
X133602942Y-103326000D01*
X133657346Y-103369840D01*
X133679411Y-103436135D01*
X133662132Y-103503834D01*
X133610995Y-103551445D01*
X133596445Y-103557603D01*
X133497540Y-103592211D01*
X133359111Y-103679192D01*
X133243508Y-103794795D01*
X133156526Y-103933225D01*
X133102528Y-104087544D01*
X133084225Y-104249996D01*
X133084225Y-104250003D01*
X133102528Y-104412455D01*
X133156526Y-104566774D01*
X133237561Y-104695740D01*
X133243508Y-104705204D01*
X133359112Y-104820808D01*
X133497541Y-104907789D01*
X133651855Y-104961786D01*
X133682573Y-104965247D01*
X133746985Y-104992312D01*
X133786542Y-105049906D01*
X133791910Y-105074580D01*
X133795372Y-105105303D01*
X133804837Y-105132353D01*
X133849368Y-105259616D01*
X133913566Y-105361786D01*
X133936350Y-105398046D01*
X134051954Y-105513650D01*
X134190383Y-105600631D01*
X134344697Y-105654628D01*
X134344700Y-105654628D01*
X134344702Y-105654629D01*
X134507154Y-105672933D01*
X134507158Y-105672933D01*
X134507162Y-105672933D01*
X134669613Y-105654629D01*
X134669614Y-105654628D01*
X134669619Y-105654628D01*
X134823933Y-105600631D01*
X134962362Y-105513650D01*
X135077966Y-105398046D01*
X135164947Y-105259617D01*
X135218944Y-105105303D01*
X135218955Y-105105204D01*
X135237249Y-104942845D01*
X135237249Y-104942838D01*
X135218945Y-104780386D01*
X135218944Y-104780384D01*
X135218944Y-104780381D01*
X135173320Y-104649996D01*
X135994565Y-104649996D01*
X135994565Y-104650003D01*
X136012868Y-104812455D01*
X136066866Y-104966774D01*
X136142699Y-105087461D01*
X136153848Y-105105204D01*
X136269452Y-105220808D01*
X136407881Y-105307789D01*
X136562195Y-105361786D01*
X136562198Y-105361786D01*
X136562200Y-105361787D01*
X136724652Y-105380091D01*
X136724656Y-105380091D01*
X136724660Y-105380091D01*
X136887111Y-105361787D01*
X136887112Y-105361786D01*
X136887117Y-105361786D01*
X137041431Y-105307789D01*
X137179860Y-105220808D01*
X137295464Y-105105204D01*
X137337644Y-105038073D01*
X137389978Y-104991783D01*
X137443036Y-104983056D01*
X137443036Y-104980091D01*
X137450004Y-104980091D01*
X137612455Y-104961787D01*
X137612456Y-104961786D01*
X137612461Y-104961786D01*
X137766775Y-104907789D01*
X137905204Y-104820808D01*
X138020808Y-104705204D01*
X138107789Y-104566775D01*
X138161786Y-104412461D01*
X138161787Y-104412455D01*
X138180091Y-104250003D01*
X138180091Y-104249996D01*
X138178478Y-104235682D01*
X142719909Y-104235682D01*
X142719909Y-104235689D01*
X142738212Y-104398141D01*
X142792210Y-104552460D01*
X142867240Y-104671868D01*
X142879192Y-104690890D01*
X142994796Y-104806494D01*
X143133225Y-104893475D01*
X143287539Y-104947472D01*
X143287542Y-104947472D01*
X143287544Y-104947473D01*
X143449996Y-104965777D01*
X143450000Y-104965777D01*
X143450004Y-104965777D01*
X143612455Y-104947473D01*
X143612456Y-104947472D01*
X143612461Y-104947472D01*
X143766775Y-104893475D01*
X143905204Y-104806494D01*
X143925564Y-104786133D01*
X143986883Y-104752650D01*
X144040185Y-104756461D01*
X144028170Y-104724243D01*
X144043023Y-104655970D01*
X144046851Y-104649441D01*
X144107789Y-104552461D01*
X144161786Y-104398147D01*
X144161787Y-104398141D01*
X144180091Y-104235689D01*
X144180091Y-104235682D01*
X144161787Y-104073230D01*
X144161786Y-104073228D01*
X144161786Y-104073225D01*
X144107789Y-103918911D01*
X144020808Y-103780482D01*
X143905204Y-103664878D01*
X143766774Y-103577896D01*
X143667403Y-103543125D01*
X144342693Y-103543125D01*
X144342693Y-103543132D01*
X144360996Y-103705584D01*
X144414994Y-103859903D01*
X144498129Y-103992210D01*
X144501976Y-103998333D01*
X144617580Y-104113937D01*
X144756009Y-104200918D01*
X144910323Y-104254915D01*
X144910326Y-104254915D01*
X144910328Y-104254916D01*
X145072780Y-104273220D01*
X145072784Y-104273220D01*
X145072788Y-104273220D01*
X145235239Y-104254916D01*
X145235240Y-104254915D01*
X145235245Y-104254915D01*
X145389559Y-104200918D01*
X145527988Y-104113937D01*
X145643592Y-103998333D01*
X145730573Y-103859904D01*
X145784570Y-103705590D01*
X145784571Y-103705584D01*
X145802875Y-103543132D01*
X145802875Y-103543125D01*
X145784571Y-103380673D01*
X145784570Y-103380671D01*
X145784570Y-103380668D01*
X145730573Y-103226354D01*
X145643592Y-103087925D01*
X145527988Y-102972321D01*
X145473876Y-102938320D01*
X145389558Y-102885339D01*
X145235239Y-102831341D01*
X145072788Y-102813038D01*
X145072780Y-102813038D01*
X144910328Y-102831341D01*
X144756009Y-102885339D01*
X144617579Y-102972321D01*
X144501976Y-103087924D01*
X144414994Y-103226354D01*
X144360996Y-103380673D01*
X144342693Y-103543125D01*
X143667403Y-103543125D01*
X143612455Y-103523898D01*
X143450004Y-103505595D01*
X143449996Y-103505595D01*
X143287544Y-103523898D01*
X143133225Y-103577896D01*
X142994795Y-103664878D01*
X142879192Y-103780481D01*
X142792210Y-103918911D01*
X142738212Y-104073230D01*
X142719909Y-104235682D01*
X138178478Y-104235682D01*
X138161787Y-104087544D01*
X138161786Y-104087541D01*
X138161786Y-104087539D01*
X138107789Y-103933225D01*
X138020808Y-103794796D01*
X137905204Y-103679192D01*
X137766774Y-103592210D01*
X137612455Y-103538212D01*
X137450004Y-103519909D01*
X137449996Y-103519909D01*
X137287544Y-103538212D01*
X137133225Y-103592210D01*
X136994795Y-103679192D01*
X136879191Y-103794796D01*
X136837009Y-103861927D01*
X136784673Y-103908217D01*
X136731619Y-103917001D01*
X136731619Y-103919909D01*
X136724652Y-103919909D01*
X136562200Y-103938212D01*
X136407881Y-103992210D01*
X136269451Y-104079192D01*
X136153848Y-104194795D01*
X136066866Y-104333225D01*
X136012868Y-104487544D01*
X135994565Y-104649996D01*
X135173320Y-104649996D01*
X135164947Y-104626067D01*
X135077966Y-104487638D01*
X134962362Y-104372034D01*
X134900598Y-104333225D01*
X134823932Y-104285052D01*
X134682859Y-104235689D01*
X134669619Y-104231056D01*
X134654252Y-104229324D01*
X134638896Y-104227594D01*
X134574483Y-104200525D01*
X134534929Y-104142930D01*
X134529563Y-104118263D01*
X134526102Y-104087539D01*
X134472105Y-103933225D01*
X134385124Y-103794796D01*
X134269520Y-103679192D01*
X134136316Y-103595494D01*
X134090025Y-103543159D01*
X134079377Y-103474105D01*
X134107752Y-103410257D01*
X134166142Y-103371885D01*
X134202288Y-103366500D01*
X134223920Y-103366500D01*
X134323628Y-103346666D01*
X134368913Y-103337658D01*
X134505495Y-103281084D01*
X134628416Y-103198951D01*
X134732951Y-103094416D01*
X134815084Y-102971495D01*
X134871658Y-102834913D01*
X134888549Y-102750000D01*
X134900500Y-102689920D01*
X134900500Y-102542079D01*
X134871659Y-102397092D01*
X134871658Y-102397091D01*
X134871658Y-102397087D01*
X134865916Y-102383225D01*
X134815087Y-102260511D01*
X134815080Y-102260498D01*
X134808063Y-102249996D01*
X137769909Y-102249996D01*
X137769909Y-102250003D01*
X137788212Y-102412455D01*
X137842210Y-102566774D01*
X137876162Y-102620808D01*
X137929192Y-102705204D01*
X138044796Y-102820808D01*
X138183225Y-102907789D01*
X138183227Y-102907790D01*
X138206819Y-102916046D01*
X138263595Y-102956767D01*
X138282906Y-102992133D01*
X138318072Y-103092633D01*
X138357388Y-103155204D01*
X138405054Y-103231063D01*
X138520658Y-103346667D01*
X138659087Y-103433648D01*
X138813401Y-103487645D01*
X138813404Y-103487645D01*
X138813406Y-103487646D01*
X138975858Y-103505950D01*
X138975862Y-103505950D01*
X138975866Y-103505950D01*
X139138317Y-103487646D01*
X139138318Y-103487645D01*
X139138323Y-103487645D01*
X139292637Y-103433648D01*
X139431066Y-103346667D01*
X139546670Y-103231063D01*
X139633651Y-103092634D01*
X139687648Y-102938320D01*
X139688872Y-102927461D01*
X139705953Y-102775862D01*
X139705953Y-102775855D01*
X139687649Y-102613403D01*
X139687648Y-102613401D01*
X139687648Y-102613398D01*
X139633651Y-102459084D01*
X139546670Y-102320655D01*
X139540992Y-102314977D01*
X146898092Y-102314977D01*
X146898092Y-102314984D01*
X146916395Y-102477436D01*
X146916396Y-102477441D01*
X146916397Y-102477442D01*
X146921453Y-102491891D01*
X146970393Y-102631755D01*
X147018169Y-102707789D01*
X147057375Y-102770185D01*
X147172979Y-102885789D01*
X147311408Y-102972770D01*
X147465722Y-103026767D01*
X147465725Y-103026767D01*
X147465727Y-103026768D01*
X147628179Y-103045072D01*
X147628183Y-103045072D01*
X147628187Y-103045072D01*
X147790638Y-103026768D01*
X147790639Y-103026767D01*
X147790644Y-103026767D01*
X147944958Y-102972770D01*
X148083387Y-102885789D01*
X148198991Y-102770185D01*
X148285972Y-102631756D01*
X148305298Y-102576523D01*
X148346019Y-102519748D01*
X148408457Y-102494258D01*
X148544640Y-102478914D01*
X148544642Y-102478913D01*
X148544644Y-102478913D01*
X148658797Y-102438968D01*
X148728573Y-102435406D01*
X148789201Y-102470135D01*
X148804742Y-102490035D01*
X148814272Y-102505202D01*
X148814274Y-102505204D01*
X148929878Y-102620808D01*
X149068307Y-102707789D01*
X149222621Y-102761786D01*
X149222624Y-102761786D01*
X149222626Y-102761787D01*
X149385078Y-102780091D01*
X149385082Y-102780091D01*
X149385086Y-102780091D01*
X149519057Y-102764996D01*
X151669909Y-102764996D01*
X151669909Y-102765003D01*
X151688212Y-102927455D01*
X151742210Y-103081774D01*
X151815836Y-103198948D01*
X151829192Y-103220204D01*
X151944796Y-103335808D01*
X152083225Y-103422789D01*
X152237539Y-103476786D01*
X152237542Y-103476786D01*
X152237544Y-103476787D01*
X152399996Y-103495091D01*
X152400000Y-103495091D01*
X152400004Y-103495091D01*
X152562455Y-103476787D01*
X152562456Y-103476786D01*
X152562461Y-103476786D01*
X152716775Y-103422789D01*
X152855204Y-103335808D01*
X152970808Y-103220204D01*
X153057789Y-103081775D01*
X153111786Y-102927461D01*
X153113477Y-102912455D01*
X153130091Y-102765003D01*
X153130091Y-102764996D01*
X153111787Y-102602544D01*
X153111786Y-102602542D01*
X153111786Y-102602539D01*
X153057789Y-102448225D01*
X152970808Y-102309796D01*
X152855204Y-102194192D01*
X152783743Y-102149290D01*
X152716774Y-102107210D01*
X152562455Y-102053212D01*
X152400004Y-102034909D01*
X152399996Y-102034909D01*
X152237544Y-102053212D01*
X152083225Y-102107210D01*
X151944795Y-102194192D01*
X151829192Y-102309795D01*
X151742210Y-102448225D01*
X151688212Y-102602544D01*
X151669909Y-102764996D01*
X149519057Y-102764996D01*
X149547537Y-102761787D01*
X149547538Y-102761786D01*
X149547543Y-102761786D01*
X149701857Y-102707789D01*
X149840286Y-102620808D01*
X149955890Y-102505204D01*
X150042871Y-102366775D01*
X150096868Y-102212461D01*
X150097703Y-102205051D01*
X150115173Y-102050003D01*
X150115173Y-102049996D01*
X150096869Y-101887544D01*
X150096868Y-101887542D01*
X150096868Y-101887539D01*
X150042871Y-101733225D01*
X149955890Y-101594796D01*
X149840286Y-101479192D01*
X149707582Y-101395808D01*
X149701856Y-101392210D01*
X149547537Y-101338212D01*
X149385086Y-101319909D01*
X149385078Y-101319909D01*
X149222626Y-101338212D01*
X149108467Y-101378158D01*
X149038688Y-101381719D01*
X148978061Y-101346990D01*
X148962520Y-101327089D01*
X148952991Y-101311923D01*
X148837387Y-101196319D01*
X148778736Y-101159466D01*
X148732446Y-101107132D01*
X148721798Y-101038079D01*
X148727666Y-101013522D01*
X148736786Y-100987461D01*
X148739113Y-100966810D01*
X148743824Y-100924996D01*
X150894909Y-100924996D01*
X150894909Y-100925003D01*
X150913212Y-101087455D01*
X150967210Y-101241774D01*
X151027808Y-101338214D01*
X151054192Y-101380204D01*
X151169796Y-101495808D01*
X151308225Y-101582789D01*
X151462539Y-101636786D01*
X151462542Y-101636786D01*
X151462544Y-101636787D01*
X151624996Y-101655091D01*
X151625000Y-101655091D01*
X151625004Y-101655091D01*
X151787455Y-101636787D01*
X151787456Y-101636786D01*
X151787461Y-101636786D01*
X151941775Y-101582789D01*
X152080204Y-101495808D01*
X152195808Y-101380204D01*
X152282789Y-101241775D01*
X152336786Y-101087461D01*
X152337472Y-101081375D01*
X152355091Y-100925003D01*
X152355091Y-100924996D01*
X152336787Y-100762544D01*
X152336786Y-100762542D01*
X152336786Y-100762539D01*
X152282789Y-100608225D01*
X152195808Y-100469796D01*
X152080204Y-100354192D01*
X152045744Y-100332539D01*
X151941774Y-100267210D01*
X151787455Y-100213212D01*
X151625004Y-100194909D01*
X151624996Y-100194909D01*
X151462544Y-100213212D01*
X151308225Y-100267210D01*
X151169795Y-100354192D01*
X151054192Y-100469795D01*
X150967210Y-100608225D01*
X150913212Y-100762544D01*
X150894909Y-100924996D01*
X148743824Y-100924996D01*
X148755091Y-100825003D01*
X148755091Y-100824996D01*
X148736787Y-100662544D01*
X148736786Y-100662542D01*
X148736786Y-100662539D01*
X148682789Y-100508225D01*
X148595808Y-100369796D01*
X148480204Y-100254192D01*
X148385856Y-100194909D01*
X148341774Y-100167210D01*
X148187455Y-100113212D01*
X148025004Y-100094909D01*
X148024996Y-100094909D01*
X147862544Y-100113212D01*
X147708225Y-100167210D01*
X147569795Y-100254192D01*
X147454192Y-100369795D01*
X147367210Y-100508225D01*
X147313212Y-100662544D01*
X147294909Y-100824996D01*
X147294909Y-100825003D01*
X147313212Y-100987455D01*
X147367210Y-101141774D01*
X147454192Y-101280204D01*
X147563571Y-101389583D01*
X147597056Y-101450906D01*
X147592072Y-101520598D01*
X147550200Y-101576531D01*
X147489775Y-101600484D01*
X147465727Y-101603193D01*
X147311408Y-101657191D01*
X147172978Y-101744173D01*
X147057375Y-101859776D01*
X146970393Y-101998206D01*
X146916395Y-102152525D01*
X146898092Y-102314977D01*
X139540992Y-102314977D01*
X139431066Y-102205051D01*
X139389912Y-102179192D01*
X139292639Y-102118071D01*
X139292634Y-102118069D01*
X139269040Y-102109812D01*
X139212265Y-102069089D01*
X139192956Y-102033726D01*
X139157789Y-101933225D01*
X139070808Y-101794796D01*
X138955204Y-101679192D01*
X138887717Y-101636787D01*
X138816774Y-101592210D01*
X138662455Y-101538212D01*
X138500004Y-101519909D01*
X138499996Y-101519909D01*
X138337544Y-101538212D01*
X138183225Y-101592210D01*
X138044795Y-101679192D01*
X137929192Y-101794795D01*
X137842210Y-101933225D01*
X137788212Y-102087544D01*
X137769909Y-102249996D01*
X134808063Y-102249996D01*
X134793697Y-102228496D01*
X134772819Y-102161818D01*
X134791304Y-102094438D01*
X134798413Y-102084131D01*
X134824009Y-102050776D01*
X134884937Y-101903683D01*
X134900500Y-101785468D01*
X134900500Y-101414532D01*
X134897561Y-101392211D01*
X134888043Y-101319909D01*
X134884937Y-101296317D01*
X134850559Y-101213323D01*
X134843091Y-101143854D01*
X134874366Y-101081375D01*
X134934455Y-101045723D01*
X135004280Y-101048217D01*
X135042435Y-101068925D01*
X135044795Y-101070807D01*
X135044796Y-101070808D01*
X135183225Y-101157789D01*
X135337539Y-101211786D01*
X135337542Y-101211786D01*
X135337544Y-101211787D01*
X135499996Y-101230091D01*
X135500000Y-101230091D01*
X135500004Y-101230091D01*
X135662455Y-101211787D01*
X135662456Y-101211786D01*
X135662461Y-101211786D01*
X135816775Y-101157789D01*
X135955204Y-101070808D01*
X136070808Y-100955204D01*
X136157789Y-100816775D01*
X136211786Y-100662461D01*
X136211787Y-100662455D01*
X136224458Y-100549996D01*
X138494909Y-100549996D01*
X138494909Y-100550003D01*
X138513212Y-100712455D01*
X138567210Y-100866774D01*
X138643041Y-100987457D01*
X138654192Y-101005204D01*
X138769796Y-101120808D01*
X138908225Y-101207789D01*
X139062539Y-101261786D01*
X139062542Y-101261786D01*
X139062544Y-101261787D01*
X139224996Y-101280091D01*
X139225000Y-101280091D01*
X139225004Y-101280091D01*
X139387455Y-101261787D01*
X139387456Y-101261786D01*
X139387461Y-101261786D01*
X139541775Y-101207789D01*
X139680204Y-101120808D01*
X139795808Y-101005204D01*
X139882789Y-100866775D01*
X139936786Y-100712461D01*
X139936787Y-100712455D01*
X139955091Y-100550003D01*
X139955091Y-100549996D01*
X139936787Y-100387544D01*
X139936786Y-100387542D01*
X139936786Y-100387539D01*
X139882789Y-100233225D01*
X139795808Y-100094796D01*
X139680204Y-99979192D01*
X139613892Y-99937525D01*
X139541774Y-99892210D01*
X139387455Y-99838212D01*
X139225004Y-99819909D01*
X139224996Y-99819909D01*
X139062544Y-99838212D01*
X138908225Y-99892210D01*
X138769795Y-99979192D01*
X138654192Y-100094795D01*
X138567210Y-100233225D01*
X138513212Y-100387544D01*
X138494909Y-100549996D01*
X136224458Y-100549996D01*
X136230091Y-100500003D01*
X136230091Y-100499499D01*
X136230183Y-100499184D01*
X136230871Y-100493081D01*
X136231940Y-100493201D01*
X136249776Y-100432460D01*
X136302580Y-100386705D01*
X136354091Y-100375499D01*
X136647871Y-100375499D01*
X136647872Y-100375499D01*
X136707483Y-100369091D01*
X136842331Y-100318796D01*
X136957546Y-100232546D01*
X137043796Y-100117331D01*
X137094091Y-99982483D01*
X137100500Y-99922873D01*
X137100499Y-99423999D01*
X137120183Y-99356961D01*
X137172987Y-99311206D01*
X137224499Y-99300000D01*
X150600000Y-99300000D01*
X150600000Y-94154500D01*
X150619685Y-94087461D01*
X150672489Y-94041706D01*
X150724000Y-94030500D01*
X157965500Y-94030500D01*
X158032539Y-94050185D01*
X158078294Y-94102989D01*
X158089500Y-94154500D01*
X158089500Y-101917424D01*
X158069815Y-101984463D01*
X158017011Y-102030218D01*
X157947853Y-102040162D01*
X157937916Y-102038317D01*
X157937462Y-102038213D01*
X157775004Y-102019909D01*
X157774996Y-102019909D01*
X157612544Y-102038212D01*
X157458225Y-102092210D01*
X157319795Y-102179192D01*
X157204192Y-102294795D01*
X157117210Y-102433225D01*
X157063212Y-102587544D01*
X157044909Y-102749996D01*
X157044909Y-102750003D01*
X157063212Y-102912455D01*
X157063213Y-102912460D01*
X157063214Y-102912461D01*
X157068461Y-102927455D01*
X157117210Y-103066774D01*
X157133459Y-103092634D01*
X157204192Y-103205204D01*
X157319796Y-103320808D01*
X157458225Y-103407789D01*
X157612539Y-103461786D01*
X157612542Y-103461786D01*
X157612544Y-103461787D01*
X157774996Y-103480091D01*
X157775000Y-103480091D01*
X157775004Y-103480091D01*
X157937450Y-103461788D01*
X157937456Y-103461786D01*
X157937461Y-103461786D01*
X157937465Y-103461784D01*
X157937897Y-103461686D01*
X157938194Y-103461704D01*
X157944382Y-103461007D01*
X157944504Y-103462090D01*
X158007636Y-103465954D01*
X158063997Y-103507247D01*
X158089087Y-103572457D01*
X158089500Y-103582575D01*
X158089500Y-107406277D01*
X158069815Y-107473316D01*
X158017011Y-107519071D01*
X157947853Y-107529015D01*
X157884297Y-107499990D01*
X157847794Y-107445282D01*
X157834869Y-107406277D01*
X157809814Y-107330666D01*
X157717712Y-107181344D01*
X157593656Y-107057288D01*
X157444334Y-106965186D01*
X157277797Y-106910001D01*
X157277795Y-106910000D01*
X157175010Y-106899500D01*
X155824998Y-106899500D01*
X155824981Y-106899501D01*
X155722203Y-106910000D01*
X155722200Y-106910001D01*
X155555668Y-106965185D01*
X155555663Y-106965187D01*
X155406342Y-107057289D01*
X155282289Y-107181342D01*
X155190187Y-107330663D01*
X155190185Y-107330668D01*
X155178701Y-107365326D01*
X155135001Y-107497203D01*
X155135001Y-107497204D01*
X155135000Y-107497204D01*
X155124500Y-107599983D01*
X155124500Y-108400001D01*
X155124501Y-108400019D01*
X155135000Y-108502796D01*
X155135001Y-108502799D01*
X155157538Y-108570810D01*
X155190186Y-108669334D01*
X155282288Y-108818656D01*
X155406344Y-108942712D01*
X155470981Y-108982580D01*
X155517705Y-109034526D01*
X155528928Y-109103489D01*
X155501085Y-109167571D01*
X155493566Y-109175799D01*
X155385964Y-109283401D01*
X155284195Y-109423475D01*
X155205591Y-109577744D01*
X155152085Y-109742415D01*
X155150884Y-109749999D01*
X155150885Y-109750000D01*
X156219670Y-109750000D01*
X156199925Y-109769745D01*
X156150556Y-109855255D01*
X156125000Y-109950630D01*
X156125000Y-110049370D01*
X156150556Y-110144745D01*
X156199925Y-110230255D01*
X156219670Y-110250000D01*
X155150885Y-110250000D01*
X155152085Y-110257584D01*
X155205591Y-110422255D01*
X155284195Y-110576524D01*
X155385967Y-110716602D01*
X155508397Y-110839032D01*
X155648475Y-110940804D01*
X155802742Y-111019408D01*
X155967415Y-111072914D01*
X156138429Y-111100000D01*
X156250000Y-111100000D01*
X156250000Y-110280330D01*
X156269745Y-110300075D01*
X156355255Y-110349444D01*
X156450630Y-110375000D01*
X156549370Y-110375000D01*
X156644745Y-110349444D01*
X156730255Y-110300075D01*
X156750000Y-110280330D01*
X156750000Y-111100000D01*
X156861571Y-111100000D01*
X157032584Y-111072914D01*
X157197257Y-111019408D01*
X157351524Y-110940804D01*
X157491602Y-110839032D01*
X157614032Y-110716602D01*
X157715804Y-110576524D01*
X157794408Y-110422255D01*
X157847569Y-110258647D01*
X157887007Y-110200971D01*
X157951365Y-110173773D01*
X158020212Y-110185688D01*
X158071687Y-110232932D01*
X158089500Y-110296965D01*
X158089500Y-114041763D01*
X158069815Y-114108802D01*
X158017011Y-114154557D01*
X157947853Y-114164501D01*
X157884297Y-114135476D01*
X157854500Y-114097035D01*
X157791646Y-113970808D01*
X157773778Y-113934924D01*
X157671891Y-113800003D01*
X157639866Y-113757595D01*
X157475655Y-113607898D01*
X157475653Y-113607896D01*
X157286733Y-113490922D01*
X157286727Y-113490919D01*
X157179080Y-113449217D01*
X157079528Y-113410650D01*
X156861104Y-113369820D01*
X156638896Y-113369820D01*
X156420472Y-113410650D01*
X156370695Y-113429933D01*
X156213272Y-113490919D01*
X156213266Y-113490922D01*
X156024346Y-113607896D01*
X156024344Y-113607898D01*
X155860133Y-113757595D01*
X155726222Y-113934923D01*
X155627180Y-114133825D01*
X155627174Y-114133840D01*
X155566366Y-114347558D01*
X155566365Y-114347560D01*
X155545863Y-114568819D01*
X155545863Y-114568820D01*
X155566365Y-114790079D01*
X155566366Y-114790081D01*
X155627174Y-115003799D01*
X155627180Y-115003814D01*
X155726222Y-115202716D01*
X155860133Y-115380044D01*
X156024344Y-115529741D01*
X156024346Y-115529743D01*
X156213266Y-115646717D01*
X156213272Y-115646720D01*
X156242206Y-115657929D01*
X156420472Y-115726990D01*
X156638896Y-115767820D01*
X156638899Y-115767820D01*
X156861101Y-115767820D01*
X156861104Y-115767820D01*
X157079528Y-115726990D01*
X157286730Y-115646719D01*
X157475655Y-115529742D01*
X157639868Y-115380042D01*
X157773778Y-115202716D01*
X157795932Y-115158225D01*
X157854500Y-115040605D01*
X157902003Y-114989367D01*
X157969666Y-114971946D01*
X158036006Y-114993871D01*
X158079961Y-115048183D01*
X158089500Y-115095876D01*
X158089500Y-117038963D01*
X158069815Y-117106002D01*
X158017011Y-117151757D01*
X157947853Y-117161701D01*
X157884297Y-117132676D01*
X157854500Y-117094235D01*
X157791032Y-116966775D01*
X157773778Y-116932124D01*
X157683413Y-116812461D01*
X157639866Y-116754795D01*
X157475655Y-116605098D01*
X157475653Y-116605096D01*
X157286733Y-116488122D01*
X157286727Y-116488119D01*
X157177506Y-116445807D01*
X157079528Y-116407850D01*
X156861104Y-116367020D01*
X156638896Y-116367020D01*
X156420472Y-116407850D01*
X156370695Y-116427133D01*
X156213272Y-116488119D01*
X156213266Y-116488122D01*
X156024346Y-116605096D01*
X156024344Y-116605098D01*
X155860133Y-116754795D01*
X155726222Y-116932123D01*
X155627180Y-117131025D01*
X155627174Y-117131040D01*
X155566366Y-117344758D01*
X155566365Y-117344760D01*
X155545863Y-117566019D01*
X155545863Y-117566020D01*
X155566365Y-117787279D01*
X155566366Y-117787281D01*
X155627174Y-118000999D01*
X155627180Y-118001014D01*
X155726222Y-118199916D01*
X155860133Y-118377244D01*
X156024344Y-118526941D01*
X156024346Y-118526943D01*
X156213266Y-118643917D01*
X156213272Y-118643920D01*
X156242206Y-118655129D01*
X156420472Y-118724190D01*
X156638896Y-118765020D01*
X156638899Y-118765020D01*
X156861101Y-118765020D01*
X156861104Y-118765020D01*
X157079528Y-118724190D01*
X157286730Y-118643919D01*
X157475655Y-118526942D01*
X157639868Y-118377242D01*
X157773778Y-118199916D01*
X157773779Y-118199914D01*
X157854500Y-118037805D01*
X157902003Y-117986567D01*
X157969666Y-117969146D01*
X158036006Y-117991071D01*
X158079961Y-118045383D01*
X158089500Y-118093076D01*
X158089500Y-130665500D01*
X158069815Y-130732539D01*
X158017011Y-130778294D01*
X157965500Y-130789500D01*
X126974500Y-130789500D01*
X126907461Y-130769815D01*
X126861706Y-130717011D01*
X126850500Y-130665500D01*
X126850500Y-128649496D01*
X146094909Y-128649496D01*
X146094909Y-128649503D01*
X146113212Y-128811955D01*
X146167210Y-128966274D01*
X146167211Y-128966275D01*
X146254192Y-129104704D01*
X146369796Y-129220308D01*
X146508225Y-129307289D01*
X146662539Y-129361286D01*
X146662542Y-129361286D01*
X146662544Y-129361287D01*
X146824996Y-129379591D01*
X146825000Y-129379591D01*
X146825004Y-129379591D01*
X146987455Y-129361287D01*
X146987456Y-129361286D01*
X146987461Y-129361286D01*
X147092838Y-129324412D01*
X147162613Y-129320850D01*
X147223241Y-129355579D01*
X147238784Y-129375482D01*
X147305251Y-129481263D01*
X147420855Y-129596867D01*
X147559284Y-129683848D01*
X147713598Y-129737845D01*
X147713601Y-129737845D01*
X147713603Y-129737846D01*
X147876055Y-129756150D01*
X147876059Y-129756150D01*
X147876063Y-129756150D01*
X148038514Y-129737846D01*
X148038515Y-129737845D01*
X148038520Y-129737845D01*
X148192834Y-129683848D01*
X148331263Y-129596867D01*
X148446867Y-129481263D01*
X148533848Y-129342834D01*
X148587845Y-129188520D01*
X148606150Y-129026059D01*
X148587845Y-128863598D01*
X148533848Y-128709284D01*
X148446867Y-128570855D01*
X148331263Y-128455251D01*
X148245345Y-128401265D01*
X148192833Y-128368269D01*
X148038514Y-128314271D01*
X147876063Y-128295968D01*
X147876055Y-128295968D01*
X147713602Y-128314271D01*
X147608221Y-128351145D01*
X147538443Y-128354706D01*
X147477816Y-128319977D01*
X147462275Y-128300076D01*
X147395809Y-128194297D01*
X147280204Y-128078692D01*
X147141774Y-127991710D01*
X146987455Y-127937712D01*
X146825004Y-127919409D01*
X146824996Y-127919409D01*
X146662544Y-127937712D01*
X146508225Y-127991710D01*
X146369795Y-128078692D01*
X146254192Y-128194295D01*
X146167210Y-128332725D01*
X146113212Y-128487044D01*
X146094909Y-128649496D01*
X126850500Y-128649496D01*
X126850500Y-124799996D01*
X129769909Y-124799996D01*
X129769909Y-124800003D01*
X129788212Y-124962455D01*
X129842210Y-125116774D01*
X129929192Y-125255204D01*
X130048806Y-125374818D01*
X130082291Y-125436141D01*
X130077307Y-125505833D01*
X130048810Y-125550177D01*
X130029191Y-125569796D01*
X129942210Y-125708225D01*
X129888212Y-125862544D01*
X129869909Y-126024996D01*
X129869909Y-126025003D01*
X129888212Y-126187455D01*
X129942210Y-126341774D01*
X129942211Y-126341775D01*
X130029192Y-126480204D01*
X130144796Y-126595808D01*
X130283225Y-126682789D01*
X130437539Y-126736786D01*
X130437542Y-126736786D01*
X130437544Y-126736787D01*
X130599996Y-126755091D01*
X130600000Y-126755091D01*
X130600004Y-126755091D01*
X130762455Y-126736787D01*
X130762456Y-126736786D01*
X130762461Y-126736786D01*
X130916775Y-126682789D01*
X131055204Y-126595808D01*
X131170808Y-126480204D01*
X131257789Y-126341775D01*
X131307400Y-126199996D01*
X151669909Y-126199996D01*
X151669909Y-126200003D01*
X151688212Y-126362455D01*
X151742210Y-126516774D01*
X151742211Y-126516775D01*
X151829192Y-126655204D01*
X151944796Y-126770808D01*
X152083225Y-126857789D01*
X152237539Y-126911786D01*
X152237542Y-126911786D01*
X152237544Y-126911787D01*
X152399996Y-126930091D01*
X152400000Y-126930091D01*
X152400004Y-126930091D01*
X152562455Y-126911787D01*
X152562456Y-126911786D01*
X152562461Y-126911786D01*
X152716775Y-126857789D01*
X152855204Y-126770808D01*
X152970808Y-126655204D01*
X153057789Y-126516775D01*
X153111786Y-126362461D01*
X153130091Y-126200000D01*
X153128678Y-126187461D01*
X153111787Y-126037544D01*
X153111786Y-126037542D01*
X153111786Y-126037539D01*
X153057789Y-125883225D01*
X152970808Y-125744796D01*
X152855204Y-125629192D01*
X152716774Y-125542210D01*
X152562455Y-125488212D01*
X152400004Y-125469909D01*
X152399996Y-125469909D01*
X152237544Y-125488212D01*
X152083225Y-125542210D01*
X151944795Y-125629192D01*
X151829192Y-125744795D01*
X151742210Y-125883225D01*
X151688212Y-126037544D01*
X151669909Y-126199996D01*
X131307400Y-126199996D01*
X131311786Y-126187461D01*
X131325946Y-126061787D01*
X131330091Y-126025003D01*
X131330091Y-126024996D01*
X131311787Y-125862544D01*
X131311786Y-125862542D01*
X131311786Y-125862539D01*
X131257789Y-125708225D01*
X131170808Y-125569796D01*
X131055204Y-125454192D01*
X131051193Y-125450181D01*
X131017708Y-125388858D01*
X131022692Y-125319166D01*
X131051193Y-125274819D01*
X131070808Y-125255204D01*
X131157789Y-125116775D01*
X131211786Y-124962461D01*
X131230091Y-124800000D01*
X131227746Y-124779192D01*
X131211787Y-124637544D01*
X131211786Y-124637542D01*
X131211786Y-124637539D01*
X131157789Y-124483225D01*
X131070808Y-124344796D01*
X130955204Y-124229192D01*
X130816774Y-124142210D01*
X130662455Y-124088212D01*
X130500004Y-124069909D01*
X130499996Y-124069909D01*
X130337544Y-124088212D01*
X130183225Y-124142210D01*
X130044795Y-124229192D01*
X129929192Y-124344795D01*
X129842210Y-124483225D01*
X129788212Y-124637544D01*
X129769909Y-124799996D01*
X126850500Y-124799996D01*
X126850500Y-123732839D01*
X132102752Y-123732839D01*
X132102752Y-123732846D01*
X132121055Y-123895298D01*
X132175053Y-124049617D01*
X132233234Y-124142211D01*
X132262035Y-124188047D01*
X132377639Y-124303651D01*
X132516068Y-124390632D01*
X132670382Y-124444629D01*
X132675433Y-124445198D01*
X132739849Y-124472260D01*
X132779408Y-124529852D01*
X132781550Y-124599689D01*
X132745596Y-124659598D01*
X132702516Y-124685459D01*
X132683228Y-124692208D01*
X132544795Y-124779192D01*
X132429192Y-124894795D01*
X132342210Y-125033225D01*
X132288212Y-125187544D01*
X132269909Y-125349996D01*
X132269909Y-125350003D01*
X132288212Y-125512455D01*
X132342210Y-125666774D01*
X132342211Y-125666775D01*
X132429192Y-125805204D01*
X132544796Y-125920808D01*
X132683225Y-126007789D01*
X132837539Y-126061786D01*
X132837542Y-126061786D01*
X132837544Y-126061787D01*
X132999996Y-126080091D01*
X133000000Y-126080091D01*
X133000004Y-126080091D01*
X133162455Y-126061787D01*
X133162456Y-126061786D01*
X133162461Y-126061786D01*
X133316775Y-126007789D01*
X133455204Y-125920808D01*
X133570808Y-125805204D01*
X133657789Y-125666775D01*
X133711786Y-125512461D01*
X133714518Y-125488214D01*
X133730091Y-125350003D01*
X133730091Y-125349996D01*
X133711787Y-125187544D01*
X133711786Y-125187542D01*
X133711786Y-125187539D01*
X133657789Y-125033225D01*
X133570808Y-124894796D01*
X133455204Y-124779192D01*
X133316774Y-124692210D01*
X133162455Y-124638212D01*
X133157400Y-124637643D01*
X133092986Y-124610576D01*
X133053431Y-124552981D01*
X133051294Y-124483144D01*
X133087253Y-124423238D01*
X133130331Y-124397381D01*
X133133961Y-124396110D01*
X133149618Y-124390632D01*
X133288047Y-124303651D01*
X133403651Y-124188047D01*
X133490632Y-124049618D01*
X133544629Y-123895304D01*
X133544630Y-123895298D01*
X133562934Y-123732846D01*
X133562934Y-123732839D01*
X133544630Y-123570387D01*
X133544629Y-123570385D01*
X133544629Y-123570382D01*
X133490632Y-123416068D01*
X133403651Y-123277639D01*
X133288047Y-123162035D01*
X133248841Y-123137400D01*
X133149617Y-123075053D01*
X132995298Y-123021055D01*
X132832847Y-123002752D01*
X132832839Y-123002752D01*
X132670387Y-123021055D01*
X132516068Y-123075053D01*
X132377638Y-123162035D01*
X132262035Y-123277638D01*
X132175053Y-123416068D01*
X132121055Y-123570387D01*
X132102752Y-123732839D01*
X126850500Y-123732839D01*
X126850500Y-122924996D01*
X140044909Y-122924996D01*
X140044909Y-122925003D01*
X140063212Y-123087455D01*
X140117210Y-123241774D01*
X140117211Y-123241775D01*
X140204192Y-123380204D01*
X140319796Y-123495808D01*
X140458225Y-123582789D01*
X140612539Y-123636786D01*
X140612542Y-123636786D01*
X140612544Y-123636787D01*
X140774997Y-123655091D01*
X140774999Y-123655091D01*
X140774999Y-123655090D01*
X140775000Y-123655091D01*
X140830086Y-123648883D01*
X140898905Y-123660936D01*
X140909937Y-123667106D01*
X140924003Y-123675945D01*
X141078317Y-123729942D01*
X141078320Y-123729943D01*
X141240774Y-123748247D01*
X141240778Y-123748247D01*
X141240782Y-123748247D01*
X141403233Y-123729943D01*
X141403234Y-123729942D01*
X141403239Y-123729942D01*
X141557553Y-123675945D01*
X141695982Y-123588964D01*
X141811586Y-123473360D01*
X141898567Y-123334931D01*
X141952564Y-123180617D01*
X141957433Y-123137403D01*
X141957434Y-123137396D01*
X148069909Y-123137396D01*
X148069909Y-123137403D01*
X148088212Y-123299855D01*
X148142210Y-123454174D01*
X148206609Y-123556664D01*
X148229192Y-123592604D01*
X148344796Y-123708208D01*
X148483225Y-123795189D01*
X148637539Y-123849186D01*
X148682104Y-123854207D01*
X148746516Y-123881272D01*
X148755901Y-123889746D01*
X148831166Y-123965011D01*
X148969595Y-124051992D01*
X149123909Y-124105989D01*
X149123912Y-124105989D01*
X149123914Y-124105990D01*
X149286366Y-124124294D01*
X149286370Y-124124294D01*
X149286374Y-124124294D01*
X149448825Y-124105990D01*
X149448826Y-124105989D01*
X149448831Y-124105989D01*
X149603145Y-124051992D01*
X149741574Y-123965011D01*
X149857178Y-123849407D01*
X149944159Y-123710978D01*
X149998156Y-123556664D01*
X150009704Y-123454174D01*
X150016461Y-123394206D01*
X150016461Y-123394199D01*
X149998157Y-123231747D01*
X149998156Y-123231745D01*
X149998156Y-123231742D01*
X149944159Y-123077428D01*
X149857178Y-122938999D01*
X149741574Y-122823395D01*
X149644723Y-122762539D01*
X149603144Y-122736413D01*
X149448825Y-122682415D01*
X149404262Y-122677394D01*
X149339849Y-122650326D01*
X149330467Y-122641855D01*
X149255204Y-122566592D01*
X149116774Y-122479610D01*
X148962455Y-122425612D01*
X148800004Y-122407309D01*
X148799996Y-122407309D01*
X148637544Y-122425612D01*
X148483225Y-122479610D01*
X148344795Y-122566592D01*
X148229192Y-122682195D01*
X148142210Y-122820625D01*
X148088212Y-122974944D01*
X148069909Y-123137396D01*
X141957434Y-123137396D01*
X141970869Y-123018159D01*
X141970869Y-123018152D01*
X141952565Y-122855700D01*
X141952564Y-122855698D01*
X141952564Y-122855695D01*
X141898567Y-122701381D01*
X141811586Y-122562952D01*
X141695982Y-122447348D01*
X141661393Y-122425614D01*
X141557552Y-122360366D01*
X141403233Y-122306368D01*
X141240782Y-122288065D01*
X141240773Y-122288065D01*
X141185688Y-122294271D01*
X141116867Y-122282216D01*
X141105836Y-122276046D01*
X141091773Y-122267210D01*
X140937457Y-122213212D01*
X140775004Y-122194909D01*
X140774996Y-122194909D01*
X140612544Y-122213212D01*
X140458225Y-122267210D01*
X140319795Y-122354192D01*
X140204192Y-122469795D01*
X140117210Y-122608225D01*
X140063212Y-122762544D01*
X140044909Y-122924996D01*
X126850500Y-122924996D01*
X126850500Y-121453571D01*
X126870185Y-121386532D01*
X126922989Y-121340777D01*
X126992147Y-121330833D01*
X127021955Y-121339011D01*
X127058309Y-121354070D01*
X127058318Y-121354072D01*
X127251504Y-121392499D01*
X127251508Y-121392500D01*
X127500000Y-121392500D01*
X127500000Y-120692500D01*
X128000000Y-120692500D01*
X128000000Y-121392500D01*
X128248492Y-121392500D01*
X128248495Y-121392499D01*
X128441681Y-121354072D01*
X128441693Y-121354069D01*
X128623671Y-121278692D01*
X128623684Y-121278685D01*
X128787462Y-121169251D01*
X128787466Y-121169248D01*
X128926748Y-121029966D01*
X128926751Y-121029962D01*
X129036185Y-120866184D01*
X129036192Y-120866171D01*
X129111569Y-120684193D01*
X129111570Y-120684189D01*
X129127837Y-120602410D01*
X129160222Y-120540498D01*
X129220938Y-120505924D01*
X129290707Y-120509663D01*
X129315428Y-120521606D01*
X129333225Y-120532789D01*
X129487539Y-120586786D01*
X129487542Y-120586786D01*
X129487544Y-120586787D01*
X129649996Y-120605091D01*
X129650000Y-120605091D01*
X129650004Y-120605091D01*
X129812455Y-120586787D01*
X129812456Y-120586786D01*
X129812461Y-120586786D01*
X129966775Y-120532789D01*
X130105204Y-120445808D01*
X130220808Y-120330204D01*
X130302289Y-120200527D01*
X130354624Y-120154237D01*
X130407283Y-120142500D01*
X131213012Y-120142500D01*
X131195795Y-120152440D01*
X131139940Y-120208295D01*
X131100444Y-120276704D01*
X131080000Y-120353004D01*
X131080000Y-120431996D01*
X131100444Y-120508296D01*
X131139940Y-120576705D01*
X131195795Y-120632560D01*
X131213012Y-120642500D01*
X130410138Y-120642500D01*
X130418430Y-120684190D01*
X130418430Y-120684192D01*
X130493807Y-120866171D01*
X130493814Y-120866184D01*
X130603247Y-121029961D01*
X130701065Y-121127778D01*
X130734550Y-121189101D01*
X130729566Y-121258793D01*
X130718378Y-121281432D01*
X130675053Y-121350382D01*
X130621055Y-121504701D01*
X130602752Y-121667153D01*
X130602752Y-121667160D01*
X130621055Y-121829612D01*
X130675053Y-121983931D01*
X130729641Y-122070807D01*
X130762035Y-122122361D01*
X130877639Y-122237965D01*
X131016068Y-122324946D01*
X131170382Y-122378943D01*
X131170385Y-122378943D01*
X131170387Y-122378944D01*
X131332839Y-122397248D01*
X131332843Y-122397248D01*
X131332847Y-122397248D01*
X131495298Y-122378944D01*
X131495299Y-122378943D01*
X131495304Y-122378943D01*
X131649618Y-122324946D01*
X131788047Y-122237965D01*
X131876016Y-122149996D01*
X134244909Y-122149996D01*
X134244909Y-122150003D01*
X134263212Y-122312455D01*
X134317210Y-122466774D01*
X134377643Y-122562952D01*
X134404192Y-122605204D01*
X134519796Y-122720808D01*
X134658225Y-122807789D01*
X134812539Y-122861786D01*
X134812542Y-122861786D01*
X134812544Y-122861787D01*
X134974996Y-122880091D01*
X134975000Y-122880091D01*
X134975004Y-122880091D01*
X135137455Y-122861787D01*
X135137456Y-122861786D01*
X135137461Y-122861786D01*
X135291775Y-122807789D01*
X135430204Y-122720808D01*
X135545808Y-122605204D01*
X135632789Y-122466775D01*
X135686786Y-122312461D01*
X135686787Y-122312455D01*
X135705091Y-122150003D01*
X135705091Y-122149996D01*
X135686787Y-121987544D01*
X135686786Y-121987542D01*
X135686786Y-121987539D01*
X135632789Y-121833225D01*
X135545808Y-121694796D01*
X135430204Y-121579192D01*
X135304165Y-121499996D01*
X141989907Y-121499996D01*
X141989907Y-121500003D01*
X142008210Y-121662455D01*
X142062208Y-121816774D01*
X142072545Y-121833225D01*
X142149190Y-121955204D01*
X142264794Y-122070808D01*
X142403223Y-122157789D01*
X142557537Y-122211786D01*
X142557540Y-122211786D01*
X142557542Y-122211787D01*
X142719994Y-122230091D01*
X142719998Y-122230091D01*
X142720002Y-122230091D01*
X142882453Y-122211787D01*
X142882454Y-122211786D01*
X142882459Y-122211786D01*
X143036773Y-122157789D01*
X143175202Y-122070808D01*
X143271014Y-121974996D01*
X155494909Y-121974996D01*
X155494909Y-121975003D01*
X155513212Y-122137455D01*
X155567210Y-122291774D01*
X155580205Y-122312455D01*
X155654192Y-122430204D01*
X155769796Y-122545808D01*
X155908225Y-122632789D01*
X156062539Y-122686786D01*
X156062542Y-122686786D01*
X156062544Y-122686787D01*
X156224996Y-122705091D01*
X156225000Y-122705091D01*
X156225004Y-122705091D01*
X156387455Y-122686787D01*
X156387456Y-122686786D01*
X156387461Y-122686786D01*
X156541775Y-122632789D01*
X156680204Y-122545808D01*
X156795808Y-122430204D01*
X156882789Y-122291775D01*
X156936786Y-122137461D01*
X156936787Y-122137455D01*
X156955091Y-121975003D01*
X156955091Y-121974996D01*
X156936787Y-121812544D01*
X156936786Y-121812542D01*
X156936786Y-121812539D01*
X156882789Y-121658225D01*
X156795808Y-121519796D01*
X156680204Y-121404192D01*
X156652098Y-121386532D01*
X156541774Y-121317210D01*
X156387455Y-121263212D01*
X156225004Y-121244909D01*
X156224996Y-121244909D01*
X156062544Y-121263212D01*
X155908225Y-121317210D01*
X155769795Y-121404192D01*
X155654192Y-121519795D01*
X155567210Y-121658225D01*
X155513212Y-121812544D01*
X155494909Y-121974996D01*
X143271014Y-121974996D01*
X143290806Y-121955204D01*
X143375227Y-121820849D01*
X143427561Y-121774559D01*
X143466338Y-121763602D01*
X143482459Y-121761786D01*
X143482463Y-121761784D01*
X143482466Y-121761784D01*
X143636770Y-121707790D01*
X143636769Y-121707790D01*
X143636773Y-121707789D01*
X143775202Y-121620808D01*
X143890806Y-121505204D01*
X143977787Y-121366775D01*
X144031784Y-121212461D01*
X144031785Y-121212455D01*
X144050089Y-121050003D01*
X144050089Y-121049996D01*
X144047272Y-121024996D01*
X153494909Y-121024996D01*
X153494909Y-121025003D01*
X153513212Y-121187455D01*
X153567210Y-121341774D01*
X153627808Y-121438214D01*
X153654192Y-121480204D01*
X153769796Y-121595808D01*
X153908225Y-121682789D01*
X154062539Y-121736786D01*
X154062542Y-121736786D01*
X154062544Y-121736787D01*
X154224996Y-121755091D01*
X154225000Y-121755091D01*
X154225004Y-121755091D01*
X154387455Y-121736787D01*
X154387456Y-121736786D01*
X154387461Y-121736786D01*
X154541775Y-121682789D01*
X154680204Y-121595808D01*
X154795808Y-121480204D01*
X154882789Y-121341775D01*
X154936786Y-121187461D01*
X154936787Y-121187455D01*
X154955091Y-121025003D01*
X154955091Y-121024996D01*
X154936787Y-120862544D01*
X154936786Y-120862542D01*
X154936786Y-120862539D01*
X154882789Y-120708225D01*
X154795808Y-120569796D01*
X154680204Y-120454192D01*
X154666859Y-120445807D01*
X154541774Y-120367210D01*
X154387455Y-120313212D01*
X154225004Y-120294909D01*
X154224996Y-120294909D01*
X154062544Y-120313212D01*
X153908225Y-120367210D01*
X153769795Y-120454192D01*
X153654192Y-120569795D01*
X153567210Y-120708225D01*
X153513212Y-120862544D01*
X153494909Y-121024996D01*
X144047272Y-121024996D01*
X144031785Y-120887544D01*
X144031784Y-120887542D01*
X144031784Y-120887539D01*
X143977787Y-120733225D01*
X143890806Y-120594796D01*
X143826027Y-120530017D01*
X143792542Y-120468694D01*
X143797526Y-120399002D01*
X143839398Y-120343069D01*
X143904862Y-120318652D01*
X143927592Y-120319116D01*
X144024997Y-120330091D01*
X144025000Y-120330091D01*
X144025004Y-120330091D01*
X144187455Y-120311787D01*
X144187456Y-120311786D01*
X144187461Y-120311786D01*
X144341775Y-120257789D01*
X144480204Y-120170808D01*
X144595808Y-120055204D01*
X144682789Y-119916775D01*
X144682788Y-119916775D01*
X144686494Y-119910879D01*
X144688688Y-119912257D01*
X144727521Y-119869236D01*
X144794945Y-119850913D01*
X144833387Y-119857846D01*
X144878851Y-119873754D01*
X144987539Y-119911786D01*
X144987542Y-119911786D01*
X144987544Y-119911787D01*
X145149996Y-119930091D01*
X145150000Y-119930091D01*
X145150004Y-119930091D01*
X145312455Y-119911787D01*
X145312456Y-119911786D01*
X145312461Y-119911786D01*
X145466775Y-119857789D01*
X145605204Y-119770808D01*
X145720808Y-119655204D01*
X145807789Y-119516775D01*
X145848652Y-119399996D01*
X151994909Y-119399996D01*
X151994909Y-119400003D01*
X152013212Y-119562455D01*
X152067210Y-119716774D01*
X152101162Y-119770808D01*
X152154192Y-119855204D01*
X152269796Y-119970808D01*
X152408225Y-120057789D01*
X152562539Y-120111786D01*
X152562542Y-120111786D01*
X152562544Y-120111787D01*
X152724996Y-120130091D01*
X152725000Y-120130091D01*
X152725004Y-120130091D01*
X152887455Y-120111787D01*
X152887456Y-120111786D01*
X152887461Y-120111786D01*
X153041775Y-120057789D01*
X153180204Y-119970808D01*
X153295808Y-119855204D01*
X153382789Y-119716775D01*
X153436786Y-119562461D01*
X153437263Y-119558227D01*
X153455091Y-119400003D01*
X153455091Y-119399996D01*
X153436787Y-119237544D01*
X153436786Y-119237542D01*
X153436786Y-119237539D01*
X153382789Y-119083225D01*
X153295808Y-118944796D01*
X153180204Y-118829192D01*
X153179427Y-118828704D01*
X153041774Y-118742210D01*
X152887455Y-118688212D01*
X152725004Y-118669909D01*
X152724996Y-118669909D01*
X152562544Y-118688212D01*
X152408225Y-118742210D01*
X152269795Y-118829192D01*
X152154192Y-118944795D01*
X152067210Y-119083225D01*
X152013212Y-119237544D01*
X151994909Y-119399996D01*
X145848652Y-119399996D01*
X145861786Y-119362461D01*
X145861787Y-119362455D01*
X145880091Y-119200003D01*
X145880091Y-119199996D01*
X145861787Y-119037544D01*
X145861786Y-119037542D01*
X145861786Y-119037539D01*
X145807789Y-118883225D01*
X145720808Y-118744796D01*
X145605204Y-118629192D01*
X145530105Y-118582004D01*
X145466774Y-118542210D01*
X145312455Y-118488212D01*
X145150004Y-118469909D01*
X145149996Y-118469909D01*
X144987544Y-118488212D01*
X144833225Y-118542210D01*
X144694795Y-118629192D01*
X144579192Y-118744795D01*
X144488506Y-118889121D01*
X144486323Y-118887749D01*
X144447413Y-118930803D01*
X144379978Y-118949084D01*
X144341612Y-118942153D01*
X144201882Y-118893260D01*
X144187461Y-118888214D01*
X144187460Y-118888213D01*
X144187455Y-118888212D01*
X144025004Y-118869909D01*
X144024996Y-118869909D01*
X143862544Y-118888212D01*
X143708223Y-118942211D01*
X143699674Y-118947583D01*
X143632437Y-118966582D01*
X143565602Y-118946213D01*
X143520389Y-118892944D01*
X143510484Y-118828704D01*
X143514331Y-118794560D01*
X143514331Y-118794554D01*
X143496027Y-118632102D01*
X143496026Y-118632100D01*
X143496026Y-118632097D01*
X143442029Y-118477783D01*
X143355048Y-118339354D01*
X143239444Y-118223750D01*
X143201513Y-118199916D01*
X143101014Y-118136768D01*
X142946695Y-118082770D01*
X142784244Y-118064467D01*
X142784236Y-118064467D01*
X142621784Y-118082770D01*
X142467465Y-118136768D01*
X142329035Y-118223750D01*
X142213432Y-118339353D01*
X142126450Y-118477783D01*
X142072452Y-118632102D01*
X142054149Y-118794554D01*
X142054149Y-118794561D01*
X142072452Y-118957013D01*
X142126450Y-119111332D01*
X142126451Y-119111333D01*
X142213432Y-119249762D01*
X142329036Y-119365366D01*
X142467465Y-119452347D01*
X142621779Y-119506344D01*
X142621782Y-119506344D01*
X142621784Y-119506345D01*
X142784236Y-119524649D01*
X142784240Y-119524649D01*
X142784244Y-119524649D01*
X142946695Y-119506345D01*
X142946696Y-119506344D01*
X142946701Y-119506344D01*
X143101015Y-119452347D01*
X143109558Y-119446978D01*
X143176792Y-119427975D01*
X143243629Y-119448339D01*
X143288846Y-119501604D01*
X143298756Y-119565849D01*
X143294909Y-119600000D01*
X143294909Y-119600003D01*
X143313212Y-119762455D01*
X143367210Y-119916774D01*
X143454192Y-120055204D01*
X143518970Y-120119982D01*
X143552455Y-120181305D01*
X143547471Y-120250997D01*
X143505599Y-120306930D01*
X143440135Y-120331347D01*
X143417406Y-120330883D01*
X143320002Y-120319909D01*
X143319994Y-120319909D01*
X143157542Y-120338212D01*
X143003223Y-120392210D01*
X142864793Y-120479192D01*
X142749190Y-120594795D01*
X142664771Y-120729148D01*
X142612436Y-120775439D01*
X142573664Y-120786396D01*
X142557541Y-120788212D01*
X142403223Y-120842210D01*
X142264793Y-120929192D01*
X142149190Y-121044795D01*
X142062208Y-121183225D01*
X142008210Y-121337544D01*
X141989907Y-121499996D01*
X135304165Y-121499996D01*
X135291774Y-121492210D01*
X135137455Y-121438212D01*
X134975004Y-121419909D01*
X134974996Y-121419909D01*
X134812544Y-121438212D01*
X134658225Y-121492210D01*
X134519795Y-121579192D01*
X134404192Y-121694795D01*
X134317210Y-121833225D01*
X134263212Y-121987544D01*
X134244909Y-122149996D01*
X131876016Y-122149996D01*
X131903651Y-122122361D01*
X131990632Y-121983932D01*
X132044629Y-121829618D01*
X132046553Y-121812544D01*
X132062934Y-121667160D01*
X132062934Y-121667153D01*
X132047524Y-121530383D01*
X132059579Y-121461561D01*
X132106928Y-121410182D01*
X132170744Y-121392500D01*
X132578492Y-121392500D01*
X132578495Y-121392499D01*
X132771681Y-121354072D01*
X132771693Y-121354069D01*
X132953671Y-121278692D01*
X132953684Y-121278685D01*
X133117462Y-121169251D01*
X133117466Y-121169248D01*
X133256748Y-121029966D01*
X133256751Y-121029962D01*
X133366185Y-120866184D01*
X133366192Y-120866171D01*
X133441569Y-120684192D01*
X133441569Y-120684190D01*
X133449862Y-120642500D01*
X132646988Y-120642500D01*
X132664205Y-120632560D01*
X132720060Y-120576705D01*
X132759556Y-120508296D01*
X132780000Y-120431996D01*
X132780000Y-120353004D01*
X132759556Y-120276704D01*
X132720060Y-120208295D01*
X132664205Y-120152440D01*
X132646988Y-120142500D01*
X133449862Y-120142500D01*
X133441569Y-120100809D01*
X133441569Y-120100807D01*
X133366192Y-119918828D01*
X133366185Y-119918815D01*
X133256751Y-119755037D01*
X133256748Y-119755033D01*
X133117466Y-119615751D01*
X133117462Y-119615748D01*
X132953684Y-119506314D01*
X132953671Y-119506307D01*
X132771693Y-119430930D01*
X132771681Y-119430927D01*
X132578495Y-119392500D01*
X132180000Y-119392500D01*
X132180000Y-120092500D01*
X131680000Y-120092500D01*
X131680000Y-119436321D01*
X131699685Y-119369282D01*
X131716319Y-119348640D01*
X131760767Y-119304192D01*
X131810495Y-119254464D01*
X131873095Y-119146036D01*
X131905500Y-119025101D01*
X131905500Y-118899899D01*
X131873095Y-118778964D01*
X131810495Y-118670536D01*
X131721964Y-118582005D01*
X131613536Y-118519405D01*
X131613537Y-118519405D01*
X131573224Y-118508603D01*
X131492601Y-118487000D01*
X131367399Y-118487000D01*
X131286775Y-118508603D01*
X131246463Y-118519405D01*
X131138037Y-118582004D01*
X131138034Y-118582006D01*
X131049506Y-118670534D01*
X131049504Y-118670537D01*
X130986905Y-118778963D01*
X130982726Y-118794560D01*
X130954500Y-118899899D01*
X130954500Y-119025101D01*
X130986905Y-119146036D01*
X131039736Y-119237544D01*
X131049504Y-119254462D01*
X131049506Y-119254465D01*
X131054426Y-119259385D01*
X131087911Y-119320708D01*
X131082927Y-119390400D01*
X131041055Y-119446333D01*
X131014198Y-119461627D01*
X130906325Y-119506309D01*
X130906315Y-119506314D01*
X130742537Y-119615748D01*
X130742533Y-119615751D01*
X130603251Y-119755033D01*
X130603244Y-119755042D01*
X130589085Y-119776232D01*
X130535472Y-119821036D01*
X130466147Y-119829742D01*
X130403120Y-119799586D01*
X130366402Y-119740142D01*
X130362765Y-119721221D01*
X130361787Y-119712545D01*
X130361786Y-119712543D01*
X130361786Y-119712539D01*
X130307789Y-119558225D01*
X130220808Y-119419796D01*
X130105204Y-119304192D01*
X130071835Y-119283225D01*
X129966774Y-119217210D01*
X129812455Y-119163212D01*
X129650004Y-119144909D01*
X129649996Y-119144909D01*
X129487544Y-119163212D01*
X129333225Y-119217210D01*
X129194795Y-119304192D01*
X129079192Y-119419795D01*
X128992208Y-119558227D01*
X128989402Y-119566248D01*
X128948676Y-119623022D01*
X128883722Y-119648765D01*
X128815161Y-119635304D01*
X128792765Y-119618891D01*
X128792173Y-119619614D01*
X128787462Y-119615748D01*
X128623684Y-119506314D01*
X128623671Y-119506307D01*
X128441693Y-119430930D01*
X128441681Y-119430927D01*
X128248495Y-119392500D01*
X128000000Y-119392500D01*
X128000000Y-120092500D01*
X127500000Y-120092500D01*
X127500000Y-119392500D01*
X127251504Y-119392500D01*
X127058318Y-119430927D01*
X127058306Y-119430930D01*
X127021952Y-119445989D01*
X126952483Y-119453458D01*
X126890004Y-119422183D01*
X126854352Y-119362094D01*
X126850500Y-119331428D01*
X126850500Y-117899996D01*
X146899199Y-117899996D01*
X146899199Y-117900003D01*
X146917502Y-118062455D01*
X146971500Y-118216774D01*
X147048522Y-118339353D01*
X147058482Y-118355204D01*
X147174086Y-118470808D01*
X147312515Y-118557789D01*
X147466829Y-118611786D01*
X147466832Y-118611786D01*
X147466834Y-118611787D01*
X147629286Y-118630091D01*
X147629290Y-118630091D01*
X147629294Y-118630091D01*
X147791745Y-118611787D01*
X147791746Y-118611786D01*
X147791751Y-118611786D01*
X147946065Y-118557789D01*
X148084494Y-118470808D01*
X148200098Y-118355204D01*
X148287079Y-118216775D01*
X148341076Y-118062461D01*
X148341077Y-118062455D01*
X148359381Y-117900003D01*
X148359381Y-117899996D01*
X148341077Y-117737544D01*
X148341076Y-117737542D01*
X148341076Y-117737539D01*
X148287079Y-117583225D01*
X148200098Y-117444796D01*
X148084494Y-117329192D01*
X147946064Y-117242210D01*
X147791745Y-117188212D01*
X147629294Y-117169909D01*
X147629286Y-117169909D01*
X147466834Y-117188212D01*
X147312515Y-117242210D01*
X147174085Y-117329192D01*
X147058482Y-117444795D01*
X146971500Y-117583225D01*
X146917502Y-117737544D01*
X146899199Y-117899996D01*
X126850500Y-117899996D01*
X126850500Y-116649996D01*
X138494909Y-116649996D01*
X138494909Y-116650003D01*
X138513212Y-116812455D01*
X138567210Y-116966774D01*
X138654192Y-117105204D01*
X138769796Y-117220808D01*
X138908225Y-117307789D01*
X139062539Y-117361786D01*
X139062542Y-117361786D01*
X139062544Y-117361787D01*
X139224996Y-117380091D01*
X139225000Y-117380091D01*
X139225004Y-117380091D01*
X139387455Y-117361787D01*
X139387456Y-117361786D01*
X139387461Y-117361786D01*
X139541775Y-117307789D01*
X139680204Y-117220808D01*
X139765913Y-117135098D01*
X139827232Y-117101616D01*
X139896924Y-117106600D01*
X139919563Y-117117788D01*
X139983224Y-117157789D01*
X140017862Y-117169909D01*
X140137539Y-117211786D01*
X140137542Y-117211786D01*
X140137544Y-117211787D01*
X140299996Y-117230091D01*
X140300000Y-117230091D01*
X140300004Y-117230091D01*
X140462455Y-117211787D01*
X140462456Y-117211786D01*
X140462461Y-117211786D01*
X140616775Y-117157789D01*
X140755204Y-117070808D01*
X140870808Y-116955204D01*
X140957789Y-116816775D01*
X141011786Y-116662461D01*
X141013190Y-116650000D01*
X141030091Y-116500003D01*
X141030091Y-116499996D01*
X141011787Y-116337544D01*
X141011786Y-116337542D01*
X141011786Y-116337539D01*
X140989284Y-116273234D01*
X140985722Y-116203459D01*
X140989276Y-116191354D01*
X141019628Y-116104616D01*
X141024378Y-116062461D01*
X141037933Y-115942158D01*
X141037933Y-115942151D01*
X141030366Y-115874996D01*
X143344909Y-115874996D01*
X143344909Y-115875003D01*
X143363212Y-116037455D01*
X143417210Y-116191774D01*
X143442664Y-116232283D01*
X143504192Y-116330204D01*
X143619796Y-116445808D01*
X143758225Y-116532789D01*
X143912539Y-116586786D01*
X143912542Y-116586786D01*
X143912544Y-116586787D01*
X144074996Y-116605091D01*
X144075000Y-116605091D01*
X144075004Y-116605091D01*
X144237455Y-116586787D01*
X144237456Y-116586786D01*
X144237461Y-116586786D01*
X144391775Y-116532789D01*
X144530204Y-116445808D01*
X144645808Y-116330204D01*
X144732789Y-116191775D01*
X144786786Y-116037461D01*
X144788714Y-116020352D01*
X144802275Y-115899996D01*
X145073202Y-115899996D01*
X145073202Y-115900003D01*
X145091505Y-116062455D01*
X145145503Y-116216774D01*
X145145504Y-116216775D01*
X145232485Y-116355204D01*
X145348089Y-116470808D01*
X145486518Y-116557789D01*
X145640832Y-116611786D01*
X145640835Y-116611786D01*
X145640837Y-116611787D01*
X145803289Y-116630091D01*
X145803293Y-116630091D01*
X145803297Y-116630091D01*
X145965748Y-116611787D01*
X145965749Y-116611786D01*
X145965754Y-116611786D01*
X146120068Y-116557789D01*
X146258497Y-116470808D01*
X146374101Y-116355204D01*
X146461082Y-116216775D01*
X146515079Y-116062461D01*
X146515080Y-116062455D01*
X146533384Y-115900003D01*
X146533384Y-115899996D01*
X146515080Y-115737544D01*
X146515079Y-115737542D01*
X146515079Y-115737539D01*
X146461082Y-115583225D01*
X146461080Y-115583221D01*
X146460382Y-115581772D01*
X146460211Y-115580735D01*
X146458782Y-115576651D01*
X146459497Y-115576400D01*
X146449027Y-115512831D01*
X146476746Y-115448695D01*
X146534740Y-115409727D01*
X146585983Y-115404745D01*
X146699996Y-115417591D01*
X146700000Y-115417591D01*
X146700004Y-115417591D01*
X146862455Y-115399287D01*
X146862456Y-115399286D01*
X146862461Y-115399286D01*
X147016775Y-115345289D01*
X147155204Y-115258308D01*
X147270808Y-115142704D01*
X147357789Y-115004275D01*
X147411786Y-114849961D01*
X147418828Y-114787464D01*
X147430091Y-114687503D01*
X147430091Y-114687496D01*
X147411787Y-114525044D01*
X147411786Y-114525042D01*
X147411786Y-114525039D01*
X147357789Y-114370725D01*
X147344767Y-114350001D01*
X147319985Y-114310560D01*
X147300985Y-114243323D01*
X147319941Y-114178687D01*
X147320431Y-114177906D01*
X147372734Y-114131579D01*
X147439352Y-114120587D01*
X147470005Y-114124040D01*
X147523700Y-114130091D01*
X147523702Y-114130091D01*
X147523706Y-114130091D01*
X147686157Y-114111787D01*
X147686158Y-114111786D01*
X147686163Y-114111786D01*
X147827025Y-114062496D01*
X149269909Y-114062496D01*
X149269909Y-114062503D01*
X149288212Y-114224955D01*
X149342210Y-114379274D01*
X149350339Y-114392211D01*
X149429192Y-114517704D01*
X149544796Y-114633308D01*
X149683225Y-114720289D01*
X149837539Y-114774286D01*
X149837542Y-114774286D01*
X149837544Y-114774287D01*
X149999996Y-114792591D01*
X150000000Y-114792591D01*
X150000004Y-114792591D01*
X150162455Y-114774287D01*
X150162456Y-114774286D01*
X150162461Y-114774286D01*
X150316775Y-114720289D01*
X150455204Y-114633308D01*
X150570808Y-114517704D01*
X150657789Y-114379275D01*
X150711786Y-114224961D01*
X150717197Y-114176940D01*
X150728683Y-114074996D01*
X151419909Y-114074996D01*
X151419909Y-114075003D01*
X151438213Y-114237459D01*
X151438213Y-114237460D01*
X151463262Y-114309048D01*
X151466823Y-114378827D01*
X151463262Y-114390954D01*
X151438213Y-114462542D01*
X151438213Y-114462543D01*
X151419909Y-114624999D01*
X151419909Y-114625006D01*
X151438212Y-114787458D01*
X151492210Y-114941777D01*
X151575715Y-115074674D01*
X151579192Y-115080207D01*
X151694796Y-115195811D01*
X151833225Y-115282792D01*
X151987539Y-115336789D01*
X152035093Y-115342147D01*
X152099505Y-115369212D01*
X152139061Y-115426807D01*
X152143288Y-115468037D01*
X152144909Y-115468037D01*
X152144909Y-115475003D01*
X152163212Y-115637455D01*
X152217210Y-115791774D01*
X152285215Y-115900003D01*
X152304192Y-115930204D01*
X152419796Y-116045808D01*
X152558225Y-116132789D01*
X152712539Y-116186786D01*
X152712542Y-116186786D01*
X152712544Y-116186787D01*
X152874996Y-116205091D01*
X152875000Y-116205091D01*
X152875004Y-116205091D01*
X153037455Y-116186787D01*
X153037456Y-116186786D01*
X153037461Y-116186786D01*
X153191775Y-116132789D01*
X153330204Y-116045808D01*
X153445808Y-115930204D01*
X153532789Y-115791775D01*
X153586786Y-115637461D01*
X153586787Y-115637455D01*
X153605091Y-115475003D01*
X153605091Y-115474996D01*
X153586787Y-115312544D01*
X153586786Y-115312542D01*
X153586786Y-115312539D01*
X153532789Y-115158225D01*
X153445808Y-115019796D01*
X153330204Y-114904192D01*
X153303701Y-114887539D01*
X153191774Y-114817210D01*
X153037455Y-114763212D01*
X152989906Y-114757855D01*
X152925492Y-114730788D01*
X152885937Y-114673193D01*
X152881721Y-114631967D01*
X152880091Y-114631967D01*
X152880091Y-114624999D01*
X152861787Y-114462547D01*
X152861786Y-114462543D01*
X152861786Y-114462542D01*
X152836735Y-114390952D01*
X152833173Y-114321178D01*
X152836729Y-114309068D01*
X152861786Y-114237461D01*
X152861787Y-114237455D01*
X152880091Y-114075003D01*
X152880091Y-114074996D01*
X152861787Y-113912544D01*
X152861786Y-113912542D01*
X152861786Y-113912539D01*
X152807789Y-113758225D01*
X152720808Y-113619796D01*
X152605204Y-113504192D01*
X152466774Y-113417210D01*
X152312455Y-113363212D01*
X152150004Y-113344909D01*
X152149996Y-113344909D01*
X151987544Y-113363212D01*
X151833225Y-113417210D01*
X151694795Y-113504192D01*
X151579192Y-113619795D01*
X151492210Y-113758225D01*
X151438212Y-113912544D01*
X151419909Y-114074996D01*
X150728683Y-114074996D01*
X150730091Y-114062503D01*
X150730091Y-114062496D01*
X150711787Y-113900044D01*
X150711786Y-113900042D01*
X150711786Y-113900039D01*
X150657789Y-113745725D01*
X150570808Y-113607296D01*
X150455204Y-113491692D01*
X150441729Y-113483225D01*
X150316774Y-113404710D01*
X150162455Y-113350712D01*
X150000004Y-113332409D01*
X149999996Y-113332409D01*
X149837544Y-113350712D01*
X149683225Y-113404710D01*
X149544795Y-113491692D01*
X149429192Y-113607295D01*
X149342210Y-113745725D01*
X149288212Y-113900044D01*
X149269909Y-114062496D01*
X147827025Y-114062496D01*
X147840477Y-114057789D01*
X147978906Y-113970808D01*
X148094510Y-113855204D01*
X148181491Y-113716775D01*
X148235488Y-113562461D01*
X148235489Y-113562455D01*
X148253793Y-113400003D01*
X148253793Y-113399998D01*
X148250221Y-113368299D01*
X148262275Y-113299477D01*
X148307470Y-113249420D01*
X148313219Y-113245808D01*
X148428823Y-113130204D01*
X148515804Y-112991775D01*
X148569801Y-112837461D01*
X148569802Y-112837455D01*
X148588106Y-112675003D01*
X148588106Y-112674996D01*
X148569802Y-112512544D01*
X148569801Y-112512542D01*
X148569801Y-112512539D01*
X148515804Y-112358225D01*
X148428823Y-112219796D01*
X148313219Y-112104192D01*
X148306552Y-112100003D01*
X148174789Y-112017210D01*
X148020470Y-111963212D01*
X147858019Y-111944909D01*
X147858011Y-111944909D01*
X147695559Y-111963212D01*
X147541240Y-112017210D01*
X147407392Y-112101313D01*
X147340155Y-112120313D01*
X147273320Y-112099945D01*
X147228106Y-112046677D01*
X147218869Y-111977421D01*
X147236427Y-111930346D01*
X147307789Y-111816775D01*
X147361786Y-111662461D01*
X147361787Y-111662455D01*
X147380091Y-111500003D01*
X147380091Y-111499996D01*
X147361787Y-111337544D01*
X147361786Y-111337542D01*
X147361786Y-111337539D01*
X147307789Y-111183225D01*
X147220808Y-111044796D01*
X147105204Y-110929192D01*
X147101078Y-110925066D01*
X147067593Y-110863743D01*
X147072577Y-110794051D01*
X147114449Y-110738118D01*
X147147803Y-110720343D01*
X147224790Y-110693405D01*
X147363219Y-110606424D01*
X147393597Y-110576046D01*
X147405687Y-110563956D01*
X147467010Y-110530470D01*
X147479486Y-110528416D01*
X147595918Y-110515298D01*
X147595921Y-110515297D01*
X147595923Y-110515297D01*
X147595925Y-110515296D01*
X147595930Y-110515295D01*
X147750234Y-110461301D01*
X147750233Y-110461301D01*
X147750237Y-110461300D01*
X147888666Y-110374319D01*
X148004270Y-110258715D01*
X148091251Y-110120286D01*
X148126154Y-110020539D01*
X150011599Y-110020539D01*
X150011599Y-110020546D01*
X150029902Y-110182998D01*
X150083900Y-110337317D01*
X150146155Y-110436394D01*
X150170882Y-110475747D01*
X150286486Y-110591351D01*
X150424915Y-110678332D01*
X150425471Y-110678526D01*
X150425780Y-110678748D01*
X150431189Y-110681353D01*
X150430732Y-110682300D01*
X150482246Y-110719246D01*
X150501558Y-110754613D01*
X150523308Y-110816772D01*
X150601244Y-110940804D01*
X150610292Y-110955204D01*
X150725896Y-111070808D01*
X150864325Y-111157789D01*
X151018639Y-111211786D01*
X151018642Y-111211786D01*
X151018644Y-111211787D01*
X151181096Y-111230091D01*
X151181100Y-111230091D01*
X151181104Y-111230091D01*
X151343554Y-111211787D01*
X151343554Y-111211786D01*
X151343561Y-111211786D01*
X151485457Y-111162133D01*
X151555235Y-111158573D01*
X151615863Y-111193302D01*
X151648090Y-111255295D01*
X151649631Y-111293062D01*
X151645892Y-111326240D01*
X151618824Y-111390654D01*
X151588649Y-111417345D01*
X151569796Y-111429192D01*
X151569793Y-111429194D01*
X151454192Y-111544795D01*
X151367210Y-111683225D01*
X151313212Y-111837544D01*
X151294909Y-111999996D01*
X151294909Y-112000003D01*
X151313212Y-112162455D01*
X151367210Y-112316774D01*
X151444117Y-112439170D01*
X151454192Y-112455204D01*
X151569796Y-112570808D01*
X151708225Y-112657789D01*
X151862539Y-112711786D01*
X151862542Y-112711786D01*
X151862544Y-112711787D01*
X152024996Y-112730091D01*
X152025000Y-112730091D01*
X152025004Y-112730091D01*
X152187455Y-112711787D01*
X152187456Y-112711786D01*
X152187461Y-112711786D01*
X152341775Y-112657789D01*
X152480204Y-112570808D01*
X152595808Y-112455204D01*
X152682789Y-112316775D01*
X152703921Y-112256382D01*
X152744643Y-112199607D01*
X152809595Y-112173859D01*
X152878157Y-112187315D01*
X152908644Y-112209656D01*
X152994796Y-112295808D01*
X153133225Y-112382789D01*
X153287539Y-112436786D01*
X153287542Y-112436786D01*
X153287544Y-112436787D01*
X153449996Y-112455091D01*
X153450000Y-112455091D01*
X153450004Y-112455091D01*
X153612455Y-112436787D01*
X153612456Y-112436786D01*
X153612461Y-112436786D01*
X153766775Y-112382789D01*
X153905204Y-112295808D01*
X154010799Y-112190212D01*
X154072118Y-112156730D01*
X154141810Y-112161714D01*
X154197744Y-112203585D01*
X154215517Y-112236937D01*
X154217209Y-112241772D01*
X154217211Y-112241775D01*
X154304192Y-112380204D01*
X154419796Y-112495808D01*
X154558225Y-112582789D01*
X154712539Y-112636786D01*
X154712542Y-112636786D01*
X154712544Y-112636787D01*
X154874996Y-112655091D01*
X154875000Y-112655091D01*
X154875004Y-112655091D01*
X155037455Y-112636787D01*
X155037456Y-112636786D01*
X155037461Y-112636786D01*
X155191775Y-112582789D01*
X155330204Y-112495808D01*
X155445808Y-112380204D01*
X155532789Y-112241775D01*
X155582400Y-112099996D01*
X156069909Y-112099996D01*
X156069909Y-112100003D01*
X156088212Y-112262455D01*
X156142210Y-112416774D01*
X156167511Y-112457040D01*
X156229192Y-112555204D01*
X156344796Y-112670808D01*
X156483225Y-112757789D01*
X156637539Y-112811786D01*
X156637542Y-112811786D01*
X156637544Y-112811787D01*
X156799996Y-112830091D01*
X156800000Y-112830091D01*
X156800004Y-112830091D01*
X156962455Y-112811787D01*
X156962456Y-112811786D01*
X156962461Y-112811786D01*
X157116775Y-112757789D01*
X157255204Y-112670808D01*
X157370808Y-112555204D01*
X157457789Y-112416775D01*
X157511786Y-112262461D01*
X157514662Y-112236937D01*
X157530091Y-112100003D01*
X157530091Y-112099996D01*
X157511787Y-111937544D01*
X157511786Y-111937542D01*
X157511786Y-111937539D01*
X157457789Y-111783225D01*
X157370808Y-111644796D01*
X157255204Y-111529192D01*
X157116774Y-111442210D01*
X156962455Y-111388212D01*
X156800004Y-111369909D01*
X156799996Y-111369909D01*
X156637544Y-111388212D01*
X156483225Y-111442210D01*
X156344795Y-111529192D01*
X156229192Y-111644795D01*
X156142210Y-111783225D01*
X156088212Y-111937544D01*
X156069909Y-112099996D01*
X155582400Y-112099996D01*
X155586786Y-112087461D01*
X155588338Y-112073687D01*
X155605091Y-111925003D01*
X155605091Y-111924996D01*
X155586787Y-111762544D01*
X155586786Y-111762542D01*
X155586786Y-111762539D01*
X155532789Y-111608225D01*
X155445808Y-111469796D01*
X155330204Y-111354192D01*
X155285719Y-111326240D01*
X155191774Y-111267210D01*
X155037455Y-111213212D01*
X154875004Y-111194909D01*
X154874996Y-111194909D01*
X154712544Y-111213212D01*
X154558225Y-111267210D01*
X154419797Y-111354191D01*
X154314203Y-111459785D01*
X154252880Y-111493269D01*
X154183188Y-111488285D01*
X154127255Y-111446413D01*
X154109480Y-111413056D01*
X154107790Y-111408226D01*
X154032381Y-111288214D01*
X154020808Y-111269796D01*
X153905204Y-111154192D01*
X153905202Y-111154190D01*
X153799171Y-111087566D01*
X153752881Y-111035232D01*
X153741924Y-110968688D01*
X153742712Y-110961701D01*
X153746847Y-110925000D01*
X153744151Y-110901074D01*
X153728543Y-110762544D01*
X153728542Y-110762542D01*
X153728542Y-110762539D01*
X153674545Y-110608225D01*
X153587564Y-110469796D01*
X153471960Y-110354192D01*
X153385834Y-110300075D01*
X153333530Y-110267210D01*
X153179211Y-110213212D01*
X153016760Y-110194909D01*
X153016752Y-110194909D01*
X152854300Y-110213212D01*
X152699981Y-110267210D01*
X152561551Y-110354192D01*
X152445948Y-110469795D01*
X152358968Y-110608222D01*
X152348770Y-110637366D01*
X152308047Y-110694141D01*
X152245613Y-110719629D01*
X152201108Y-110724644D01*
X152170206Y-110735457D01*
X152059211Y-110774295D01*
X151989432Y-110777856D01*
X151928805Y-110743127D01*
X151896578Y-110681133D01*
X151895037Y-110643369D01*
X151895714Y-110637366D01*
X151904145Y-110562531D01*
X151911191Y-110500002D01*
X151911191Y-110499996D01*
X151892887Y-110337544D01*
X151892886Y-110337542D01*
X151892886Y-110337539D01*
X151838889Y-110183225D01*
X151751908Y-110044796D01*
X151636304Y-109929192D01*
X151616543Y-109916775D01*
X151497875Y-109842210D01*
X151497872Y-109842209D01*
X151497305Y-109842011D01*
X151496988Y-109841783D01*
X151491602Y-109839190D01*
X151492056Y-109838245D01*
X151440533Y-109801284D01*
X151421229Y-109765927D01*
X151420016Y-109762461D01*
X151399479Y-109703768D01*
X151397064Y-109699925D01*
X151334277Y-109600000D01*
X151312498Y-109565339D01*
X151196894Y-109449735D01*
X151161087Y-109427236D01*
X151058464Y-109362753D01*
X150904145Y-109308755D01*
X150741694Y-109290452D01*
X150741686Y-109290452D01*
X150579234Y-109308755D01*
X150424915Y-109362753D01*
X150286485Y-109449735D01*
X150170882Y-109565338D01*
X150083900Y-109703768D01*
X150029902Y-109858087D01*
X150011599Y-110020539D01*
X148126154Y-110020539D01*
X148145248Y-109965972D01*
X148145249Y-109965966D01*
X148163553Y-109803514D01*
X148163553Y-109803507D01*
X148145586Y-109644044D01*
X148157641Y-109575223D01*
X148202832Y-109525168D01*
X148313219Y-109455808D01*
X148428823Y-109340204D01*
X148515804Y-109201775D01*
X148569801Y-109047461D01*
X148571226Y-109034814D01*
X148575149Y-108999996D01*
X152944909Y-108999996D01*
X152944909Y-109000003D01*
X152963212Y-109162455D01*
X153017210Y-109316774D01*
X153085215Y-109425003D01*
X153104192Y-109455204D01*
X153219796Y-109570808D01*
X153358225Y-109657789D01*
X153512539Y-109711786D01*
X153512542Y-109711786D01*
X153512544Y-109711787D01*
X153674996Y-109730091D01*
X153675000Y-109730091D01*
X153675004Y-109730091D01*
X153837455Y-109711787D01*
X153837456Y-109711786D01*
X153837461Y-109711786D01*
X153991775Y-109657789D01*
X154130204Y-109570808D01*
X154245808Y-109455204D01*
X154332789Y-109316775D01*
X154386786Y-109162461D01*
X154387186Y-109158912D01*
X154405091Y-109000003D01*
X154405091Y-108999996D01*
X154386787Y-108837544D01*
X154386786Y-108837542D01*
X154386786Y-108837539D01*
X154368783Y-108786091D01*
X154365221Y-108716316D01*
X154399950Y-108655688D01*
X154419849Y-108640148D01*
X154530204Y-108570808D01*
X154645808Y-108455204D01*
X154732789Y-108316775D01*
X154786786Y-108162461D01*
X154787602Y-108155223D01*
X154805091Y-108000003D01*
X154805091Y-107999996D01*
X154786787Y-107837544D01*
X154786786Y-107837542D01*
X154786786Y-107837539D01*
X154732789Y-107683225D01*
X154645808Y-107544796D01*
X154530204Y-107429192D01*
X154514022Y-107419024D01*
X154391774Y-107342210D01*
X154237455Y-107288212D01*
X154075004Y-107269909D01*
X154074996Y-107269909D01*
X153912544Y-107288212D01*
X153758225Y-107342210D01*
X153619795Y-107429192D01*
X153504192Y-107544795D01*
X153417210Y-107683225D01*
X153363212Y-107837544D01*
X153344909Y-107999996D01*
X153344909Y-108000003D01*
X153363212Y-108162453D01*
X153363213Y-108162455D01*
X153363214Y-108162461D01*
X153381216Y-108213908D01*
X153384777Y-108283684D01*
X153350048Y-108344312D01*
X153330146Y-108359853D01*
X153219801Y-108429187D01*
X153219795Y-108429192D01*
X153104192Y-108544795D01*
X153017210Y-108683225D01*
X152963212Y-108837544D01*
X152944909Y-108999996D01*
X148575149Y-108999996D01*
X148588106Y-108885003D01*
X148588106Y-108884996D01*
X148569802Y-108722544D01*
X148569801Y-108722542D01*
X148569801Y-108722539D01*
X148515804Y-108568225D01*
X148428823Y-108429796D01*
X148313219Y-108314192D01*
X148218507Y-108254680D01*
X148174789Y-108227210D01*
X148020470Y-108173212D01*
X147858019Y-108154909D01*
X147858011Y-108154909D01*
X147695559Y-108173212D01*
X147541240Y-108227210D01*
X147402810Y-108314192D01*
X147287207Y-108429795D01*
X147200225Y-108568225D01*
X147161361Y-108679293D01*
X147149992Y-108711787D01*
X147149446Y-108713346D01*
X147108724Y-108770122D01*
X147043771Y-108795870D01*
X146975210Y-108782414D01*
X146966434Y-108777387D01*
X146950238Y-108767211D01*
X146830082Y-108725167D01*
X146795923Y-108713214D01*
X146795922Y-108713213D01*
X146795917Y-108713212D01*
X146633466Y-108694909D01*
X146633458Y-108694909D01*
X146471006Y-108713212D01*
X146316687Y-108767210D01*
X146178257Y-108854192D01*
X146062654Y-108969795D01*
X145975672Y-109108225D01*
X145921674Y-109262544D01*
X145903371Y-109424996D01*
X145903371Y-109425003D01*
X145921674Y-109587455D01*
X145975672Y-109741774D01*
X146062654Y-109880204D01*
X146142145Y-109959695D01*
X146175630Y-110021018D01*
X146177684Y-110033492D01*
X146196227Y-110198071D01*
X146250225Y-110352390D01*
X146337207Y-110490820D01*
X146456936Y-110610549D01*
X146490421Y-110671872D01*
X146485437Y-110741564D01*
X146443565Y-110797497D01*
X146410211Y-110815271D01*
X146333226Y-110842209D01*
X146194795Y-110929192D01*
X146079192Y-111044795D01*
X145992210Y-111183225D01*
X145938212Y-111337544D01*
X145919909Y-111499996D01*
X145919909Y-111500003D01*
X145938212Y-111662455D01*
X145992210Y-111816774D01*
X146067568Y-111936705D01*
X146079192Y-111955204D01*
X146194796Y-112070808D01*
X146333225Y-112157789D01*
X146487539Y-112211786D01*
X146487542Y-112211786D01*
X146487544Y-112211787D01*
X146649996Y-112230091D01*
X146650000Y-112230091D01*
X146650004Y-112230091D01*
X146812455Y-112211787D01*
X146812456Y-112211786D01*
X146812461Y-112211786D01*
X146966775Y-112157789D01*
X147100623Y-112073686D01*
X147167858Y-112054686D01*
X147234693Y-112075053D01*
X147279907Y-112128321D01*
X147289146Y-112197577D01*
X147271588Y-112244652D01*
X147200225Y-112358224D01*
X147146227Y-112512544D01*
X147127924Y-112674995D01*
X147127924Y-112674996D01*
X147127924Y-112675000D01*
X147131496Y-112706702D01*
X147119440Y-112775524D01*
X147074256Y-112825572D01*
X147068504Y-112829186D01*
X147068499Y-112829190D01*
X146952892Y-112944797D01*
X146904279Y-113022165D01*
X146851945Y-113068455D01*
X146785403Y-113079412D01*
X146701058Y-113069909D01*
X146701050Y-113069909D01*
X146538598Y-113088212D01*
X146384279Y-113142210D01*
X146245849Y-113229192D01*
X146130246Y-113344795D01*
X146043264Y-113483225D01*
X145989266Y-113637544D01*
X145970963Y-113799996D01*
X145970963Y-113800003D01*
X145989266Y-113962455D01*
X146043263Y-114116771D01*
X146043266Y-114116778D01*
X146081068Y-114176940D01*
X146100068Y-114244177D01*
X146081069Y-114308882D01*
X146042210Y-114370727D01*
X145988212Y-114525044D01*
X145969909Y-114687496D01*
X145969909Y-114687503D01*
X145988212Y-114849955D01*
X146042212Y-115004281D01*
X146042912Y-115005733D01*
X146043081Y-115006764D01*
X146044511Y-115010849D01*
X146043795Y-115011099D01*
X146054264Y-115074674D01*
X146026541Y-115138809D01*
X145968546Y-115177774D01*
X145917310Y-115182754D01*
X145803298Y-115169909D01*
X145803289Y-115169909D01*
X145640837Y-115188212D01*
X145486518Y-115242210D01*
X145348088Y-115329192D01*
X145232485Y-115444795D01*
X145145503Y-115583225D01*
X145091505Y-115737544D01*
X145073202Y-115899996D01*
X144802275Y-115899996D01*
X144805091Y-115875003D01*
X144805091Y-115874996D01*
X144786787Y-115712544D01*
X144786786Y-115712542D01*
X144786786Y-115712539D01*
X144732789Y-115558225D01*
X144645808Y-115419796D01*
X144530204Y-115304192D01*
X144496146Y-115282792D01*
X144391774Y-115217210D01*
X144237455Y-115163212D01*
X144075004Y-115144909D01*
X144074996Y-115144909D01*
X143912544Y-115163212D01*
X143758225Y-115217210D01*
X143619795Y-115304192D01*
X143504192Y-115419795D01*
X143417210Y-115558225D01*
X143363212Y-115712544D01*
X143344909Y-115874996D01*
X141030366Y-115874996D01*
X141019629Y-115779699D01*
X141019628Y-115779697D01*
X141019628Y-115779694D01*
X140965631Y-115625380D01*
X140878650Y-115486951D01*
X140763046Y-115371347D01*
X140716573Y-115342146D01*
X140624616Y-115284365D01*
X140470297Y-115230367D01*
X140307846Y-115212064D01*
X140307838Y-115212064D01*
X140145386Y-115230367D01*
X139991067Y-115284365D01*
X139852637Y-115371347D01*
X139737034Y-115486950D01*
X139650052Y-115625380D01*
X139596054Y-115779699D01*
X139588369Y-115847910D01*
X139561302Y-115912324D01*
X139503707Y-115951879D01*
X139433870Y-115954016D01*
X139424195Y-115951068D01*
X139398723Y-115942155D01*
X139387461Y-115938214D01*
X139387460Y-115938213D01*
X139387455Y-115938212D01*
X139225004Y-115919909D01*
X139224996Y-115919909D01*
X139062544Y-115938212D01*
X138908225Y-115992210D01*
X138769795Y-116079192D01*
X138654192Y-116194795D01*
X138567210Y-116333225D01*
X138513212Y-116487544D01*
X138494909Y-116649996D01*
X126850500Y-116649996D01*
X126850500Y-115049996D01*
X137544909Y-115049996D01*
X137544909Y-115050003D01*
X137563212Y-115212455D01*
X137617210Y-115366774D01*
X137685215Y-115475003D01*
X137704192Y-115505204D01*
X137819796Y-115620808D01*
X137958225Y-115707789D01*
X138112539Y-115761786D01*
X138112542Y-115761786D01*
X138112544Y-115761787D01*
X138274996Y-115780091D01*
X138275000Y-115780091D01*
X138275004Y-115780091D01*
X138437455Y-115761787D01*
X138437456Y-115761786D01*
X138437461Y-115761786D01*
X138591775Y-115707789D01*
X138730204Y-115620808D01*
X138845808Y-115505204D01*
X138932789Y-115366775D01*
X138986786Y-115212461D01*
X138987884Y-115202716D01*
X139005091Y-115050003D01*
X139005091Y-115049996D01*
X138986787Y-114887544D01*
X138986786Y-114887542D01*
X138986786Y-114887539D01*
X138932789Y-114733225D01*
X138845808Y-114594796D01*
X138730204Y-114479192D01*
X138703706Y-114462542D01*
X138591774Y-114392210D01*
X138437455Y-114338212D01*
X138275004Y-114319909D01*
X138274996Y-114319909D01*
X138112544Y-114338212D01*
X137958225Y-114392210D01*
X137819795Y-114479192D01*
X137704192Y-114594795D01*
X137617210Y-114733225D01*
X137563212Y-114887544D01*
X137544909Y-115049996D01*
X126850500Y-115049996D01*
X126850500Y-112813571D01*
X126870185Y-112746532D01*
X126922989Y-112700777D01*
X126992147Y-112690833D01*
X127021955Y-112699011D01*
X127058309Y-112714070D01*
X127058318Y-112714072D01*
X127251504Y-112752499D01*
X127251508Y-112752500D01*
X127500000Y-112752500D01*
X127500000Y-112052500D01*
X128000000Y-112052500D01*
X128000000Y-112752500D01*
X128248492Y-112752500D01*
X128248495Y-112752499D01*
X128441681Y-112714072D01*
X128441693Y-112714069D01*
X128623671Y-112638692D01*
X128623684Y-112638685D01*
X128787461Y-112529252D01*
X128885244Y-112431469D01*
X128946567Y-112397984D01*
X129016259Y-112402968D01*
X129072193Y-112444839D01*
X129077918Y-112453175D01*
X129079193Y-112455204D01*
X129194797Y-112570808D01*
X129333226Y-112657789D01*
X129487540Y-112711786D01*
X129487543Y-112711786D01*
X129487545Y-112711787D01*
X129649997Y-112730091D01*
X129650001Y-112730091D01*
X129650005Y-112730091D01*
X129812456Y-112711787D01*
X129812457Y-112711786D01*
X129812462Y-112711786D01*
X129966776Y-112657789D01*
X130105205Y-112570808D01*
X130200145Y-112475867D01*
X130261464Y-112442385D01*
X130301704Y-112440331D01*
X130392301Y-112450538D01*
X130449998Y-112457040D01*
X130450000Y-112457040D01*
X130450003Y-112457040D01*
X130588675Y-112441415D01*
X130657497Y-112453469D01*
X130690241Y-112476955D01*
X130742533Y-112529248D01*
X130742537Y-112529251D01*
X130906315Y-112638685D01*
X130906328Y-112638692D01*
X131014197Y-112683372D01*
X131068601Y-112727212D01*
X131090666Y-112793506D01*
X131073387Y-112861206D01*
X131054430Y-112885610D01*
X131049508Y-112890532D01*
X131049504Y-112890537D01*
X130986905Y-112998963D01*
X130986905Y-112998964D01*
X130954500Y-113119899D01*
X130954500Y-113245101D01*
X130986905Y-113366036D01*
X131049505Y-113474464D01*
X131138036Y-113562995D01*
X131246464Y-113625595D01*
X131367399Y-113658000D01*
X131367401Y-113658000D01*
X131492599Y-113658000D01*
X131492601Y-113658000D01*
X131613536Y-113625595D01*
X131721964Y-113562995D01*
X131810495Y-113474464D01*
X131873095Y-113366036D01*
X131905500Y-113245101D01*
X131905500Y-113119899D01*
X131873095Y-112998964D01*
X131810495Y-112890536D01*
X131721964Y-112802005D01*
X131716319Y-112796360D01*
X131682834Y-112735037D01*
X131680000Y-112708679D01*
X131680000Y-112052500D01*
X132180000Y-112052500D01*
X132180000Y-112752500D01*
X132578492Y-112752500D01*
X132578495Y-112752499D01*
X132771681Y-112714072D01*
X132771693Y-112714069D01*
X132953671Y-112638692D01*
X132953684Y-112638685D01*
X133117462Y-112529251D01*
X133117466Y-112529248D01*
X133256748Y-112389966D01*
X133256751Y-112389962D01*
X133366185Y-112226184D01*
X133366192Y-112226171D01*
X133443902Y-112038561D01*
X133445635Y-112039278D01*
X133479127Y-111988155D01*
X133542934Y-111959688D01*
X133580574Y-111961392D01*
X133580618Y-111961007D01*
X133586361Y-111961654D01*
X133587110Y-111961688D01*
X133587534Y-111961784D01*
X133587539Y-111961786D01*
X133587544Y-111961786D01*
X133587546Y-111961787D01*
X133749996Y-111980091D01*
X133750000Y-111980091D01*
X133750004Y-111980091D01*
X133912455Y-111961787D01*
X133912456Y-111961786D01*
X133912461Y-111961786D01*
X134066775Y-111907789D01*
X134205204Y-111820808D01*
X134320808Y-111705204D01*
X134407789Y-111566775D01*
X134461786Y-111412461D01*
X134462263Y-111408226D01*
X134480091Y-111250003D01*
X134480091Y-111249996D01*
X134471913Y-111177414D01*
X135526876Y-111177414D01*
X135526876Y-111177421D01*
X135545179Y-111339873D01*
X135599177Y-111494192D01*
X135670829Y-111608225D01*
X135686159Y-111632622D01*
X135801763Y-111748226D01*
X135940192Y-111835207D01*
X136094506Y-111889204D01*
X136094509Y-111889204D01*
X136094511Y-111889205D01*
X136256963Y-111907509D01*
X136256967Y-111907509D01*
X136256971Y-111907509D01*
X136419422Y-111889205D01*
X136419423Y-111889204D01*
X136419428Y-111889204D01*
X136517260Y-111854970D01*
X136587035Y-111851408D01*
X136647663Y-111886137D01*
X136675252Y-111931055D01*
X136691477Y-111977421D01*
X136714828Y-112044157D01*
X136767712Y-112128321D01*
X136801810Y-112182587D01*
X136917414Y-112298191D01*
X137055843Y-112385172D01*
X137210157Y-112439169D01*
X137210160Y-112439169D01*
X137210162Y-112439170D01*
X137372614Y-112457474D01*
X137372618Y-112457474D01*
X137372622Y-112457474D01*
X137535073Y-112439170D01*
X137535074Y-112439169D01*
X137535079Y-112439169D01*
X137689393Y-112385172D01*
X137827822Y-112298191D01*
X137943426Y-112182587D01*
X138030407Y-112044158D01*
X138084404Y-111889844D01*
X138086832Y-111868296D01*
X138102709Y-111727386D01*
X138102709Y-111727379D01*
X138084405Y-111564929D01*
X138084404Y-111564925D01*
X138084404Y-111564922D01*
X138073250Y-111533049D01*
X138069688Y-111463273D01*
X138073246Y-111451154D01*
X138086786Y-111412461D01*
X138089815Y-111385577D01*
X138105091Y-111250003D01*
X138105091Y-111249996D01*
X138086787Y-111087544D01*
X138086786Y-111087542D01*
X138086786Y-111087539D01*
X138070679Y-111041511D01*
X138067117Y-110971734D01*
X138070680Y-110959601D01*
X138072219Y-110955204D01*
X138086786Y-110913575D01*
X138091826Y-110868846D01*
X138105091Y-110751117D01*
X138105091Y-110751110D01*
X138086007Y-110581732D01*
X138087670Y-110581544D01*
X138091021Y-110521799D01*
X138111786Y-110462461D01*
X138112111Y-110459577D01*
X138130091Y-110300003D01*
X138130091Y-110299996D01*
X138111787Y-110137544D01*
X138111786Y-110137540D01*
X138111786Y-110137539D01*
X138057789Y-109983225D01*
X138046944Y-109965966D01*
X138016036Y-109916776D01*
X137994335Y-109882240D01*
X137975335Y-109815004D01*
X137982289Y-109775311D01*
X137986786Y-109762461D01*
X137986787Y-109762453D01*
X138005091Y-109600003D01*
X138005091Y-109599996D01*
X137986787Y-109437544D01*
X137986786Y-109437542D01*
X137986786Y-109437539D01*
X137932789Y-109283225D01*
X137845808Y-109144796D01*
X137730204Y-109029192D01*
X137683750Y-109000003D01*
X137591774Y-108942210D01*
X137437455Y-108888212D01*
X137275004Y-108869909D01*
X137274996Y-108869909D01*
X137112544Y-108888212D01*
X136958225Y-108942210D01*
X136819795Y-109029192D01*
X136704192Y-109144795D01*
X136617210Y-109283225D01*
X136563212Y-109437544D01*
X136544909Y-109599996D01*
X136544909Y-109600003D01*
X136563212Y-109762455D01*
X136617211Y-109916776D01*
X136680663Y-110017758D01*
X136699664Y-110084995D01*
X136692712Y-110124683D01*
X136688213Y-110137540D01*
X136688212Y-110137542D01*
X136669909Y-110299996D01*
X136669909Y-110300005D01*
X136677521Y-110367572D01*
X136665466Y-110436394D01*
X136618116Y-110487773D01*
X136550506Y-110505396D01*
X136513348Y-110498496D01*
X136419428Y-110465632D01*
X136419427Y-110465631D01*
X136419422Y-110465630D01*
X136256971Y-110447327D01*
X136256963Y-110447327D01*
X136094511Y-110465630D01*
X135940192Y-110519628D01*
X135801762Y-110606610D01*
X135686159Y-110722213D01*
X135599177Y-110860643D01*
X135545179Y-111014962D01*
X135526876Y-111177414D01*
X134471913Y-111177414D01*
X134461787Y-111087542D01*
X134455354Y-111069159D01*
X134442169Y-111031479D01*
X134438608Y-110961701D01*
X134473336Y-110901074D01*
X134535330Y-110868846D01*
X134545328Y-110867305D01*
X134658184Y-110854589D01*
X134658185Y-110854588D01*
X134658190Y-110854588D01*
X134812504Y-110800591D01*
X134950933Y-110713610D01*
X134983410Y-110681133D01*
X134987849Y-110676694D01*
X135049171Y-110643208D01*
X135061649Y-110641154D01*
X135160261Y-110630044D01*
X135160263Y-110630043D01*
X135160267Y-110630043D01*
X135160270Y-110630041D01*
X135160274Y-110630041D01*
X135314578Y-110576047D01*
X135314577Y-110576047D01*
X135314581Y-110576046D01*
X135453010Y-110489065D01*
X135568614Y-110373461D01*
X135655595Y-110235032D01*
X135709592Y-110080718D01*
X135713124Y-110049370D01*
X135727897Y-109918260D01*
X135727897Y-109918253D01*
X135709593Y-109755801D01*
X135709592Y-109755799D01*
X135709592Y-109755796D01*
X135655595Y-109601482D01*
X135568614Y-109463053D01*
X135453010Y-109347449D01*
X135406454Y-109318196D01*
X135314580Y-109260467D01*
X135220887Y-109227683D01*
X135164111Y-109186961D01*
X135138363Y-109122009D01*
X135151819Y-109053447D01*
X135156848Y-109044668D01*
X135157700Y-109043311D01*
X135157703Y-109043309D01*
X135244684Y-108904880D01*
X135298681Y-108750566D01*
X135300988Y-108730091D01*
X135316986Y-108588108D01*
X135316986Y-108588101D01*
X135298682Y-108425647D01*
X135289711Y-108400009D01*
X135250869Y-108289008D01*
X135247308Y-108219231D01*
X135250860Y-108207131D01*
X135269024Y-108155223D01*
X135269025Y-108155216D01*
X135287329Y-107992765D01*
X135287329Y-107992758D01*
X135269025Y-107830306D01*
X135269024Y-107830304D01*
X135269024Y-107830301D01*
X135215027Y-107675987D01*
X135128046Y-107537558D01*
X135012442Y-107421954D01*
X134987492Y-107406277D01*
X134874012Y-107334972D01*
X134719693Y-107280974D01*
X134557242Y-107262671D01*
X134557234Y-107262671D01*
X134394782Y-107280974D01*
X134240463Y-107334972D01*
X134102033Y-107421954D01*
X133986430Y-107537557D01*
X133899448Y-107675987D01*
X133845450Y-107830306D01*
X133827147Y-107992758D01*
X133827147Y-107992765D01*
X133845450Y-108155216D01*
X133845451Y-108155221D01*
X133845452Y-108155223D01*
X133890403Y-108283684D01*
X133893262Y-108291855D01*
X133896823Y-108361633D01*
X133893262Y-108373762D01*
X133875108Y-108425644D01*
X133875108Y-108425645D01*
X133856804Y-108588101D01*
X133856804Y-108588108D01*
X133875107Y-108750560D01*
X133929105Y-108904879D01*
X133988874Y-109000000D01*
X134016087Y-109043309D01*
X134131691Y-109158913D01*
X134158565Y-109175799D01*
X134263921Y-109241999D01*
X134310212Y-109294334D01*
X134320860Y-109363388D01*
X134292485Y-109427236D01*
X134238905Y-109464034D01*
X134178955Y-109485011D01*
X134040526Y-109571993D01*
X133956287Y-109656232D01*
X133894963Y-109689716D01*
X133825272Y-109684732D01*
X133776254Y-109649197D01*
X133775732Y-109649720D01*
X133772452Y-109646440D01*
X133771664Y-109645869D01*
X133770809Y-109644797D01*
X133655204Y-109529192D01*
X133516774Y-109442210D01*
X133362455Y-109388212D01*
X133200004Y-109369909D01*
X133199996Y-109369909D01*
X133037544Y-109388212D01*
X132883225Y-109442210D01*
X132744795Y-109529192D01*
X132629192Y-109644795D01*
X132542210Y-109783225D01*
X132488212Y-109937544D01*
X132469909Y-110099996D01*
X132469909Y-110100003D01*
X132488212Y-110262455D01*
X132542210Y-110416774D01*
X132572909Y-110465630D01*
X132615412Y-110533274D01*
X132632897Y-110561100D01*
X132630618Y-110562531D01*
X132652396Y-110615863D01*
X132639646Y-110684559D01*
X132591780Y-110735457D01*
X132529042Y-110752500D01*
X132180000Y-110752500D01*
X132180000Y-111452500D01*
X131680000Y-111452500D01*
X131680000Y-110752500D01*
X131281504Y-110752500D01*
X131088318Y-110790927D01*
X131088306Y-110790930D01*
X130906328Y-110866307D01*
X130906315Y-110866314D01*
X130742540Y-110975746D01*
X130734713Y-110983573D01*
X130673388Y-111017055D01*
X130619904Y-111013842D01*
X130619250Y-111016712D01*
X130612459Y-111015162D01*
X130450004Y-110996858D01*
X130449996Y-110996858D01*
X130287544Y-111015161D01*
X130133225Y-111069159D01*
X129994797Y-111156140D01*
X129899858Y-111251079D01*
X129838534Y-111284563D01*
X129798294Y-111286617D01*
X129650005Y-111269909D01*
X129649997Y-111269909D01*
X129487545Y-111288212D01*
X129333225Y-111342210D01*
X129242704Y-111399089D01*
X129175467Y-111418089D01*
X129108632Y-111397721D01*
X129063418Y-111344453D01*
X129062171Y-111341548D01*
X129036190Y-111278824D01*
X129036185Y-111278815D01*
X128926751Y-111115037D01*
X128926748Y-111115033D01*
X128787466Y-110975751D01*
X128787462Y-110975748D01*
X128623684Y-110866314D01*
X128623671Y-110866307D01*
X128441693Y-110790930D01*
X128441681Y-110790927D01*
X128248495Y-110752500D01*
X128000000Y-110752500D01*
X128000000Y-111452500D01*
X127500000Y-111452500D01*
X127500000Y-110752500D01*
X127251504Y-110752500D01*
X127058318Y-110790927D01*
X127058306Y-110790930D01*
X127021952Y-110805989D01*
X126952483Y-110813458D01*
X126890004Y-110782183D01*
X126854352Y-110722094D01*
X126850500Y-110691428D01*
X126850500Y-106449996D01*
X138169909Y-106449996D01*
X138169909Y-106450003D01*
X138188212Y-106612455D01*
X138242210Y-106766774D01*
X138276162Y-106820808D01*
X138329192Y-106905204D01*
X138444796Y-107020808D01*
X138583225Y-107107789D01*
X138737539Y-107161786D01*
X138737542Y-107161786D01*
X138737544Y-107161787D01*
X138899996Y-107180091D01*
X138900000Y-107180091D01*
X138900004Y-107180091D01*
X139062455Y-107161787D01*
X139062456Y-107161786D01*
X139062461Y-107161786D01*
X139216775Y-107107789D01*
X139355204Y-107020808D01*
X139470808Y-106905204D01*
X139557789Y-106766775D01*
X139611786Y-106612461D01*
X139611787Y-106612455D01*
X139630091Y-106450003D01*
X139630091Y-106449996D01*
X139611787Y-106287544D01*
X139611786Y-106287542D01*
X139611786Y-106287539D01*
X139557789Y-106133225D01*
X139489784Y-106024996D01*
X140869909Y-106024996D01*
X140869909Y-106025003D01*
X140888212Y-106187455D01*
X140942210Y-106341774D01*
X141010215Y-106450003D01*
X141029192Y-106480204D01*
X141144796Y-106595808D01*
X141283225Y-106682789D01*
X141437539Y-106736786D01*
X141437542Y-106736786D01*
X141437544Y-106736787D01*
X141599996Y-106755091D01*
X141600000Y-106755091D01*
X141600004Y-106755091D01*
X141762455Y-106736787D01*
X141762456Y-106736786D01*
X141762461Y-106736786D01*
X141916775Y-106682789D01*
X142055204Y-106595808D01*
X142170808Y-106480204D01*
X142257789Y-106341775D01*
X142311786Y-106187461D01*
X142315242Y-106156787D01*
X142330091Y-106025003D01*
X142330091Y-106024996D01*
X142311787Y-105862544D01*
X142311786Y-105862542D01*
X142311786Y-105862539D01*
X142257789Y-105708225D01*
X142170808Y-105569796D01*
X142055204Y-105454192D01*
X142008106Y-105424598D01*
X141916774Y-105367210D01*
X141877667Y-105353526D01*
X143985007Y-105353526D01*
X143985007Y-105353533D01*
X144003310Y-105515985D01*
X144057308Y-105670304D01*
X144135532Y-105794796D01*
X144144290Y-105808734D01*
X144259894Y-105924338D01*
X144398323Y-106011319D01*
X144552637Y-106065316D01*
X144552640Y-106065316D01*
X144552642Y-106065317D01*
X144715094Y-106083621D01*
X144715098Y-106083621D01*
X144715100Y-106083621D01*
X144763838Y-106078129D01*
X144787013Y-106075518D01*
X144855835Y-106087572D01*
X144907214Y-106134921D01*
X144924839Y-106202531D01*
X144924117Y-106212621D01*
X144919906Y-106249996D01*
X144919906Y-106250003D01*
X144938209Y-106412455D01*
X144992207Y-106566774D01*
X145065105Y-106682789D01*
X145079189Y-106705204D01*
X145194793Y-106820808D01*
X145333222Y-106907789D01*
X145487536Y-106961786D01*
X145487539Y-106961786D01*
X145487541Y-106961787D01*
X145649993Y-106980091D01*
X145649997Y-106980091D01*
X145650001Y-106980091D01*
X145812452Y-106961787D01*
X145812453Y-106961786D01*
X145812458Y-106961786D01*
X145878916Y-106938530D01*
X145948693Y-106934968D01*
X146009321Y-106969697D01*
X146041548Y-107031690D01*
X146035144Y-107101265D01*
X146007553Y-107143252D01*
X145987207Y-107163598D01*
X145900226Y-107302026D01*
X145846228Y-107456345D01*
X145827925Y-107618797D01*
X145827925Y-107618804D01*
X145846228Y-107781256D01*
X145900226Y-107935575D01*
X145900227Y-107935576D01*
X145987208Y-108074005D01*
X146102812Y-108189609D01*
X146241241Y-108276590D01*
X146395555Y-108330587D01*
X146395558Y-108330587D01*
X146395560Y-108330588D01*
X146558012Y-108348892D01*
X146558016Y-108348892D01*
X146558020Y-108348892D01*
X146720471Y-108330588D01*
X146720472Y-108330587D01*
X146720477Y-108330587D01*
X146874791Y-108276590D01*
X147013220Y-108189609D01*
X147128824Y-108074005D01*
X147175327Y-107999996D01*
X150369909Y-107999996D01*
X150369909Y-108000003D01*
X150388212Y-108162455D01*
X150442210Y-108316774D01*
X150513226Y-108429795D01*
X150529192Y-108455204D01*
X150644796Y-108570808D01*
X150783225Y-108657789D01*
X150937539Y-108711786D01*
X150937542Y-108711786D01*
X150937544Y-108711787D01*
X151099996Y-108730091D01*
X151100000Y-108730091D01*
X151100004Y-108730091D01*
X151262455Y-108711787D01*
X151262456Y-108711786D01*
X151262461Y-108711786D01*
X151416775Y-108657789D01*
X151555204Y-108570808D01*
X151670808Y-108455204D01*
X151757789Y-108316775D01*
X151811786Y-108162461D01*
X151812602Y-108155223D01*
X151830091Y-108000003D01*
X151830091Y-107999996D01*
X151811787Y-107837544D01*
X151811786Y-107837542D01*
X151811786Y-107837539D01*
X151757789Y-107683225D01*
X151670808Y-107544796D01*
X151670807Y-107544795D01*
X151667103Y-107538900D01*
X151669624Y-107537315D01*
X151648240Y-107484902D01*
X151661011Y-107416209D01*
X151707509Y-107366795D01*
X151707319Y-107366493D01*
X151708480Y-107365762D01*
X151708892Y-107365326D01*
X151710758Y-107364331D01*
X151713211Y-107362789D01*
X151713215Y-107362788D01*
X151851644Y-107275807D01*
X151967248Y-107160203D01*
X152054229Y-107021774D01*
X152108226Y-106867460D01*
X152108227Y-106867454D01*
X152126531Y-106705002D01*
X152126531Y-106704995D01*
X152108227Y-106542543D01*
X152108226Y-106542541D01*
X152108226Y-106542538D01*
X152054229Y-106388224D01*
X151967248Y-106249795D01*
X151851644Y-106134191D01*
X151742032Y-106065317D01*
X151713214Y-106047209D01*
X151558895Y-105993211D01*
X151396444Y-105974908D01*
X151396436Y-105974908D01*
X151233984Y-105993211D01*
X151079665Y-106047209D01*
X150941235Y-106134191D01*
X150825632Y-106249794D01*
X150738650Y-106388224D01*
X150684652Y-106542543D01*
X150666349Y-106704995D01*
X150666349Y-106705002D01*
X150684652Y-106867454D01*
X150738650Y-107021773D01*
X150829337Y-107166099D01*
X150826818Y-107167681D01*
X150848202Y-107220121D01*
X150835417Y-107288811D01*
X150788926Y-107338196D01*
X150789121Y-107338506D01*
X150787933Y-107339252D01*
X150787526Y-107339685D01*
X150785672Y-107340673D01*
X150644795Y-107429192D01*
X150529192Y-107544795D01*
X150442210Y-107683225D01*
X150388212Y-107837544D01*
X150369909Y-107999996D01*
X147175327Y-107999996D01*
X147215805Y-107935576D01*
X147269802Y-107781262D01*
X147288107Y-107618801D01*
X147279104Y-107538900D01*
X147269803Y-107456345D01*
X147269802Y-107456343D01*
X147269802Y-107456340D01*
X147215805Y-107302026D01*
X147128824Y-107163597D01*
X147081237Y-107116010D01*
X147047752Y-107054687D01*
X147052736Y-106984995D01*
X147094608Y-106929062D01*
X147127969Y-106911286D01*
X147137963Y-106907789D01*
X147276392Y-106820808D01*
X147391996Y-106705204D01*
X147478977Y-106566775D01*
X147532974Y-106412461D01*
X147535705Y-106388224D01*
X147551279Y-106250003D01*
X147551279Y-106249996D01*
X147532975Y-106087544D01*
X147532974Y-106087542D01*
X147532974Y-106087539D01*
X147478977Y-105933225D01*
X147391996Y-105794796D01*
X147276392Y-105679192D01*
X147266431Y-105672933D01*
X147137962Y-105592210D01*
X146983643Y-105538212D01*
X146958303Y-105535357D01*
X146893889Y-105508289D01*
X146854336Y-105450693D01*
X146854162Y-105444996D01*
X148312762Y-105444996D01*
X148312762Y-105445003D01*
X148331065Y-105607455D01*
X148385063Y-105761774D01*
X148450312Y-105865616D01*
X148472045Y-105900204D01*
X148587649Y-106015808D01*
X148726078Y-106102789D01*
X148880392Y-106156786D01*
X148880395Y-106156786D01*
X148880397Y-106156787D01*
X149042849Y-106175091D01*
X149042853Y-106175091D01*
X149042857Y-106175091D01*
X149205308Y-106156787D01*
X149205309Y-106156786D01*
X149205314Y-106156786D01*
X149359628Y-106102789D01*
X149498057Y-106015808D01*
X149498058Y-106015807D01*
X149503501Y-106011467D01*
X149505353Y-106013789D01*
X149554998Y-105986631D01*
X149622405Y-105990734D01*
X149667730Y-106006595D01*
X149667734Y-106006595D01*
X149667736Y-106006596D01*
X149667733Y-106006596D01*
X149830187Y-106024900D01*
X149830191Y-106024900D01*
X149830195Y-106024900D01*
X149992646Y-106006596D01*
X149992647Y-106006595D01*
X149992652Y-106006595D01*
X150146966Y-105952598D01*
X150285395Y-105865617D01*
X150400999Y-105750013D01*
X150487980Y-105611584D01*
X150541977Y-105457270D01*
X150545658Y-105424599D01*
X150560282Y-105294812D01*
X150560282Y-105294805D01*
X150541978Y-105132353D01*
X150541977Y-105132351D01*
X150541977Y-105132348D01*
X150487980Y-104978034D01*
X150400999Y-104839605D01*
X150285395Y-104724001D01*
X150233400Y-104691330D01*
X150146965Y-104637019D01*
X149992646Y-104583021D01*
X149830195Y-104564718D01*
X149830187Y-104564718D01*
X149667735Y-104583021D01*
X149513416Y-104637019D01*
X149374983Y-104724003D01*
X149369539Y-104728345D01*
X149367707Y-104726048D01*
X149317855Y-104753219D01*
X149250639Y-104749074D01*
X149205314Y-104733214D01*
X149205313Y-104733213D01*
X149205308Y-104733212D01*
X149042857Y-104714909D01*
X149042849Y-104714909D01*
X148880397Y-104733212D01*
X148726078Y-104787210D01*
X148587648Y-104874192D01*
X148472045Y-104989795D01*
X148385063Y-105128225D01*
X148331065Y-105282544D01*
X148312762Y-105444996D01*
X146854162Y-105444996D01*
X146852199Y-105380856D01*
X146867194Y-105346168D01*
X146932789Y-105241775D01*
X146986786Y-105087461D01*
X146986787Y-105087455D01*
X147005091Y-104925003D01*
X147005091Y-104924996D01*
X146986787Y-104762544D01*
X146986786Y-104762542D01*
X146986786Y-104762539D01*
X146932789Y-104608225D01*
X146845808Y-104469796D01*
X146730204Y-104354192D01*
X146696835Y-104333225D01*
X146591774Y-104267210D01*
X146437455Y-104213212D01*
X146275004Y-104194909D01*
X146274996Y-104194909D01*
X146112544Y-104213212D01*
X145958225Y-104267210D01*
X145819795Y-104354192D01*
X145704192Y-104469795D01*
X145704187Y-104469801D01*
X145637800Y-104575456D01*
X145585466Y-104621747D01*
X145516412Y-104632395D01*
X145491853Y-104626526D01*
X145477896Y-104621642D01*
X145467118Y-104617871D01*
X145467117Y-104617870D01*
X145467115Y-104617870D01*
X145304661Y-104599566D01*
X145304653Y-104599566D01*
X145142201Y-104617869D01*
X145016720Y-104661777D01*
X144946941Y-104665338D01*
X144934813Y-104661777D01*
X144877557Y-104641743D01*
X144715102Y-104623439D01*
X144715094Y-104623439D01*
X144552642Y-104641742D01*
X144398323Y-104695740D01*
X144259895Y-104782721D01*
X144239534Y-104803082D01*
X144178210Y-104836566D01*
X144124910Y-104832752D01*
X144136927Y-104864967D01*
X144122076Y-104933241D01*
X144118237Y-104939788D01*
X144057308Y-105036755D01*
X144003310Y-105191074D01*
X143985007Y-105353526D01*
X141877667Y-105353526D01*
X141762455Y-105313212D01*
X141600004Y-105294909D01*
X141599996Y-105294909D01*
X141437544Y-105313212D01*
X141283225Y-105367210D01*
X141144795Y-105454192D01*
X141029192Y-105569795D01*
X140942210Y-105708225D01*
X140888212Y-105862544D01*
X140869909Y-106024996D01*
X139489784Y-106024996D01*
X139470808Y-105994796D01*
X139355204Y-105879192D01*
X139328701Y-105862539D01*
X139216774Y-105792210D01*
X139062455Y-105738212D01*
X138900004Y-105719909D01*
X138899996Y-105719909D01*
X138737544Y-105738212D01*
X138583225Y-105792210D01*
X138444795Y-105879192D01*
X138329192Y-105994795D01*
X138242210Y-106133225D01*
X138188212Y-106287544D01*
X138169909Y-106449996D01*
X126850500Y-106449996D01*
X126850500Y-104853787D01*
X128991118Y-104853787D01*
X128991118Y-104853794D01*
X129009421Y-105016246D01*
X129009422Y-105016251D01*
X129009423Y-105016252D01*
X129016588Y-105036730D01*
X129063419Y-105170565D01*
X129133781Y-105282544D01*
X129150401Y-105308995D01*
X129266005Y-105424599D01*
X129404434Y-105511580D01*
X129558748Y-105565577D01*
X129558751Y-105565577D01*
X129558753Y-105565578D01*
X129721205Y-105583882D01*
X129721209Y-105583882D01*
X129721213Y-105583882D01*
X129883666Y-105565578D01*
X129883668Y-105565577D01*
X129883670Y-105565577D01*
X129949260Y-105542625D01*
X130019038Y-105539064D01*
X130079665Y-105573792D01*
X130107255Y-105618711D01*
X130123405Y-105664865D01*
X130203422Y-105792210D01*
X130210388Y-105803296D01*
X130325992Y-105918900D01*
X130464421Y-106005881D01*
X130618735Y-106059878D01*
X130618738Y-106059878D01*
X130618740Y-106059879D01*
X130781192Y-106078183D01*
X130781196Y-106078183D01*
X130781200Y-106078183D01*
X130943651Y-106059879D01*
X130943652Y-106059878D01*
X130943657Y-106059878D01*
X131097971Y-106005881D01*
X131236400Y-105918900D01*
X131352004Y-105803296D01*
X131438985Y-105664867D01*
X131492982Y-105510553D01*
X131493237Y-105508289D01*
X131511287Y-105348095D01*
X131511287Y-105348088D01*
X131492983Y-105185636D01*
X131492982Y-105185634D01*
X131492982Y-105185631D01*
X131438985Y-105031317D01*
X131352004Y-104892888D01*
X131236400Y-104777284D01*
X131212934Y-104762539D01*
X131097970Y-104690302D01*
X130945697Y-104637020D01*
X130943657Y-104636306D01*
X130943656Y-104636305D01*
X130943651Y-104636304D01*
X130781200Y-104618001D01*
X130781192Y-104618001D01*
X130618739Y-104636304D01*
X130553143Y-104659257D01*
X130483364Y-104662818D01*
X130422737Y-104628088D01*
X130395148Y-104583170D01*
X130384402Y-104552460D01*
X130378998Y-104537016D01*
X130292017Y-104398587D01*
X130176413Y-104282983D01*
X130151312Y-104267211D01*
X130037983Y-104196001D01*
X129883664Y-104142003D01*
X129721213Y-104123700D01*
X129721205Y-104123700D01*
X129558753Y-104142003D01*
X129404434Y-104196001D01*
X129266004Y-104282983D01*
X129150401Y-104398586D01*
X129063419Y-104537016D01*
X129009421Y-104691335D01*
X128991118Y-104853787D01*
X126850500Y-104853787D01*
X126850500Y-103486108D01*
X126870185Y-103419069D01*
X126922989Y-103373314D01*
X126992147Y-103363370D01*
X127015447Y-103369064D01*
X127137539Y-103411786D01*
X127137545Y-103411786D01*
X127137546Y-103411787D01*
X127299996Y-103430091D01*
X127300000Y-103430091D01*
X127300004Y-103430091D01*
X127462455Y-103411787D01*
X127462456Y-103411786D01*
X127462461Y-103411786D01*
X127616775Y-103357789D01*
X127755204Y-103270808D01*
X127870808Y-103155204D01*
X127957789Y-103016775D01*
X128011786Y-102862461D01*
X128011787Y-102862455D01*
X128030091Y-102700003D01*
X128030091Y-102699996D01*
X128011787Y-102537544D01*
X128011786Y-102537542D01*
X128011786Y-102537539D01*
X127957789Y-102383225D01*
X127870808Y-102244796D01*
X127755204Y-102129192D01*
X127737505Y-102118071D01*
X127616774Y-102042210D01*
X127462455Y-101988212D01*
X127300004Y-101969909D01*
X127299996Y-101969909D01*
X127137544Y-101988212D01*
X127015454Y-102030933D01*
X126945675Y-102034494D01*
X126885048Y-101999765D01*
X126852821Y-101937771D01*
X126850500Y-101913891D01*
X126850500Y-99249996D01*
X131444909Y-99249996D01*
X131444909Y-99250003D01*
X131463212Y-99412455D01*
X131517210Y-99566774D01*
X131517211Y-99566775D01*
X131604192Y-99705204D01*
X131719796Y-99820808D01*
X131858225Y-99907789D01*
X132012539Y-99961786D01*
X132012542Y-99961786D01*
X132012544Y-99961787D01*
X132174996Y-99980091D01*
X132175000Y-99980091D01*
X132175004Y-99980091D01*
X132337455Y-99961787D01*
X132337456Y-99961786D01*
X132337461Y-99961786D01*
X132491775Y-99907789D01*
X132621185Y-99826474D01*
X132688421Y-99807474D01*
X132692155Y-99808612D01*
X132690291Y-99794633D01*
X132719962Y-99731377D01*
X132725130Y-99725881D01*
X132745808Y-99705204D01*
X132832789Y-99566775D01*
X132886786Y-99412461D01*
X132891290Y-99372489D01*
X132905091Y-99250003D01*
X132905091Y-99249996D01*
X132886787Y-99087544D01*
X132886786Y-99087542D01*
X132886786Y-99087539D01*
X132832789Y-98933225D01*
X132745808Y-98794796D01*
X132630204Y-98679192D01*
X132491774Y-98592210D01*
X132337455Y-98538212D01*
X132175004Y-98519909D01*
X132174996Y-98519909D01*
X132012544Y-98538212D01*
X131858225Y-98592210D01*
X131719795Y-98679192D01*
X131604192Y-98794795D01*
X131517210Y-98933225D01*
X131463212Y-99087544D01*
X131444909Y-99249996D01*
X126850500Y-99249996D01*
X126850500Y-94154500D01*
X126870185Y-94087461D01*
X126922989Y-94041706D01*
X126974500Y-94030500D01*
X134876000Y-94030500D01*
X134943039Y-94050185D01*
G37*
G04 #@! TD.AperFunction*
M02*
