M48
; DRILL file {KiCad 8.0.2} date 2024-10-09T18:55:10-0600
; FORMAT={-:-/ absolute / metric / decimal}
; #@! TF.CreationDate,2024-10-09T18:55:10-06:00
; #@! TF.GenerationSoftware,Kicad,Pcbnew,8.0.2
; #@! TF.FileFunction,Plated,1,2,PTH
FMAT,2
METRIC
; #@! TA.AperFunction,Plated,PTH,ViaDrill
T1C0.300
; #@! TA.AperFunction,Plated,PTH,ComponentDrill
T2C0.600
; #@! TA.AperFunction,Plated,PTH,ComponentDrill
T3C0.750
; #@! TA.AperFunction,Plated,PTH,ComponentDrill
T4C0.950
; #@! TA.AperFunction,Plated,PTH,ComponentDrill
T5C1.000
%
G90
G05
T1
X96.0Y-62.0
X99.0Y-98.5
X99.311Y-108.811
X99.5Y-52.5
X99.5Y-110.9
X99.5Y-135.0
X100.438Y-101.5
X101.637Y-100.0
X101.7Y-92.0
X104.1Y-97.5
X104.5Y-95.5
X105.0Y-92.0
X105.0Y-96.9
X105.0Y-98.1
X107.211Y-91.789
X108.0Y-81.0
X108.0Y-104.0
X108.0Y-107.0
X108.0Y-110.0
X108.0Y-113.0
X108.0Y-132.0
X108.309Y-91.191
X110.711Y-95.289
X111.559Y-94.441
X111.894Y-83.901
X112.0Y-90.5
X113.0Y-104.5
X114.5Y-82.5
X116.0Y-62.0
X117.375Y-104.0
X119.5Y-104.5
X120.0Y-62.0
X124.0Y-62.0
X126.5Y-70.5
X129.0Y-78.0
X130.0Y-78.0
X131.176Y-136.524
X132.0Y-136.5
X133.5Y-133.0
X134.0Y-57.0
X134.0Y-134.5
X134.5Y-135.5
X136.0Y-57.0
X140.0Y-62.0
X141.0Y-57.5
X142.0Y-63.5
X143.0Y-63.0
X143.88Y-70.62
X146.0Y-68.5
X147.0Y-68.5
X148.0Y-70.5
X152.0Y-64.0
X152.0Y-66.5
X152.0Y-68.5
X156.5Y-64.0
X158.0Y-61.0
X158.0Y-64.0
X162.5Y-65.5
X163.351Y-60.851
X164.351Y-59.851
X164.435Y-62.435
X165.685Y-61.185
X167.199Y-55.301
X167.199Y-58.699
X171.5Y-60.5
X171.5Y-128.0
X171.5Y-137.5
X174.75Y-58.25
X176.0Y-58.5
X183.0Y-55.5
X183.5Y-128.0
X183.5Y-137.5
X185.057Y-58.046
X187.5Y-60.0
X190.5Y-55.5
X190.5Y-57.0
T3
X159.5Y-54.5
X161.5Y-54.5
T4
X97.0Y-77.0
X97.0Y-79.5
X97.0Y-82.0
X97.0Y-84.5
X97.0Y-87.0
X97.0Y-89.5
X97.0Y-143.0
X99.5Y-143.0
X102.0Y-143.0
X104.5Y-143.0
X107.0Y-143.0
X109.5Y-143.0
X116.5Y-51.0
X119.0Y-51.0
X121.5Y-51.0
X130.0Y-143.0
X132.5Y-143.0
X135.0Y-143.0
X137.5Y-143.0
X140.0Y-143.0
X140.75Y-50.975
X142.5Y-143.0
X143.25Y-50.975
X145.75Y-50.975
X148.25Y-50.975
X189.5Y-110.5
X189.5Y-113.0
X189.5Y-115.5
X189.5Y-118.0
T5
X97.0Y-51.0
X99.5Y-51.0
X173.5Y-50.975
X176.0Y-50.975
T2
X181.68Y-49.9G85X181.68Y-49.1
G05
X181.68Y-54.23G85X181.68Y-53.13
G05
X190.32Y-49.9G85X190.32Y-49.1
G05
X190.32Y-54.23G85X190.32Y-53.13
G05
M30
