%TF.GenerationSoftware,KiCad,Pcbnew,8.0.2*%
%TF.CreationDate,2024-10-06T19:59:32-06:00*%
%TF.ProjectId,kicad,6b696361-642e-46b6-9963-61645f706362,rev?*%
%TF.SameCoordinates,Original*%
%TF.FileFunction,Drillmap*%
%TF.FilePolarity,Positive*%
%FSLAX45Y45*%
G04 Gerber Fmt 4.5, Leading zero omitted, Abs format (unit mm)*
G04 Created by KiCad (PCBNEW 8.0.2) date 2024-10-06 19:59:32*
%MOMM*%
%LPD*%
G01*
G04 APERTURE LIST*
%ADD10C,0.050000*%
%ADD11C,0.200000*%
%ADD12C,0.100000*%
G04 APERTURE END LIST*
D10*
X9300000Y-4700000D02*
X19300000Y-4700000D01*
X19300000Y-14700000D01*
X9300000Y-14700000D01*
X9300000Y-4700000D01*
D11*
D12*
X9585000Y-6185000D02*
X9615000Y-6215000D01*
X9615000Y-6185000D02*
X9585000Y-6215000D01*
X9885000Y-9835000D02*
X9915000Y-9865000D01*
X9915000Y-9835000D02*
X9885000Y-9865000D01*
X9916074Y-10866074D02*
X9946074Y-10896074D01*
X9946074Y-10866074D02*
X9916074Y-10896074D01*
X9935000Y-5235000D02*
X9965000Y-5265000D01*
X9965000Y-5235000D02*
X9935000Y-5265000D01*
X9935000Y-11075000D02*
X9965000Y-11105000D01*
X9965000Y-11075000D02*
X9935000Y-11105000D01*
X9935000Y-13485000D02*
X9965000Y-13515000D01*
X9965000Y-13485000D02*
X9935000Y-13515000D01*
X10028750Y-10135000D02*
X10058750Y-10165000D01*
X10058750Y-10135000D02*
X10028750Y-10165000D01*
X10148750Y-9985000D02*
X10178750Y-10015000D01*
X10178750Y-9985000D02*
X10148750Y-10015000D01*
X10155000Y-9185000D02*
X10185000Y-9215000D01*
X10185000Y-9185000D02*
X10155000Y-9215000D01*
X10395000Y-9735000D02*
X10425000Y-9765000D01*
X10425000Y-9735000D02*
X10395000Y-9765000D01*
X10435000Y-9535000D02*
X10465000Y-9565000D01*
X10465000Y-9535000D02*
X10435000Y-9565000D01*
X10485000Y-9185000D02*
X10515000Y-9215000D01*
X10515000Y-9185000D02*
X10485000Y-9215000D01*
X10485000Y-9675000D02*
X10515000Y-9705000D01*
X10515000Y-9675000D02*
X10485000Y-9705000D01*
X10485000Y-9795000D02*
X10515000Y-9825000D01*
X10515000Y-9795000D02*
X10485000Y-9825000D01*
X10706074Y-9163926D02*
X10736074Y-9193926D01*
X10736074Y-9163926D02*
X10706074Y-9193926D01*
X10785000Y-8085000D02*
X10815000Y-8115000D01*
X10815000Y-8085000D02*
X10785000Y-8115000D01*
X10785000Y-10385000D02*
X10815000Y-10415000D01*
X10815000Y-10385000D02*
X10785000Y-10415000D01*
X10785000Y-10685000D02*
X10815000Y-10715000D01*
X10815000Y-10685000D02*
X10785000Y-10715000D01*
X10785000Y-10985000D02*
X10815000Y-11015000D01*
X10815000Y-10985000D02*
X10785000Y-11015000D01*
X10785000Y-11285000D02*
X10815000Y-11315000D01*
X10815000Y-11285000D02*
X10785000Y-11315000D01*
X10785000Y-13185000D02*
X10815000Y-13215000D01*
X10815000Y-13185000D02*
X10785000Y-13215000D01*
X10815926Y-9104073D02*
X10845926Y-9134073D01*
X10845926Y-9104073D02*
X10815926Y-9134073D01*
X11056074Y-9513926D02*
X11086074Y-9543926D01*
X11086074Y-9513926D02*
X11056074Y-9543926D01*
X11140927Y-9429074D02*
X11170927Y-9459074D01*
X11170927Y-9429074D02*
X11140927Y-9459074D01*
X11174360Y-8375139D02*
X11204359Y-8405140D01*
X11204359Y-8375139D02*
X11174360Y-8405140D01*
X11185000Y-9035000D02*
X11215000Y-9065000D01*
X11215000Y-9035000D02*
X11185000Y-9065000D01*
X11285000Y-10435000D02*
X11315000Y-10465000D01*
X11315000Y-10435000D02*
X11285000Y-10465000D01*
X11435000Y-8235000D02*
X11465000Y-8265000D01*
X11465000Y-8235000D02*
X11435000Y-8265000D01*
X11585000Y-6185000D02*
X11615000Y-6215000D01*
X11615000Y-6185000D02*
X11585000Y-6215000D01*
X11722500Y-10385000D02*
X11752500Y-10415000D01*
X11752500Y-10385000D02*
X11722500Y-10415000D01*
X11935000Y-10435000D02*
X11965000Y-10465000D01*
X11965000Y-10435000D02*
X11935000Y-10465000D01*
X11985000Y-6185000D02*
X12015000Y-6215000D01*
X12015000Y-6185000D02*
X11985000Y-6215000D01*
X12385000Y-6185000D02*
X12415000Y-6215000D01*
X12415000Y-6185000D02*
X12385000Y-6215000D01*
X12635000Y-7035000D02*
X12665000Y-7065000D01*
X12665000Y-7035000D02*
X12635000Y-7065000D01*
X12885000Y-7785000D02*
X12915000Y-7815000D01*
X12915000Y-7785000D02*
X12885000Y-7815000D01*
X12985000Y-7785000D02*
X13015000Y-7815000D01*
X13015000Y-7785000D02*
X12985000Y-7815000D01*
X13102573Y-13637426D02*
X13132573Y-13667426D01*
X13132573Y-13637426D02*
X13102573Y-13667426D01*
X13185000Y-13635000D02*
X13215000Y-13665000D01*
X13215000Y-13635000D02*
X13185000Y-13665000D01*
X13285000Y-6135000D02*
X13315000Y-6165000D01*
X13315000Y-6135000D02*
X13285000Y-6165000D01*
X13335000Y-13285000D02*
X13365000Y-13315000D01*
X13365000Y-13285000D02*
X13335000Y-13315000D01*
X13385000Y-13435000D02*
X13415000Y-13465000D01*
X13415000Y-13435000D02*
X13385000Y-13465000D01*
X13435000Y-13535000D02*
X13465000Y-13565000D01*
X13465000Y-13535000D02*
X13435000Y-13565000D01*
X13685000Y-6135000D02*
X13715000Y-6165000D01*
X13715000Y-6135000D02*
X13685000Y-6165000D01*
X13871250Y-5785000D02*
X13901250Y-5815000D01*
X13901250Y-5785000D02*
X13871250Y-5815000D01*
X14227500Y-5735000D02*
X14257500Y-5765000D01*
X14257500Y-5735000D02*
X14227500Y-5765000D01*
X14392500Y-5735000D02*
X14422500Y-5765000D01*
X14422500Y-5735000D02*
X14392500Y-5765000D01*
X14477500Y-5885000D02*
X14507500Y-5915000D01*
X14507500Y-5885000D02*
X14477500Y-5915000D01*
X14635000Y-6235000D02*
X14665000Y-6265000D01*
X14665000Y-6235000D02*
X14635000Y-6265000D01*
X14985000Y-6040000D02*
X15015000Y-6070000D01*
X15015000Y-6040000D02*
X14985000Y-6070000D01*
X15023091Y-6235000D02*
X15053091Y-6265000D01*
X15053091Y-6235000D02*
X15023091Y-6265000D01*
X15023091Y-6454409D02*
X15053091Y-6484409D01*
X15053091Y-6454409D02*
X15023091Y-6484409D01*
X15181612Y-6546250D02*
X15211612Y-6576250D01*
X15211612Y-6546250D02*
X15181612Y-6576250D01*
X15211210Y-6011210D02*
X15241210Y-6041210D01*
X15241210Y-6011210D02*
X15211210Y-6041210D01*
X15285000Y-5807500D02*
X15315000Y-5837500D01*
X15315000Y-5807500D02*
X15285000Y-5837500D01*
X15385000Y-5735000D02*
X15415000Y-5765000D01*
X15415000Y-5735000D02*
X15385000Y-5765000D01*
X15385000Y-6431250D02*
X15415000Y-6461250D01*
X15415000Y-6431250D02*
X15385000Y-6461250D01*
X15435000Y-6335000D02*
X15465000Y-6365000D01*
X15465000Y-6335000D02*
X15435000Y-6365000D01*
X15437500Y-5635000D02*
X15467500Y-5665000D01*
X15467500Y-5635000D02*
X15437500Y-5665000D01*
X15512500Y-6043817D02*
X15542500Y-6073817D01*
X15542500Y-6043817D02*
X15512500Y-6073817D01*
X15585000Y-5585000D02*
X15615000Y-5615000D01*
X15615000Y-5585000D02*
X15585000Y-5615000D01*
X15635000Y-5685000D02*
X15665000Y-5715000D01*
X15665000Y-5685000D02*
X15635000Y-5715000D01*
X15685000Y-6002500D02*
X15715000Y-6032500D01*
X15715000Y-6002500D02*
X15685000Y-6032500D01*
X15885000Y-6335000D02*
X15915000Y-6365000D01*
X15915000Y-6335000D02*
X15885000Y-6365000D01*
X15935000Y-5985000D02*
X15965000Y-6015000D01*
X15965000Y-5985000D02*
X15935000Y-6015000D01*
X15985000Y-5285000D02*
X16015000Y-5315000D01*
X16015000Y-5285000D02*
X15985000Y-5315000D01*
X16085000Y-6135000D02*
X16115000Y-6165000D01*
X16115000Y-6135000D02*
X16085000Y-6165000D01*
X16185000Y-6585000D02*
X16215000Y-6615000D01*
X16215000Y-6585000D02*
X16185000Y-6615000D01*
X17135000Y-6035000D02*
X17165000Y-6065000D01*
X17165000Y-6035000D02*
X17135000Y-6065000D01*
X17135000Y-12785000D02*
X17165000Y-12815000D01*
X17165000Y-12785000D02*
X17135000Y-12815000D01*
X17135000Y-13735000D02*
X17165000Y-13765000D01*
X17165000Y-13735000D02*
X17135000Y-13765000D01*
X17385000Y-5735000D02*
X17415000Y-5765000D01*
X17415000Y-5735000D02*
X17385000Y-5765000D01*
X17585000Y-5735000D02*
X17615000Y-5765000D01*
X17615000Y-5735000D02*
X17585000Y-5765000D01*
X18285000Y-5535000D02*
X18315000Y-5565000D01*
X18315000Y-5535000D02*
X18285000Y-5565000D01*
X18335000Y-12785000D02*
X18365000Y-12815000D01*
X18365000Y-12785000D02*
X18335000Y-12815000D01*
X18335000Y-13735000D02*
X18365000Y-13765000D01*
X18365000Y-13735000D02*
X18335000Y-13765000D01*
X18490695Y-5789580D02*
X18520695Y-5819580D01*
X18520695Y-5789580D02*
X18490695Y-5819580D01*
X18735000Y-5985000D02*
X18765000Y-6015000D01*
X18765000Y-5985000D02*
X18735000Y-6015000D01*
X19035000Y-5535000D02*
X19065000Y-5565000D01*
X19065000Y-5535000D02*
X19035000Y-5565000D01*
X19035000Y-5685000D02*
X19065000Y-5715000D01*
X19065000Y-5685000D02*
X19035000Y-5715000D01*
X18198000Y-4950000D02*
G75*
G02*
X18138000Y-4950000I-30000J0D01*
G01*
X18138000Y-4950000D02*
G75*
G02*
X18198000Y-4950000I30000J0D01*
G01*
X18198000Y-4990000D02*
X18198000Y-4910000D01*
X18138000Y-4910000D02*
G75*
G02*
X18198000Y-4910000I30000J0D01*
G01*
X18138000Y-4910000D02*
X18138000Y-4990000D01*
X18138000Y-4990000D02*
G75*
G03*
X18198000Y-4990000I30000J0D01*
G01*
X18198000Y-5368000D02*
G75*
G02*
X18138000Y-5368000I-30000J0D01*
G01*
X18138000Y-5368000D02*
G75*
G02*
X18198000Y-5368000I30000J0D01*
G01*
X18198000Y-5423000D02*
X18198000Y-5313000D01*
X18138000Y-5313000D02*
G75*
G02*
X18198000Y-5313000I30000J0D01*
G01*
X18138000Y-5313000D02*
X18138000Y-5423000D01*
X18138000Y-5423000D02*
G75*
G03*
X18198000Y-5423000I30000J0D01*
G01*
X19062000Y-4950000D02*
G75*
G02*
X19002000Y-4950000I-30000J0D01*
G01*
X19002000Y-4950000D02*
G75*
G02*
X19062000Y-4950000I30000J0D01*
G01*
X19062000Y-4990000D02*
X19062000Y-4910000D01*
X19002000Y-4910000D02*
G75*
G02*
X19062000Y-4910000I30000J0D01*
G01*
X19002000Y-4910000D02*
X19002000Y-4990000D01*
X19002000Y-4990000D02*
G75*
G03*
X19062000Y-4990000I30000J0D01*
G01*
X19062000Y-5368000D02*
G75*
G02*
X19002000Y-5368000I-30000J0D01*
G01*
X19002000Y-5368000D02*
G75*
G02*
X19062000Y-5368000I30000J0D01*
G01*
X19062000Y-5423000D02*
X19062000Y-5313000D01*
X19002000Y-5313000D02*
G75*
G02*
X19062000Y-5313000I30000J0D01*
G01*
X19002000Y-5313000D02*
X19002000Y-5423000D01*
X19002000Y-5423000D02*
G75*
G03*
X19062000Y-5423000I30000J0D01*
G01*
X15400000Y-5412500D02*
X15400000Y-5487500D01*
X15362500Y-5450000D02*
X15437500Y-5450000D01*
X15600000Y-5412500D02*
X15600000Y-5487500D01*
X15562500Y-5450000D02*
X15637500Y-5450000D01*
X9733588Y-7733588D02*
X9733588Y-7666412D01*
X9666412Y-7666412D01*
X9666412Y-7733588D01*
X9733588Y-7733588D01*
X9733588Y-7983588D02*
X9733588Y-7916412D01*
X9666412Y-7916412D01*
X9666412Y-7983588D01*
X9733588Y-7983588D01*
X9733588Y-8233588D02*
X9733588Y-8166412D01*
X9666412Y-8166412D01*
X9666412Y-8233588D01*
X9733588Y-8233588D01*
X9733588Y-8483588D02*
X9733588Y-8416412D01*
X9666412Y-8416412D01*
X9666412Y-8483588D01*
X9733588Y-8483588D01*
X9733588Y-8733588D02*
X9733588Y-8666412D01*
X9666412Y-8666412D01*
X9666412Y-8733588D01*
X9733588Y-8733588D01*
X9733588Y-8983588D02*
X9733588Y-8916412D01*
X9666412Y-8916412D01*
X9666412Y-8983588D01*
X9733588Y-8983588D01*
X9733588Y-14333588D02*
X9733588Y-14266412D01*
X9666412Y-14266412D01*
X9666412Y-14333588D01*
X9733588Y-14333588D01*
X9983588Y-14333588D02*
X9983588Y-14266412D01*
X9916412Y-14266412D01*
X9916412Y-14333588D01*
X9983588Y-14333588D01*
X10233588Y-14333588D02*
X10233588Y-14266412D01*
X10166412Y-14266412D01*
X10166412Y-14333588D01*
X10233588Y-14333588D01*
X10483588Y-14333588D02*
X10483588Y-14266412D01*
X10416412Y-14266412D01*
X10416412Y-14333588D01*
X10483588Y-14333588D01*
X10733588Y-14333588D02*
X10733588Y-14266412D01*
X10666412Y-14266412D01*
X10666412Y-14333588D01*
X10733588Y-14333588D01*
X10983588Y-14333588D02*
X10983588Y-14266412D01*
X10916412Y-14266412D01*
X10916412Y-14333588D01*
X10983588Y-14333588D01*
X11683588Y-5133588D02*
X11683588Y-5066412D01*
X11616412Y-5066412D01*
X11616412Y-5133588D01*
X11683588Y-5133588D01*
X11933588Y-5133588D02*
X11933588Y-5066412D01*
X11866412Y-5066412D01*
X11866412Y-5133588D01*
X11933588Y-5133588D01*
X12183588Y-5133588D02*
X12183588Y-5066412D01*
X12116412Y-5066412D01*
X12116412Y-5133588D01*
X12183588Y-5133588D01*
X13033588Y-14333588D02*
X13033588Y-14266412D01*
X12966412Y-14266412D01*
X12966412Y-14333588D01*
X13033588Y-14333588D01*
X13283588Y-14333588D02*
X13283588Y-14266412D01*
X13216412Y-14266412D01*
X13216412Y-14333588D01*
X13283588Y-14333588D01*
X13533588Y-14333588D02*
X13533588Y-14266412D01*
X13466412Y-14266412D01*
X13466412Y-14333588D01*
X13533588Y-14333588D01*
X13783588Y-14333588D02*
X13783588Y-14266412D01*
X13716412Y-14266412D01*
X13716412Y-14333588D01*
X13783588Y-14333588D01*
X13833588Y-5083588D02*
X13833588Y-5016412D01*
X13766412Y-5016412D01*
X13766412Y-5083588D01*
X13833588Y-5083588D01*
X14033588Y-14333588D02*
X14033588Y-14266412D01*
X13966412Y-14266412D01*
X13966412Y-14333588D01*
X14033588Y-14333588D01*
X14083588Y-5083588D02*
X14083588Y-5016412D01*
X14016412Y-5016412D01*
X14016412Y-5083588D01*
X14083588Y-5083588D01*
X14283588Y-14333588D02*
X14283588Y-14266412D01*
X14216412Y-14266412D01*
X14216412Y-14333588D01*
X14283588Y-14333588D01*
X14333588Y-5083588D02*
X14333588Y-5016412D01*
X14266412Y-5016412D01*
X14266412Y-5083588D01*
X14333588Y-5083588D01*
X14583588Y-5083588D02*
X14583588Y-5016412D01*
X14516412Y-5016412D01*
X14516412Y-5083588D01*
X14583588Y-5083588D01*
X18983588Y-11083588D02*
X18983588Y-11016412D01*
X18916412Y-11016412D01*
X18916412Y-11083588D01*
X18983588Y-11083588D01*
X18983588Y-11333588D02*
X18983588Y-11266412D01*
X18916412Y-11266412D01*
X18916412Y-11333588D01*
X18983588Y-11333588D01*
X18983588Y-11583588D02*
X18983588Y-11516412D01*
X18916412Y-11516412D01*
X18916412Y-11583588D01*
X18983588Y-11583588D01*
X18983588Y-11833588D02*
X18983588Y-11766412D01*
X18916412Y-11766412D01*
X18916412Y-11833588D01*
X18983588Y-11833588D01*
X9700000Y-5150000D02*
X9750000Y-5100000D01*
X9700000Y-5050000D01*
X9650000Y-5100000D01*
X9700000Y-5150000D01*
X9950000Y-5150000D02*
X10000000Y-5100000D01*
X9950000Y-5050000D01*
X9900000Y-5100000D01*
X9950000Y-5150000D01*
X17350000Y-5050000D02*
X17400000Y-5000000D01*
X17350000Y-4950000D01*
X17300000Y-5000000D01*
X17350000Y-5050000D01*
X17600000Y-5050000D02*
X17650000Y-5000000D01*
X17600000Y-4950000D01*
X17550000Y-5000000D01*
X17600000Y-5050000D01*
D11*
X9558277Y-15013984D02*
X9558277Y-14813984D01*
X9558277Y-14813984D02*
X9605896Y-14813984D01*
X9605896Y-14813984D02*
X9634467Y-14823508D01*
X9634467Y-14823508D02*
X9653515Y-14842555D01*
X9653515Y-14842555D02*
X9663039Y-14861603D01*
X9663039Y-14861603D02*
X9672563Y-14899698D01*
X9672563Y-14899698D02*
X9672563Y-14928269D01*
X9672563Y-14928269D02*
X9663039Y-14966365D01*
X9663039Y-14966365D02*
X9653515Y-14985412D01*
X9653515Y-14985412D02*
X9634467Y-15004460D01*
X9634467Y-15004460D02*
X9605896Y-15013984D01*
X9605896Y-15013984D02*
X9558277Y-15013984D01*
X9758277Y-15013984D02*
X9758277Y-14880650D01*
X9758277Y-14918746D02*
X9767801Y-14899698D01*
X9767801Y-14899698D02*
X9777324Y-14890174D01*
X9777324Y-14890174D02*
X9796372Y-14880650D01*
X9796372Y-14880650D02*
X9815420Y-14880650D01*
X9882086Y-15013984D02*
X9882086Y-14880650D01*
X9882086Y-14813984D02*
X9872563Y-14823508D01*
X9872563Y-14823508D02*
X9882086Y-14833031D01*
X9882086Y-14833031D02*
X9891610Y-14823508D01*
X9891610Y-14823508D02*
X9882086Y-14813984D01*
X9882086Y-14813984D02*
X9882086Y-14833031D01*
X10005896Y-15013984D02*
X9986848Y-15004460D01*
X9986848Y-15004460D02*
X9977324Y-14985412D01*
X9977324Y-14985412D02*
X9977324Y-14813984D01*
X10110658Y-15013984D02*
X10091610Y-15004460D01*
X10091610Y-15004460D02*
X10082086Y-14985412D01*
X10082086Y-14985412D02*
X10082086Y-14813984D01*
X10339229Y-15013984D02*
X10339229Y-14813984D01*
X10339229Y-14813984D02*
X10405896Y-14956841D01*
X10405896Y-14956841D02*
X10472563Y-14813984D01*
X10472563Y-14813984D02*
X10472563Y-15013984D01*
X10653515Y-15013984D02*
X10653515Y-14909222D01*
X10653515Y-14909222D02*
X10643991Y-14890174D01*
X10643991Y-14890174D02*
X10624944Y-14880650D01*
X10624944Y-14880650D02*
X10586848Y-14880650D01*
X10586848Y-14880650D02*
X10567801Y-14890174D01*
X10653515Y-15004460D02*
X10634467Y-15013984D01*
X10634467Y-15013984D02*
X10586848Y-15013984D01*
X10586848Y-15013984D02*
X10567801Y-15004460D01*
X10567801Y-15004460D02*
X10558277Y-14985412D01*
X10558277Y-14985412D02*
X10558277Y-14966365D01*
X10558277Y-14966365D02*
X10567801Y-14947317D01*
X10567801Y-14947317D02*
X10586848Y-14937793D01*
X10586848Y-14937793D02*
X10634467Y-14937793D01*
X10634467Y-14937793D02*
X10653515Y-14928269D01*
X10748753Y-14880650D02*
X10748753Y-15080650D01*
X10748753Y-14890174D02*
X10767801Y-14880650D01*
X10767801Y-14880650D02*
X10805896Y-14880650D01*
X10805896Y-14880650D02*
X10824944Y-14890174D01*
X10824944Y-14890174D02*
X10834467Y-14899698D01*
X10834467Y-14899698D02*
X10843991Y-14918746D01*
X10843991Y-14918746D02*
X10843991Y-14975888D01*
X10843991Y-14975888D02*
X10834467Y-14994936D01*
X10834467Y-14994936D02*
X10824944Y-15004460D01*
X10824944Y-15004460D02*
X10805896Y-15013984D01*
X10805896Y-15013984D02*
X10767801Y-15013984D01*
X10767801Y-15013984D02*
X10748753Y-15004460D01*
X10929705Y-14994936D02*
X10939229Y-15004460D01*
X10939229Y-15004460D02*
X10929705Y-15013984D01*
X10929705Y-15013984D02*
X10920182Y-15004460D01*
X10920182Y-15004460D02*
X10929705Y-14994936D01*
X10929705Y-14994936D02*
X10929705Y-15013984D01*
X10929705Y-14890174D02*
X10939229Y-14899698D01*
X10939229Y-14899698D02*
X10929705Y-14909222D01*
X10929705Y-14909222D02*
X10920182Y-14899698D01*
X10920182Y-14899698D02*
X10929705Y-14890174D01*
X10929705Y-14890174D02*
X10929705Y-14909222D01*
D12*
X9267500Y-15327500D02*
X9297500Y-15357500D01*
X9297500Y-15327500D02*
X9267500Y-15357500D01*
D11*
X9596372Y-15233984D02*
X9615420Y-15233984D01*
X9615420Y-15233984D02*
X9634467Y-15243508D01*
X9634467Y-15243508D02*
X9643991Y-15253031D01*
X9643991Y-15253031D02*
X9653515Y-15272079D01*
X9653515Y-15272079D02*
X9663039Y-15310174D01*
X9663039Y-15310174D02*
X9663039Y-15357793D01*
X9663039Y-15357793D02*
X9653515Y-15395888D01*
X9653515Y-15395888D02*
X9643991Y-15414936D01*
X9643991Y-15414936D02*
X9634467Y-15424460D01*
X9634467Y-15424460D02*
X9615420Y-15433984D01*
X9615420Y-15433984D02*
X9596372Y-15433984D01*
X9596372Y-15433984D02*
X9577324Y-15424460D01*
X9577324Y-15424460D02*
X9567801Y-15414936D01*
X9567801Y-15414936D02*
X9558277Y-15395888D01*
X9558277Y-15395888D02*
X9548753Y-15357793D01*
X9548753Y-15357793D02*
X9548753Y-15310174D01*
X9548753Y-15310174D02*
X9558277Y-15272079D01*
X9558277Y-15272079D02*
X9567801Y-15253031D01*
X9567801Y-15253031D02*
X9577324Y-15243508D01*
X9577324Y-15243508D02*
X9596372Y-15233984D01*
X9748753Y-15414936D02*
X9758277Y-15424460D01*
X9758277Y-15424460D02*
X9748753Y-15433984D01*
X9748753Y-15433984D02*
X9739229Y-15424460D01*
X9739229Y-15424460D02*
X9748753Y-15414936D01*
X9748753Y-15414936D02*
X9748753Y-15433984D01*
X9824944Y-15233984D02*
X9948753Y-15233984D01*
X9948753Y-15233984D02*
X9882086Y-15310174D01*
X9882086Y-15310174D02*
X9910658Y-15310174D01*
X9910658Y-15310174D02*
X9929705Y-15319698D01*
X9929705Y-15319698D02*
X9939229Y-15329222D01*
X9939229Y-15329222D02*
X9948753Y-15348269D01*
X9948753Y-15348269D02*
X9948753Y-15395888D01*
X9948753Y-15395888D02*
X9939229Y-15414936D01*
X9939229Y-15414936D02*
X9929705Y-15424460D01*
X9929705Y-15424460D02*
X9910658Y-15433984D01*
X9910658Y-15433984D02*
X9853515Y-15433984D01*
X9853515Y-15433984D02*
X9834467Y-15424460D01*
X9834467Y-15424460D02*
X9824944Y-15414936D01*
X10072563Y-15233984D02*
X10091610Y-15233984D01*
X10091610Y-15233984D02*
X10110658Y-15243508D01*
X10110658Y-15243508D02*
X10120182Y-15253031D01*
X10120182Y-15253031D02*
X10129705Y-15272079D01*
X10129705Y-15272079D02*
X10139229Y-15310174D01*
X10139229Y-15310174D02*
X10139229Y-15357793D01*
X10139229Y-15357793D02*
X10129705Y-15395888D01*
X10129705Y-15395888D02*
X10120182Y-15414936D01*
X10120182Y-15414936D02*
X10110658Y-15424460D01*
X10110658Y-15424460D02*
X10091610Y-15433984D01*
X10091610Y-15433984D02*
X10072563Y-15433984D01*
X10072563Y-15433984D02*
X10053515Y-15424460D01*
X10053515Y-15424460D02*
X10043991Y-15414936D01*
X10043991Y-15414936D02*
X10034467Y-15395888D01*
X10034467Y-15395888D02*
X10024944Y-15357793D01*
X10024944Y-15357793D02*
X10024944Y-15310174D01*
X10024944Y-15310174D02*
X10034467Y-15272079D01*
X10034467Y-15272079D02*
X10043991Y-15253031D01*
X10043991Y-15253031D02*
X10053515Y-15243508D01*
X10053515Y-15243508D02*
X10072563Y-15233984D01*
X10263039Y-15233984D02*
X10282086Y-15233984D01*
X10282086Y-15233984D02*
X10301134Y-15243508D01*
X10301134Y-15243508D02*
X10310658Y-15253031D01*
X10310658Y-15253031D02*
X10320182Y-15272079D01*
X10320182Y-15272079D02*
X10329705Y-15310174D01*
X10329705Y-15310174D02*
X10329705Y-15357793D01*
X10329705Y-15357793D02*
X10320182Y-15395888D01*
X10320182Y-15395888D02*
X10310658Y-15414936D01*
X10310658Y-15414936D02*
X10301134Y-15424460D01*
X10301134Y-15424460D02*
X10282086Y-15433984D01*
X10282086Y-15433984D02*
X10263039Y-15433984D01*
X10263039Y-15433984D02*
X10243991Y-15424460D01*
X10243991Y-15424460D02*
X10234467Y-15414936D01*
X10234467Y-15414936D02*
X10224944Y-15395888D01*
X10224944Y-15395888D02*
X10215420Y-15357793D01*
X10215420Y-15357793D02*
X10215420Y-15310174D01*
X10215420Y-15310174D02*
X10224944Y-15272079D01*
X10224944Y-15272079D02*
X10234467Y-15253031D01*
X10234467Y-15253031D02*
X10243991Y-15243508D01*
X10243991Y-15243508D02*
X10263039Y-15233984D01*
X10415420Y-15433984D02*
X10415420Y-15300650D01*
X10415420Y-15319698D02*
X10424944Y-15310174D01*
X10424944Y-15310174D02*
X10443991Y-15300650D01*
X10443991Y-15300650D02*
X10472563Y-15300650D01*
X10472563Y-15300650D02*
X10491610Y-15310174D01*
X10491610Y-15310174D02*
X10501134Y-15329222D01*
X10501134Y-15329222D02*
X10501134Y-15433984D01*
X10501134Y-15329222D02*
X10510658Y-15310174D01*
X10510658Y-15310174D02*
X10529705Y-15300650D01*
X10529705Y-15300650D02*
X10558277Y-15300650D01*
X10558277Y-15300650D02*
X10577325Y-15310174D01*
X10577325Y-15310174D02*
X10586848Y-15329222D01*
X10586848Y-15329222D02*
X10586848Y-15433984D01*
X10682086Y-15433984D02*
X10682086Y-15300650D01*
X10682086Y-15319698D02*
X10691610Y-15310174D01*
X10691610Y-15310174D02*
X10710658Y-15300650D01*
X10710658Y-15300650D02*
X10739229Y-15300650D01*
X10739229Y-15300650D02*
X10758277Y-15310174D01*
X10758277Y-15310174D02*
X10767801Y-15329222D01*
X10767801Y-15329222D02*
X10767801Y-15433984D01*
X10767801Y-15329222D02*
X10777325Y-15310174D01*
X10777325Y-15310174D02*
X10796372Y-15300650D01*
X10796372Y-15300650D02*
X10824944Y-15300650D01*
X10824944Y-15300650D02*
X10843991Y-15310174D01*
X10843991Y-15310174D02*
X10853515Y-15329222D01*
X10853515Y-15329222D02*
X10853515Y-15433984D01*
X11243991Y-15224460D02*
X11072563Y-15481603D01*
X11501134Y-15233984D02*
X11520182Y-15233984D01*
X11520182Y-15233984D02*
X11539229Y-15243508D01*
X11539229Y-15243508D02*
X11548753Y-15253031D01*
X11548753Y-15253031D02*
X11558277Y-15272079D01*
X11558277Y-15272079D02*
X11567801Y-15310174D01*
X11567801Y-15310174D02*
X11567801Y-15357793D01*
X11567801Y-15357793D02*
X11558277Y-15395888D01*
X11558277Y-15395888D02*
X11548753Y-15414936D01*
X11548753Y-15414936D02*
X11539229Y-15424460D01*
X11539229Y-15424460D02*
X11520182Y-15433984D01*
X11520182Y-15433984D02*
X11501134Y-15433984D01*
X11501134Y-15433984D02*
X11482086Y-15424460D01*
X11482086Y-15424460D02*
X11472563Y-15414936D01*
X11472563Y-15414936D02*
X11463039Y-15395888D01*
X11463039Y-15395888D02*
X11453515Y-15357793D01*
X11453515Y-15357793D02*
X11453515Y-15310174D01*
X11453515Y-15310174D02*
X11463039Y-15272079D01*
X11463039Y-15272079D02*
X11472563Y-15253031D01*
X11472563Y-15253031D02*
X11482086Y-15243508D01*
X11482086Y-15243508D02*
X11501134Y-15233984D01*
X11653515Y-15414936D02*
X11663039Y-15424460D01*
X11663039Y-15424460D02*
X11653515Y-15433984D01*
X11653515Y-15433984D02*
X11643991Y-15424460D01*
X11643991Y-15424460D02*
X11653515Y-15414936D01*
X11653515Y-15414936D02*
X11653515Y-15433984D01*
X11786848Y-15233984D02*
X11805896Y-15233984D01*
X11805896Y-15233984D02*
X11824944Y-15243508D01*
X11824944Y-15243508D02*
X11834467Y-15253031D01*
X11834467Y-15253031D02*
X11843991Y-15272079D01*
X11843991Y-15272079D02*
X11853515Y-15310174D01*
X11853515Y-15310174D02*
X11853515Y-15357793D01*
X11853515Y-15357793D02*
X11843991Y-15395888D01*
X11843991Y-15395888D02*
X11834467Y-15414936D01*
X11834467Y-15414936D02*
X11824944Y-15424460D01*
X11824944Y-15424460D02*
X11805896Y-15433984D01*
X11805896Y-15433984D02*
X11786848Y-15433984D01*
X11786848Y-15433984D02*
X11767801Y-15424460D01*
X11767801Y-15424460D02*
X11758277Y-15414936D01*
X11758277Y-15414936D02*
X11748753Y-15395888D01*
X11748753Y-15395888D02*
X11739229Y-15357793D01*
X11739229Y-15357793D02*
X11739229Y-15310174D01*
X11739229Y-15310174D02*
X11748753Y-15272079D01*
X11748753Y-15272079D02*
X11758277Y-15253031D01*
X11758277Y-15253031D02*
X11767801Y-15243508D01*
X11767801Y-15243508D02*
X11786848Y-15233984D01*
X12043991Y-15433984D02*
X11929706Y-15433984D01*
X11986848Y-15433984D02*
X11986848Y-15233984D01*
X11986848Y-15233984D02*
X11967801Y-15262555D01*
X11967801Y-15262555D02*
X11948753Y-15281603D01*
X11948753Y-15281603D02*
X11929706Y-15291127D01*
X12234467Y-15433984D02*
X12120182Y-15433984D01*
X12177325Y-15433984D02*
X12177325Y-15233984D01*
X12177325Y-15233984D02*
X12158277Y-15262555D01*
X12158277Y-15262555D02*
X12139229Y-15281603D01*
X12139229Y-15281603D02*
X12120182Y-15291127D01*
X12348753Y-15319698D02*
X12329706Y-15310174D01*
X12329706Y-15310174D02*
X12320182Y-15300650D01*
X12320182Y-15300650D02*
X12310658Y-15281603D01*
X12310658Y-15281603D02*
X12310658Y-15272079D01*
X12310658Y-15272079D02*
X12320182Y-15253031D01*
X12320182Y-15253031D02*
X12329706Y-15243508D01*
X12329706Y-15243508D02*
X12348753Y-15233984D01*
X12348753Y-15233984D02*
X12386848Y-15233984D01*
X12386848Y-15233984D02*
X12405896Y-15243508D01*
X12405896Y-15243508D02*
X12415420Y-15253031D01*
X12415420Y-15253031D02*
X12424944Y-15272079D01*
X12424944Y-15272079D02*
X12424944Y-15281603D01*
X12424944Y-15281603D02*
X12415420Y-15300650D01*
X12415420Y-15300650D02*
X12405896Y-15310174D01*
X12405896Y-15310174D02*
X12386848Y-15319698D01*
X12386848Y-15319698D02*
X12348753Y-15319698D01*
X12348753Y-15319698D02*
X12329706Y-15329222D01*
X12329706Y-15329222D02*
X12320182Y-15338746D01*
X12320182Y-15338746D02*
X12310658Y-15357793D01*
X12310658Y-15357793D02*
X12310658Y-15395888D01*
X12310658Y-15395888D02*
X12320182Y-15414936D01*
X12320182Y-15414936D02*
X12329706Y-15424460D01*
X12329706Y-15424460D02*
X12348753Y-15433984D01*
X12348753Y-15433984D02*
X12386848Y-15433984D01*
X12386848Y-15433984D02*
X12405896Y-15424460D01*
X12405896Y-15424460D02*
X12415420Y-15414936D01*
X12415420Y-15414936D02*
X12424944Y-15395888D01*
X12424944Y-15395888D02*
X12424944Y-15357793D01*
X12424944Y-15357793D02*
X12415420Y-15338746D01*
X12415420Y-15338746D02*
X12405896Y-15329222D01*
X12405896Y-15329222D02*
X12386848Y-15319698D01*
X12501134Y-15233984D02*
X12501134Y-15272079D01*
X12577325Y-15233984D02*
X12577325Y-15272079D01*
X12872563Y-15510174D02*
X12863039Y-15500650D01*
X12863039Y-15500650D02*
X12843991Y-15472079D01*
X12843991Y-15472079D02*
X12834468Y-15453031D01*
X12834468Y-15453031D02*
X12824944Y-15424460D01*
X12824944Y-15424460D02*
X12815420Y-15376841D01*
X12815420Y-15376841D02*
X12815420Y-15338746D01*
X12815420Y-15338746D02*
X12824944Y-15291127D01*
X12824944Y-15291127D02*
X12834468Y-15262555D01*
X12834468Y-15262555D02*
X12843991Y-15243508D01*
X12843991Y-15243508D02*
X12863039Y-15214936D01*
X12863039Y-15214936D02*
X12872563Y-15205412D01*
X12929706Y-15233984D02*
X13063039Y-15233984D01*
X13063039Y-15233984D02*
X12977325Y-15433984D01*
X13148753Y-15433984D02*
X13186848Y-15433984D01*
X13186848Y-15433984D02*
X13205896Y-15424460D01*
X13205896Y-15424460D02*
X13215420Y-15414936D01*
X13215420Y-15414936D02*
X13234468Y-15386365D01*
X13234468Y-15386365D02*
X13243991Y-15348269D01*
X13243991Y-15348269D02*
X13243991Y-15272079D01*
X13243991Y-15272079D02*
X13234468Y-15253031D01*
X13234468Y-15253031D02*
X13224944Y-15243508D01*
X13224944Y-15243508D02*
X13205896Y-15233984D01*
X13205896Y-15233984D02*
X13167801Y-15233984D01*
X13167801Y-15233984D02*
X13148753Y-15243508D01*
X13148753Y-15243508D02*
X13139229Y-15253031D01*
X13139229Y-15253031D02*
X13129706Y-15272079D01*
X13129706Y-15272079D02*
X13129706Y-15319698D01*
X13129706Y-15319698D02*
X13139229Y-15338746D01*
X13139229Y-15338746D02*
X13148753Y-15348269D01*
X13148753Y-15348269D02*
X13167801Y-15357793D01*
X13167801Y-15357793D02*
X13205896Y-15357793D01*
X13205896Y-15357793D02*
X13224944Y-15348269D01*
X13224944Y-15348269D02*
X13234468Y-15338746D01*
X13234468Y-15338746D02*
X13243991Y-15319698D01*
X13482087Y-15433984D02*
X13482087Y-15233984D01*
X13567801Y-15433984D02*
X13567801Y-15329222D01*
X13567801Y-15329222D02*
X13558277Y-15310174D01*
X13558277Y-15310174D02*
X13539230Y-15300650D01*
X13539230Y-15300650D02*
X13510658Y-15300650D01*
X13510658Y-15300650D02*
X13491610Y-15310174D01*
X13491610Y-15310174D02*
X13482087Y-15319698D01*
X13691610Y-15433984D02*
X13672563Y-15424460D01*
X13672563Y-15424460D02*
X13663039Y-15414936D01*
X13663039Y-15414936D02*
X13653515Y-15395888D01*
X13653515Y-15395888D02*
X13653515Y-15338746D01*
X13653515Y-15338746D02*
X13663039Y-15319698D01*
X13663039Y-15319698D02*
X13672563Y-15310174D01*
X13672563Y-15310174D02*
X13691610Y-15300650D01*
X13691610Y-15300650D02*
X13720182Y-15300650D01*
X13720182Y-15300650D02*
X13739230Y-15310174D01*
X13739230Y-15310174D02*
X13748753Y-15319698D01*
X13748753Y-15319698D02*
X13758277Y-15338746D01*
X13758277Y-15338746D02*
X13758277Y-15395888D01*
X13758277Y-15395888D02*
X13748753Y-15414936D01*
X13748753Y-15414936D02*
X13739230Y-15424460D01*
X13739230Y-15424460D02*
X13720182Y-15433984D01*
X13720182Y-15433984D02*
X13691610Y-15433984D01*
X13872563Y-15433984D02*
X13853515Y-15424460D01*
X13853515Y-15424460D02*
X13843991Y-15405412D01*
X13843991Y-15405412D02*
X13843991Y-15233984D01*
X14024944Y-15424460D02*
X14005896Y-15433984D01*
X14005896Y-15433984D02*
X13967801Y-15433984D01*
X13967801Y-15433984D02*
X13948753Y-15424460D01*
X13948753Y-15424460D02*
X13939230Y-15405412D01*
X13939230Y-15405412D02*
X13939230Y-15329222D01*
X13939230Y-15329222D02*
X13948753Y-15310174D01*
X13948753Y-15310174D02*
X13967801Y-15300650D01*
X13967801Y-15300650D02*
X14005896Y-15300650D01*
X14005896Y-15300650D02*
X14024944Y-15310174D01*
X14024944Y-15310174D02*
X14034468Y-15329222D01*
X14034468Y-15329222D02*
X14034468Y-15348269D01*
X14034468Y-15348269D02*
X13939230Y-15367317D01*
X14110658Y-15424460D02*
X14129706Y-15433984D01*
X14129706Y-15433984D02*
X14167801Y-15433984D01*
X14167801Y-15433984D02*
X14186849Y-15424460D01*
X14186849Y-15424460D02*
X14196372Y-15405412D01*
X14196372Y-15405412D02*
X14196372Y-15395888D01*
X14196372Y-15395888D02*
X14186849Y-15376841D01*
X14186849Y-15376841D02*
X14167801Y-15367317D01*
X14167801Y-15367317D02*
X14139230Y-15367317D01*
X14139230Y-15367317D02*
X14120182Y-15357793D01*
X14120182Y-15357793D02*
X14110658Y-15338746D01*
X14110658Y-15338746D02*
X14110658Y-15329222D01*
X14110658Y-15329222D02*
X14120182Y-15310174D01*
X14120182Y-15310174D02*
X14139230Y-15300650D01*
X14139230Y-15300650D02*
X14167801Y-15300650D01*
X14167801Y-15300650D02*
X14186849Y-15310174D01*
X14263039Y-15510174D02*
X14272563Y-15500650D01*
X14272563Y-15500650D02*
X14291611Y-15472079D01*
X14291611Y-15472079D02*
X14301134Y-15453031D01*
X14301134Y-15453031D02*
X14310658Y-15424460D01*
X14310658Y-15424460D02*
X14320182Y-15376841D01*
X14320182Y-15376841D02*
X14320182Y-15338746D01*
X14320182Y-15338746D02*
X14310658Y-15291127D01*
X14310658Y-15291127D02*
X14301134Y-15262555D01*
X14301134Y-15262555D02*
X14291611Y-15243508D01*
X14291611Y-15243508D02*
X14272563Y-15214936D01*
X14272563Y-15214936D02*
X14263039Y-15205412D01*
D12*
X9297500Y-15606500D02*
G75*
G02*
X9237500Y-15606500I-30000J0D01*
G01*
X9237500Y-15606500D02*
G75*
G02*
X9297500Y-15606500I30000J0D01*
G01*
D11*
X9596372Y-15497984D02*
X9615420Y-15497984D01*
X9615420Y-15497984D02*
X9634467Y-15507508D01*
X9634467Y-15507508D02*
X9643991Y-15517031D01*
X9643991Y-15517031D02*
X9653515Y-15536079D01*
X9653515Y-15536079D02*
X9663039Y-15574174D01*
X9663039Y-15574174D02*
X9663039Y-15621793D01*
X9663039Y-15621793D02*
X9653515Y-15659888D01*
X9653515Y-15659888D02*
X9643991Y-15678936D01*
X9643991Y-15678936D02*
X9634467Y-15688460D01*
X9634467Y-15688460D02*
X9615420Y-15697984D01*
X9615420Y-15697984D02*
X9596372Y-15697984D01*
X9596372Y-15697984D02*
X9577324Y-15688460D01*
X9577324Y-15688460D02*
X9567801Y-15678936D01*
X9567801Y-15678936D02*
X9558277Y-15659888D01*
X9558277Y-15659888D02*
X9548753Y-15621793D01*
X9548753Y-15621793D02*
X9548753Y-15574174D01*
X9548753Y-15574174D02*
X9558277Y-15536079D01*
X9558277Y-15536079D02*
X9567801Y-15517031D01*
X9567801Y-15517031D02*
X9577324Y-15507508D01*
X9577324Y-15507508D02*
X9596372Y-15497984D01*
X9748753Y-15678936D02*
X9758277Y-15688460D01*
X9758277Y-15688460D02*
X9748753Y-15697984D01*
X9748753Y-15697984D02*
X9739229Y-15688460D01*
X9739229Y-15688460D02*
X9748753Y-15678936D01*
X9748753Y-15678936D02*
X9748753Y-15697984D01*
X9929705Y-15497984D02*
X9891610Y-15497984D01*
X9891610Y-15497984D02*
X9872563Y-15507508D01*
X9872563Y-15507508D02*
X9863039Y-15517031D01*
X9863039Y-15517031D02*
X9843991Y-15545603D01*
X9843991Y-15545603D02*
X9834467Y-15583698D01*
X9834467Y-15583698D02*
X9834467Y-15659888D01*
X9834467Y-15659888D02*
X9843991Y-15678936D01*
X9843991Y-15678936D02*
X9853515Y-15688460D01*
X9853515Y-15688460D02*
X9872563Y-15697984D01*
X9872563Y-15697984D02*
X9910658Y-15697984D01*
X9910658Y-15697984D02*
X9929705Y-15688460D01*
X9929705Y-15688460D02*
X9939229Y-15678936D01*
X9939229Y-15678936D02*
X9948753Y-15659888D01*
X9948753Y-15659888D02*
X9948753Y-15612269D01*
X9948753Y-15612269D02*
X9939229Y-15593222D01*
X9939229Y-15593222D02*
X9929705Y-15583698D01*
X9929705Y-15583698D02*
X9910658Y-15574174D01*
X9910658Y-15574174D02*
X9872563Y-15574174D01*
X9872563Y-15574174D02*
X9853515Y-15583698D01*
X9853515Y-15583698D02*
X9843991Y-15593222D01*
X9843991Y-15593222D02*
X9834467Y-15612269D01*
X10072563Y-15497984D02*
X10091610Y-15497984D01*
X10091610Y-15497984D02*
X10110658Y-15507508D01*
X10110658Y-15507508D02*
X10120182Y-15517031D01*
X10120182Y-15517031D02*
X10129705Y-15536079D01*
X10129705Y-15536079D02*
X10139229Y-15574174D01*
X10139229Y-15574174D02*
X10139229Y-15621793D01*
X10139229Y-15621793D02*
X10129705Y-15659888D01*
X10129705Y-15659888D02*
X10120182Y-15678936D01*
X10120182Y-15678936D02*
X10110658Y-15688460D01*
X10110658Y-15688460D02*
X10091610Y-15697984D01*
X10091610Y-15697984D02*
X10072563Y-15697984D01*
X10072563Y-15697984D02*
X10053515Y-15688460D01*
X10053515Y-15688460D02*
X10043991Y-15678936D01*
X10043991Y-15678936D02*
X10034467Y-15659888D01*
X10034467Y-15659888D02*
X10024944Y-15621793D01*
X10024944Y-15621793D02*
X10024944Y-15574174D01*
X10024944Y-15574174D02*
X10034467Y-15536079D01*
X10034467Y-15536079D02*
X10043991Y-15517031D01*
X10043991Y-15517031D02*
X10053515Y-15507508D01*
X10053515Y-15507508D02*
X10072563Y-15497984D01*
X10263039Y-15497984D02*
X10282086Y-15497984D01*
X10282086Y-15497984D02*
X10301134Y-15507508D01*
X10301134Y-15507508D02*
X10310658Y-15517031D01*
X10310658Y-15517031D02*
X10320182Y-15536079D01*
X10320182Y-15536079D02*
X10329705Y-15574174D01*
X10329705Y-15574174D02*
X10329705Y-15621793D01*
X10329705Y-15621793D02*
X10320182Y-15659888D01*
X10320182Y-15659888D02*
X10310658Y-15678936D01*
X10310658Y-15678936D02*
X10301134Y-15688460D01*
X10301134Y-15688460D02*
X10282086Y-15697984D01*
X10282086Y-15697984D02*
X10263039Y-15697984D01*
X10263039Y-15697984D02*
X10243991Y-15688460D01*
X10243991Y-15688460D02*
X10234467Y-15678936D01*
X10234467Y-15678936D02*
X10224944Y-15659888D01*
X10224944Y-15659888D02*
X10215420Y-15621793D01*
X10215420Y-15621793D02*
X10215420Y-15574174D01*
X10215420Y-15574174D02*
X10224944Y-15536079D01*
X10224944Y-15536079D02*
X10234467Y-15517031D01*
X10234467Y-15517031D02*
X10243991Y-15507508D01*
X10243991Y-15507508D02*
X10263039Y-15497984D01*
X10415420Y-15697984D02*
X10415420Y-15564650D01*
X10415420Y-15583698D02*
X10424944Y-15574174D01*
X10424944Y-15574174D02*
X10443991Y-15564650D01*
X10443991Y-15564650D02*
X10472563Y-15564650D01*
X10472563Y-15564650D02*
X10491610Y-15574174D01*
X10491610Y-15574174D02*
X10501134Y-15593222D01*
X10501134Y-15593222D02*
X10501134Y-15697984D01*
X10501134Y-15593222D02*
X10510658Y-15574174D01*
X10510658Y-15574174D02*
X10529705Y-15564650D01*
X10529705Y-15564650D02*
X10558277Y-15564650D01*
X10558277Y-15564650D02*
X10577325Y-15574174D01*
X10577325Y-15574174D02*
X10586848Y-15593222D01*
X10586848Y-15593222D02*
X10586848Y-15697984D01*
X10682086Y-15697984D02*
X10682086Y-15564650D01*
X10682086Y-15583698D02*
X10691610Y-15574174D01*
X10691610Y-15574174D02*
X10710658Y-15564650D01*
X10710658Y-15564650D02*
X10739229Y-15564650D01*
X10739229Y-15564650D02*
X10758277Y-15574174D01*
X10758277Y-15574174D02*
X10767801Y-15593222D01*
X10767801Y-15593222D02*
X10767801Y-15697984D01*
X10767801Y-15593222D02*
X10777325Y-15574174D01*
X10777325Y-15574174D02*
X10796372Y-15564650D01*
X10796372Y-15564650D02*
X10824944Y-15564650D01*
X10824944Y-15564650D02*
X10843991Y-15574174D01*
X10843991Y-15574174D02*
X10853515Y-15593222D01*
X10853515Y-15593222D02*
X10853515Y-15697984D01*
X11243991Y-15488460D02*
X11072563Y-15745603D01*
X11501134Y-15497984D02*
X11520182Y-15497984D01*
X11520182Y-15497984D02*
X11539229Y-15507508D01*
X11539229Y-15507508D02*
X11548753Y-15517031D01*
X11548753Y-15517031D02*
X11558277Y-15536079D01*
X11558277Y-15536079D02*
X11567801Y-15574174D01*
X11567801Y-15574174D02*
X11567801Y-15621793D01*
X11567801Y-15621793D02*
X11558277Y-15659888D01*
X11558277Y-15659888D02*
X11548753Y-15678936D01*
X11548753Y-15678936D02*
X11539229Y-15688460D01*
X11539229Y-15688460D02*
X11520182Y-15697984D01*
X11520182Y-15697984D02*
X11501134Y-15697984D01*
X11501134Y-15697984D02*
X11482086Y-15688460D01*
X11482086Y-15688460D02*
X11472563Y-15678936D01*
X11472563Y-15678936D02*
X11463039Y-15659888D01*
X11463039Y-15659888D02*
X11453515Y-15621793D01*
X11453515Y-15621793D02*
X11453515Y-15574174D01*
X11453515Y-15574174D02*
X11463039Y-15536079D01*
X11463039Y-15536079D02*
X11472563Y-15517031D01*
X11472563Y-15517031D02*
X11482086Y-15507508D01*
X11482086Y-15507508D02*
X11501134Y-15497984D01*
X11653515Y-15678936D02*
X11663039Y-15688460D01*
X11663039Y-15688460D02*
X11653515Y-15697984D01*
X11653515Y-15697984D02*
X11643991Y-15688460D01*
X11643991Y-15688460D02*
X11653515Y-15678936D01*
X11653515Y-15678936D02*
X11653515Y-15697984D01*
X11786848Y-15497984D02*
X11805896Y-15497984D01*
X11805896Y-15497984D02*
X11824944Y-15507508D01*
X11824944Y-15507508D02*
X11834467Y-15517031D01*
X11834467Y-15517031D02*
X11843991Y-15536079D01*
X11843991Y-15536079D02*
X11853515Y-15574174D01*
X11853515Y-15574174D02*
X11853515Y-15621793D01*
X11853515Y-15621793D02*
X11843991Y-15659888D01*
X11843991Y-15659888D02*
X11834467Y-15678936D01*
X11834467Y-15678936D02*
X11824944Y-15688460D01*
X11824944Y-15688460D02*
X11805896Y-15697984D01*
X11805896Y-15697984D02*
X11786848Y-15697984D01*
X11786848Y-15697984D02*
X11767801Y-15688460D01*
X11767801Y-15688460D02*
X11758277Y-15678936D01*
X11758277Y-15678936D02*
X11748753Y-15659888D01*
X11748753Y-15659888D02*
X11739229Y-15621793D01*
X11739229Y-15621793D02*
X11739229Y-15574174D01*
X11739229Y-15574174D02*
X11748753Y-15536079D01*
X11748753Y-15536079D02*
X11758277Y-15517031D01*
X11758277Y-15517031D02*
X11767801Y-15507508D01*
X11767801Y-15507508D02*
X11786848Y-15497984D01*
X11929706Y-15517031D02*
X11939229Y-15507508D01*
X11939229Y-15507508D02*
X11958277Y-15497984D01*
X11958277Y-15497984D02*
X12005896Y-15497984D01*
X12005896Y-15497984D02*
X12024944Y-15507508D01*
X12024944Y-15507508D02*
X12034467Y-15517031D01*
X12034467Y-15517031D02*
X12043991Y-15536079D01*
X12043991Y-15536079D02*
X12043991Y-15555127D01*
X12043991Y-15555127D02*
X12034467Y-15583698D01*
X12034467Y-15583698D02*
X11920182Y-15697984D01*
X11920182Y-15697984D02*
X12043991Y-15697984D01*
X12110658Y-15497984D02*
X12234467Y-15497984D01*
X12234467Y-15497984D02*
X12167801Y-15574174D01*
X12167801Y-15574174D02*
X12196372Y-15574174D01*
X12196372Y-15574174D02*
X12215420Y-15583698D01*
X12215420Y-15583698D02*
X12224944Y-15593222D01*
X12224944Y-15593222D02*
X12234467Y-15612269D01*
X12234467Y-15612269D02*
X12234467Y-15659888D01*
X12234467Y-15659888D02*
X12224944Y-15678936D01*
X12224944Y-15678936D02*
X12215420Y-15688460D01*
X12215420Y-15688460D02*
X12196372Y-15697984D01*
X12196372Y-15697984D02*
X12139229Y-15697984D01*
X12139229Y-15697984D02*
X12120182Y-15688460D01*
X12120182Y-15688460D02*
X12110658Y-15678936D01*
X12405896Y-15497984D02*
X12367801Y-15497984D01*
X12367801Y-15497984D02*
X12348753Y-15507508D01*
X12348753Y-15507508D02*
X12339229Y-15517031D01*
X12339229Y-15517031D02*
X12320182Y-15545603D01*
X12320182Y-15545603D02*
X12310658Y-15583698D01*
X12310658Y-15583698D02*
X12310658Y-15659888D01*
X12310658Y-15659888D02*
X12320182Y-15678936D01*
X12320182Y-15678936D02*
X12329706Y-15688460D01*
X12329706Y-15688460D02*
X12348753Y-15697984D01*
X12348753Y-15697984D02*
X12386848Y-15697984D01*
X12386848Y-15697984D02*
X12405896Y-15688460D01*
X12405896Y-15688460D02*
X12415420Y-15678936D01*
X12415420Y-15678936D02*
X12424944Y-15659888D01*
X12424944Y-15659888D02*
X12424944Y-15612269D01*
X12424944Y-15612269D02*
X12415420Y-15593222D01*
X12415420Y-15593222D02*
X12405896Y-15583698D01*
X12405896Y-15583698D02*
X12386848Y-15574174D01*
X12386848Y-15574174D02*
X12348753Y-15574174D01*
X12348753Y-15574174D02*
X12329706Y-15583698D01*
X12329706Y-15583698D02*
X12320182Y-15593222D01*
X12320182Y-15593222D02*
X12310658Y-15612269D01*
X12501134Y-15497984D02*
X12501134Y-15536079D01*
X12577325Y-15497984D02*
X12577325Y-15536079D01*
X12872563Y-15774174D02*
X12863039Y-15764650D01*
X12863039Y-15764650D02*
X12843991Y-15736079D01*
X12843991Y-15736079D02*
X12834468Y-15717031D01*
X12834468Y-15717031D02*
X12824944Y-15688460D01*
X12824944Y-15688460D02*
X12815420Y-15640841D01*
X12815420Y-15640841D02*
X12815420Y-15602746D01*
X12815420Y-15602746D02*
X12824944Y-15555127D01*
X12824944Y-15555127D02*
X12834468Y-15526555D01*
X12834468Y-15526555D02*
X12843991Y-15507508D01*
X12843991Y-15507508D02*
X12863039Y-15478936D01*
X12863039Y-15478936D02*
X12872563Y-15469412D01*
X12986848Y-15497984D02*
X13005896Y-15497984D01*
X13005896Y-15497984D02*
X13024944Y-15507508D01*
X13024944Y-15507508D02*
X13034468Y-15517031D01*
X13034468Y-15517031D02*
X13043991Y-15536079D01*
X13043991Y-15536079D02*
X13053515Y-15574174D01*
X13053515Y-15574174D02*
X13053515Y-15621793D01*
X13053515Y-15621793D02*
X13043991Y-15659888D01*
X13043991Y-15659888D02*
X13034468Y-15678936D01*
X13034468Y-15678936D02*
X13024944Y-15688460D01*
X13024944Y-15688460D02*
X13005896Y-15697984D01*
X13005896Y-15697984D02*
X12986848Y-15697984D01*
X12986848Y-15697984D02*
X12967801Y-15688460D01*
X12967801Y-15688460D02*
X12958277Y-15678936D01*
X12958277Y-15678936D02*
X12948753Y-15659888D01*
X12948753Y-15659888D02*
X12939229Y-15621793D01*
X12939229Y-15621793D02*
X12939229Y-15574174D01*
X12939229Y-15574174D02*
X12948753Y-15536079D01*
X12948753Y-15536079D02*
X12958277Y-15517031D01*
X12958277Y-15517031D02*
X12967801Y-15507508D01*
X12967801Y-15507508D02*
X12986848Y-15497984D01*
X13291610Y-15697984D02*
X13291610Y-15497984D01*
X13377325Y-15697984D02*
X13377325Y-15593222D01*
X13377325Y-15593222D02*
X13367801Y-15574174D01*
X13367801Y-15574174D02*
X13348753Y-15564650D01*
X13348753Y-15564650D02*
X13320182Y-15564650D01*
X13320182Y-15564650D02*
X13301134Y-15574174D01*
X13301134Y-15574174D02*
X13291610Y-15583698D01*
X13501134Y-15697984D02*
X13482087Y-15688460D01*
X13482087Y-15688460D02*
X13472563Y-15678936D01*
X13472563Y-15678936D02*
X13463039Y-15659888D01*
X13463039Y-15659888D02*
X13463039Y-15602746D01*
X13463039Y-15602746D02*
X13472563Y-15583698D01*
X13472563Y-15583698D02*
X13482087Y-15574174D01*
X13482087Y-15574174D02*
X13501134Y-15564650D01*
X13501134Y-15564650D02*
X13529706Y-15564650D01*
X13529706Y-15564650D02*
X13548753Y-15574174D01*
X13548753Y-15574174D02*
X13558277Y-15583698D01*
X13558277Y-15583698D02*
X13567801Y-15602746D01*
X13567801Y-15602746D02*
X13567801Y-15659888D01*
X13567801Y-15659888D02*
X13558277Y-15678936D01*
X13558277Y-15678936D02*
X13548753Y-15688460D01*
X13548753Y-15688460D02*
X13529706Y-15697984D01*
X13529706Y-15697984D02*
X13501134Y-15697984D01*
X13682087Y-15697984D02*
X13663039Y-15688460D01*
X13663039Y-15688460D02*
X13653515Y-15669412D01*
X13653515Y-15669412D02*
X13653515Y-15497984D01*
X13834468Y-15688460D02*
X13815420Y-15697984D01*
X13815420Y-15697984D02*
X13777325Y-15697984D01*
X13777325Y-15697984D02*
X13758277Y-15688460D01*
X13758277Y-15688460D02*
X13748753Y-15669412D01*
X13748753Y-15669412D02*
X13748753Y-15593222D01*
X13748753Y-15593222D02*
X13758277Y-15574174D01*
X13758277Y-15574174D02*
X13777325Y-15564650D01*
X13777325Y-15564650D02*
X13815420Y-15564650D01*
X13815420Y-15564650D02*
X13834468Y-15574174D01*
X13834468Y-15574174D02*
X13843991Y-15593222D01*
X13843991Y-15593222D02*
X13843991Y-15612269D01*
X13843991Y-15612269D02*
X13748753Y-15631317D01*
X13920182Y-15688460D02*
X13939230Y-15697984D01*
X13939230Y-15697984D02*
X13977325Y-15697984D01*
X13977325Y-15697984D02*
X13996372Y-15688460D01*
X13996372Y-15688460D02*
X14005896Y-15669412D01*
X14005896Y-15669412D02*
X14005896Y-15659888D01*
X14005896Y-15659888D02*
X13996372Y-15640841D01*
X13996372Y-15640841D02*
X13977325Y-15631317D01*
X13977325Y-15631317D02*
X13948753Y-15631317D01*
X13948753Y-15631317D02*
X13929706Y-15621793D01*
X13929706Y-15621793D02*
X13920182Y-15602746D01*
X13920182Y-15602746D02*
X13920182Y-15593222D01*
X13920182Y-15593222D02*
X13929706Y-15574174D01*
X13929706Y-15574174D02*
X13948753Y-15564650D01*
X13948753Y-15564650D02*
X13977325Y-15564650D01*
X13977325Y-15564650D02*
X13996372Y-15574174D01*
X14243992Y-15621793D02*
X14396373Y-15621793D01*
X14320182Y-15697984D02*
X14320182Y-15545603D01*
X14729706Y-15564650D02*
X14729706Y-15697984D01*
X14682087Y-15488460D02*
X14634468Y-15631317D01*
X14634468Y-15631317D02*
X14758277Y-15631317D01*
X14977325Y-15688460D02*
X14996373Y-15697984D01*
X14996373Y-15697984D02*
X15034468Y-15697984D01*
X15034468Y-15697984D02*
X15053515Y-15688460D01*
X15053515Y-15688460D02*
X15063039Y-15669412D01*
X15063039Y-15669412D02*
X15063039Y-15659888D01*
X15063039Y-15659888D02*
X15053515Y-15640841D01*
X15053515Y-15640841D02*
X15034468Y-15631317D01*
X15034468Y-15631317D02*
X15005896Y-15631317D01*
X15005896Y-15631317D02*
X14986849Y-15621793D01*
X14986849Y-15621793D02*
X14977325Y-15602746D01*
X14977325Y-15602746D02*
X14977325Y-15593222D01*
X14977325Y-15593222D02*
X14986849Y-15574174D01*
X14986849Y-15574174D02*
X15005896Y-15564650D01*
X15005896Y-15564650D02*
X15034468Y-15564650D01*
X15034468Y-15564650D02*
X15053515Y-15574174D01*
X15177325Y-15697984D02*
X15158277Y-15688460D01*
X15158277Y-15688460D02*
X15148754Y-15669412D01*
X15148754Y-15669412D02*
X15148754Y-15497984D01*
X15282087Y-15697984D02*
X15263039Y-15688460D01*
X15263039Y-15688460D02*
X15253515Y-15678936D01*
X15253515Y-15678936D02*
X15243992Y-15659888D01*
X15243992Y-15659888D02*
X15243992Y-15602746D01*
X15243992Y-15602746D02*
X15253515Y-15583698D01*
X15253515Y-15583698D02*
X15263039Y-15574174D01*
X15263039Y-15574174D02*
X15282087Y-15564650D01*
X15282087Y-15564650D02*
X15310658Y-15564650D01*
X15310658Y-15564650D02*
X15329706Y-15574174D01*
X15329706Y-15574174D02*
X15339230Y-15583698D01*
X15339230Y-15583698D02*
X15348754Y-15602746D01*
X15348754Y-15602746D02*
X15348754Y-15659888D01*
X15348754Y-15659888D02*
X15339230Y-15678936D01*
X15339230Y-15678936D02*
X15329706Y-15688460D01*
X15329706Y-15688460D02*
X15310658Y-15697984D01*
X15310658Y-15697984D02*
X15282087Y-15697984D01*
X15405896Y-15564650D02*
X15482087Y-15564650D01*
X15434468Y-15497984D02*
X15434468Y-15669412D01*
X15434468Y-15669412D02*
X15443992Y-15688460D01*
X15443992Y-15688460D02*
X15463039Y-15697984D01*
X15463039Y-15697984D02*
X15482087Y-15697984D01*
X15539230Y-15688460D02*
X15558277Y-15697984D01*
X15558277Y-15697984D02*
X15596373Y-15697984D01*
X15596373Y-15697984D02*
X15615420Y-15688460D01*
X15615420Y-15688460D02*
X15624944Y-15669412D01*
X15624944Y-15669412D02*
X15624944Y-15659888D01*
X15624944Y-15659888D02*
X15615420Y-15640841D01*
X15615420Y-15640841D02*
X15596373Y-15631317D01*
X15596373Y-15631317D02*
X15567801Y-15631317D01*
X15567801Y-15631317D02*
X15548754Y-15621793D01*
X15548754Y-15621793D02*
X15539230Y-15602746D01*
X15539230Y-15602746D02*
X15539230Y-15593222D01*
X15539230Y-15593222D02*
X15548754Y-15574174D01*
X15548754Y-15574174D02*
X15567801Y-15564650D01*
X15567801Y-15564650D02*
X15596373Y-15564650D01*
X15596373Y-15564650D02*
X15615420Y-15574174D01*
X15691611Y-15774174D02*
X15701135Y-15764650D01*
X15701135Y-15764650D02*
X15720182Y-15736079D01*
X15720182Y-15736079D02*
X15729706Y-15717031D01*
X15729706Y-15717031D02*
X15739230Y-15688460D01*
X15739230Y-15688460D02*
X15748754Y-15640841D01*
X15748754Y-15640841D02*
X15748754Y-15602746D01*
X15748754Y-15602746D02*
X15739230Y-15555127D01*
X15739230Y-15555127D02*
X15729706Y-15526555D01*
X15729706Y-15526555D02*
X15720182Y-15507508D01*
X15720182Y-15507508D02*
X15701135Y-15478936D01*
X15701135Y-15478936D02*
X15691611Y-15469412D01*
D12*
X9260000Y-15833000D02*
X9260000Y-15908000D01*
X9222500Y-15870500D02*
X9297500Y-15870500D01*
D11*
X9596372Y-15761984D02*
X9615420Y-15761984D01*
X9615420Y-15761984D02*
X9634467Y-15771508D01*
X9634467Y-15771508D02*
X9643991Y-15781031D01*
X9643991Y-15781031D02*
X9653515Y-15800079D01*
X9653515Y-15800079D02*
X9663039Y-15838174D01*
X9663039Y-15838174D02*
X9663039Y-15885793D01*
X9663039Y-15885793D02*
X9653515Y-15923888D01*
X9653515Y-15923888D02*
X9643991Y-15942936D01*
X9643991Y-15942936D02*
X9634467Y-15952460D01*
X9634467Y-15952460D02*
X9615420Y-15961984D01*
X9615420Y-15961984D02*
X9596372Y-15961984D01*
X9596372Y-15961984D02*
X9577324Y-15952460D01*
X9577324Y-15952460D02*
X9567801Y-15942936D01*
X9567801Y-15942936D02*
X9558277Y-15923888D01*
X9558277Y-15923888D02*
X9548753Y-15885793D01*
X9548753Y-15885793D02*
X9548753Y-15838174D01*
X9548753Y-15838174D02*
X9558277Y-15800079D01*
X9558277Y-15800079D02*
X9567801Y-15781031D01*
X9567801Y-15781031D02*
X9577324Y-15771508D01*
X9577324Y-15771508D02*
X9596372Y-15761984D01*
X9748753Y-15942936D02*
X9758277Y-15952460D01*
X9758277Y-15952460D02*
X9748753Y-15961984D01*
X9748753Y-15961984D02*
X9739229Y-15952460D01*
X9739229Y-15952460D02*
X9748753Y-15942936D01*
X9748753Y-15942936D02*
X9748753Y-15961984D01*
X9824944Y-15761984D02*
X9958277Y-15761984D01*
X9958277Y-15761984D02*
X9872563Y-15961984D01*
X10129705Y-15761984D02*
X10034467Y-15761984D01*
X10034467Y-15761984D02*
X10024944Y-15857222D01*
X10024944Y-15857222D02*
X10034467Y-15847698D01*
X10034467Y-15847698D02*
X10053515Y-15838174D01*
X10053515Y-15838174D02*
X10101134Y-15838174D01*
X10101134Y-15838174D02*
X10120182Y-15847698D01*
X10120182Y-15847698D02*
X10129705Y-15857222D01*
X10129705Y-15857222D02*
X10139229Y-15876269D01*
X10139229Y-15876269D02*
X10139229Y-15923888D01*
X10139229Y-15923888D02*
X10129705Y-15942936D01*
X10129705Y-15942936D02*
X10120182Y-15952460D01*
X10120182Y-15952460D02*
X10101134Y-15961984D01*
X10101134Y-15961984D02*
X10053515Y-15961984D01*
X10053515Y-15961984D02*
X10034467Y-15952460D01*
X10034467Y-15952460D02*
X10024944Y-15942936D01*
X10263039Y-15761984D02*
X10282086Y-15761984D01*
X10282086Y-15761984D02*
X10301134Y-15771508D01*
X10301134Y-15771508D02*
X10310658Y-15781031D01*
X10310658Y-15781031D02*
X10320182Y-15800079D01*
X10320182Y-15800079D02*
X10329705Y-15838174D01*
X10329705Y-15838174D02*
X10329705Y-15885793D01*
X10329705Y-15885793D02*
X10320182Y-15923888D01*
X10320182Y-15923888D02*
X10310658Y-15942936D01*
X10310658Y-15942936D02*
X10301134Y-15952460D01*
X10301134Y-15952460D02*
X10282086Y-15961984D01*
X10282086Y-15961984D02*
X10263039Y-15961984D01*
X10263039Y-15961984D02*
X10243991Y-15952460D01*
X10243991Y-15952460D02*
X10234467Y-15942936D01*
X10234467Y-15942936D02*
X10224944Y-15923888D01*
X10224944Y-15923888D02*
X10215420Y-15885793D01*
X10215420Y-15885793D02*
X10215420Y-15838174D01*
X10215420Y-15838174D02*
X10224944Y-15800079D01*
X10224944Y-15800079D02*
X10234467Y-15781031D01*
X10234467Y-15781031D02*
X10243991Y-15771508D01*
X10243991Y-15771508D02*
X10263039Y-15761984D01*
X10415420Y-15961984D02*
X10415420Y-15828650D01*
X10415420Y-15847698D02*
X10424944Y-15838174D01*
X10424944Y-15838174D02*
X10443991Y-15828650D01*
X10443991Y-15828650D02*
X10472563Y-15828650D01*
X10472563Y-15828650D02*
X10491610Y-15838174D01*
X10491610Y-15838174D02*
X10501134Y-15857222D01*
X10501134Y-15857222D02*
X10501134Y-15961984D01*
X10501134Y-15857222D02*
X10510658Y-15838174D01*
X10510658Y-15838174D02*
X10529705Y-15828650D01*
X10529705Y-15828650D02*
X10558277Y-15828650D01*
X10558277Y-15828650D02*
X10577325Y-15838174D01*
X10577325Y-15838174D02*
X10586848Y-15857222D01*
X10586848Y-15857222D02*
X10586848Y-15961984D01*
X10682086Y-15961984D02*
X10682086Y-15828650D01*
X10682086Y-15847698D02*
X10691610Y-15838174D01*
X10691610Y-15838174D02*
X10710658Y-15828650D01*
X10710658Y-15828650D02*
X10739229Y-15828650D01*
X10739229Y-15828650D02*
X10758277Y-15838174D01*
X10758277Y-15838174D02*
X10767801Y-15857222D01*
X10767801Y-15857222D02*
X10767801Y-15961984D01*
X10767801Y-15857222D02*
X10777325Y-15838174D01*
X10777325Y-15838174D02*
X10796372Y-15828650D01*
X10796372Y-15828650D02*
X10824944Y-15828650D01*
X10824944Y-15828650D02*
X10843991Y-15838174D01*
X10843991Y-15838174D02*
X10853515Y-15857222D01*
X10853515Y-15857222D02*
X10853515Y-15961984D01*
X11243991Y-15752460D02*
X11072563Y-16009603D01*
X11501134Y-15761984D02*
X11520182Y-15761984D01*
X11520182Y-15761984D02*
X11539229Y-15771508D01*
X11539229Y-15771508D02*
X11548753Y-15781031D01*
X11548753Y-15781031D02*
X11558277Y-15800079D01*
X11558277Y-15800079D02*
X11567801Y-15838174D01*
X11567801Y-15838174D02*
X11567801Y-15885793D01*
X11567801Y-15885793D02*
X11558277Y-15923888D01*
X11558277Y-15923888D02*
X11548753Y-15942936D01*
X11548753Y-15942936D02*
X11539229Y-15952460D01*
X11539229Y-15952460D02*
X11520182Y-15961984D01*
X11520182Y-15961984D02*
X11501134Y-15961984D01*
X11501134Y-15961984D02*
X11482086Y-15952460D01*
X11482086Y-15952460D02*
X11472563Y-15942936D01*
X11472563Y-15942936D02*
X11463039Y-15923888D01*
X11463039Y-15923888D02*
X11453515Y-15885793D01*
X11453515Y-15885793D02*
X11453515Y-15838174D01*
X11453515Y-15838174D02*
X11463039Y-15800079D01*
X11463039Y-15800079D02*
X11472563Y-15781031D01*
X11472563Y-15781031D02*
X11482086Y-15771508D01*
X11482086Y-15771508D02*
X11501134Y-15761984D01*
X11653515Y-15942936D02*
X11663039Y-15952460D01*
X11663039Y-15952460D02*
X11653515Y-15961984D01*
X11653515Y-15961984D02*
X11643991Y-15952460D01*
X11643991Y-15952460D02*
X11653515Y-15942936D01*
X11653515Y-15942936D02*
X11653515Y-15961984D01*
X11786848Y-15761984D02*
X11805896Y-15761984D01*
X11805896Y-15761984D02*
X11824944Y-15771508D01*
X11824944Y-15771508D02*
X11834467Y-15781031D01*
X11834467Y-15781031D02*
X11843991Y-15800079D01*
X11843991Y-15800079D02*
X11853515Y-15838174D01*
X11853515Y-15838174D02*
X11853515Y-15885793D01*
X11853515Y-15885793D02*
X11843991Y-15923888D01*
X11843991Y-15923888D02*
X11834467Y-15942936D01*
X11834467Y-15942936D02*
X11824944Y-15952460D01*
X11824944Y-15952460D02*
X11805896Y-15961984D01*
X11805896Y-15961984D02*
X11786848Y-15961984D01*
X11786848Y-15961984D02*
X11767801Y-15952460D01*
X11767801Y-15952460D02*
X11758277Y-15942936D01*
X11758277Y-15942936D02*
X11748753Y-15923888D01*
X11748753Y-15923888D02*
X11739229Y-15885793D01*
X11739229Y-15885793D02*
X11739229Y-15838174D01*
X11739229Y-15838174D02*
X11748753Y-15800079D01*
X11748753Y-15800079D02*
X11758277Y-15781031D01*
X11758277Y-15781031D02*
X11767801Y-15771508D01*
X11767801Y-15771508D02*
X11786848Y-15761984D01*
X11929706Y-15781031D02*
X11939229Y-15771508D01*
X11939229Y-15771508D02*
X11958277Y-15761984D01*
X11958277Y-15761984D02*
X12005896Y-15761984D01*
X12005896Y-15761984D02*
X12024944Y-15771508D01*
X12024944Y-15771508D02*
X12034467Y-15781031D01*
X12034467Y-15781031D02*
X12043991Y-15800079D01*
X12043991Y-15800079D02*
X12043991Y-15819127D01*
X12043991Y-15819127D02*
X12034467Y-15847698D01*
X12034467Y-15847698D02*
X11920182Y-15961984D01*
X11920182Y-15961984D02*
X12043991Y-15961984D01*
X12139229Y-15961984D02*
X12177325Y-15961984D01*
X12177325Y-15961984D02*
X12196372Y-15952460D01*
X12196372Y-15952460D02*
X12205896Y-15942936D01*
X12205896Y-15942936D02*
X12224944Y-15914365D01*
X12224944Y-15914365D02*
X12234467Y-15876269D01*
X12234467Y-15876269D02*
X12234467Y-15800079D01*
X12234467Y-15800079D02*
X12224944Y-15781031D01*
X12224944Y-15781031D02*
X12215420Y-15771508D01*
X12215420Y-15771508D02*
X12196372Y-15761984D01*
X12196372Y-15761984D02*
X12158277Y-15761984D01*
X12158277Y-15761984D02*
X12139229Y-15771508D01*
X12139229Y-15771508D02*
X12129706Y-15781031D01*
X12129706Y-15781031D02*
X12120182Y-15800079D01*
X12120182Y-15800079D02*
X12120182Y-15847698D01*
X12120182Y-15847698D02*
X12129706Y-15866746D01*
X12129706Y-15866746D02*
X12139229Y-15876269D01*
X12139229Y-15876269D02*
X12158277Y-15885793D01*
X12158277Y-15885793D02*
X12196372Y-15885793D01*
X12196372Y-15885793D02*
X12215420Y-15876269D01*
X12215420Y-15876269D02*
X12224944Y-15866746D01*
X12224944Y-15866746D02*
X12234467Y-15847698D01*
X12415420Y-15761984D02*
X12320182Y-15761984D01*
X12320182Y-15761984D02*
X12310658Y-15857222D01*
X12310658Y-15857222D02*
X12320182Y-15847698D01*
X12320182Y-15847698D02*
X12339229Y-15838174D01*
X12339229Y-15838174D02*
X12386848Y-15838174D01*
X12386848Y-15838174D02*
X12405896Y-15847698D01*
X12405896Y-15847698D02*
X12415420Y-15857222D01*
X12415420Y-15857222D02*
X12424944Y-15876269D01*
X12424944Y-15876269D02*
X12424944Y-15923888D01*
X12424944Y-15923888D02*
X12415420Y-15942936D01*
X12415420Y-15942936D02*
X12405896Y-15952460D01*
X12405896Y-15952460D02*
X12386848Y-15961984D01*
X12386848Y-15961984D02*
X12339229Y-15961984D01*
X12339229Y-15961984D02*
X12320182Y-15952460D01*
X12320182Y-15952460D02*
X12310658Y-15942936D01*
X12501134Y-15761984D02*
X12501134Y-15800079D01*
X12577325Y-15761984D02*
X12577325Y-15800079D01*
X12872563Y-16038174D02*
X12863039Y-16028650D01*
X12863039Y-16028650D02*
X12843991Y-16000079D01*
X12843991Y-16000079D02*
X12834468Y-15981031D01*
X12834468Y-15981031D02*
X12824944Y-15952460D01*
X12824944Y-15952460D02*
X12815420Y-15904841D01*
X12815420Y-15904841D02*
X12815420Y-15866746D01*
X12815420Y-15866746D02*
X12824944Y-15819127D01*
X12824944Y-15819127D02*
X12834468Y-15790555D01*
X12834468Y-15790555D02*
X12843991Y-15771508D01*
X12843991Y-15771508D02*
X12863039Y-15742936D01*
X12863039Y-15742936D02*
X12872563Y-15733412D01*
X12939229Y-15781031D02*
X12948753Y-15771508D01*
X12948753Y-15771508D02*
X12967801Y-15761984D01*
X12967801Y-15761984D02*
X13015420Y-15761984D01*
X13015420Y-15761984D02*
X13034468Y-15771508D01*
X13034468Y-15771508D02*
X13043991Y-15781031D01*
X13043991Y-15781031D02*
X13053515Y-15800079D01*
X13053515Y-15800079D02*
X13053515Y-15819127D01*
X13053515Y-15819127D02*
X13043991Y-15847698D01*
X13043991Y-15847698D02*
X12929706Y-15961984D01*
X12929706Y-15961984D02*
X13053515Y-15961984D01*
X13291610Y-15961984D02*
X13291610Y-15761984D01*
X13377325Y-15961984D02*
X13377325Y-15857222D01*
X13377325Y-15857222D02*
X13367801Y-15838174D01*
X13367801Y-15838174D02*
X13348753Y-15828650D01*
X13348753Y-15828650D02*
X13320182Y-15828650D01*
X13320182Y-15828650D02*
X13301134Y-15838174D01*
X13301134Y-15838174D02*
X13291610Y-15847698D01*
X13501134Y-15961984D02*
X13482087Y-15952460D01*
X13482087Y-15952460D02*
X13472563Y-15942936D01*
X13472563Y-15942936D02*
X13463039Y-15923888D01*
X13463039Y-15923888D02*
X13463039Y-15866746D01*
X13463039Y-15866746D02*
X13472563Y-15847698D01*
X13472563Y-15847698D02*
X13482087Y-15838174D01*
X13482087Y-15838174D02*
X13501134Y-15828650D01*
X13501134Y-15828650D02*
X13529706Y-15828650D01*
X13529706Y-15828650D02*
X13548753Y-15838174D01*
X13548753Y-15838174D02*
X13558277Y-15847698D01*
X13558277Y-15847698D02*
X13567801Y-15866746D01*
X13567801Y-15866746D02*
X13567801Y-15923888D01*
X13567801Y-15923888D02*
X13558277Y-15942936D01*
X13558277Y-15942936D02*
X13548753Y-15952460D01*
X13548753Y-15952460D02*
X13529706Y-15961984D01*
X13529706Y-15961984D02*
X13501134Y-15961984D01*
X13682087Y-15961984D02*
X13663039Y-15952460D01*
X13663039Y-15952460D02*
X13653515Y-15933412D01*
X13653515Y-15933412D02*
X13653515Y-15761984D01*
X13834468Y-15952460D02*
X13815420Y-15961984D01*
X13815420Y-15961984D02*
X13777325Y-15961984D01*
X13777325Y-15961984D02*
X13758277Y-15952460D01*
X13758277Y-15952460D02*
X13748753Y-15933412D01*
X13748753Y-15933412D02*
X13748753Y-15857222D01*
X13748753Y-15857222D02*
X13758277Y-15838174D01*
X13758277Y-15838174D02*
X13777325Y-15828650D01*
X13777325Y-15828650D02*
X13815420Y-15828650D01*
X13815420Y-15828650D02*
X13834468Y-15838174D01*
X13834468Y-15838174D02*
X13843991Y-15857222D01*
X13843991Y-15857222D02*
X13843991Y-15876269D01*
X13843991Y-15876269D02*
X13748753Y-15895317D01*
X13920182Y-15952460D02*
X13939230Y-15961984D01*
X13939230Y-15961984D02*
X13977325Y-15961984D01*
X13977325Y-15961984D02*
X13996372Y-15952460D01*
X13996372Y-15952460D02*
X14005896Y-15933412D01*
X14005896Y-15933412D02*
X14005896Y-15923888D01*
X14005896Y-15923888D02*
X13996372Y-15904841D01*
X13996372Y-15904841D02*
X13977325Y-15895317D01*
X13977325Y-15895317D02*
X13948753Y-15895317D01*
X13948753Y-15895317D02*
X13929706Y-15885793D01*
X13929706Y-15885793D02*
X13920182Y-15866746D01*
X13920182Y-15866746D02*
X13920182Y-15857222D01*
X13920182Y-15857222D02*
X13929706Y-15838174D01*
X13929706Y-15838174D02*
X13948753Y-15828650D01*
X13948753Y-15828650D02*
X13977325Y-15828650D01*
X13977325Y-15828650D02*
X13996372Y-15838174D01*
X14072563Y-16038174D02*
X14082087Y-16028650D01*
X14082087Y-16028650D02*
X14101134Y-16000079D01*
X14101134Y-16000079D02*
X14110658Y-15981031D01*
X14110658Y-15981031D02*
X14120182Y-15952460D01*
X14120182Y-15952460D02*
X14129706Y-15904841D01*
X14129706Y-15904841D02*
X14129706Y-15866746D01*
X14129706Y-15866746D02*
X14120182Y-15819127D01*
X14120182Y-15819127D02*
X14110658Y-15790555D01*
X14110658Y-15790555D02*
X14101134Y-15771508D01*
X14101134Y-15771508D02*
X14082087Y-15742936D01*
X14082087Y-15742936D02*
X14072563Y-15733412D01*
D12*
X9283588Y-16168088D02*
X9283588Y-16100912D01*
X9216412Y-16100912D01*
X9216412Y-16168088D01*
X9283588Y-16168088D01*
D11*
X9596372Y-16025984D02*
X9615420Y-16025984D01*
X9615420Y-16025984D02*
X9634467Y-16035508D01*
X9634467Y-16035508D02*
X9643991Y-16045031D01*
X9643991Y-16045031D02*
X9653515Y-16064079D01*
X9653515Y-16064079D02*
X9663039Y-16102174D01*
X9663039Y-16102174D02*
X9663039Y-16149793D01*
X9663039Y-16149793D02*
X9653515Y-16187888D01*
X9653515Y-16187888D02*
X9643991Y-16206936D01*
X9643991Y-16206936D02*
X9634467Y-16216460D01*
X9634467Y-16216460D02*
X9615420Y-16225984D01*
X9615420Y-16225984D02*
X9596372Y-16225984D01*
X9596372Y-16225984D02*
X9577324Y-16216460D01*
X9577324Y-16216460D02*
X9567801Y-16206936D01*
X9567801Y-16206936D02*
X9558277Y-16187888D01*
X9558277Y-16187888D02*
X9548753Y-16149793D01*
X9548753Y-16149793D02*
X9548753Y-16102174D01*
X9548753Y-16102174D02*
X9558277Y-16064079D01*
X9558277Y-16064079D02*
X9567801Y-16045031D01*
X9567801Y-16045031D02*
X9577324Y-16035508D01*
X9577324Y-16035508D02*
X9596372Y-16025984D01*
X9748753Y-16206936D02*
X9758277Y-16216460D01*
X9758277Y-16216460D02*
X9748753Y-16225984D01*
X9748753Y-16225984D02*
X9739229Y-16216460D01*
X9739229Y-16216460D02*
X9748753Y-16206936D01*
X9748753Y-16206936D02*
X9748753Y-16225984D01*
X9853515Y-16225984D02*
X9891610Y-16225984D01*
X9891610Y-16225984D02*
X9910658Y-16216460D01*
X9910658Y-16216460D02*
X9920182Y-16206936D01*
X9920182Y-16206936D02*
X9939229Y-16178365D01*
X9939229Y-16178365D02*
X9948753Y-16140269D01*
X9948753Y-16140269D02*
X9948753Y-16064079D01*
X9948753Y-16064079D02*
X9939229Y-16045031D01*
X9939229Y-16045031D02*
X9929705Y-16035508D01*
X9929705Y-16035508D02*
X9910658Y-16025984D01*
X9910658Y-16025984D02*
X9872563Y-16025984D01*
X9872563Y-16025984D02*
X9853515Y-16035508D01*
X9853515Y-16035508D02*
X9843991Y-16045031D01*
X9843991Y-16045031D02*
X9834467Y-16064079D01*
X9834467Y-16064079D02*
X9834467Y-16111698D01*
X9834467Y-16111698D02*
X9843991Y-16130746D01*
X9843991Y-16130746D02*
X9853515Y-16140269D01*
X9853515Y-16140269D02*
X9872563Y-16149793D01*
X9872563Y-16149793D02*
X9910658Y-16149793D01*
X9910658Y-16149793D02*
X9929705Y-16140269D01*
X9929705Y-16140269D02*
X9939229Y-16130746D01*
X9939229Y-16130746D02*
X9948753Y-16111698D01*
X10129705Y-16025984D02*
X10034467Y-16025984D01*
X10034467Y-16025984D02*
X10024944Y-16121222D01*
X10024944Y-16121222D02*
X10034467Y-16111698D01*
X10034467Y-16111698D02*
X10053515Y-16102174D01*
X10053515Y-16102174D02*
X10101134Y-16102174D01*
X10101134Y-16102174D02*
X10120182Y-16111698D01*
X10120182Y-16111698D02*
X10129705Y-16121222D01*
X10129705Y-16121222D02*
X10139229Y-16140269D01*
X10139229Y-16140269D02*
X10139229Y-16187888D01*
X10139229Y-16187888D02*
X10129705Y-16206936D01*
X10129705Y-16206936D02*
X10120182Y-16216460D01*
X10120182Y-16216460D02*
X10101134Y-16225984D01*
X10101134Y-16225984D02*
X10053515Y-16225984D01*
X10053515Y-16225984D02*
X10034467Y-16216460D01*
X10034467Y-16216460D02*
X10024944Y-16206936D01*
X10263039Y-16025984D02*
X10282086Y-16025984D01*
X10282086Y-16025984D02*
X10301134Y-16035508D01*
X10301134Y-16035508D02*
X10310658Y-16045031D01*
X10310658Y-16045031D02*
X10320182Y-16064079D01*
X10320182Y-16064079D02*
X10329705Y-16102174D01*
X10329705Y-16102174D02*
X10329705Y-16149793D01*
X10329705Y-16149793D02*
X10320182Y-16187888D01*
X10320182Y-16187888D02*
X10310658Y-16206936D01*
X10310658Y-16206936D02*
X10301134Y-16216460D01*
X10301134Y-16216460D02*
X10282086Y-16225984D01*
X10282086Y-16225984D02*
X10263039Y-16225984D01*
X10263039Y-16225984D02*
X10243991Y-16216460D01*
X10243991Y-16216460D02*
X10234467Y-16206936D01*
X10234467Y-16206936D02*
X10224944Y-16187888D01*
X10224944Y-16187888D02*
X10215420Y-16149793D01*
X10215420Y-16149793D02*
X10215420Y-16102174D01*
X10215420Y-16102174D02*
X10224944Y-16064079D01*
X10224944Y-16064079D02*
X10234467Y-16045031D01*
X10234467Y-16045031D02*
X10243991Y-16035508D01*
X10243991Y-16035508D02*
X10263039Y-16025984D01*
X10415420Y-16225984D02*
X10415420Y-16092650D01*
X10415420Y-16111698D02*
X10424944Y-16102174D01*
X10424944Y-16102174D02*
X10443991Y-16092650D01*
X10443991Y-16092650D02*
X10472563Y-16092650D01*
X10472563Y-16092650D02*
X10491610Y-16102174D01*
X10491610Y-16102174D02*
X10501134Y-16121222D01*
X10501134Y-16121222D02*
X10501134Y-16225984D01*
X10501134Y-16121222D02*
X10510658Y-16102174D01*
X10510658Y-16102174D02*
X10529705Y-16092650D01*
X10529705Y-16092650D02*
X10558277Y-16092650D01*
X10558277Y-16092650D02*
X10577325Y-16102174D01*
X10577325Y-16102174D02*
X10586848Y-16121222D01*
X10586848Y-16121222D02*
X10586848Y-16225984D01*
X10682086Y-16225984D02*
X10682086Y-16092650D01*
X10682086Y-16111698D02*
X10691610Y-16102174D01*
X10691610Y-16102174D02*
X10710658Y-16092650D01*
X10710658Y-16092650D02*
X10739229Y-16092650D01*
X10739229Y-16092650D02*
X10758277Y-16102174D01*
X10758277Y-16102174D02*
X10767801Y-16121222D01*
X10767801Y-16121222D02*
X10767801Y-16225984D01*
X10767801Y-16121222D02*
X10777325Y-16102174D01*
X10777325Y-16102174D02*
X10796372Y-16092650D01*
X10796372Y-16092650D02*
X10824944Y-16092650D01*
X10824944Y-16092650D02*
X10843991Y-16102174D01*
X10843991Y-16102174D02*
X10853515Y-16121222D01*
X10853515Y-16121222D02*
X10853515Y-16225984D01*
X11243991Y-16016460D02*
X11072563Y-16273603D01*
X11501134Y-16025984D02*
X11520182Y-16025984D01*
X11520182Y-16025984D02*
X11539229Y-16035508D01*
X11539229Y-16035508D02*
X11548753Y-16045031D01*
X11548753Y-16045031D02*
X11558277Y-16064079D01*
X11558277Y-16064079D02*
X11567801Y-16102174D01*
X11567801Y-16102174D02*
X11567801Y-16149793D01*
X11567801Y-16149793D02*
X11558277Y-16187888D01*
X11558277Y-16187888D02*
X11548753Y-16206936D01*
X11548753Y-16206936D02*
X11539229Y-16216460D01*
X11539229Y-16216460D02*
X11520182Y-16225984D01*
X11520182Y-16225984D02*
X11501134Y-16225984D01*
X11501134Y-16225984D02*
X11482086Y-16216460D01*
X11482086Y-16216460D02*
X11472563Y-16206936D01*
X11472563Y-16206936D02*
X11463039Y-16187888D01*
X11463039Y-16187888D02*
X11453515Y-16149793D01*
X11453515Y-16149793D02*
X11453515Y-16102174D01*
X11453515Y-16102174D02*
X11463039Y-16064079D01*
X11463039Y-16064079D02*
X11472563Y-16045031D01*
X11472563Y-16045031D02*
X11482086Y-16035508D01*
X11482086Y-16035508D02*
X11501134Y-16025984D01*
X11653515Y-16206936D02*
X11663039Y-16216460D01*
X11663039Y-16216460D02*
X11653515Y-16225984D01*
X11653515Y-16225984D02*
X11643991Y-16216460D01*
X11643991Y-16216460D02*
X11653515Y-16206936D01*
X11653515Y-16206936D02*
X11653515Y-16225984D01*
X11786848Y-16025984D02*
X11805896Y-16025984D01*
X11805896Y-16025984D02*
X11824944Y-16035508D01*
X11824944Y-16035508D02*
X11834467Y-16045031D01*
X11834467Y-16045031D02*
X11843991Y-16064079D01*
X11843991Y-16064079D02*
X11853515Y-16102174D01*
X11853515Y-16102174D02*
X11853515Y-16149793D01*
X11853515Y-16149793D02*
X11843991Y-16187888D01*
X11843991Y-16187888D02*
X11834467Y-16206936D01*
X11834467Y-16206936D02*
X11824944Y-16216460D01*
X11824944Y-16216460D02*
X11805896Y-16225984D01*
X11805896Y-16225984D02*
X11786848Y-16225984D01*
X11786848Y-16225984D02*
X11767801Y-16216460D01*
X11767801Y-16216460D02*
X11758277Y-16206936D01*
X11758277Y-16206936D02*
X11748753Y-16187888D01*
X11748753Y-16187888D02*
X11739229Y-16149793D01*
X11739229Y-16149793D02*
X11739229Y-16102174D01*
X11739229Y-16102174D02*
X11748753Y-16064079D01*
X11748753Y-16064079D02*
X11758277Y-16045031D01*
X11758277Y-16045031D02*
X11767801Y-16035508D01*
X11767801Y-16035508D02*
X11786848Y-16025984D01*
X11920182Y-16025984D02*
X12043991Y-16025984D01*
X12043991Y-16025984D02*
X11977325Y-16102174D01*
X11977325Y-16102174D02*
X12005896Y-16102174D01*
X12005896Y-16102174D02*
X12024944Y-16111698D01*
X12024944Y-16111698D02*
X12034467Y-16121222D01*
X12034467Y-16121222D02*
X12043991Y-16140269D01*
X12043991Y-16140269D02*
X12043991Y-16187888D01*
X12043991Y-16187888D02*
X12034467Y-16206936D01*
X12034467Y-16206936D02*
X12024944Y-16216460D01*
X12024944Y-16216460D02*
X12005896Y-16225984D01*
X12005896Y-16225984D02*
X11948753Y-16225984D01*
X11948753Y-16225984D02*
X11929706Y-16216460D01*
X11929706Y-16216460D02*
X11920182Y-16206936D01*
X12110658Y-16025984D02*
X12243991Y-16025984D01*
X12243991Y-16025984D02*
X12158277Y-16225984D01*
X12405896Y-16092650D02*
X12405896Y-16225984D01*
X12358277Y-16016460D02*
X12310658Y-16159317D01*
X12310658Y-16159317D02*
X12434467Y-16159317D01*
X12501134Y-16025984D02*
X12501134Y-16064079D01*
X12577325Y-16025984D02*
X12577325Y-16064079D01*
X12872563Y-16302174D02*
X12863039Y-16292650D01*
X12863039Y-16292650D02*
X12843991Y-16264079D01*
X12843991Y-16264079D02*
X12834468Y-16245031D01*
X12834468Y-16245031D02*
X12824944Y-16216460D01*
X12824944Y-16216460D02*
X12815420Y-16168841D01*
X12815420Y-16168841D02*
X12815420Y-16130746D01*
X12815420Y-16130746D02*
X12824944Y-16083127D01*
X12824944Y-16083127D02*
X12834468Y-16054555D01*
X12834468Y-16054555D02*
X12843991Y-16035508D01*
X12843991Y-16035508D02*
X12863039Y-16006936D01*
X12863039Y-16006936D02*
X12872563Y-15997412D01*
X12939229Y-16045031D02*
X12948753Y-16035508D01*
X12948753Y-16035508D02*
X12967801Y-16025984D01*
X12967801Y-16025984D02*
X13015420Y-16025984D01*
X13015420Y-16025984D02*
X13034468Y-16035508D01*
X13034468Y-16035508D02*
X13043991Y-16045031D01*
X13043991Y-16045031D02*
X13053515Y-16064079D01*
X13053515Y-16064079D02*
X13053515Y-16083127D01*
X13053515Y-16083127D02*
X13043991Y-16111698D01*
X13043991Y-16111698D02*
X12929706Y-16225984D01*
X12929706Y-16225984D02*
X13053515Y-16225984D01*
X13148753Y-16225984D02*
X13186848Y-16225984D01*
X13186848Y-16225984D02*
X13205896Y-16216460D01*
X13205896Y-16216460D02*
X13215420Y-16206936D01*
X13215420Y-16206936D02*
X13234468Y-16178365D01*
X13234468Y-16178365D02*
X13243991Y-16140269D01*
X13243991Y-16140269D02*
X13243991Y-16064079D01*
X13243991Y-16064079D02*
X13234468Y-16045031D01*
X13234468Y-16045031D02*
X13224944Y-16035508D01*
X13224944Y-16035508D02*
X13205896Y-16025984D01*
X13205896Y-16025984D02*
X13167801Y-16025984D01*
X13167801Y-16025984D02*
X13148753Y-16035508D01*
X13148753Y-16035508D02*
X13139229Y-16045031D01*
X13139229Y-16045031D02*
X13129706Y-16064079D01*
X13129706Y-16064079D02*
X13129706Y-16111698D01*
X13129706Y-16111698D02*
X13139229Y-16130746D01*
X13139229Y-16130746D02*
X13148753Y-16140269D01*
X13148753Y-16140269D02*
X13167801Y-16149793D01*
X13167801Y-16149793D02*
X13205896Y-16149793D01*
X13205896Y-16149793D02*
X13224944Y-16140269D01*
X13224944Y-16140269D02*
X13234468Y-16130746D01*
X13234468Y-16130746D02*
X13243991Y-16111698D01*
X13482087Y-16225984D02*
X13482087Y-16025984D01*
X13567801Y-16225984D02*
X13567801Y-16121222D01*
X13567801Y-16121222D02*
X13558277Y-16102174D01*
X13558277Y-16102174D02*
X13539230Y-16092650D01*
X13539230Y-16092650D02*
X13510658Y-16092650D01*
X13510658Y-16092650D02*
X13491610Y-16102174D01*
X13491610Y-16102174D02*
X13482087Y-16111698D01*
X13691610Y-16225984D02*
X13672563Y-16216460D01*
X13672563Y-16216460D02*
X13663039Y-16206936D01*
X13663039Y-16206936D02*
X13653515Y-16187888D01*
X13653515Y-16187888D02*
X13653515Y-16130746D01*
X13653515Y-16130746D02*
X13663039Y-16111698D01*
X13663039Y-16111698D02*
X13672563Y-16102174D01*
X13672563Y-16102174D02*
X13691610Y-16092650D01*
X13691610Y-16092650D02*
X13720182Y-16092650D01*
X13720182Y-16092650D02*
X13739230Y-16102174D01*
X13739230Y-16102174D02*
X13748753Y-16111698D01*
X13748753Y-16111698D02*
X13758277Y-16130746D01*
X13758277Y-16130746D02*
X13758277Y-16187888D01*
X13758277Y-16187888D02*
X13748753Y-16206936D01*
X13748753Y-16206936D02*
X13739230Y-16216460D01*
X13739230Y-16216460D02*
X13720182Y-16225984D01*
X13720182Y-16225984D02*
X13691610Y-16225984D01*
X13872563Y-16225984D02*
X13853515Y-16216460D01*
X13853515Y-16216460D02*
X13843991Y-16197412D01*
X13843991Y-16197412D02*
X13843991Y-16025984D01*
X14024944Y-16216460D02*
X14005896Y-16225984D01*
X14005896Y-16225984D02*
X13967801Y-16225984D01*
X13967801Y-16225984D02*
X13948753Y-16216460D01*
X13948753Y-16216460D02*
X13939230Y-16197412D01*
X13939230Y-16197412D02*
X13939230Y-16121222D01*
X13939230Y-16121222D02*
X13948753Y-16102174D01*
X13948753Y-16102174D02*
X13967801Y-16092650D01*
X13967801Y-16092650D02*
X14005896Y-16092650D01*
X14005896Y-16092650D02*
X14024944Y-16102174D01*
X14024944Y-16102174D02*
X14034468Y-16121222D01*
X14034468Y-16121222D02*
X14034468Y-16140269D01*
X14034468Y-16140269D02*
X13939230Y-16159317D01*
X14110658Y-16216460D02*
X14129706Y-16225984D01*
X14129706Y-16225984D02*
X14167801Y-16225984D01*
X14167801Y-16225984D02*
X14186849Y-16216460D01*
X14186849Y-16216460D02*
X14196372Y-16197412D01*
X14196372Y-16197412D02*
X14196372Y-16187888D01*
X14196372Y-16187888D02*
X14186849Y-16168841D01*
X14186849Y-16168841D02*
X14167801Y-16159317D01*
X14167801Y-16159317D02*
X14139230Y-16159317D01*
X14139230Y-16159317D02*
X14120182Y-16149793D01*
X14120182Y-16149793D02*
X14110658Y-16130746D01*
X14110658Y-16130746D02*
X14110658Y-16121222D01*
X14110658Y-16121222D02*
X14120182Y-16102174D01*
X14120182Y-16102174D02*
X14139230Y-16092650D01*
X14139230Y-16092650D02*
X14167801Y-16092650D01*
X14167801Y-16092650D02*
X14186849Y-16102174D01*
X14263039Y-16302174D02*
X14272563Y-16292650D01*
X14272563Y-16292650D02*
X14291611Y-16264079D01*
X14291611Y-16264079D02*
X14301134Y-16245031D01*
X14301134Y-16245031D02*
X14310658Y-16216460D01*
X14310658Y-16216460D02*
X14320182Y-16168841D01*
X14320182Y-16168841D02*
X14320182Y-16130746D01*
X14320182Y-16130746D02*
X14310658Y-16083127D01*
X14310658Y-16083127D02*
X14301134Y-16054555D01*
X14301134Y-16054555D02*
X14291611Y-16035508D01*
X14291611Y-16035508D02*
X14272563Y-16006936D01*
X14272563Y-16006936D02*
X14263039Y-15997412D01*
D12*
X9247500Y-16448500D02*
X9297500Y-16398500D01*
X9247500Y-16348500D01*
X9197500Y-16398500D01*
X9247500Y-16448500D01*
D11*
X9663039Y-16489984D02*
X9548753Y-16489984D01*
X9605896Y-16489984D02*
X9605896Y-16289984D01*
X9605896Y-16289984D02*
X9586848Y-16318555D01*
X9586848Y-16318555D02*
X9567801Y-16337603D01*
X9567801Y-16337603D02*
X9548753Y-16347127D01*
X9748753Y-16470936D02*
X9758277Y-16480460D01*
X9758277Y-16480460D02*
X9748753Y-16489984D01*
X9748753Y-16489984D02*
X9739229Y-16480460D01*
X9739229Y-16480460D02*
X9748753Y-16470936D01*
X9748753Y-16470936D02*
X9748753Y-16489984D01*
X9882086Y-16289984D02*
X9901134Y-16289984D01*
X9901134Y-16289984D02*
X9920182Y-16299508D01*
X9920182Y-16299508D02*
X9929705Y-16309031D01*
X9929705Y-16309031D02*
X9939229Y-16328079D01*
X9939229Y-16328079D02*
X9948753Y-16366174D01*
X9948753Y-16366174D02*
X9948753Y-16413793D01*
X9948753Y-16413793D02*
X9939229Y-16451888D01*
X9939229Y-16451888D02*
X9929705Y-16470936D01*
X9929705Y-16470936D02*
X9920182Y-16480460D01*
X9920182Y-16480460D02*
X9901134Y-16489984D01*
X9901134Y-16489984D02*
X9882086Y-16489984D01*
X9882086Y-16489984D02*
X9863039Y-16480460D01*
X9863039Y-16480460D02*
X9853515Y-16470936D01*
X9853515Y-16470936D02*
X9843991Y-16451888D01*
X9843991Y-16451888D02*
X9834467Y-16413793D01*
X9834467Y-16413793D02*
X9834467Y-16366174D01*
X9834467Y-16366174D02*
X9843991Y-16328079D01*
X9843991Y-16328079D02*
X9853515Y-16309031D01*
X9853515Y-16309031D02*
X9863039Y-16299508D01*
X9863039Y-16299508D02*
X9882086Y-16289984D01*
X10072563Y-16289984D02*
X10091610Y-16289984D01*
X10091610Y-16289984D02*
X10110658Y-16299508D01*
X10110658Y-16299508D02*
X10120182Y-16309031D01*
X10120182Y-16309031D02*
X10129705Y-16328079D01*
X10129705Y-16328079D02*
X10139229Y-16366174D01*
X10139229Y-16366174D02*
X10139229Y-16413793D01*
X10139229Y-16413793D02*
X10129705Y-16451888D01*
X10129705Y-16451888D02*
X10120182Y-16470936D01*
X10120182Y-16470936D02*
X10110658Y-16480460D01*
X10110658Y-16480460D02*
X10091610Y-16489984D01*
X10091610Y-16489984D02*
X10072563Y-16489984D01*
X10072563Y-16489984D02*
X10053515Y-16480460D01*
X10053515Y-16480460D02*
X10043991Y-16470936D01*
X10043991Y-16470936D02*
X10034467Y-16451888D01*
X10034467Y-16451888D02*
X10024944Y-16413793D01*
X10024944Y-16413793D02*
X10024944Y-16366174D01*
X10024944Y-16366174D02*
X10034467Y-16328079D01*
X10034467Y-16328079D02*
X10043991Y-16309031D01*
X10043991Y-16309031D02*
X10053515Y-16299508D01*
X10053515Y-16299508D02*
X10072563Y-16289984D01*
X10263039Y-16289984D02*
X10282086Y-16289984D01*
X10282086Y-16289984D02*
X10301134Y-16299508D01*
X10301134Y-16299508D02*
X10310658Y-16309031D01*
X10310658Y-16309031D02*
X10320182Y-16328079D01*
X10320182Y-16328079D02*
X10329705Y-16366174D01*
X10329705Y-16366174D02*
X10329705Y-16413793D01*
X10329705Y-16413793D02*
X10320182Y-16451888D01*
X10320182Y-16451888D02*
X10310658Y-16470936D01*
X10310658Y-16470936D02*
X10301134Y-16480460D01*
X10301134Y-16480460D02*
X10282086Y-16489984D01*
X10282086Y-16489984D02*
X10263039Y-16489984D01*
X10263039Y-16489984D02*
X10243991Y-16480460D01*
X10243991Y-16480460D02*
X10234467Y-16470936D01*
X10234467Y-16470936D02*
X10224944Y-16451888D01*
X10224944Y-16451888D02*
X10215420Y-16413793D01*
X10215420Y-16413793D02*
X10215420Y-16366174D01*
X10215420Y-16366174D02*
X10224944Y-16328079D01*
X10224944Y-16328079D02*
X10234467Y-16309031D01*
X10234467Y-16309031D02*
X10243991Y-16299508D01*
X10243991Y-16299508D02*
X10263039Y-16289984D01*
X10415420Y-16489984D02*
X10415420Y-16356650D01*
X10415420Y-16375698D02*
X10424944Y-16366174D01*
X10424944Y-16366174D02*
X10443991Y-16356650D01*
X10443991Y-16356650D02*
X10472563Y-16356650D01*
X10472563Y-16356650D02*
X10491610Y-16366174D01*
X10491610Y-16366174D02*
X10501134Y-16385222D01*
X10501134Y-16385222D02*
X10501134Y-16489984D01*
X10501134Y-16385222D02*
X10510658Y-16366174D01*
X10510658Y-16366174D02*
X10529705Y-16356650D01*
X10529705Y-16356650D02*
X10558277Y-16356650D01*
X10558277Y-16356650D02*
X10577325Y-16366174D01*
X10577325Y-16366174D02*
X10586848Y-16385222D01*
X10586848Y-16385222D02*
X10586848Y-16489984D01*
X10682086Y-16489984D02*
X10682086Y-16356650D01*
X10682086Y-16375698D02*
X10691610Y-16366174D01*
X10691610Y-16366174D02*
X10710658Y-16356650D01*
X10710658Y-16356650D02*
X10739229Y-16356650D01*
X10739229Y-16356650D02*
X10758277Y-16366174D01*
X10758277Y-16366174D02*
X10767801Y-16385222D01*
X10767801Y-16385222D02*
X10767801Y-16489984D01*
X10767801Y-16385222D02*
X10777325Y-16366174D01*
X10777325Y-16366174D02*
X10796372Y-16356650D01*
X10796372Y-16356650D02*
X10824944Y-16356650D01*
X10824944Y-16356650D02*
X10843991Y-16366174D01*
X10843991Y-16366174D02*
X10853515Y-16385222D01*
X10853515Y-16385222D02*
X10853515Y-16489984D01*
X11243991Y-16280460D02*
X11072563Y-16537603D01*
X11501134Y-16289984D02*
X11520182Y-16289984D01*
X11520182Y-16289984D02*
X11539229Y-16299508D01*
X11539229Y-16299508D02*
X11548753Y-16309031D01*
X11548753Y-16309031D02*
X11558277Y-16328079D01*
X11558277Y-16328079D02*
X11567801Y-16366174D01*
X11567801Y-16366174D02*
X11567801Y-16413793D01*
X11567801Y-16413793D02*
X11558277Y-16451888D01*
X11558277Y-16451888D02*
X11548753Y-16470936D01*
X11548753Y-16470936D02*
X11539229Y-16480460D01*
X11539229Y-16480460D02*
X11520182Y-16489984D01*
X11520182Y-16489984D02*
X11501134Y-16489984D01*
X11501134Y-16489984D02*
X11482086Y-16480460D01*
X11482086Y-16480460D02*
X11472563Y-16470936D01*
X11472563Y-16470936D02*
X11463039Y-16451888D01*
X11463039Y-16451888D02*
X11453515Y-16413793D01*
X11453515Y-16413793D02*
X11453515Y-16366174D01*
X11453515Y-16366174D02*
X11463039Y-16328079D01*
X11463039Y-16328079D02*
X11472563Y-16309031D01*
X11472563Y-16309031D02*
X11482086Y-16299508D01*
X11482086Y-16299508D02*
X11501134Y-16289984D01*
X11653515Y-16470936D02*
X11663039Y-16480460D01*
X11663039Y-16480460D02*
X11653515Y-16489984D01*
X11653515Y-16489984D02*
X11643991Y-16480460D01*
X11643991Y-16480460D02*
X11653515Y-16470936D01*
X11653515Y-16470936D02*
X11653515Y-16489984D01*
X11786848Y-16289984D02*
X11805896Y-16289984D01*
X11805896Y-16289984D02*
X11824944Y-16299508D01*
X11824944Y-16299508D02*
X11834467Y-16309031D01*
X11834467Y-16309031D02*
X11843991Y-16328079D01*
X11843991Y-16328079D02*
X11853515Y-16366174D01*
X11853515Y-16366174D02*
X11853515Y-16413793D01*
X11853515Y-16413793D02*
X11843991Y-16451888D01*
X11843991Y-16451888D02*
X11834467Y-16470936D01*
X11834467Y-16470936D02*
X11824944Y-16480460D01*
X11824944Y-16480460D02*
X11805896Y-16489984D01*
X11805896Y-16489984D02*
X11786848Y-16489984D01*
X11786848Y-16489984D02*
X11767801Y-16480460D01*
X11767801Y-16480460D02*
X11758277Y-16470936D01*
X11758277Y-16470936D02*
X11748753Y-16451888D01*
X11748753Y-16451888D02*
X11739229Y-16413793D01*
X11739229Y-16413793D02*
X11739229Y-16366174D01*
X11739229Y-16366174D02*
X11748753Y-16328079D01*
X11748753Y-16328079D02*
X11758277Y-16309031D01*
X11758277Y-16309031D02*
X11767801Y-16299508D01*
X11767801Y-16299508D02*
X11786848Y-16289984D01*
X11920182Y-16289984D02*
X12043991Y-16289984D01*
X12043991Y-16289984D02*
X11977325Y-16366174D01*
X11977325Y-16366174D02*
X12005896Y-16366174D01*
X12005896Y-16366174D02*
X12024944Y-16375698D01*
X12024944Y-16375698D02*
X12034467Y-16385222D01*
X12034467Y-16385222D02*
X12043991Y-16404269D01*
X12043991Y-16404269D02*
X12043991Y-16451888D01*
X12043991Y-16451888D02*
X12034467Y-16470936D01*
X12034467Y-16470936D02*
X12024944Y-16480460D01*
X12024944Y-16480460D02*
X12005896Y-16489984D01*
X12005896Y-16489984D02*
X11948753Y-16489984D01*
X11948753Y-16489984D02*
X11929706Y-16480460D01*
X11929706Y-16480460D02*
X11920182Y-16470936D01*
X12139229Y-16489984D02*
X12177325Y-16489984D01*
X12177325Y-16489984D02*
X12196372Y-16480460D01*
X12196372Y-16480460D02*
X12205896Y-16470936D01*
X12205896Y-16470936D02*
X12224944Y-16442365D01*
X12224944Y-16442365D02*
X12234467Y-16404269D01*
X12234467Y-16404269D02*
X12234467Y-16328079D01*
X12234467Y-16328079D02*
X12224944Y-16309031D01*
X12224944Y-16309031D02*
X12215420Y-16299508D01*
X12215420Y-16299508D02*
X12196372Y-16289984D01*
X12196372Y-16289984D02*
X12158277Y-16289984D01*
X12158277Y-16289984D02*
X12139229Y-16299508D01*
X12139229Y-16299508D02*
X12129706Y-16309031D01*
X12129706Y-16309031D02*
X12120182Y-16328079D01*
X12120182Y-16328079D02*
X12120182Y-16375698D01*
X12120182Y-16375698D02*
X12129706Y-16394746D01*
X12129706Y-16394746D02*
X12139229Y-16404269D01*
X12139229Y-16404269D02*
X12158277Y-16413793D01*
X12158277Y-16413793D02*
X12196372Y-16413793D01*
X12196372Y-16413793D02*
X12215420Y-16404269D01*
X12215420Y-16404269D02*
X12224944Y-16394746D01*
X12224944Y-16394746D02*
X12234467Y-16375698D01*
X12405896Y-16356650D02*
X12405896Y-16489984D01*
X12358277Y-16280460D02*
X12310658Y-16423317D01*
X12310658Y-16423317D02*
X12434467Y-16423317D01*
X12501134Y-16289984D02*
X12501134Y-16328079D01*
X12577325Y-16289984D02*
X12577325Y-16328079D01*
X12872563Y-16566174D02*
X12863039Y-16556650D01*
X12863039Y-16556650D02*
X12843991Y-16528079D01*
X12843991Y-16528079D02*
X12834468Y-16509031D01*
X12834468Y-16509031D02*
X12824944Y-16480460D01*
X12824944Y-16480460D02*
X12815420Y-16432841D01*
X12815420Y-16432841D02*
X12815420Y-16394746D01*
X12815420Y-16394746D02*
X12824944Y-16347127D01*
X12824944Y-16347127D02*
X12834468Y-16318555D01*
X12834468Y-16318555D02*
X12843991Y-16299508D01*
X12843991Y-16299508D02*
X12863039Y-16270936D01*
X12863039Y-16270936D02*
X12872563Y-16261412D01*
X13034468Y-16356650D02*
X13034468Y-16489984D01*
X12986848Y-16280460D02*
X12939229Y-16423317D01*
X12939229Y-16423317D02*
X13063039Y-16423317D01*
X13291610Y-16489984D02*
X13291610Y-16289984D01*
X13377325Y-16489984D02*
X13377325Y-16385222D01*
X13377325Y-16385222D02*
X13367801Y-16366174D01*
X13367801Y-16366174D02*
X13348753Y-16356650D01*
X13348753Y-16356650D02*
X13320182Y-16356650D01*
X13320182Y-16356650D02*
X13301134Y-16366174D01*
X13301134Y-16366174D02*
X13291610Y-16375698D01*
X13501134Y-16489984D02*
X13482087Y-16480460D01*
X13482087Y-16480460D02*
X13472563Y-16470936D01*
X13472563Y-16470936D02*
X13463039Y-16451888D01*
X13463039Y-16451888D02*
X13463039Y-16394746D01*
X13463039Y-16394746D02*
X13472563Y-16375698D01*
X13472563Y-16375698D02*
X13482087Y-16366174D01*
X13482087Y-16366174D02*
X13501134Y-16356650D01*
X13501134Y-16356650D02*
X13529706Y-16356650D01*
X13529706Y-16356650D02*
X13548753Y-16366174D01*
X13548753Y-16366174D02*
X13558277Y-16375698D01*
X13558277Y-16375698D02*
X13567801Y-16394746D01*
X13567801Y-16394746D02*
X13567801Y-16451888D01*
X13567801Y-16451888D02*
X13558277Y-16470936D01*
X13558277Y-16470936D02*
X13548753Y-16480460D01*
X13548753Y-16480460D02*
X13529706Y-16489984D01*
X13529706Y-16489984D02*
X13501134Y-16489984D01*
X13682087Y-16489984D02*
X13663039Y-16480460D01*
X13663039Y-16480460D02*
X13653515Y-16461412D01*
X13653515Y-16461412D02*
X13653515Y-16289984D01*
X13834468Y-16480460D02*
X13815420Y-16489984D01*
X13815420Y-16489984D02*
X13777325Y-16489984D01*
X13777325Y-16489984D02*
X13758277Y-16480460D01*
X13758277Y-16480460D02*
X13748753Y-16461412D01*
X13748753Y-16461412D02*
X13748753Y-16385222D01*
X13748753Y-16385222D02*
X13758277Y-16366174D01*
X13758277Y-16366174D02*
X13777325Y-16356650D01*
X13777325Y-16356650D02*
X13815420Y-16356650D01*
X13815420Y-16356650D02*
X13834468Y-16366174D01*
X13834468Y-16366174D02*
X13843991Y-16385222D01*
X13843991Y-16385222D02*
X13843991Y-16404269D01*
X13843991Y-16404269D02*
X13748753Y-16423317D01*
X13920182Y-16480460D02*
X13939230Y-16489984D01*
X13939230Y-16489984D02*
X13977325Y-16489984D01*
X13977325Y-16489984D02*
X13996372Y-16480460D01*
X13996372Y-16480460D02*
X14005896Y-16461412D01*
X14005896Y-16461412D02*
X14005896Y-16451888D01*
X14005896Y-16451888D02*
X13996372Y-16432841D01*
X13996372Y-16432841D02*
X13977325Y-16423317D01*
X13977325Y-16423317D02*
X13948753Y-16423317D01*
X13948753Y-16423317D02*
X13929706Y-16413793D01*
X13929706Y-16413793D02*
X13920182Y-16394746D01*
X13920182Y-16394746D02*
X13920182Y-16385222D01*
X13920182Y-16385222D02*
X13929706Y-16366174D01*
X13929706Y-16366174D02*
X13948753Y-16356650D01*
X13948753Y-16356650D02*
X13977325Y-16356650D01*
X13977325Y-16356650D02*
X13996372Y-16366174D01*
X14072563Y-16566174D02*
X14082087Y-16556650D01*
X14082087Y-16556650D02*
X14101134Y-16528079D01*
X14101134Y-16528079D02*
X14110658Y-16509031D01*
X14110658Y-16509031D02*
X14120182Y-16480460D01*
X14120182Y-16480460D02*
X14129706Y-16432841D01*
X14129706Y-16432841D02*
X14129706Y-16394746D01*
X14129706Y-16394746D02*
X14120182Y-16347127D01*
X14120182Y-16347127D02*
X14110658Y-16318555D01*
X14110658Y-16318555D02*
X14101134Y-16299508D01*
X14101134Y-16299508D02*
X14082087Y-16270936D01*
X14082087Y-16270936D02*
X14072563Y-16261412D01*
M02*
